G04 Layer_Physical_Order=8*
G04 Layer_Color=16711680*
%FSLAX44Y44*%
%MOMM*%
G71*
G01*
G75*
%ADD11R,1.2000X0.8000*%
%ADD12R,0.8000X1.2000*%
%ADD13C,1.0000*%
%ADD16R,0.4500X0.6000*%
%ADD17R,0.6000X0.4500*%
%ADD18R,1.0000X1.2000*%
%ADD19R,1.2000X1.0000*%
%ADD20R,2.6000X1.6000*%
%ADD21R,1.6000X2.6000*%
%ADD22R,2.4000X2.6000*%
%ADD24R,1.3970X1.1938*%
%ADD27O,1.2000X0.3000*%
%ADD42C,0.3000*%
%ADD43C,0.1500*%
%ADD44C,0.5000*%
%ADD45C,1.0000*%
%ADD46C,0.2000*%
%ADD47C,0.1640*%
%ADD48C,0.6000*%
%ADD49C,1.5000*%
%ADD50R,1.5000X1.5000*%
%ADD51R,1.5000X1.5000*%
%ADD52C,1.0160*%
%ADD53O,2.0000X4.5000*%
%ADD54O,4.5000X2.0000*%
%ADD55C,0.5000*%
%ADD56C,0.6000*%
%ADD66C,0.2500*%
%ADD67C,0.2540*%
%ADD68C,0.4500*%
%ADD69O,0.3000X1.2000*%
G04:AMPARAMS|DCode=70|XSize=1.27mm|YSize=1.27mm|CornerRadius=0.635mm|HoleSize=0mm|Usage=FLASHONLY|Rotation=0.000|XOffset=0mm|YOffset=0mm|HoleType=Round|Shape=RoundedRectangle|*
%AMROUNDEDRECTD70*
21,1,1.2700,0.0000,0,0,0.0*
21,1,0.0000,1.2700,0,0,0.0*
1,1,1.2700,0.0000,0.0000*
1,1,1.2700,0.0000,0.0000*
1,1,1.2700,0.0000,0.0000*
1,1,1.2700,0.0000,0.0000*
%
%ADD70ROUNDEDRECTD70*%
%ADD71R,0.8000X0.8000*%
%ADD72R,0.8000X0.8000*%
%ADD73R,1.8000X1.4000*%
%ADD74R,1.4000X1.8000*%
G04:AMPARAMS|DCode=75|XSize=0.6096mm|YSize=0.254mm|CornerRadius=0.1143mm|HoleSize=0mm|Usage=FLASHONLY|Rotation=270.000|XOffset=0mm|YOffset=0mm|HoleType=Round|Shape=RoundedRectangle|*
%AMROUNDEDRECTD75*
21,1,0.6096,0.0254,0,0,270.0*
21,1,0.3810,0.2540,0,0,270.0*
1,1,0.2286,-0.0127,-0.1905*
1,1,0.2286,-0.0127,0.1905*
1,1,0.2286,0.0127,0.1905*
1,1,0.2286,0.0127,-0.1905*
%
%ADD75ROUNDEDRECTD75*%
G04:AMPARAMS|DCode=76|XSize=0.6096mm|YSize=0.254mm|CornerRadius=0.1143mm|HoleSize=0mm|Usage=FLASHONLY|Rotation=0.000|XOffset=0mm|YOffset=0mm|HoleType=Round|Shape=RoundedRectangle|*
%AMROUNDEDRECTD76*
21,1,0.6096,0.0254,0,0,0.0*
21,1,0.3810,0.2540,0,0,0.0*
1,1,0.2286,0.1905,-0.0127*
1,1,0.2286,-0.1905,-0.0127*
1,1,0.2286,-0.1905,0.0127*
1,1,0.2286,0.1905,0.0127*
%
%ADD76ROUNDEDRECTD76*%
G04:AMPARAMS|DCode=77|XSize=2.6mm|YSize=1.94mm|CornerRadius=0.097mm|HoleSize=0mm|Usage=FLASHONLY|Rotation=0.000|XOffset=0mm|YOffset=0mm|HoleType=Round|Shape=RoundedRectangle|*
%AMROUNDEDRECTD77*
21,1,2.6000,1.7460,0,0,0.0*
21,1,2.4060,1.9400,0,0,0.0*
1,1,0.1940,1.2030,-0.8730*
1,1,0.1940,-1.2030,-0.8730*
1,1,0.1940,-1.2030,0.8730*
1,1,0.1940,1.2030,0.8730*
%
%ADD77ROUNDEDRECTD77*%
%ADD78R,2.4130X0.8636*%
%ADD79R,13.3858X9.1440*%
G04:AMPARAMS|DCode=80|XSize=5.35mm|YSize=2.35mm|CornerRadius=0.235mm|HoleSize=0mm|Usage=FLASHONLY|Rotation=90.000|XOffset=0mm|YOffset=0mm|HoleType=Round|Shape=RoundedRectangle|*
%AMROUNDEDRECTD80*
21,1,5.3500,1.8800,0,0,90.0*
21,1,4.8800,2.3500,0,0,90.0*
1,1,0.4700,0.9400,2.4400*
1,1,0.4700,0.9400,-2.4400*
1,1,0.4700,-0.9400,-2.4400*
1,1,0.4700,-0.9400,2.4400*
%
%ADD80ROUNDEDRECTD80*%
G04:AMPARAMS|DCode=81|XSize=2.5mm|YSize=1.3mm|CornerRadius=0.13mm|HoleSize=0mm|Usage=FLASHONLY|Rotation=180.000|XOffset=0mm|YOffset=0mm|HoleType=Round|Shape=RoundedRectangle|*
%AMROUNDEDRECTD81*
21,1,2.5000,1.0400,0,0,180.0*
21,1,2.2400,1.3000,0,0,180.0*
1,1,0.2600,-1.1200,0.5200*
1,1,0.2600,1.1200,0.5200*
1,1,0.2600,1.1200,-0.5200*
1,1,0.2600,-1.1200,-0.5200*
%
%ADD81ROUNDEDRECTD81*%
%ADD82R,1.4986X1.7018*%
%ADD83R,1.1000X0.6500*%
%ADD84O,1.1000X0.6500*%
%ADD85R,0.6000X1.5500*%
%ADD86R,1.0160X3.3020*%
%ADD87R,3.3020X1.0160*%
%ADD88R,2.6162X1.0160*%
%ADD89R,1.0160X2.6162*%
%ADD90C,0.4000*%
G36*
X260000Y950000D02*
X560000D01*
Y880000D01*
X635000D01*
Y855000D01*
X625000Y845000D01*
X605000D01*
X595000Y855000D01*
X570000D01*
X565000Y850000D01*
X565000Y815000D01*
X557500Y807500D01*
X532500D01*
X525000Y815000D01*
X525000Y875000D01*
X520000Y880000D01*
X505000D01*
X500000Y875000D01*
X497500Y872500D01*
X495000Y870000D01*
X490000Y865000D01*
X470000Y865000D01*
X460000Y875000D01*
X450000Y885000D01*
X425000D01*
X420000Y880000D01*
Y872500D01*
X405000Y857500D01*
X362500Y857500D01*
X360000Y855000D01*
Y820000D01*
X362500Y817500D01*
Y812500D01*
X332500Y812500D01*
X330000Y815000D01*
X300000D01*
Y790000D01*
X287500Y777500D01*
X210000D01*
Y800000D01*
X252500Y800000D01*
X269265Y813412D01*
Y865000D01*
X235000D01*
X220000Y880000D01*
Y1005000D01*
X260000D01*
Y950000D01*
D02*
G37*
G36*
X210000Y1005000D02*
Y875000D01*
X225000Y860000D01*
X230000Y855000D01*
X240000D01*
Y830000D01*
X210000D01*
Y850000D01*
X195000Y865000D01*
X30000Y865000D01*
Y940689D01*
X30000Y980000D01*
X55000Y1005000D01*
X210000Y1005000D01*
D02*
G37*
G36*
X460824Y853000D02*
X461250Y852944D01*
X461676Y853000D01*
X495000D01*
X495000Y810000D01*
X451250Y810000D01*
Y832250D01*
X420750D01*
X420750Y853000D01*
X460824Y853000D01*
D02*
G37*
G36*
X415000Y812853D02*
X414417Y811447D01*
X414194Y809750D01*
X414417Y808053D01*
X415000Y806647D01*
Y800000D01*
X389000Y800000D01*
X383000Y794000D01*
X379750Y790750D01*
X379750Y774250D01*
X370500Y774250D01*
X370500Y796500D01*
X360750Y796500D01*
X360750Y806602D01*
X361648Y807500D01*
X374848D01*
Y819860D01*
X362500D01*
Y852500D01*
X365000Y855000D01*
X415000D01*
Y812853D01*
D02*
G37*
G36*
X947500Y780000D02*
X727500D01*
Y1000000D01*
X947500D01*
Y780000D01*
D02*
G37*
G36*
X412500Y767500D02*
X407500D01*
Y752500D01*
Y750000D01*
X413000D01*
Y721984D01*
X381000D01*
X381000Y739000D01*
X370458Y739000D01*
Y741556D01*
X369982Y742704D01*
X368834Y743180D01*
X341000D01*
X341000Y761500D01*
Y762682D01*
X368834D01*
X369601Y763000D01*
X370500D01*
X370500Y766750D01*
X382500Y766750D01*
X382500Y790000D01*
X390000Y797500D01*
X412500D01*
Y767500D01*
D02*
G37*
G36*
X245000Y712500D02*
X250000Y707500D01*
X360750Y707500D01*
Y734500D01*
X370500Y734500D01*
X370500Y735606D01*
X371398Y736503D01*
X377499Y736498D01*
X377498Y719250D01*
X415000D01*
X415000Y704250D01*
X375750Y665000D01*
X228000Y665000D01*
X190500Y627500D01*
X190500Y581000D01*
X208250D01*
X208250Y541000D01*
X215102Y541000D01*
X216000Y540102D01*
X216000Y528250D01*
X215000Y527250D01*
Y447500D01*
X150000D01*
X130000Y467500D01*
X107500D01*
X102250Y462250D01*
Y442000D01*
X93750D01*
Y441656D01*
X93060Y441370D01*
X92584Y440222D01*
Y440000D01*
X85500D01*
Y452500D01*
X47500D01*
X45000Y455000D01*
Y485000D01*
Y492500D01*
X65000Y512500D01*
X105000D01*
X120000Y527500D01*
Y627500D01*
X132500Y640000D01*
X140000Y640000D01*
X160000Y660000D01*
X160000Y710000D01*
X175000Y725000D01*
X197500D01*
X210000Y737500D01*
X245000D01*
Y712500D01*
D02*
G37*
G36*
X365000Y630000D02*
X324000D01*
Y593500D01*
X309000D01*
Y594000D01*
X283250Y594000D01*
X283250Y620000D01*
X305000Y620000D01*
X305000Y660000D01*
X365000D01*
Y630000D01*
D02*
G37*
G36*
X445000Y595000D02*
X445000Y580000D01*
X452500Y572500D01*
X457500Y567500D01*
X457500Y557500D01*
X440000D01*
X410000Y587500D01*
X385000D01*
Y605000D01*
X435000D01*
X445000Y595000D01*
D02*
G37*
G36*
X365000Y580000D02*
X410000D01*
Y555000D01*
X325000D01*
Y548500D01*
X311500D01*
Y591250D01*
X330000D01*
Y620000D01*
X365000D01*
Y580000D01*
D02*
G37*
G36*
X195000Y735000D02*
X167500D01*
X147500Y715000D01*
Y657500D01*
X117500D01*
X87500Y627500D01*
Y530000D01*
X27000D01*
Y830000D01*
X48000Y850000D01*
X195000D01*
Y735000D01*
D02*
G37*
G36*
X251250Y520000D02*
X255000Y516250D01*
Y447500D01*
X226250D01*
Y520000D01*
X218500Y527750D01*
X218500Y541500D01*
X225000Y541500D01*
Y596250D01*
X251250D01*
Y520000D01*
D02*
G37*
G36*
X1006564Y406290D02*
X969695D01*
Y543624D01*
X1006564D01*
Y406290D01*
D02*
G37*
G36*
X83000Y444000D02*
Y437250D01*
X92584D01*
Y434972D01*
X93060Y433824D01*
X94208Y433348D01*
X122708D01*
X122750Y433320D01*
Y413874D01*
X122708Y413846D01*
X94208D01*
X93060Y413370D01*
X92584Y412222D01*
Y409750D01*
X83000D01*
Y392000D01*
X32000D01*
X32000Y428000D01*
X48000Y444000D01*
X83000Y444000D01*
D02*
G37*
G36*
X92500Y401352D02*
X92500Y380000D01*
X102250D01*
X102250Y366750D01*
X90500D01*
X86966Y363216D01*
Y354000D01*
X75000Y354000D01*
Y320000D01*
X32000D01*
Y389481D01*
X85663D01*
Y402250D01*
X91602D01*
X92500Y401352D01*
D02*
G37*
G36*
X79979Y261086D02*
X83785Y259932D01*
X87335Y258034D01*
X87305Y257986D01*
X96102Y265098D01*
X102134Y259002D01*
X95006Y250394D01*
X96882Y246885D01*
X98056Y243013D01*
X98000Y243000D01*
X109293Y241730D01*
Y233147D01*
X98054Y231987D01*
X96892Y228158D01*
X95008Y224632D01*
X94961Y224661D01*
X102134Y215864D01*
X96102Y209832D01*
X87334Y216958D01*
X83809Y215074D01*
X83807Y215074D01*
X83763Y215181D01*
X78740Y227307D01*
X80071Y227858D01*
X82355Y229611D01*
X84108Y231896D01*
X85211Y234557D01*
X85586Y237412D01*
X85586Y237412D01*
X85581Y237412D01*
X85587Y237456D01*
X85209Y240329D01*
X84100Y243006D01*
X82336Y245304D01*
X80038Y247068D01*
X77361Y248177D01*
X74488Y248555D01*
X71616Y248177D01*
X68939Y247068D01*
X66640Y245304D01*
X64876Y243006D01*
X63768Y240329D01*
X63389Y237456D01*
X63768Y234583D01*
X64876Y231907D01*
X66640Y229608D01*
X68939Y227844D01*
X70236Y227307D01*
X65113Y215077D01*
X65074Y215088D01*
X61572Y216960D01*
X61600Y217005D01*
X52964Y209832D01*
X46868Y215864D01*
X53932Y224631D01*
X52034Y228181D01*
X50880Y231987D01*
X50932Y231999D01*
X39756Y233147D01*
Y241730D01*
X50877Y243013D01*
X52045Y246862D01*
X53934Y250395D01*
X53980Y250366D01*
X46868Y259002D01*
X52964Y265098D01*
X61571Y258032D01*
X65104Y259921D01*
X68953Y261089D01*
X68966Y261034D01*
X70236Y272210D01*
X78819D01*
X79979Y261086D01*
D02*
G37*
G36*
X70236Y227307D02*
X70236D01*
X70236Y227307D01*
X70236Y227307D01*
D02*
G37*
%LPC*%
G36*
X898672Y966652D02*
X891172D01*
Y957652D01*
X891863D01*
Y942862D01*
X885232D01*
Y940493D01*
X875466D01*
Y941184D01*
X866466D01*
Y933684D01*
X875466D01*
Y934375D01*
X885232D01*
Y931862D01*
X900232D01*
Y942862D01*
X897981D01*
Y957652D01*
X898672D01*
Y966652D01*
D02*
G37*
G36*
X922232Y933362D02*
X907232D01*
Y922362D01*
X922232D01*
Y933362D01*
D02*
G37*
G36*
X900232Y923862D02*
X885232D01*
Y912862D01*
X889649D01*
Y900134D01*
X887208D01*
Y885134D01*
X898208D01*
Y900134D01*
X895767D01*
Y912862D01*
X900232D01*
Y923862D01*
D02*
G37*
G36*
X847048Y887794D02*
X832048D01*
Y876794D01*
X847048D01*
Y887794D01*
D02*
G37*
G36*
X772180Y889944D02*
X764680D01*
Y886020D01*
X758021Y879361D01*
X757358Y878369D01*
X757125Y877198D01*
X757125Y877198D01*
Y865658D01*
X753184D01*
Y856158D01*
X767184D01*
Y857849D01*
X770286D01*
X771347Y857140D01*
X772908Y856830D01*
X774469Y857140D01*
X775792Y858024D01*
X776676Y859347D01*
X776986Y860908D01*
X776676Y862469D01*
X775792Y863792D01*
X774469Y864676D01*
X772908Y864986D01*
X771347Y864676D01*
X770286Y863967D01*
X767184D01*
Y865658D01*
X763243D01*
Y875931D01*
X768256Y880944D01*
X772180D01*
Y889944D01*
D02*
G37*
G36*
X847048Y906794D02*
X832048D01*
Y895794D01*
X847048D01*
Y895794D01*
X847272Y895887D01*
X848523Y895030D01*
Y865560D01*
X847832D01*
Y856560D01*
X848523D01*
Y846652D01*
X847510Y846032D01*
X847253Y846032D01*
X836510D01*
Y842409D01*
X835240Y841930D01*
X828711Y848459D01*
X829084Y849359D01*
X829354Y851408D01*
X829084Y853457D01*
X828711Y854357D01*
X832355Y858001D01*
X837832D01*
Y856560D01*
X845332D01*
Y865560D01*
X837832D01*
Y864119D01*
X831088D01*
X829918Y863886D01*
X828925Y863223D01*
X824385Y858683D01*
X823485Y859056D01*
X821436Y859326D01*
X820607Y860053D01*
Y886294D01*
X825048D01*
Y897294D01*
X810048D01*
Y886294D01*
X814489D01*
Y855296D01*
X814489Y855296D01*
X813586Y854467D01*
X794184D01*
Y856158D01*
X793161D01*
X792776Y857428D01*
X792859Y857484D01*
X793908Y859055D01*
X794277Y860908D01*
X793908Y862761D01*
X792859Y864333D01*
X791287Y865382D01*
X789434Y865751D01*
X784934D01*
X783081Y865382D01*
X781509Y864333D01*
X780460Y862761D01*
X780091Y860908D01*
X780460Y859055D01*
X781509Y857484D01*
X781592Y857428D01*
X781207Y856158D01*
X780184D01*
Y846658D01*
X794184D01*
Y848349D01*
X812392D01*
X812878Y847176D01*
X804795Y839093D01*
X804132Y838101D01*
X803899Y836930D01*
X803899Y836930D01*
Y827646D01*
X802458D01*
Y820146D01*
X811458D01*
Y827646D01*
X810017D01*
Y835663D01*
X818487Y844133D01*
X819387Y843760D01*
X821436Y843490D01*
X823485Y843760D01*
X824385Y844133D01*
X832149Y836369D01*
X833141Y835706D01*
X834312Y835473D01*
X834312Y835473D01*
X836510D01*
Y831032D01*
X847253D01*
X847510Y831032D01*
X848523Y830412D01*
Y824032D01*
X846010D01*
Y809032D01*
X857010D01*
Y813473D01*
X886092D01*
Y812364D01*
X893592D01*
Y821364D01*
X886092D01*
Y819591D01*
X857010D01*
Y824032D01*
X854641D01*
Y856560D01*
X855332D01*
Y865560D01*
X854641D01*
Y897107D01*
X854641Y897107D01*
X854408Y898278D01*
X853745Y899270D01*
X853745Y899270D01*
X849558Y903457D01*
X848566Y904120D01*
X847395Y904353D01*
X847048Y905532D01*
Y906794D01*
D02*
G37*
G36*
X918578Y850828D02*
X911078D01*
Y841828D01*
X918578D01*
Y842471D01*
X919848Y843007D01*
X920517Y842560D01*
X922078Y842250D01*
X923639Y842560D01*
X924962Y843444D01*
X925846Y844767D01*
X926156Y846328D01*
X925846Y847889D01*
X924962Y849212D01*
X923639Y850096D01*
X922078Y850406D01*
X920517Y850096D01*
X919848Y849649D01*
X918578Y850185D01*
Y850828D01*
D02*
G37*
G36*
X767184Y846658D02*
X753184D01*
Y837158D01*
X757890D01*
Y835817D01*
X757616Y835634D01*
X756732Y834311D01*
X756422Y832750D01*
X756732Y831189D01*
X757616Y829866D01*
X758513Y829267D01*
X758562Y829194D01*
X758628Y829128D01*
X759372Y828631D01*
X760250Y828456D01*
X761128Y828631D01*
X761482Y828867D01*
X762061Y828982D01*
X763384Y829866D01*
X764268Y831189D01*
X764578Y832750D01*
X764268Y834311D01*
X763384Y835634D01*
X763003Y835888D01*
X763389Y837158D01*
X767184D01*
Y846658D01*
D02*
G37*
G36*
X875466Y931184D02*
X866466D01*
Y923684D01*
X867907D01*
Y863600D01*
X867907Y863600D01*
X868140Y862430D01*
X868803Y861437D01*
X875883Y854357D01*
X875510Y853457D01*
X875240Y851408D01*
X875510Y849359D01*
X876301Y847449D01*
X877559Y845809D01*
X879199Y844551D01*
X881109Y843760D01*
X883158Y843490D01*
X885207Y843760D01*
X886117Y844137D01*
X887067Y843502D01*
X888238Y843269D01*
X888238Y843269D01*
X896783D01*
Y821364D01*
X896092D01*
Y812364D01*
X903592D01*
Y821364D01*
X902901D01*
Y841828D01*
X908578D01*
Y850828D01*
X901078D01*
Y849387D01*
X899750D01*
X899750Y849387D01*
X899750Y849387D01*
X891773D01*
X890935Y850342D01*
X891076Y851408D01*
X890806Y853457D01*
X890382Y854482D01*
X899034Y863134D01*
X907708D01*
Y878134D01*
X896708D01*
Y869460D01*
X885983Y858735D01*
X885207Y859056D01*
X883158Y859326D01*
X881109Y859056D01*
X880209Y858683D01*
X874025Y864867D01*
Y923684D01*
X875466D01*
Y931184D01*
D02*
G37*
G36*
X811458Y817646D02*
X802458D01*
Y810146D01*
X802555D01*
X803234Y808876D01*
X803190Y808811D01*
X802880Y807250D01*
X803190Y805689D01*
X804074Y804366D01*
X805397Y803482D01*
X806958Y803172D01*
X808519Y803482D01*
X809842Y804366D01*
X810726Y805689D01*
X811036Y807250D01*
X810726Y808811D01*
X810682Y808876D01*
X811361Y810146D01*
X811458D01*
Y817646D01*
D02*
G37*
G36*
X341500Y680578D02*
X339939Y680268D01*
X338616Y679384D01*
X337732Y678061D01*
X337422Y676500D01*
X337732Y674939D01*
X338616Y673616D01*
X339939Y672732D01*
X341500Y672422D01*
X343061Y672732D01*
X344384Y673616D01*
X345268Y674939D01*
X345578Y676500D01*
X345268Y678061D01*
X344384Y679384D01*
X343061Y680268D01*
X341500Y680578D01*
D02*
G37*
G36*
X148336Y488164D02*
X146775Y487854D01*
X145452Y486970D01*
X144568Y485647D01*
X144258Y484086D01*
X144568Y482525D01*
X145452Y481202D01*
X146775Y480318D01*
X148336Y480008D01*
X149897Y480318D01*
X151220Y481202D01*
X152104Y482525D01*
X152414Y484086D01*
X152104Y485647D01*
X151220Y486970D01*
X149897Y487854D01*
X148336Y488164D01*
D02*
G37*
G36*
X359250Y595078D02*
X357689Y594768D01*
X356366Y593884D01*
X355482Y592561D01*
X355172Y591000D01*
X355482Y589439D01*
X356366Y588116D01*
X357689Y587232D01*
X359250Y586922D01*
X360811Y587232D01*
X362134Y588116D01*
X363018Y589439D01*
X363328Y591000D01*
X363018Y592561D01*
X362134Y593884D01*
X360811Y594768D01*
X359250Y595078D01*
D02*
G37*
G36*
X984864Y533624D02*
X984652D01*
X984511Y533601D01*
X984323Y533577D01*
X984112Y533530D01*
X983853Y533483D01*
X983595Y533436D01*
X983031Y533248D01*
X982725Y533107D01*
X982396Y532966D01*
X982091Y532778D01*
X981786Y532567D01*
X981480Y532332D01*
X981198Y532050D01*
X981175Y532026D01*
X981128Y531979D01*
X981057Y531885D01*
X980963Y531768D01*
X980846Y531604D01*
X980728Y531439D01*
X980587Y531204D01*
X980446Y530969D01*
X980305Y530711D01*
X980164Y530405D01*
X980047Y530076D01*
X979930Y529747D01*
X979836Y529371D01*
X979765Y528996D01*
X979718Y528573D01*
X979695Y528150D01*
Y528126D01*
Y528056D01*
Y527938D01*
X979718Y527774D01*
X979742Y527586D01*
X979765Y527374D01*
X979812Y527139D01*
X979859Y526857D01*
X980000Y526294D01*
X980235Y525683D01*
X980376Y525354D01*
X980540Y525072D01*
X980752Y524766D01*
X980963Y524484D01*
X980987Y524461D01*
X981034Y524414D01*
X981104Y524343D01*
X981198Y524249D01*
X981316Y524132D01*
X981480Y524015D01*
X981645Y523874D01*
X981856Y523733D01*
X982091Y523592D01*
X982326Y523427D01*
X982890Y523169D01*
X983548Y522957D01*
X983900Y522863D01*
X984276Y522816D01*
X984652Y525824D01*
X984605D01*
X984464Y525847D01*
X984253Y525894D01*
X983994Y525965D01*
X983712Y526082D01*
X983407Y526200D01*
X983125Y526388D01*
X982866Y526599D01*
X982843Y526623D01*
X982772Y526716D01*
X982678Y526857D01*
X982584Y527022D01*
X982467Y527257D01*
X982373Y527515D01*
X982302Y527797D01*
X982279Y528126D01*
Y528173D01*
X982302Y528291D01*
X982326Y528455D01*
X982373Y528690D01*
X982467Y528949D01*
X982584Y529207D01*
X982772Y529489D01*
X983007Y529747D01*
X983031Y529771D01*
X983148Y529865D01*
X983313Y529959D01*
X983524Y530100D01*
X983806Y530217D01*
X984159Y530335D01*
X984558Y530405D01*
X985004Y530429D01*
X985192D01*
X985404Y530405D01*
X985686Y530358D01*
X985991Y530264D01*
X986297Y530147D01*
X986602Y529982D01*
X986884Y529771D01*
X986908Y529747D01*
X987001Y529653D01*
X987119Y529512D01*
X987236Y529348D01*
X987377Y529113D01*
X987471Y528854D01*
X987565Y528573D01*
X987589Y528244D01*
Y528220D01*
Y528126D01*
Y528009D01*
X987565Y527844D01*
X987542Y527633D01*
X987495Y527374D01*
X987424Y527116D01*
X987354Y526810D01*
X989868Y527139D01*
Y527163D01*
Y527186D01*
Y527257D01*
Y527351D01*
X989891Y527586D01*
X989915Y527868D01*
X989985Y528173D01*
X990079Y528502D01*
X990220Y528808D01*
X990408Y529090D01*
X990432Y529113D01*
X990526Y529207D01*
X990643Y529301D01*
X990831Y529442D01*
X991043Y529559D01*
X991301Y529677D01*
X991607Y529747D01*
X991959Y529771D01*
X992100D01*
X992241Y529747D01*
X992429Y529700D01*
X992640Y529653D01*
X992852Y529559D01*
X993087Y529442D01*
X993275Y529277D01*
X993298Y529254D01*
X993345Y529184D01*
X993439Y529090D01*
X993533Y528925D01*
X993604Y528737D01*
X993698Y528526D01*
X993745Y528244D01*
X993768Y527962D01*
Y527938D01*
Y527821D01*
X993745Y527680D01*
X993698Y527492D01*
X993627Y527280D01*
X993533Y527045D01*
X993392Y526810D01*
X993204Y526599D01*
X993181Y526576D01*
X993110Y526505D01*
X992969Y526411D01*
X992781Y526294D01*
X992570Y526176D01*
X992288Y526082D01*
X991959Y525988D01*
X991583Y525918D01*
X992053Y523051D01*
X992076D01*
X992123Y523075D01*
X992194D01*
X992311Y523098D01*
X992570Y523169D01*
X992922Y523263D01*
X993298Y523404D01*
X993698Y523545D01*
X994073Y523733D01*
X994426Y523944D01*
X994473Y523968D01*
X994567Y524062D01*
X994731Y524202D01*
X994943Y524390D01*
X995154Y524625D01*
X995389Y524907D01*
X995624Y525260D01*
X995836Y525636D01*
Y525659D01*
X995859Y525683D01*
X995906Y525824D01*
X996000Y526059D01*
X996094Y526341D01*
X996188Y526693D01*
X996282Y527116D01*
X996329Y527562D01*
X996352Y528056D01*
Y528079D01*
Y528150D01*
Y528267D01*
X996329Y528432D01*
X996305Y528643D01*
X996282Y528854D01*
X996235Y529113D01*
X996165Y529371D01*
X996000Y529959D01*
X995883Y530264D01*
X995718Y530593D01*
X995554Y530899D01*
X995366Y531180D01*
X995131Y531486D01*
X994872Y531744D01*
X994849Y531768D01*
X994825Y531791D01*
X994755Y531862D01*
X994661Y531932D01*
X994426Y532120D01*
X994097Y532332D01*
X993698Y532543D01*
X993228Y532708D01*
X992711Y532849D01*
X992452Y532872D01*
X992170Y532896D01*
X992076D01*
X991959Y532872D01*
X991818Y532849D01*
X991630Y532825D01*
X991419Y532778D01*
X991184Y532708D01*
X990925Y532614D01*
X990667Y532473D01*
X990385Y532332D01*
X990103Y532144D01*
X989821Y531909D01*
X989539Y531627D01*
X989257Y531321D01*
X988999Y530969D01*
X988740Y530546D01*
Y530570D01*
X988717Y530617D01*
Y530687D01*
X988670Y530781D01*
X988599Y531040D01*
X988458Y531345D01*
X988270Y531697D01*
X988035Y532073D01*
X987730Y532449D01*
X987377Y532778D01*
X987330Y532825D01*
X987189Y532919D01*
X986978Y533037D01*
X986673Y533201D01*
X986320Y533366D01*
X985874Y533483D01*
X985404Y533577D01*
X984864Y533624D01*
D02*
G37*
G36*
X988012Y520843D02*
X987565D01*
X987260Y520819D01*
X986884Y520796D01*
X986438Y520749D01*
X985968Y520702D01*
X985451Y520655D01*
X984911Y520561D01*
X984347Y520443D01*
X983806Y520326D01*
X983266Y520161D01*
X982725Y519997D01*
X982232Y519762D01*
X981762Y519527D01*
X981363Y519245D01*
X981339Y519222D01*
X981292Y519175D01*
X981198Y519104D01*
X981104Y519010D01*
X980987Y518869D01*
X980846Y518705D01*
X980681Y518493D01*
X980540Y518282D01*
X980376Y518023D01*
X980211Y517765D01*
X980070Y517459D01*
X979953Y517131D01*
X979859Y516778D01*
X979765Y516379D01*
X979718Y515979D01*
X979695Y515556D01*
Y515533D01*
Y515462D01*
X979718Y515321D01*
Y515157D01*
X979742Y514969D01*
X979789Y514734D01*
X979836Y514476D01*
X979930Y514194D01*
X980023Y513888D01*
X980141Y513583D01*
X980282Y513254D01*
X980470Y512948D01*
X980658Y512620D01*
X980916Y512314D01*
X981175Y512009D01*
X981504Y511727D01*
X981527Y511703D01*
X981598Y511656D01*
X981715Y511586D01*
X981856Y511515D01*
X982068Y511398D01*
X982326Y511280D01*
X982655Y511139D01*
X983007Y511022D01*
X983430Y510881D01*
X983900Y510740D01*
X984441Y510622D01*
X985028Y510528D01*
X985686Y510434D01*
X986414Y510364D01*
X987189Y510317D01*
X988035Y510294D01*
X988482D01*
X988787Y510317D01*
X989163Y510340D01*
X989610Y510387D01*
X990079Y510434D01*
X990596Y510481D01*
X991137Y510575D01*
X991677Y510669D01*
X992241Y510810D01*
X992781Y510951D01*
X993298Y511139D01*
X993792Y511351D01*
X994261Y511586D01*
X994661Y511868D01*
X994684Y511891D01*
X994731Y511938D01*
X994825Y512009D01*
X994919Y512126D01*
X995060Y512244D01*
X995201Y512408D01*
X995342Y512620D01*
X995507Y512831D01*
X995671Y513089D01*
X995812Y513348D01*
X995953Y513653D01*
X996094Y513982D01*
X996188Y514335D01*
X996282Y514734D01*
X996329Y515134D01*
X996352Y515556D01*
Y515580D01*
Y515650D01*
Y515791D01*
X996329Y515956D01*
X996305Y516144D01*
X996258Y516379D01*
X996211Y516614D01*
X996141Y516896D01*
X996047Y517201D01*
X995930Y517483D01*
X995812Y517788D01*
X995648Y518094D01*
X995436Y518399D01*
X995225Y518705D01*
X994966Y518987D01*
X994661Y519245D01*
X994637Y519269D01*
X994567Y519316D01*
X994449Y519386D01*
X994285Y519504D01*
X994050Y519621D01*
X993768Y519762D01*
X993463Y519903D01*
X993063Y520044D01*
X992640Y520185D01*
X992147Y520349D01*
X991607Y520467D01*
X990996Y520584D01*
X990338Y520702D01*
X989633Y520772D01*
X988858Y520819D01*
X988012Y520843D01*
D02*
G37*
G36*
X983125Y507756D02*
X980000D01*
Y504631D01*
X983125D01*
Y507756D01*
D02*
G37*
G36*
X991795Y502705D02*
X980000Y498029D01*
Y495210D01*
X991795Y490464D01*
Y493730D01*
X985756Y495961D01*
X983759Y496596D01*
X983783Y496619D01*
X983877Y496643D01*
X984018Y496690D01*
X984159Y496737D01*
X984511Y496854D01*
X984652Y496901D01*
X984770Y496925D01*
X984793D01*
X984864Y496948D01*
X984957Y496972D01*
X985075Y497019D01*
X985404Y497113D01*
X985756Y497254D01*
X991795Y499509D01*
Y502705D01*
D02*
G37*
G36*
X985639Y489453D02*
X984981D01*
Y481653D01*
X984840D01*
X984746Y481677D01*
X984511Y481700D01*
X984182Y481747D01*
X983853Y481841D01*
X983477Y481982D01*
X983125Y482146D01*
X982819Y482381D01*
X982796Y482405D01*
X982702Y482522D01*
X982584Y482663D01*
X982443Y482875D01*
X982302Y483133D01*
X982185Y483462D01*
X982091Y483815D01*
X982068Y484190D01*
Y484214D01*
Y484308D01*
X982091Y484449D01*
X982114Y484613D01*
X982161Y484801D01*
X982232Y485013D01*
X982326Y485224D01*
X982467Y485412D01*
X982490Y485436D01*
X982538Y485506D01*
X982631Y485600D01*
X982772Y485694D01*
X982960Y485835D01*
X983172Y485953D01*
X983454Y486070D01*
X983759Y486188D01*
X983242Y489289D01*
X983219D01*
X983172Y489266D01*
X983078Y489218D01*
X982960Y489171D01*
X982819Y489101D01*
X982655Y489030D01*
X982279Y488819D01*
X981856Y488561D01*
X981410Y488232D01*
X981010Y487832D01*
X980634Y487386D01*
Y487362D01*
X980587Y487339D01*
X980564Y487245D01*
X980493Y487151D01*
X980423Y487033D01*
X980352Y486869D01*
X980282Y486704D01*
X980188Y486493D01*
X980023Y486023D01*
X979883Y485483D01*
X979789Y484848D01*
X979742Y484167D01*
Y484144D01*
Y484026D01*
X979765Y483885D01*
Y483674D01*
X979812Y483415D01*
X979859Y483110D01*
X979906Y482781D01*
X980000Y482452D01*
X980094Y482076D01*
X980235Y481700D01*
X980399Y481324D01*
X980587Y480948D01*
X980822Y480572D01*
X981081Y480220D01*
X981386Y479915D01*
X981739Y479609D01*
X981762Y479585D01*
X981809Y479562D01*
X981903Y479515D01*
X982021Y479421D01*
X982185Y479351D01*
X982373Y479257D01*
X982584Y479139D01*
X982843Y479045D01*
X983125Y478928D01*
X983430Y478834D01*
X983759Y478716D01*
X984135Y478646D01*
X984511Y478575D01*
X984911Y478505D01*
X985357Y478481D01*
X985803Y478458D01*
X986085D01*
X986297Y478481D01*
X986532Y478505D01*
X986814Y478528D01*
X987119Y478575D01*
X987471Y478646D01*
X988200Y478834D01*
X988576Y478951D01*
X988975Y479092D01*
X989351Y479280D01*
X989703Y479492D01*
X990056Y479726D01*
X990385Y479985D01*
X990408Y480008D01*
X990455Y480055D01*
X990549Y480149D01*
X990643Y480267D01*
X990761Y480408D01*
X990902Y480596D01*
X991066Y480807D01*
X991231Y481042D01*
X991372Y481301D01*
X991536Y481606D01*
X991677Y481912D01*
X991795Y482264D01*
X991889Y482616D01*
X991982Y483016D01*
X992029Y483415D01*
X992053Y483838D01*
Y483862D01*
Y483956D01*
Y484097D01*
X992029Y484285D01*
X992006Y484496D01*
X991959Y484754D01*
X991912Y485036D01*
X991842Y485342D01*
X991748Y485671D01*
X991630Y486000D01*
X991489Y486352D01*
X991301Y486704D01*
X991113Y487033D01*
X990878Y487362D01*
X990596Y487691D01*
X990291Y487973D01*
X990267Y487997D01*
X990220Y488044D01*
X990103Y488114D01*
X989962Y488208D01*
X989774Y488326D01*
X989563Y488443D01*
X989280Y488584D01*
X988975Y488725D01*
X988623Y488866D01*
X988223Y489007D01*
X987800Y489124D01*
X987307Y489242D01*
X986790Y489336D01*
X986226Y489406D01*
X985639Y489453D01*
D02*
G37*
G36*
X991442Y478011D02*
X988740Y477025D01*
X988764Y477001D01*
X988811Y476884D01*
X988905Y476743D01*
X988999Y476555D01*
X989093Y476320D01*
X989186Y476085D01*
X989233Y475826D01*
X989257Y475568D01*
Y475544D01*
Y475474D01*
X989233Y475333D01*
X989210Y475192D01*
X989163Y475028D01*
X989093Y474840D01*
X988999Y474652D01*
X988881Y474464D01*
X988858Y474440D01*
X988811Y474393D01*
X988717Y474299D01*
X988576Y474205D01*
X988411Y474088D01*
X988176Y473970D01*
X987894Y473853D01*
X987565Y473759D01*
X987518D01*
X987448Y473735D01*
X987377Y473712D01*
X987260D01*
X987119Y473688D01*
X986931Y473665D01*
X986720Y473641D01*
X986485Y473618D01*
X986179Y473594D01*
X985874Y473571D01*
X985498D01*
X985098Y473547D01*
X984652Y473524D01*
X980000D01*
Y470399D01*
X991795D01*
Y473289D01*
X990126D01*
X990150Y473312D01*
X990291Y473406D01*
X990502Y473547D01*
X990761Y473735D01*
X991019Y473923D01*
X991278Y474158D01*
X991513Y474370D01*
X991677Y474605D01*
X991701Y474628D01*
X991748Y474699D01*
X991795Y474840D01*
X991865Y475004D01*
X991936Y475192D01*
X992006Y475427D01*
X992029Y475662D01*
X992053Y475944D01*
Y475967D01*
Y475991D01*
Y476132D01*
X992029Y476343D01*
X991982Y476602D01*
X991912Y476931D01*
X991795Y477283D01*
X991654Y477635D01*
X991442Y478011D01*
D02*
G37*
G36*
X984699Y461447D02*
X984511D01*
X984300Y461424D01*
X984018Y461377D01*
X983689Y461330D01*
X983313Y461236D01*
X982937Y461095D01*
X982538Y460930D01*
X982490Y460907D01*
X982373Y460836D01*
X982185Y460719D01*
X981950Y460555D01*
X981668Y460367D01*
X981410Y460108D01*
X981128Y459850D01*
X980869Y459521D01*
X980846Y459474D01*
X980775Y459356D01*
X980658Y459168D01*
X980540Y458910D01*
X980399Y458581D01*
X980282Y458205D01*
X980164Y457782D01*
X980094Y457312D01*
Y457265D01*
Y457218D01*
X980070Y457124D01*
Y457030D01*
Y456889D01*
X980047Y456725D01*
Y456513D01*
Y456278D01*
X980023Y455997D01*
Y455668D01*
Y455292D01*
X980000Y454892D01*
Y454422D01*
Y453929D01*
Y453365D01*
Y447844D01*
X996258D01*
Y454328D01*
Y454352D01*
Y454422D01*
Y454516D01*
Y454634D01*
Y454798D01*
Y454986D01*
X996235Y455409D01*
X996211Y455879D01*
X996188Y456349D01*
X996141Y456795D01*
X996094Y457195D01*
Y457242D01*
X996071Y457359D01*
X996024Y457524D01*
X995953Y457759D01*
X995859Y458017D01*
X995742Y458299D01*
X995601Y458605D01*
X995413Y458886D01*
X995389Y458910D01*
X995319Y459004D01*
X995201Y459145D01*
X995060Y459333D01*
X994849Y459521D01*
X994614Y459732D01*
X994355Y459944D01*
X994050Y460132D01*
X994003Y460155D01*
X993909Y460202D01*
X993721Y460296D01*
X993486Y460390D01*
X993204Y460484D01*
X992899Y460578D01*
X992523Y460625D01*
X992147Y460649D01*
X991959D01*
X991748Y460625D01*
X991466Y460578D01*
X991137Y460484D01*
X990784Y460390D01*
X990432Y460226D01*
X990056Y460014D01*
X990009Y459991D01*
X989891Y459897D01*
X989727Y459756D01*
X989516Y459591D01*
X989304Y459356D01*
X989046Y459074D01*
X988834Y458745D01*
X988623Y458369D01*
Y458393D01*
X988599Y458440D01*
X988576Y458511D01*
X988552Y458605D01*
X988435Y458886D01*
X988270Y459215D01*
X988082Y459568D01*
X987824Y459967D01*
X987518Y460320D01*
X987142Y460649D01*
X987095Y460672D01*
X986954Y460766D01*
X986743Y460907D01*
X986461Y461048D01*
X986085Y461189D01*
X985686Y461330D01*
X985216Y461424D01*
X984699Y461447D01*
D02*
G37*
G36*
X984981Y445001D02*
X984957D01*
X984864Y444977D01*
X984723Y444930D01*
X984535Y444860D01*
X984323Y444766D01*
X984065Y444672D01*
X983783Y444554D01*
X983477Y444413D01*
X982843Y444085D01*
X982185Y443662D01*
X981551Y443145D01*
X981269Y442863D01*
X981010Y442557D01*
X980987Y442534D01*
X980963Y442487D01*
X980893Y442393D01*
X980799Y442252D01*
X980705Y442088D01*
X980611Y441876D01*
X980493Y441641D01*
X980376Y441383D01*
X980235Y441077D01*
X980117Y440748D01*
X980023Y440396D01*
X979930Y440020D01*
X979836Y439621D01*
X979765Y439174D01*
X979742Y438728D01*
X979718Y438234D01*
Y438187D01*
Y438093D01*
X979742Y437929D01*
X979765Y437694D01*
X979789Y437435D01*
X979836Y437107D01*
X979906Y436754D01*
X980000Y436355D01*
X980117Y435955D01*
X980258Y435532D01*
X980446Y435086D01*
X980658Y434640D01*
X980893Y434193D01*
X981198Y433747D01*
X981527Y433324D01*
X981927Y432924D01*
X981950Y432901D01*
X982021Y432831D01*
X982161Y432737D01*
X982326Y432595D01*
X982561Y432455D01*
X982819Y432267D01*
X983148Y432079D01*
X983524Y431891D01*
X983924Y431703D01*
X984370Y431515D01*
X984887Y431327D01*
X985427Y431186D01*
X985991Y431045D01*
X986626Y430951D01*
X987283Y430880D01*
X987988Y430857D01*
X988176D01*
X988388Y430880D01*
X988670D01*
X988999Y430927D01*
X989398Y430974D01*
X989821Y431021D01*
X990314Y431115D01*
X990808Y431233D01*
X991325Y431374D01*
X991842Y431538D01*
X992382Y431750D01*
X992899Y431985D01*
X993392Y432267D01*
X993862Y432572D01*
X994308Y432948D01*
X994332Y432971D01*
X994402Y433042D01*
X994520Y433159D01*
X994661Y433324D01*
X994825Y433535D01*
X995013Y433794D01*
X995225Y434076D01*
X995436Y434428D01*
X995648Y434804D01*
X995859Y435204D01*
X996047Y435673D01*
X996211Y436143D01*
X996352Y436684D01*
X996470Y437224D01*
X996541Y437835D01*
X996564Y438446D01*
Y438469D01*
Y438587D01*
Y438728D01*
X996541Y438939D01*
X996517Y439198D01*
X996470Y439480D01*
X996423Y439809D01*
X996352Y440161D01*
X996258Y440537D01*
X996141Y440936D01*
X996000Y441336D01*
X995812Y441759D01*
X995624Y442158D01*
X995389Y442534D01*
X995107Y442933D01*
X994802Y443286D01*
Y443309D01*
X994755Y443333D01*
X994684Y443403D01*
X994614Y443474D01*
X994496Y443568D01*
X994355Y443662D01*
X994026Y443920D01*
X993604Y444179D01*
X993087Y444460D01*
X992499Y444719D01*
X991818Y444954D01*
X991043Y441712D01*
X991066D01*
X991090Y441688D01*
X991160D01*
X991254Y441641D01*
X991466Y441571D01*
X991748Y441453D01*
X992076Y441289D01*
X992405Y441077D01*
X992734Y440795D01*
X993016Y440490D01*
X993040Y440443D01*
X993134Y440325D01*
X993251Y440137D01*
X993392Y439879D01*
X993533Y439550D01*
X993651Y439174D01*
X993745Y438751D01*
X993768Y438281D01*
Y438258D01*
Y438211D01*
Y438117D01*
X993745Y437976D01*
X993721Y437835D01*
X993698Y437647D01*
X993604Y437248D01*
X993439Y436778D01*
X993204Y436284D01*
X993063Y436026D01*
X992899Y435791D01*
X992687Y435556D01*
X992452Y435344D01*
X992429D01*
X992382Y435298D01*
X992311Y435251D01*
X992194Y435180D01*
X992053Y435086D01*
X991889Y434992D01*
X991677Y434898D01*
X991442Y434804D01*
X991160Y434687D01*
X990855Y434593D01*
X990502Y434499D01*
X990126Y434405D01*
X989703Y434334D01*
X989257Y434287D01*
X988764Y434264D01*
X988223Y434240D01*
X987918D01*
X987730Y434264D01*
X987471D01*
X987166Y434311D01*
X986861Y434334D01*
X986508Y434381D01*
X985780Y434522D01*
X985051Y434710D01*
X984699Y434828D01*
X984370Y434992D01*
X984065Y435157D01*
X983806Y435344D01*
X983783Y435368D01*
X983759Y435391D01*
X983689Y435462D01*
X983595Y435556D01*
X983407Y435791D01*
X983172Y436120D01*
X982913Y436519D01*
X982725Y437013D01*
X982561Y437576D01*
X982538Y437882D01*
X982514Y438211D01*
Y438234D01*
Y438258D01*
Y438328D01*
X982538Y438422D01*
X982561Y438681D01*
X982608Y438986D01*
X982725Y439315D01*
X982866Y439691D01*
X983054Y440067D01*
X983336Y440443D01*
X983383Y440490D01*
X983501Y440607D01*
X983689Y440772D01*
X983971Y440960D01*
X984347Y441195D01*
X984793Y441406D01*
X985333Y441618D01*
X985968Y441806D01*
X984981Y445001D01*
D02*
G37*
G36*
X991254Y428742D02*
X990996D01*
X990878Y428719D01*
X990714D01*
X990385Y428672D01*
X989985Y428601D01*
X989539Y428507D01*
X989116Y428366D01*
X988717Y428178D01*
X988670Y428155D01*
X988552Y428084D01*
X988364Y427967D01*
X988129Y427803D01*
X987894Y427615D01*
X987612Y427356D01*
X987354Y427098D01*
X987119Y426792D01*
X987095Y426745D01*
X987025Y426651D01*
X986931Y426487D01*
X986814Y426275D01*
X986673Y426017D01*
X986555Y425735D01*
X986438Y425430D01*
X986344Y425101D01*
Y425077D01*
Y425054D01*
X986320Y424983D01*
Y424889D01*
X986297Y424772D01*
X986273Y424607D01*
X986250Y424443D01*
Y424231D01*
X986226Y424020D01*
X986203Y423761D01*
X986179Y423479D01*
X986156Y423174D01*
Y422845D01*
X986132Y422493D01*
Y422117D01*
Y421717D01*
Y419579D01*
X980000D01*
Y416290D01*
X996258D01*
Y421553D01*
Y421576D01*
Y421694D01*
Y421835D01*
Y422023D01*
Y422281D01*
X996235Y422540D01*
Y422845D01*
Y423150D01*
X996188Y423808D01*
X996141Y424466D01*
X996118Y424748D01*
X996094Y425030D01*
X996047Y425265D01*
X996000Y425453D01*
Y425476D01*
X995977Y425523D01*
X995953Y425594D01*
X995930Y425688D01*
X995812Y425946D01*
X995671Y426275D01*
X995460Y426628D01*
X995178Y427027D01*
X994825Y427403D01*
X994402Y427779D01*
X994379D01*
X994355Y427826D01*
X994285Y427873D01*
X994191Y427920D01*
X994050Y428014D01*
X993909Y428084D01*
X993745Y428178D01*
X993557Y428272D01*
X993087Y428437D01*
X992570Y428601D01*
X991936Y428695D01*
X991254Y428742D01*
D02*
G37*
%LPD*%
G36*
X988975Y517530D02*
X989280D01*
X989586Y517506D01*
X990244Y517483D01*
X990878Y517436D01*
X991184Y517389D01*
X991489Y517342D01*
X991748Y517295D01*
X991959Y517248D01*
X991982D01*
X992006Y517225D01*
X992123Y517201D01*
X992311Y517131D01*
X992546Y517060D01*
X992781Y516943D01*
X993016Y516825D01*
X993228Y516684D01*
X993392Y516543D01*
X993416Y516520D01*
X993463Y516473D01*
X993510Y516379D01*
X993580Y516261D01*
X993651Y516120D01*
X993721Y515956D01*
X993745Y515768D01*
X993768Y515556D01*
Y515533D01*
Y515462D01*
X993745Y515345D01*
X993721Y515227D01*
X993674Y515063D01*
X993604Y514898D01*
X993510Y514711D01*
X993392Y514546D01*
X993369Y514523D01*
X993322Y514476D01*
X993228Y514405D01*
X993110Y514311D01*
X992922Y514194D01*
X992711Y514100D01*
X992429Y513982D01*
X992100Y513888D01*
X992076D01*
X992053Y513865D01*
X991959D01*
X991865Y513841D01*
X991724Y513818D01*
X991560Y513794D01*
X991372Y513771D01*
X991137Y513747D01*
X990855Y513700D01*
X990573Y513677D01*
X990220Y513653D01*
X989868Y513630D01*
X989445Y513606D01*
X989022D01*
X988529Y513583D01*
X987307D01*
X987048Y513606D01*
X986743D01*
X986438Y513630D01*
X985780Y513653D01*
X985122Y513700D01*
X984817Y513724D01*
X984535Y513771D01*
X984276Y513818D01*
X984041Y513865D01*
X983994Y513888D01*
X983877Y513912D01*
X983689Y513982D01*
X983477Y514053D01*
X983242Y514170D01*
X983007Y514288D01*
X982796Y514429D01*
X982631Y514570D01*
X982608Y514593D01*
X982584Y514640D01*
X982514Y514734D01*
X982467Y514851D01*
X982396Y514992D01*
X982326Y515157D01*
X982302Y515345D01*
X982279Y515556D01*
Y515580D01*
Y515650D01*
X982302Y515768D01*
X982326Y515885D01*
X982373Y516050D01*
X982420Y516214D01*
X982514Y516379D01*
X982631Y516543D01*
X982655Y516567D01*
X982702Y516614D01*
X982796Y516708D01*
X982937Y516802D01*
X983101Y516896D01*
X983336Y517013D01*
X983595Y517131D01*
X983924Y517225D01*
X983947D01*
X983971Y517248D01*
X984065D01*
X984159Y517271D01*
X984300Y517295D01*
X984464Y517318D01*
X984652Y517365D01*
X984887Y517389D01*
X985145Y517412D01*
X985451Y517459D01*
X985780Y517483D01*
X986156Y517506D01*
X986555Y517530D01*
X987001D01*
X987495Y517553D01*
X988717D01*
X988975Y517530D01*
D02*
G37*
G36*
X987095Y486329D02*
X987354Y486305D01*
X987636Y486258D01*
X987965Y486164D01*
X988317Y486047D01*
X988646Y485859D01*
X988928Y485647D01*
X988952Y485624D01*
X989046Y485530D01*
X989163Y485389D01*
X989304Y485201D01*
X989421Y484966D01*
X989539Y484684D01*
X989633Y484379D01*
X989656Y484026D01*
Y483979D01*
Y483862D01*
X989610Y483674D01*
X989563Y483439D01*
X989469Y483180D01*
X989351Y482898D01*
X989163Y482616D01*
X988905Y482358D01*
X988881Y482334D01*
X988764Y482264D01*
X988599Y482146D01*
X988364Y482029D01*
X988082Y481888D01*
X987730Y481794D01*
X987330Y481724D01*
X986884Y481700D01*
Y486352D01*
X987001D01*
X987095Y486329D01*
D02*
G37*
G36*
X991959Y457430D02*
X992147Y457406D01*
X992335Y457359D01*
X992523Y457265D01*
X992734Y457171D01*
X992922Y457030D01*
X992946Y457007D01*
X992993Y456960D01*
X993087Y456842D01*
X993181Y456725D01*
X993275Y456537D01*
X993369Y456325D01*
X993439Y456067D01*
X993486Y455785D01*
Y455762D01*
X993510Y455668D01*
Y455503D01*
Y455409D01*
X993533Y455268D01*
Y455104D01*
Y454892D01*
Y454657D01*
X993557Y454399D01*
Y454117D01*
Y453788D01*
Y453412D01*
Y452989D01*
Y451133D01*
X989797D01*
Y453271D01*
Y453295D01*
Y453365D01*
Y453459D01*
Y453577D01*
Y453717D01*
Y453905D01*
Y454281D01*
X989821Y454681D01*
Y455080D01*
Y455245D01*
Y455409D01*
X989844Y455550D01*
Y455644D01*
Y455691D01*
X989868Y455785D01*
X989891Y455926D01*
X989962Y456138D01*
X990032Y456349D01*
X990126Y456560D01*
X990244Y456772D01*
X990408Y456960D01*
X990432Y456983D01*
X990502Y457030D01*
X990596Y457124D01*
X990761Y457218D01*
X990949Y457289D01*
X991160Y457383D01*
X991419Y457430D01*
X991701Y457453D01*
X991818D01*
X991959Y457430D01*
D02*
G37*
G36*
X985122Y458041D02*
X985286Y458017D01*
X985498Y457970D01*
X985686Y457900D01*
X985897Y457806D01*
X986109Y457688D01*
X986132Y457665D01*
X986203Y457618D01*
X986297Y457547D01*
X986391Y457430D01*
X986532Y457289D01*
X986649Y457101D01*
X986767Y456889D01*
X986861Y456654D01*
Y456631D01*
X986908Y456513D01*
X986931Y456325D01*
X986954Y456208D01*
X986978Y456044D01*
X987001Y455879D01*
X987025Y455668D01*
X987048Y455433D01*
Y455151D01*
X987072Y454869D01*
X987095Y454540D01*
Y454164D01*
Y453764D01*
Y451133D01*
X982749D01*
Y454164D01*
Y454187D01*
Y454234D01*
Y454328D01*
Y454446D01*
Y454751D01*
X982772Y455104D01*
Y455480D01*
X982796Y455856D01*
X982819Y456161D01*
Y456302D01*
X982843Y456396D01*
Y456419D01*
X982866Y456513D01*
X982913Y456654D01*
X982960Y456819D01*
X983054Y457007D01*
X983172Y457218D01*
X983313Y457406D01*
X983477Y457594D01*
X983501Y457618D01*
X983571Y457665D01*
X983689Y457735D01*
X983853Y457829D01*
X984041Y457923D01*
X984276Y457994D01*
X984558Y458041D01*
X984864Y458064D01*
X984981D01*
X985122Y458041D01*
D02*
G37*
G36*
X991489Y425336D02*
X991701Y425289D01*
X991936Y425218D01*
X992194Y425124D01*
X992429Y425007D01*
X992664Y424819D01*
X992687Y424795D01*
X992758Y424725D01*
X992852Y424607D01*
X992969Y424466D01*
X993110Y424278D01*
X993228Y424043D01*
X993322Y423785D01*
X993392Y423503D01*
Y423479D01*
X993416Y423386D01*
X993439Y423221D01*
X993463Y422986D01*
Y422681D01*
X993486Y422469D01*
Y422258D01*
X993510Y422023D01*
Y421764D01*
Y421482D01*
Y421153D01*
Y419579D01*
X988881D01*
Y421365D01*
Y421388D01*
Y421459D01*
Y421553D01*
Y421670D01*
Y421835D01*
X988905Y421999D01*
Y422422D01*
X988928Y422845D01*
X988975Y423268D01*
X989046Y423644D01*
X989069Y423808D01*
X989116Y423949D01*
X989140Y423973D01*
X989163Y424067D01*
X989233Y424184D01*
X989304Y424325D01*
X989421Y424490D01*
X989563Y424654D01*
X989727Y424842D01*
X989915Y424983D01*
X989938Y425007D01*
X990009Y425054D01*
X990126Y425101D01*
X990291Y425171D01*
X990479Y425242D01*
X990690Y425312D01*
X990925Y425336D01*
X991184Y425359D01*
X991325D01*
X991489Y425336D01*
D02*
G37*
D11*
X892732Y918362D02*
D03*
Y937362D02*
D03*
X914732Y927862D02*
D03*
X817548Y891794D02*
D03*
X839548Y882294D02*
D03*
Y901294D02*
D03*
D12*
X851510Y816532D02*
D03*
X832510D02*
D03*
X842010Y838532D02*
D03*
X902208Y870634D02*
D03*
X911708Y892634D02*
D03*
X892708D02*
D03*
D13*
X961437Y80938D02*
D03*
X79015Y672721D02*
D03*
X99917Y25185D02*
D03*
X430393Y545578D02*
D03*
X713212Y801678D02*
D03*
X632848Y478500D02*
D03*
X339500Y178905D02*
D03*
X606600Y-149636D02*
D03*
X805000Y-95364D02*
D03*
X895000Y-150000D02*
D03*
X894874Y-95000D02*
D03*
X806600Y-150678D02*
D03*
X694884Y-150000D02*
D03*
Y-90000D02*
D03*
X605000Y-94136D02*
D03*
X850000Y-80000D02*
D03*
X665000Y-90000D02*
D03*
X357500Y-167500D02*
D03*
X575000Y-168000D02*
D03*
X487500Y-167500D02*
D03*
X470000D02*
D03*
X379820D02*
D03*
X270000Y-168000D02*
D03*
X80000Y885146D02*
D03*
X95000Y884946D02*
D03*
Y870000D02*
D03*
X80000Y870200D02*
D03*
Y914396D02*
D03*
X95000Y914196D02*
D03*
Y899250D02*
D03*
X80000Y899450D02*
D03*
Y944396D02*
D03*
X95000Y944196D02*
D03*
Y929250D02*
D03*
X80000Y929450D02*
D03*
Y959450D02*
D03*
X95000Y959250D02*
D03*
Y974196D02*
D03*
X80000Y974396D02*
D03*
X435938Y524921D02*
D03*
X461250Y859500D02*
D03*
X437500Y875250D02*
D03*
X409500Y875000D02*
D03*
X451250Y867001D02*
D03*
X471750Y873500D02*
D03*
X487000Y873250D02*
D03*
X552250Y301750D02*
D03*
X620750Y550750D02*
D03*
X578028Y551027D02*
D03*
X72500Y820000D02*
D03*
X82500D02*
D03*
X92500D02*
D03*
X102500D02*
D03*
X112500D02*
D03*
X122500D02*
D03*
X132500D02*
D03*
X142500D02*
D03*
X152500D02*
D03*
X162500D02*
D03*
X172500D02*
D03*
X182500D02*
D03*
Y807500D02*
D03*
X172500D02*
D03*
X162500D02*
D03*
X152500D02*
D03*
X142500D02*
D03*
X132500D02*
D03*
X122500D02*
D03*
X112500D02*
D03*
X102500D02*
D03*
X92500D02*
D03*
X82500D02*
D03*
X72500D02*
D03*
X182500Y795000D02*
D03*
X172500D02*
D03*
X162500D02*
D03*
X152500D02*
D03*
X142500D02*
D03*
X132500D02*
D03*
X122500D02*
D03*
X112500D02*
D03*
X102500D02*
D03*
X92500D02*
D03*
X82500D02*
D03*
X72500D02*
D03*
X182500Y782500D02*
D03*
X172500D02*
D03*
X162500D02*
D03*
X152500D02*
D03*
X142500D02*
D03*
X132500D02*
D03*
X122500D02*
D03*
X112500D02*
D03*
X102500D02*
D03*
X92500D02*
D03*
X82500D02*
D03*
X72500D02*
D03*
X182500Y770000D02*
D03*
X172500D02*
D03*
X162500D02*
D03*
X152500D02*
D03*
X142500D02*
D03*
X132500D02*
D03*
X122500D02*
D03*
X112500D02*
D03*
X102500D02*
D03*
X92500D02*
D03*
X82500D02*
D03*
X72500D02*
D03*
X182500Y757500D02*
D03*
X172500D02*
D03*
X162500D02*
D03*
X152500D02*
D03*
X142500D02*
D03*
X132500D02*
D03*
X122500D02*
D03*
X112500D02*
D03*
X102500D02*
D03*
X92500D02*
D03*
X82500D02*
D03*
X72500D02*
D03*
X182500Y745000D02*
D03*
X172500D02*
D03*
X162500D02*
D03*
X152500D02*
D03*
X142500D02*
D03*
X132500D02*
D03*
X122500D02*
D03*
X112500D02*
D03*
X102500D02*
D03*
X92500D02*
D03*
X82500D02*
D03*
X72500D02*
D03*
X472500Y816250D02*
D03*
X486500D02*
D03*
X460750Y831500D02*
D03*
X440000Y737250D02*
D03*
X418250Y696000D02*
D03*
X403500Y681000D02*
D03*
X428000D02*
D03*
X415000Y640750D02*
D03*
X390250Y620750D02*
D03*
X414750Y620250D02*
D03*
X436000Y589250D02*
D03*
X446750Y566000D02*
D03*
X410500Y544500D02*
D03*
X513000Y538000D02*
D03*
X533000Y537250D02*
D03*
X577500Y527250D02*
D03*
X557000Y527000D02*
D03*
X557750Y550750D02*
D03*
X679500Y516500D02*
D03*
X697500D02*
D03*
X685500Y571750D02*
D03*
X666000Y561000D02*
D03*
X612250Y561250D02*
D03*
X705000Y646750D02*
D03*
X727500Y643000D02*
D03*
X763250Y643000D02*
D03*
X738250Y630500D02*
D03*
X753250D02*
D03*
X752500Y685500D02*
D03*
X738750D02*
D03*
X762750Y673750D02*
D03*
X694250Y676750D02*
D03*
X779000Y688250D02*
D03*
X789000Y666000D02*
D03*
X805000Y665750D02*
D03*
X803500Y699000D02*
D03*
X703750Y699750D02*
D03*
Y719500D02*
D03*
X727500Y720250D02*
D03*
X804000Y730500D02*
D03*
X789750Y730250D02*
D03*
X779250Y747000D02*
D03*
X814500Y746250D02*
D03*
X703500Y738250D02*
D03*
X748250Y745250D02*
D03*
X712750Y772250D02*
D03*
X748750Y768000D02*
D03*
X692750Y809250D02*
D03*
X681250Y814500D02*
D03*
X641750Y814750D02*
D03*
X628750Y826750D02*
D03*
X609000Y826500D02*
D03*
X593000Y814500D02*
D03*
X553500Y815250D02*
D03*
X592750Y840250D02*
D03*
X553250Y840000D02*
D03*
X622000Y868500D02*
D03*
X610000Y855750D02*
D03*
X649500Y869250D02*
D03*
X511000Y841250D02*
D03*
Y868250D02*
D03*
X540250Y857500D02*
D03*
Y830500D02*
D03*
X497250Y860750D02*
D03*
X523000Y892000D02*
D03*
X509250Y891750D02*
D03*
X509250Y928000D02*
D03*
X523000Y927750D02*
D03*
X499250Y917250D02*
D03*
X499500Y902750D02*
D03*
X574750Y928250D02*
D03*
X588000D02*
D03*
X598250Y917750D02*
D03*
X598500Y902000D02*
D03*
X574250Y891750D02*
D03*
X588500Y891500D02*
D03*
X640250Y843250D02*
D03*
X395250Y864500D02*
D03*
X438000Y809750D02*
D03*
X420750D02*
D03*
X438250Y781750D02*
D03*
X422000D02*
D03*
X416000Y758250D02*
D03*
X424500Y726750D02*
D03*
X428750Y661000D02*
D03*
X403500Y663750D02*
D03*
X387750Y766000D02*
D03*
X399000D02*
D03*
X403750Y792000D02*
D03*
X387750Y728250D02*
D03*
X398250Y728000D02*
D03*
X387500Y754250D02*
D03*
X398750Y753750D02*
D03*
X460250Y816500D02*
D03*
X242750Y998500D02*
D03*
Y983500D02*
D03*
Y948500D02*
D03*
Y933500D02*
D03*
Y898500D02*
D03*
Y882500D02*
D03*
X51500Y537250D02*
D03*
X51000Y549000D02*
D03*
X64000Y567000D02*
D03*
X77000D02*
D03*
X78000Y589000D02*
D03*
X65000D02*
D03*
X51000Y616000D02*
D03*
Y603000D02*
D03*
X121000Y679000D02*
D03*
Y665000D02*
D03*
X138000Y696000D02*
D03*
X329000Y540000D02*
D03*
X365000Y542000D02*
D03*
X248000Y514000D02*
D03*
Y499000D02*
D03*
Y470000D02*
D03*
Y455000D02*
D03*
X72000Y401500D02*
D03*
Y421000D02*
D03*
X41500Y401500D02*
D03*
X41000Y421000D02*
D03*
X96250Y345750D02*
D03*
X105750Y336000D02*
D03*
X106250Y325250D02*
D03*
X96500Y317250D02*
D03*
X297250Y287000D02*
D03*
X297500Y244500D02*
D03*
X923000Y62000D02*
D03*
X864250Y50750D02*
D03*
X748500Y84750D02*
D03*
X482750Y85000D02*
D03*
X268500Y89750D02*
D03*
X77500Y170500D02*
D03*
X252750Y169000D02*
D03*
X476500Y513500D02*
D03*
X435500Y513500D02*
D03*
X704000Y755000D02*
D03*
X743000Y733000D02*
D03*
X470500Y133500D02*
D03*
X484500D02*
D03*
X706000Y561250D02*
D03*
X696250Y572500D02*
D03*
X464250Y545500D02*
D03*
X632000Y526500D02*
D03*
X601000Y528000D02*
D03*
X664782Y520275D02*
D03*
X650532Y527026D02*
D03*
X255250Y790000D02*
D03*
X315250Y825000D02*
D03*
X320000Y940000D02*
D03*
X370000D02*
D03*
X442500D02*
D03*
X727250Y669500D02*
D03*
X420500Y589250D02*
D03*
X390000Y648250D02*
D03*
X484500Y550000D02*
D03*
X727535Y700784D02*
D03*
X428750Y706750D02*
D03*
X354000Y652000D02*
D03*
X315000D02*
D03*
X341000D02*
D03*
X315500Y634750D02*
D03*
X708000Y530250D02*
D03*
X344250Y524000D02*
D03*
X421000Y526750D02*
D03*
X521250Y281500D02*
D03*
X437250Y768000D02*
D03*
X246178Y820928D02*
D03*
X704500Y781750D02*
D03*
X394250Y74024D02*
D03*
D16*
X264240Y628904D02*
D03*
X274240D02*
D03*
X249856D02*
D03*
X239856D02*
D03*
X667004Y884428D02*
D03*
X657004D02*
D03*
X128720Y70660D02*
D03*
X118720D02*
D03*
X461438Y493522D02*
D03*
X451438D02*
D03*
X397176D02*
D03*
X387176D02*
D03*
X657940Y219710D02*
D03*
X667940D02*
D03*
X551862Y159512D02*
D03*
X541862D02*
D03*
X472266D02*
D03*
X482266D02*
D03*
X618410D02*
D03*
X608410D02*
D03*
X511476Y493522D02*
D03*
X501476D02*
D03*
X276750Y385500D02*
D03*
X286750D02*
D03*
X284250Y320500D02*
D03*
X294250D02*
D03*
X768430Y885444D02*
D03*
X778430D02*
D03*
X899842Y816864D02*
D03*
X889842D02*
D03*
X894922Y962152D02*
D03*
X904922D02*
D03*
X250778Y718312D02*
D03*
X260778D02*
D03*
X260500Y757250D02*
D03*
X250500D02*
D03*
X256000Y847000D02*
D03*
X266000D02*
D03*
X707056Y362298D02*
D03*
X697056D02*
D03*
X696750Y351500D02*
D03*
X686750D02*
D03*
X768270Y258412D02*
D03*
X758270D02*
D03*
X308022Y645668D02*
D03*
X298022D02*
D03*
X249856D02*
D03*
X239856D02*
D03*
X264240D02*
D03*
X274240D02*
D03*
X298116Y628904D02*
D03*
X288116D02*
D03*
X215726D02*
D03*
X225726D02*
D03*
X90250Y358648D02*
D03*
X100250D02*
D03*
X361000Y814750D02*
D03*
X371000D02*
D03*
X115918Y457200D02*
D03*
X105918D02*
D03*
X347298Y718058D02*
D03*
X357298D02*
D03*
X680800Y884428D02*
D03*
X690800D02*
D03*
X796464Y258412D02*
D03*
X786464D02*
D03*
X851582Y861060D02*
D03*
X841582D02*
D03*
X904828Y846328D02*
D03*
X914828D02*
D03*
X260778Y731774D02*
D03*
X250778D02*
D03*
D17*
X315000Y-80000D02*
D03*
Y-90000D02*
D03*
X710750Y972000D02*
D03*
Y982000D02*
D03*
X139750Y378500D02*
D03*
Y368500D02*
D03*
X321818Y808910D02*
D03*
Y798910D02*
D03*
X139500Y411250D02*
D03*
Y421250D02*
D03*
X321818Y753444D02*
D03*
Y763444D02*
D03*
X314842Y-15000D02*
D03*
Y-5000D02*
D03*
X766826Y274748D02*
D03*
Y284748D02*
D03*
X825084Y178349D02*
D03*
Y188349D02*
D03*
X728472Y561514D02*
D03*
Y551514D02*
D03*
X887222Y459874D02*
D03*
Y449874D02*
D03*
X728472Y460422D02*
D03*
Y450422D02*
D03*
X887222Y560458D02*
D03*
Y550458D02*
D03*
X728472Y590978D02*
D03*
Y580978D02*
D03*
X887222Y406480D02*
D03*
Y416480D02*
D03*
X728472Y531288D02*
D03*
Y521288D02*
D03*
X887222Y591660D02*
D03*
Y581660D02*
D03*
X728472Y604568D02*
D03*
Y614568D02*
D03*
Y381826D02*
D03*
Y391826D02*
D03*
X728222Y403924D02*
D03*
Y413924D02*
D03*
X319278Y323770D02*
D03*
Y313770D02*
D03*
X654304Y411146D02*
D03*
Y401146D02*
D03*
X319278Y419782D02*
D03*
Y409782D02*
D03*
Y456358D02*
D03*
Y446358D02*
D03*
X654304Y292434D02*
D03*
Y302434D02*
D03*
X609346Y492840D02*
D03*
Y502840D02*
D03*
X305308Y419782D02*
D03*
Y409782D02*
D03*
X319278Y271192D02*
D03*
Y261192D02*
D03*
X573532Y492840D02*
D03*
Y502840D02*
D03*
X654304Y351616D02*
D03*
Y361616D02*
D03*
X750000Y75000D02*
D03*
Y65000D02*
D03*
X770000D02*
D03*
Y75000D02*
D03*
X790000D02*
D03*
Y65000D02*
D03*
X260000Y70000D02*
D03*
Y80000D02*
D03*
X240000D02*
D03*
Y70000D02*
D03*
X300000D02*
D03*
Y80000D02*
D03*
X430000D02*
D03*
Y70000D02*
D03*
X410000D02*
D03*
Y80000D02*
D03*
X470000D02*
D03*
Y70000D02*
D03*
X810000Y65000D02*
D03*
Y75000D02*
D03*
X147320Y390478D02*
D03*
Y400478D02*
D03*
X153670Y378380D02*
D03*
Y368380D02*
D03*
X315468Y786050D02*
D03*
Y776050D02*
D03*
X308102Y798910D02*
D03*
Y808910D02*
D03*
X155194Y422322D02*
D03*
Y412322D02*
D03*
X308102Y753444D02*
D03*
Y763444D02*
D03*
X766750Y337000D02*
D03*
Y327000D02*
D03*
X280000Y80000D02*
D03*
Y70000D02*
D03*
X450000D02*
D03*
Y80000D02*
D03*
X319278Y351710D02*
D03*
Y341710D02*
D03*
X806958Y813896D02*
D03*
Y823896D02*
D03*
X870966Y927434D02*
D03*
Y937434D02*
D03*
X281940Y731186D02*
D03*
Y721186D02*
D03*
X710000Y900000D02*
D03*
Y890000D02*
D03*
X644906Y824310D02*
D03*
Y834310D02*
D03*
D18*
X207759Y59614D02*
D03*
X187759D02*
D03*
X466946Y513334D02*
D03*
X446946D02*
D03*
D19*
X784038Y180709D02*
D03*
Y160709D02*
D03*
X297180Y255684D02*
D03*
Y275684D02*
D03*
D20*
X347472Y639078D02*
D03*
Y609078D02*
D03*
X346964Y568466D02*
D03*
Y538466D02*
D03*
X64008Y370826D02*
D03*
Y400826D02*
D03*
X400558Y779004D02*
D03*
Y809004D02*
D03*
X64008Y464326D02*
D03*
Y434326D02*
D03*
X400558Y741186D02*
D03*
Y711186D02*
D03*
D21*
X235472Y462788D02*
D03*
X205472D02*
D03*
Y506476D02*
D03*
X235472D02*
D03*
X167908Y673354D02*
D03*
X137908D02*
D03*
X229630Y890524D02*
D03*
X199630D02*
D03*
Y940689D02*
D03*
X229630D02*
D03*
Y990854D02*
D03*
X199630D02*
D03*
D22*
X72148Y610616D02*
D03*
X137148D02*
D03*
Y545846D02*
D03*
X72148D02*
D03*
D24*
X294176Y358386D02*
D03*
X272078D02*
D03*
Y341368D02*
D03*
X294176D02*
D03*
D27*
X634418Y198636D02*
D03*
Y203636D02*
D03*
Y208636D02*
D03*
Y213636D02*
D03*
Y218636D02*
D03*
Y223636D02*
D03*
Y228636D02*
D03*
Y233636D02*
D03*
Y238636D02*
D03*
Y243636D02*
D03*
Y248636D02*
D03*
Y253636D02*
D03*
Y258636D02*
D03*
Y263636D02*
D03*
Y268636D02*
D03*
Y273636D02*
D03*
Y278636D02*
D03*
Y283636D02*
D03*
Y288636D02*
D03*
Y293636D02*
D03*
Y298636D02*
D03*
Y303636D02*
D03*
Y308636D02*
D03*
Y313636D02*
D03*
Y318636D02*
D03*
Y323636D02*
D03*
Y328636D02*
D03*
Y333636D02*
D03*
Y338636D02*
D03*
Y343636D02*
D03*
Y348636D02*
D03*
Y353636D02*
D03*
Y358636D02*
D03*
Y363636D02*
D03*
Y368636D02*
D03*
Y373636D02*
D03*
Y378636D02*
D03*
Y383636D02*
D03*
Y388636D02*
D03*
Y393636D02*
D03*
Y398636D02*
D03*
Y403636D02*
D03*
Y408636D02*
D03*
Y413636D02*
D03*
Y418636D02*
D03*
Y423636D02*
D03*
Y428636D02*
D03*
Y433636D02*
D03*
Y438636D02*
D03*
Y443636D02*
D03*
Y448636D02*
D03*
Y453636D02*
D03*
X339418D02*
D03*
Y448636D02*
D03*
Y443636D02*
D03*
Y438636D02*
D03*
Y433636D02*
D03*
Y428636D02*
D03*
Y423636D02*
D03*
Y418636D02*
D03*
Y413636D02*
D03*
Y408636D02*
D03*
Y403636D02*
D03*
Y398636D02*
D03*
Y393636D02*
D03*
Y388636D02*
D03*
Y383636D02*
D03*
Y378636D02*
D03*
Y373636D02*
D03*
Y368636D02*
D03*
Y363636D02*
D03*
Y358636D02*
D03*
Y353636D02*
D03*
Y348636D02*
D03*
Y343636D02*
D03*
Y338636D02*
D03*
Y333636D02*
D03*
Y328636D02*
D03*
Y323636D02*
D03*
Y318636D02*
D03*
Y313636D02*
D03*
Y308636D02*
D03*
Y303636D02*
D03*
Y298636D02*
D03*
Y293636D02*
D03*
Y288636D02*
D03*
Y283636D02*
D03*
Y278636D02*
D03*
Y273636D02*
D03*
Y268636D02*
D03*
Y263636D02*
D03*
Y258636D02*
D03*
Y253636D02*
D03*
Y248636D02*
D03*
Y243636D02*
D03*
Y238636D02*
D03*
Y233636D02*
D03*
Y228636D02*
D03*
Y223636D02*
D03*
Y218636D02*
D03*
Y213636D02*
D03*
Y208636D02*
D03*
Y203636D02*
D03*
Y198636D02*
D03*
X749204Y393264D02*
D03*
Y398264D02*
D03*
Y403264D02*
D03*
Y408264D02*
D03*
Y413264D02*
D03*
Y418264D02*
D03*
Y423264D02*
D03*
Y428264D02*
D03*
Y433264D02*
D03*
Y438264D02*
D03*
Y443264D02*
D03*
Y448264D02*
D03*
Y453264D02*
D03*
Y458264D02*
D03*
Y463264D02*
D03*
Y468264D02*
D03*
Y473264D02*
D03*
Y478264D02*
D03*
Y483264D02*
D03*
Y488264D02*
D03*
Y493264D02*
D03*
Y498264D02*
D03*
Y503264D02*
D03*
Y508264D02*
D03*
Y513264D02*
D03*
Y518264D02*
D03*
Y523264D02*
D03*
Y528264D02*
D03*
Y533264D02*
D03*
Y538264D02*
D03*
Y543264D02*
D03*
Y548264D02*
D03*
Y553264D02*
D03*
Y558264D02*
D03*
Y563264D02*
D03*
Y568264D02*
D03*
Y573264D02*
D03*
Y578264D02*
D03*
Y583264D02*
D03*
Y588264D02*
D03*
Y593264D02*
D03*
Y598264D02*
D03*
Y603264D02*
D03*
X864204Y393264D02*
D03*
Y398264D02*
D03*
Y403264D02*
D03*
Y408264D02*
D03*
Y413264D02*
D03*
Y418264D02*
D03*
Y423264D02*
D03*
Y428264D02*
D03*
Y433264D02*
D03*
Y438264D02*
D03*
Y443264D02*
D03*
Y448264D02*
D03*
Y453264D02*
D03*
Y458264D02*
D03*
Y463264D02*
D03*
Y468264D02*
D03*
Y473264D02*
D03*
Y478264D02*
D03*
Y483264D02*
D03*
Y488264D02*
D03*
Y493264D02*
D03*
Y498264D02*
D03*
Y503264D02*
D03*
Y508264D02*
D03*
Y513264D02*
D03*
Y518264D02*
D03*
Y523264D02*
D03*
Y528264D02*
D03*
Y533264D02*
D03*
Y538264D02*
D03*
Y543264D02*
D03*
Y548264D02*
D03*
Y553264D02*
D03*
Y558264D02*
D03*
Y563264D02*
D03*
Y568264D02*
D03*
Y573264D02*
D03*
Y578264D02*
D03*
Y583264D02*
D03*
Y588264D02*
D03*
Y593264D02*
D03*
Y598264D02*
D03*
Y603264D02*
D03*
D42*
X305308Y-90000D02*
X315000D01*
Y-80000D02*
Y-60000D01*
X314100Y13000D02*
X314842Y12258D01*
Y-5000D02*
Y12258D01*
X307500Y-15000D02*
X314842D01*
X160250Y71750D02*
X175125Y56875D01*
X136000Y71750D02*
X160250D01*
X761752Y274748D02*
X766826D01*
X758500Y278000D02*
X761752Y274748D01*
X758500Y278000D02*
Y280750D01*
X722022Y580978D02*
X728472D01*
X649050Y228600D02*
X657940Y219710D01*
X632714Y228600D02*
X649050D01*
X461438Y491438D02*
Y493522D01*
X459486Y489486D02*
X461438Y491438D01*
X459486Y471932D02*
Y489486D01*
X728472Y614568D02*
X735568D01*
X730758Y593264D02*
X747404D01*
X728472Y590978D02*
X730758Y593264D01*
X722022Y590978D02*
X728472D01*
X729776Y603264D02*
X747404D01*
X728472Y604568D02*
X729776Y603264D01*
X723000Y605000D02*
X728040D01*
X728472Y604568D01*
X731186Y578264D02*
X747404D01*
X728472Y580978D02*
X731186Y578264D01*
X730222Y563264D02*
X747404D01*
X728472Y561514D02*
X730222Y563264D01*
X722000Y561000D02*
X727958D01*
X728472Y561514D01*
X731722Y548264D02*
X747404D01*
X728472Y551514D02*
X731722Y548264D01*
X730448Y533264D02*
X747404D01*
X728472Y531288D02*
X730448Y533264D01*
X721288Y531288D02*
X728472D01*
X721288Y521288D02*
X728472D01*
X731262Y463212D02*
X747404D01*
X728472Y460422D02*
X731262Y463212D01*
X729754Y393108D02*
X747404D01*
X728472Y391826D02*
X729754Y393108D01*
X609346Y471932D02*
Y492840D01*
Y502840D02*
Y508654D01*
X564388Y471932D02*
Y482388D01*
X573532Y491532D01*
Y492840D01*
X559308Y471932D02*
Y495188D01*
X557672Y496824D02*
X559308Y495188D01*
X557672Y496824D02*
Y515112D01*
X554482Y471932D02*
Y482518D01*
X543672Y493328D02*
X554482Y482518D01*
X543672Y493328D02*
Y496824D01*
Y515112D01*
X509524Y471932D02*
Y485524D01*
X511476Y487476D01*
Y493522D01*
X504444Y471932D02*
Y485556D01*
X501476Y488524D02*
X504444Y485556D01*
X501476Y488524D02*
Y493522D01*
X461438D02*
X466946Y499030D01*
Y513334D01*
X446946Y500054D02*
Y513334D01*
Y500054D02*
X451438Y495562D01*
Y493522D02*
Y495562D01*
Y488562D02*
Y493522D01*
Y488562D02*
X454406Y485594D01*
Y471932D02*
Y485594D01*
X557672Y515112D02*
X565888D01*
X511476Y493522D02*
Y500524D01*
X501476Y493522D02*
Y500524D01*
X394462Y471932D02*
Y483462D01*
X397176Y486176D01*
Y493522D01*
X389382Y471932D02*
Y483618D01*
X387176Y485824D02*
X389382Y483618D01*
X387176Y485824D02*
Y493522D01*
X397176D02*
Y500824D01*
X329356Y453644D02*
X341122D01*
X326642Y456358D02*
X329356Y453644D01*
X319278Y456358D02*
X326642D01*
X329564Y448564D02*
X341122D01*
X327358Y446358D02*
X329564Y448564D01*
X319278Y446358D02*
X327358D01*
X313358Y456358D02*
X319278D01*
X312358Y448358D02*
X314358Y446358D01*
X319278D01*
Y409782D02*
X321218D01*
X327394Y403606D01*
X341122D01*
X312474Y398526D02*
X341122D01*
X305308Y405692D02*
X312474Y398526D01*
X305308Y405692D02*
Y409782D01*
X314218D02*
X319278D01*
X297218D02*
X305308D01*
X298218Y419782D02*
X305308D01*
X294176Y320574D02*
Y341368D01*
Y320574D02*
X294250Y320500D01*
X272078Y330078D02*
Y341368D01*
X275500Y320500D02*
X284250D01*
X286750Y385500D02*
X295500D01*
X294176Y358386D02*
Y367176D01*
X306000Y375000D02*
X322352Y358648D01*
X341122D01*
X272078Y358386D02*
Y380828D01*
X276750Y385500D01*
X294176Y341368D02*
X318936D01*
X319278Y341710D01*
Y351710D02*
X325710D01*
X327568Y353568D01*
X341122D01*
X319452Y323596D02*
X341122D01*
X319278Y323770D02*
X319452Y323596D01*
X312230Y323770D02*
X319278D01*
X311230Y313770D02*
X319278D01*
X327652Y263652D02*
X341122D01*
X325192Y261192D02*
X327652Y263652D01*
X319278Y261192D02*
X325192D01*
X314086Y256000D02*
X319278Y261192D01*
X297496Y256000D02*
X314086D01*
X297180Y255684D02*
X297496Y256000D01*
X297180Y275684D02*
X314786D01*
X319278Y271192D01*
X379476Y180340D02*
Y193476D01*
X380000Y194000D01*
X327556Y393700D02*
X341122D01*
X327000Y393144D02*
X327556Y393700D01*
X384302Y180340D02*
Y190302D01*
X387000Y193000D01*
X414528Y180340D02*
Y192472D01*
X414000Y193000D02*
X414528Y192472D01*
X474472Y161718D02*
Y180340D01*
X472266Y159512D02*
X474472Y161718D01*
X472266Y155266D02*
Y159512D01*
X470266Y153266D02*
X472266Y155266D01*
X470266Y142494D02*
Y153266D01*
X479298Y162480D02*
Y180340D01*
Y162480D02*
X482266Y159512D01*
Y144494D02*
Y159512D01*
Y144494D02*
X484266Y142494D01*
X544322Y165322D02*
Y180340D01*
X541862Y162862D02*
X544322Y165322D01*
X541862Y159512D02*
Y162862D01*
X549402Y168598D02*
Y180340D01*
Y168598D02*
X551862Y166138D01*
Y159512D02*
Y166138D01*
X541862Y152862D02*
Y159512D01*
X551862Y152138D02*
Y159512D01*
X609346Y160448D02*
Y180340D01*
X608410Y159512D02*
X609346Y160448D01*
X608410Y153410D02*
Y159512D01*
X618410D02*
X624000D01*
X667940Y219710D02*
X675290D01*
X632714Y238760D02*
X643760D01*
X655840Y250840D01*
X659638D01*
X677926D01*
X632714Y233680D02*
X656478D01*
X659638Y236840D01*
X677926D01*
X685840D01*
X677926Y230074D02*
Y236840D01*
X632714Y293624D02*
X653114D01*
X654304Y292434D01*
X661566D01*
X632714Y298704D02*
X645704D01*
X649434Y302434D01*
X654304D01*
X661566D01*
X632714Y358648D02*
X644648D01*
X647616Y361616D01*
X654304D01*
X660616D01*
X632714Y353568D02*
X644432D01*
X646384Y351616D01*
X654304D01*
X660384D01*
X632714Y403606D02*
X644394D01*
X646854Y401146D01*
X654304D01*
X632714Y408686D02*
X651844D01*
X654304Y411146D01*
X662854D01*
X654304Y401146D02*
X662854D01*
X691006Y859614D02*
Y884222D01*
X690800Y884428D02*
X691006Y884222D01*
X680800Y878200D02*
Y884428D01*
X667004Y861392D02*
Y884428D01*
Y861392D02*
X668782Y859614D01*
X667004Y884428D02*
Y890996D01*
X650428Y884428D02*
X657004D01*
X645080Y834136D02*
X668782D01*
X644906Y834310D02*
X645080Y834136D01*
X866140Y603264D02*
X879236D01*
X866140Y593264D02*
X885618D01*
X887222Y591660D01*
X894160D01*
X866140Y578264D02*
X883826D01*
X887222Y581660D01*
X894160D01*
X866140Y548264D02*
X885028D01*
X887222Y550458D01*
X894542D01*
X866140Y563264D02*
X884416D01*
X887222Y560458D01*
X894542D01*
X866140Y533264D02*
X884236D01*
X866140Y448226D02*
X885574D01*
X887222Y449874D01*
X866140Y463212D02*
X883884D01*
X887222Y459874D01*
Y449874D02*
X894874D01*
X887222Y459874D02*
X894874D01*
X866140Y418254D02*
X885448D01*
X887222Y416480D01*
X866140Y403014D02*
X883756D01*
X887222Y406480D01*
X893980D01*
X866140Y393108D02*
X884392D01*
X319278Y313770D02*
X322770D01*
X327516Y318516D01*
X341122D01*
X319278Y271192D02*
X324808D01*
X327268Y268732D01*
X341122D01*
X726236Y553750D02*
X728472Y551514D01*
X721500Y553750D02*
X726236D01*
X578942Y508250D02*
X580000D01*
X573532Y502840D02*
X578942Y508250D01*
X387176Y493522D02*
Y500824D01*
X732802Y418254D02*
X747404D01*
X720076Y413924D02*
X728472D01*
X732802Y418254D01*
X721076Y403924D02*
X728472D01*
X729382Y403014D01*
X747404D01*
X728250Y395020D02*
X728472Y394798D01*
X728250Y395020D02*
Y397000D01*
X728472Y391826D02*
Y394798D01*
X866140Y433240D02*
X878000D01*
X887222Y416480D02*
X887432Y416270D01*
X893794D01*
X728472Y450422D02*
X730668Y448226D01*
X747404D01*
X720422Y460422D02*
X728472D01*
X721578Y450422D02*
X728472D01*
X721174Y381826D02*
X728472D01*
X760184Y860908D02*
Y877198D01*
X768430Y885444D01*
X817548Y855296D02*
Y891794D01*
Y855296D02*
X821436Y851408D01*
X787184D02*
X821436D01*
X806958Y823896D02*
Y836930D01*
X821436Y851408D01*
X834312Y838532D02*
X842010D01*
X821436Y851408D02*
X834312Y838532D01*
X831088Y861060D02*
X841582D01*
X821436Y851408D02*
X831088Y861060D01*
X851510Y816532D02*
X889510D01*
X889842Y816864D01*
X851582Y816604D02*
Y861060D01*
X851510Y816532D02*
X851582Y816604D01*
X883158Y851584D02*
X902208Y870634D01*
X883158Y851408D02*
Y851584D01*
X914828Y846328D02*
X922078D01*
X922250Y846500D01*
X892708Y892634D02*
Y918338D01*
X892732Y918362D01*
X870966Y937434D02*
X892660D01*
X870966Y863600D02*
Y927434D01*
Y863600D02*
X883158Y851408D01*
X888238Y846328D01*
X894922Y939696D02*
Y962152D01*
X892660Y937434D02*
X894922Y939696D01*
X705000Y912500D02*
Y912500D01*
Y912500D02*
X710000Y907500D01*
Y900000D02*
Y907500D01*
Y885000D02*
Y890000D01*
X705000Y880000D02*
X710000Y885000D01*
X247000Y847000D02*
X256000D01*
X223430D02*
X247000D01*
X222758Y846328D02*
X223430Y847000D01*
X222758Y770128D02*
X265872D01*
X272250Y763750D01*
Y732500D02*
Y763750D01*
X260778Y731774D02*
X281352D01*
X281940Y731186D01*
X223012Y731774D02*
X250778D01*
X222758Y732028D02*
X223012Y731774D01*
X223774Y718312D02*
X250778D01*
X222758Y719328D02*
X223774Y718312D01*
X260778D02*
X268312D01*
X281940Y714310D02*
Y721186D01*
X222758Y757428D02*
X250322D01*
X250500Y757250D01*
X260500Y749000D02*
Y757250D01*
X321818Y798910D02*
X321818Y798910D01*
X308102Y808910D02*
X321818D01*
X321818Y808910D01*
X355597D01*
X358903Y805604D01*
X315468Y786050D02*
Y798378D01*
X316000Y798910D01*
X308102D02*
X316000D01*
X321818D01*
X249856Y645668D02*
X264240D01*
X264240Y628904D02*
Y645668D01*
X274240Y628904D02*
Y645668D01*
X274240Y645668D02*
X298022D01*
X147320Y378820D02*
Y390478D01*
X139750Y378500D02*
X147000D01*
X153550D01*
X139870Y368380D02*
X153670D01*
X79250Y368500D02*
X139750D01*
X298022Y628998D02*
Y637250D01*
Y645668D01*
X786464Y258412D02*
Y267786D01*
X768270Y258412D02*
X786464D01*
X784500Y279388D02*
X785368Y280256D01*
X796464Y258412D02*
Y278652D01*
X798068Y280256D01*
X766750Y319750D02*
Y327000D01*
X766826Y274748D02*
X774824Y266750D01*
X785428D01*
X305308Y419782D02*
X319278D01*
X330398Y388620D02*
X341122D01*
X329278Y387500D02*
X330398Y388620D01*
X324722Y387500D02*
X329278D01*
X323972Y388250D02*
X324722Y387500D01*
X317250Y387534D02*
Y388250D01*
Y387534D02*
X317265Y387519D01*
X317250Y388250D02*
X323972D01*
X691784Y972000D02*
X710750D01*
X684730Y964946D02*
X691784Y972000D01*
X823468Y320032D02*
Y334358D01*
X358903Y805604D02*
X361396D01*
X362084Y804916D01*
X657940Y212810D02*
Y219710D01*
Y212810D02*
X658000Y212750D01*
X691006Y834136D02*
X691614D01*
X702250Y823500D01*
X680750Y351500D02*
X686750D01*
X675500Y356750D02*
X680750Y351500D01*
X389382Y169632D02*
Y180340D01*
X385500Y165750D02*
X389382Y169632D01*
X378750Y165750D02*
X385500D01*
X100250Y358648D02*
X108398D01*
X108500Y358750D01*
X760184Y860908D02*
X772908D01*
X773250Y861250D01*
X573532Y492840D02*
X579750D01*
Y490250D02*
Y492840D01*
X609346D02*
X616171D01*
X616750Y492261D01*
Y489500D02*
Y492261D01*
X276750Y385500D02*
X287250Y375000D01*
X306000D01*
X785428Y266750D02*
X786464Y267786D01*
Y269242D01*
X784500Y271206D02*
X786464Y269242D01*
X784500Y271206D02*
Y279388D01*
X806958Y806458D02*
Y807250D01*
Y813896D01*
X94857Y457200D02*
X105918D01*
X357298Y718058D02*
X370692D01*
X371250Y717500D01*
X371000Y814750D02*
X379750D01*
X839548Y901294D02*
X847395D01*
X851582Y897107D01*
Y861060D02*
Y897107D01*
X899842Y816864D02*
Y846236D01*
X899750Y846328D02*
X899842Y846236D01*
X888238Y846328D02*
X899750D01*
X904828D01*
X111250Y74000D02*
X115380D01*
X118720Y70660D01*
X129810Y71750D02*
X136000D01*
X207759Y49754D02*
X210760Y46752D01*
X207759Y49754D02*
Y59614D01*
X177864D02*
X187759D01*
X175125Y56875D02*
X177864Y59614D01*
X825084Y188349D02*
X839796D01*
X842297Y190849D01*
X784038Y180709D02*
X785950Y182621D01*
X792980D01*
X796554Y186196D01*
X771731Y156058D02*
X774480Y158808D01*
X782136D01*
X784038Y160709D01*
X825084Y178349D02*
X832777D01*
X835464Y181036D01*
X817367Y188349D02*
X825084D01*
X784038Y160709D02*
X787912Y164583D01*
Y166963D01*
X792988Y172039D01*
X801058D01*
X817367Y188349D01*
X791716Y196229D02*
X797217D01*
X125162Y22533D02*
Y27838D01*
X125000Y28000D02*
X125162Y27838D01*
D43*
X275000Y-114950D02*
Y50000D01*
X269842Y-129842D02*
Y34840D01*
X240000Y64682D02*
X269842Y34840D01*
X240000Y64682D02*
Y70000D01*
X269842Y-129842D02*
X282500Y-142500D01*
X260000Y65000D02*
X275000Y50000D01*
X285250Y51074D02*
X300000Y65824D01*
X285250Y-85250D02*
Y51074D01*
Y-85250D02*
X342500Y-142500D01*
X280000Y-100000D02*
Y70000D01*
X940000Y-30211D02*
Y11307D01*
X850211Y-120000D02*
X940000Y-30211D01*
X582500Y-120000D02*
X850211D01*
X560000Y-142500D02*
X582500Y-120000D01*
X935000Y-27711D02*
Y7500D01*
X847711Y-115000D02*
X935000Y-27711D01*
X567500Y-115000D02*
X847711D01*
X540000Y-142500D02*
X567500Y-115000D01*
X930000Y-25211D02*
Y5000D01*
X845211Y-110000D02*
X930000Y-25211D01*
X552500Y-110000D02*
X845211D01*
X520000Y-142500D02*
X552500Y-110000D01*
X500000Y-142500D02*
X537500Y-105000D01*
X842500D01*
X925000Y-22500D01*
X793830Y57500D02*
X816250D01*
X790000Y61330D02*
X793830Y57500D01*
X790000Y61330D02*
Y65000D01*
X816250Y57500D02*
X825503Y66753D01*
X879557Y71750D02*
X940000Y11307D01*
X821834Y71750D02*
X879557D01*
X815084Y65000D02*
X821834Y71750D01*
X875747Y66753D02*
X935000Y7500D01*
X825503Y66753D02*
X875747D01*
X810000Y65000D02*
X815084D01*
X911000Y24000D02*
X930000Y5000D01*
X832584Y35000D02*
X892750D01*
X820084Y47500D02*
X832584Y35000D01*
X762500Y47500D02*
X820084D01*
X835283Y40000D02*
X895000D01*
X822783Y52500D02*
X835283Y40000D01*
X777000Y52500D02*
X822783D01*
X892750Y35000D02*
X925000Y2750D01*
X895000Y40000D02*
X911000Y24000D01*
X925000Y-22500D02*
Y2750D01*
X770000Y59500D02*
X777000Y52500D01*
X750000Y60000D02*
X762500Y47500D01*
X750000Y60000D02*
Y65000D01*
X770000Y59500D02*
Y65000D01*
X745497Y92000D02*
X764250D01*
X740997Y87500D02*
X745497Y92000D01*
X715000Y87500D02*
X740997D01*
X429514Y-117014D02*
X455000Y-142500D01*
X429514Y-117014D02*
Y18490D01*
X403490Y-110990D02*
X435000Y-142500D01*
X403490Y-110990D02*
Y18490D01*
X378000Y-105500D02*
X415000Y-142500D01*
X378000Y-105500D02*
Y15074D01*
X353750Y-101250D02*
X395000Y-142500D01*
X353750Y-101250D02*
Y20000D01*
X353700D02*
X403700Y70000D01*
X353700Y20000D02*
X353750D01*
X403700Y70000D02*
X410000D01*
X430000Y67074D02*
Y70000D01*
X378000Y15074D02*
X430000Y67074D01*
X450000Y65000D02*
Y70000D01*
X403490Y18490D02*
X450000Y65000D01*
X470000Y58976D02*
Y70000D01*
X429514Y18490D02*
X470000Y58976D01*
X300000Y65824D02*
Y70000D01*
X280000Y-100000D02*
X322500Y-142500D01*
X275000Y-114950D02*
X302550Y-142500D01*
X260000Y65000D02*
Y70000D01*
X260000Y70000D01*
X943866Y675000D02*
X960522Y658344D01*
X926500Y675000D02*
X943866D01*
X912918Y688582D02*
X926500Y675000D01*
X912918Y688582D02*
Y688772D01*
X640000Y0D02*
X785068D01*
X565000Y-75000D02*
X640000Y0D01*
X533200Y-75000D02*
X565000D01*
X644534Y-5000D02*
X790000D01*
X569534Y-80000D02*
X644534Y-5000D01*
X512800Y-80000D02*
X569534D01*
X442000Y-60000D02*
X472000Y-90000D01*
X580000D01*
X655000Y-15000D01*
X787184D01*
X787684Y-14500D01*
X800000D01*
X819500Y5000D01*
X869660D01*
X889934Y25274D01*
X855226Y20000D02*
X860000Y24774D01*
X805068Y20000D02*
X855226D01*
X785068Y0D02*
X805068Y20000D01*
X518200Y-60000D02*
X533200Y-75000D01*
X467400Y-60000D02*
X492400Y-85000D01*
X575030D01*
X650030Y-10000D01*
X795000D01*
X815000Y10000D01*
X864703D01*
X879977Y25274D01*
X492800Y-60000D02*
X512800Y-80000D01*
X790000Y-5000D02*
X810000Y15000D01*
X860211D01*
X869985Y24774D01*
X314842Y-15000D02*
X314842Y-15000D01*
X855184Y493184D02*
X866140D01*
X849250Y491250D02*
X853250D01*
X855184Y493184D01*
X539496Y460004D02*
X546277Y453223D01*
Y442272D02*
Y453223D01*
X423807Y368554D02*
X469273Y414020D01*
X474273D01*
X534416Y459584D02*
X539500Y454500D01*
Y442000D02*
Y454500D01*
X596250Y423250D02*
X604000Y415500D01*
X585294Y423250D02*
X596250D01*
X560294Y398250D02*
X585294Y423250D01*
X569750Y400989D02*
X587000Y418239D01*
X569750Y306250D02*
Y400989D01*
X537533Y398250D02*
X560294D01*
X867250Y157250D02*
X907750Y197750D01*
X867250Y139229D02*
Y157250D01*
X907750Y215250D02*
X931500Y239000D01*
X907750Y197750D02*
Y215250D01*
X770250Y83250D02*
X924430Y237430D01*
X163250Y123250D02*
X174250Y134250D01*
X162750Y123250D02*
X163250D01*
X200125Y140375D02*
X252750Y193000D01*
X165875Y140375D02*
X200125D01*
X155500Y130000D02*
X165875Y140375D01*
X155500Y124500D02*
Y130000D01*
X504463Y778891D02*
X509416Y773938D01*
X757500Y215500D02*
Y216750D01*
Y215500D02*
X772000Y201000D01*
X489000Y198000D02*
X489458Y197542D01*
X499525Y312008D02*
X506283Y305250D01*
X499525Y312008D02*
Y313479D01*
X451253Y361750D02*
X499525Y313479D01*
X506283Y305250D02*
X507753D01*
X543750Y269253D01*
X740717Y331500D02*
X759750D01*
X765250Y337000D01*
X766750D01*
Y344500D02*
X770250Y348000D01*
X785368Y334358D02*
Y345382D01*
X782750Y348000D02*
X785368Y345382D01*
X770250Y348000D02*
X782750D01*
X766750Y337000D02*
Y344500D01*
X709250Y336250D02*
X711000Y338000D01*
X734218D01*
X740717Y331500D01*
X280000Y84617D02*
X291133Y95750D01*
X378000Y253250D02*
X448500Y323750D01*
X459000D01*
X295250Y90000D02*
X300000Y94750D01*
X386500Y251500D02*
X394250D01*
X459250Y316500D01*
X300265Y94255D02*
Y94485D01*
X300000Y94750D02*
X300265Y94485D01*
X295250Y83500D02*
Y90000D01*
Y83500D02*
X298750Y80000D01*
X300000D01*
X280000D02*
Y84617D01*
X291133Y95750D02*
X292383Y94500D01*
X579047Y293500D02*
X579750D01*
X573028Y287481D02*
X579047Y293500D01*
X573028Y243028D02*
Y287481D01*
X554527Y224527D02*
X573028Y243028D01*
X554527Y194259D02*
Y224527D01*
X559500Y235750D02*
Y281500D01*
X539496Y208996D02*
X545000Y214500D01*
Y221250D02*
X559500Y235750D01*
X545000Y214500D02*
Y221250D01*
X555250Y237500D02*
Y284000D01*
X534416Y210166D02*
X540125Y215875D01*
Y222375D02*
X555250Y237500D01*
X540125Y215875D02*
Y222375D01*
X389750Y361750D02*
X451253D01*
X514369Y778891D02*
X519322Y773938D01*
X494557Y789051D02*
X499510Y784098D01*
X524529Y789051D02*
X529482Y784098D01*
X524529Y798957D02*
X529482Y794004D01*
X514369Y789051D02*
X519322Y784098D01*
X524529Y778891D02*
X529482Y773938D01*
X534435Y778891D02*
X539388Y773938D01*
X514369Y798957D02*
X519322Y794004D01*
X504463Y798957D02*
X509416Y794004D01*
X494557Y798957D02*
X499510Y794004D01*
X544341Y758825D02*
X549294Y753872D01*
X534435Y758825D02*
X539388Y753872D01*
X554501Y758825D02*
X559454Y753872D01*
X569534D02*
X574487Y758825D01*
X534435Y748919D02*
X539388Y743966D01*
X534416Y459584D02*
Y471932D01*
Y474250D01*
X369316Y180340D02*
X370622Y181646D01*
X824573Y533276D02*
X852542D01*
X852792Y533026D01*
X846250Y525750D02*
X848250D01*
X850736Y523264D01*
X819561Y528264D02*
X824573Y533276D01*
X747404Y528264D02*
X819561D01*
X632714Y433578D02*
X663750D01*
X632714Y438658D02*
X661408D01*
X719500Y526500D02*
X734750D01*
X736514Y528264D01*
X747404D01*
X736000Y490183D02*
Y506000D01*
X738000Y508000D01*
X598750Y205500D02*
X614426Y189824D01*
X598750Y205500D02*
Y231750D01*
X601250Y234250D01*
X866140Y468038D02*
X894712D01*
X901374Y461376D01*
Y459874D02*
Y461376D01*
X747404Y468038D02*
X747942Y467500D01*
X760750D01*
X768875Y565625D02*
X771000Y567750D01*
X764835Y565625D02*
X768875D01*
X764474Y565264D02*
X764835Y565625D01*
X762014Y565264D02*
X764474D01*
X757655Y560905D02*
X762014Y565264D01*
X757655Y560808D02*
Y560905D01*
X756337Y559490D02*
X757655Y560808D01*
X748630Y559490D02*
X756337D01*
X747404Y558264D02*
X748630Y559490D01*
X300500Y232750D02*
X321496Y253746D01*
X341122D01*
X325166Y248666D02*
X341122D01*
X311750Y235250D02*
X325166Y248666D01*
X866140Y573264D02*
X891514D01*
X895160Y576910D01*
X898840D01*
X900000Y578070D01*
X614426Y180340D02*
Y189824D01*
X611622Y198628D02*
X632714D01*
X603500Y206750D02*
X611622Y198628D01*
X603500Y206750D02*
Y221500D01*
X605000Y223000D01*
X611750Y217283D02*
Y223750D01*
X853514Y583264D02*
X866140D01*
X852250Y582000D02*
X853514Y583264D01*
X764000Y587500D02*
Y589250D01*
X759764Y583264D02*
X764000Y587500D01*
X788033Y599250D02*
X817282D01*
X825717Y603750D02*
X828717Y600750D01*
X840000D01*
X828931Y604780D02*
X848791D01*
X826960Y606750D02*
X828931Y604780D01*
X793968Y606750D02*
X826960D01*
X786533Y600750D02*
X788033Y599250D01*
X768750Y600750D02*
X786533D01*
X840000D02*
X845750Y595000D01*
X756264Y588264D02*
X768750Y600750D01*
X766750Y608750D02*
X791967D01*
X756264Y598264D02*
X766750Y608750D01*
X747404Y598264D02*
X756264D01*
X865654Y588750D02*
X866140Y588264D01*
X832250Y588750D02*
X865654D01*
X608250Y210750D02*
X615292Y203708D01*
X632714D01*
X866140Y598264D02*
X866404Y598000D01*
X883250D01*
X886000Y600750D01*
X611750Y217283D02*
X620499Y208534D01*
X632714D01*
X622136Y213614D02*
X632714D01*
Y218694D02*
X641556D01*
X644250Y216000D01*
Y215729D02*
Y216000D01*
Y215729D02*
X647750Y212229D01*
Y209750D02*
Y212229D01*
X643177Y223520D02*
X649000Y217697D01*
X632714Y223520D02*
X643177D01*
X586028Y548278D02*
X608064Y570313D01*
X586028Y548024D02*
Y548278D01*
X584500Y546496D02*
X586028Y548024D01*
X584500Y530503D02*
Y546496D01*
X747404Y583264D02*
X759764D01*
X747404Y573264D02*
X747824Y573685D01*
X623750Y578750D02*
X624632D01*
X629534Y583848D02*
X633999Y579383D01*
X747404Y568264D02*
X763232D01*
X747404D02*
X748390Y569250D01*
X604096Y512096D02*
X605750Y513750D01*
X604096Y472356D02*
Y512096D01*
Y472356D02*
X604520Y471932D01*
X599440D02*
Y513940D01*
X602250Y516750D01*
X624500D01*
X649476Y491774D01*
X594360Y516360D02*
X598750Y520750D01*
X594360Y471932D02*
Y516360D01*
X584500Y530503D02*
X584750Y530253D01*
Y524247D02*
Y530253D01*
X584500Y523997D02*
X584750Y524247D01*
X584500Y510467D02*
Y523997D01*
Y510467D02*
X584750Y510218D01*
Y506283D02*
Y510218D01*
X584500Y506032D02*
X584750Y506283D01*
X584500Y471978D02*
Y506032D01*
X608064Y570313D02*
X646000D01*
X657936Y558500D02*
Y572250D01*
X737264Y588264D02*
X756264D01*
X735000Y586000D02*
X737264Y588264D01*
X714250Y586000D02*
X735000D01*
X711750Y588500D02*
X714250Y586000D01*
X657936Y572250D02*
X664534Y578848D01*
X763736Y498264D02*
X767000Y495000D01*
X729000Y508000D02*
X734264Y513264D01*
X489458Y459292D02*
Y471932D01*
X564388Y180340D02*
X564500Y180228D01*
X747404Y413174D02*
X757924D01*
X484378Y471932D02*
X485000Y471310D01*
X747140Y508000D02*
X747404Y508264D01*
X738000Y508000D02*
X747140D01*
X734264Y513264D02*
X747404D01*
X479298Y484298D02*
X480000Y485000D01*
X479298Y471932D02*
Y484298D01*
X474820Y472280D02*
Y489820D01*
X474472Y471932D02*
X474820Y472280D01*
Y489820D02*
X474999Y489999D01*
X464312Y487312D02*
X474000Y497000D01*
X479000D01*
X878736Y513264D02*
X883000Y509000D01*
X850736Y523264D02*
X866140D01*
Y503264D02*
X875038D01*
X469392Y471932D02*
Y484392D01*
X470000Y485000D01*
X464312Y471932D02*
Y487312D01*
X866140Y513264D02*
X878736D01*
X483925Y699381D02*
X488878Y694428D01*
X474425Y698881D02*
X479378Y693928D01*
X463925Y699131D02*
X468878Y694178D01*
X554414Y698968D02*
X559454Y693928D01*
X569534D02*
X574534Y698928D01*
X569534Y683848D02*
X574534Y678848D01*
X554454Y668848D02*
X559454Y673848D01*
X579534Y693928D02*
X584534Y698928D01*
X569534Y673848D02*
X574534Y668848D01*
X579534Y683848D02*
X584534Y678848D01*
X554501Y709041D02*
X559454Y704088D01*
X544341Y678895D02*
X549294Y683848D01*
X569534Y704088D02*
X574487Y709041D01*
X579534Y673848D02*
X584534Y668848D01*
X544341Y668895D02*
X549294Y673848D01*
X579534Y704088D02*
X584487Y709041D01*
X534435Y698881D02*
X539388Y693928D01*
X554501Y718947D02*
X559454Y713994D01*
X554454Y658848D02*
X559454Y663848D01*
X589534Y693928D02*
X594534Y698928D01*
X534435Y678895D02*
X539388Y683848D01*
X569534Y713994D02*
X574487Y718947D01*
X569534Y663848D02*
X574534Y658848D01*
X589534Y683848D02*
X594534Y678848D01*
X534435Y668895D02*
X539388Y673848D01*
X579534Y713994D02*
X584487Y718947D01*
X579534Y663848D02*
X584534Y658848D01*
X589534Y673848D02*
X594534Y668848D01*
X534435Y709041D02*
X539388Y704088D01*
X544341Y718947D02*
X549294Y713994D01*
X544341Y658895D02*
X549294Y663848D01*
X589534Y704088D02*
X594487Y709041D01*
X524529Y698881D02*
X529482Y693928D01*
X554501Y728853D02*
X559454Y723900D01*
X569534D02*
X574487Y728853D01*
X554454Y648848D02*
X559454Y653848D01*
X599534Y693928D02*
X604534Y698928D01*
X569534Y653848D02*
X574534Y648848D01*
X599534Y683848D02*
X604534Y678848D01*
X534435Y718947D02*
X539388Y713994D01*
X534435Y658895D02*
X539388Y663848D01*
X589534Y713994D02*
X594487Y718947D01*
X589534Y663848D02*
X594534Y658848D01*
X524529Y668895D02*
X529482Y673848D01*
X579534Y723900D02*
X584487Y728853D01*
X524529Y709041D02*
X529482Y704088D01*
X544341Y728853D02*
X549294Y723900D01*
X579534Y653848D02*
X584534Y648848D01*
X599534Y673848D02*
X604534Y668848D01*
X544341Y648895D02*
X549294Y653848D01*
X599534Y704088D02*
X604487Y709041D01*
X524529Y718947D02*
X529482Y713994D01*
X534435Y728853D02*
X539388Y723900D01*
X524529Y658895D02*
X529482Y663848D01*
X589534Y723900D02*
X594487Y728853D01*
X534435Y648895D02*
X539388Y653848D01*
X599534Y713994D02*
X604487Y718947D01*
X589534Y653848D02*
X594534Y648848D01*
X599534Y663848D02*
X604534Y658848D01*
X554454Y638848D02*
X559454Y643848D01*
X609534Y693928D02*
X614534Y698928D01*
X569534Y643848D02*
X574534Y638848D01*
X609534Y683848D02*
X614534Y678848D01*
X514369Y698881D02*
X519322Y693928D01*
X554501Y739013D02*
X559454Y734060D01*
X514369Y678895D02*
X519322Y683848D01*
X569534Y734060D02*
X574487Y739013D01*
X579534Y643848D02*
X584534Y638848D01*
X609534Y673848D02*
X614534Y668848D01*
X544341Y638895D02*
X549294Y643848D01*
X609534Y704088D02*
X614487Y709041D01*
X514369Y668895D02*
X519322Y673848D01*
X579534Y734060D02*
X584487Y739013D01*
X514369Y709041D02*
X519322Y704088D01*
X544341Y739013D02*
X549294Y734060D01*
X524529Y728853D02*
X529482Y723900D01*
X524529Y648895D02*
X529482Y653848D01*
X599534Y723900D02*
X604487Y728853D01*
X599534Y653848D02*
X604534Y648848D01*
X534435Y638895D02*
X539388Y643848D01*
X609534Y713994D02*
X614487Y718947D01*
X589534Y643848D02*
X594534Y638848D01*
X609534Y663848D02*
X614534Y658848D01*
X534435Y739013D02*
X539388Y734060D01*
X514369Y658895D02*
X519322Y663848D01*
X589534Y734060D02*
X594487Y739013D01*
X504463Y698881D02*
X509416Y693928D01*
X554501Y748919D02*
X559454Y743966D01*
X504463Y678895D02*
X509416Y683848D01*
X569534Y743966D02*
X574487Y748919D01*
X554454Y628848D02*
X559454Y633848D01*
X619534Y693928D02*
X624534Y698928D01*
X569534Y633848D02*
X574534Y628848D01*
X619534Y683848D02*
X624534Y678848D01*
X524529Y638895D02*
X529482Y643848D01*
X609534Y723900D02*
X614487Y728853D01*
X504463Y668895D02*
X509416Y673848D01*
X579534Y743966D02*
X584487Y748919D01*
X504463Y709041D02*
X509416Y704088D01*
X544341Y748919D02*
X549294Y743966D01*
X514369Y728853D02*
X519322Y723900D01*
X524529Y739013D02*
X529482Y734060D01*
X579534Y633848D02*
X584534Y628848D01*
X619534Y673848D02*
X624534Y668848D01*
X599534Y643848D02*
X604534Y638848D01*
X609534Y653848D02*
X614534Y648848D01*
X544341Y628895D02*
X549294Y633848D01*
X619534Y704088D02*
X624487Y709041D01*
X514369Y648895D02*
X519322Y653848D01*
X599534Y734060D02*
X604487Y739013D01*
X504463Y718947D02*
X509416Y713994D01*
X504463Y658895D02*
X509416Y663848D01*
X589534Y743966D02*
X594487Y748919D01*
X534435Y628895D02*
X539388Y633848D01*
X619534Y713994D02*
X624487Y718947D01*
X589534Y633848D02*
X594534Y628848D01*
X619534Y663848D02*
X624534Y658848D01*
X609534Y643848D02*
X614534Y638848D01*
X514369Y638895D02*
X519322Y643848D01*
X609534Y734060D02*
X614487Y739013D01*
X514369D02*
X519322Y734060D01*
X494557Y678895D02*
X499510Y683848D01*
X504463Y728853D02*
X509416Y723900D01*
X524529Y628895D02*
X529482Y633848D01*
X619534Y723900D02*
X624487Y728853D01*
X504463Y648895D02*
X509416Y653848D01*
X599534Y743966D02*
X604487Y748919D01*
X554454Y618848D02*
X559454Y623848D01*
X629534Y693928D02*
X634534Y698928D01*
X569534Y623848D02*
X574534Y618848D01*
X599534Y633848D02*
X604534Y628848D01*
X619534Y653848D02*
X624534Y648848D01*
X579534Y753872D02*
X584487Y758825D01*
X494557Y709041D02*
X499510Y704088D01*
X579534Y623848D02*
X584534Y618848D01*
X629534Y673848D02*
X634534Y668848D01*
X544341Y618895D02*
X549294Y623848D01*
X629534Y704088D02*
X634487Y709041D01*
X494557Y718947D02*
X499510Y713994D01*
X494557Y658895D02*
X499510Y663848D01*
X589534Y753872D02*
X594487Y758825D01*
X534435Y618895D02*
X539388Y623848D01*
X629534Y713994D02*
X634487Y718947D01*
X629534Y663848D02*
X634534Y658848D01*
X504463Y638895D02*
X509416Y643848D01*
X609534Y743966D02*
X614487Y748919D01*
X609534Y633848D02*
X614534Y628848D01*
X619534Y643848D02*
X624534Y638848D01*
X504463Y739013D02*
X509416Y734060D01*
X514369Y748919D02*
X519322Y743966D01*
X514369Y628895D02*
X519322Y633848D01*
X619534Y734060D02*
X624487Y739013D01*
X494557Y728853D02*
X499510Y723900D01*
X524529Y758825D02*
X529482Y753872D01*
X494557Y648895D02*
X499510Y653848D01*
X599534Y753872D02*
X604487Y758825D01*
X524529Y618895D02*
X529482Y623848D01*
X629534Y723900D02*
X634487Y728853D01*
X629534Y653848D02*
X634534Y648848D01*
X554454Y608848D02*
X559454Y613848D01*
X639534Y693928D02*
X644534Y698928D01*
X569534Y613848D02*
X574534Y608848D01*
X639534Y683848D02*
X644534Y678848D01*
X554501Y768985D02*
X559454Y764032D01*
X484397Y678895D02*
X489350Y683848D01*
X569534Y764032D02*
X574487Y768985D01*
X579534Y613848D02*
X584534Y608848D01*
X639534Y673848D02*
X644534Y668848D01*
X639534Y704088D02*
X644487Y709041D01*
X484397Y668895D02*
X489350Y673848D01*
X579534Y764032D02*
X584487Y768985D01*
X484397Y709041D02*
X489350Y704088D01*
X544341Y768985D02*
X549294Y764032D01*
X504463Y748919D02*
X509416Y743966D01*
X504463Y628895D02*
X509416Y633848D01*
X619534Y743966D02*
X624487Y748919D01*
X619534Y633848D02*
X624534Y628848D01*
X494557Y638895D02*
X499510Y643848D01*
X609534Y753872D02*
X614487Y758825D01*
X494557Y739013D02*
X499510Y734060D01*
X514369Y758825D02*
X519322Y753872D01*
X639534Y713994D02*
X644487Y718947D01*
X589534Y613848D02*
X594534Y608848D01*
X639534Y663848D02*
X644534Y658848D01*
X629534Y643848D02*
X634534Y638848D01*
X484397Y718947D02*
X489350Y713994D01*
X534435Y768985D02*
X539388Y764032D01*
X484397Y658895D02*
X489350Y663848D01*
X589534Y764032D02*
X594487Y768985D01*
X514369Y618895D02*
X519322Y623848D01*
X629534Y734060D02*
X634487Y739013D01*
X524529Y608895D02*
X529482Y613848D01*
X639534Y723900D02*
X644487Y728853D01*
X484397D02*
X489350Y723900D01*
X599534Y613848D02*
X604534Y608848D01*
X639534Y653848D02*
X644534Y648848D01*
X484397Y648895D02*
X489350Y653848D01*
X599534Y764032D02*
X604487Y768985D01*
X494557Y748919D02*
X499510Y743966D01*
X504463Y758825D02*
X509416Y753872D01*
X494557Y628895D02*
X499510Y633848D01*
X619534Y753872D02*
X624487Y758825D01*
X554501Y778891D02*
X559454Y773938D01*
X569534D02*
X574487Y778891D01*
X649534Y693928D02*
X654534Y698928D01*
X569534Y603848D02*
X574534Y598848D01*
X649534Y683848D02*
X654534Y678848D01*
X629534Y743966D02*
X634487Y748919D01*
X619534Y623848D02*
X624534Y618848D01*
X474491Y668895D02*
X479444Y673848D01*
X579534Y773938D02*
X584487Y778891D01*
X474491Y709041D02*
X479444Y704088D01*
X544341Y778891D02*
X549294Y773938D01*
X579534Y603848D02*
X584534Y598848D01*
X649534Y673848D02*
X654534Y668848D01*
X649534Y704088D02*
X654487Y709041D01*
X609534Y613848D02*
X614534Y608848D01*
X639534Y643848D02*
X644534Y638848D01*
X484397Y638895D02*
X489350Y643848D01*
X609534Y764032D02*
X614487Y768985D01*
X514369Y608895D02*
X519322Y613848D01*
X639534Y734060D02*
X644487Y739013D01*
X484397D02*
X489350Y734060D01*
X474491Y718947D02*
X479444Y713994D01*
X474491Y658895D02*
X479444Y663848D01*
X589534Y773938D02*
X594487Y778891D01*
X534435Y598895D02*
X539388Y603848D01*
X649534Y713994D02*
X654487Y718947D01*
X589534Y603848D02*
X594534Y598848D01*
X649534Y663848D02*
X654534Y658848D01*
X494557Y758825D02*
X499510Y753872D01*
X474491Y728853D02*
X479444Y723900D01*
X494557Y618895D02*
X499510Y623848D01*
X629534Y753872D02*
X634487Y758825D01*
X474491Y648895D02*
X479444Y653848D01*
X599534Y773938D02*
X604487Y778891D01*
X524529Y598895D02*
X529482Y603848D01*
X649534Y723900D02*
X654487Y728853D01*
X599534Y603848D02*
X604534Y598848D01*
X649534Y653848D02*
X654534Y648848D01*
X629534Y623848D02*
X634534Y618848D01*
X504463Y608895D02*
X509416Y613848D01*
X639534Y743966D02*
X644487Y748919D01*
X619534Y613848D02*
X624534Y608848D01*
X639534Y633848D02*
X644534Y628848D01*
X484397Y748919D02*
X489350Y743966D01*
X504463Y768985D02*
X509416Y764032D01*
X484397Y628895D02*
X489350Y633848D01*
X619534Y764032D02*
X624487Y768985D01*
X554454Y588848D02*
X559454Y593848D01*
X659534Y693928D02*
X664534Y698928D01*
X659534Y683848D02*
X664534Y678848D01*
X554501Y789051D02*
X559454Y784098D01*
X464331Y678895D02*
X469284Y683848D01*
X569534Y784098D02*
X574487Y789051D01*
X474491Y638895D02*
X479444Y643848D01*
X609534Y773938D02*
X614487Y778891D01*
X474491Y739013D02*
X479444Y734060D01*
X579534Y593848D02*
X584534Y588848D01*
X659534Y673848D02*
X664534Y668848D01*
X544341Y588895D02*
X549294Y593848D01*
X659534Y704088D02*
X664487Y709041D01*
X609534Y603848D02*
X614534Y598848D01*
X649534Y643848D02*
X654534Y638848D01*
X514369Y598895D02*
X519322Y603848D01*
X649534Y734060D02*
X654487Y739013D01*
X464331Y668895D02*
X469284Y673848D01*
X579534Y784098D02*
X584487Y789051D01*
X464331Y709041D02*
X469284Y704088D01*
X544341Y789051D02*
X549294Y784098D01*
X534435Y588895D02*
X539388Y593848D01*
X659534Y713994D02*
X664487Y718947D01*
X589534Y593848D02*
X594534Y588848D01*
X659534Y663848D02*
X664534Y658848D01*
X464331Y718947D02*
X469284Y713994D01*
X534435Y789051D02*
X539388Y784098D01*
X464331Y658895D02*
X469284Y663848D01*
X589534Y784098D02*
X594487Y789051D01*
X494557Y608895D02*
X499510Y613848D01*
X639534Y753872D02*
X644487Y758825D01*
X484397D02*
X489350Y753872D01*
X494557Y768985D02*
X499510Y764032D01*
X629534Y613848D02*
X634534Y608848D01*
X639534Y623848D02*
X644534Y618848D01*
X629534Y764032D02*
X634487Y768985D01*
X474491Y748919D02*
X479444Y743966D01*
X474491Y628895D02*
X479444Y633848D01*
X619534Y773938D02*
X624487Y778891D01*
X524529Y588895D02*
X529482Y593848D01*
X659534Y723900D02*
X664487Y728853D01*
X504463Y598895D02*
X509416Y603848D01*
X649534Y743966D02*
X654487Y748919D01*
X599534Y593848D02*
X604534Y588848D01*
X659534Y653848D02*
X664534Y648848D01*
X619534Y603848D02*
X624534Y598848D01*
X649534Y633848D02*
X654534Y628848D01*
X464331Y728853D02*
X469284Y723900D01*
X464331Y648895D02*
X469284Y653848D01*
X599534Y784098D02*
X604487Y789051D01*
X554454Y578848D02*
X559454Y583848D01*
X454425Y698881D02*
X459378Y693928D01*
X669534D02*
X674534Y698928D01*
X569534Y583848D02*
X574534Y578848D01*
X454425Y678895D02*
X459378Y683848D01*
X569534Y794004D02*
X574487Y798957D01*
X609534Y593848D02*
X614534Y588848D01*
X659534Y643848D02*
X664534Y638848D01*
X659534Y734060D02*
X664487Y739013D01*
X464331Y638895D02*
X469284Y643848D01*
X609534Y784098D02*
X614487Y789051D01*
X464331Y739013D02*
X469284Y734060D01*
X579534Y583848D02*
X584534Y578848D01*
X669534Y673848D02*
X674534Y668848D01*
X579534Y794004D02*
X584487Y798957D01*
X544341Y578895D02*
X549294Y583848D01*
X454425Y709041D02*
X459378Y704088D01*
X669534D02*
X674487Y709041D01*
X639534Y613848D02*
X644534Y608848D01*
X484397Y608895D02*
X489350Y613848D01*
X639534Y764032D02*
X644487Y768985D01*
X474491Y758825D02*
X479444Y753872D01*
X494557Y778891D02*
X499510Y773938D01*
X494557Y598895D02*
X499510Y603848D01*
X649534Y753872D02*
X654487Y758825D01*
X474491Y618895D02*
X479444Y623848D01*
X629534Y773938D02*
X634487Y778891D01*
X629534Y603848D02*
X634534Y598848D01*
X649534Y623848D02*
X654534Y618848D01*
X534435Y578895D02*
X539388Y583848D01*
X454425Y718947D02*
X459378Y713994D01*
X669534D02*
X674487Y718947D01*
X589534Y583848D02*
X594534Y578848D01*
X454425Y658895D02*
X459378Y663848D01*
X669534D02*
X674534Y658848D01*
X589534Y794004D02*
X594487Y798957D01*
X504463Y588895D02*
X509416Y593848D01*
X659534Y743966D02*
X664487Y748919D01*
X619534Y593848D02*
X624534Y588848D01*
X659534Y633848D02*
X664534Y628848D01*
X464331Y748919D02*
X469284Y743966D01*
X504463Y789051D02*
X509416Y784098D01*
X464331Y628895D02*
X469284Y633848D01*
X619534Y784098D02*
X624487Y789051D01*
X524529Y578895D02*
X529482Y583848D01*
X454425Y728853D02*
X459378Y723900D01*
X669534D02*
X674487Y728853D01*
X599534Y583848D02*
X604534Y578848D01*
X454425Y648895D02*
X459378Y653848D01*
X599534Y794004D02*
X604487Y798957D01*
X474491Y608895D02*
X479444Y613848D01*
X639534Y773938D02*
X644487Y778891D01*
X474491Y768985D02*
X479444Y764032D01*
X484397Y778891D02*
X489350Y773938D01*
X639534Y603848D02*
X644534Y598848D01*
X649534Y613848D02*
X654534Y608848D01*
X649534Y764032D02*
X654487Y768985D01*
X609534Y583848D02*
X614534Y578848D01*
X454425Y638895D02*
X459378Y643848D01*
X669534D02*
X674534Y638848D01*
X609534Y794004D02*
X614487Y798957D01*
X514369Y578895D02*
X519322Y583848D01*
X454425Y739013D02*
X459378Y734060D01*
X669534D02*
X674487Y739013D01*
X659534Y753872D02*
X664487Y758825D01*
X659534Y623848D02*
X664534Y618848D01*
X464331Y758825D02*
X469284Y753872D01*
X464331Y618895D02*
X469284Y623848D01*
X629534Y784098D02*
X634487Y789051D01*
X504463Y578895D02*
X509416Y583848D01*
X454425Y748919D02*
X459378Y743966D01*
X669534D02*
X674487Y748919D01*
X454425Y628895D02*
X459378Y633848D01*
X669534D02*
X674534Y628848D01*
X619534Y794004D02*
X624487Y798957D01*
X474491Y778891D02*
X479444Y773938D01*
X474491Y598895D02*
X479444Y603848D01*
X649534Y773938D02*
X654487Y778891D01*
X649534Y603848D02*
X654534Y598848D01*
X639534Y593848D02*
X644534Y588848D01*
X659534Y613848D02*
X664534Y608848D01*
X484397Y588895D02*
X489350Y593848D01*
X659534Y764032D02*
X664487Y768985D01*
X464331Y608895D02*
X469284Y613848D01*
X639534Y784098D02*
X644487Y789051D01*
X464331Y768985D02*
X469284Y764032D01*
X484397Y789051D02*
X489350Y784098D01*
X494557Y578895D02*
X499510Y583848D01*
X454425Y758825D02*
X459378Y753872D01*
X669534D02*
X674487Y758825D01*
X454425Y618895D02*
X459378Y623848D01*
X669534D02*
X674534Y618848D01*
X629534Y794004D02*
X634487Y798957D01*
X474491Y588895D02*
X479444Y593848D01*
X659534Y773938D02*
X664487Y778891D01*
X649534Y593848D02*
X654534Y588848D01*
X659534Y603848D02*
X664534Y598848D01*
X464331Y778891D02*
X469284Y773938D01*
X474491Y789051D02*
X479444Y784098D01*
X464331Y598895D02*
X469284Y603848D01*
X649534Y784098D02*
X654487Y789051D01*
X639534Y583848D02*
X644534Y578848D01*
X454425Y608895D02*
X459378Y613848D01*
X669534D02*
X674534Y608848D01*
X639534Y794004D02*
X644487Y798957D01*
X454425Y768985D02*
X459378Y764032D01*
X669534D02*
X674487Y768985D01*
X484397Y798957D02*
X489350Y794004D01*
X659534Y593848D02*
X664534Y588848D01*
X464331Y588895D02*
X469284Y593848D01*
X659534Y784098D02*
X664487Y789051D01*
X454425Y778891D02*
X459378Y773938D01*
X669534D02*
X674487Y778891D01*
X474491Y798957D02*
X479444Y794004D01*
X649534Y583848D02*
X654534Y578848D01*
X454425Y598895D02*
X459378Y603848D01*
X669534D02*
X674534Y598848D01*
X649534Y794004D02*
X654487Y798957D01*
X659534Y583848D02*
X664534Y578848D01*
X454425Y588895D02*
X459378Y593848D01*
X669534D02*
X674534Y588848D01*
X659534Y794004D02*
X664487Y798957D01*
X464331Y578895D02*
X469284Y583848D01*
X454425Y789051D02*
X459378Y784098D01*
X669534D02*
X674487Y789051D01*
X464331Y798957D02*
X469284Y794004D01*
X454425Y578895D02*
X459378Y583848D01*
X669534D02*
X674534Y578848D01*
X669534Y794004D02*
X674487Y798957D01*
X464284Y789098D02*
X464312D01*
X459378Y794004D02*
X464284Y789098D01*
X559454Y794004D02*
X564134Y798684D01*
Y799592D01*
X554482Y799192D02*
Y799592D01*
X539388Y794004D02*
X544576Y799192D01*
Y799592D01*
X514369Y588895D02*
X519322Y593848D01*
X747668Y523000D02*
X761000D01*
X747404Y523264D02*
X747668Y523000D01*
X629534Y593848D02*
X634534Y588848D01*
X747668Y518000D02*
X767000D01*
X747404Y518264D02*
X747668Y518000D01*
X341122Y308610D02*
X353610D01*
X485000Y457000D02*
Y471310D01*
X745000Y498264D02*
X763736D01*
X610404Y323596D02*
X635000D01*
X866140Y478198D02*
X866338Y478000D01*
X747404Y503264D02*
X768736D01*
X619672Y423672D02*
X632714D01*
X622592Y418592D02*
X632714D01*
Y413512D02*
X643512D01*
X353610Y308610D02*
X359000Y314000D01*
X341122Y313690D02*
X354249D01*
X359379Y318820D01*
X341414Y204000D02*
X356000D01*
X341122Y203708D02*
X341414Y204000D01*
X353000Y211000D02*
X356000D01*
X350534Y208534D02*
X353000Y211000D01*
X341122Y208534D02*
X350534D01*
X359379Y318820D02*
X387180D01*
X359000Y314000D02*
X381000D01*
X365000Y216000D02*
X368000Y213000D01*
X353000Y216000D02*
X365000D01*
X350614Y213614D02*
X353000Y216000D01*
X341122Y213614D02*
X350614D01*
X396000Y295000D02*
Y310000D01*
X387180Y318820D02*
X396000Y310000D01*
X341680Y273000D02*
X354000D01*
X341122Y273558D02*
X341680Y273000D01*
X355000Y222000D02*
Y229000D01*
X352140Y219140D02*
X355000Y222000D01*
X341568Y219140D02*
X352140D01*
X341122Y218694D02*
X341568Y219140D01*
X327000Y198000D02*
X340494D01*
X341122Y198628D01*
X449326Y462674D02*
Y471932D01*
Y462674D02*
X453000Y459000D01*
X457000D01*
X489458Y180340D02*
Y197542D01*
X484397Y578895D02*
X489350Y583848D01*
X474491Y578895D02*
X479444Y583848D01*
X484378Y180340D02*
Y192122D01*
X544341Y608895D02*
X549294Y613848D01*
X554454Y598848D02*
X559454Y603848D01*
X544341Y598895D02*
X549294Y603848D01*
X619474Y398526D02*
X632714D01*
X618250Y399750D02*
X619474Y398526D01*
X747404Y398188D02*
X747842Y397750D01*
X632714Y393700D02*
X655050D01*
X656750Y392000D01*
X729000Y490000D02*
Y508000D01*
X569468Y593782D02*
X569468D01*
X569534Y593848D01*
X489458Y459292D02*
X495000Y453750D01*
X495467D01*
X494538Y460962D02*
Y471932D01*
X763750Y419000D02*
X764000D01*
X757924Y413174D02*
X763750Y419000D01*
X632714Y328676D02*
X645574D01*
X646250Y328000D01*
X499364Y460886D02*
X502250Y458000D01*
X499364Y460886D02*
Y471932D01*
X429250Y456000D02*
X434000Y451250D01*
X479250D01*
X485000Y457000D01*
X826250Y528250D02*
X826264D01*
X826540Y528526D01*
X836236Y518264D02*
X866140D01*
X747404Y453052D02*
X747816Y453464D01*
X521500Y487701D02*
Y489000D01*
X866088Y453000D02*
X866140Y453052D01*
X839500Y443250D02*
Y444379D01*
X866140Y443146D02*
X866494Y443500D01*
X494538Y460962D02*
X514000Y441500D01*
X529750D02*
X530250Y442000D01*
X514000Y441500D02*
X529750D01*
X529336Y454414D02*
Y471932D01*
Y454414D02*
X529750Y454000D01*
X523000Y449000D02*
X524510Y450510D01*
Y471932D01*
X518750Y459500D02*
X519430Y460180D01*
Y471932D01*
X747404Y508264D02*
X755340D01*
X760541Y513466D01*
X764718D01*
X765004Y513180D01*
X768997D01*
X866494Y443500D02*
X885750D01*
X890544Y438707D01*
Y434750D02*
Y438707D01*
X866140Y438066D02*
X880934D01*
X495467Y453750D02*
X516217Y433000D01*
X866140Y428160D02*
X882899D01*
X887559Y423500D01*
X896000D01*
X900250Y419250D01*
X883217Y435260D02*
Y435783D01*
X888547Y429930D02*
X895070D01*
X896000Y429000D01*
X880934Y438066D02*
X883217Y435783D01*
Y435260D02*
X888547Y429930D01*
X539496Y460004D02*
Y471932D01*
X747816Y453464D02*
X830415D01*
X839500Y444379D01*
X747404Y443146D02*
Y443570D01*
X850000Y414500D02*
X851326Y413174D01*
X866140D01*
X850330Y423080D02*
X866140D01*
X839750Y401000D02*
X846844Y408094D01*
X866140D01*
X341122Y283718D02*
X379718D01*
X386638Y278638D02*
X393000Y285000D01*
X341122Y278638D02*
X386638D01*
X632714Y303530D02*
Y304836D01*
X749332Y399240D02*
X769490D01*
X584454Y471932D02*
X584500Y471978D01*
X646000Y570313D02*
X654534Y578848D01*
X747404Y543264D02*
X759014D01*
X747404Y553264D02*
X747668Y553000D01*
X766718Y571750D02*
X844250D01*
X763232Y568264D02*
X766718Y571750D01*
X844250D02*
X847541Y568459D01*
X841000Y582000D02*
X852250D01*
X847541Y567528D02*
Y568459D01*
X771000Y567750D02*
X838500D01*
X840690Y565560D01*
X821750Y561000D02*
X822000Y560750D01*
X850500D01*
X858014Y568264D01*
X866140D01*
X364490Y169490D02*
Y180340D01*
X839500Y557750D02*
X865626D01*
X866140Y558264D01*
X789000Y558000D02*
X790750Y556250D01*
X759014Y543264D02*
X761500Y545750D01*
X762000D01*
X761468Y553000D02*
X766750Y547718D01*
Y547500D02*
Y547718D01*
Y547500D02*
X768756Y545494D01*
X747668Y553000D02*
X761468D01*
X866140Y553264D02*
X878014D01*
X879000Y554250D01*
X787994Y545494D02*
X791000Y548500D01*
X768756Y545494D02*
X779038D01*
X779071Y545526D01*
X783006D01*
X783038Y545494D01*
X787994D01*
X866140Y543264D02*
X892236D01*
X901000Y534500D01*
X866140Y528264D02*
X887014D01*
X893250Y534500D01*
X579374Y180340D02*
Y190124D01*
X594750Y205500D01*
X574294Y180340D02*
Y193294D01*
X589000Y208000D01*
X419354Y180340D02*
Y197104D01*
X416283Y261000D02*
X539000D01*
X372750Y217467D02*
X416283Y261000D01*
X555250Y284000D02*
X572000Y300750D01*
X657936Y558500D02*
X663186Y553250D01*
X675250D01*
X559500Y281500D02*
X577000Y299000D01*
X661408Y438658D02*
X670250Y447500D01*
X672250Y452217D02*
X675000Y449468D01*
Y444828D02*
Y449468D01*
X663750Y433578D02*
X675000Y444828D01*
X664750Y500250D02*
X669000D01*
X840690Y565560D02*
X842791D01*
X577000Y299000D02*
Y319500D01*
X649500Y171250D02*
Y202250D01*
X625250Y147000D02*
X649500Y171250D01*
X567750Y147000D02*
X625250D01*
X557500Y157250D02*
X567750Y147000D01*
X557500Y157250D02*
Y168933D01*
X555534Y170899D02*
X557500Y168933D01*
X555534Y170899D02*
Y179288D01*
X554482Y180340D02*
X555534Y179288D01*
X537250Y235500D02*
Y237750D01*
X438186Y247500D02*
X527500D01*
X537250Y237750D01*
X419354Y197104D02*
X451500Y229250D01*
X540500D01*
X550250Y239000D01*
X369316Y180340D02*
Y197444D01*
X424434Y180340D02*
Y195816D01*
X452618Y224000D01*
X738163Y488104D02*
X747404D01*
X429514Y180340D02*
Y194764D01*
X454750Y220000D01*
X492000D01*
X494000Y218000D01*
X866338Y478000D02*
X873250D01*
X874250Y477000D01*
X898000D01*
X878727Y481773D02*
X880543D01*
X866140Y483024D02*
X877476D01*
X878727Y481773D01*
X866140Y498264D02*
X873767D01*
X848500Y434750D02*
Y444500D01*
X857000Y453000D01*
X866088D01*
X855604Y488104D02*
X866140D01*
X845250Y477750D02*
X855604Y488104D01*
X845250Y440500D02*
Y477750D01*
X841750Y437000D02*
X845250Y440500D01*
X841750Y423750D02*
Y437000D01*
X828500Y410500D02*
X841750Y423750D01*
X833750Y406500D02*
X850330Y423080D01*
X769490Y399240D02*
X771000Y400750D01*
X817500Y401000D02*
X839750D01*
X667750Y285000D02*
Y320750D01*
X660250Y277500D02*
X667750Y285000D01*
X648750Y277500D02*
Y278000D01*
X768736Y503264D02*
X772375Y499625D01*
X789038Y468469D02*
X789250Y468680D01*
X789038Y466773D02*
Y468469D01*
X747842Y397750D02*
X749332Y399240D01*
X747404Y408000D02*
X761500D01*
X619534Y583848D02*
X624632Y578750D01*
X820500Y461500D02*
X828500Y469500D01*
X784750Y461500D02*
X820500D01*
X747404Y477625D02*
Y478198D01*
X701750Y377250D02*
X709326Y384826D01*
X680500Y377250D02*
X701750D01*
X667250Y390500D02*
X680500Y377250D01*
X686750Y381000D02*
X699000D01*
X494000Y218000D02*
X533500D01*
X444500Y180340D02*
Y200250D01*
X458000Y213750D01*
X513750D01*
Y213036D02*
Y213750D01*
Y213036D02*
X513775Y213010D01*
X747404Y428160D02*
X766676D01*
X769538Y431021D01*
X798532Y410500D02*
X828500D01*
X903250Y389000D02*
X905000D01*
X894062Y398188D02*
X903250Y389000D01*
X866140Y398188D02*
X894062D01*
X341122Y378250D02*
Y378714D01*
X619533Y318283D02*
X619750D01*
X631970Y334500D02*
X632714Y333756D01*
X619290Y334500D02*
X631970D01*
X614250Y339540D02*
X619290Y334500D01*
X604500Y329500D02*
X610404Y323596D01*
X534529Y609145D02*
X539482Y614098D01*
X369316Y197444D02*
X372750Y200878D01*
Y217467D01*
X387250Y208250D02*
Y215968D01*
X374396Y180340D02*
Y195396D01*
X387250Y208250D01*
X747404Y478198D02*
X758302D01*
X726262Y473500D02*
X729500D01*
X731468Y478250D02*
X732093Y477625D01*
X731309Y481250D02*
X738163Y488104D01*
X730067Y484250D02*
X736000Y490183D01*
X692750Y484250D02*
X730067D01*
X714250Y481250D02*
X731309D01*
X720000Y478250D02*
X731468D01*
X714000Y461238D02*
X726262Y473500D01*
X710500Y468750D02*
X720000Y478250D01*
X826250Y528250D02*
X836236Y518264D01*
X738118Y473118D02*
X747404D01*
X734500Y469500D02*
X738118Y473118D01*
X734500Y468750D02*
Y469500D01*
X569468Y593782D02*
X574402Y588848D01*
X569402Y593848D02*
X569468Y593782D01*
X425283Y254000D02*
X537000D01*
X387250Y215968D02*
X425283Y254000D01*
X550250Y286750D02*
X569750Y306250D01*
X550250Y239000D02*
Y286750D01*
X648750Y277500D02*
X660250D01*
X777000Y469250D02*
X784750Y461500D01*
X771217Y484000D02*
X774250D01*
X762033Y493184D02*
X771217Y484000D01*
X747404Y493184D02*
X762033D01*
X758302Y478198D02*
X767250Y469250D01*
X777000D01*
X747404Y483024D02*
X761226D01*
X762283Y481750D02*
X762500D01*
X883000Y509000D02*
X883525Y509525D01*
X885043D01*
X824475D02*
X825540D01*
X770091Y514275D02*
X819725D01*
X824475Y509525D01*
X768997Y513180D02*
X770091Y514275D01*
X722514Y423080D02*
X747404D01*
X714000Y423051D02*
Y461238D01*
X444500Y459500D02*
Y471932D01*
Y459500D02*
X446250Y457750D01*
X719500Y424308D02*
Y434250D01*
X620000Y416000D02*
X622592Y418592D01*
X671500Y396250D02*
X686750Y381000D01*
X828500Y469500D02*
Y477500D01*
X732093Y477625D02*
X747404D01*
X761226Y483024D02*
X762500Y481750D01*
X341122Y368554D02*
X423807D01*
X618516Y318516D02*
X632714D01*
X443608Y235500D02*
X522000D01*
X760750Y467500D02*
X765599Y462651D01*
X543500Y248000D02*
X543750Y248250D01*
X379500Y378250D02*
X381250Y376500D01*
X341122Y378250D02*
X379500D01*
X632714Y304836D02*
X642155D01*
X772375Y499625D02*
X772375D01*
X789250Y482750D01*
Y468680D02*
Y482750D01*
X329530Y303530D02*
X341122D01*
X328000Y302000D02*
X329530Y303530D01*
X747404Y438066D02*
X763250D01*
X891250Y493250D02*
X893000Y495000D01*
X873767Y498264D02*
X878781Y493250D01*
X875038Y503264D02*
X880302Y498000D01*
X878781Y493250D02*
X891250D01*
X880302Y498000D02*
X881052Y498750D01*
X882250D01*
X884717Y503000D02*
X902000D01*
X879454Y508264D02*
X884717Y503000D01*
X866140Y508264D02*
X879454D01*
X699000Y381000D02*
X703250Y385250D01*
X702284Y469284D02*
X714250Y481250D01*
X710500Y424019D02*
Y468750D01*
X715326Y415891D02*
X722514Y423080D01*
X715326Y391424D02*
Y415891D01*
X703250Y416769D02*
X710500Y424019D01*
X703250Y385250D02*
Y416769D01*
X702284Y422521D02*
Y469284D01*
X642250Y522750D02*
X664750Y500250D01*
X598750Y520750D02*
X627000D01*
X651226Y496524D01*
X661282D01*
X642250Y522750D02*
Y529250D01*
X634224Y537276D02*
X642250Y529250D01*
X589534Y471932D02*
Y529534D01*
X597276Y537276D01*
X634224D01*
X715750Y522750D02*
X719500Y526500D01*
X698500Y527750D02*
Y545284D01*
X674534Y569250D02*
X698500Y545284D01*
X674534Y569250D02*
Y578848D01*
X675250Y553250D02*
X690250Y538250D01*
X668750Y533750D02*
X674000D01*
X672032Y511217D02*
X673750Y509500D01*
X672032Y511217D02*
Y523467D01*
X663628Y531872D02*
X672032Y523467D01*
X663628Y531872D02*
Y536622D01*
X673533Y546527D01*
X410464Y112522D02*
X419500Y103486D01*
Y97500D02*
Y103486D01*
X410464Y137922D02*
X424000Y124386D01*
Y95636D02*
Y124386D01*
X417250Y95250D02*
X419500Y97500D01*
X419114Y90750D02*
X424000Y95636D01*
X367000Y95250D02*
X417250D01*
X358500Y103750D02*
X367000Y95250D01*
X365136Y90750D02*
X419114D01*
X356636Y99250D02*
X365136Y90750D01*
X213750Y99250D02*
X356636D01*
X211886Y103750D02*
X358500D01*
X208750Y94250D02*
X213750Y99250D01*
X165500Y94250D02*
X208750D01*
X206886Y98750D02*
X211886Y103750D01*
X165500Y98750D02*
X206886D01*
X163750Y92500D02*
X165500Y94250D01*
X163750Y100500D02*
X165500Y98750D01*
X321818Y753444D02*
X323770Y755396D01*
X335534D01*
X308102Y753444D02*
X314296Y747250D01*
X326000D01*
X329066Y750316D01*
X335534D01*
X301694Y763444D02*
X308102D01*
X315806Y763444D02*
X321818D01*
X342192Y718058D02*
X347298D01*
X331000Y729250D02*
X342192Y718058D01*
X331000Y729250D02*
Y734000D01*
X332330Y735330D01*
X335534D01*
X325410Y740410D02*
X335534D01*
X316000Y731000D02*
X325410Y740410D01*
X229616Y613918D02*
Y625014D01*
X225726Y628904D02*
X229616Y625014D01*
X244602Y613918D02*
Y634352D01*
X249856Y639606D01*
Y645668D01*
X259842Y613918D02*
Y618918D01*
X249856Y628904D02*
X259842Y618918D01*
X264240Y645668D02*
X264240Y645668D01*
X298022Y628998D02*
X298116Y628904D01*
X274240Y645668D02*
X274240Y645668D01*
X286654Y628904D02*
X288116D01*
X279842Y613918D02*
Y622092D01*
X286654Y628904D01*
X215726Y621274D02*
Y628904D01*
Y621274D02*
X219710Y617290D01*
Y613918D02*
Y617290D01*
X224790Y613918D02*
Y619960D01*
X220750Y624000D02*
X224790Y619960D01*
X220750Y624000D02*
Y634500D01*
X219000Y636250D02*
X220750Y634500D01*
X212000Y636250D02*
X219000D01*
X207500Y631750D02*
X212000Y636250D01*
X207500Y625750D02*
Y631750D01*
X239856Y645668D02*
Y647144D01*
X236178Y650822D02*
X239856Y647144D01*
X239776Y613918D02*
Y630920D01*
X239856Y631000D01*
Y645668D01*
X225726Y628904D02*
Y635215D01*
X204500Y649000D02*
X206250Y647250D01*
X213691D01*
X225726Y635215D01*
X330490Y745490D02*
X335534D01*
X329000Y744000D02*
X330490Y745490D01*
X316250Y744000D02*
X329000D01*
X303000Y730750D02*
X316250Y744000D01*
X234366Y614248D02*
Y620693D01*
Y614248D02*
X234696Y613918D01*
X127508Y431038D02*
X133538D01*
X136106Y433606D01*
X123050Y457200D02*
X132000Y448250D01*
X115918Y457200D02*
X123050D01*
X127508Y426212D02*
X151304D01*
X155194Y422322D01*
X127508Y421132D02*
X139382D01*
X139500Y421250D01*
X127508Y416052D02*
X145698D01*
X148000Y413750D01*
Y409750D02*
Y413750D01*
X147320Y390478D02*
X154250Y397408D01*
X127508Y410972D02*
X139222D01*
X139500Y411250D01*
X147320Y400478D02*
Y403430D01*
X155194Y412322D02*
X162178D01*
X153550Y378500D02*
X153670Y378380D01*
X147000Y378500D02*
X147320Y378820D01*
X139750Y368500D02*
X139870Y368380D01*
X127508Y405972D02*
X132778D01*
X134250Y404500D01*
X308300Y786050D02*
X315468D01*
X306500Y784250D02*
X308300Y786050D01*
X306500Y775218D02*
Y784250D01*
Y775218D02*
X306750Y774967D01*
Y771750D02*
Y774967D01*
X325750Y780000D02*
Y781000D01*
X331610Y760476D02*
X335534D01*
X327068Y765018D02*
X331610Y760476D01*
X327068Y765018D02*
Y766626D01*
X333248Y765556D02*
X335534D01*
X325054Y773750D02*
X333248Y765556D01*
X323500Y773750D02*
X325054D01*
X306750Y771750D02*
X309500Y769000D01*
X329500Y773546D02*
Y776250D01*
X325750Y780000D02*
X329500Y776250D01*
Y773546D02*
X332490Y770556D01*
X335534D01*
X320500Y776750D02*
X323500Y773750D01*
X316168Y776750D02*
X320500D01*
X315468Y776050D02*
X316168Y776750D01*
X379230Y491230D02*
X380500D01*
X374396Y486396D02*
X379230Y491230D01*
X374396Y471932D02*
Y486396D01*
X760184Y830816D02*
X760250Y830750D01*
X696750Y688890D02*
X731887D01*
X738497Y695500D01*
X851097Y686371D02*
X853498Y688772D01*
X912918D01*
X524619Y768825D02*
X529572Y763872D01*
X514369Y769075D02*
X519322Y764122D01*
X760184Y830816D02*
Y841908D01*
X524500Y163750D02*
X524510Y163760D01*
Y180340D01*
X641934Y368250D02*
X650250Y376566D01*
X633018Y368250D02*
X641934D01*
X632714Y368554D02*
X633018Y368250D01*
X618500Y363750D02*
X632692D01*
X632714Y363728D01*
X529336Y196586D02*
X529500Y196750D01*
X529336Y180340D02*
Y196586D01*
X341122Y443738D02*
X351738D01*
X353750Y445750D01*
Y454231D01*
X350563Y457418D02*
X353750Y454231D01*
X330885Y457418D02*
X350563D01*
X327195Y461108D02*
X330885Y457418D01*
X324408Y438658D02*
X341122D01*
X324922Y431750D02*
X326750Y433578D01*
X291500Y431750D02*
X324922D01*
X287000Y427250D02*
X291500Y431750D01*
X326750Y433578D02*
X341122D01*
X264000Y419533D02*
X268013Y415520D01*
X315033Y436500D02*
X316532Y435000D01*
X320750D01*
X324408Y438658D01*
X264000Y419533D02*
Y431000D01*
X269500Y436500D01*
X315033D01*
X270250Y427250D02*
X287000D01*
X269500Y428000D02*
X270250Y427250D01*
X330363Y425113D02*
Y426128D01*
X324528Y419278D02*
X330363Y425113D01*
X324528Y416600D02*
Y419278D01*
X322960Y415032D02*
X324528Y416600D01*
X296250Y415032D02*
X322960D01*
X295783Y415500D02*
X296250Y415032D01*
X280500Y415500D02*
X295783D01*
X274750Y409750D02*
X280500Y415500D01*
X265250Y409750D02*
X274750D01*
X254875Y440375D02*
X275608Y461108D01*
X327195D01*
X259500Y415500D02*
X265250Y409750D01*
X259500Y415500D02*
Y433500D01*
X268250Y442250D01*
X332987Y428752D02*
X341122D01*
X330363Y426128D02*
X332987Y428752D01*
X326272Y363728D02*
X341122D01*
X320000Y370000D02*
X326272Y363728D01*
X601250Y194000D02*
Y195000D01*
Y194000D02*
X604520Y190730D01*
Y180340D02*
Y190730D01*
X180250Y176500D02*
X202000Y198250D01*
Y213250D01*
X230000Y241250D01*
X632714Y243586D02*
Y244500D01*
X614500Y246000D02*
X616000Y244500D01*
X620030Y215720D02*
X622136Y213614D01*
X620030Y215720D02*
Y215760D01*
X616000Y244500D02*
X632714D01*
X150500Y149000D02*
X163750Y162250D01*
X200750D01*
X230000Y191500D01*
Y224250D01*
X246000Y240250D01*
X341122Y413512D02*
X379012D01*
X380500Y415000D01*
X246000Y240250D02*
Y387000D01*
X341122Y408686D02*
X377814D01*
X381000Y405500D01*
X252750Y193000D02*
Y379750D01*
X715326Y391424D02*
X716652Y392750D01*
X716750D01*
X712000Y390783D02*
X712326Y390457D01*
X709326Y384826D02*
Y389214D01*
X709000Y389540D02*
X709326Y389214D01*
X712326Y381326D02*
Y390457D01*
X709000Y389540D02*
Y418051D01*
X712000Y390783D02*
Y416808D01*
X719500Y424308D01*
X709000Y418051D02*
X714000Y423051D01*
X632714Y383540D02*
X655007D01*
X661500Y390033D01*
Y393000D01*
X679250Y410750D01*
Y483000D01*
X688000Y397250D02*
X697000Y388250D01*
X649476Y491774D02*
X667242D01*
X673750Y498283D01*
Y509500D01*
X668484Y488774D02*
X686750Y507040D01*
X690250Y506297D02*
Y538250D01*
X672250Y452217D02*
Y482000D01*
X699500Y509250D01*
X700503D01*
X715750Y513000D02*
Y522750D01*
X688000Y486217D02*
X690782Y489000D01*
X691750D01*
X715750Y513000D01*
X688000Y397250D02*
Y486217D01*
X679250Y483000D02*
X711500Y515250D01*
X700503Y509250D02*
X705000Y513747D01*
Y521250D01*
X698500Y527750D02*
X705000Y521250D01*
X711500Y515250D02*
Y521750D01*
X712750Y523000D01*
Y524747D01*
X715250Y527247D01*
Y564250D01*
X716750Y565750D01*
Y576782D01*
X707000Y586533D02*
X716750Y576782D01*
X514350Y180340D02*
Y197150D01*
X502500Y209000D02*
X514350Y197150D01*
X381269Y438521D02*
X388054D01*
X388283Y438750D01*
X479002D01*
X479023Y438771D01*
X617536Y378714D02*
X632714D01*
X604000Y392250D02*
X617536Y378714D01*
X364490Y471932D02*
Y488250D01*
X324766Y489524D02*
X354636D01*
X359410Y484750D01*
Y471932D02*
Y484750D01*
X350066Y511250D02*
X369316Y492000D01*
Y471932D02*
Y492000D01*
X329000Y472750D02*
X340000D01*
X269000Y486750D02*
X270976Y484774D01*
X333226D01*
X363750Y454250D01*
X394000D01*
X619000Y423000D02*
X619672Y423672D01*
X779500Y84000D02*
X781000D01*
X790000Y75000D01*
X821783Y603750D02*
X825717D01*
X817282Y599250D02*
X821783Y603750D01*
X674534Y608848D02*
X679815D01*
X703000Y982000D02*
X710750D01*
X702500Y982500D02*
X703000Y982000D01*
X744734Y384484D02*
X772516D01*
X798532Y410500D01*
X674534Y598848D02*
X692102D01*
X729004Y635750D01*
X896250Y366250D02*
X917250Y387250D01*
X747250Y339250D02*
Y340750D01*
X764750Y358250D01*
X702250Y343250D02*
X725250Y366250D01*
X702250Y277750D02*
Y343250D01*
Y277750D02*
X707750Y272250D01*
X725250Y366250D02*
X896250D01*
X707000Y586533D02*
Y602000D01*
X720500Y615500D02*
X720972D01*
X724790Y619318D01*
X707000Y602000D02*
X720500Y615500D01*
X733247Y635750D02*
X735247Y637750D01*
X758247D01*
X760247Y635750D01*
X841750D01*
X876500Y670500D01*
X729004Y635750D02*
X733247D01*
X722968Y652000D02*
X850250D01*
X679815Y608848D02*
X722968Y652000D01*
X692250Y634250D02*
Y645250D01*
X705500Y658500D01*
X849750D01*
X869500Y678250D01*
X758250Y83250D02*
X770250D01*
X750000Y75000D02*
X758250Y83250D01*
X850250Y652000D02*
X872000Y673750D01*
X876500Y670500D02*
X887250D01*
X917250Y640500D01*
Y387250D02*
Y640500D01*
X724790Y619318D02*
X835318D01*
X878282Y665750D02*
X881750D01*
X674534Y638848D02*
X682750Y647064D01*
Y651250D01*
X693750Y662250D01*
X771250D01*
X791250Y682250D01*
X810000Y75000D02*
Y81980D01*
X867250Y139229D01*
X464312Y151062D02*
Y180340D01*
X459750Y146500D02*
X464312Y151062D01*
X459750Y141250D02*
Y146500D01*
X418250Y80000D02*
X419000Y80750D01*
X410000Y80000D02*
X418250D01*
X459486Y153736D02*
Y180340D01*
X455000Y149250D02*
X459486Y153736D01*
X455000Y116000D02*
Y149250D01*
Y116000D02*
X473523Y97477D01*
Y97255D02*
Y97477D01*
X469250Y80750D02*
Y87000D01*
Y80750D02*
X470000Y80000D01*
X454406Y156906D02*
Y180340D01*
X450250Y152750D02*
X454406Y156906D01*
X450250Y110000D02*
Y152750D01*
Y110000D02*
X458250Y102000D01*
Y101250D02*
Y102000D01*
X458000Y101000D02*
X458250Y101250D01*
X447250Y87276D02*
X447272Y87254D01*
X447974Y87276D02*
X450000Y85250D01*
Y80000D02*
Y85250D01*
X447250Y87276D02*
X447974D01*
X449326Y163826D02*
Y180340D01*
X446250Y160750D02*
X449326Y163826D01*
X446250Y98750D02*
Y160750D01*
X604000Y392250D02*
Y415500D01*
X528000Y407783D02*
Y411500D01*
Y407783D02*
X537533Y398250D01*
X549402Y460848D02*
Y471932D01*
X559750Y442000D02*
X559750D01*
X550750Y433000D02*
X559750Y442000D01*
X516217Y433000D02*
X550750D01*
X549402Y460848D02*
X551250Y459000D01*
X566000D01*
X544026Y409277D02*
X570750Y436000D01*
Y454250D01*
X566000Y459000D02*
X570750Y454250D01*
X392250Y402000D02*
Y410250D01*
X373500Y418592D02*
X373658Y418750D01*
X383750D01*
X341122Y418592D02*
X373500D01*
X383750Y418750D02*
X392250Y410250D01*
X396500Y422250D02*
X396750D01*
X398750Y424250D01*
X632714Y448564D02*
X632848Y448430D01*
X622498Y428752D02*
X632714D01*
X423500Y390000D02*
X425000Y391500D01*
X370750Y390000D02*
X423500D01*
X360000Y400750D02*
X370750Y390000D01*
X379820Y426213D02*
X382537D01*
X394750Y414000D01*
X455250D01*
X460000Y418750D01*
X497479Y434021D02*
X509750Y421750D01*
Y410000D02*
Y421750D01*
X390271Y434021D02*
X497479D01*
X395750Y429000D02*
X481250D01*
X500230Y410020D01*
X501525D01*
X398750Y424250D02*
X478875D01*
X499125Y404000D01*
X506500D01*
X612750Y438500D02*
X622498Y428752D01*
X622144Y453644D02*
X632714D01*
X617250Y448750D02*
X622144Y453644D01*
X612750Y438500D02*
Y446533D01*
X612500Y446782D02*
X612750Y446533D01*
X612500Y446782D02*
Y451500D01*
X543750Y248250D02*
Y269253D01*
X420790Y383540D02*
X421500Y384250D01*
X341122Y383540D02*
X420790D01*
X632848Y448430D02*
X663136D01*
X632714Y443738D02*
X646738D01*
X648000Y445000D02*
X648500D01*
X643512Y413512D02*
X645282Y415281D01*
Y420250D01*
X646738Y443738D02*
X648000Y445000D01*
X614250Y339540D02*
X614500Y339790D01*
Y343000D01*
X823468Y265468D02*
Y280256D01*
X810768Y262268D02*
Y280256D01*
X759968Y241750D02*
X790250D01*
X810768Y262268D01*
X735386Y238250D02*
X738136Y235500D01*
X793500D01*
X823468Y265468D01*
X696750Y337750D02*
Y351500D01*
X697056Y362056D02*
Y362298D01*
X707056D02*
X708048D01*
X704500Y373500D02*
X712326Y381326D01*
X712149Y366399D02*
Y368649D01*
X714250Y370750D01*
X708048Y362298D02*
X712149Y366399D01*
X705750Y369750D02*
X711750Y375750D01*
X736000D01*
X744734Y384484D01*
X564388Y180340D02*
Y190138D01*
X583250Y209000D01*
X559308Y180340D02*
Y192558D01*
X578500Y211750D01*
X534416Y180340D02*
Y210166D01*
X539496Y180340D02*
Y208996D01*
X779250Y75000D02*
X779750Y75500D01*
X770000Y75000D02*
X779250D01*
X611750Y223750D02*
X619250Y231250D01*
Y236000D01*
X589000Y208000D02*
Y260500D01*
X594750Y205500D02*
Y267250D01*
X583250Y209000D02*
Y263500D01*
X593500Y273750D01*
Y416250D01*
X578500Y211750D02*
Y264500D01*
X587500Y273500D01*
Y405000D01*
X714871Y258412D02*
X758270D01*
X694250Y279032D02*
X714871Y258412D01*
X694250Y279032D02*
Y280250D01*
X452618Y224000D02*
X497500D01*
X268509Y80000D02*
X268763Y80254D01*
X260000Y80000D02*
X268509D01*
X240000D02*
Y92000D01*
X729000Y229750D02*
X830283D01*
X859283Y200750D01*
X862250D01*
X689000Y259000D02*
X756554Y191446D01*
X690500Y263000D02*
X732000Y221500D01*
X835318Y619318D02*
X859250Y643250D01*
Y646718D01*
X878282Y665750D01*
X872000Y673750D02*
X892000D01*
X924750Y641000D01*
X899000Y358250D02*
X924750Y384000D01*
Y641000D01*
X764750Y358250D02*
X899000D01*
X869500Y678250D02*
X895750D01*
X938250Y623968D02*
Y635750D01*
X936250Y621968D02*
X938250Y623968D01*
X936250Y616032D02*
Y621968D01*
Y616032D02*
X937750Y614533D01*
Y493717D02*
Y614533D01*
X934104Y490071D02*
X937750Y493717D01*
X934104Y482364D02*
Y490071D01*
Y482364D02*
X941500Y474967D01*
Y468250D02*
Y474967D01*
X939750Y466500D02*
X941500Y468250D01*
X939750Y365000D02*
Y466500D01*
X895750Y678250D02*
X938250Y635750D01*
X954750Y358500D02*
X960500Y352750D01*
Y300000D02*
Y352750D01*
X791250Y682250D02*
X899750D01*
X954750Y627250D01*
Y358500D02*
Y627250D01*
X738497Y695500D02*
X794250D01*
X803379Y686371D01*
X851097D01*
X791967Y608750D02*
X793968Y606750D01*
X761935Y573685D02*
X762500Y574250D01*
X747824Y573685D02*
X761935D01*
X838000Y556250D02*
X839500Y557750D01*
X790750Y556250D02*
X838000D01*
X791000Y548500D02*
X842500D01*
X844750Y550750D01*
X831750Y440500D02*
Y440890D01*
X829070Y443570D02*
X831750Y440890D01*
X747404Y443570D02*
X829070D01*
X317500Y516250D02*
X322500Y511250D01*
X350066D01*
X230000Y241250D02*
Y400500D01*
X254875Y425375D01*
Y440375D01*
X931500Y239000D02*
Y271000D01*
X960500Y300000D01*
X924430Y237430D02*
Y349680D01*
X939750Y365000D01*
X481000Y195500D02*
X484378Y192122D01*
X481000Y195500D02*
Y196500D01*
X379718Y283718D02*
X385000Y289000D01*
X544026Y406270D02*
Y409277D01*
X139500Y411250D02*
X147320Y403430D01*
X154250Y397408D02*
Y403500D01*
X148000Y409750D02*
X154250Y403500D01*
X642155Y304836D02*
X665750Y328431D01*
Y363750D01*
X675500Y373500D01*
X704500D01*
X678000Y369750D02*
X705750D01*
X667750Y320750D02*
X670250Y323250D01*
Y362000D01*
X678000Y369750D01*
X340000Y472750D02*
X368250Y444500D01*
X495000D01*
X528000Y411500D01*
X394418Y178636D02*
Y203731D01*
X438186Y247500D01*
X399418Y178636D02*
Y191310D01*
X443608Y235500D01*
X544341Y709041D02*
X549294Y704088D01*
X544341Y698881D02*
X549294Y693928D01*
X686750Y507040D02*
Y521000D01*
X674000Y533750D02*
X686750Y521000D01*
X605750Y513750D02*
X622148D01*
X647124Y488774D01*
X668484D01*
X612500Y451500D02*
X621422Y460422D01*
X644375D01*
X690250Y506297D01*
X320688Y160750D02*
X325482Y155956D01*
X350956D01*
X364490Y169490D01*
X359410Y170713D02*
Y180340D01*
X317288Y167750D02*
X321358D01*
X328864Y160245D01*
X348941D01*
X359410Y170713D01*
X309500Y769000D02*
X324694D01*
X327068Y766626D01*
X514350Y481850D02*
X521500Y489000D01*
X514350Y471932D02*
Y481850D01*
X136984Y441044D02*
Y445516D01*
X127508Y436118D02*
X131901D01*
X134138Y438356D01*
X134296D01*
X136984Y441044D01*
X127508Y441198D02*
X131098D01*
X132000Y442099D01*
Y448250D01*
X430000Y80000D02*
Y85178D01*
X432322Y87500D01*
X434500D01*
X634418Y258636D02*
X642007D01*
X642791Y257852D01*
X690018Y268732D02*
X729000Y229750D01*
X632714Y268732D02*
X690018D01*
X632714Y263652D02*
X632825Y263763D01*
X646532D01*
X634418Y253102D02*
Y253636D01*
Y253102D02*
X644759D01*
X647541Y255884D01*
Y258055D01*
X652486Y263000D01*
X690500D01*
X632714Y248666D02*
X644648D01*
X650541Y254559D01*
Y256812D01*
X652729Y259000D01*
X689000D01*
X732000Y221500D02*
X818811D01*
X756554Y191446D02*
X800799D01*
X818811Y221500D02*
X839810Y200500D01*
X846000D01*
X852000Y195750D02*
X854000Y197750D01*
X800799Y191446D02*
X805103Y195750D01*
X852000D01*
X797217Y196229D02*
X797250Y196196D01*
X691750Y328000D02*
Y356750D01*
X697056Y362056D01*
X549294Y794004D02*
X549336Y794046D01*
X554482Y799192D01*
D44*
X686250Y572500D02*
X696250D01*
X685500Y571750D02*
X686250Y572500D01*
X222758Y808228D02*
X241772D01*
X242500Y807500D01*
X266000Y847000D02*
X272000D01*
D45*
X387750Y766000D02*
Y771500D01*
X398000Y781750D01*
X399000Y766000D02*
Y771500D01*
X403750Y786500D02*
Y792000D01*
X387750Y728250D02*
Y733750D01*
X398250Y728000D02*
Y733500D01*
X387500Y748750D02*
Y754250D01*
X398750Y748250D02*
Y753750D01*
X237250Y998500D02*
X242750D01*
X237250Y983500D02*
X242750D01*
X237250Y948500D02*
X242750D01*
X237250Y933500D02*
X242750D01*
X237250Y898500D02*
X242750D01*
X237250Y882500D02*
X242750D01*
X341000Y644606D02*
Y651000D01*
X329000Y540000D02*
X335394D01*
X358606Y542000D02*
X365000D01*
X241606Y514000D02*
X248000D01*
X241606Y499000D02*
X248000D01*
X241606Y470000D02*
X248000D01*
X241606Y455000D02*
X248000D01*
X96250Y339356D02*
Y345750D01*
X99356Y336000D02*
X105750D01*
X99856Y325250D02*
X106250D01*
X96500Y317250D02*
Y323644D01*
X297250Y280606D02*
Y287000D01*
X297500Y244500D02*
Y250894D01*
X470106Y513500D02*
X476500D01*
X437500Y513500D02*
X443894D01*
X347472Y639078D02*
X354000Y645606D01*
Y652000D01*
X341000Y532394D02*
X344250Y529144D01*
Y524000D02*
Y529144D01*
D46*
X138750Y99500D02*
X139500D01*
X138750Y334429D02*
X206250Y401929D01*
Y462010D01*
X205472Y462788D02*
X206250Y462010D01*
X753500Y272500D02*
X754750Y271250D01*
X753500Y272500D02*
Y300750D01*
X754250Y301500D01*
X650310Y824310D02*
X654000Y828000D01*
X644906Y824310D02*
X650310D01*
X766826Y284748D02*
Y290750D01*
X798068Y320818D02*
Y334358D01*
X754750Y270500D02*
Y271250D01*
X778750Y301500D02*
X798068Y320818D01*
X754250Y301500D02*
X778750D01*
X732250Y323500D02*
Y333250D01*
Y323500D02*
X754250Y301500D01*
X138750Y99500D02*
Y334429D01*
D47*
X583750Y427250D02*
X614426Y457926D01*
X579000Y427250D02*
X583750D01*
X555500Y403750D02*
X579000Y427250D01*
X329750Y223250D02*
X340852D01*
X341122Y223520D01*
X399542Y471932D02*
Y483140D01*
X401996Y485594D01*
Y504254D01*
X340750Y506000D02*
X346740D01*
X364490Y488250D01*
X327125Y515625D02*
X390625D01*
X401996Y504254D01*
X544322Y459520D02*
Y471932D01*
X579374Y435626D02*
Y471932D01*
X568750Y427000D02*
X574294Y432544D01*
Y471932D01*
X549912Y453930D02*
X564320D01*
X544322Y459520D02*
X549912Y453930D01*
X564320D02*
X567680Y450570D01*
Y439680D02*
Y450570D01*
X538500Y410500D02*
X567680Y439680D01*
X537527Y404973D02*
X538500Y404000D01*
Y410500D01*
X331521Y298704D02*
X341122D01*
X329996Y297180D02*
X331521Y298704D01*
X259180Y297180D02*
X329996D01*
X257750Y295750D02*
X259180Y297180D01*
X305926Y328676D02*
X341122D01*
X302500Y325250D02*
X305926Y328676D01*
X302500Y315750D02*
Y325250D01*
X299750Y313000D02*
X302500Y315750D01*
X258000Y313000D02*
X299750D01*
X395250Y394750D02*
X417500D01*
X424500Y401750D01*
X425750D01*
X579374Y435626D02*
X581750Y433250D01*
X614426Y457926D02*
Y471932D01*
X468750Y420750D02*
X477250D01*
X464820Y416754D02*
Y416820D01*
X468750Y420750D01*
X449817Y401750D02*
X464820Y416754D01*
X425750Y401750D02*
X449817D01*
X494750Y326500D02*
Y403250D01*
X477250Y420750D02*
X494750Y403250D01*
X318250Y524500D02*
X327125Y515625D01*
D48*
X470500Y133500D02*
Y142260D01*
X470266Y142494D02*
X470500Y142260D01*
X484500Y133500D02*
Y142260D01*
X484266Y142494D02*
X484500Y142260D01*
X222758Y820928D02*
X246178D01*
D49*
X365800Y-60000D02*
D03*
X543600D02*
D03*
X518200D02*
D03*
X492800D02*
D03*
X467400D02*
D03*
X442000D02*
D03*
X416600D02*
D03*
X391200D02*
D03*
X340400D02*
D03*
X841607Y330700D02*
D03*
X912193Y-15000D02*
D03*
X886793D02*
D03*
X903870Y337058D02*
D03*
X878470Y311658D02*
D03*
X903870D02*
D03*
X878470Y286258D02*
D03*
X903870D02*
D03*
X774446Y137922D02*
D03*
Y112522D02*
D03*
X749046Y137922D02*
D03*
Y112522D02*
D03*
X723646Y137922D02*
D03*
X385064D02*
D03*
X410464Y112522D02*
D03*
Y137922D02*
D03*
X435864Y112522D02*
D03*
Y137922D02*
D03*
X291338Y204216D02*
D03*
X265938D02*
D03*
X240538D02*
D03*
X215138D02*
D03*
X189738D02*
D03*
X491900Y13000D02*
D03*
X339500D02*
D03*
X364900D02*
D03*
X390300D02*
D03*
X415700D02*
D03*
X441100D02*
D03*
X466500D02*
D03*
X659168Y917448D02*
D03*
X456892Y964946D02*
D03*
X431492Y990346D02*
D03*
Y964946D02*
D03*
X406092Y990346D02*
D03*
Y964946D02*
D03*
X380692Y990346D02*
D03*
Y964946D02*
D03*
X355292Y990346D02*
D03*
Y964946D02*
D03*
X329892Y990346D02*
D03*
Y964946D02*
D03*
X304492Y990346D02*
D03*
Y964946D02*
D03*
X279092Y990346D02*
D03*
Y964946D02*
D03*
X506930D02*
D03*
Y990346D02*
D03*
X532330Y964946D02*
D03*
Y990346D02*
D03*
X557730Y964946D02*
D03*
Y990346D02*
D03*
X583130Y964946D02*
D03*
Y990346D02*
D03*
X608530Y964946D02*
D03*
Y990346D02*
D03*
X633930Y964946D02*
D03*
Y990346D02*
D03*
X659330Y964946D02*
D03*
Y990346D02*
D03*
X684730Y964946D02*
D03*
X195200Y320150D02*
D03*
X169800Y294750D02*
D03*
X195200D02*
D03*
X169800Y269350D02*
D03*
X195200D02*
D03*
D50*
X315000Y-60000D02*
D03*
X861393Y-15000D02*
D03*
X723646Y112522D02*
D03*
X385064D02*
D03*
X164338Y204216D02*
D03*
X314100Y13000D02*
D03*
X633768Y917448D02*
D03*
X456892Y990346D02*
D03*
X684730D02*
D03*
D51*
X841607Y305300D02*
D03*
X878470Y337058D02*
D03*
X169800Y320150D02*
D03*
D52*
X828000Y-138840D02*
D03*
X872098D02*
D03*
X672098D02*
D03*
X628000D02*
D03*
D53*
X248000Y-78000D02*
D03*
D54*
X200000Y-106000D02*
D03*
Y-48000D02*
D03*
D55*
X845000Y-65000D02*
D03*
X865000D02*
D03*
X855000D02*
D03*
X835000D02*
D03*
X727250Y-165000D02*
D03*
X774962Y-164695D02*
D03*
Y-149636D02*
D03*
X727500Y-150000D02*
D03*
X660000Y55000D02*
D03*
X395000Y-142500D02*
D03*
X560000D02*
D03*
X540000D02*
D03*
X520000D02*
D03*
X500000D02*
D03*
X455000D02*
D03*
X435000D02*
D03*
X415000D02*
D03*
X342500D02*
D03*
X322500D02*
D03*
X302550D02*
D03*
X282500D02*
D03*
X889934Y25274D02*
D03*
X879977D02*
D03*
X869985Y24774D02*
D03*
X860000D02*
D03*
X305308Y-90000D02*
D03*
X959522Y670018D02*
D03*
Y633522D02*
D03*
X960522Y658344D02*
D03*
X961522Y684018D02*
D03*
X307500Y-15000D02*
D03*
X82500Y26541D02*
D03*
X117722Y26927D02*
D03*
X862292Y157008D02*
D03*
X855750Y152000D02*
D03*
X546277Y442272D02*
D03*
X474273Y414020D02*
D03*
X539500Y442000D02*
D03*
X587000Y418239D02*
D03*
X588279Y405520D02*
D03*
X845541Y151007D02*
D03*
X875500Y150250D02*
D03*
X886793Y150007D02*
D03*
X891250Y195250D02*
D03*
X174250Y134250D02*
D03*
X162750Y123250D02*
D03*
X155500Y124500D02*
D03*
X121006Y125006D02*
D03*
X167000Y84250D02*
D03*
X136000Y71750D02*
D03*
X175125Y56875D02*
D03*
X135500Y44000D02*
D03*
X111250Y74000D02*
D03*
X504463Y778891D02*
D03*
X827977Y59250D02*
D03*
X139500Y99500D02*
D03*
X757500Y216750D02*
D03*
X772000Y201000D02*
D03*
X772500Y167000D02*
D03*
X424000Y315000D02*
D03*
X691750Y328000D02*
D03*
X761250Y167500D02*
D03*
X703000Y208750D02*
D03*
X489000Y198000D02*
D03*
X504275Y314515D02*
D03*
X509250Y310000D02*
D03*
X480023Y311265D02*
D03*
X545277Y369518D02*
D03*
X794500Y215500D02*
D03*
X705250Y167750D02*
D03*
X758500Y280750D02*
D03*
X878470Y373780D02*
D03*
X378000Y253250D02*
D03*
X459000Y323750D02*
D03*
X386500Y251500D02*
D03*
X459250Y316500D02*
D03*
X300265Y94255D02*
D03*
X292383Y94500D02*
D03*
X541250Y359500D02*
D03*
X539250Y366000D02*
D03*
X485000Y344250D02*
D03*
X470250Y360500D02*
D03*
X554527Y194259D02*
D03*
X526750Y212000D02*
D03*
X442500Y165500D02*
D03*
X695750Y270000D02*
D03*
X691134Y127366D02*
D03*
X514369Y778891D02*
D03*
X494557Y789051D02*
D03*
X524529D02*
D03*
Y798957D02*
D03*
X514369Y789051D02*
D03*
X524529Y778891D02*
D03*
X534435D02*
D03*
X514369Y798957D02*
D03*
X504463D02*
D03*
X494557D02*
D03*
X544341Y758825D02*
D03*
X534435D02*
D03*
X554501D02*
D03*
X574487D02*
D03*
X534435Y748919D02*
D03*
X852792Y533026D02*
D03*
X846250Y525750D02*
D03*
X901374Y459874D02*
D03*
X784500Y478500D02*
D03*
X936750Y473000D02*
D03*
X764718Y462651D02*
D03*
X722022Y580978D02*
D03*
X764287Y560277D02*
D03*
X300500Y232750D02*
D03*
X311750Y235250D02*
D03*
X900000Y578070D02*
D03*
X525500Y564000D02*
D03*
X601250Y234250D02*
D03*
X605000Y223000D02*
D03*
X841000Y582000D02*
D03*
X748750Y610500D02*
D03*
X764000Y589250D02*
D03*
X832250Y588750D02*
D03*
X823750Y599000D02*
D03*
X608250Y210750D02*
D03*
X886000Y600750D02*
D03*
X743000Y614250D02*
D03*
X848791Y604780D02*
D03*
X649000Y217697D02*
D03*
X647750Y209750D02*
D03*
X904044Y583279D02*
D03*
X907250Y573250D02*
D03*
X623750Y578750D02*
D03*
X634499Y578749D02*
D03*
X845750Y595000D02*
D03*
X711750Y588500D02*
D03*
X767000Y495000D02*
D03*
X574402Y588848D02*
D03*
X761500Y408000D02*
D03*
X908794Y415270D02*
D03*
X906000Y492000D02*
D03*
X480000Y485000D02*
D03*
X474999Y489999D02*
D03*
X479000Y497000D02*
D03*
X470000Y485000D02*
D03*
X782904Y502904D02*
D03*
X902000Y503000D02*
D03*
X484400Y698881D02*
D03*
X474490D02*
D03*
X464331D02*
D03*
X554414Y698968D02*
D03*
X574534Y698928D02*
D03*
Y678848D02*
D03*
X554454Y668848D02*
D03*
X584534Y698928D02*
D03*
X574534Y668848D02*
D03*
X584534Y678848D02*
D03*
X544341Y698881D02*
D03*
X554501Y709041D02*
D03*
X544341Y678895D02*
D03*
X574487Y709041D02*
D03*
X584534Y668848D02*
D03*
X544341Y668895D02*
D03*
X584487Y709041D02*
D03*
X544341D02*
D03*
X534435Y698881D02*
D03*
X554501Y718947D02*
D03*
X554454Y658848D02*
D03*
X594534Y698928D02*
D03*
X534435Y678895D02*
D03*
X574487Y718947D02*
D03*
X574534Y658848D02*
D03*
X594534Y678848D02*
D03*
X534435Y668895D02*
D03*
X584487Y718947D02*
D03*
X584534Y658848D02*
D03*
X594534Y668848D02*
D03*
X534435Y709041D02*
D03*
X544341Y718947D02*
D03*
Y658895D02*
D03*
X594487Y709041D02*
D03*
X524529Y698881D02*
D03*
X554501Y728853D02*
D03*
X524529Y678895D02*
D03*
X574487Y728853D02*
D03*
X554454Y648848D02*
D03*
X604534Y698928D02*
D03*
X574534Y648848D02*
D03*
X604534Y678848D02*
D03*
X534435Y718947D02*
D03*
Y658895D02*
D03*
X594487Y718947D02*
D03*
X594534Y658848D02*
D03*
X524529Y668895D02*
D03*
X584487Y728853D02*
D03*
X524529Y709041D02*
D03*
X544341Y728853D02*
D03*
X584534Y648848D02*
D03*
X604534Y668848D02*
D03*
X544341Y648895D02*
D03*
X604487Y709041D02*
D03*
X524529Y718947D02*
D03*
X534435Y728853D02*
D03*
X524529Y658895D02*
D03*
X594487Y728853D02*
D03*
X534435Y648895D02*
D03*
X604487Y718947D02*
D03*
X594534Y648848D02*
D03*
X604534Y658848D02*
D03*
X554454Y638848D02*
D03*
X614534Y698928D02*
D03*
X574534Y638848D02*
D03*
X614534Y678848D02*
D03*
X514369Y698881D02*
D03*
X554501Y739013D02*
D03*
X514369Y678895D02*
D03*
X574487Y739013D02*
D03*
X584534Y638848D02*
D03*
X614534Y668848D02*
D03*
X544341Y638895D02*
D03*
X614487Y709041D02*
D03*
X514369Y668895D02*
D03*
X584487Y739013D02*
D03*
X514369Y709041D02*
D03*
X544341Y739013D02*
D03*
X524529Y728853D02*
D03*
Y648895D02*
D03*
X604487Y728853D02*
D03*
X604534Y648848D02*
D03*
X534435Y638895D02*
D03*
X614487Y718947D02*
D03*
X594534Y638848D02*
D03*
X614534Y658848D02*
D03*
X534435Y739013D02*
D03*
X514369Y658895D02*
D03*
X594487Y739013D02*
D03*
X504463Y698881D02*
D03*
X554501Y748919D02*
D03*
X504463Y678895D02*
D03*
X574487Y748919D02*
D03*
X554454Y628848D02*
D03*
X624534Y698928D02*
D03*
X574534Y628848D02*
D03*
X624534Y678848D02*
D03*
X524529Y638895D02*
D03*
X614487Y728853D02*
D03*
X504463Y668895D02*
D03*
X584487Y748919D02*
D03*
X504463Y709041D02*
D03*
X544341Y748919D02*
D03*
X514369Y728853D02*
D03*
X524529Y739013D02*
D03*
X584534Y628848D02*
D03*
X624534Y668848D02*
D03*
X604534Y638848D02*
D03*
X614534Y648848D02*
D03*
X544341Y628895D02*
D03*
X624487Y709041D02*
D03*
X514369Y648895D02*
D03*
X604487Y739013D02*
D03*
X504463Y718947D02*
D03*
Y658895D02*
D03*
X594487Y748919D02*
D03*
X534435Y628895D02*
D03*
X624487Y718947D02*
D03*
X594534Y628848D02*
D03*
X624534Y658848D02*
D03*
X614534Y638848D02*
D03*
X514369Y638895D02*
D03*
X614487Y739013D02*
D03*
X514369D02*
D03*
X494557Y698881D02*
D03*
Y678895D02*
D03*
X504463Y728853D02*
D03*
X524529Y628895D02*
D03*
X624487Y728853D02*
D03*
X504463Y648895D02*
D03*
X604487Y748919D02*
D03*
X554454Y618848D02*
D03*
X634534Y698928D02*
D03*
X574534Y618848D02*
D03*
X634534Y678848D02*
D03*
X604534Y628848D02*
D03*
X624534Y648848D02*
D03*
X494557Y668895D02*
D03*
X584487Y758825D02*
D03*
X494557Y709041D02*
D03*
X584534Y618848D02*
D03*
X634534Y668848D02*
D03*
X544341Y618895D02*
D03*
X634487Y709041D02*
D03*
X494557Y718947D02*
D03*
Y658895D02*
D03*
X594487Y758825D02*
D03*
X534435Y618895D02*
D03*
X634487Y718947D02*
D03*
X594534Y618848D02*
D03*
X634534Y658848D02*
D03*
X504463Y638895D02*
D03*
X614487Y748919D02*
D03*
X614534Y628848D02*
D03*
X624534Y638848D02*
D03*
X504463Y739013D02*
D03*
X514369Y748919D02*
D03*
Y628895D02*
D03*
X624487Y739013D02*
D03*
X494557Y728853D02*
D03*
X524529Y758825D02*
D03*
X494557Y648895D02*
D03*
X604487Y758825D02*
D03*
X524529Y618895D02*
D03*
X634487Y728853D02*
D03*
X604534Y618848D02*
D03*
X634534Y648848D02*
D03*
X554454Y608848D02*
D03*
X644534Y698928D02*
D03*
X574534Y608848D02*
D03*
X644534Y678848D02*
D03*
X554501Y768985D02*
D03*
X484397Y678895D02*
D03*
X574487Y768985D02*
D03*
X584534Y608848D02*
D03*
X644534Y668848D02*
D03*
X644487Y709041D02*
D03*
X484397Y668895D02*
D03*
X584487Y768985D02*
D03*
X484397Y709041D02*
D03*
X544341Y768985D02*
D03*
X504463Y748919D02*
D03*
Y628895D02*
D03*
X624487Y748919D02*
D03*
X624534Y628848D02*
D03*
X494557Y638895D02*
D03*
X614487Y758825D02*
D03*
X494557Y739013D02*
D03*
X514369Y758825D02*
D03*
X644487Y718947D02*
D03*
X594534Y608848D02*
D03*
X644534Y658848D02*
D03*
X614534Y618848D02*
D03*
X634534Y638848D02*
D03*
X484397Y718947D02*
D03*
X534435Y768985D02*
D03*
X484397Y658895D02*
D03*
X594487Y768985D02*
D03*
X514369Y618895D02*
D03*
X634487Y739013D02*
D03*
X524529Y608895D02*
D03*
X644487Y728853D02*
D03*
X484397D02*
D03*
X604534Y608848D02*
D03*
X644534Y648848D02*
D03*
X484397Y648895D02*
D03*
X604487Y768985D02*
D03*
X494557Y748919D02*
D03*
X504463Y758825D02*
D03*
X494557Y628895D02*
D03*
X624487Y758825D02*
D03*
X554501Y778891D02*
D03*
X574487D02*
D03*
X654534Y698928D02*
D03*
X574534Y598848D02*
D03*
X654534Y678848D02*
D03*
X504463Y618895D02*
D03*
X634487Y748919D02*
D03*
X624534Y618848D02*
D03*
X634534Y628848D02*
D03*
X474491Y668895D02*
D03*
X584487Y778891D02*
D03*
X474491Y709041D02*
D03*
X544341Y778891D02*
D03*
X584534Y598848D02*
D03*
X654534Y668848D02*
D03*
X654487Y709041D02*
D03*
X614534Y608848D02*
D03*
X644534Y638848D02*
D03*
X484397Y638895D02*
D03*
X614487Y768985D02*
D03*
X514369Y608895D02*
D03*
X644487Y739013D02*
D03*
X484397D02*
D03*
X474491Y718947D02*
D03*
Y658895D02*
D03*
X594487Y778891D02*
D03*
X534435Y598895D02*
D03*
X654487Y718947D02*
D03*
X594534Y598848D02*
D03*
X654534Y658848D02*
D03*
X494557Y758825D02*
D03*
X474491Y728853D02*
D03*
X494557Y618895D02*
D03*
X634487Y758825D02*
D03*
X474491Y648895D02*
D03*
X604487Y778891D02*
D03*
X524529Y598895D02*
D03*
X654487Y728853D02*
D03*
X604534Y598848D02*
D03*
X654534Y648848D02*
D03*
X634534Y618848D02*
D03*
X504463Y608895D02*
D03*
X644487Y748919D02*
D03*
X624534Y608848D02*
D03*
X644534Y628848D02*
D03*
X484397Y748919D02*
D03*
X504463Y768985D02*
D03*
X484397Y628895D02*
D03*
X624487Y768985D02*
D03*
X554454Y588848D02*
D03*
X664534Y698928D02*
D03*
Y678848D02*
D03*
X554501Y789051D02*
D03*
X464331Y678895D02*
D03*
X574487Y789051D02*
D03*
X474491Y638895D02*
D03*
X614487Y778891D02*
D03*
X474491Y739013D02*
D03*
X584534Y588848D02*
D03*
X664534Y668848D02*
D03*
X544341Y588895D02*
D03*
X664487Y709041D02*
D03*
X614534Y598848D02*
D03*
X654534Y638848D02*
D03*
X514369Y598895D02*
D03*
X654487Y739013D02*
D03*
X464331Y668895D02*
D03*
X584487Y789051D02*
D03*
X464331Y709041D02*
D03*
X544341Y789051D02*
D03*
X534435Y588895D02*
D03*
X664487Y718947D02*
D03*
X594534Y588848D02*
D03*
X664534Y658848D02*
D03*
X464331Y718947D02*
D03*
X534435Y789051D02*
D03*
X464331Y658895D02*
D03*
X594487Y789051D02*
D03*
X494557Y608895D02*
D03*
X644487Y758825D02*
D03*
X484397D02*
D03*
X494557Y768985D02*
D03*
X634534Y608848D02*
D03*
X644534Y618848D02*
D03*
X484397Y618895D02*
D03*
X634487Y768985D02*
D03*
X474491Y748919D02*
D03*
Y628895D02*
D03*
X624487Y778891D02*
D03*
X524529Y588895D02*
D03*
X664487Y728853D02*
D03*
X504463Y598895D02*
D03*
X654487Y748919D02*
D03*
X604534Y588848D02*
D03*
X664534Y648848D02*
D03*
X624534Y598848D02*
D03*
X654534Y628848D02*
D03*
X464331Y728853D02*
D03*
Y648895D02*
D03*
X604487Y789051D02*
D03*
X554454Y578848D02*
D03*
X454425Y698881D02*
D03*
X674534Y698928D02*
D03*
X574534Y578848D02*
D03*
X454425Y678895D02*
D03*
X574487Y798957D02*
D03*
X614534Y588848D02*
D03*
X664534Y638848D02*
D03*
X664487Y739013D02*
D03*
X464331Y638895D02*
D03*
X614487Y789051D02*
D03*
X464331Y739013D02*
D03*
X584534Y578848D02*
D03*
X674534Y668848D02*
D03*
X584487Y798957D02*
D03*
X544341Y578895D02*
D03*
X454425Y709041D02*
D03*
X674487D02*
D03*
X644534Y608848D02*
D03*
X484397Y608895D02*
D03*
X644487Y768985D02*
D03*
X484397D02*
D03*
X474491Y758825D02*
D03*
X494557Y778891D02*
D03*
Y598895D02*
D03*
X654487Y758825D02*
D03*
X474491Y618895D02*
D03*
X634487Y778891D02*
D03*
X634534Y598848D02*
D03*
X654534Y618848D02*
D03*
X534435Y578895D02*
D03*
X454425Y718947D02*
D03*
X674487D02*
D03*
X594534Y578848D02*
D03*
X454425Y658895D02*
D03*
X674534Y658848D02*
D03*
X594487Y798957D02*
D03*
X504463Y588895D02*
D03*
X664487Y748919D02*
D03*
X624534Y588848D02*
D03*
X664534Y628848D02*
D03*
X464331Y748919D02*
D03*
X504463Y789051D02*
D03*
X464331Y628895D02*
D03*
X624487Y789051D02*
D03*
X524529Y578895D02*
D03*
X454425Y728853D02*
D03*
X674487D02*
D03*
X604534Y578848D02*
D03*
X454425Y648895D02*
D03*
X604487Y798957D02*
D03*
X474491Y608895D02*
D03*
X644487Y778891D02*
D03*
X474491Y768985D02*
D03*
X484397Y778891D02*
D03*
X644534Y598848D02*
D03*
X654534Y608848D02*
D03*
X484397Y598895D02*
D03*
X654487Y768985D02*
D03*
X614534Y578848D02*
D03*
X454425Y638895D02*
D03*
X674534Y638848D02*
D03*
X614487Y798957D02*
D03*
X514369Y578895D02*
D03*
X454425Y739013D02*
D03*
X674487D02*
D03*
X494557Y588895D02*
D03*
X664487Y758825D02*
D03*
X664534Y618848D02*
D03*
X464331Y758825D02*
D03*
Y618895D02*
D03*
X634487Y789051D02*
D03*
X504463Y578895D02*
D03*
X454425Y748919D02*
D03*
X674487D02*
D03*
X454425Y628895D02*
D03*
X674534Y628848D02*
D03*
X624487Y798957D02*
D03*
X474491Y778891D02*
D03*
Y598895D02*
D03*
X654487Y778891D02*
D03*
X654534Y598848D02*
D03*
X644534Y588848D02*
D03*
X664534Y608848D02*
D03*
X484397Y588895D02*
D03*
X664487Y768985D02*
D03*
X464331Y608895D02*
D03*
X644487Y789051D02*
D03*
X464331Y768985D02*
D03*
X484397Y789051D02*
D03*
X494557Y578895D02*
D03*
X454425Y758825D02*
D03*
X674487D02*
D03*
X454425Y618895D02*
D03*
X674534Y618848D02*
D03*
X634487Y798957D02*
D03*
X474491Y588895D02*
D03*
X664487Y778891D02*
D03*
X654534Y588848D02*
D03*
X664534Y598848D02*
D03*
X464331Y778891D02*
D03*
X474491Y789051D02*
D03*
X464331Y598895D02*
D03*
X654487Y789051D02*
D03*
X644534Y578848D02*
D03*
X454425Y608895D02*
D03*
X674534Y608848D02*
D03*
X644487Y798957D02*
D03*
X454425Y768985D02*
D03*
X674487D02*
D03*
X484397Y798957D02*
D03*
X664534Y588848D02*
D03*
X464331Y588895D02*
D03*
X664487Y789051D02*
D03*
X454425Y778891D02*
D03*
X674487D02*
D03*
X474491Y798957D02*
D03*
X654534Y578848D02*
D03*
X454425Y598895D02*
D03*
X674534Y598848D02*
D03*
X654487Y798957D02*
D03*
X664534Y578848D02*
D03*
X454425Y588895D02*
D03*
X674534Y588848D02*
D03*
X664487Y798957D02*
D03*
X464331Y578895D02*
D03*
X454425Y789051D02*
D03*
X674487D02*
D03*
X464331Y798957D02*
D03*
X454425Y578895D02*
D03*
X674534Y578848D02*
D03*
X674487Y798957D02*
D03*
X554247Y678895D02*
D03*
X464312Y789098D02*
D03*
X564134Y799592D02*
D03*
X554482D02*
D03*
X544576D02*
D03*
X946000Y605000D02*
D03*
Y593772D02*
D03*
X941000Y620000D02*
D03*
X933000Y578000D02*
D03*
X946000Y584000D02*
D03*
X947000Y564000D02*
D03*
X946000Y554000D02*
D03*
Y534000D02*
D03*
Y524000D02*
D03*
Y464000D02*
D03*
X946768Y454232D02*
D03*
X947956Y414956D02*
D03*
X946956Y404956D02*
D03*
X946920Y391080D02*
D03*
X935000Y381000D02*
D03*
X790000Y604000D02*
D03*
X775054Y588946D02*
D03*
X774054Y578946D02*
D03*
X774244Y560244D02*
D03*
X773756Y550244D02*
D03*
X735568Y614568D02*
D03*
X722022Y590978D02*
D03*
X723000Y605000D02*
D03*
X722000Y562000D02*
D03*
X721288Y531288D02*
D03*
Y521288D02*
D03*
X609346Y508654D02*
D03*
X565888Y515112D02*
D03*
X501476Y500524D02*
D03*
X511476D02*
D03*
X397176Y500824D02*
D03*
X312358Y449358D02*
D03*
X313358Y456358D02*
D03*
X313218Y409782D02*
D03*
X297218D02*
D03*
X298218Y419782D02*
D03*
X295500Y385500D02*
D03*
X294176Y367176D02*
D03*
X272078Y330078D02*
D03*
X275500Y320500D02*
D03*
X312230Y323770D02*
D03*
X311230Y313770D02*
D03*
X380000Y194000D02*
D03*
X327000Y393000D02*
D03*
X387000Y193000D02*
D03*
X392000Y214000D02*
D03*
X378000Y216000D02*
D03*
X414000Y193000D02*
D03*
X404702Y207298D02*
D03*
X541862Y152862D02*
D03*
X551862Y153138D02*
D03*
X608410Y153410D02*
D03*
X624000Y159512D02*
D03*
X675290Y219710D02*
D03*
X685840Y236840D02*
D03*
X677926Y230074D02*
D03*
X661566Y292434D02*
D03*
Y302434D02*
D03*
X660384Y351616D02*
D03*
X660616Y361616D02*
D03*
X662854Y411146D02*
D03*
X662854Y401146D02*
D03*
X680800Y878200D02*
D03*
X667004Y890996D02*
D03*
X650428Y884428D02*
D03*
X654000Y828000D02*
D03*
X879236Y603264D02*
D03*
X894160Y591660D02*
D03*
Y581660D02*
D03*
X894542Y550458D02*
D03*
Y560458D02*
D03*
X884236Y533264D02*
D03*
X894874Y449874D02*
D03*
Y459874D02*
D03*
X893980Y406480D02*
D03*
X884392Y393108D02*
D03*
X900000Y513000D02*
D03*
X905000Y519000D02*
D03*
X514369Y588895D02*
D03*
X767000Y518000D02*
D03*
X761000Y523000D02*
D03*
X634534Y588848D02*
D03*
X776000Y505000D02*
D03*
X893000Y495000D02*
D03*
X907998Y498999D02*
D03*
X898000Y477000D02*
D03*
X943000Y503000D02*
D03*
X356000Y204000D02*
D03*
Y211000D02*
D03*
X381000Y314000D02*
D03*
X368000Y213000D02*
D03*
X396000Y295000D02*
D03*
X393000Y285000D02*
D03*
X385000Y289000D02*
D03*
X354000Y273000D02*
D03*
X355000Y229000D02*
D03*
X327000Y198000D02*
D03*
X457000Y459000D02*
D03*
X484397Y578895D02*
D03*
X474491D02*
D03*
X544341Y608895D02*
D03*
X554454Y598848D02*
D03*
X544341Y598895D02*
D03*
X534435Y608895D02*
D03*
X618250Y399750D02*
D03*
X904250Y397750D02*
D03*
X656750Y392000D02*
D03*
X721500Y553750D02*
D03*
X579750Y490250D02*
D03*
X616750Y489500D02*
D03*
X580000Y508250D02*
D03*
X906250Y408750D02*
D03*
X729000Y490000D02*
D03*
X849250Y491250D02*
D03*
X904250Y430000D02*
D03*
X387176Y500824D02*
D03*
X764000Y419000D02*
D03*
X646250Y328000D02*
D03*
X503775Y458772D02*
D03*
X429250Y456000D02*
D03*
X814500Y533750D02*
D03*
X826540Y528526D02*
D03*
X818250Y490750D02*
D03*
X521500Y489000D02*
D03*
X721076Y403924D02*
D03*
X720076Y413924D02*
D03*
X728250Y397000D02*
D03*
X839500Y443250D02*
D03*
X818500Y472250D02*
D03*
X530250Y442000D02*
D03*
X529750Y454000D02*
D03*
X523000Y449000D02*
D03*
X518750Y459500D02*
D03*
X762538Y508646D02*
D03*
X817114Y436570D02*
D03*
X905250Y437250D02*
D03*
X896000Y429000D02*
D03*
X890544Y434750D02*
D03*
X878000Y433240D02*
D03*
X906750Y423000D02*
D03*
X900250Y419250D02*
D03*
X439000Y628750D02*
D03*
X769538Y431021D02*
D03*
X774538Y448522D02*
D03*
Y458522D02*
D03*
X762500Y448500D02*
D03*
X824000Y416000D02*
D03*
X850000Y414500D02*
D03*
X893794Y416270D02*
D03*
X905750Y544500D02*
D03*
X762500Y574250D02*
D03*
X821750Y561000D02*
D03*
X847500Y577250D02*
D03*
X847541Y567528D02*
D03*
X840750Y565500D02*
D03*
X789000Y558000D02*
D03*
X768750Y555250D02*
D03*
X762000Y545750D02*
D03*
X879000Y554250D02*
D03*
X772288Y539026D02*
D03*
X781038Y540776D02*
D03*
X788750Y536500D02*
D03*
X844750Y550750D02*
D03*
X901000Y534500D02*
D03*
X893250D02*
D03*
X539000Y261000D02*
D03*
X537250Y235500D02*
D03*
X572000Y300750D02*
D03*
X673533Y546527D02*
D03*
X668750Y533750D02*
D03*
X665750Y546750D02*
D03*
X670250Y447500D02*
D03*
X669000Y500250D02*
D03*
X661282Y496524D02*
D03*
X577000Y319500D02*
D03*
X616530Y532526D02*
D03*
X649500Y202250D02*
D03*
X774250Y484000D02*
D03*
X697000Y388250D02*
D03*
X667250Y390500D02*
D03*
X720422Y460422D02*
D03*
X721578Y450422D02*
D03*
X721174Y381826D02*
D03*
X497500Y223750D02*
D03*
X880543Y481773D02*
D03*
X848500Y434750D02*
D03*
X833750Y406500D02*
D03*
X771000Y400750D02*
D03*
X788108Y393108D02*
D03*
X817500Y401000D02*
D03*
X648750Y278000D02*
D03*
X789038Y466773D02*
D03*
X828250Y477000D02*
D03*
X672250Y396500D02*
D03*
X533500Y218000D02*
D03*
X513775Y213010D02*
D03*
X905000Y389000D02*
D03*
X604500Y329500D02*
D03*
X619750Y318283D02*
D03*
X729500Y473500D02*
D03*
X734500Y468750D02*
D03*
X763250Y438750D02*
D03*
X537000Y254000D02*
D03*
X769000Y479500D02*
D03*
X762283Y481750D02*
D03*
X885043Y509525D02*
D03*
X825540D02*
D03*
X786038D02*
D03*
X907750Y467750D02*
D03*
X905750Y485250D02*
D03*
X938854Y488104D02*
D03*
X891500Y523500D02*
D03*
X446250Y457750D02*
D03*
X719500Y434250D02*
D03*
X620000Y416000D02*
D03*
X695250Y434750D02*
D03*
X783000Y373250D02*
D03*
X522000Y235500D02*
D03*
X543500Y248000D02*
D03*
X389750Y361750D02*
D03*
X381250Y376500D02*
D03*
X328000Y302000D02*
D03*
X882250Y498750D02*
D03*
X831750Y440500D02*
D03*
X702284Y422521D02*
D03*
X845994Y111256D02*
D03*
X813000Y111500D02*
D03*
X861314Y101686D02*
D03*
X895250Y94250D02*
D03*
X881000Y103000D02*
D03*
X896000Y102750D02*
D03*
X912918Y136332D02*
D03*
X931634Y198134D02*
D03*
X922500Y215000D02*
D03*
X932180Y127180D02*
D03*
X939680Y117820D02*
D03*
X919680Y250320D02*
D03*
X910320Y240320D02*
D03*
X880320Y249680D02*
D03*
X890320Y240320D02*
D03*
X830060Y238440D02*
D03*
X836354Y230396D02*
D03*
X797250Y196196D02*
D03*
X796554Y186196D02*
D03*
X835464Y181036D02*
D03*
X795780Y165970D02*
D03*
X796000Y155970D02*
D03*
X810500Y149000D02*
D03*
X742250Y167000D02*
D03*
X300000Y56750D02*
D03*
X320000Y56250D02*
D03*
X128750Y273750D02*
D03*
X128500Y317500D02*
D03*
X130000Y230500D02*
D03*
X126250Y211750D02*
D03*
X266000Y245500D02*
D03*
X518160Y125590D02*
D03*
X360000Y158250D02*
D03*
X163750Y92500D02*
D03*
Y100500D02*
D03*
X198892Y36892D02*
D03*
X207500Y76976D02*
D03*
X215000Y92250D02*
D03*
X206250Y112282D02*
D03*
X223250Y113750D02*
D03*
X206864Y123364D02*
D03*
X65716Y140716D02*
D03*
X77734Y131766D02*
D03*
X76210Y62040D02*
D03*
X85640Y68860D02*
D03*
X125000Y28000D02*
D03*
X135750Y28500D02*
D03*
X537250Y119750D02*
D03*
X190692Y149192D02*
D03*
X273512Y174262D02*
D03*
X172250Y45000D02*
D03*
X171700Y30000D02*
D03*
X149408Y35908D02*
D03*
X127172Y157828D02*
D03*
X180096Y150596D02*
D03*
X264500Y164000D02*
D03*
X206386Y133364D02*
D03*
X806958Y807250D02*
D03*
X922078Y846328D02*
D03*
X735000Y952500D02*
D03*
Y900000D02*
D03*
Y880000D02*
D03*
Y827500D02*
D03*
X775000Y787500D02*
D03*
X822500D02*
D03*
X850000D02*
D03*
X900000D02*
D03*
X940000Y827500D02*
D03*
X939546Y926476D02*
D03*
X900000Y992500D02*
D03*
X850000D02*
D03*
X825000D02*
D03*
X775000D02*
D03*
X765000Y962500D02*
D03*
X800000D02*
D03*
X832500D02*
D03*
X765000Y935000D02*
D03*
X800000D02*
D03*
X832500D02*
D03*
X765000Y907500D02*
D03*
X800000D02*
D03*
X765000Y815000D02*
D03*
X870000Y832500D02*
D03*
X920000Y812500D02*
D03*
X922500Y962500D02*
D03*
X940000Y952500D02*
D03*
Y900000D02*
D03*
Y880000D02*
D03*
X870000Y962500D02*
D03*
X705000Y912500D02*
D03*
Y880000D02*
D03*
X702500Y925000D02*
D03*
X702500Y982500D02*
D03*
X707500Y963388D02*
D03*
X715000Y852500D02*
D03*
Y840000D02*
D03*
X242500Y807500D02*
D03*
X247000Y847000D02*
D03*
X272000D02*
D03*
X275000Y781000D02*
D03*
X268312Y718312D02*
D03*
X281940Y714310D02*
D03*
X260500Y749000D02*
D03*
X353750Y816250D02*
D03*
X301694Y763444D02*
D03*
X315806Y763444D02*
D03*
X302000Y773000D02*
D03*
X371250Y717500D02*
D03*
X316000Y731000D02*
D03*
X207500Y625750D02*
D03*
X232250Y636250D02*
D03*
X236178Y650822D02*
D03*
X186750Y636250D02*
D03*
X204500Y649000D02*
D03*
X303000Y730750D02*
D03*
X234366Y620693D02*
D03*
X120900Y501650D02*
D03*
X148336Y484086D02*
D03*
X136106Y433606D02*
D03*
X144750Y406250D02*
D03*
X162178Y412322D02*
D03*
X134250Y404500D02*
D03*
X94250Y454250D02*
D03*
X298022Y637250D02*
D03*
X325750Y781000D02*
D03*
X323500Y773750D02*
D03*
X519709Y817857D02*
D03*
X534670Y799258D02*
D03*
X524510Y748872D02*
D03*
X514604Y718900D02*
D03*
X474552Y678942D02*
D03*
X454486Y668782D02*
D03*
X688750Y649000D02*
D03*
X221500Y488500D02*
D03*
X216800Y415450D02*
D03*
X201250Y404000D02*
D03*
X380750Y509750D02*
D03*
X401250Y516750D02*
D03*
X380500Y491230D02*
D03*
X318230D02*
D03*
X318250Y524500D02*
D03*
X268386Y522114D02*
D03*
X269402Y497348D02*
D03*
X420250Y288250D02*
D03*
X500000Y294750D02*
D03*
X329750Y223250D02*
D03*
X377500Y233750D02*
D03*
X532750Y409750D02*
D03*
X245850Y428150D02*
D03*
X767250Y290750D02*
D03*
X766750Y319750D02*
D03*
X709250Y336250D02*
D03*
X930522Y684022D02*
D03*
Y658272D02*
D03*
X931272Y633272D02*
D03*
X794000Y87000D02*
D03*
X942394Y721106D02*
D03*
X913250Y740000D02*
D03*
X837041Y710535D02*
D03*
X704500Y991250D02*
D03*
X760500Y832750D02*
D03*
X717750Y653500D02*
D03*
X714098Y668098D02*
D03*
X720500Y675750D02*
D03*
X696750Y688890D02*
D03*
X445522Y603779D02*
D03*
X369750Y612250D02*
D03*
X514750Y768750D02*
D03*
X524500Y768750D02*
D03*
X564500Y669250D02*
D03*
X884500Y643750D02*
D03*
X446024Y763524D02*
D03*
X341500Y676500D02*
D03*
X683000Y677750D02*
D03*
X684750Y689750D02*
D03*
X524500Y163750D02*
D03*
X650250Y376566D02*
D03*
X618500Y363750D02*
D03*
X529500Y196750D02*
D03*
X180250Y176500D02*
D03*
X268013Y415520D02*
D03*
X318500Y439750D02*
D03*
X321750Y426750D02*
D03*
X269500Y428000D02*
D03*
X268250Y442250D02*
D03*
X320000Y370000D02*
D03*
X601250Y195000D02*
D03*
X614500Y246000D02*
D03*
X620030Y215760D02*
D03*
X150500Y149000D02*
D03*
X380500Y414000D02*
D03*
X245750Y387000D02*
D03*
X381000Y405500D02*
D03*
X252750Y379750D02*
D03*
X395500Y48000D02*
D03*
X716750Y392750D02*
D03*
X661750Y382000D02*
D03*
X692750Y484250D02*
D03*
X317500Y516250D02*
D03*
X359250Y591000D02*
D03*
X502500Y209000D02*
D03*
X395750Y429000D02*
D03*
X501525Y410020D02*
D03*
X509750Y410000D02*
D03*
X390250Y434000D02*
D03*
X381269Y438521D02*
D03*
X479023Y438771D02*
D03*
X317265Y387519D02*
D03*
X327500Y586500D02*
D03*
X340750Y506000D02*
D03*
X324766Y489524D02*
D03*
X329000Y472750D02*
D03*
X269000Y486750D02*
D03*
X394000Y454250D02*
D03*
X506500Y404000D02*
D03*
X619000Y423000D02*
D03*
X490750Y428750D02*
D03*
X779500Y84000D02*
D03*
X835250Y626750D02*
D03*
X843500Y691250D02*
D03*
X881750Y665750D02*
D03*
X732250Y333250D02*
D03*
X754750Y270500D02*
D03*
X777250Y396250D02*
D03*
X747250Y339250D02*
D03*
X707750Y272250D02*
D03*
X692250Y634250D02*
D03*
X693750Y613250D02*
D03*
X459750Y141250D02*
D03*
X419000Y80750D02*
D03*
X473523Y97255D02*
D03*
X469250Y87000D02*
D03*
X458000Y101000D02*
D03*
X447272Y87254D02*
D03*
X434500Y87500D02*
D03*
X446250Y99250D02*
D03*
X593500Y416250D02*
D03*
X568750Y427000D02*
D03*
X544026Y406270D02*
D03*
X559750Y442000D02*
D03*
X561000Y449000D02*
D03*
X537527Y404973D02*
D03*
X257750Y295750D02*
D03*
X258000Y313000D02*
D03*
X315000Y305000D02*
D03*
X326000Y291000D02*
D03*
X277000Y306750D02*
D03*
X445500Y242250D02*
D03*
X264750Y265250D02*
D03*
X395250Y394750D02*
D03*
X425750Y401750D02*
D03*
X392250Y402000D02*
D03*
X379820Y426213D02*
D03*
X396500Y422250D02*
D03*
X581750Y433250D02*
D03*
X555500Y403750D02*
D03*
X459250Y334750D02*
D03*
X663136Y448430D02*
D03*
X221000Y267500D02*
D03*
X782750Y40000D02*
D03*
X168250Y375250D02*
D03*
X822000Y31500D02*
D03*
X425000Y391500D02*
D03*
X360000Y401000D02*
D03*
X460000Y418750D02*
D03*
X480500Y301750D02*
D03*
X502250Y266750D02*
D03*
X420250Y419000D02*
D03*
X382750Y342250D02*
D03*
X418500Y406500D02*
D03*
X617250Y448750D02*
D03*
X392750Y339250D02*
D03*
X421500Y384250D02*
D03*
X420250Y374250D02*
D03*
X618500Y372500D02*
D03*
X648000Y443500D02*
D03*
X645531Y420250D02*
D03*
X614500Y343000D02*
D03*
X619750Y356000D02*
D03*
X653500Y335250D02*
D03*
X906000Y145250D02*
D03*
X735386Y238250D02*
D03*
X756000Y336250D02*
D03*
X769000Y374250D02*
D03*
X739500Y371750D02*
D03*
X759968Y241750D02*
D03*
X801250Y297500D02*
D03*
X823468Y320032D02*
D03*
X696750Y337750D02*
D03*
X682648Y308102D02*
D03*
X711000Y319750D02*
D03*
X716250Y297500D02*
D03*
X730500Y298000D02*
D03*
X714250Y370750D02*
D03*
X573000Y214000D02*
D03*
X568250Y219250D02*
D03*
X560500Y221500D02*
D03*
X519000Y208500D02*
D03*
X779750Y75500D02*
D03*
X862250Y200750D02*
D03*
X694250Y280250D02*
D03*
X854000Y197750D02*
D03*
X846000Y200500D02*
D03*
X931084Y174334D02*
D03*
X938000Y151250D02*
D03*
X619250Y236000D02*
D03*
X579750Y293500D02*
D03*
X577778Y285514D02*
D03*
X589000Y260500D02*
D03*
X594750Y267250D02*
D03*
X582750Y281294D02*
D03*
X268763Y80254D02*
D03*
X494750Y326500D02*
D03*
X537000Y372750D02*
D03*
X527750Y373000D02*
D03*
X519250D02*
D03*
X510500Y372750D02*
D03*
X555000Y369500D02*
D03*
X560000Y364250D02*
D03*
X240000Y92000D02*
D03*
X302765Y194760D02*
D03*
X104982Y527000D02*
D03*
X136984Y445516D02*
D03*
X864000Y643250D02*
D03*
X598250Y273500D02*
D03*
X481000Y196500D02*
D03*
X691750Y175750D02*
D03*
X672500Y416000D02*
D03*
X702250Y887500D02*
D03*
X701448Y894198D02*
D03*
X701250Y900750D02*
D03*
X295950Y453550D02*
D03*
X658000Y212750D02*
D03*
X702250Y823500D02*
D03*
X159008Y404270D02*
D03*
X675500Y356750D02*
D03*
X775038Y406270D02*
D03*
X775726Y417274D02*
D03*
X788500Y437500D02*
D03*
X378750Y165750D02*
D03*
X423750Y450250D02*
D03*
X108500Y358750D02*
D03*
X772908Y860908D02*
D03*
X320688Y160750D02*
D03*
X317288Y167750D02*
D03*
X165792Y113750D02*
D03*
X770486Y769206D02*
D03*
X812074Y772250D02*
D03*
X642791Y257852D02*
D03*
X646532Y263763D02*
D03*
X803500Y105250D02*
D03*
X851041Y77504D02*
D03*
X210760Y46752D02*
D03*
X250512Y66753D02*
D03*
X881354Y152862D02*
D03*
X841351Y205677D02*
D03*
X842297Y190849D02*
D03*
X771731Y156058D02*
D03*
X125162Y22533D02*
D03*
X791716Y196229D02*
D03*
X610000Y84750D02*
D03*
X610000Y20000D02*
D03*
X595000Y55000D02*
D03*
D56*
X117458Y417472D02*
D03*
Y423472D02*
D03*
Y429472D02*
D03*
X111458Y429472D02*
D03*
Y423472D02*
D03*
Y417472D02*
D03*
X99458Y417472D02*
D03*
Y423472D02*
D03*
Y429472D02*
D03*
X105458Y429472D02*
D03*
Y423472D02*
D03*
Y417472D02*
D03*
X357584Y759056D02*
D03*
Y753056D02*
D03*
Y747056D02*
D03*
X363584Y747056D02*
D03*
Y753056D02*
D03*
Y759056D02*
D03*
X351584Y759056D02*
D03*
Y753056D02*
D03*
Y747056D02*
D03*
X345584Y747056D02*
D03*
Y753056D02*
D03*
Y759056D02*
D03*
X235092Y544552D02*
D03*
Y550552D02*
D03*
Y556552D02*
D03*
X229092Y556552D02*
D03*
Y550552D02*
D03*
Y544552D02*
D03*
X241092Y544552D02*
D03*
Y550552D02*
D03*
Y556552D02*
D03*
X247092Y556552D02*
D03*
Y550552D02*
D03*
Y544552D02*
D03*
X235092Y562552D02*
D03*
Y568552D02*
D03*
Y574552D02*
D03*
X229092Y574552D02*
D03*
Y568552D02*
D03*
Y562552D02*
D03*
X241092Y562552D02*
D03*
Y568552D02*
D03*
Y574552D02*
D03*
X247092Y574552D02*
D03*
Y568552D02*
D03*
Y562552D02*
D03*
X292342Y598302D02*
D03*
Y604302D02*
D03*
X286342Y604302D02*
D03*
Y598302D02*
D03*
X298342Y598302D02*
D03*
Y604302D02*
D03*
X304342Y604302D02*
D03*
Y598302D02*
D03*
X247092Y580552D02*
D03*
Y586552D02*
D03*
Y592552D02*
D03*
X241092Y592552D02*
D03*
Y586552D02*
D03*
Y580552D02*
D03*
X229092Y580552D02*
D03*
Y586552D02*
D03*
Y592552D02*
D03*
X235092Y592552D02*
D03*
Y586552D02*
D03*
Y580552D02*
D03*
D66*
X362084Y799556D02*
Y804916D01*
D67*
X299842Y611841D02*
Y613918D01*
X554247Y678895D02*
X554501D01*
X559454Y683848D01*
D68*
X459534Y583848D02*
D03*
X469534D02*
D03*
X479534D02*
D03*
X489534D02*
D03*
X499534D02*
D03*
X509534D02*
D03*
X519534D02*
D03*
X529534D02*
D03*
X539534D02*
D03*
X549534D02*
D03*
X559534D02*
D03*
X569534D02*
D03*
X579534D02*
D03*
X589534D02*
D03*
X599534D02*
D03*
X609534D02*
D03*
X619534D02*
D03*
X629534D02*
D03*
X639534D02*
D03*
X649534D02*
D03*
X659534D02*
D03*
X669534D02*
D03*
X459534Y593848D02*
D03*
X469534D02*
D03*
X479534D02*
D03*
X489534D02*
D03*
X499534D02*
D03*
X509534D02*
D03*
X519534D02*
D03*
X529534D02*
D03*
X539534D02*
D03*
X549534D02*
D03*
X559534D02*
D03*
X569534D02*
D03*
X579534D02*
D03*
X589534D02*
D03*
X599534D02*
D03*
X609534D02*
D03*
X619534D02*
D03*
X629534D02*
D03*
X639534D02*
D03*
X649534D02*
D03*
X659534D02*
D03*
X669534D02*
D03*
X459534Y603848D02*
D03*
X469534D02*
D03*
X479534D02*
D03*
X489534D02*
D03*
X499534D02*
D03*
X509534D02*
D03*
X519534D02*
D03*
X529534D02*
D03*
X539534D02*
D03*
X549534D02*
D03*
X559534D02*
D03*
X569534D02*
D03*
X579534D02*
D03*
X589534D02*
D03*
X599534D02*
D03*
X609534D02*
D03*
X619534D02*
D03*
X629534D02*
D03*
X639534D02*
D03*
X649534D02*
D03*
X659534D02*
D03*
X669534D02*
D03*
X459534Y613848D02*
D03*
X469534D02*
D03*
X479534D02*
D03*
X489534D02*
D03*
X499534D02*
D03*
X509534D02*
D03*
X519534D02*
D03*
X529534D02*
D03*
X539534D02*
D03*
X549534D02*
D03*
X559534D02*
D03*
X569534D02*
D03*
X579534D02*
D03*
X589534D02*
D03*
X599534D02*
D03*
X609534D02*
D03*
X619534D02*
D03*
X629534D02*
D03*
X639534D02*
D03*
X649534D02*
D03*
X659534D02*
D03*
X669534D02*
D03*
X459534Y623848D02*
D03*
X469534D02*
D03*
X479534D02*
D03*
X489534D02*
D03*
X499534D02*
D03*
X509534D02*
D03*
X519534D02*
D03*
X529534D02*
D03*
X539534D02*
D03*
X549534D02*
D03*
X559534D02*
D03*
X569534D02*
D03*
X579534D02*
D03*
X589534D02*
D03*
X599534D02*
D03*
X609534D02*
D03*
X619534D02*
D03*
X629534D02*
D03*
X639534D02*
D03*
X649534D02*
D03*
X659534D02*
D03*
X669534D02*
D03*
X459534Y633848D02*
D03*
X469534D02*
D03*
X479534D02*
D03*
X489534D02*
D03*
X499534D02*
D03*
X509534D02*
D03*
X519534D02*
D03*
X529534D02*
D03*
X539534D02*
D03*
X549534D02*
D03*
X559534D02*
D03*
X569534D02*
D03*
X579534D02*
D03*
X589534D02*
D03*
X599534D02*
D03*
X609534D02*
D03*
X619534D02*
D03*
X629534D02*
D03*
X639534D02*
D03*
X649534D02*
D03*
X659534D02*
D03*
X669534D02*
D03*
X459534Y643848D02*
D03*
X469534D02*
D03*
X479534D02*
D03*
X489534D02*
D03*
X499534D02*
D03*
X509534D02*
D03*
X519534D02*
D03*
X529534D02*
D03*
X539534D02*
D03*
X549534D02*
D03*
X559534D02*
D03*
X569534D02*
D03*
X579534D02*
D03*
X589534D02*
D03*
X599534D02*
D03*
X609534D02*
D03*
X619534D02*
D03*
X629534D02*
D03*
X639534D02*
D03*
X649534D02*
D03*
X659534D02*
D03*
X669534D02*
D03*
X459534Y653848D02*
D03*
X469534D02*
D03*
X479534D02*
D03*
X489534D02*
D03*
X499534D02*
D03*
X509534D02*
D03*
X519534D02*
D03*
X529534D02*
D03*
X539534D02*
D03*
X549534D02*
D03*
X559534D02*
D03*
X569534D02*
D03*
X579534D02*
D03*
X589534D02*
D03*
X599534D02*
D03*
X609534D02*
D03*
X619534D02*
D03*
X629534D02*
D03*
X639534D02*
D03*
X649534D02*
D03*
X659534D02*
D03*
X669534D02*
D03*
X459534Y663848D02*
D03*
X469534D02*
D03*
X479534D02*
D03*
X489534D02*
D03*
X499534D02*
D03*
X509534D02*
D03*
X519534D02*
D03*
X529534D02*
D03*
X539534D02*
D03*
X549534D02*
D03*
X559534D02*
D03*
X569534D02*
D03*
X579534D02*
D03*
X589534D02*
D03*
X599534D02*
D03*
X609534D02*
D03*
X619534D02*
D03*
X629534D02*
D03*
X639534D02*
D03*
X649534D02*
D03*
X659534D02*
D03*
X669534D02*
D03*
X459534Y673848D02*
D03*
X469534D02*
D03*
X479534D02*
D03*
X489534D02*
D03*
X499534D02*
D03*
X509534D02*
D03*
X519534D02*
D03*
X529534D02*
D03*
X539534D02*
D03*
X549534D02*
D03*
X559534D02*
D03*
X569534D02*
D03*
X579534D02*
D03*
X589534D02*
D03*
X599534D02*
D03*
X609534D02*
D03*
X619534D02*
D03*
X629534D02*
D03*
X639534D02*
D03*
X649534D02*
D03*
X659534D02*
D03*
X669534D02*
D03*
X459534Y683848D02*
D03*
X469534D02*
D03*
X479534D02*
D03*
X489534D02*
D03*
X499534D02*
D03*
X509534D02*
D03*
X519534D02*
D03*
X529534D02*
D03*
X539534D02*
D03*
X549534D02*
D03*
X559534D02*
D03*
X569534D02*
D03*
X579534D02*
D03*
X589534D02*
D03*
X599534D02*
D03*
X609534D02*
D03*
X619534D02*
D03*
X629534D02*
D03*
X639534D02*
D03*
X649534D02*
D03*
X659534D02*
D03*
X669534D02*
D03*
X459534Y693848D02*
D03*
X469534D02*
D03*
X479534D02*
D03*
X489534D02*
D03*
X499534D02*
D03*
X509534D02*
D03*
X519534D02*
D03*
X529534D02*
D03*
X539534D02*
D03*
X549534D02*
D03*
X559534D02*
D03*
X569534D02*
D03*
X579534D02*
D03*
X589534D02*
D03*
X599534D02*
D03*
X609534D02*
D03*
X619534D02*
D03*
X629534D02*
D03*
X639534D02*
D03*
X649534D02*
D03*
X659534D02*
D03*
X669534D02*
D03*
X459534Y703848D02*
D03*
X469534D02*
D03*
X479534D02*
D03*
X489534D02*
D03*
X499534D02*
D03*
X509534D02*
D03*
X519534D02*
D03*
X529534D02*
D03*
X539534D02*
D03*
X549534D02*
D03*
X559534D02*
D03*
X569534D02*
D03*
X579534D02*
D03*
X589534D02*
D03*
X599534D02*
D03*
X609534D02*
D03*
X619534D02*
D03*
X629534D02*
D03*
X639534D02*
D03*
X649534D02*
D03*
X659534D02*
D03*
X669534D02*
D03*
X459534Y713848D02*
D03*
X469534D02*
D03*
X479534D02*
D03*
X489534D02*
D03*
X499534D02*
D03*
X509534D02*
D03*
X519534D02*
D03*
X529534D02*
D03*
X539534D02*
D03*
X549534D02*
D03*
X559534D02*
D03*
X569534D02*
D03*
X579534D02*
D03*
X589534D02*
D03*
X599534D02*
D03*
X609534D02*
D03*
X619534D02*
D03*
X629534D02*
D03*
X639534D02*
D03*
X649534D02*
D03*
X659534D02*
D03*
X669534D02*
D03*
X459534Y723848D02*
D03*
X469534D02*
D03*
X479534D02*
D03*
X489534D02*
D03*
X499534D02*
D03*
X509534D02*
D03*
X519534D02*
D03*
X529534D02*
D03*
X539534D02*
D03*
X549534D02*
D03*
X559534D02*
D03*
X569534D02*
D03*
X579534D02*
D03*
X589534D02*
D03*
X599534D02*
D03*
X609534D02*
D03*
X619534D02*
D03*
X629534D02*
D03*
X639534D02*
D03*
X649534D02*
D03*
X659534D02*
D03*
X669534D02*
D03*
X459534Y733848D02*
D03*
X469534D02*
D03*
X479534D02*
D03*
X489534D02*
D03*
X499534D02*
D03*
X509534D02*
D03*
X519534D02*
D03*
X529534D02*
D03*
X539534D02*
D03*
X549534D02*
D03*
X559534D02*
D03*
X569534D02*
D03*
X579534D02*
D03*
X589534D02*
D03*
X599534D02*
D03*
X609534D02*
D03*
X619534D02*
D03*
X629534D02*
D03*
X639534D02*
D03*
X649534D02*
D03*
X659534D02*
D03*
X669534D02*
D03*
X459534Y743848D02*
D03*
X469534D02*
D03*
X479534D02*
D03*
X489534D02*
D03*
X499534D02*
D03*
X509534D02*
D03*
X519534D02*
D03*
X529534D02*
D03*
X539534D02*
D03*
X549534D02*
D03*
X559534D02*
D03*
X569534D02*
D03*
X579534D02*
D03*
X589534D02*
D03*
X599534D02*
D03*
X609534D02*
D03*
X619534D02*
D03*
X629534D02*
D03*
X639534D02*
D03*
X649534D02*
D03*
X659534D02*
D03*
X669534D02*
D03*
X459534Y753848D02*
D03*
X469534D02*
D03*
X479534D02*
D03*
X489534D02*
D03*
X499534D02*
D03*
X509534D02*
D03*
X519534D02*
D03*
X529534D02*
D03*
X539534D02*
D03*
X549534D02*
D03*
X559534D02*
D03*
X569534D02*
D03*
X579534D02*
D03*
X589534D02*
D03*
X599534D02*
D03*
X609534D02*
D03*
X619534D02*
D03*
X629534D02*
D03*
X639534D02*
D03*
X649534D02*
D03*
X659534D02*
D03*
X669534D02*
D03*
X459534Y763848D02*
D03*
X469534D02*
D03*
X479534D02*
D03*
X489534D02*
D03*
X499534D02*
D03*
X509534D02*
D03*
X519534D02*
D03*
X529534D02*
D03*
X539534D02*
D03*
X549534D02*
D03*
X559534D02*
D03*
X569534D02*
D03*
X579534D02*
D03*
X589534D02*
D03*
X599534D02*
D03*
X609534D02*
D03*
X619534D02*
D03*
X629534D02*
D03*
X639534D02*
D03*
X649534D02*
D03*
X659534D02*
D03*
X669534D02*
D03*
X459534Y773848D02*
D03*
X469534D02*
D03*
X479534D02*
D03*
X489534D02*
D03*
X499534D02*
D03*
X509534D02*
D03*
X519534D02*
D03*
X529534D02*
D03*
X539534D02*
D03*
X549534D02*
D03*
X559534D02*
D03*
X569534D02*
D03*
X579534D02*
D03*
X589534D02*
D03*
X599534D02*
D03*
X609534D02*
D03*
X619534D02*
D03*
X629534D02*
D03*
X639534D02*
D03*
X649534D02*
D03*
X659534D02*
D03*
X669534D02*
D03*
X459534Y783848D02*
D03*
X469534D02*
D03*
X479534D02*
D03*
X489534D02*
D03*
X499534D02*
D03*
X509534D02*
D03*
X519534D02*
D03*
X529534D02*
D03*
X539534D02*
D03*
X549534D02*
D03*
X559534D02*
D03*
X569534D02*
D03*
X579534D02*
D03*
X589534D02*
D03*
X599534D02*
D03*
X609534D02*
D03*
X619534D02*
D03*
X629534D02*
D03*
X639534D02*
D03*
X649534D02*
D03*
X659534D02*
D03*
X669534D02*
D03*
X459534Y793848D02*
D03*
X469534D02*
D03*
X479534D02*
D03*
X489534D02*
D03*
X499534D02*
D03*
X509534D02*
D03*
X519534D02*
D03*
X529534D02*
D03*
X539534D02*
D03*
X549534D02*
D03*
X559534D02*
D03*
X569534D02*
D03*
X579534D02*
D03*
X589534D02*
D03*
X599534D02*
D03*
X609534D02*
D03*
X619534D02*
D03*
X629534D02*
D03*
X639534D02*
D03*
X649534D02*
D03*
X659534D02*
D03*
X669534D02*
D03*
D69*
X359418Y178636D02*
D03*
X364418D02*
D03*
X369418D02*
D03*
X374418D02*
D03*
X379418D02*
D03*
X384418D02*
D03*
X389418D02*
D03*
X394418D02*
D03*
X399418D02*
D03*
X404418D02*
D03*
X409418D02*
D03*
X414418D02*
D03*
X419418D02*
D03*
X424418D02*
D03*
X429418D02*
D03*
X434418D02*
D03*
X439418D02*
D03*
X444418D02*
D03*
X449418D02*
D03*
X454418D02*
D03*
X459418D02*
D03*
X464418D02*
D03*
X469418D02*
D03*
X474418D02*
D03*
X479418D02*
D03*
X484418D02*
D03*
X489418D02*
D03*
X494418D02*
D03*
X499418D02*
D03*
X504418D02*
D03*
X509418D02*
D03*
X514418D02*
D03*
X519418D02*
D03*
X524418D02*
D03*
X529418D02*
D03*
X534418D02*
D03*
X539418D02*
D03*
X544418D02*
D03*
X549418D02*
D03*
X554418D02*
D03*
X559418D02*
D03*
X564418D02*
D03*
X569418D02*
D03*
X574418D02*
D03*
X579418D02*
D03*
X584418D02*
D03*
X589418D02*
D03*
X594418D02*
D03*
X599418D02*
D03*
X604418D02*
D03*
X609418D02*
D03*
X614418D02*
D03*
Y473636D02*
D03*
X609418D02*
D03*
X604418D02*
D03*
X599418D02*
D03*
X594418D02*
D03*
X589418D02*
D03*
X584418D02*
D03*
X579418D02*
D03*
X574418D02*
D03*
X569418D02*
D03*
X564418D02*
D03*
X559418D02*
D03*
X554418D02*
D03*
X549418D02*
D03*
X544418D02*
D03*
X539418D02*
D03*
X534418D02*
D03*
X529418D02*
D03*
X524418D02*
D03*
X519418D02*
D03*
X514418D02*
D03*
X509418D02*
D03*
X504418D02*
D03*
X499418D02*
D03*
X494418D02*
D03*
X489418D02*
D03*
X484418D02*
D03*
X479418D02*
D03*
X474418D02*
D03*
X469418D02*
D03*
X464418D02*
D03*
X459418D02*
D03*
X454418D02*
D03*
X449418D02*
D03*
X444418D02*
D03*
X439418D02*
D03*
X434418D02*
D03*
X429418D02*
D03*
X424418D02*
D03*
X419418D02*
D03*
X414418D02*
D03*
X409418D02*
D03*
X404418D02*
D03*
X399418D02*
D03*
X394418D02*
D03*
X389418D02*
D03*
X384418D02*
D03*
X379418D02*
D03*
X374418D02*
D03*
X369418D02*
D03*
X364418D02*
D03*
X359418D02*
D03*
D70*
X883158Y851408D02*
D03*
X821436D02*
D03*
D71*
X677926Y250840D02*
D03*
Y236840D02*
D03*
X659638D02*
D03*
Y250840D02*
D03*
D72*
X543672Y496824D02*
D03*
X557672D02*
D03*
Y515112D02*
D03*
X543672D02*
D03*
X484266Y142494D02*
D03*
X470266D02*
D03*
D73*
X396240Y596168D02*
D03*
Y568168D02*
D03*
D74*
X63978Y331470D02*
D03*
X91978D02*
D03*
X428528Y842772D02*
D03*
X400528D02*
D03*
D75*
X121158Y376972D02*
D03*
X116078D02*
D03*
X110998D02*
D03*
X105958D02*
D03*
X100958D02*
D03*
X95958D02*
D03*
Y445008D02*
D03*
X100958D02*
D03*
X105958D02*
D03*
X110998D02*
D03*
X116078D02*
D03*
X121158D02*
D03*
X341884Y731520D02*
D03*
X346964D02*
D03*
X352044D02*
D03*
X357084D02*
D03*
X362084D02*
D03*
X367084D02*
D03*
Y799556D02*
D03*
X362084D02*
D03*
X357084D02*
D03*
X352044D02*
D03*
X346964D02*
D03*
X341884D02*
D03*
X304842Y535802D02*
D03*
X299842D02*
D03*
X294842D02*
D03*
X289842D02*
D03*
X284842D02*
D03*
X279842D02*
D03*
X274842D02*
D03*
X269842D02*
D03*
X264842D02*
D03*
X259842D02*
D03*
X254762D02*
D03*
X249682D02*
D03*
X244602D02*
D03*
X239776D02*
D03*
X234696D02*
D03*
X229616D02*
D03*
X224790D02*
D03*
X219710D02*
D03*
X214630D02*
D03*
Y613918D02*
D03*
X219710D02*
D03*
X224790D02*
D03*
X229616D02*
D03*
X234696D02*
D03*
X239776D02*
D03*
X244602D02*
D03*
X249682D02*
D03*
X254762D02*
D03*
X259842D02*
D03*
X264842D02*
D03*
X269842D02*
D03*
X274842D02*
D03*
X279842D02*
D03*
X284842D02*
D03*
X289842D02*
D03*
X294842D02*
D03*
X299842D02*
D03*
X304842D02*
D03*
D76*
X89458Y380972D02*
D03*
Y385972D02*
D03*
Y390972D02*
D03*
Y395972D02*
D03*
Y400972D02*
D03*
Y405972D02*
D03*
Y410972D02*
D03*
Y416052D02*
D03*
Y421132D02*
D03*
Y426212D02*
D03*
Y431038D02*
D03*
Y436118D02*
D03*
Y441198D02*
D03*
X127508D02*
D03*
Y436118D02*
D03*
Y431038D02*
D03*
Y426212D02*
D03*
Y421132D02*
D03*
Y416052D02*
D03*
Y410972D02*
D03*
Y405972D02*
D03*
Y400972D02*
D03*
Y395972D02*
D03*
Y390972D02*
D03*
Y385972D02*
D03*
Y380972D02*
D03*
X335534Y795556D02*
D03*
Y790556D02*
D03*
Y785556D02*
D03*
Y780556D02*
D03*
Y775556D02*
D03*
Y770556D02*
D03*
Y765556D02*
D03*
Y760476D02*
D03*
Y755396D02*
D03*
Y750316D02*
D03*
Y745490D02*
D03*
Y740410D02*
D03*
Y735330D02*
D03*
X373584D02*
D03*
Y740410D02*
D03*
Y745490D02*
D03*
Y750316D02*
D03*
Y755396D02*
D03*
Y760476D02*
D03*
Y765556D02*
D03*
Y770556D02*
D03*
Y775556D02*
D03*
Y780556D02*
D03*
Y785556D02*
D03*
Y790556D02*
D03*
Y795556D02*
D03*
X314842Y609854D02*
D03*
Y605028D02*
D03*
Y599948D02*
D03*
Y594868D02*
D03*
Y590042D02*
D03*
Y584962D02*
D03*
Y579882D02*
D03*
Y574802D02*
D03*
Y569802D02*
D03*
Y564802D02*
D03*
Y559802D02*
D03*
Y554802D02*
D03*
Y549802D02*
D03*
Y544802D02*
D03*
Y539802D02*
D03*
X204724D02*
D03*
Y544802D02*
D03*
Y549802D02*
D03*
Y554802D02*
D03*
Y559802D02*
D03*
Y564802D02*
D03*
Y569802D02*
D03*
Y574802D02*
D03*
Y579882D02*
D03*
Y584962D02*
D03*
Y590042D02*
D03*
Y594868D02*
D03*
Y599948D02*
D03*
Y605028D02*
D03*
Y609854D02*
D03*
D77*
X108458Y423572D02*
D03*
X354584Y752956D02*
D03*
D78*
X222758Y846328D02*
D03*
Y833628D02*
D03*
Y820928D02*
D03*
Y808228D02*
D03*
Y795528D02*
D03*
Y782828D02*
D03*
Y770128D02*
D03*
Y757428D02*
D03*
Y744728D02*
D03*
Y732028D02*
D03*
Y719328D02*
D03*
D79*
X127508Y782828D02*
D03*
D80*
X238092Y568552D02*
D03*
D81*
X295342Y601302D02*
D03*
D82*
X668782Y859614D02*
D03*
Y834136D02*
D03*
X691006Y859614D02*
D03*
Y834136D02*
D03*
D83*
X760184Y860908D02*
D03*
Y841908D02*
D03*
X787184D02*
D03*
Y851408D02*
D03*
D84*
Y860908D02*
D03*
D85*
X785368Y334358D02*
D03*
X798068D02*
D03*
X810768D02*
D03*
X823468D02*
D03*
Y280256D02*
D03*
X810768D02*
D03*
X798068D02*
D03*
X785368D02*
D03*
D86*
X940816Y981340D02*
D03*
X735700D02*
D03*
Y799154D02*
D03*
X940816D02*
D03*
D87*
X929386Y992770D02*
D03*
X747200D02*
D03*
Y787654D02*
D03*
X929386D02*
D03*
D88*
X875792Y992770D02*
D03*
Y787654D02*
D03*
X800700D02*
D03*
Y992770D02*
D03*
D89*
X940816Y927746D02*
D03*
Y852654D02*
D03*
X735700D02*
D03*
Y927746D02*
D03*
D90*
X80102Y358648D02*
X90250D01*
M02*
