G04 Layer_Physical_Order=3*
G04 Layer_Color=36540*
%FSLAX44Y44*%
%MOMM*%
G71*
G01*
G75*
%ADD13C,1.0000*%
%ADD42C,0.3000*%
%ADD43C,0.1500*%
%ADD46C,0.2000*%
%ADD47C,0.1640*%
%ADD49C,1.5000*%
%ADD50R,1.5000X1.5000*%
%ADD51R,1.5000X1.5000*%
%ADD53O,2.0000X4.5000*%
%ADD54O,4.5000X2.0000*%
%ADD55C,0.5000*%
%ADD56C,0.6000*%
G36*
X342730Y956092D02*
X348557Y954334D01*
X348672Y954269D01*
X348988Y954027D01*
X349358Y953874D01*
Y921005D01*
X343239Y917028D01*
X337666Y915726D01*
X310833Y942559D01*
X311454Y954402D01*
X317054Y956092D01*
X324217Y956213D01*
X326098Y955694D01*
X327281Y955203D01*
X329892Y954860D01*
X332503Y955203D01*
X333686Y955694D01*
X335567Y956213D01*
X342730Y956092D01*
D02*
G37*
G36*
X1010061Y980061D02*
X1010061Y815327D01*
X1010061Y-148061D01*
X980052Y-178052D01*
X788614D01*
X785901Y-174394D01*
X782363Y-166851D01*
X782348Y-166052D01*
X782527Y-164695D01*
X782527Y-164694D01*
X782269Y-162737D01*
X782188Y-162540D01*
X781084Y-155534D01*
X782269Y-151594D01*
X782269Y-151594D01*
X782527Y-149636D01*
X782527Y-149636D01*
X782269Y-147678D01*
X781514Y-145854D01*
X781513Y-145853D01*
X780311Y-144287D01*
X780311Y-144287D01*
X778745Y-143085D01*
X776920Y-142329D01*
X775979Y-142205D01*
X774962Y-142071D01*
X774021Y-142195D01*
X773004Y-142329D01*
X771180Y-143085D01*
X771180D01*
X769613Y-144287D01*
X769613D01*
X768411Y-145853D01*
X768411Y-145854D01*
X767655Y-147678D01*
X767655Y-147678D01*
X767398Y-149636D01*
X767397Y-149636D01*
X767655Y-151594D01*
Y-151594D01*
X767655Y-151594D01*
X768840Y-155534D01*
X767737Y-162540D01*
X767655Y-162737D01*
X767398Y-164694D01*
X767397Y-164695D01*
X767576Y-166052D01*
X767562Y-166851D01*
X764023Y-174394D01*
X761311Y-178052D01*
X741431D01*
X738227Y-174159D01*
X734835Y-167504D01*
X734676Y-166052D01*
X734815Y-165000D01*
X734557Y-163042D01*
X733801Y-161218D01*
X733801Y-161217D01*
X732634Y-159055D01*
X732831Y-155669D01*
X734051Y-153783D01*
X734051Y-153782D01*
Y-153782D01*
X734807Y-151958D01*
X734807Y-151958D01*
X735065Y-150000D01*
X735065Y-150000D01*
X734807Y-148042D01*
X734807Y-148042D01*
X734444Y-147165D01*
X734444Y-147165D01*
X734051Y-146218D01*
X734051Y-146218D01*
X733474Y-145465D01*
X733473Y-145465D01*
X732849Y-144651D01*
X732656Y-144503D01*
X731282Y-143449D01*
X730574Y-143155D01*
X729458Y-142693D01*
X728517Y-142569D01*
X727500Y-142435D01*
X726559Y-142559D01*
X725542Y-142693D01*
X724949Y-142939D01*
X723718Y-143449D01*
X722965Y-144026D01*
X722965Y-144027D01*
X722151Y-144651D01*
X721573Y-145404D01*
X721573Y-145404D01*
X720949Y-146218D01*
X720949Y-146218D01*
X720586Y-147094D01*
X720585Y-147094D01*
X720193Y-148042D01*
X720193Y-148042D01*
X719935Y-150000D01*
X719935Y-150000D01*
X720193Y-151958D01*
X720193Y-151958D01*
X720949Y-153782D01*
X720949Y-153782D01*
X720949Y-153783D01*
X722116Y-155945D01*
X721919Y-159331D01*
X720699Y-161217D01*
X720699Y-161218D01*
X719943Y-163042D01*
X719685Y-165000D01*
X719824Y-166052D01*
X719665Y-167504D01*
X716273Y-174159D01*
X713069Y-178052D01*
X59991D01*
X30000Y-148061D01*
Y-80000D01*
X235392D01*
Y-90500D01*
X235822Y-93763D01*
X237081Y-96804D01*
X237550Y-97415D01*
X246232Y-88732D01*
X248000Y-90500D01*
X249768Y-88732D01*
X258450Y-97415D01*
X258919Y-96804D01*
X260178Y-93763D01*
X260608Y-90500D01*
Y-65500D01*
X260178Y-62237D01*
X258919Y-59196D01*
X258450Y-58585D01*
X249768Y-67268D01*
X246232Y-63732D01*
X254914Y-55050D01*
X254304Y-54581D01*
X251263Y-53322D01*
X248000Y-52892D01*
X240855Y-44284D01*
X240000Y-42295D01*
Y-15000D01*
X100000D01*
X65000Y20000D01*
Y46062D01*
X66932Y48514D01*
X76210Y54475D01*
X77151Y54599D01*
X78168Y54733D01*
X78168Y54733D01*
X79045Y55096D01*
Y55096D01*
X79992Y55489D01*
X79992Y55489D01*
X80745Y56066D01*
Y56067D01*
X81559Y56691D01*
X81559Y56691D01*
X82137Y57444D01*
D01*
X82761Y58258D01*
Y58258D01*
X83125Y59134D01*
Y59135D01*
X83517Y60082D01*
X83517Y60082D01*
X83641Y61023D01*
X83641Y61023D01*
X83775Y62040D01*
X83651Y62981D01*
X83651Y62981D01*
X83517Y63998D01*
X83517Y63998D01*
X83154Y64875D01*
Y64875D01*
X82761Y65822D01*
Y65822D01*
X82184Y66575D01*
X82184Y66575D01*
X81559Y67389D01*
Y67389D01*
X80806Y67967D01*
X80806Y67967D01*
X79992Y68591D01*
X79992Y68591D01*
X79116Y68954D01*
X79116Y68955D01*
X78168Y69347D01*
X78168Y69347D01*
X77227Y69471D01*
X77227D01*
X76210Y69605D01*
X66932Y75566D01*
X65000Y78018D01*
Y100500D01*
Y117035D01*
X69039Y120726D01*
X74598Y123806D01*
X77000Y124298D01*
X77734Y124201D01*
X77734Y124201D01*
X78675Y124325D01*
X79692Y124459D01*
X79692Y124459D01*
X81516Y125215D01*
X81516Y125215D01*
X83083Y126417D01*
X83083Y126417D01*
X84285Y127984D01*
Y127984D01*
X85041Y129808D01*
X85165Y130749D01*
X85299Y131766D01*
X85175Y132707D01*
Y132707D01*
X85041Y133724D01*
X85041Y133724D01*
X84285Y135548D01*
Y135548D01*
X83083Y137115D01*
Y137115D01*
X81517Y138317D01*
X81516Y138317D01*
X79692Y139073D01*
X79692Y139073D01*
X77734Y139331D01*
X74907Y140210D01*
X73023Y142674D01*
X72267Y144498D01*
Y144498D01*
X71065Y146065D01*
Y146065D01*
X69498Y147267D01*
Y147267D01*
X67674Y148023D01*
Y148023D01*
X65716Y148281D01*
X65000Y148909D01*
X65000Y846328D01*
X115000D01*
X115000Y990000D01*
X55000D01*
Y1010052D01*
X264527D01*
X268179Y1003077D01*
X269249Y998052D01*
X268173Y996650D01*
X266914Y993609D01*
X266484Y990346D01*
X266914Y987083D01*
X268173Y984042D01*
X270177Y980492D01*
Y974800D01*
X268173Y971250D01*
X266914Y968209D01*
X266484Y964946D01*
X266914Y961683D01*
X268173Y958642D01*
X270177Y956031D01*
X272788Y954027D01*
X273158Y953874D01*
Y905408D01*
X273610Y903137D01*
X274896Y901212D01*
X395624Y780484D01*
X395624Y780484D01*
X397549Y779198D01*
X399820Y778746D01*
X399820Y778746D01*
X406782D01*
X409053Y779198D01*
X410978Y780484D01*
X413630Y783136D01*
X426948D01*
X428164Y781750D01*
X428507Y779139D01*
X429515Y776707D01*
X431118Y774618D01*
X433207Y773015D01*
X435639Y772007D01*
X438250Y771664D01*
X442951Y769206D01*
X445536Y765741D01*
X447532Y761782D01*
X447118Y760783D01*
X446860Y758825D01*
X446959Y758079D01*
X446074Y755825D01*
X442211Y750426D01*
X438294Y748893D01*
X438036Y748849D01*
X426702Y755183D01*
X426086Y758250D01*
X425743Y760860D01*
Y760861D01*
X424735Y763293D01*
X423132Y765382D01*
X421043Y766985D01*
X418610Y767993D01*
X416000Y768336D01*
X413390Y767993D01*
X410957Y766985D01*
X408868Y765382D01*
X407265Y763293D01*
X406258Y760861D01*
X405914Y758250D01*
X406257Y755639D01*
X406258Y755639D01*
X407265Y753207D01*
X408868Y751118D01*
X410957Y749515D01*
X412894Y748712D01*
X413390Y748507D01*
X413390Y748507D01*
X413390Y748507D01*
X416000Y748164D01*
X417697Y748294D01*
X418996Y748318D01*
X420148Y748299D01*
X425944Y747515D01*
X427218Y746996D01*
X428618Y743709D01*
X429914Y737250D01*
X430257Y734640D01*
Y734640D01*
X431265Y732207D01*
X432868Y730118D01*
X433292Y729793D01*
X435874Y722776D01*
X436452Y719162D01*
X436050Y715580D01*
X431855Y711385D01*
X428250Y708585D01*
X422936Y706541D01*
X418250Y706086D01*
X415639Y705743D01*
X413207Y704735D01*
X411118Y703132D01*
X409515Y701043D01*
X408507Y698611D01*
X400889Y690743D01*
X398457Y689735D01*
X396368Y688132D01*
X394765Y686043D01*
X393758Y683611D01*
X393757Y683611D01*
X393414Y681000D01*
X393741Y678515D01*
X392814Y677896D01*
X392814Y677895D01*
X270105Y555186D01*
X268834Y553284D01*
X268387Y551041D01*
Y529680D01*
X268386Y529679D01*
X266428Y529421D01*
X266428Y529421D01*
X264604Y528665D01*
X264604Y528665D01*
X263037Y527463D01*
Y527463D01*
X261835Y525896D01*
X261835Y525896D01*
X261079Y524072D01*
X260821Y522114D01*
X260821Y522114D01*
X261079Y520156D01*
X261079Y520156D01*
X261835Y518332D01*
X261835Y518332D01*
X263037Y516765D01*
X263037Y516765D01*
X264371Y515741D01*
X265249Y507414D01*
X264558Y503085D01*
X264053Y502697D01*
Y502697D01*
X262851Y501130D01*
X262095Y499306D01*
X261837Y497348D01*
X262095Y495390D01*
X262095Y495390D01*
X262851Y493566D01*
X262851Y493566D01*
X263699Y492461D01*
X263651Y492099D01*
X262449Y490532D01*
X262449Y490532D01*
X261693Y488708D01*
X261693Y488708D01*
X261435Y486750D01*
X261435Y486750D01*
X261693Y484792D01*
X262449Y482968D01*
X262449Y482968D01*
X263651Y481401D01*
Y481401D01*
X265218Y480199D01*
X265218Y480199D01*
X267042Y479443D01*
X267042Y479443D01*
X268387Y479266D01*
Y449935D01*
X268250Y449815D01*
X266292Y449557D01*
X266292Y449557D01*
X264468Y448801D01*
Y448801D01*
X262901Y447599D01*
Y447599D01*
X261699Y446032D01*
X261699Y446032D01*
X261699Y446032D01*
X260943Y444208D01*
X260685Y442250D01*
X260685Y442250D01*
X260943Y440292D01*
X251199Y433499D01*
X249632Y434701D01*
X249632D01*
X247808Y435457D01*
X247808Y435457D01*
X246867Y435581D01*
X245850Y435715D01*
X245850Y435715D01*
X244909Y435591D01*
X244909Y435591D01*
X243892Y435457D01*
X243892D01*
X242068Y434701D01*
X242068Y434701D01*
X241254Y434077D01*
Y434077D01*
X240501Y433499D01*
X239299Y431932D01*
X238543Y430108D01*
X238419Y429167D01*
X238419Y429167D01*
X238285Y428150D01*
X238409Y427209D01*
Y427209D01*
X238543Y426192D01*
X239299Y424368D01*
Y424368D01*
X240501Y422801D01*
X240501Y422801D01*
X242068Y421599D01*
X242068Y421599D01*
X243892Y420843D01*
X243892Y420843D01*
X244833Y420719D01*
X244833Y420719D01*
X245850Y420585D01*
X245850Y420585D01*
X246791Y420709D01*
X246791Y420709D01*
X247808Y420843D01*
X247808Y420843D01*
X249620Y421594D01*
X255349Y419467D01*
X260471Y415352D01*
X260706Y413562D01*
X260706Y413562D01*
X261462Y411738D01*
X261462Y411738D01*
X261462Y411738D01*
X262664Y410171D01*
Y410171D01*
X264231Y408969D01*
Y408969D01*
X266055Y408213D01*
X266055Y408213D01*
X268013Y407956D01*
X268387Y407627D01*
Y397986D01*
X256968Y390002D01*
X252301Y390782D01*
X252301Y390783D01*
X251099Y392349D01*
X251099D01*
X249532Y393551D01*
X249532Y393551D01*
X247708Y394307D01*
X247708Y394307D01*
X245750Y394565D01*
X245750Y394565D01*
X243792Y394307D01*
X241968Y393551D01*
X240401Y392349D01*
X239199Y390782D01*
X238443Y388958D01*
X238443D01*
X238185Y387000D01*
X238185Y387000D01*
X238443Y385042D01*
X238443Y385042D01*
X239199Y383218D01*
X239199Y383218D01*
X240401Y381651D01*
X240401Y381651D01*
X241968Y380449D01*
X246127Y376141D01*
X246199Y375968D01*
X246199Y375967D01*
X247401Y374401D01*
X247401Y374401D01*
X248967Y373199D01*
X248968Y373199D01*
X248968Y373199D01*
X250792Y372443D01*
X250792Y372443D01*
X250792Y372443D01*
X252750Y372185D01*
X252750Y372185D01*
X252750Y372185D01*
X254708Y372443D01*
X254708Y372443D01*
X255585Y372806D01*
X256532Y373199D01*
X262764Y371542D01*
X268387Y368097D01*
Y351750D01*
X268834Y349506D01*
X270105Y347604D01*
X276887Y340822D01*
Y323130D01*
X264887Y317562D01*
X263349Y318349D01*
X263349Y318349D01*
X263349D01*
X261782Y319551D01*
X259958Y320307D01*
X259958Y320307D01*
X259958Y320307D01*
X258000Y320565D01*
X258000Y320565D01*
X256042Y320307D01*
X256042Y320307D01*
X254218Y319551D01*
X254218Y319551D01*
X253413Y318934D01*
X219611D01*
X210127Y319911D01*
X207378Y323413D01*
X206119Y326454D01*
X204115Y329065D01*
X201504Y331069D01*
X198463Y332328D01*
X195200Y332758D01*
X194300Y332639D01*
X182300Y332650D01*
X182300Y332650D01*
X157300D01*
X156387Y341497D01*
D01*
X156113Y344158D01*
X156113Y346072D01*
X171147Y361106D01*
X171147D01*
X171147Y361106D01*
Y361106D01*
X172395Y362355D01*
X173666Y364256D01*
X173666Y364257D01*
X174113Y366500D01*
X174113Y366500D01*
X174113Y368265D01*
X175040Y371494D01*
X175557Y373292D01*
X175557Y373292D01*
X175557Y373292D01*
X175815Y375250D01*
X175815Y375250D01*
X175557Y377208D01*
X175557Y377208D01*
X174801Y379032D01*
X174801Y379033D01*
X174177Y379846D01*
X173599Y380599D01*
X172032Y381801D01*
X172032D01*
X171155Y382164D01*
X170208Y382557D01*
X169267Y382681D01*
X168250Y382815D01*
X167309Y382691D01*
X166292Y382557D01*
X165415Y382194D01*
X164468Y381801D01*
X162901Y380599D01*
X161699Y379032D01*
X161699Y379032D01*
X160943Y377208D01*
X160943Y377208D01*
X160685Y375250D01*
X160685Y375250D01*
X160943Y373292D01*
X160943Y373292D01*
X161699Y371468D01*
Y371468D01*
X162387Y370570D01*
X162387Y368928D01*
X147353Y353894D01*
X146525Y353066D01*
X146104Y352645D01*
X146104Y352645D01*
X144834Y350743D01*
X144387Y348500D01*
X144387Y346735D01*
Y341482D01*
X144387Y328827D01*
X138227Y325332D01*
X132387Y323971D01*
X132282Y324051D01*
X130458Y324807D01*
X129517Y324931D01*
X128500Y325065D01*
X127885Y324984D01*
X126572Y325014D01*
X125415Y325325D01*
X124559Y325719D01*
X114485Y330957D01*
X115493Y333390D01*
X115836Y336000D01*
X115493Y338610D01*
X114485Y341043D01*
X112882Y343132D01*
X110793Y344735D01*
X108361Y345743D01*
X106301Y346014D01*
X105993Y348360D01*
X104985Y350793D01*
X103382Y352882D01*
X101293Y354485D01*
X98861Y355493D01*
X96250Y355836D01*
X93639Y355493D01*
X91207Y354485D01*
X89118Y352882D01*
X87515Y350793D01*
X86507Y348360D01*
X86164Y345750D01*
X86507Y343139D01*
X87515Y340707D01*
X89118Y338618D01*
X89391Y338408D01*
X89836Y337964D01*
X90697Y331596D01*
X90070Y324921D01*
X89368Y324382D01*
X87765Y322293D01*
X86757Y319860D01*
X86414Y317250D01*
X86757Y314639D01*
X87765Y312207D01*
X89368Y310118D01*
X91457Y308515D01*
X93890Y307507D01*
X96500Y307164D01*
X99110Y307507D01*
X101543Y308515D01*
X103632Y310118D01*
X105235Y312207D01*
X106243Y314639D01*
X118064Y314151D01*
X122293Y312675D01*
X123151Y312151D01*
X124718Y310949D01*
X126542Y310193D01*
X127483Y310069D01*
X128500Y309935D01*
X129441Y310059D01*
X130458Y310193D01*
X132282Y310949D01*
X132387Y311029D01*
X138227Y309667D01*
X144387Y306173D01*
Y253265D01*
Y244878D01*
X144387Y241265D01*
X144387Y241265D01*
X144387Y239500D01*
X144387Y239500D01*
X144834Y237257D01*
X144834Y237256D01*
X146104Y235354D01*
X147353Y234106D01*
X147353Y234106D01*
X155618Y225841D01*
X151838Y216716D01*
X151838D01*
Y191716D01*
X168048D01*
X171510Y186731D01*
X173699Y180282D01*
X172943Y178458D01*
X172943Y178458D01*
X172819Y177517D01*
X172685Y176500D01*
X172809Y175559D01*
X172943Y174542D01*
X173306Y173665D01*
X173699Y172718D01*
X174277Y171965D01*
X174901Y171151D01*
X175654Y170573D01*
X176468Y169949D01*
X176468Y169949D01*
X176765Y169826D01*
X178221Y163980D01*
X178206Y162909D01*
X176703Y157309D01*
X176314Y157147D01*
X174747Y155945D01*
X173545Y154378D01*
X173545Y154378D01*
X172789Y152554D01*
X171176Y148125D01*
X164198Y143947D01*
X163180Y144099D01*
X157807Y147042D01*
Y147042D01*
X157931Y147983D01*
X158065Y149000D01*
X158065Y149000D01*
X157941Y149941D01*
X157941Y149941D01*
X157807Y150958D01*
Y150958D01*
X157051Y152782D01*
X157051Y152782D01*
X155849Y154349D01*
X155849D01*
X154282Y155551D01*
X154282D01*
X152458Y156307D01*
X151517Y156431D01*
X151517Y156431D01*
X150500Y156565D01*
X149559Y156441D01*
X149559D01*
X148542Y156307D01*
X146718Y155551D01*
X145151Y154349D01*
X143949Y152782D01*
X143193Y150958D01*
X143193D01*
X143069Y150017D01*
Y150017D01*
X142935Y149000D01*
X142935Y149000D01*
X143059Y148059D01*
X143059Y148059D01*
X143193Y147042D01*
X143193Y147042D01*
X143949Y145218D01*
X143949Y145218D01*
X145151Y143651D01*
Y143651D01*
X146718Y142449D01*
X147337Y142109D01*
X149139Y137558D01*
X149519Y134755D01*
X149519Y134755D01*
X150178Y129893D01*
X150151Y129849D01*
X148949Y128282D01*
Y128282D01*
X148586Y127406D01*
X148586Y127405D01*
X148586Y127405D01*
X148193Y126458D01*
X148193Y126458D01*
X148069Y125517D01*
Y125517D01*
X147935Y124500D01*
X147935Y124500D01*
X148059Y123559D01*
X148193Y122542D01*
X148949Y120718D01*
Y120718D01*
X149999Y119349D01*
X150100Y118049D01*
X149778Y111024D01*
X149369Y109565D01*
X147377Y108415D01*
X143016Y106162D01*
X141458Y106807D01*
X141458Y106807D01*
X140517Y106931D01*
X139500Y107065D01*
X139500Y107065D01*
X138559Y106941D01*
X137542Y106807D01*
X137542D01*
X135718Y106051D01*
X134151Y104849D01*
X132949Y103282D01*
X132193Y101458D01*
X132069Y100517D01*
X132069Y100517D01*
X131935Y99500D01*
X132059Y98559D01*
X132193Y97542D01*
X132949Y95718D01*
X134151Y94151D01*
X135718Y92949D01*
X135718Y92949D01*
X137542Y92193D01*
X137542Y92193D01*
X138483Y92069D01*
X138483D01*
X139500Y91935D01*
X139500Y91935D01*
X140441Y92059D01*
X140441Y92059D01*
X141458Y92193D01*
X141458Y92193D01*
X143282Y92949D01*
X143282Y92949D01*
X144365Y93779D01*
X147299Y93462D01*
Y93462D01*
X150557Y93109D01*
X152327Y92554D01*
X156476Y90463D01*
X157199Y88718D01*
X157199Y88717D01*
X158401Y87151D01*
X158401D01*
X159968Y85949D01*
X161792Y85193D01*
X161792Y85193D01*
X162733Y85069D01*
X163750Y84935D01*
X163750Y84935D01*
X164691Y85059D01*
X165708Y85193D01*
X165708Y85193D01*
X167532Y85949D01*
X167532D01*
X169099Y87151D01*
X169099D01*
X170301Y88718D01*
X170301Y88718D01*
X171057Y90542D01*
X171057Y90542D01*
X171315Y92500D01*
X171315Y92500D01*
X171315Y92500D01*
X171292Y93383D01*
X171211Y96500D01*
X171315Y100500D01*
X171315Y100500D01*
X171315Y100500D01*
X171057Y102458D01*
Y102458D01*
X168457Y113338D01*
X173585Y123214D01*
X174791Y124602D01*
X177584Y127277D01*
X177764Y127447D01*
X179599Y128901D01*
X180801Y130468D01*
X180801Y130468D01*
X181557Y132292D01*
X192323Y134976D01*
X197837Y133523D01*
X199060Y131552D01*
X199079Y131406D01*
X199079Y131406D01*
X199442Y130529D01*
X199442Y130529D01*
X199835Y129582D01*
X199835Y129581D01*
X200413Y128829D01*
X200413Y128828D01*
X201037Y128015D01*
X201037D01*
X201790Y127437D01*
X201790D01*
X202604Y126813D01*
X202604D01*
X203480Y126449D01*
X203481D01*
X204428Y126057D01*
X204428Y126057D01*
X205369Y125933D01*
X205369Y125933D01*
X206386Y125799D01*
X207327Y125923D01*
X207327Y125923D01*
X208344Y126057D01*
X209221Y126420D01*
Y126420D01*
X210168Y126813D01*
X210921Y127390D01*
X210921D01*
X211735Y128015D01*
X211735D01*
X212313Y128768D01*
X212313Y128768D01*
X212937Y129581D01*
X212937Y129582D01*
X213300Y130458D01*
X213300Y130458D01*
X213693Y131406D01*
X213693Y131406D01*
X213817Y132347D01*
X213817Y132347D01*
X213951Y133364D01*
X213951Y133364D01*
X213827Y134305D01*
Y134305D01*
X213693Y135322D01*
X213693Y135322D01*
X213330Y136199D01*
X213330Y136199D01*
X212937Y137146D01*
X222531Y144178D01*
X267017Y99692D01*
X266922Y94268D01*
X265522Y88886D01*
X263822Y85916D01*
X263414Y85603D01*
X263414Y85603D01*
X262836Y84850D01*
X262212Y84036D01*
Y84036D01*
X261456Y82212D01*
X261456Y82212D01*
X261332Y81271D01*
X261332Y81271D01*
X261198Y80254D01*
X261198Y80254D01*
X261322Y79313D01*
X261322Y79313D01*
X261456Y78296D01*
X261456Y78296D01*
X261819Y77419D01*
X261819Y77419D01*
X262212Y76472D01*
X262501Y76094D01*
Y76094D01*
X263414Y74905D01*
X264167Y74327D01*
X264167Y74327D01*
X264981Y73703D01*
X265858Y73340D01*
X265858Y73339D01*
X266805Y72947D01*
X266805Y72947D01*
X267746Y72823D01*
X267746Y72823D01*
X268763Y72689D01*
X268763Y72689D01*
X269704Y72813D01*
X269704Y72813D01*
X270721Y72947D01*
X270721Y72947D01*
X271598Y73310D01*
X271598D01*
X272545Y73703D01*
X272546Y73703D01*
X273298Y74280D01*
X273298Y74280D01*
X274112Y74905D01*
X274112Y74905D01*
X274425Y75313D01*
X277395Y77013D01*
X282777Y78413D01*
X288201Y78507D01*
X292117Y74591D01*
X293174Y71683D01*
X294651Y62099D01*
X293449Y60532D01*
X293449Y60532D01*
X292693Y58708D01*
X292693Y58708D01*
X292569Y57767D01*
X292569Y57767D01*
X292435Y56750D01*
X292435Y56750D01*
X292559Y55809D01*
X292559Y55809D01*
X292693Y54792D01*
X292693Y54792D01*
X293056Y53915D01*
X293449Y52968D01*
X293449Y52968D01*
X294027Y52215D01*
X294027D01*
X294651Y51401D01*
X295404Y50823D01*
Y50823D01*
X296218Y50199D01*
X296218Y50199D01*
X297094Y49836D01*
Y49836D01*
X298042Y49443D01*
X298042Y49443D01*
X298983Y49319D01*
D01*
X300000Y49185D01*
X300000Y49185D01*
X300941Y49309D01*
X300941Y49309D01*
X301958Y49443D01*
X301958Y49443D01*
X303782Y50199D01*
X303782Y50199D01*
X303783Y50199D01*
X312807Y50782D01*
X317897Y49003D01*
X318042Y48943D01*
X318042Y48943D01*
X320000Y48685D01*
X320000Y48685D01*
X321958Y48943D01*
X321958Y48943D01*
X321958Y48943D01*
X323782Y49699D01*
X323782Y49699D01*
X323783Y49699D01*
X325349Y50901D01*
X325349D01*
X326551Y52467D01*
X326551Y52468D01*
X327307Y54292D01*
X327307Y54292D01*
X327565Y56250D01*
X328326Y57118D01*
X378606D01*
X381561Y54911D01*
X386924Y49097D01*
X387705Y47216D01*
X385878Y42453D01*
X383881Y39359D01*
X380234Y35863D01*
X356500D01*
X354257Y35416D01*
X354256Y35416D01*
X352355Y34146D01*
X346079Y27870D01*
X335064Y25492D01*
X326600Y25500D01*
X319098Y25500D01*
X301600D01*
Y500D01*
X318764D01*
X326600Y500D01*
X338600Y511D01*
X339500Y392D01*
X342763Y822D01*
X345804Y2081D01*
X349354Y4085D01*
X355046D01*
X358596Y2081D01*
X361637Y822D01*
X364900Y392D01*
X368163Y822D01*
X371204Y2081D01*
X374754Y4085D01*
X380446D01*
X383996Y2081D01*
X387037Y822D01*
X390300Y392D01*
X393563Y822D01*
X394005Y1005D01*
X404155Y-9146D01*
X406057Y-10416D01*
X408300Y-10863D01*
X517398D01*
X565822Y-59286D01*
X565822Y-59286D01*
X567724Y-60557D01*
X569968Y-61003D01*
X816068D01*
X827435Y-65000D01*
X827693Y-66958D01*
X827693Y-66958D01*
X828449Y-68782D01*
X828449Y-68782D01*
X829651Y-70349D01*
X829651D01*
X831218Y-71551D01*
X831218Y-71551D01*
X831218D01*
X833042Y-72307D01*
X833042Y-72307D01*
X833042Y-72307D01*
X835000Y-72565D01*
X835000Y-72565D01*
X836958Y-72307D01*
X836958Y-72307D01*
X838782Y-71551D01*
X838782Y-71551D01*
X840000Y-70617D01*
X841218Y-71551D01*
X843042Y-72307D01*
X845000Y-72565D01*
X846958Y-72307D01*
X848782Y-71551D01*
X850000Y-70617D01*
X851218Y-71551D01*
X853042Y-72307D01*
X855000Y-72565D01*
X856958Y-72307D01*
X858782Y-71551D01*
X860000Y-70617D01*
X861218Y-71551D01*
X861218Y-71551D01*
X863042Y-72307D01*
X863042Y-72307D01*
X865000Y-72565D01*
X865000Y-72565D01*
X866958Y-72307D01*
X866958Y-72307D01*
X866958Y-72307D01*
X868782Y-71551D01*
X868782Y-71551D01*
X868782Y-71551D01*
X870349Y-70349D01*
X870349D01*
X871551Y-68782D01*
X871551Y-68782D01*
X872307Y-66958D01*
X872307Y-66958D01*
X872565Y-65000D01*
X883932Y-61003D01*
X929429D01*
X931673Y-60557D01*
X933575Y-59286D01*
X989146Y-3715D01*
X990416Y-1813D01*
X990863Y430D01*
Y660540D01*
X990416Y662784D01*
X989146Y664686D01*
X970220Y683611D01*
X968977Y684855D01*
X968829Y685976D01*
X968829Y685976D01*
X968073Y687800D01*
X968073Y687801D01*
X966871Y689367D01*
X966871D01*
X965304Y690569D01*
X965304Y690569D01*
X963480Y691325D01*
X963480Y691325D01*
X961522Y691583D01*
X961522Y691583D01*
X959564Y691325D01*
X957740Y690569D01*
X956173Y689367D01*
X956173D01*
X954971Y687800D01*
X954971Y687800D01*
X954215Y685976D01*
X954215Y685976D01*
X953957Y684018D01*
X953957Y684018D01*
X954215Y682060D01*
X954215Y682060D01*
X954449Y681218D01*
Y681218D01*
X955476Y677518D01*
X954173Y675367D01*
X952971Y673800D01*
Y673800D01*
X952215Y671976D01*
X951957Y670018D01*
X952215Y668060D01*
X952215Y668060D01*
X952971Y666236D01*
Y666236D01*
X954173Y664669D01*
X953971Y662126D01*
X953971Y662126D01*
X953971Y662126D01*
X953215Y660302D01*
X953215Y660302D01*
X952957Y658344D01*
X952957Y658344D01*
X953215Y656386D01*
X953971Y654562D01*
Y654562D01*
X955173Y652995D01*
Y652995D01*
X955727Y652570D01*
X956396Y648290D01*
X955726Y641440D01*
X954490Y639114D01*
X954173Y638871D01*
X954173Y638871D01*
X952971Y637304D01*
X952971Y637304D01*
X952215Y635480D01*
X952215Y635480D01*
X951957Y633522D01*
X951957Y633522D01*
X951957Y633522D01*
X952215Y631564D01*
X952215Y631564D01*
X952215Y631564D01*
X952971Y629740D01*
X952971Y629740D01*
X954173Y628173D01*
X954173Y628173D01*
X955740Y626971D01*
X955740Y626971D01*
X961315Y623394D01*
X961315Y623394D01*
X960345Y617957D01*
X958182Y616127D01*
X947958Y612307D01*
X947017Y612431D01*
X947017Y612431D01*
X946000Y612565D01*
X946000Y612565D01*
X945059Y612441D01*
X945059Y612441D01*
X944042Y612307D01*
X944042Y612307D01*
X943165Y611944D01*
X942218Y611551D01*
X942218D01*
X941465Y610974D01*
X941465D01*
X940651Y610349D01*
X940651D01*
X939449Y608783D01*
X939449Y608782D01*
X938693Y606958D01*
X938693Y606958D01*
X938435Y605000D01*
X938435Y605000D01*
X938693Y603042D01*
Y600121D01*
Y595729D01*
X938435Y593772D01*
X938435Y593772D01*
X938693Y591814D01*
X938693Y591814D01*
X939449Y589990D01*
X939449Y589990D01*
X940073Y589176D01*
X940073Y589176D01*
X940651Y588423D01*
X940651D01*
X941404Y587845D01*
X941404D01*
X942218Y587221D01*
X942218D01*
X943094Y586857D01*
X944042Y586465D01*
X944042Y586465D01*
X944983Y586341D01*
X944983D01*
X946000Y586207D01*
X946000Y586207D01*
X946941Y586331D01*
X946941D01*
X947958Y586465D01*
X947958Y586465D01*
X948835Y586828D01*
X948835Y586828D01*
X949782Y587221D01*
X949782Y587221D01*
X950535Y587799D01*
X950535D01*
X951349Y588423D01*
X951349Y588423D01*
X952137Y589450D01*
X953356Y589546D01*
X964137Y585168D01*
Y578771D01*
X956214Y570053D01*
X948958Y571307D01*
X948958Y571307D01*
X948017Y571431D01*
X948017Y571431D01*
X947000Y571565D01*
X946059Y571441D01*
X945042Y571307D01*
X945042Y571307D01*
X943218Y570551D01*
X943218Y570551D01*
X941651Y569349D01*
X940449Y567782D01*
X939693Y565958D01*
X939569Y565017D01*
X939569Y565017D01*
X939435Y564000D01*
X939559Y563059D01*
X939559Y563059D01*
X939693Y562042D01*
X940449Y560218D01*
X941651Y558651D01*
Y558651D01*
X943218Y557449D01*
X943218Y557449D01*
X945042Y556693D01*
X945042Y556693D01*
X945983Y556569D01*
X947000Y556435D01*
X947000Y556435D01*
X947941Y556559D01*
X947941D01*
X948958Y556693D01*
X948958Y556693D01*
X956214Y557947D01*
X964137Y549229D01*
Y542604D01*
X958897Y540476D01*
D01*
X953356Y538226D01*
X952137Y538322D01*
X951349Y539349D01*
X949782Y540551D01*
X948905Y540914D01*
X948905Y540914D01*
X947958Y541307D01*
X947958Y541307D01*
X947017Y541431D01*
X947017Y541431D01*
X946000Y541565D01*
X946000Y541565D01*
X945059Y541441D01*
X945059Y541441D01*
X944042Y541307D01*
X944042Y541307D01*
X943165Y540944D01*
X942218Y540551D01*
X941465Y539973D01*
X940651Y539349D01*
X940073Y538596D01*
Y538596D01*
X939449Y537782D01*
X939085Y536906D01*
Y536906D01*
X938693Y535958D01*
X938569Y535017D01*
Y535017D01*
X938435Y534000D01*
X938559Y533059D01*
X938559Y533059D01*
X938693Y532042D01*
X939056Y531165D01*
X939449Y530218D01*
X940651Y528651D01*
X941404Y528073D01*
X941404Y528073D01*
X942218Y527449D01*
X943094Y527086D01*
X943094Y527085D01*
X944042Y526693D01*
X944042Y526693D01*
X944983Y526569D01*
X944983Y526569D01*
X946000Y526435D01*
X946000Y526435D01*
X946941Y526559D01*
X946941D01*
X947958Y526693D01*
X947958Y526693D01*
X948835Y527056D01*
X949782Y527449D01*
X950535Y528027D01*
X951349Y528651D01*
X952137Y529678D01*
X953356Y529774D01*
X958897Y527524D01*
D01*
X964137Y525396D01*
Y472604D01*
X958225Y470203D01*
X952961Y469549D01*
X945220Y478618D01*
X945044Y480209D01*
X946161Y486146D01*
X946281Y486956D01*
X946310Y487104D01*
X946586Y488156D01*
X949395Y498663D01*
X950307Y501042D01*
X950307D01*
X950565Y503000D01*
X950565Y503000D01*
X950441Y503941D01*
Y503941D01*
X950307Y504958D01*
X950307Y504958D01*
X949944Y505835D01*
Y505835D01*
X949944D01*
X949551Y506782D01*
X948349Y508349D01*
X948349Y508349D01*
X948349Y508349D01*
X946782Y509551D01*
X946782Y509551D01*
X944958Y510307D01*
X944958Y510307D01*
X943000Y510565D01*
X943000Y510565D01*
X941042Y510307D01*
X941042Y510307D01*
X937642Y509401D01*
X935889Y508934D01*
X933750D01*
X933750Y508934D01*
X931479Y508482D01*
X931479Y508482D01*
X929554Y507196D01*
X928041Y505683D01*
X916691Y504116D01*
X913960Y504305D01*
X911961Y509481D01*
X912307Y517042D01*
X912307Y517042D01*
X912307Y517042D01*
X912565Y519000D01*
X912565Y519000D01*
X912307Y520958D01*
X912307D01*
X911551Y522782D01*
X910349Y524349D01*
X909213Y530809D01*
X909967Y538283D01*
X911099Y539151D01*
Y539151D01*
X912301Y540718D01*
Y540718D01*
X913057Y542542D01*
X913315Y544500D01*
X913057Y546458D01*
X913057Y546458D01*
X912301Y548282D01*
X912301Y548282D01*
X911099Y549849D01*
X916909Y560517D01*
X921446Y565054D01*
X921446Y565054D01*
X922732Y566979D01*
X923184Y569250D01*
X923184Y569250D01*
Y615516D01*
X925192Y618938D01*
X929530Y623768D01*
X933229Y625965D01*
X933230Y625965D01*
X935054Y626721D01*
X935054Y626721D01*
X936621Y627923D01*
X937823Y629490D01*
X937823Y629490D01*
X938579Y631314D01*
X938703Y632255D01*
X938837Y633272D01*
X938713Y634213D01*
X938579Y635230D01*
X938579Y635230D01*
X938049Y636510D01*
X937823Y637054D01*
X936621Y638621D01*
X935183Y639724D01*
X934840Y641153D01*
X934402Y648027D01*
X935067Y652246D01*
X935871Y652923D01*
X936449Y653676D01*
X936449Y653676D01*
X937073Y654490D01*
X937437Y655367D01*
Y655367D01*
X937829Y656314D01*
X937829Y656314D01*
X937953Y657255D01*
X938087Y658272D01*
X937963Y659213D01*
X937829Y660230D01*
X937526Y660961D01*
X937466Y661107D01*
Y661107D01*
X937466Y661107D01*
X937073Y662054D01*
X937073Y662054D01*
X936785Y662430D01*
X936785Y662430D01*
X935871Y663621D01*
X934053Y665496D01*
X933066Y671147D01*
X934053Y676798D01*
X935871Y678673D01*
X936449Y679426D01*
X936449Y679426D01*
X937073Y680240D01*
X937436Y681116D01*
X937437Y681116D01*
Y681116D01*
X937829Y682064D01*
X937829Y682064D01*
X937953Y683005D01*
X938087Y684022D01*
X938087Y684022D01*
X937963Y684963D01*
X937963Y684963D01*
X937829Y685980D01*
X937829D01*
X937466Y686857D01*
X937073Y687804D01*
X937073Y687804D01*
X935871Y689371D01*
X934304Y690573D01*
X932480Y691329D01*
X931539Y691453D01*
X931539Y691453D01*
X930522Y691587D01*
X929581Y691463D01*
X929581Y691463D01*
X928564Y691329D01*
X927687Y690966D01*
X926740Y690573D01*
X925987Y689995D01*
X925173Y689371D01*
X924595Y688618D01*
X923971Y687804D01*
X923971Y687804D01*
X923608Y686928D01*
X923215Y685980D01*
X923215Y685980D01*
X923091Y685039D01*
X922957Y684022D01*
X922957Y684022D01*
X923081Y683081D01*
X923081Y683081D01*
X923215Y682064D01*
X923215Y682064D01*
X923529Y681305D01*
X923971Y680240D01*
X925173Y678673D01*
X926991Y676798D01*
X927978Y671147D01*
X926991Y665496D01*
X925173Y663621D01*
X924595Y662868D01*
X924595Y662868D01*
X923971Y662054D01*
X923608Y661178D01*
X923607Y661178D01*
X923215Y660230D01*
X923091Y659289D01*
X922957Y658272D01*
X923081Y657331D01*
X923215Y656314D01*
X923215Y656314D01*
X923578Y655437D01*
Y655437D01*
X923971Y654490D01*
X923971Y654490D01*
X925173Y652923D01*
X926611Y651820D01*
X926954Y650391D01*
X927392Y643517D01*
X926727Y639298D01*
X925923Y638621D01*
X925084Y637528D01*
X924521Y636982D01*
X923689Y636680D01*
X916667Y634136D01*
X912178Y633464D01*
X896598Y649044D01*
X888112Y657530D01*
X889013Y663685D01*
X889057Y663792D01*
X889057Y663792D01*
X889315Y665750D01*
X889315Y665750D01*
X889057Y667708D01*
X889057Y667708D01*
X888301Y669532D01*
X887099Y671099D01*
X887099D01*
X885532Y672301D01*
X885532Y672301D01*
X885532D01*
X883708Y673057D01*
X883708Y673057D01*
X881750Y673315D01*
X881750Y673315D01*
X879792Y673057D01*
X879792Y673057D01*
X877968Y672301D01*
X877968Y672301D01*
X876401Y671099D01*
X874657Y670985D01*
X855427Y690215D01*
X853145Y692497D01*
X853145D01*
X853145Y692497D01*
X850422Y696101D01*
X845920Y702803D01*
X845735Y703482D01*
X845735D01*
Y703482D01*
D01*
X844348Y712492D01*
X844348Y712493D01*
X844348Y712493D01*
X843985Y713370D01*
X843985Y713370D01*
X843592Y714317D01*
X843592Y714317D01*
X843014Y715070D01*
X843014Y715070D01*
X842390Y715884D01*
X842390D01*
X841637Y716462D01*
X841637D01*
X840823Y717086D01*
X840823D01*
X839946Y717449D01*
X839946D01*
X838999Y717842D01*
X838058Y717965D01*
X837041Y718100D01*
X836100Y717975D01*
X835083Y717842D01*
X834206Y717478D01*
X834206Y717478D01*
X833259Y717086D01*
X832505Y716508D01*
X832505D01*
X831692Y715884D01*
X831114Y715131D01*
X831114Y715131D01*
X830490Y714317D01*
X830490Y714317D01*
X830126Y713440D01*
X830126Y713440D01*
X829734Y712493D01*
X829734Y712493D01*
X829610Y711552D01*
X829610Y711552D01*
X829476Y710535D01*
X829476Y710535D01*
X829600Y709594D01*
X829600Y709594D01*
X829734Y708577D01*
X829734Y708577D01*
X830097Y707700D01*
X830097Y707700D01*
X830490Y706752D01*
Y706752D01*
X834532Y698838D01*
X836193Y689292D01*
X836193Y689292D01*
X836325Y688973D01*
X836949Y687468D01*
X836949Y687468D01*
X836949Y687467D01*
X838151Y685901D01*
Y685901D01*
X838151Y685901D01*
X839718Y684699D01*
Y684699D01*
X841542Y683943D01*
X841542Y683943D01*
X843500Y683685D01*
X843500Y683685D01*
X844978Y683880D01*
X847232Y681626D01*
X866234Y662624D01*
X865091Y656583D01*
X862042Y650557D01*
X860218Y649801D01*
X860218Y649801D01*
X858651Y648599D01*
X858651Y648599D01*
X857449Y647032D01*
X857449Y647032D01*
X856693Y645208D01*
X856693Y645208D01*
X856569Y644267D01*
X856569Y644267D01*
X856435Y643250D01*
X856435Y643250D01*
X856559Y642309D01*
X856693Y641292D01*
X857449Y639468D01*
Y639468D01*
X858651Y637901D01*
X858651Y637901D01*
X860218Y636699D01*
X860218Y636699D01*
X862042Y635943D01*
X862042Y635943D01*
X862587Y635871D01*
X862587Y635871D01*
X864000Y635685D01*
X864000Y635685D01*
X864935Y635808D01*
X864935D01*
X865958Y635943D01*
X865958D01*
X873894Y637561D01*
X874334Y637504D01*
X880044Y635905D01*
X885368Y633990D01*
X904107Y615251D01*
X904219Y614512D01*
X901759Y603175D01*
X893307Y602708D01*
X893307Y602708D01*
X892551Y604532D01*
X891349Y606099D01*
X891349Y606099D01*
X889782Y607301D01*
X889782Y607301D01*
X887958Y608057D01*
X887958Y608057D01*
X887958Y608057D01*
X886000Y608315D01*
X886000Y608315D01*
X884042Y608057D01*
X884042Y608057D01*
X882218Y607301D01*
X882218Y607301D01*
X880651Y606099D01*
X880651Y606099D01*
X880212Y605527D01*
X879343Y604946D01*
X879342D01*
X878134Y605302D01*
X875863Y605754D01*
X856228D01*
X856098Y606737D01*
X856098Y606738D01*
X855343Y608562D01*
X855342Y608562D01*
X854140Y610129D01*
X854140D01*
X852574Y611331D01*
X852574D01*
X850749Y612086D01*
X842741Y620770D01*
X842067Y622386D01*
X842557Y624792D01*
X842681Y625733D01*
X842815Y626750D01*
X842749Y627249D01*
Y627249D01*
X842557Y628708D01*
X842557Y628708D01*
X841801Y630532D01*
X841801Y630532D01*
X840599Y632099D01*
X839032Y633301D01*
X839032D01*
X837208Y634057D01*
X836267Y634181D01*
X835250Y634315D01*
X834309Y634191D01*
X833292Y634057D01*
X831468Y633301D01*
X829901Y632099D01*
X828699Y630532D01*
X827943Y628708D01*
X827819Y627767D01*
X827819Y627767D01*
X827819Y627767D01*
X827685Y626750D01*
X827685Y626750D01*
X827809Y625809D01*
X827943Y624792D01*
X827943Y624792D01*
X828699Y622968D01*
Y622968D01*
X829901Y621401D01*
Y621401D01*
X829901Y621401D01*
X831065Y618348D01*
X832295Y610934D01*
X832205Y610168D01*
X825708Y606307D01*
X825708Y606307D01*
X823750Y606565D01*
X823750Y606565D01*
X821792Y606307D01*
X819968Y605551D01*
X818401Y604349D01*
X817199Y602782D01*
X817199Y602782D01*
X816443Y600958D01*
X816443Y600958D01*
X816341Y600184D01*
X791124D01*
X788139Y602235D01*
X781684Y609250D01*
X781684Y609250D01*
Y645218D01*
X782625Y647425D01*
X787518Y653941D01*
X788226Y654261D01*
X799957Y657015D01*
X802390Y656007D01*
X805000Y655664D01*
X807610Y656007D01*
X810043Y657015D01*
X812132Y658618D01*
X813735Y660707D01*
X814743Y663139D01*
X815086Y665750D01*
X814743Y668361D01*
X813735Y670793D01*
X812132Y672882D01*
X810043Y674485D01*
X807610Y675493D01*
X806558Y675631D01*
X803501Y677329D01*
X798373Y682434D01*
X798175Y682776D01*
X798471Y685046D01*
X800890Y689257D01*
X803500Y688914D01*
X806111Y689257D01*
X808543Y690265D01*
X810632Y691868D01*
X812235Y693957D01*
X813243Y696389D01*
X813586Y699000D01*
X813243Y701610D01*
X812235Y704043D01*
X810632Y706132D01*
X808543Y707735D01*
X806111Y708743D01*
X803500Y709086D01*
X800890Y708743D01*
X798457Y707735D01*
X796368Y706132D01*
X794765Y704043D01*
X794483Y703362D01*
X794149Y703044D01*
X791176Y701261D01*
X785720Y698883D01*
X783515Y698134D01*
X781661Y697972D01*
X781610Y697993D01*
X779000Y698336D01*
X776389Y697993D01*
X773957Y696985D01*
X771868Y695382D01*
X761417Y701475D01*
X754184Y708708D01*
Y712000D01*
X754184Y712000D01*
X753732Y714271D01*
X752446Y716196D01*
X752446Y716196D01*
X736876Y731766D01*
X734951Y733052D01*
X732680Y733504D01*
X713435D01*
X711114Y733504D01*
X710930Y733611D01*
X708320Y745423D01*
X710275Y747211D01*
X711132Y747868D01*
X711132Y747868D01*
X711591Y748466D01*
X712735Y749957D01*
X713743Y752390D01*
X714086Y755000D01*
X713743Y757610D01*
X715078Y761651D01*
X717793Y763515D01*
X717793D01*
X719882Y765118D01*
X719882Y765118D01*
X719882Y765118D01*
X721485Y767207D01*
X722493Y769640D01*
X722836Y772250D01*
X722493Y774860D01*
X722493Y774861D01*
X721485Y777293D01*
X719882Y779382D01*
X717793Y780985D01*
X715361Y781992D01*
X715360Y781993D01*
X714540Y782101D01*
X714243Y784361D01*
X713235Y786793D01*
X711632Y788882D01*
X709543Y790485D01*
X707111Y791493D01*
X704500Y791836D01*
X701889Y791493D01*
X699457Y790485D01*
X697368Y788882D01*
X695765Y786793D01*
X694757Y784361D01*
X694414Y781750D01*
X694757Y779139D01*
X695765Y776707D01*
X696525Y775716D01*
X697282Y771986D01*
X697007Y763528D01*
X696266Y761348D01*
X695265Y760043D01*
X694257Y757610D01*
X693914Y755000D01*
X694257Y752390D01*
X695265Y749957D01*
X696868Y747868D01*
X696868Y747867D01*
X697128Y738602D01*
X696847Y737423D01*
X694538Y735538D01*
X687426Y736370D01*
X684755Y738552D01*
X681340Y745866D01*
X681794Y746961D01*
X682052Y748919D01*
X681794Y750877D01*
X681038Y752701D01*
X680140Y753872D01*
X681038Y755043D01*
X681794Y756867D01*
X682052Y758825D01*
X681794Y760783D01*
X681038Y762607D01*
X680042Y763905D01*
X681038Y765203D01*
X681794Y767027D01*
X682052Y768985D01*
X681794Y770943D01*
X681038Y772767D01*
X680140Y773938D01*
X681038Y775109D01*
X681794Y776933D01*
X682052Y778891D01*
X681794Y780849D01*
X681038Y782673D01*
X680042Y783971D01*
X681038Y785269D01*
X681794Y787093D01*
X682052Y789051D01*
X681794Y791009D01*
X681038Y792833D01*
X680140Y794004D01*
X681038Y795175D01*
X681038Y795175D01*
X681794Y796999D01*
X681794Y796999D01*
X682052Y798957D01*
X682052Y798957D01*
X681794Y800915D01*
X681794Y800915D01*
X681038Y802739D01*
X681038Y802739D01*
X679836Y804306D01*
X679836Y804306D01*
X679022Y804930D01*
X679022D01*
X678269Y805508D01*
X677393Y805871D01*
X676445Y806264D01*
X676445Y806264D01*
X675504Y806388D01*
X674487Y806522D01*
X674487Y806522D01*
X673546Y806398D01*
X673546D01*
X672529Y806264D01*
X672529Y806264D01*
X670705Y805508D01*
X670705D01*
X669459Y804553D01*
X668806Y804296D01*
X661096Y804072D01*
X656657Y808651D01*
X655004Y811368D01*
Y820425D01*
X655004Y820567D01*
X655958Y820693D01*
X655958Y820693D01*
X657782Y821449D01*
X657783Y821449D01*
X659349Y822651D01*
X659349Y822651D01*
X660551Y824218D01*
X660551Y824218D01*
X661307Y826042D01*
X661307Y826042D01*
X661307Y826042D01*
X661565Y828000D01*
X661565Y828000D01*
X661565Y828000D01*
X661307Y829958D01*
X661307Y829958D01*
X660944Y830835D01*
Y830835D01*
X660551Y831782D01*
X660551Y831782D01*
X659974Y832535D01*
Y832535D01*
X659349Y833349D01*
X659349Y833349D01*
X658818Y833756D01*
X657746Y834593D01*
X654910Y837812D01*
X653351Y839667D01*
X651748Y842346D01*
X649993Y845861D01*
X649637Y846720D01*
X649263Y847623D01*
X649274Y848191D01*
X649673Y850581D01*
X652183Y857478D01*
X654118Y860339D01*
X654543Y860515D01*
X656632Y862118D01*
X658235Y864207D01*
X659243Y866639D01*
X659586Y869250D01*
X666951Y874830D01*
X670329Y876131D01*
X673914Y874690D01*
X674359Y874225D01*
X675451Y872851D01*
X675451D01*
X677018Y871649D01*
X677018D01*
X678842Y870893D01*
X678842Y870893D01*
X678842Y870893D01*
X679783Y870769D01*
X679783Y870769D01*
X680800Y870635D01*
X680800Y870635D01*
X681741Y870759D01*
X681741Y870759D01*
X682758Y870893D01*
X682758Y870893D01*
X684582Y871649D01*
X684582D01*
X686149Y872851D01*
X686607Y873448D01*
X692697Y874872D01*
X696467Y875090D01*
X699651Y874651D01*
X701218Y873449D01*
X702003Y873123D01*
X703042Y872693D01*
X703042Y872693D01*
X703983Y872569D01*
X705000Y872435D01*
X705000Y872435D01*
X705941Y872559D01*
X706958Y872693D01*
X706958D01*
X708782Y873449D01*
X708783Y873449D01*
X709596Y874073D01*
X709596Y874073D01*
X710349Y874651D01*
X711551Y876218D01*
X712307Y878042D01*
X712431Y878983D01*
X712431Y878983D01*
X712565Y880000D01*
X712441Y880941D01*
X712441Y880941D01*
X712307Y881958D01*
X711551Y883782D01*
X710349Y885349D01*
X708782Y886551D01*
X706958Y887307D01*
X706958Y887307D01*
X706017Y887431D01*
X706017D01*
X705000Y887565D01*
X705000Y887565D01*
X704059Y887441D01*
X704059Y887441D01*
X703042Y887307D01*
X703042Y887307D01*
X701218Y886551D01*
X701218Y886551D01*
X699651Y885349D01*
X699193Y884752D01*
X693103Y883328D01*
X689333Y883110D01*
X686553Y883493D01*
X681083Y887834D01*
X678342Y890309D01*
X678227Y890416D01*
X674348Y895590D01*
X671808Y899851D01*
X671784Y899903D01*
X670354Y905873D01*
X669451Y909903D01*
X669470Y910340D01*
X670087Y911144D01*
X671346Y914185D01*
X671776Y917448D01*
X671346Y920711D01*
X670087Y923752D01*
X668083Y926363D01*
X665472Y928367D01*
X662431Y929626D01*
X659168Y930056D01*
X658268Y929937D01*
X646268Y929948D01*
X638767Y929948D01*
X625684D01*
Y944549D01*
X627113Y947250D01*
X633930Y954860D01*
X636540Y955203D01*
X637724Y955694D01*
X639605Y956213D01*
X646768Y956092D01*
X652595Y954334D01*
X652710Y954269D01*
X653026Y954027D01*
X656067Y952768D01*
X659330Y952338D01*
X662593Y952768D01*
X664453Y953538D01*
X667904Y954295D01*
X672030Y954782D01*
X676156Y954295D01*
X679607Y953538D01*
X681467Y952768D01*
X684730Y952338D01*
X687993Y952768D01*
X691034Y954027D01*
X693645Y956031D01*
X695649Y958642D01*
X696908Y961683D01*
X697338Y964946D01*
X697219Y965846D01*
X697230Y977846D01*
X704500Y983685D01*
X706458Y983943D01*
X706458Y983943D01*
X708282Y984699D01*
X708282Y984699D01*
X709849Y985901D01*
X709849Y985901D01*
X711051Y987468D01*
Y987468D01*
X711807Y989292D01*
X711807Y989292D01*
X711931Y990233D01*
X712065Y991250D01*
X712065Y991250D01*
X711941Y992191D01*
X711807Y993208D01*
X711807Y993208D01*
X711051Y995032D01*
Y995032D01*
X709849Y996599D01*
X709849Y996599D01*
X708282Y997801D01*
X708282Y997801D01*
X706458Y998557D01*
X708721Y1010052D01*
X980052D01*
X1010061Y980061D01*
D02*
G37*
G36*
X496017Y1003077D02*
X497087Y998052D01*
X496011Y996650D01*
X494752Y993609D01*
X494322Y990346D01*
X494752Y987083D01*
X496011Y984042D01*
X498015Y980492D01*
Y974800D01*
X496011Y971250D01*
X494752Y968209D01*
X494322Y964946D01*
X494752Y961683D01*
X494905Y961313D01*
X487734Y954142D01*
X486448Y952217D01*
X485996Y949946D01*
Y896517D01*
X473996Y891546D01*
X423861Y941681D01*
X426698Y948883D01*
X429975Y952538D01*
X431492Y952338D01*
X434755Y952768D01*
X436615Y953538D01*
X440066Y954295D01*
X444192Y954782D01*
X448318Y954295D01*
X451769Y953538D01*
X453629Y952768D01*
X456892Y952338D01*
X460155Y952768D01*
X463196Y954027D01*
X465807Y956031D01*
X467811Y958642D01*
X469070Y961683D01*
X469500Y964946D01*
X469381Y965846D01*
X469392Y977846D01*
X469392Y985348D01*
Y998052D01*
X469392Y1002846D01*
X478407Y1010052D01*
X492365D01*
X496017Y1003077D01*
D02*
G37*
G36*
X656358Y903310D02*
X657615Y900328D01*
X659743Y894180D01*
X659797Y893194D01*
X659697Y892954D01*
X659573Y892013D01*
X659439Y890996D01*
X659563Y890055D01*
X659697Y889038D01*
X660071Y888136D01*
X657616Y884418D01*
X655651Y882482D01*
X651582Y879062D01*
X649500Y879336D01*
X646889Y878993D01*
X644457Y877985D01*
X642368Y876382D01*
X640765Y874293D01*
X639757Y871861D01*
X639414Y869250D01*
X639757Y866639D01*
X633380Y862121D01*
X633076Y862141D01*
X625472Y863517D01*
X620614Y868687D01*
Y873362D01*
X623946Y876694D01*
X625232Y878619D01*
X625684Y880890D01*
Y904948D01*
X638432D01*
X646268Y904948D01*
X655107Y904956D01*
X656358Y903310D01*
D02*
G37*
G36*
X425705Y893653D02*
X430368Y882382D01*
X428765Y880293D01*
X427757Y877860D01*
X427414Y875250D01*
X427757Y872639D01*
X428765Y870207D01*
X430368Y868118D01*
X432457Y866515D01*
X434889Y865507D01*
X437500Y865164D01*
X437996Y864729D01*
Y863969D01*
X438448Y861698D01*
X439734Y859773D01*
X449466Y850041D01*
X450857Y846218D01*
X448358Y841861D01*
X435573Y838819D01*
X408504Y865888D01*
Y871180D01*
X408052Y873451D01*
X406766Y875376D01*
X361226Y920916D01*
Y941161D01*
X373226Y946132D01*
X425705Y893653D01*
D02*
G37*
G36*
X104982Y855000D02*
X55107D01*
Y622508D01*
X53837Y621860D01*
X52697Y622333D01*
X51000Y622556D01*
X49303Y622333D01*
X47722Y621678D01*
X46364Y620636D01*
X45322Y619278D01*
X44667Y617697D01*
X44444Y616000D01*
X44667Y614303D01*
X45322Y612722D01*
X46364Y611364D01*
X47722Y610322D01*
X48048Y610187D01*
Y608813D01*
X47722Y608678D01*
X46364Y607636D01*
X45322Y606278D01*
X44667Y604697D01*
X44444Y603000D01*
X44667Y601303D01*
X45322Y599722D01*
X46364Y598364D01*
X47722Y597322D01*
X49303Y596667D01*
X51000Y596444D01*
X52697Y596667D01*
X53837Y597140D01*
X55107Y596492D01*
Y555508D01*
X53837Y554860D01*
X52697Y555333D01*
X51000Y555556D01*
X49303Y555333D01*
X47722Y554678D01*
X46364Y553636D01*
X45322Y552278D01*
X44667Y550697D01*
X44444Y549000D01*
X44667Y547303D01*
X45322Y545722D01*
X46364Y544364D01*
X47186Y543733D01*
X47293Y542323D01*
X47224Y542161D01*
X46864Y541886D01*
X45822Y540528D01*
X45167Y538947D01*
X44944Y537250D01*
X45167Y535553D01*
X45822Y533972D01*
X46864Y532614D01*
X48222Y531572D01*
X49803Y530917D01*
X51500Y530694D01*
X53197Y530917D01*
X53837Y531182D01*
X55107Y530334D01*
X55107Y14930D01*
X95037Y-25000D01*
X225000D01*
X230000Y-30000D01*
Y-65000D01*
X225000Y-70000D01*
X30000D01*
Y980000D01*
X104982D01*
Y855000D01*
D02*
G37*
G36*
X964137Y455396D02*
Y413787D01*
X958923Y411311D01*
X952137Y410434D01*
X950738Y411507D01*
X950738D01*
X948914Y412263D01*
X948914Y412263D01*
X947973Y412387D01*
X947973Y412387D01*
X946956Y412521D01*
X946956Y412521D01*
X946015Y412397D01*
X946015Y412397D01*
X944998Y412263D01*
X944998Y412263D01*
X943174Y411507D01*
X943174Y411507D01*
X941607Y410305D01*
Y410305D01*
X940405Y408739D01*
X940405Y408738D01*
X939649Y406914D01*
X939649Y406914D01*
X939391Y404956D01*
X939391Y404956D01*
X939515Y404015D01*
X939515Y404015D01*
X939649Y402998D01*
X939649Y402998D01*
X940405Y401174D01*
X940405Y401174D01*
X941607Y399607D01*
X940369Y394862D01*
X939613Y393038D01*
X939613Y393038D01*
X939355Y391080D01*
X939355Y391080D01*
X939613Y389122D01*
X939613Y389122D01*
X940369Y387298D01*
X940369Y387298D01*
X940947Y386545D01*
X941571Y385731D01*
X941571Y385731D01*
X942324Y385153D01*
X943138Y384529D01*
X943138Y384529D01*
X944015Y384165D01*
Y384165D01*
X944962Y383773D01*
X944962Y383773D01*
X945903Y383649D01*
X945903D01*
X946920Y383515D01*
X946920Y383515D01*
X947861Y383639D01*
X947861D01*
X948878Y383773D01*
X948878Y383773D01*
X949755Y384136D01*
X949755D01*
X950702Y384529D01*
X950702Y384529D01*
X952137Y385630D01*
X958814Y384786D01*
X964137Y382285D01*
Y175555D01*
X953051Y170963D01*
X934082Y189932D01*
X932180Y191202D01*
X929937Y191649D01*
X879161D01*
X876190Y193858D01*
X869815Y200750D01*
X869691Y201691D01*
X869691Y201691D01*
X869557Y202708D01*
X869557Y202708D01*
X868801Y204532D01*
X868801Y204532D01*
X867599Y206099D01*
X867599Y206099D01*
X866032Y207301D01*
X864208Y208057D01*
X864208Y208057D01*
X864208Y208057D01*
X862250Y208315D01*
X862250Y208315D01*
X860292Y208057D01*
X860292Y208057D01*
X858468Y207301D01*
X858468Y207301D01*
X858467Y207301D01*
X851349Y205849D01*
X849782Y207051D01*
X849782Y207051D01*
X847958Y207807D01*
X847958Y207807D01*
X846000Y208065D01*
X846000Y208065D01*
X844042Y207807D01*
X844042Y207807D01*
X842218Y207051D01*
X840651Y205849D01*
X840651Y205849D01*
X839449Y204282D01*
X839449Y204282D01*
X838693Y202458D01*
X838693Y202458D01*
X838435Y200500D01*
X838435Y200500D01*
X838435Y200500D01*
X835690Y195579D01*
X831253Y191202D01*
X829351Y189932D01*
X829351Y189931D01*
X826728Y187309D01*
X814375D01*
X811212Y189541D01*
X805961Y195004D01*
X804557Y198154D01*
X803801Y199978D01*
Y199978D01*
X803801Y199978D01*
X802719Y201388D01*
X802599Y201545D01*
Y201545D01*
X802599Y201545D01*
X801032Y202747D01*
Y202747D01*
X801032Y202747D01*
X799208Y203503D01*
X799208Y203503D01*
X799208D01*
X797250Y203761D01*
X797250Y203761D01*
X791716Y203794D01*
X791716Y203794D01*
X791716Y203793D01*
X790393Y203619D01*
X789490Y203566D01*
X784697Y204099D01*
X773822Y208414D01*
X773714Y208506D01*
X766004Y216627D01*
X765541Y217250D01*
X764807Y218708D01*
X764444Y219585D01*
X764051Y220532D01*
X763473Y221285D01*
X762849Y222099D01*
X764553Y233321D01*
X770165Y240124D01*
X775678Y245637D01*
X777645Y247605D01*
X778916Y249506D01*
X779363Y251750D01*
Y253515D01*
X779363Y253515D01*
X779363Y265515D01*
Y312965D01*
X779363Y312966D01*
X779363Y312966D01*
Y323985D01*
X779363Y326535D01*
X779363D01*
Y337750D01*
X779219Y338475D01*
X779218Y338475D01*
X778916Y339994D01*
X778916Y339994D01*
X777645Y341895D01*
X776397Y343144D01*
X776397Y343144D01*
X771284Y348257D01*
X772753Y361546D01*
X779218Y366699D01*
X779218Y366699D01*
X781042Y365943D01*
X781042Y365943D01*
X783000Y365685D01*
X783000Y365685D01*
X784958Y365943D01*
X784958Y365943D01*
X784958Y365943D01*
X786782Y366699D01*
X788349Y367901D01*
X788349D01*
X789551Y369468D01*
X789551Y369468D01*
X790307Y371292D01*
X790307Y371292D01*
X790565Y373250D01*
X802298Y376066D01*
X859103D01*
X870905Y373780D01*
X871163Y371822D01*
X871163Y371822D01*
X871919Y369998D01*
X871919Y369997D01*
X873121Y368431D01*
X873121D01*
X874688Y367229D01*
X874688Y367229D01*
X876512Y366473D01*
X876512Y366473D01*
X877453Y366349D01*
X877453Y366349D01*
X878470Y366215D01*
X879411Y366339D01*
X880428Y366473D01*
X880428Y366473D01*
X882252Y367229D01*
X882252Y367229D01*
X883819Y368431D01*
X883819D01*
X885021Y369997D01*
X885021Y369998D01*
X885777Y371822D01*
X885777Y371822D01*
X886035Y373780D01*
X897837Y376066D01*
X898000D01*
X900271Y376518D01*
X902196Y377804D01*
X905953Y381561D01*
X906958Y381693D01*
X906958Y381693D01*
X908782Y382449D01*
X908782Y382449D01*
X910349Y383651D01*
Y383651D01*
X911551Y385218D01*
X912307Y387042D01*
X912565Y389000D01*
X912565Y389000D01*
X912307Y390958D01*
X912307Y390958D01*
X911551Y392782D01*
X911551Y392782D01*
X911551Y392782D01*
X911565Y395854D01*
X911815Y397750D01*
X911582Y399520D01*
X911599Y403401D01*
X912801Y404968D01*
X913557Y406792D01*
X913815Y408750D01*
X913780Y409010D01*
X914143Y409921D01*
X914144Y409921D01*
Y409921D01*
X915346Y411488D01*
X915346Y411488D01*
X916101Y413312D01*
X916359Y415270D01*
X916101Y417228D01*
X915346Y419053D01*
X915346Y419053D01*
X914144Y420619D01*
Y420619D01*
X913945Y420772D01*
X914057Y421042D01*
X914315Y423000D01*
X914057Y424958D01*
X913301Y426782D01*
X912099Y428349D01*
X911801Y433468D01*
X912557Y435292D01*
X912557Y435292D01*
X912815Y437250D01*
X916473Y445026D01*
X917533Y446600D01*
X920467Y449451D01*
X921075Y449572D01*
X923000Y450858D01*
X924513Y452371D01*
Y452371D01*
X928188Y456046D01*
X931036Y457101D01*
X940651Y458651D01*
X942218Y457449D01*
X942218Y457449D01*
X944042Y456693D01*
X946000Y456435D01*
X946941Y456559D01*
X947958Y456693D01*
X949782Y457449D01*
X951349Y458651D01*
X951349D01*
X952137Y459678D01*
X953356Y459774D01*
X964137Y455396D01*
D02*
G37*
G36*
X515468Y366449D02*
X517292Y365693D01*
X519250Y365435D01*
X520321Y365576D01*
X521646Y365626D01*
X526172Y364930D01*
X530208Y362977D01*
X532104Y361081D01*
X533943Y357542D01*
Y357542D01*
X533943Y357542D01*
X534699Y355718D01*
X534699Y355718D01*
X535901Y354151D01*
X535901D01*
X537467Y352949D01*
X537468Y352949D01*
X537468Y352949D01*
X539292Y352193D01*
X539292Y352193D01*
X539292Y352193D01*
X541250Y351935D01*
X541250Y351935D01*
X542191Y352059D01*
X542191Y352059D01*
X543208Y352193D01*
X543208Y352193D01*
X545032Y352949D01*
X545032Y352949D01*
X546599Y354151D01*
X554735Y357152D01*
X558042Y356943D01*
X560000Y356685D01*
X560000Y356685D01*
X561958Y356943D01*
X561958Y356943D01*
X563782Y357699D01*
X563782D01*
X565349Y358901D01*
X566623Y358984D01*
X593762Y331846D01*
X592598Y322203D01*
X590829Y320146D01*
X588498Y318322D01*
X586436Y317848D01*
X586329Y317943D01*
X584307Y321458D01*
X583551Y323282D01*
X583551Y323283D01*
X582349Y324849D01*
X582349Y324849D01*
X580782Y326051D01*
X580782Y326051D01*
X578958Y326807D01*
X578958Y326807D01*
X578017Y326931D01*
X577000Y327065D01*
X576059Y326941D01*
X575042Y326807D01*
X575042Y326807D01*
X573218Y326051D01*
X573218D01*
X571651Y324849D01*
X571651D01*
X570449Y323283D01*
X570449Y323282D01*
X569693Y321458D01*
X569693Y321458D01*
X569468Y320619D01*
X569467Y320619D01*
X568840Y318284D01*
X568840Y318284D01*
X568558Y317493D01*
X568204Y316497D01*
X566412Y312128D01*
X563978Y308111D01*
X562984Y306943D01*
X562700Y306517D01*
X561843Y305235D01*
X542668Y286060D01*
X540159Y285641D01*
X540116Y285645D01*
X528382Y288632D01*
X526293Y290235D01*
X523861Y291243D01*
X521250Y291586D01*
X518639Y291243D01*
X516207Y290235D01*
X514118Y288632D01*
X512515Y286543D01*
X511507Y284111D01*
X511437Y283575D01*
X510897Y282864D01*
X506302Y282443D01*
X495363Y292159D01*
Y296779D01*
X496935Y298229D01*
X498289Y299057D01*
X507292Y302693D01*
X509250Y302435D01*
X509250Y302435D01*
X511208Y302693D01*
X513032Y303449D01*
X514599Y304651D01*
X515801Y306218D01*
X515801Y306218D01*
X516557Y308042D01*
X516557D01*
X516815Y310000D01*
X516815Y310000D01*
X516557Y311958D01*
X516557Y311958D01*
X515801Y313782D01*
X515801Y313782D01*
X514599Y315349D01*
X514599Y315349D01*
X513032Y316551D01*
X513032Y316551D01*
X511683Y317110D01*
X510826Y318298D01*
X510826Y318298D01*
X509624Y319864D01*
X505531Y324513D01*
X501301Y330282D01*
X500099Y331849D01*
X500099Y331849D01*
X498532Y333051D01*
Y333051D01*
X496708Y333807D01*
Y333807D01*
X495613Y342282D01*
Y346217D01*
X495363Y347474D01*
Y360445D01*
X497873Y362229D01*
X508542Y365443D01*
X508542Y365443D01*
X510500Y365185D01*
X510500Y365185D01*
X512458Y365443D01*
X512458Y365443D01*
X514282Y366199D01*
X514282Y366199D01*
X515038Y366778D01*
X515468Y366449D01*
D02*
G37*
G36*
X723968Y329109D02*
X726899Y327903D01*
X726901Y327901D01*
X728468Y326699D01*
X730292Y325943D01*
X731233Y325819D01*
X732250Y325685D01*
X735350Y324246D01*
X744137Y316490D01*
X744137D01*
X744137Y316490D01*
Y263745D01*
X744137Y263745D01*
X744137Y263745D01*
X741629Y252784D01*
X734550Y245705D01*
X733428Y245557D01*
X733428Y245557D01*
X731604Y244801D01*
X731603Y244801D01*
X730037Y243599D01*
Y243599D01*
X728835Y242033D01*
X728835Y242032D01*
X728835Y242032D01*
X728079Y240208D01*
X728079Y240208D01*
X728079Y240208D01*
X727821Y238250D01*
X727821Y238250D01*
X728079Y236292D01*
X728079Y236292D01*
X728442Y235415D01*
X728442Y235415D01*
X728835Y234468D01*
X719516Y226900D01*
X699660Y246756D01*
X700990Y260630D01*
X705792Y264943D01*
X705792Y264943D01*
X707750Y264685D01*
X707750Y264685D01*
X709708Y264943D01*
X709708Y264943D01*
X711532Y265699D01*
X711532Y265699D01*
X713099Y266901D01*
X714301Y268468D01*
X715057Y270292D01*
X715181Y271233D01*
X715315Y272250D01*
X715191Y273191D01*
X715191Y273191D01*
X715057Y274208D01*
X714301Y276032D01*
Y276032D01*
X713099Y277599D01*
Y277599D01*
X711532Y278801D01*
X711532Y278801D01*
X709708Y279557D01*
X709708Y279557D01*
X707750Y279815D01*
X707750Y279815D01*
X707750Y279815D01*
X706916Y279876D01*
X706916D01*
X705066Y280012D01*
X702118Y281857D01*
X700801Y284032D01*
X700801Y284032D01*
X700801Y284032D01*
X699599Y285599D01*
X699599Y285599D01*
X698032Y286801D01*
X698032Y286801D01*
X696208Y287557D01*
X696208Y287557D01*
X695267Y287681D01*
X695267Y287681D01*
X694250Y287815D01*
X694250Y287815D01*
X693309Y287691D01*
X693309Y287691D01*
X692292Y287557D01*
X691415Y287194D01*
X691415Y287194D01*
X690468Y286801D01*
X690468D01*
X689715Y286224D01*
X688901Y285599D01*
X688901D01*
X687699Y284032D01*
X687699Y284032D01*
X686943Y282208D01*
X686943Y282208D01*
X686685Y280250D01*
X686685Y280250D01*
X686943Y278292D01*
X686943Y278292D01*
X681323Y272716D01*
X671111Y275475D01*
X669159Y276583D01*
X667580Y279670D01*
X666915Y287085D01*
X668117Y288652D01*
X668873Y290476D01*
X668997Y291417D01*
X669131Y292434D01*
X668873Y294392D01*
X668873Y294392D01*
X668117Y296216D01*
Y296216D01*
X666915Y297783D01*
Y297783D01*
X669363Y307940D01*
X670202Y309810D01*
X676384Y315993D01*
X686401Y322651D01*
X687968Y321449D01*
X687968Y321449D01*
X689792Y320693D01*
X689792Y320693D01*
X691750Y320435D01*
X691750Y320435D01*
X693708Y320693D01*
X695532Y321449D01*
X697099Y322651D01*
X697099D01*
X697100Y322651D01*
X698544Y324403D01*
X702078Y327106D01*
X705906Y328455D01*
X709250Y328685D01*
X709250Y328685D01*
X709250Y328685D01*
X711208Y328943D01*
Y328943D01*
X713032Y329699D01*
X713053Y329714D01*
X716171Y330128D01*
X723968Y329109D01*
D02*
G37*
G36*
X451442Y323804D02*
X451435Y323750D01*
X451693Y321792D01*
X452449Y319968D01*
X452527Y319866D01*
X451943Y318458D01*
X451943Y318458D01*
X451685Y316500D01*
X451685Y316500D01*
X451943Y314542D01*
X451943Y314542D01*
X452699Y312718D01*
X452699Y312717D01*
X453901Y311151D01*
X453901Y311151D01*
X453901Y311151D01*
X455467Y309949D01*
X455468Y309949D01*
X455468Y309949D01*
X457292Y309193D01*
X457292Y309193D01*
X458233Y309069D01*
X458233D01*
X459250Y308935D01*
X459250Y308935D01*
X460191Y309059D01*
X460191D01*
X461208Y309193D01*
X461208Y309193D01*
X461208Y309193D01*
X463764Y309218D01*
X472935Y301750D01*
X472935Y301750D01*
X473193Y299792D01*
X473193D01*
X473949Y297968D01*
X475151Y296401D01*
X476718Y295199D01*
Y295199D01*
X478542Y294443D01*
X478542Y294443D01*
X480500Y294185D01*
X483637Y282495D01*
Y272250D01*
X484084Y270007D01*
X485354Y268104D01*
X501637Y251822D01*
Y242600D01*
X497500Y231315D01*
X495542Y231057D01*
X495542Y231057D01*
X493718Y230301D01*
X493717Y230301D01*
X492904Y229677D01*
X492151Y229099D01*
X492151Y229099D01*
X490949Y227532D01*
X490193Y225708D01*
X490069Y224767D01*
X489935Y223750D01*
X489935Y223750D01*
X490059Y222809D01*
X490193Y221792D01*
X490193Y221792D01*
X490888Y220114D01*
X489611Y217765D01*
X484801Y209843D01*
X483276Y209679D01*
X483250Y209684D01*
X465891D01*
X405327Y270249D01*
X404520Y276331D01*
X406650Y282794D01*
X414901Y282901D01*
X414901Y282901D01*
X416468Y281699D01*
X416468Y281699D01*
X418292Y280943D01*
X418292Y280943D01*
X419233Y280819D01*
X419233Y280819D01*
X420250Y280685D01*
X420250Y280685D01*
X421191Y280809D01*
X421191Y280809D01*
X422208Y280943D01*
X424032Y281699D01*
X425599Y282901D01*
X426801Y284468D01*
X427557Y286292D01*
X427681Y287233D01*
X427681Y287233D01*
X427815Y288250D01*
X427691Y289191D01*
X427691Y289191D01*
X427557Y290208D01*
X427557Y290208D01*
X426801Y292032D01*
X426801Y292032D01*
X425599Y293599D01*
Y293599D01*
X424033Y294801D01*
X424032Y294801D01*
X426324Y306644D01*
X427113Y308172D01*
X427782Y308449D01*
X427782Y308449D01*
X429349Y309651D01*
Y309651D01*
X430551Y311218D01*
X430551Y311218D01*
Y311218D01*
X431307Y313042D01*
X431307Y313042D01*
Y313042D01*
X431565Y315000D01*
X431565Y315000D01*
X431307Y316958D01*
X431307Y316958D01*
X430551Y318782D01*
X430551Y318782D01*
X429519Y320127D01*
X440255Y330863D01*
X442252Y331193D01*
X451442Y323804D01*
D02*
G37*
G36*
X177005Y253855D02*
X178906Y252584D01*
X181150Y252137D01*
X181150Y252137D01*
X201750D01*
X203993Y252584D01*
X205896Y253855D01*
X209312Y257271D01*
X224151Y256057D01*
X247637Y232572D01*
Y227481D01*
X247295Y226491D01*
X240538Y216824D01*
X237275Y216394D01*
X234234Y215135D01*
X231623Y213131D01*
X229619Y210520D01*
X228360Y207479D01*
X227930Y204216D01*
X228360Y200953D01*
X229619Y197912D01*
X231623Y195301D01*
X234234Y193297D01*
X237275Y192038D01*
X240538Y191608D01*
X246280Y187679D01*
X248084Y184506D01*
Y184506D01*
X249354Y182605D01*
X252550Y179409D01*
X259151Y169349D01*
X257949Y167782D01*
X257949Y167782D01*
X257193Y165958D01*
X257193Y165958D01*
X256935Y164000D01*
X256935Y164000D01*
X257193Y162042D01*
X257949Y160218D01*
X259151Y158651D01*
X260718Y157449D01*
X260718Y157449D01*
X262542Y156693D01*
X262542Y156693D01*
X264500Y156435D01*
X264500Y156435D01*
X266458Y156693D01*
X266458Y156693D01*
X268282Y157449D01*
X268282Y157449D01*
X269849Y158651D01*
X279909Y152050D01*
X329237Y102722D01*
X335168Y96791D01*
X337605Y94354D01*
X337605D01*
X338971Y92988D01*
X338971D01*
X340872Y91718D01*
X340873Y91718D01*
X343116Y91271D01*
X344881Y91271D01*
Y91271D01*
X380588D01*
X383791Y86311D01*
X385672Y79271D01*
X385515Y79067D01*
X384507Y76634D01*
X384164Y74024D01*
X373190Y68844D01*
X326787D01*
Y68844D01*
X326787Y68844D01*
X322849D01*
X311903Y71388D01*
X307250Y76041D01*
X306233Y79744D01*
X305614Y88905D01*
X306816Y90472D01*
X306816Y90472D01*
X307572Y92297D01*
X307572Y92297D01*
X307696Y93238D01*
X307696Y93238D01*
X307829Y94255D01*
X307829Y94255D01*
X307705Y95196D01*
X307705Y95196D01*
X307572Y96213D01*
X307572Y96213D01*
X306816Y98037D01*
Y98037D01*
X306816Y98037D01*
X305614Y99604D01*
X305614Y99604D01*
X304047Y100806D01*
X304047Y100806D01*
X302223Y101561D01*
X302223Y101562D01*
X300265Y101819D01*
X300265Y101819D01*
X298307Y101562D01*
X298307Y101562D01*
X297990Y101431D01*
X294341Y101807D01*
X294341Y101807D01*
X292383Y102065D01*
X290425Y101807D01*
X288600Y101051D01*
X287034Y99849D01*
X287034D01*
X276916Y106375D01*
X200857Y182434D01*
X200193Y183932D01*
X198653Y195301D01*
X200657Y197912D01*
X201916Y200953D01*
X202346Y204216D01*
X201916Y207479D01*
X200657Y210520D01*
X198653Y213131D01*
X196042Y215135D01*
X193001Y216394D01*
X189738Y216824D01*
X186475Y216394D01*
X183434Y215135D01*
X182588Y215274D01*
X182228Y215813D01*
X173503Y224538D01*
X165018Y233023D01*
X157942Y240100D01*
X159595Y252486D01*
X164627Y255882D01*
X168113Y256964D01*
X169800Y256742D01*
X173063Y257172D01*
X173505Y257355D01*
X177005Y253855D01*
D02*
G37*
G36*
X404893Y245965D02*
X458554Y192304D01*
X460479Y191018D01*
X462750Y190566D01*
X476413D01*
X477218Y189949D01*
X479042Y189193D01*
X481000Y188935D01*
X482958Y189193D01*
X484782Y189949D01*
X486204Y191040D01*
X487042Y190693D01*
X487042Y190693D01*
X489000Y190435D01*
X489000Y190435D01*
X490958Y190693D01*
Y190693D01*
X492782Y191449D01*
X492782Y191449D01*
X492782Y191449D01*
X494349Y192651D01*
X502174Y193396D01*
X505136Y193028D01*
X504866Y180407D01*
X490572Y166113D01*
X449984D01*
X449807Y167458D01*
X449807Y167458D01*
X449051Y169282D01*
X449051Y169282D01*
X447849Y170849D01*
X447849D01*
X446282Y172051D01*
X446282Y172051D01*
X444458Y172807D01*
X444458Y172807D01*
X442500Y173065D01*
X440542Y172807D01*
X440542Y172807D01*
X438718Y172051D01*
X438718Y172051D01*
X437151Y170849D01*
X437151D01*
X435949Y169282D01*
X435949Y169282D01*
X435193Y167458D01*
X435193Y167458D01*
X435016Y166113D01*
X374667D01*
X372423Y165666D01*
X370521Y164396D01*
X370521Y164395D01*
X365489Y159363D01*
X341090D01*
X329754Y163882D01*
Y171846D01*
X329754Y171846D01*
X329302Y174117D01*
X328016Y176042D01*
X328016Y176042D01*
X326934Y177124D01*
Y190377D01*
X327000Y190435D01*
X328958Y190693D01*
X330782Y191449D01*
X332349Y192651D01*
X333551Y194218D01*
X334307Y196042D01*
X334439Y197047D01*
X337188Y199796D01*
X339334Y200215D01*
X341027Y200215D01*
X346552Y199709D01*
X350636Y198671D01*
X350651Y198651D01*
X350651D01*
X352218Y197449D01*
X352218Y197449D01*
X354042Y196693D01*
X356000Y196435D01*
X356000Y196435D01*
X356000Y196435D01*
X357958Y196693D01*
X357958Y196693D01*
X359782Y197449D01*
X359782Y197449D01*
X361349Y198651D01*
X361349Y198651D01*
X361606Y198986D01*
X363097Y198579D01*
X372178Y194672D01*
X372402Y194543D01*
X372481Y194348D01*
X372435Y194000D01*
X372435Y194000D01*
X372559Y193059D01*
X372693Y192042D01*
X372693D01*
X373449Y190218D01*
X373449Y190218D01*
X374651Y188651D01*
Y188651D01*
X374651Y188651D01*
X376218Y187449D01*
X376218Y187449D01*
X376218Y187449D01*
X378042Y186693D01*
X378042Y186693D01*
X384232Y185809D01*
X385042Y185693D01*
X385042Y185693D01*
X387000Y185435D01*
X387000Y185435D01*
X388958Y185693D01*
X388958Y185693D01*
X390782Y186449D01*
X390782Y186449D01*
X391596Y187073D01*
X391596Y187073D01*
X392349Y187651D01*
X393551Y189218D01*
X394307Y191042D01*
X394431Y191983D01*
X394565Y193000D01*
X394441Y193941D01*
X394307Y194958D01*
X393551Y196782D01*
Y196782D01*
X392349Y198349D01*
X392349Y198349D01*
X390782Y199551D01*
X390782Y199551D01*
X388958Y200307D01*
X388958Y200307D01*
X387000Y200565D01*
X387000Y200565D01*
X385042Y200307D01*
X385042D01*
X378875Y206747D01*
X378327Y207782D01*
X376196Y216804D01*
X377482Y218729D01*
X377934Y221000D01*
Y222177D01*
X379726Y226554D01*
X381282Y227199D01*
X381283Y227199D01*
X382849Y228401D01*
X384051Y229968D01*
Y229968D01*
X384807Y231792D01*
X384807Y231792D01*
X384807Y231792D01*
X385065Y233750D01*
Y233750D01*
X385601Y237552D01*
X386989Y240779D01*
X391849Y246151D01*
X391849Y246151D01*
X401223Y246508D01*
X404893Y245965D01*
D02*
G37*
G36*
X651322Y73355D02*
X651322Y73355D01*
X653224Y72084D01*
X655468Y71637D01*
X769000D01*
X771244Y72084D01*
X771477Y72240D01*
X773199Y71718D01*
X774401Y70151D01*
X774401D01*
X775968Y68949D01*
X777792Y68193D01*
X779750Y67935D01*
X781708Y68193D01*
X783532Y68949D01*
X783532Y68949D01*
X784755Y69887D01*
X785743Y70084D01*
X787645Y71354D01*
X791646Y75354D01*
X792916Y77256D01*
X793363Y79500D01*
X793899Y79446D01*
X794000Y79435D01*
X794000Y79435D01*
X795958Y79693D01*
X795958Y79693D01*
X797782Y80449D01*
X797783Y80449D01*
X799349Y81651D01*
Y81651D01*
X800551Y83218D01*
X800551Y83218D01*
X801307Y85042D01*
X801565Y87000D01*
X801441Y87941D01*
X801430Y88026D01*
X801307Y88958D01*
X801307Y88958D01*
X800944Y89835D01*
X800551Y90782D01*
Y90782D01*
X799349Y92349D01*
Y92349D01*
X797782Y93551D01*
X797782Y93551D01*
X795958Y94307D01*
X795958Y94307D01*
X794000Y94565D01*
X788299Y100684D01*
X787896Y101370D01*
X791817Y114187D01*
X798625Y116567D01*
X922396D01*
X939137Y99826D01*
Y68067D01*
X926933Y55863D01*
X885226D01*
X885226Y55863D01*
X882982Y55416D01*
X881080Y54145D01*
X859164Y32229D01*
X858042Y32081D01*
X858042Y32081D01*
X856218Y31325D01*
X856217Y31325D01*
X854651Y30123D01*
Y30123D01*
X853449Y28556D01*
X853449Y28556D01*
X852693Y26732D01*
X852693Y26732D01*
X852435Y24774D01*
X852693Y22816D01*
X853056Y21939D01*
X853449Y20992D01*
X854651Y19425D01*
Y19425D01*
X856218Y18223D01*
X856218Y18223D01*
X858042Y17467D01*
X858042Y17467D01*
X860000Y17209D01*
X860000Y17209D01*
X861958Y17467D01*
X861958Y17467D01*
X863782Y18223D01*
X863782Y18223D01*
X864993Y19152D01*
X866203Y18223D01*
X868027Y17467D01*
X869985Y17209D01*
X871943Y17467D01*
X873767Y18223D01*
X875307Y19404D01*
X876195Y18723D01*
X878019Y17967D01*
X879977Y17709D01*
X881935Y17967D01*
X883759Y18723D01*
X884955Y19641D01*
X886151Y18723D01*
X886152Y18723D01*
X887976Y17967D01*
X887976Y17967D01*
X889934Y17709D01*
X889934Y17709D01*
X891892Y17967D01*
X893716Y18723D01*
X895283Y19925D01*
X895283D01*
X896485Y21492D01*
X896485Y21492D01*
X897241Y23316D01*
X897241Y23316D01*
X897328Y23981D01*
X902485Y29137D01*
X944942D01*
X947186Y29584D01*
X949088Y30854D01*
X953051Y34818D01*
X964137Y30226D01*
Y17428D01*
X914214Y-32495D01*
X901870Y-31976D01*
X900234Y-29836D01*
X897601Y-21449D01*
X897712Y-21304D01*
X898971Y-18263D01*
X899401Y-15000D01*
X898971Y-11737D01*
X897712Y-8696D01*
X895708Y-6085D01*
X893097Y-4081D01*
X890056Y-2822D01*
X886793Y-2392D01*
X885893Y-2511D01*
X873893Y-2500D01*
X866392Y-2500D01*
X848893D01*
Y-21449D01*
X848893Y-27500D01*
X839357Y-33449D01*
X587016D01*
X519422Y34146D01*
X517520Y35416D01*
X515277Y35863D01*
X410766D01*
X407119Y39359D01*
X405122Y42453D01*
X403295Y47216D01*
X404076Y49097D01*
X409439Y54911D01*
X412394Y57118D01*
X545034D01*
X567491Y34662D01*
X569392Y33391D01*
X571636Y32944D01*
X571636Y32944D01*
X766936D01*
X772526Y27355D01*
X774428Y26084D01*
X776671Y25637D01*
X789112D01*
X789112Y25637D01*
Y25637D01*
X801408Y25637D01*
X817320D01*
X818218Y24949D01*
X818218D01*
X820042Y24193D01*
X820042Y24193D01*
X822000Y23935D01*
X822000Y23935D01*
X823958Y24193D01*
X823958Y24193D01*
X825782Y24949D01*
X825782Y24949D01*
X826596Y25573D01*
X827349Y26151D01*
X828551Y27718D01*
X828914Y28595D01*
X829307Y29542D01*
X829431Y30483D01*
X829565Y31500D01*
X829441Y32441D01*
X829307Y33458D01*
X828944Y34335D01*
X828551Y35282D01*
X827349Y36849D01*
X825782Y38051D01*
X825782Y38051D01*
X823958Y38807D01*
X823958Y38807D01*
X822000Y39065D01*
X822000Y39065D01*
X820042Y38807D01*
X820042Y38807D01*
X818218Y38051D01*
X818218D01*
X817320Y37363D01*
X802071D01*
X790315Y40000D01*
X790315Y40000D01*
X790057Y41958D01*
X789301Y43782D01*
X788099Y45349D01*
X786532Y46551D01*
Y46551D01*
X784708Y47307D01*
Y47307D01*
X783586Y47455D01*
X779837Y51205D01*
X777934Y52475D01*
X775691Y52922D01*
X582281D01*
X561057Y74145D01*
X559155Y75416D01*
X556911Y75863D01*
X485283D01*
X482812Y77779D01*
X481625Y79604D01*
X477305Y90703D01*
X477810Y91091D01*
X477810Y91091D01*
X478872Y91906D01*
X478872Y91906D01*
X480074Y93472D01*
X480074Y93472D01*
X480830Y95297D01*
X480830Y95297D01*
X481088Y97255D01*
X481088Y97255D01*
X480830Y99213D01*
X480830Y99213D01*
X480830Y99213D01*
X480074Y101037D01*
X480074Y101037D01*
X478872Y102604D01*
Y102604D01*
X477306Y103806D01*
X477305Y103806D01*
X475481Y104562D01*
X475481Y104562D01*
X474385Y104706D01*
X474385D01*
X473302Y104867D01*
X473302Y104867D01*
X471347Y105289D01*
X466933Y106242D01*
X463135Y107207D01*
X460987Y107882D01*
X459958Y108307D01*
X458000Y108565D01*
X458000Y108565D01*
X455541Y110348D01*
X455541Y110348D01*
X457180Y109159D01*
X454259Y111833D01*
X450487Y116200D01*
X449288Y120676D01*
X448806Y123217D01*
X448912Y123707D01*
X450486Y125796D01*
X455075Y129020D01*
X456121Y129368D01*
X456488Y129333D01*
X462137Y127972D01*
X463368Y126368D01*
X465457Y124765D01*
X467890Y123757D01*
X470500Y123414D01*
X473111Y123757D01*
X475543Y124765D01*
X477632Y126368D01*
X479235Y128457D01*
X480243Y130890D01*
X480586Y133500D01*
X485249Y139387D01*
X495463Y143698D01*
X495463Y143698D01*
X504933D01*
X508546Y143698D01*
X508546D01*
X510311Y143698D01*
X512554Y144144D01*
X514456Y145415D01*
X515704Y146663D01*
X524896Y153444D01*
X525714Y153394D01*
X528095Y152723D01*
X533184Y150848D01*
X535004Y149335D01*
X535931Y148250D01*
X536090Y148064D01*
X536513Y147513D01*
X536513Y147513D01*
X538080Y146311D01*
X538080Y146311D01*
X539904Y145555D01*
X539904Y145555D01*
X540845Y145431D01*
X540845D01*
X541862Y145297D01*
X541862Y145297D01*
X542803Y145421D01*
Y145421D01*
X543820Y145555D01*
X545644Y146311D01*
X547211Y147513D01*
X548413Y149080D01*
X549169Y150904D01*
X549169Y150904D01*
X549293Y151845D01*
X549427Y152862D01*
X549427Y152862D01*
X549303Y153803D01*
Y153803D01*
X549169Y154820D01*
X549169Y154820D01*
X548413Y156644D01*
Y156644D01*
X547211Y158211D01*
Y158211D01*
X546458Y158789D01*
X545644Y159413D01*
Y159413D01*
X539864Y161903D01*
X535700Y163727D01*
X535090Y164287D01*
X529884Y169580D01*
X527453Y172227D01*
X524389Y179346D01*
X524371Y179416D01*
X525978Y181728D01*
X541345Y183332D01*
X651322Y73355D01*
D02*
G37*
G36*
X372456Y137922D02*
X372886Y134659D01*
X374145Y131618D01*
X376149Y129007D01*
X378760Y127003D01*
X381801Y125744D01*
X385064Y125314D01*
X388327Y125744D01*
X391368Y127003D01*
X396868Y121503D01*
X394821Y108893D01*
X386961Y102997D01*
X374961Y102997D01*
X345545D01*
X316843Y131698D01*
X321814Y143698D01*
X361535D01*
X372456Y137922D01*
D02*
G37*
G36*
X635899Y132605D02*
X637801Y131334D01*
X640044Y130887D01*
X640045Y130887D01*
X672604D01*
X685021Y118471D01*
X685021Y118470D01*
X686923Y117200D01*
X689166Y116753D01*
X724892D01*
X727493Y115800D01*
X729615Y109779D01*
X721092Y97863D01*
X651928D01*
X620803Y128988D01*
X620840Y136710D01*
X624289Y142473D01*
X625841Y142662D01*
X635899Y132605D01*
D02*
G37*
G36*
X498664Y17863D02*
X492249Y5863D01*
X449159D01*
X441356Y14299D01*
X443951Y19137D01*
X497812D01*
X498664Y17863D01*
D02*
G37*
%LPC*%
G36*
X705000Y920065D02*
X704507Y920000D01*
X703042Y919807D01*
X701218Y919051D01*
X699651Y917849D01*
X698449Y916282D01*
X697693Y914458D01*
X697569Y913517D01*
X697569Y913517D01*
X697435Y912500D01*
X697559Y911559D01*
Y911559D01*
X697693Y910542D01*
X698449Y908718D01*
X699651Y907151D01*
X701218Y905949D01*
X703042Y905193D01*
X703983Y905069D01*
X705000Y904935D01*
X705941Y905059D01*
X706958Y905193D01*
X708782Y905949D01*
X710349Y907151D01*
X711551Y908718D01*
X712307Y910542D01*
X712431Y911483D01*
X712431Y911483D01*
X712565Y912500D01*
X712441Y913441D01*
Y913441D01*
X712307Y914458D01*
X711551Y916282D01*
X710349Y917849D01*
X708782Y919051D01*
X706958Y919807D01*
X706017Y919931D01*
X705000Y920065D01*
D02*
G37*
G36*
X772908Y868473D02*
X771967Y868349D01*
X771967Y868349D01*
X770950Y868215D01*
X769126Y867459D01*
X767559Y866257D01*
X766357Y864690D01*
X765601Y862866D01*
X765477Y861925D01*
X765343Y860908D01*
X765467Y859967D01*
X765601Y858950D01*
X766357Y857126D01*
X767559Y855559D01*
X769126Y854357D01*
X770950Y853601D01*
X771891Y853477D01*
X771891Y853477D01*
X772908Y853343D01*
X773849Y853467D01*
X773849D01*
X774866Y853601D01*
X776690Y854357D01*
X778257Y855559D01*
X779459Y857126D01*
X780215Y858950D01*
X780339Y859891D01*
X780473Y860908D01*
X780407Y861407D01*
X780215Y862866D01*
X779459Y864690D01*
X778257Y866257D01*
X776690Y867459D01*
X774866Y868215D01*
X773925Y868339D01*
X773925Y868339D01*
X772908Y868473D01*
D02*
G37*
G36*
X247000Y854565D02*
X246059Y854441D01*
X246059Y854441D01*
X245042Y854307D01*
X244165Y853944D01*
X244165D01*
X243218Y853551D01*
X242465Y852973D01*
X242465D01*
X241651Y852349D01*
X241073Y851596D01*
Y851596D01*
X240449Y850782D01*
X240086Y849905D01*
X239693Y848958D01*
X239569Y848017D01*
X239435Y847000D01*
X239559Y846059D01*
X239559Y846059D01*
X239693Y845042D01*
X240056Y844165D01*
Y844165D01*
X240449Y843218D01*
X241651Y841651D01*
X242404Y841073D01*
X242404Y841073D01*
X243218Y840449D01*
X245042Y839693D01*
X245803Y839593D01*
X247000Y839435D01*
X247941Y839559D01*
X247941D01*
X248958Y839693D01*
X249835Y840056D01*
X249835D01*
X250782Y840449D01*
X251535Y841027D01*
X252349Y841651D01*
X252927Y842404D01*
Y842404D01*
X253551Y843218D01*
X253915Y844094D01*
Y844094D01*
X254307Y845042D01*
X254431Y845983D01*
X254565Y847000D01*
X254475Y847685D01*
X254307Y848958D01*
X254013Y849667D01*
X253551Y850782D01*
X252973Y851535D01*
X252973D01*
X252349Y852349D01*
X250782Y853551D01*
X248958Y854307D01*
X248017Y854431D01*
X248017D01*
X247000Y854565D01*
D02*
G37*
G36*
X922078Y853893D02*
X921137Y853769D01*
X921137Y853769D01*
X920120Y853635D01*
X918296Y852879D01*
X916729Y851677D01*
X915527Y850110D01*
X914771Y848286D01*
X914647Y847345D01*
X914513Y846328D01*
X914637Y845387D01*
X914771Y844370D01*
X915527Y842546D01*
X916729Y840979D01*
X918296Y839777D01*
X920120Y839021D01*
X921061Y838897D01*
X921061Y838897D01*
X922078Y838763D01*
X923019Y838887D01*
X923019D01*
X924036Y839021D01*
X925860Y839777D01*
X927427Y840979D01*
X928629Y842546D01*
X929385Y844370D01*
X929509Y845311D01*
X929643Y846328D01*
X929577Y846827D01*
X929385Y848286D01*
X928629Y850110D01*
X927427Y851677D01*
X925860Y852879D01*
X924036Y853635D01*
X923095Y853759D01*
X923095Y853759D01*
X922078Y853893D01*
D02*
G37*
G36*
X760500Y840315D02*
X759559Y840191D01*
X759559Y840191D01*
X758542Y840057D01*
X757665Y839694D01*
X757665D01*
X756718Y839301D01*
X755965Y838724D01*
X755965D01*
X755151Y838099D01*
X754573Y837346D01*
Y837346D01*
X753949Y836532D01*
X753586Y835656D01*
X753193Y834708D01*
X753069Y833767D01*
X752935Y832750D01*
X753059Y831809D01*
X753059Y831809D01*
X753193Y830792D01*
X753556Y829915D01*
Y829915D01*
X753949Y828968D01*
X755151Y827401D01*
X755904Y826823D01*
X755904Y826823D01*
X756718Y826199D01*
X758542Y825443D01*
X759303Y825343D01*
X760500Y825185D01*
X761441Y825309D01*
X761441D01*
X762458Y825443D01*
X763335Y825806D01*
X763335D01*
X764282Y826199D01*
X765035Y826777D01*
X765849Y827401D01*
X766427Y828154D01*
Y828154D01*
X767051Y828968D01*
X767414Y829845D01*
Y829845D01*
X767807Y830792D01*
X767931Y831733D01*
X768065Y832750D01*
X767974Y833435D01*
X767807Y834708D01*
X767513Y835417D01*
X767051Y836532D01*
X766473Y837285D01*
X766473D01*
X765849Y838099D01*
X764282Y839301D01*
X762458Y840057D01*
X761517Y840181D01*
X761517D01*
X760500Y840315D01*
D02*
G37*
G36*
X242500Y815065D02*
X242007Y815000D01*
X240542Y814807D01*
X238718Y814051D01*
X237151Y812849D01*
X235949Y811282D01*
X235193Y809458D01*
X235069Y808517D01*
X235069Y808517D01*
X234935Y807500D01*
X235059Y806559D01*
Y806559D01*
X235193Y805542D01*
X235949Y803718D01*
X237151Y802151D01*
X238718Y800949D01*
X240542Y800193D01*
X241483Y800069D01*
X242500Y799935D01*
X243441Y800059D01*
X244458Y800193D01*
X246282Y800949D01*
X247849Y802151D01*
X249051Y803718D01*
X249807Y805542D01*
X249931Y806483D01*
X249931Y806483D01*
X250065Y807500D01*
X249941Y808441D01*
Y808441D01*
X249807Y809458D01*
X249051Y811282D01*
X247849Y812849D01*
X246282Y814051D01*
X244458Y814807D01*
X243517Y814931D01*
X242500Y815065D01*
D02*
G37*
G36*
X806958Y814815D02*
X806017Y814691D01*
X806017Y814691D01*
X805000Y814557D01*
X804123Y814194D01*
X803176Y813801D01*
X802423Y813223D01*
X801609Y812599D01*
X801031Y811846D01*
X800407Y811032D01*
X800044Y810156D01*
X799651Y809208D01*
X799527Y808267D01*
X799393Y807250D01*
X799517Y806309D01*
X799517Y806309D01*
X799651Y805292D01*
X800014Y804415D01*
X800407Y803468D01*
X801609Y801901D01*
X803176Y800699D01*
X805000Y799943D01*
X805941Y799819D01*
X806958Y799685D01*
X807899Y799809D01*
X807899D01*
X808916Y799943D01*
X809793Y800306D01*
X810740Y800699D01*
X811493Y801276D01*
X812307Y801901D01*
X812885Y802654D01*
X813509Y803468D01*
X813872Y804344D01*
X814265Y805292D01*
X814389Y806233D01*
X814389Y806233D01*
X814523Y807250D01*
X814433Y807935D01*
X814265Y809208D01*
X813971Y809917D01*
X813509Y811032D01*
X812307Y812599D01*
X810740Y813801D01*
X808916Y814557D01*
X807975Y814681D01*
X807975D01*
X806958Y814815D01*
D02*
G37*
G36*
X325750Y788565D02*
X324809Y788441D01*
X324809Y788441D01*
X323792Y788307D01*
X322915Y787944D01*
X322915D01*
X321968Y787551D01*
X321215Y786973D01*
X321215D01*
X320401Y786349D01*
X319823Y785596D01*
Y785596D01*
X319199Y784782D01*
X318836Y783905D01*
X318443Y782958D01*
X318319Y782017D01*
X318185Y781000D01*
X318309Y780059D01*
X318309Y780059D01*
X318443Y779042D01*
X318806Y778165D01*
Y778165D01*
X319199Y777218D01*
X320401Y775651D01*
X321154Y775073D01*
X321154Y775073D01*
X321968Y774449D01*
X323792Y773693D01*
X324553Y773593D01*
X325750Y773435D01*
X326691Y773559D01*
X326691D01*
X327708Y773693D01*
X328585Y774056D01*
X328585D01*
X329532Y774449D01*
X330285Y775026D01*
X331099Y775651D01*
X331677Y776404D01*
Y776404D01*
X332301Y777218D01*
X332664Y778094D01*
Y778094D01*
X333057Y779042D01*
X333181Y779983D01*
X333315Y781000D01*
X333224Y781685D01*
X333057Y782958D01*
X332763Y783667D01*
X332301Y784782D01*
X331723Y785535D01*
X331723D01*
X331099Y786349D01*
X329532Y787551D01*
X327708Y788307D01*
X326767Y788431D01*
X326767D01*
X325750Y788565D01*
D02*
G37*
G36*
X812074Y779815D02*
X811581Y779750D01*
X810116Y779557D01*
X808292Y778801D01*
X806725Y777599D01*
X805523Y776032D01*
X804767Y774208D01*
X804643Y773267D01*
X804643Y773267D01*
X804509Y772250D01*
X804633Y771309D01*
Y771309D01*
X804767Y770292D01*
X805523Y768468D01*
X806725Y766901D01*
X808292Y765699D01*
X810116Y764943D01*
X811057Y764819D01*
X812074Y764685D01*
X813015Y764809D01*
X814032Y764943D01*
X815856Y765699D01*
X817423Y766901D01*
X818625Y768468D01*
X819381Y770292D01*
X819505Y771233D01*
X819505Y771233D01*
X819639Y772250D01*
X819515Y773191D01*
Y773191D01*
X819381Y774208D01*
X818625Y776032D01*
X817423Y777599D01*
X815856Y778801D01*
X814032Y779557D01*
X813091Y779681D01*
X812074Y779815D01*
D02*
G37*
G36*
X748750Y778086D02*
X746140Y777743D01*
X743707Y776735D01*
X741618Y775132D01*
X740015Y773043D01*
X739007Y770611D01*
X738664Y768000D01*
X739007Y765389D01*
X740015Y762957D01*
X741618Y760868D01*
X743707Y759265D01*
X746140Y758257D01*
X748750Y757914D01*
X751360Y758257D01*
X753793Y759265D01*
X754054Y759465D01*
X758293Y761145D01*
X762145Y761836D01*
X763561Y762055D01*
X768449Y761901D01*
X768449Y761901D01*
X768673Y761880D01*
X769469Y761775D01*
X769469D01*
X770486Y761641D01*
X770486Y761641D01*
X771427Y761765D01*
X772444Y761899D01*
X772444Y761899D01*
X774268Y762655D01*
X774268Y762655D01*
X775835Y763857D01*
X775835Y763857D01*
X777037Y765424D01*
Y765424D01*
X777793Y767248D01*
X777917Y768189D01*
X777917Y768189D01*
X778051Y769206D01*
X777927Y770147D01*
X777927Y770147D01*
X777793Y771164D01*
Y771164D01*
X777037Y772988D01*
Y772988D01*
X775835Y774555D01*
Y774555D01*
X774268Y775757D01*
X774268Y775757D01*
X772444Y776513D01*
X772444Y776513D01*
X771895Y776585D01*
X770486Y776771D01*
Y776771D01*
X769550Y776655D01*
X763135Y775865D01*
X760752Y776085D01*
X759849Y776181D01*
X751360Y777743D01*
X749366Y778005D01*
X748750Y778086D01*
D02*
G37*
G36*
X316000Y738565D02*
X314042Y738307D01*
X314042Y738307D01*
X312218Y737551D01*
X312218D01*
X310651Y736349D01*
X308349Y736099D01*
X306782Y737301D01*
X306782D01*
X304958Y738057D01*
X304958Y738057D01*
X303000Y738315D01*
X303000Y738315D01*
X301042Y738057D01*
X301042Y738057D01*
X299218Y737301D01*
X299218Y737301D01*
X298404Y736677D01*
X297651Y736099D01*
X296449Y734532D01*
X295693Y732708D01*
X295569Y731767D01*
X295435Y730750D01*
X295559Y729809D01*
X295693Y728792D01*
X296449Y726968D01*
X297651Y725401D01*
X299218Y724199D01*
X299218Y724199D01*
X301042Y723443D01*
X301042Y723443D01*
X303000Y723185D01*
X303000Y723185D01*
X304958Y723443D01*
X304958Y723443D01*
X304960Y723444D01*
X307992Y724653D01*
X314042Y723693D01*
X314042Y723693D01*
X316000Y723435D01*
X316000Y723435D01*
X317958Y723693D01*
X317958Y723693D01*
X319782Y724449D01*
X319782Y724449D01*
X321349Y725651D01*
X322551Y727218D01*
X323307Y729042D01*
X323431Y729983D01*
X323565Y731000D01*
X323441Y731941D01*
X323307Y732958D01*
X322551Y734782D01*
X321349Y736349D01*
X321349Y736349D01*
X319782Y737551D01*
X319782Y737551D01*
X317958Y738307D01*
X317958Y738307D01*
X316000Y738565D01*
X316000Y738565D01*
D02*
G37*
G36*
X371250Y725065D02*
X370757Y725000D01*
X369292Y724807D01*
X367468Y724051D01*
X365901Y722849D01*
X364699Y721282D01*
X363943Y719458D01*
X363819Y718517D01*
X363819Y718517D01*
X363685Y717500D01*
X363809Y716559D01*
Y716559D01*
X363943Y715542D01*
X364699Y713718D01*
X365901Y712151D01*
X367468Y710949D01*
X369292Y710193D01*
X370233Y710069D01*
X371250Y709935D01*
X372191Y710059D01*
X373208Y710193D01*
X375032Y710949D01*
X376599Y712151D01*
X377801Y713718D01*
X378557Y715542D01*
X378681Y716483D01*
X378681Y716483D01*
X378815Y717500D01*
X378691Y718441D01*
Y718441D01*
X378557Y719458D01*
X377801Y721282D01*
X376599Y722849D01*
X375032Y724051D01*
X373208Y724807D01*
X372267Y724931D01*
X371250Y725065D01*
D02*
G37*
G36*
X341500Y684065D02*
X340559Y683941D01*
X340559Y683941D01*
X339542Y683807D01*
X338665Y683444D01*
X337718Y683051D01*
X336965Y682474D01*
X336151Y681849D01*
X335573Y681096D01*
X334949Y680282D01*
X334586Y679406D01*
X334193Y678458D01*
X334069Y677517D01*
X333935Y676500D01*
X334059Y675559D01*
X334059Y675559D01*
X334193Y674542D01*
X334556Y673665D01*
X334949Y672718D01*
X336151Y671151D01*
X337718Y669949D01*
X339542Y669193D01*
X340483Y669069D01*
X341500Y668935D01*
X342441Y669059D01*
X342441D01*
X343458Y669193D01*
X344335Y669556D01*
X345282Y669949D01*
X346035Y670526D01*
X346849Y671151D01*
X347427Y671904D01*
X348051Y672718D01*
X348414Y673594D01*
X348807Y674542D01*
X348931Y675483D01*
X348931Y675483D01*
X349065Y676500D01*
X348974Y677185D01*
X348807Y678458D01*
X348513Y679167D01*
X348051Y680282D01*
X346849Y681849D01*
X345282Y683051D01*
X343458Y683807D01*
X342517Y683931D01*
X342517D01*
X341500Y684065D01*
D02*
G37*
G36*
X204500Y656565D02*
X203559Y656441D01*
X203559D01*
X202542Y656307D01*
X202542Y656307D01*
X201665Y655944D01*
X201665D01*
X200718Y655551D01*
X200718Y655551D01*
X199965Y654974D01*
X199965Y654974D01*
X199151Y654349D01*
X199151Y654349D01*
X198573Y653596D01*
X198573Y653596D01*
X197949Y652783D01*
X197949Y652782D01*
X197766Y652341D01*
X197521Y652018D01*
X197521Y652018D01*
X195788Y649733D01*
X192163Y646570D01*
X187261Y644075D01*
X186107Y643730D01*
X184792Y643557D01*
X184792Y643557D01*
X182968Y642801D01*
X182967Y642801D01*
X181401Y641599D01*
X181401Y641599D01*
X180199Y640032D01*
Y640032D01*
X179443Y638208D01*
X179443Y638208D01*
X179319Y637267D01*
X179319Y637267D01*
X179185Y636250D01*
X179309Y635309D01*
X179309Y635309D01*
X179443Y634292D01*
X180199Y632468D01*
Y632468D01*
X181401Y630901D01*
X181401Y630901D01*
X182968Y629699D01*
X182968Y629699D01*
X184792Y628943D01*
X184792Y628943D01*
X185733Y628819D01*
X185733Y628819D01*
X186750Y628685D01*
X186750Y628685D01*
X187691Y628809D01*
X187691Y628809D01*
X188708Y628943D01*
X191566Y628130D01*
X197325Y625234D01*
X199983Y623488D01*
X200534Y622969D01*
X200949Y621968D01*
X200949Y621968D01*
X201527Y621215D01*
X201527Y621215D01*
X202151Y620401D01*
X202151Y620401D01*
X202904Y619823D01*
X202904D01*
X203718Y619199D01*
X203718Y619199D01*
X204595Y618835D01*
X204595D01*
X205542Y618443D01*
X205542Y618443D01*
X206483Y618319D01*
X206483Y618319D01*
X207500Y618185D01*
X207500Y618185D01*
X208441Y618309D01*
X208441Y618309D01*
X209458Y618443D01*
X210335Y618806D01*
D01*
X211282Y619199D01*
X212035Y619776D01*
X212035Y619776D01*
X212849Y620401D01*
X213427Y621154D01*
Y621154D01*
X214051Y621968D01*
X214414Y622844D01*
X214415Y622845D01*
X214807Y623792D01*
X214807Y623792D01*
X214931Y624733D01*
X214931Y624733D01*
X215065Y625750D01*
X215065Y625750D01*
X214941Y626691D01*
X214941Y626691D01*
X214807Y627708D01*
X214807Y627708D01*
X214444Y628585D01*
Y628585D01*
X214051Y629532D01*
X214051Y629532D01*
X213473Y630285D01*
X213473Y630285D01*
X212849Y631099D01*
X212849Y631099D01*
X212635Y631263D01*
X211353Y634559D01*
X210764Y638120D01*
X210459Y641537D01*
X210865Y644975D01*
X211051Y645218D01*
Y645218D01*
X211807Y647042D01*
X211807Y647042D01*
X211931Y647983D01*
Y647983D01*
X212065Y649000D01*
X212065Y649000D01*
X211941Y649941D01*
X211941Y649941D01*
X211807Y650958D01*
X211807Y650958D01*
X211444Y651835D01*
X211444Y651835D01*
X211051Y652782D01*
X211051Y652782D01*
X210473Y653535D01*
X210473Y653535D01*
X209849Y654349D01*
X209474Y654637D01*
D01*
X208282Y655551D01*
X206458Y656307D01*
X205517Y656431D01*
X204500Y656565D01*
X204500Y656565D01*
D02*
G37*
G36*
X298022Y644815D02*
X297081Y644691D01*
X297081Y644691D01*
X296064Y644557D01*
X295187Y644194D01*
X295187D01*
X294240Y643801D01*
X293487Y643223D01*
X293487D01*
X292673Y642599D01*
X292095Y641846D01*
Y641846D01*
X291471Y641032D01*
X291108Y640155D01*
X290715Y639208D01*
X290591Y638267D01*
X290457Y637250D01*
X290581Y636309D01*
X290581Y636309D01*
X290715Y635292D01*
X291078Y634415D01*
Y634415D01*
X291471Y633468D01*
X292673Y631901D01*
X293426Y631323D01*
X293426Y631323D01*
X294240Y630699D01*
X296064Y629943D01*
X296825Y629843D01*
X298022Y629685D01*
X298963Y629809D01*
X298963D01*
X299980Y629943D01*
X300857Y630306D01*
X300857D01*
X301804Y630699D01*
X302557Y631277D01*
X303371Y631901D01*
X303949Y632654D01*
Y632654D01*
X304573Y633468D01*
X304936Y634344D01*
Y634344D01*
X305329Y635292D01*
X305453Y636233D01*
X305587Y637250D01*
X305497Y637935D01*
X305329Y639208D01*
X305035Y639917D01*
X304573Y641032D01*
X303995Y641785D01*
X303995D01*
X303371Y642599D01*
X301804Y643801D01*
X299980Y644557D01*
X299039Y644681D01*
X299039D01*
X298022Y644815D01*
D02*
G37*
G36*
X234366Y628258D02*
X233873Y628193D01*
X232408Y628000D01*
X230584Y627245D01*
X229017Y626042D01*
X227815Y624476D01*
X227059Y622651D01*
X226935Y621710D01*
X226935Y621710D01*
X226801Y620693D01*
X226925Y619752D01*
Y619752D01*
X227059Y618735D01*
X227815Y616911D01*
X229017Y615344D01*
X230583Y614142D01*
X232408Y613386D01*
X233349Y613262D01*
X234366Y613129D01*
X235307Y613252D01*
X236324Y613386D01*
X238148Y614142D01*
X239715Y615344D01*
X240917Y616911D01*
X241673Y618735D01*
X241797Y619676D01*
X241797Y619676D01*
X241931Y620693D01*
X241807Y621634D01*
Y621634D01*
X241673Y622651D01*
X240917Y624476D01*
X239715Y626042D01*
X238148Y627244D01*
X236324Y628000D01*
X235383Y628124D01*
X234366Y628258D01*
D02*
G37*
G36*
X104982Y534565D02*
X104489Y534500D01*
X103024Y534307D01*
X101200Y533551D01*
X99633Y532349D01*
X98431Y530782D01*
X97675Y528958D01*
X97551Y528017D01*
X97551Y528017D01*
X97417Y527000D01*
X97541Y526059D01*
Y526059D01*
X97675Y525042D01*
X98431Y523218D01*
X99633Y521651D01*
X101200Y520449D01*
X103024Y519693D01*
X103965Y519569D01*
X104982Y519435D01*
X105923Y519559D01*
X106940Y519693D01*
X108764Y520449D01*
X110331Y521651D01*
X111533Y523218D01*
X112289Y525042D01*
X112413Y525983D01*
X112413Y525983D01*
X112547Y527000D01*
X112423Y527941D01*
Y527941D01*
X112289Y528958D01*
X111533Y530782D01*
X110331Y532349D01*
X108764Y533551D01*
X106940Y534307D01*
X105999Y534431D01*
X104982Y534565D01*
D02*
G37*
G36*
X120900Y509215D02*
X119959Y509091D01*
X119959Y509091D01*
X118942Y508957D01*
X117118Y508201D01*
X115551Y506999D01*
X114349Y505432D01*
X113593Y503608D01*
X113469Y502667D01*
X113335Y501650D01*
X113459Y500709D01*
X113593Y499692D01*
X114349Y497868D01*
X115551Y496301D01*
X117118Y495099D01*
X118942Y494343D01*
X119883Y494219D01*
X119883Y494219D01*
X120900Y494085D01*
X121841Y494209D01*
X121841D01*
X122858Y494343D01*
X124682Y495099D01*
X126249Y496301D01*
X127451Y497868D01*
X128207Y499692D01*
X128331Y500633D01*
X128465Y501650D01*
X128399Y502149D01*
X128207Y503608D01*
X127451Y505432D01*
X126249Y506999D01*
X124682Y508201D01*
X122858Y508957D01*
X121917Y509081D01*
X121917Y509081D01*
X120900Y509215D01*
D02*
G37*
G36*
X94250Y461815D02*
X93309Y461691D01*
X93309Y461691D01*
X92292Y461557D01*
X91415Y461194D01*
X90468Y460801D01*
X89715Y460224D01*
X88901Y459599D01*
X88323Y458846D01*
X87699Y458032D01*
X87336Y457155D01*
X86943Y456208D01*
X86819Y455267D01*
X86685Y454250D01*
X86809Y453309D01*
X86809Y453309D01*
X86943Y452292D01*
X87306Y451415D01*
X87699Y450468D01*
X88901Y448901D01*
X90468Y447699D01*
X92292Y446943D01*
X93233Y446819D01*
X94250Y446685D01*
X95191Y446809D01*
X95191D01*
X96208Y446943D01*
X97085Y447306D01*
X98032Y447699D01*
X98785Y448276D01*
X99599Y448901D01*
X100177Y449654D01*
X100801Y450468D01*
X101164Y451344D01*
X101557Y452292D01*
X101681Y453233D01*
X101681Y453233D01*
X101815Y454250D01*
X101725Y454935D01*
X101557Y456208D01*
X101263Y456917D01*
X100801Y458032D01*
X99599Y459599D01*
X98032Y460801D01*
X96208Y461557D01*
X95267Y461681D01*
X95267D01*
X94250Y461815D01*
D02*
G37*
G36*
X136984Y453081D02*
X136043Y452957D01*
X135026Y452823D01*
X133202Y452067D01*
X131635Y450865D01*
X131635D01*
X130433Y449298D01*
X130433Y449298D01*
X129677Y447474D01*
X129677Y447474D01*
X129419Y445516D01*
X129419Y445516D01*
X129677Y443558D01*
X129677Y443558D01*
X129677Y443558D01*
X130676Y439651D01*
X129759Y437654D01*
X129555Y437388D01*
Y437388D01*
X128799Y435564D01*
X128799Y435564D01*
X128541Y433606D01*
X128541Y433606D01*
X128799Y431648D01*
X128799Y431648D01*
X129192Y430701D01*
X129555Y429824D01*
X130757Y428257D01*
X131510Y427679D01*
X132324Y427055D01*
X133201Y426692D01*
X134148Y426299D01*
X135089Y426175D01*
X136106Y426041D01*
X137047Y426165D01*
X138064Y426299D01*
X138941Y426662D01*
X138941D01*
X139888Y427055D01*
X140641Y427632D01*
X140641Y427632D01*
X141455Y428257D01*
X141455D01*
X142657Y429824D01*
X142657Y429824D01*
X143413Y431648D01*
X143413Y431648D01*
X143671Y433606D01*
X143671Y433606D01*
X143413Y435564D01*
X143413Y435564D01*
X143413Y435564D01*
X142418Y439437D01*
X143349Y441484D01*
X143534Y441732D01*
X143535Y441734D01*
Y441734D01*
X144291Y443558D01*
X144291Y443558D01*
X144549Y445516D01*
X144549Y445516D01*
X144291Y447474D01*
X144291Y447474D01*
X143535Y449298D01*
X143535Y449298D01*
X142333Y450865D01*
X142333Y450865D01*
X141519Y451489D01*
X140766Y452067D01*
X138942Y452823D01*
X138001Y452947D01*
X136984Y453081D01*
D02*
G37*
G36*
X134250Y412065D02*
X133309Y411941D01*
X133309Y411941D01*
X132292Y411807D01*
X131415Y411444D01*
X131415D01*
X130468Y411051D01*
X129715Y410474D01*
X129715D01*
X128901Y409849D01*
X128323Y409096D01*
Y409096D01*
X127699Y408282D01*
X127336Y407406D01*
X126943Y406458D01*
X126819Y405517D01*
X126685Y404500D01*
X126809Y403559D01*
X126809Y403559D01*
X126943Y402542D01*
X127306Y401665D01*
Y401665D01*
X127699Y400718D01*
X128901Y399151D01*
X129654Y398573D01*
X129654Y398573D01*
X130468Y397949D01*
X132292Y397193D01*
X133053Y397093D01*
X134250Y396935D01*
X135191Y397059D01*
X135191D01*
X136208Y397193D01*
X137085Y397556D01*
X137085D01*
X138032Y397949D01*
X138785Y398526D01*
X139599Y399151D01*
X140177Y399904D01*
Y399904D01*
X140801Y400718D01*
X141165Y401595D01*
Y401595D01*
X141557Y402542D01*
X141681Y403483D01*
X141815Y404500D01*
X141725Y405185D01*
X141557Y406458D01*
X141263Y407167D01*
X140801Y408282D01*
X140223Y409035D01*
X140223D01*
X139599Y409849D01*
X138032Y411051D01*
X136208Y411807D01*
X135267Y411931D01*
X135267D01*
X134250Y412065D01*
D02*
G37*
G36*
X240000Y99565D02*
X239059Y99441D01*
X238042Y99307D01*
X237165Y98944D01*
X236218Y98551D01*
X235465Y97973D01*
X235465D01*
X234651Y97349D01*
X234073Y96596D01*
Y96596D01*
X233449Y95782D01*
X233085Y94906D01*
X232693Y93958D01*
X232569Y93017D01*
X232435Y92000D01*
X232559Y91059D01*
X232559Y91059D01*
X232693Y90042D01*
X233056Y89165D01*
X233449Y88218D01*
X234651Y86651D01*
X235404Y86073D01*
X235404Y86073D01*
X236218Y85449D01*
X238042Y84693D01*
X238803Y84593D01*
X240000Y84435D01*
X240941Y84559D01*
X241958Y84693D01*
X242835Y85056D01*
X242835D01*
X243782Y85449D01*
X244535Y86026D01*
X245349Y86651D01*
X245927Y87404D01*
Y87404D01*
X246551Y88218D01*
X246915Y89094D01*
Y89094D01*
X247307Y90042D01*
X247431Y90983D01*
X247565Y92000D01*
X247441Y92941D01*
X247441Y92941D01*
X247307Y93958D01*
X247013Y94667D01*
X246551Y95782D01*
X245973Y96535D01*
X245973D01*
X245349Y97349D01*
X243782Y98551D01*
X241958Y99307D01*
X241017Y99431D01*
X241017D01*
X240000Y99565D01*
D02*
G37*
G36*
X136000Y79315D02*
X135059Y79191D01*
X134042Y79057D01*
X133165Y78694D01*
X132218Y78301D01*
X131465Y77723D01*
X131465D01*
X130651Y77099D01*
X130073Y76346D01*
Y76346D01*
X129449Y75532D01*
X129086Y74655D01*
X128693Y73708D01*
X128569Y72767D01*
X128435Y71750D01*
X128559Y70809D01*
X128559Y70809D01*
X128693Y69792D01*
X129056Y68915D01*
X129449Y67968D01*
X130651Y66401D01*
X131404Y65823D01*
X131404Y65823D01*
X132218Y65199D01*
X134042Y64443D01*
X134803Y64343D01*
X136000Y64185D01*
X136941Y64309D01*
X137958Y64443D01*
X138835Y64806D01*
X138835D01*
X139782Y65199D01*
X140535Y65777D01*
X141349Y66401D01*
X141927Y67154D01*
Y67154D01*
X142551Y67968D01*
X142914Y68844D01*
Y68844D01*
X143307Y69792D01*
X143431Y70733D01*
X143565Y71750D01*
X143441Y72691D01*
X143441Y72691D01*
X143307Y73708D01*
X143013Y74417D01*
X142551Y75532D01*
X141973Y76285D01*
X141973D01*
X141349Y77099D01*
X139782Y78301D01*
X137958Y79057D01*
X137017Y79181D01*
X137017D01*
X136000Y79315D01*
D02*
G37*
G36*
X175125Y64440D02*
X174184Y64316D01*
X173167Y64182D01*
X172290Y63819D01*
X171343Y63426D01*
X170590Y62849D01*
X170590D01*
X169776Y62224D01*
X169198Y61471D01*
Y61471D01*
X168574Y60657D01*
X168211Y59781D01*
X167818Y58833D01*
X167694Y57892D01*
X167560Y56875D01*
X167684Y55934D01*
X167684Y55934D01*
X167818Y54917D01*
X168181Y54040D01*
X168574Y53093D01*
X169776Y51526D01*
X170529Y50948D01*
X170529Y50948D01*
X171343Y50324D01*
X173167Y49568D01*
X173928Y49468D01*
X175125Y49310D01*
X176066Y49434D01*
X177083Y49568D01*
X177960Y49931D01*
X177960D01*
X178907Y50324D01*
X179660Y50901D01*
X180474Y51526D01*
X181052Y52279D01*
Y52279D01*
X181676Y53093D01*
X182040Y53969D01*
Y53969D01*
X182432Y54917D01*
X182556Y55858D01*
X182690Y56875D01*
X182566Y57816D01*
X182566Y57816D01*
X182432Y58833D01*
X182138Y59542D01*
X181676Y60657D01*
X181098Y61410D01*
X181098D01*
X180474Y62224D01*
X178907Y63426D01*
X177083Y64182D01*
X176142Y64306D01*
X176142D01*
X175125Y64440D01*
D02*
G37*
G36*
X149408Y43473D02*
X148467Y43349D01*
X148467D01*
X147450Y43215D01*
X147450Y43215D01*
X146573Y42852D01*
X146573Y42852D01*
X145626Y42459D01*
X145626Y42459D01*
X144873Y41881D01*
X144366Y41493D01*
X144059Y41257D01*
X143481Y40504D01*
Y40504D01*
X142857Y39690D01*
X142493Y38813D01*
X141219Y36635D01*
X138118Y35079D01*
X135179Y34424D01*
X130595Y33672D01*
X128782Y34551D01*
X126958Y35307D01*
X126958Y35307D01*
X126265Y35398D01*
X125000Y35565D01*
X125000Y35565D01*
X124059Y35441D01*
X123042Y35307D01*
Y35307D01*
X121218Y34551D01*
X121218Y34551D01*
Y34551D01*
X119933Y33566D01*
X119651Y33349D01*
X119651Y33349D01*
Y33349D01*
X118449Y31783D01*
X118449Y31782D01*
X117693Y29958D01*
X117693Y29958D01*
X117455Y28151D01*
X117455D01*
X117435Y28000D01*
X117435Y28000D01*
X117598Y22533D01*
X117598Y22533D01*
X117855Y20575D01*
X117856Y20575D01*
X118611Y18751D01*
X118611Y18751D01*
X119813Y17184D01*
X119813Y17184D01*
X119955Y17075D01*
X121380Y15982D01*
X121380Y15982D01*
X123204Y15226D01*
X123204Y15226D01*
X124145Y15102D01*
X124145D01*
X125162Y14968D01*
X126103Y15092D01*
X127120Y15226D01*
X127120Y15226D01*
X128945Y15982D01*
X128945Y15982D01*
X130511Y17184D01*
X130512Y17184D01*
X131714Y18751D01*
X131714Y18751D01*
X132469Y20575D01*
X132469Y20575D01*
X132727Y22533D01*
X132727Y22533D01*
X132727Y22533D01*
X132883Y23572D01*
X133154Y24854D01*
X143091Y30118D01*
X143813Y30236D01*
X145626Y29357D01*
X146502Y28993D01*
X146503Y28993D01*
X147450Y28601D01*
X147719Y28566D01*
X149408Y28343D01*
X149408Y28343D01*
X150349Y28467D01*
X151366Y28601D01*
X151366Y28601D01*
X152243Y28964D01*
Y28964D01*
X153190Y29357D01*
X153190Y29357D01*
X153943Y29934D01*
Y29934D01*
X154757Y30559D01*
Y30559D01*
X155335Y31312D01*
D01*
X155959Y32126D01*
X156322Y33003D01*
Y33003D01*
X156715Y33950D01*
X156815Y34711D01*
X156973Y35908D01*
X156849Y36849D01*
X156849Y36849D01*
X156715Y37866D01*
X156352Y38743D01*
X155959Y39690D01*
X154757Y41257D01*
X154004Y41835D01*
X154004D01*
X153190Y42459D01*
X151366Y43215D01*
X150425Y43339D01*
X150425Y43339D01*
X149408Y43473D01*
X149408Y43473D01*
D02*
G37*
G36*
X365800Y-47392D02*
X362537Y-47822D01*
X362537D01*
X360677Y-48592D01*
X357226Y-49349D01*
X353100Y-49836D01*
X348974Y-49349D01*
X345523Y-48592D01*
X343663Y-47822D01*
X340400Y-47392D01*
X339500Y-47511D01*
X327500Y-47500D01*
X319998Y-47500D01*
X302500D01*
Y-72500D01*
X319664D01*
X327500Y-72500D01*
X339500Y-72489D01*
X340400Y-72608D01*
X343663Y-72178D01*
X345523Y-71408D01*
X348974Y-70651D01*
X353100Y-70164D01*
X357226Y-70651D01*
X360677Y-71408D01*
X362537Y-72178D01*
X365800Y-72608D01*
X369063Y-72178D01*
X370923Y-71408D01*
X374374Y-70651D01*
X378500Y-70164D01*
X382626Y-70651D01*
X386077Y-71408D01*
X387937Y-72178D01*
X391200Y-72608D01*
X394463Y-72178D01*
X396323Y-71408D01*
X399774Y-70651D01*
X403900Y-70164D01*
X408026Y-70651D01*
X411477Y-71408D01*
X413337Y-72178D01*
X416600Y-72608D01*
X419863Y-72178D01*
X421723Y-71408D01*
X425174Y-70651D01*
X429300Y-70164D01*
X433426Y-70651D01*
X436877Y-71408D01*
X438737Y-72178D01*
X442000Y-72608D01*
X445263Y-72178D01*
X447123Y-71408D01*
X450574Y-70651D01*
X454700Y-70164D01*
X458826Y-70651D01*
X462277Y-71408D01*
X464137Y-72178D01*
X467400Y-72608D01*
X470663Y-72178D01*
X472523Y-71408D01*
X475974Y-70651D01*
X480100Y-70164D01*
X484226Y-70651D01*
X487677Y-71408D01*
X489537Y-72178D01*
X492800Y-72608D01*
X496063Y-72178D01*
X497923Y-71408D01*
X501374Y-70651D01*
X505500Y-70164D01*
X509626Y-70651D01*
X513077Y-71408D01*
X514937Y-72178D01*
X518200Y-72608D01*
X521463Y-72178D01*
X524504Y-70919D01*
X527115Y-68915D01*
X529119Y-66304D01*
X530378Y-63263D01*
X530808Y-60000D01*
X530378Y-56737D01*
X529119Y-53696D01*
X527115Y-51085D01*
X524504Y-49081D01*
X521463Y-47822D01*
X518200Y-47392D01*
X515132Y-47796D01*
X514937Y-47822D01*
X508184Y-48943D01*
X503844Y-49202D01*
X501027Y-49130D01*
X496063Y-47822D01*
X492800Y-47392D01*
X489537Y-47822D01*
X482784Y-48943D01*
X480100Y-49103D01*
X477416Y-48943D01*
X470663Y-47822D01*
X467400Y-47392D01*
X464137Y-47822D01*
X459173Y-49130D01*
X456355Y-49202D01*
X452016Y-48943D01*
X445263Y-47822D01*
X444500Y-47721D01*
X442000Y-47392D01*
X438737Y-47822D01*
X436877Y-48592D01*
X433426Y-49349D01*
X429300Y-49836D01*
X425174Y-49349D01*
X421723Y-48592D01*
X419863Y-47822D01*
X416600Y-47392D01*
X413532Y-47796D01*
X413337Y-47822D01*
X406584Y-48943D01*
X402244Y-49202D01*
X399427Y-49130D01*
X394463Y-47822D01*
X391200Y-47392D01*
X387937Y-47822D01*
X381184Y-48943D01*
X378500Y-49103D01*
X375816Y-48943D01*
X369063Y-47822D01*
X365800Y-47392D01*
X365800Y-47392D01*
D02*
G37*
G36*
X248000Y-94035D02*
X241085Y-100950D01*
X241696Y-101419D01*
X244737Y-102678D01*
X248000Y-103108D01*
X251263Y-102678D01*
X254304Y-101419D01*
X254915Y-100950D01*
X248000Y-94035D01*
D02*
G37*
G36*
X177050Y-99085D02*
X176581Y-99696D01*
X175322Y-102737D01*
X174892Y-106000D01*
X175322Y-109263D01*
X176581Y-112304D01*
X177050Y-112915D01*
X183965Y-106000D01*
X177050Y-99085D01*
D02*
G37*
G36*
X222950Y-99085D02*
X216035Y-106000D01*
X222950Y-112915D01*
X223419Y-112304D01*
X224678Y-109263D01*
X225108Y-106000D01*
X224678Y-102737D01*
X223419Y-99696D01*
X222950Y-99085D01*
D02*
G37*
G36*
X212500Y-93392D02*
X187500D01*
X184237Y-93822D01*
X181196Y-95081D01*
X180585Y-95550D01*
X189268Y-104232D01*
X187500Y-106000D01*
X189268Y-107768D01*
X180585Y-116450D01*
X181196Y-116919D01*
X184237Y-118178D01*
X187500Y-118608D01*
X212500D01*
X215763Y-118178D01*
X218804Y-116919D01*
X219415Y-116450D01*
X210732Y-107768D01*
X212500Y-106000D01*
X210732Y-104232D01*
X219415Y-95550D01*
X218804Y-95081D01*
X215763Y-93822D01*
X212500Y-93392D01*
D02*
G37*
G36*
X342500Y-134935D02*
X341559Y-135059D01*
X341559D01*
X340542Y-135193D01*
X340542Y-135193D01*
X339717Y-135535D01*
X339669Y-135541D01*
X339669D01*
X332500Y-136517D01*
X325282Y-135535D01*
X324458Y-135193D01*
X324458Y-135193D01*
X323517Y-135069D01*
X323517D01*
X322500Y-134935D01*
X322499Y-134935D01*
X321559Y-135059D01*
X321558Y-135059D01*
X320542Y-135193D01*
X315435Y-136035D01*
X313578Y-135948D01*
X306262Y-135339D01*
X303567Y-135069D01*
X302575Y-134938D01*
X302550Y-134935D01*
X301609Y-135059D01*
X301609Y-135059D01*
X301477Y-135077D01*
X300592Y-135193D01*
X300581Y-135197D01*
X299182Y-135625D01*
X292525Y-136521D01*
X285868Y-135625D01*
X284468Y-135197D01*
X284458Y-135193D01*
X284458Y-135193D01*
X283517Y-135069D01*
X283517Y-135069D01*
X282500Y-134935D01*
X282500Y-134935D01*
X281559Y-135059D01*
X281559Y-135059D01*
X280542Y-135193D01*
X280542Y-135193D01*
X278718Y-135949D01*
X278718Y-135949D01*
X277151Y-137151D01*
X275949Y-138718D01*
X275193Y-140542D01*
X275069Y-141483D01*
X274935Y-142500D01*
X275036Y-143265D01*
X275193Y-144458D01*
X275949Y-146282D01*
X277151Y-147849D01*
Y-147849D01*
X278718Y-149051D01*
X278718Y-149051D01*
X280542Y-149807D01*
X280542Y-149807D01*
X281483Y-149931D01*
X281483D01*
X282500Y-150065D01*
X282500Y-150065D01*
X283441Y-149941D01*
X283441D01*
X284458Y-149807D01*
X284458Y-149807D01*
X284468Y-149803D01*
X285868Y-149375D01*
X292525Y-148479D01*
X299182Y-149375D01*
X300581Y-149803D01*
X300582D01*
X300592Y-149807D01*
X300592Y-149807D01*
X301533Y-149931D01*
X301533D01*
X302550Y-150065D01*
X302551Y-150065D01*
X303491Y-149941D01*
X303492Y-149941D01*
X304508Y-149807D01*
X309889Y-148920D01*
X318788Y-149661D01*
X321483Y-149931D01*
X322476Y-150062D01*
X322500Y-150065D01*
X323441Y-149941D01*
X323441Y-149941D01*
X323573Y-149923D01*
X324458Y-149807D01*
X325283Y-149465D01*
X332500Y-148483D01*
X336327Y-149004D01*
X339717Y-149465D01*
X340542Y-149807D01*
X340542Y-149807D01*
X341483Y-149931D01*
X341483Y-149931D01*
X342500Y-150065D01*
X342500Y-150065D01*
X343441Y-149941D01*
X343441Y-149941D01*
X344458Y-149807D01*
X344458Y-149807D01*
X345335Y-149444D01*
X345335Y-149444D01*
X346282Y-149051D01*
X346282Y-149051D01*
X347035Y-148474D01*
X347849Y-147849D01*
X347849Y-147849D01*
X348427Y-147096D01*
D01*
X349051Y-146282D01*
X349235Y-145838D01*
X349235Y-145838D01*
X349807Y-144458D01*
X349931Y-143517D01*
X349931Y-143517D01*
X350065Y-142500D01*
X349941Y-141559D01*
X349941Y-141559D01*
X349807Y-140542D01*
X349444Y-139665D01*
X349051Y-138718D01*
X348474Y-137965D01*
X348474Y-137965D01*
X347849Y-137151D01*
Y-137151D01*
X347096Y-136573D01*
X347096Y-136573D01*
X346282Y-135949D01*
X346282Y-135949D01*
X345406Y-135586D01*
X345406Y-135585D01*
X344458Y-135193D01*
X344458Y-135193D01*
X343517Y-135069D01*
D01*
X342500Y-134935D01*
X342500Y-134935D01*
D02*
G37*
G36*
X560000D02*
X559059Y-135059D01*
X559059D01*
X558042Y-135193D01*
X558042Y-135193D01*
X557218Y-135534D01*
X557169Y-135541D01*
X557169Y-135541D01*
X550000Y-136517D01*
X543302Y-135605D01*
X541958Y-135193D01*
X541958Y-135193D01*
X541017Y-135069D01*
X540000Y-134935D01*
X539059Y-135059D01*
X538042Y-135193D01*
X538042Y-135193D01*
X536698Y-135605D01*
X530000Y-136517D01*
X523302Y-135605D01*
X521958Y-135193D01*
X521958Y-135193D01*
X521017Y-135069D01*
X520000Y-134935D01*
X519059Y-135059D01*
X518042Y-135193D01*
X518042Y-135193D01*
X516698Y-135605D01*
X510000Y-136517D01*
X503302Y-135605D01*
X501958Y-135193D01*
X501958Y-135193D01*
X501958Y-135193D01*
X501017Y-135069D01*
X501017Y-135069D01*
X500000Y-134935D01*
X500000Y-134935D01*
X499059Y-135059D01*
X499059Y-135059D01*
X498042Y-135193D01*
X498042Y-135193D01*
X496218Y-135949D01*
X496218Y-135949D01*
X494651Y-137151D01*
X493449Y-138718D01*
X492693Y-140542D01*
X492569Y-141483D01*
X492435Y-142500D01*
X492536Y-143266D01*
X492693Y-144458D01*
X493449Y-146282D01*
X494651Y-147849D01*
Y-147849D01*
X496218Y-149051D01*
X496218Y-149051D01*
X498042Y-149807D01*
X498042Y-149807D01*
X498983Y-149931D01*
X498983D01*
X500000Y-150065D01*
X500000Y-150065D01*
X500941Y-149941D01*
X500941D01*
X501958Y-149807D01*
X501958Y-149807D01*
X501958Y-149807D01*
X503302Y-149395D01*
X510000Y-148483D01*
X516698Y-149395D01*
X518042Y-149807D01*
X518042Y-149807D01*
X518983Y-149931D01*
X520000Y-150065D01*
X520941Y-149941D01*
X521958Y-149807D01*
X521958Y-149807D01*
X523302Y-149395D01*
X530000Y-148483D01*
X536698Y-149395D01*
X538042Y-149807D01*
X538042Y-149807D01*
X538983Y-149931D01*
X540000Y-150065D01*
X540941Y-149941D01*
X541958Y-149807D01*
X541958Y-149807D01*
X543302Y-149395D01*
X550000Y-148483D01*
X553827Y-149004D01*
X557218Y-149466D01*
X558042Y-149807D01*
X558042Y-149807D01*
X558983Y-149931D01*
X558983Y-149931D01*
X560000Y-150065D01*
X560000Y-150065D01*
X560941Y-149941D01*
X560941Y-149941D01*
X561958Y-149807D01*
X561958Y-149807D01*
X562835Y-149444D01*
X562835Y-149444D01*
X563782Y-149051D01*
X563782Y-149051D01*
X564535Y-148474D01*
X565349Y-147849D01*
X565349Y-147849D01*
X565927Y-147096D01*
D01*
X566551Y-146282D01*
X566735Y-145838D01*
X566735Y-145838D01*
X567307Y-144458D01*
X567431Y-143517D01*
X567431Y-143517D01*
X567565Y-142500D01*
X567441Y-141559D01*
X567441Y-141559D01*
X567307Y-140542D01*
X566944Y-139665D01*
X566551Y-138718D01*
X565974Y-137965D01*
X565974Y-137965D01*
X565349Y-137151D01*
X565349Y-137151D01*
X564596Y-136573D01*
X564596Y-136573D01*
X563782Y-135949D01*
X563782Y-135949D01*
X562906Y-135586D01*
X562906Y-135585D01*
X561958Y-135193D01*
X561958Y-135193D01*
X561017Y-135069D01*
D01*
X560000Y-134935D01*
X560000Y-134935D01*
D02*
G37*
G36*
X455000D02*
X454059Y-135059D01*
X454059D01*
X453042Y-135193D01*
X453042Y-135193D01*
X452217Y-135535D01*
X452169Y-135541D01*
X452169D01*
X445000Y-136517D01*
X437783Y-135535D01*
X436958Y-135193D01*
X436017Y-135069D01*
X435000Y-134935D01*
X434059Y-135059D01*
X433042Y-135193D01*
X432218Y-135535D01*
X425000Y-136517D01*
X418302Y-135605D01*
X416958Y-135193D01*
X416958Y-135193D01*
X416017Y-135069D01*
X415000Y-134935D01*
X414059Y-135059D01*
X413042Y-135193D01*
X413042Y-135193D01*
X411698Y-135605D01*
X405000Y-136517D01*
X398302Y-135605D01*
X396958Y-135193D01*
X396958Y-135193D01*
X396958Y-135193D01*
X396017Y-135069D01*
X396017Y-135069D01*
X395000Y-134935D01*
X395000Y-134935D01*
X394059Y-135059D01*
X394059Y-135059D01*
X393042Y-135193D01*
X393042Y-135193D01*
X391218Y-135949D01*
X391218Y-135949D01*
X389651Y-137151D01*
X388449Y-138718D01*
X387693Y-140542D01*
X387569Y-141483D01*
X387435Y-142500D01*
X387536Y-143266D01*
X387693Y-144458D01*
X388449Y-146282D01*
X389651Y-147849D01*
Y-147849D01*
X391218Y-149051D01*
X391218Y-149051D01*
X393042Y-149807D01*
X393042Y-149807D01*
X393983Y-149931D01*
X393983D01*
X395000Y-150065D01*
X395000Y-150065D01*
X395941Y-149941D01*
X395941D01*
X396958Y-149807D01*
X396958Y-149807D01*
X396958Y-149807D01*
X398302Y-149395D01*
X405000Y-148483D01*
X411698Y-149395D01*
X413042Y-149807D01*
X413042Y-149807D01*
X413983Y-149931D01*
X415000Y-150065D01*
X415941Y-149941D01*
X416958Y-149807D01*
X416958Y-149807D01*
X418302Y-149395D01*
X425000Y-148483D01*
X432218Y-149465D01*
X433042Y-149807D01*
X433983Y-149931D01*
X435000Y-150065D01*
X435941Y-149941D01*
X436958Y-149807D01*
X437783Y-149465D01*
X445000Y-148483D01*
X448827Y-149004D01*
X452217Y-149465D01*
X453042Y-149807D01*
X453042Y-149807D01*
X453983Y-149931D01*
X453983Y-149931D01*
X455000Y-150065D01*
X455000Y-150065D01*
X455941Y-149941D01*
X455941Y-149941D01*
X456958Y-149807D01*
X456958Y-149807D01*
X457835Y-149444D01*
X457835Y-149444D01*
X458782Y-149051D01*
X458782Y-149051D01*
X459535Y-148474D01*
X460349Y-147849D01*
X460349Y-147849D01*
X460927Y-147096D01*
D01*
X461551Y-146282D01*
X461735Y-145838D01*
X461735Y-145838D01*
X462307Y-144458D01*
X462431Y-143517D01*
X462431Y-143517D01*
X462565Y-142500D01*
X462441Y-141559D01*
X462441Y-141559D01*
X462307Y-140542D01*
X461944Y-139665D01*
X461551Y-138718D01*
X460974Y-137965D01*
X460974Y-137965D01*
X460349Y-137151D01*
X460349Y-137151D01*
X459596Y-136573D01*
X459596Y-136573D01*
X458782Y-135949D01*
X458782Y-135949D01*
X457906Y-135586D01*
X457906Y-135585D01*
X456958Y-135193D01*
X456958Y-135193D01*
X456017Y-135069D01*
D01*
X455000Y-134935D01*
X455000Y-134935D01*
D02*
G37*
G36*
X872098Y-128249D02*
X869357Y-128610D01*
X866803Y-129668D01*
X864609Y-131351D01*
X862926Y-133545D01*
X861868Y-136099D01*
X861507Y-138840D01*
X861868Y-141581D01*
X862926Y-144135D01*
X864609Y-146329D01*
X866803Y-148012D01*
X869357Y-149070D01*
X872098Y-149431D01*
X874839Y-149070D01*
X877393Y-148012D01*
X879587Y-146329D01*
X881270Y-144135D01*
X882328Y-141581D01*
X882689Y-138840D01*
X882328Y-136099D01*
X881270Y-133545D01*
X879587Y-131351D01*
X877393Y-129668D01*
X874839Y-128610D01*
X872098Y-128249D01*
D02*
G37*
G36*
X828000D02*
X825259Y-128610D01*
X822705Y-129668D01*
X820511Y-131351D01*
X818828Y-133545D01*
X817770Y-136099D01*
X817409Y-138840D01*
X817770Y-141581D01*
X818828Y-144135D01*
X820511Y-146329D01*
X822705Y-148012D01*
X825259Y-149070D01*
X828000Y-149431D01*
X830741Y-149070D01*
X833295Y-148012D01*
X835489Y-146329D01*
X837172Y-144135D01*
X838230Y-141581D01*
X838591Y-138840D01*
X838230Y-136099D01*
X837172Y-133545D01*
X835489Y-131351D01*
X833295Y-129668D01*
X830741Y-128610D01*
X828000Y-128249D01*
D02*
G37*
G36*
X672098D02*
X669357Y-128610D01*
X666803Y-129668D01*
X664609Y-131351D01*
X662926Y-133545D01*
X661868Y-136099D01*
X661507Y-138840D01*
X661868Y-141581D01*
X662926Y-144135D01*
X664609Y-146329D01*
X666803Y-148012D01*
X669357Y-149070D01*
X672098Y-149431D01*
X674839Y-149070D01*
X677393Y-148012D01*
X679587Y-146329D01*
X681270Y-144135D01*
X682328Y-141581D01*
X682689Y-138840D01*
X682328Y-136099D01*
X681270Y-133545D01*
X679587Y-131351D01*
X677393Y-129668D01*
X674839Y-128610D01*
X672098Y-128249D01*
D02*
G37*
G36*
X628000D02*
X625259Y-128610D01*
X622705Y-129668D01*
X620511Y-131351D01*
X618828Y-133545D01*
X617770Y-136099D01*
X617409Y-138840D01*
X617770Y-141581D01*
X618828Y-144135D01*
X620511Y-146329D01*
X622705Y-148012D01*
X625259Y-149070D01*
X628000Y-149431D01*
X630741Y-149070D01*
X633295Y-148012D01*
X635489Y-146329D01*
X637172Y-144135D01*
X638230Y-141581D01*
X638591Y-138840D01*
X638230Y-136099D01*
X637172Y-133545D01*
X635489Y-131351D01*
X633295Y-129668D01*
X630741Y-128610D01*
X628000Y-128249D01*
D02*
G37*
G36*
X41000Y427556D02*
X39303Y427333D01*
X37722Y426678D01*
X36364Y425636D01*
X35322Y424278D01*
X34667Y422697D01*
X34444Y421000D01*
X34667Y419303D01*
X35322Y417722D01*
X36364Y416364D01*
X37722Y415322D01*
X39303Y414667D01*
X41000Y414444D01*
X42697Y414667D01*
X44278Y415322D01*
X45636Y416364D01*
X46678Y417722D01*
X47333Y419303D01*
X47556Y421000D01*
X47333Y422697D01*
X46678Y424278D01*
X45636Y425636D01*
X44278Y426678D01*
X42697Y427333D01*
X41000Y427556D01*
D02*
G37*
G36*
X41500Y408056D02*
X39803Y407833D01*
X38222Y407178D01*
X36864Y406136D01*
X35822Y404778D01*
X35167Y403197D01*
X34944Y401500D01*
X35167Y399803D01*
X35822Y398222D01*
X36864Y396864D01*
X38222Y395822D01*
X39803Y395167D01*
X41500Y394944D01*
X43197Y395167D01*
X44778Y395822D01*
X46136Y396864D01*
X47178Y398222D01*
X47833Y399803D01*
X48056Y401500D01*
X47833Y403197D01*
X47178Y404778D01*
X46136Y406136D01*
X44778Y407178D01*
X43197Y407833D01*
X41500Y408056D01*
D02*
G37*
G36*
X177050Y-41085D02*
X176581Y-41696D01*
X175322Y-44737D01*
X174892Y-48000D01*
X175322Y-51263D01*
X176581Y-54304D01*
X177050Y-54915D01*
X183965Y-48000D01*
X177050Y-41085D01*
D02*
G37*
G36*
X222950Y-41085D02*
X216035Y-48000D01*
X222950Y-54915D01*
X223419Y-54304D01*
X224678Y-51263D01*
X225108Y-48000D01*
X224678Y-44737D01*
X223419Y-41696D01*
X222950Y-41085D01*
D02*
G37*
G36*
X212500Y-35392D02*
X187500D01*
X184237Y-35822D01*
X181196Y-37081D01*
X180585Y-37550D01*
X189268Y-46232D01*
X187500Y-48000D01*
X189268Y-49768D01*
X180585Y-58450D01*
X181196Y-58919D01*
X184237Y-60178D01*
X187500Y-60608D01*
X212500D01*
X215763Y-60178D01*
X218804Y-58919D01*
X219415Y-58450D01*
X210732Y-49768D01*
X212500Y-48000D01*
X210732Y-46232D01*
X219415Y-37550D01*
X218804Y-37081D01*
X215763Y-35822D01*
X212500Y-35392D01*
D02*
G37*
G36*
X903870Y349666D02*
X902970Y349547D01*
X890970Y349558D01*
X883468Y349558D01*
X865970D01*
Y338955D01*
X853970Y335424D01*
X852526Y337004D01*
X850523Y339615D01*
X847911Y341619D01*
X844871Y342878D01*
X841607Y343308D01*
X838344Y342878D01*
X835303Y341619D01*
X832692Y339615D01*
X830689Y337004D01*
X829429Y333963D01*
X829000Y330700D01*
X829429Y327437D01*
X830689Y324396D01*
X832692Y321785D01*
X835303Y319781D01*
X838344Y318522D01*
X841607Y318092D01*
X844871Y318522D01*
X847911Y319781D01*
X850523Y321785D01*
X852526Y324396D01*
X853970Y325976D01*
X859228Y325355D01*
X865972Y322450D01*
X865981Y312558D01*
X865862Y311658D01*
X866266Y308590D01*
X866292Y308395D01*
X867413Y301642D01*
X867672Y297302D01*
X867600Y294485D01*
X866292Y289521D01*
X865862Y286258D01*
X865862Y286258D01*
X866292Y282995D01*
Y282995D01*
X867551Y279954D01*
X869555Y277343D01*
X872166Y275339D01*
X875207Y274080D01*
X878470Y273650D01*
X881733Y274080D01*
X884774Y275339D01*
X887385Y277343D01*
X889389Y279954D01*
X890648Y282995D01*
X891078Y286258D01*
X890648Y289521D01*
X889878Y291381D01*
X889649Y292423D01*
X897705Y300479D01*
X898747Y300250D01*
X900607Y299480D01*
X903870Y299050D01*
X907133Y299480D01*
X910174Y300739D01*
X912785Y302743D01*
X914789Y305354D01*
X916048Y308395D01*
X916478Y311658D01*
X916117Y314395D01*
X915992Y315402D01*
X916074Y314726D01*
X916010Y315236D01*
X915953Y315715D01*
X915992Y315402D01*
X915845Y316613D01*
X914766Y325587D01*
X916048Y333795D01*
X916478Y337057D01*
X916478Y337058D01*
X916048Y340321D01*
Y340321D01*
X914789Y343362D01*
X912785Y345973D01*
X910174Y347977D01*
X907133Y349236D01*
X903870Y349666D01*
D02*
G37*
G36*
X919680Y257885D02*
X918739Y257761D01*
X918739D01*
X917722Y257627D01*
X917722Y257627D01*
X915898Y256871D01*
X915898Y256871D01*
X914331Y255669D01*
X914331D01*
X913129Y254102D01*
X913129Y254102D01*
X912373Y252278D01*
X912373Y252278D01*
X912115Y250320D01*
X910406Y248002D01*
X908363Y247627D01*
X908362Y247627D01*
X908362Y247627D01*
X906538Y246871D01*
X906537Y246871D01*
X904971Y245669D01*
Y245669D01*
X903769Y244102D01*
X903769Y244102D01*
X903013Y242278D01*
X903013Y242278D01*
X902889Y241337D01*
X902889Y241337D01*
X902755Y240320D01*
X902879Y239379D01*
X903013Y238362D01*
X903769Y236538D01*
X904971Y234971D01*
X906538Y233769D01*
X908362Y233013D01*
X909303Y232889D01*
X909303Y232889D01*
X910320Y232755D01*
X911261Y232879D01*
X911261Y232879D01*
X912278Y233013D01*
X912278Y233013D01*
X914102Y233769D01*
X914102Y233769D01*
X915669Y234971D01*
X915669D01*
X916871Y236537D01*
X916871Y236538D01*
X917627Y238362D01*
X917627Y238362D01*
X917885Y240320D01*
X919594Y242638D01*
X921637Y243013D01*
X921638Y243013D01*
X921638Y243013D01*
X923462Y243769D01*
X923463Y243769D01*
X925029Y244971D01*
Y244971D01*
X925654Y245785D01*
Y245785D01*
X926231Y246538D01*
Y246538D01*
X926987Y248362D01*
X926987Y248362D01*
X927111Y249303D01*
X927111Y249303D01*
X927245Y250320D01*
X927121Y251261D01*
X926987Y252278D01*
X926624Y253155D01*
X926231Y254102D01*
X925654Y254855D01*
X925029Y255669D01*
X924276Y256247D01*
X924276Y256247D01*
X923462Y256871D01*
X922586Y257234D01*
X921638Y257627D01*
X920697Y257751D01*
X920697Y257751D01*
X919680Y257885D01*
D02*
G37*
G36*
X830060Y246005D02*
X829567Y245940D01*
X828102Y245747D01*
X826278Y244991D01*
X824711Y243789D01*
X823509Y242222D01*
X822753Y240398D01*
X822629Y239457D01*
X822629Y239457D01*
X822495Y238440D01*
X822619Y237499D01*
Y237499D01*
X822753Y236482D01*
X823509Y234658D01*
X824711Y233091D01*
X826278Y231889D01*
X828102Y231133D01*
X829043Y231009D01*
X830060Y230875D01*
X831001Y230999D01*
X832018Y231133D01*
X833842Y231889D01*
X835409Y233091D01*
X836611Y234658D01*
X837367Y236482D01*
X837491Y237423D01*
X837491Y237423D01*
X837625Y238440D01*
X837501Y239381D01*
Y239381D01*
X837367Y240398D01*
X836611Y242222D01*
X835409Y243789D01*
X833842Y244991D01*
X832018Y245747D01*
X831077Y245871D01*
X830060Y246005D01*
D02*
G37*
G36*
X922500Y222565D02*
X922007Y222500D01*
X920542Y222307D01*
X918718Y221551D01*
X917151Y220349D01*
X915949Y218782D01*
X915193Y216958D01*
X915069Y216017D01*
X915069Y216017D01*
X914935Y215000D01*
X915059Y214059D01*
Y214059D01*
X915193Y213042D01*
X915949Y211218D01*
X917151Y209651D01*
X918718Y208449D01*
X920542Y207693D01*
X921483Y207569D01*
X922500Y207435D01*
X923441Y207559D01*
X924458Y207693D01*
X926282Y208449D01*
X927849Y209651D01*
X929051Y211218D01*
X929807Y213042D01*
X929931Y213983D01*
X929931Y213983D01*
X930065Y215000D01*
X929941Y215941D01*
Y215941D01*
X929807Y216958D01*
X929051Y218782D01*
X927849Y220349D01*
X926282Y221551D01*
X924458Y222307D01*
X923517Y222431D01*
X922500Y222565D01*
D02*
G37*
G36*
X414000Y200565D02*
X413059Y200441D01*
X412042Y200307D01*
X411165Y199944D01*
X410218Y199551D01*
X409465Y198974D01*
X409465D01*
X408651Y198349D01*
X408073Y197596D01*
Y197596D01*
X407449Y196782D01*
X407085Y195905D01*
X406693Y194958D01*
X406569Y194017D01*
X406435Y193000D01*
X406559Y192059D01*
X406559Y192059D01*
X406693Y191042D01*
X407056Y190165D01*
X407449Y189218D01*
X408651Y187651D01*
X409404Y187073D01*
X409404Y187073D01*
X410218Y186449D01*
X412042Y185693D01*
X412803Y185593D01*
X414000Y185435D01*
X414941Y185559D01*
X415958Y185693D01*
X416835Y186056D01*
X416835D01*
X417782Y186449D01*
X418535Y187027D01*
X419349Y187651D01*
X419927Y188404D01*
Y188404D01*
X420551Y189218D01*
X420914Y190095D01*
Y190095D01*
X421307Y191042D01*
X421431Y191983D01*
X421565Y193000D01*
X421441Y193941D01*
X421441Y193941D01*
X421307Y194958D01*
X421013Y195667D01*
X420551Y196782D01*
X419973Y197535D01*
X419973D01*
X419349Y198349D01*
X417782Y199551D01*
X415958Y200307D01*
X415017Y200431D01*
X415017D01*
X414000Y200565D01*
D02*
G37*
G36*
X827977Y66815D02*
X827036Y66691D01*
X826019Y66557D01*
X825143Y66194D01*
X824195Y65801D01*
X823442Y65224D01*
X823442D01*
X822628Y64599D01*
X822050Y63846D01*
Y63846D01*
X821426Y63032D01*
X821063Y62156D01*
X820670Y61208D01*
X820546Y60267D01*
X820413Y59250D01*
X820536Y58309D01*
X820536Y58309D01*
X820670Y57292D01*
X821033Y56415D01*
X821426Y55468D01*
X822628Y53901D01*
X823381Y53323D01*
X823381Y53323D01*
X824195Y52699D01*
X826019Y51943D01*
X826780Y51843D01*
X827977Y51685D01*
X828918Y51809D01*
X829935Y51943D01*
X830812Y52306D01*
X830812D01*
X831760Y52699D01*
X832513Y53277D01*
X833326Y53901D01*
X833904Y54654D01*
Y54654D01*
X834529Y55468D01*
X834892Y56344D01*
Y56345D01*
X835284Y57292D01*
X835408Y58233D01*
X835542Y59250D01*
X835418Y60191D01*
X835418Y60191D01*
X835284Y61208D01*
X834991Y61917D01*
X834529Y63032D01*
X833951Y63786D01*
X833951D01*
X833326Y64599D01*
X831760Y65801D01*
X829935Y66557D01*
X828994Y66681D01*
X828994D01*
X827977Y66815D01*
D02*
G37*
%LPD*%
D13*
X606600Y-149636D02*
D03*
X805000Y-95364D02*
D03*
X895000Y-150000D02*
D03*
X894874Y-95000D02*
D03*
X806600Y-150678D02*
D03*
X694884Y-150000D02*
D03*
Y-90000D02*
D03*
X605000Y-94136D02*
D03*
X850000Y-80000D02*
D03*
X665000Y-90000D02*
D03*
X357500Y-167500D02*
D03*
X575000Y-168000D02*
D03*
X487500Y-167500D02*
D03*
X470000D02*
D03*
X379820D02*
D03*
X270000Y-168000D02*
D03*
X80000Y885146D02*
D03*
X95000Y884946D02*
D03*
Y870000D02*
D03*
X80000Y870200D02*
D03*
Y914396D02*
D03*
X95000Y914196D02*
D03*
Y899250D02*
D03*
X80000Y899450D02*
D03*
Y944396D02*
D03*
X95000Y944196D02*
D03*
Y929250D02*
D03*
X80000Y929450D02*
D03*
Y959450D02*
D03*
X95000Y959250D02*
D03*
Y974196D02*
D03*
X80000Y974396D02*
D03*
X409500Y875000D02*
D03*
X552250Y301750D02*
D03*
X72500Y820000D02*
D03*
X82500D02*
D03*
X92500D02*
D03*
X102500D02*
D03*
X112500D02*
D03*
X122500D02*
D03*
X132500D02*
D03*
X142500D02*
D03*
X152500D02*
D03*
X162500D02*
D03*
X172500D02*
D03*
X182500D02*
D03*
Y807500D02*
D03*
X172500D02*
D03*
X162500D02*
D03*
X152500D02*
D03*
X142500D02*
D03*
X132500D02*
D03*
X122500D02*
D03*
X112500D02*
D03*
X102500D02*
D03*
X92500D02*
D03*
X82500D02*
D03*
X72500D02*
D03*
X182500Y795000D02*
D03*
X172500D02*
D03*
X162500D02*
D03*
X152500D02*
D03*
X142500D02*
D03*
X132500D02*
D03*
X122500D02*
D03*
X112500D02*
D03*
X102500D02*
D03*
X92500D02*
D03*
X82500D02*
D03*
X72500D02*
D03*
X182500Y782500D02*
D03*
X172500D02*
D03*
X162500D02*
D03*
X152500D02*
D03*
X142500D02*
D03*
X132500D02*
D03*
X122500D02*
D03*
X112500D02*
D03*
X102500D02*
D03*
X92500D02*
D03*
X82500D02*
D03*
X72500D02*
D03*
X182500Y770000D02*
D03*
X172500D02*
D03*
X162500D02*
D03*
X152500D02*
D03*
X142500D02*
D03*
X132500D02*
D03*
X122500D02*
D03*
X112500D02*
D03*
X102500D02*
D03*
X92500D02*
D03*
X82500D02*
D03*
X72500D02*
D03*
X182500Y757500D02*
D03*
X172500D02*
D03*
X162500D02*
D03*
X152500D02*
D03*
X142500D02*
D03*
X132500D02*
D03*
X122500D02*
D03*
X112500D02*
D03*
X102500D02*
D03*
X92500D02*
D03*
X82500D02*
D03*
X72500D02*
D03*
X182500Y745000D02*
D03*
X172500D02*
D03*
X162500D02*
D03*
X152500D02*
D03*
X142500D02*
D03*
X132500D02*
D03*
X122500D02*
D03*
X112500D02*
D03*
X102500D02*
D03*
X92500D02*
D03*
X82500D02*
D03*
X72500D02*
D03*
X804000Y730500D02*
D03*
X789750Y730250D02*
D03*
X779250Y747000D02*
D03*
X814500Y746250D02*
D03*
X748250Y745250D02*
D03*
X692750Y809250D02*
D03*
X681250Y814500D02*
D03*
X622000Y868500D02*
D03*
X422000Y781750D02*
D03*
X424500Y726750D02*
D03*
X387750Y766000D02*
D03*
X399000D02*
D03*
X387750Y728250D02*
D03*
X398250Y728000D02*
D03*
X387500Y754250D02*
D03*
X398750Y753750D02*
D03*
X242750Y998500D02*
D03*
Y983500D02*
D03*
Y948500D02*
D03*
Y933500D02*
D03*
Y898500D02*
D03*
Y882500D02*
D03*
X64000Y567000D02*
D03*
X77000D02*
D03*
X78000Y589000D02*
D03*
X65000D02*
D03*
X121000Y679000D02*
D03*
Y665000D02*
D03*
X138000Y696000D02*
D03*
X248000Y514000D02*
D03*
Y499000D02*
D03*
Y470000D02*
D03*
Y455000D02*
D03*
X72000Y401500D02*
D03*
Y421000D02*
D03*
X923000Y62000D02*
D03*
X864250Y50750D02*
D03*
X482750Y85000D02*
D03*
X268500Y89750D02*
D03*
X77500Y170500D02*
D03*
X252750Y169000D02*
D03*
X743000Y733000D02*
D03*
X484500Y133500D02*
D03*
X255250Y790000D02*
D03*
X315250Y825000D02*
D03*
X320000Y940000D02*
D03*
X370000D02*
D03*
X442500D02*
D03*
X428750Y706750D02*
D03*
X354000Y652000D02*
D03*
X315000D02*
D03*
X341000D02*
D03*
X315500Y634750D02*
D03*
X437250Y768000D02*
D03*
X246178Y820928D02*
D03*
D42*
X561000Y449000D02*
Y449554D01*
D43*
X890056Y25000D02*
X900056Y35000D01*
X880000Y25000D02*
X895000Y40000D01*
X900056Y35000D02*
X944942D01*
X960000Y50058D01*
X895000Y40000D02*
X939730D01*
X954730Y55000D01*
Y125726D01*
X860000Y24774D02*
X885226Y50000D01*
X870000Y24949D02*
X890051Y45000D01*
X935451D01*
X950000Y59549D01*
X929362Y50000D02*
X945000Y65638D01*
X885226Y50000D02*
X929362D01*
X945000Y65638D02*
Y102254D01*
X924824Y122430D02*
X945000Y102254D01*
X960000Y50058D02*
Y155723D01*
X929937Y185786D02*
X960000Y155723D01*
X833496Y185786D02*
X929937D01*
X918699Y161758D02*
X954730Y125726D01*
X898000Y152500D02*
X918360D01*
X860325Y161758D02*
X918699D01*
X950000Y59549D02*
Y120860D01*
X918360Y152500D02*
X950000Y120860D01*
X745686Y122430D02*
X924824D01*
X574849Y-50000D02*
X925000D01*
X524849Y0D02*
X574849Y-50000D01*
X584588Y-39311D02*
X915689D01*
X515277Y30000D02*
X584588Y-39311D01*
X356500Y30000D02*
X515277D01*
X580135Y-45000D02*
X920000D01*
X510134Y25000D02*
X580135Y-45000D01*
X376900Y25000D02*
X510134D01*
X569968Y-55141D02*
X929429D01*
X519827Y-5000D02*
X569968Y-55141D01*
X408300Y-5000D02*
X519827D01*
X428700Y0D02*
X524849D01*
X390300Y13000D02*
X408300Y-5000D01*
X415700Y13000D02*
X428700Y0D01*
X929429Y-55141D02*
X985000Y430D01*
Y660540D01*
X980000Y5000D02*
Y649540D01*
X925000Y-50000D02*
X980000Y5000D01*
X975000Y10000D02*
Y643866D01*
X920000Y-45000D02*
X975000Y10000D01*
X970000Y15000D02*
Y623000D01*
X915689Y-39311D02*
X970000Y15000D01*
X339500Y13000D02*
X356500Y30000D01*
X364900Y13000D02*
X376900Y25000D01*
X571636Y38807D02*
X769364D01*
X547462Y62981D02*
X571636Y38807D01*
X312019Y62981D02*
X547462D01*
X579852Y47059D02*
X775691D01*
X556911Y70000D02*
X579852Y47059D01*
X415860Y70000D02*
X556911D01*
X388726Y97134D02*
X415860Y70000D01*
X343116Y97134D02*
X388726D01*
X178083Y196917D02*
X312019Y62981D01*
X776671Y31500D02*
X822000D01*
X769364Y38807D02*
X776671Y31500D01*
X775691Y47059D02*
X782750Y40000D01*
X959522Y670018D02*
X980000Y649540D01*
X961522Y684018D02*
X985000Y660540D01*
X960522Y658344D02*
X975000Y643866D01*
X959522Y633478D02*
X970000Y623000D01*
X959522Y633478D02*
Y633522D01*
X859567Y161000D02*
X860325Y161758D01*
X888000Y142500D02*
X898000Y152500D01*
X801250Y142500D02*
X888000D01*
X792530Y151220D02*
X801250Y142500D01*
X829156Y181446D02*
X833496Y185786D01*
X756679Y181446D02*
X829156D01*
X499307Y767018D02*
Y771557D01*
X501485Y773735D01*
X300265Y94255D02*
Y95485D01*
X489500Y346468D02*
Y427500D01*
Y346468D02*
X489750Y346217D01*
Y342282D02*
Y346217D01*
X489500Y342033D02*
X489750Y342282D01*
X489500Y272250D02*
Y342033D01*
X717750Y653500D02*
Y654250D01*
X712592D02*
X717750D01*
X554454Y628848D02*
X569704Y644098D01*
X576502D01*
X579284Y646880D01*
Y650315D01*
X583067Y654098D01*
X586502D01*
X589284Y656880D01*
Y660315D01*
X593067Y664098D01*
X544341Y628895D02*
X549704Y634258D01*
Y640815D01*
X552486Y643598D01*
X559044D01*
X569544Y654098D01*
X576502D01*
X579284Y656880D01*
Y660315D01*
X583067Y664098D01*
X586502D01*
X589284Y666880D01*
Y670784D01*
X592598Y674098D01*
X544341Y638895D02*
X546704Y641258D01*
Y644540D01*
X549091Y646927D01*
Y650202D01*
X552486Y653598D01*
X576154Y663750D02*
X579784Y667380D01*
Y670815D01*
X582567Y673598D01*
X587348D01*
X589784Y676034D01*
Y680815D01*
X554454Y618848D02*
X567817D01*
X572567Y623598D01*
X596098D01*
X599784Y627284D01*
Y630815D01*
X603067Y634098D01*
X626502D01*
X629784Y637380D01*
Y640815D01*
X632567Y643598D01*
X646002D01*
X649784Y647380D01*
Y650815D01*
X652567Y653598D01*
X544341Y648895D02*
X546091Y650645D01*
Y653928D01*
X549091Y656927D01*
Y660202D01*
X552486Y663598D01*
X556421D01*
X552486Y653598D02*
X561848D01*
X572000Y663750D01*
X576154D01*
X556421Y663598D02*
X557323Y664500D01*
X566468D01*
X569784Y667817D01*
Y670815D01*
X573067Y674098D01*
X576502D01*
X579784Y677380D01*
Y680815D01*
X582567Y683598D01*
X583098D01*
X652567Y653598D02*
X678000D01*
X589784Y680815D02*
X592719Y683750D01*
X583098Y683598D02*
X586250Y686750D01*
X680750D01*
X683000Y689000D01*
X678000Y653598D02*
X682652Y658250D01*
X708592D01*
X712592Y654250D01*
X593067Y664098D02*
X712098D01*
X714598Y666598D01*
X592598Y674098D02*
X679652D01*
X684250Y669500D01*
X708782D01*
X712130Y672848D01*
X717598D01*
X720500Y675750D01*
X676250Y683750D02*
X676750Y683250D01*
X690497D01*
X696137Y688890D02*
X696750D01*
X592719Y683750D02*
X676250D01*
X690497Y683250D02*
X696137Y688890D01*
X534435Y778891D02*
X539591Y773735D01*
Y765841D02*
Y773735D01*
X537325Y763575D02*
X539591Y765841D01*
X532467Y763575D02*
X537325D01*
X532043Y764000D02*
X532467Y763575D01*
X522533Y764000D02*
X532043D01*
X519500Y767032D02*
X522533Y764000D01*
X519500Y767032D02*
Y770717D01*
X516483Y773735D02*
X519500Y770717D01*
X501485Y773735D02*
X516483D01*
X496525Y764235D02*
X499307Y767018D01*
X493250Y764235D02*
X496525D01*
X489147Y760133D02*
X493250Y764235D01*
X489147Y756858D02*
Y760133D01*
X486365Y754075D02*
X489147Y756858D01*
X482836Y754075D02*
X486365D01*
X479241Y750480D02*
X482836Y754075D01*
X479241Y746952D02*
Y750480D01*
X476459Y744169D02*
X479241Y746952D01*
X472929Y744169D02*
X476459D01*
X469081Y740321D02*
X472929Y744169D01*
X469081Y737046D02*
Y740321D01*
X466298Y734263D02*
X469081Y737046D01*
X463023Y734263D02*
X466298D01*
X459175Y730415D02*
X463023Y734263D01*
X459175Y726886D02*
Y730415D01*
X456393Y724103D02*
X459175Y726886D01*
X452864Y724103D02*
X456393D01*
X436000Y707240D02*
X452864Y724103D01*
X436000Y703247D02*
Y707240D01*
X406503Y673750D02*
X436000Y703247D01*
X499307Y753669D02*
X504463Y758825D01*
X492589Y753669D02*
X499307D01*
X489807Y750887D02*
X492589Y753669D01*
X489807Y747611D02*
Y750887D01*
X485959Y743763D02*
X489807Y747611D01*
X482430Y743763D02*
X485959D01*
X479647Y740981D02*
X482430Y743763D01*
X479647Y737451D02*
Y740981D01*
X475798Y733603D02*
X479647Y737451D01*
X472523Y733603D02*
X475798D01*
X469741Y730820D02*
X472523Y733603D01*
X469741Y727545D02*
Y730820D01*
X465892Y723697D02*
X469741Y727545D01*
X462364Y723697D02*
X465892D01*
X459175Y720508D02*
X462364Y723697D01*
X459175Y707074D02*
Y720508D01*
X456393Y704291D02*
X459175Y707074D01*
X453117Y704291D02*
X456393D01*
X435250Y686423D02*
X453117Y704291D01*
X435250Y677997D02*
Y686423D01*
X413753Y656500D02*
X435250Y677997D01*
X493000Y160250D02*
X529500Y196750D01*
X531468Y201500D02*
X655468Y77500D01*
X281000Y231000D02*
X307750Y204250D01*
X279500Y357500D02*
X286750Y350250D01*
Y297250D02*
Y350250D01*
X281000Y291500D02*
X286750Y297250D01*
X281000Y231000D02*
Y291500D01*
X282750Y303500D02*
Y343250D01*
X272000Y225500D02*
Y292750D01*
Y225500D02*
X278000Y219500D01*
X272000Y292750D02*
X282750Y303500D01*
X662500Y448250D02*
X662750D01*
X662500D02*
X662680Y448430D01*
X663136D01*
X662750Y448250D02*
X672533Y438467D01*
X168250Y366500D02*
Y375250D01*
X150250Y348500D02*
X168250Y366500D01*
X253500Y186750D02*
Y235000D01*
X221000Y267500D02*
X253500Y235000D01*
X507500Y210500D02*
X516500Y201500D01*
X507500Y210500D02*
Y254250D01*
X516500Y201500D02*
X531468D01*
X392750Y339250D02*
X393162D01*
X489500Y427500D02*
X490750Y428750D01*
X489500Y272250D02*
X507500Y254250D01*
X672533Y416000D02*
Y438467D01*
X648000Y439750D02*
Y443500D01*
Y439750D02*
X655750Y432000D01*
Y416500D02*
Y432000D01*
X628750Y389500D02*
X655750Y416500D01*
X628750Y365000D02*
Y389500D01*
X621500Y357750D02*
X628750Y365000D01*
X774446Y137922D02*
X898672D01*
X906000Y145250D01*
X735386Y238250D02*
X750000Y252864D01*
X763500Y241750D02*
X773500Y251750D01*
X759968Y241750D02*
X763500D01*
X675033Y136750D02*
X689166Y122616D01*
X568250Y219250D02*
X577500D01*
X519000Y208500D02*
X523032D01*
X525783Y205750D01*
X535750D01*
X649500Y92000D01*
X779750Y75500D02*
X783500D01*
X787500Y79500D01*
X655468Y77500D02*
X769000D01*
X775500Y84000D01*
X779500D01*
X577500Y219250D02*
X597000Y199750D01*
X603218D01*
X564500Y225500D02*
X582750D01*
X560500Y221500D02*
X564500Y225500D01*
X675958Y225324D02*
X677926D01*
X731000Y172250D01*
X917000D01*
X938000Y151250D01*
X930168Y175250D02*
X931084Y174334D01*
X564250Y239000D02*
X614250D01*
X150250Y239500D02*
X178083Y211667D01*
X150250Y239500D02*
Y348500D01*
X178083Y196917D02*
Y211667D01*
X649500Y92000D02*
X782500D01*
X787500Y87000D01*
Y79500D02*
Y87000D01*
X526750Y212000D02*
X537250D01*
X564250Y239000D01*
X573000Y203794D02*
X640044Y136750D01*
X573000Y203794D02*
Y214000D01*
X640044Y136750D02*
X675033D01*
X745500Y122616D02*
X745686Y122430D01*
X689166Y122616D02*
X745500D01*
X754750Y175250D02*
X930168D01*
X750000Y252864D02*
Y330250D01*
X756000Y336250D01*
X739500Y371750D02*
X773500Y337750D01*
Y251750D02*
Y337750D01*
X393162Y339250D02*
X415250Y361338D01*
Y403250D01*
X418500Y406500D01*
X253500Y186750D02*
X343116Y97134D01*
X278000Y185782D02*
Y219500D01*
Y185782D02*
X314221Y149561D01*
X510311D01*
X524500Y163750D01*
X307750Y164141D02*
Y204250D01*
Y164141D02*
X318391Y153500D01*
X367917D01*
X374667Y160250D01*
X493000D01*
X279500Y357500D02*
Y549155D01*
X386845Y656500D01*
X413753D01*
X274250Y551041D02*
X396959Y673750D01*
X406503D01*
X274250Y351750D02*
Y551041D01*
Y351750D02*
X282750Y343250D01*
X642791Y257852D02*
X643430D01*
X675958Y225324D01*
X668875Y269250D02*
X756679Y181446D01*
X614250Y239000D02*
X644500Y269250D01*
X668875D01*
X646532Y263763D02*
X666237D01*
X754750Y175250D01*
X582750Y225500D02*
X647250Y161000D01*
X859567D01*
X603218Y199750D02*
X651748Y151220D01*
X792530D01*
X758500Y280750D02*
Y311500D01*
X766750Y319750D01*
X169800Y320150D02*
X183777Y306173D01*
X204067D01*
X210894Y313000D01*
X195200Y294750D02*
X206750D01*
X218750Y306750D01*
X277000D01*
X169800Y294750D02*
X182550Y282000D01*
X244000D01*
X255000Y275000D02*
X264750Y265250D01*
X181150Y258000D02*
X201750D01*
X218750Y275000D01*
X255000D01*
X169800Y269350D02*
X181150Y258000D01*
D46*
X851041Y77333D02*
Y77504D01*
D47*
X475500Y334750D02*
X485000Y344250D01*
X459250Y334750D02*
X475500D01*
X469453Y451203D02*
X541000Y522750D01*
X469453Y368453D02*
Y451203D01*
X489737Y783711D02*
X494557Y778891D01*
X482920Y783711D02*
X489737D01*
X483250Y203750D02*
X489000Y198000D01*
X402570Y863430D02*
Y871180D01*
X355292Y918458D02*
X402570Y871180D01*
X486625Y804125D02*
X489737Y801013D01*
X402570Y863430D02*
X461875Y804125D01*
X486625D01*
X460832Y793918D02*
X466309D01*
X454250Y800500D02*
X460832Y793918D01*
X461543Y798957D02*
X464331D01*
X442375Y818125D02*
X461543Y798957D01*
X411750Y796250D02*
X454043D01*
X288912Y919088D02*
X411750Y796250D01*
X288912Y919088D02*
Y969014D01*
X279092Y905408D02*
X399820Y784680D01*
X406782D01*
X411172Y789070D01*
X441282D01*
X279092Y905408D02*
Y964946D01*
X489737Y796961D02*
Y801013D01*
Y796961D02*
X492561Y794137D01*
X496287D01*
X499643Y790781D01*
Y787055D02*
Y790781D01*
Y787055D02*
X502467Y784231D01*
X515845D01*
X519709Y780368D01*
Y776895D02*
Y780368D01*
Y776895D02*
X522533Y774071D01*
X529349D01*
X534435Y768985D01*
X459245Y787348D02*
Y791048D01*
X454043Y796250D02*
X459245Y791048D01*
X466356Y793871D02*
X476488D01*
X466309Y793918D02*
X466356Y793871D01*
X449605Y783711D02*
X454425Y778891D01*
X446641Y783711D02*
X449605D01*
X532439Y784231D02*
X538735D01*
X529349Y787320D02*
X532439Y784231D01*
X529349Y787320D02*
Y887997D01*
X479680Y844820D02*
Y877470D01*
Y844820D02*
X514369Y810131D01*
Y798957D02*
Y810131D01*
X476540Y843519D02*
Y858358D01*
Y843519D02*
X509549Y810510D01*
Y796961D02*
Y810510D01*
X368000Y959750D02*
Y977638D01*
Y959750D02*
X444820Y882930D01*
Y872218D02*
Y882930D01*
X443930Y871328D02*
X444820Y872218D01*
X443930Y863969D02*
Y871328D01*
Y863969D02*
X455719Y852180D01*
X460922D01*
X499643Y813459D01*
Y796961D02*
Y813459D01*
X539521Y793750D02*
X544220Y789051D01*
X539521Y793750D02*
Y820877D01*
X512373Y794137D02*
X516100D01*
X519709Y790527D01*
Y787055D02*
Y790527D01*
Y787055D02*
X524529Y782234D01*
Y778891D02*
Y782234D01*
X464430Y870468D02*
X476540Y858358D01*
X380692Y964946D02*
X464430Y881208D01*
Y870468D02*
Y881208D01*
X509549Y796961D02*
X512373Y794137D01*
X524529Y789051D02*
Y791721D01*
Y798957D02*
Y866119D01*
X513018Y789051D02*
X514369D01*
X499643Y796961D02*
X502467Y794137D01*
X507932D01*
X513018Y789051D01*
X355292Y990346D02*
X368000Y977638D01*
X561750Y943566D02*
X583130Y964946D01*
X546180Y801196D02*
Y818500D01*
X561750Y834070D02*
Y943566D01*
X546180Y818500D02*
X561750Y834070D01*
X566500Y935000D02*
X580750Y949250D01*
X566500Y817898D02*
Y935000D01*
X554482Y805880D02*
X566500Y817898D01*
X479311Y787320D02*
X482920Y783711D01*
X479311Y787320D02*
Y791048D01*
X476488Y793871D02*
X479311Y791048D01*
X294000Y976000D02*
X304492Y986492D01*
Y990346D01*
X519189Y797061D02*
X524529Y791721D01*
X519189Y797061D02*
Y811561D01*
X503680Y827070D02*
X519189Y811561D01*
X380692Y990346D02*
X396272Y974766D01*
Y960878D02*
Y974766D01*
Y960878D02*
X479680Y877470D01*
X506930Y990346D02*
X516750Y980526D01*
Y950140D02*
Y980526D01*
X501930Y935320D02*
X516750Y950140D01*
X501930Y924968D02*
Y935320D01*
Y924968D02*
X506820Y920078D01*
Y899718D02*
Y920078D01*
X501930Y894828D02*
X506820Y899718D01*
X501930Y888718D02*
Y894828D01*
Y888718D02*
X524529Y866119D01*
X538735Y784231D02*
X544075Y778891D01*
X544341D01*
X544220Y789051D02*
X544341D01*
X522510Y980526D02*
X532330Y990346D01*
X522510Y960878D02*
Y980526D01*
Y960878D02*
X530320Y953068D01*
Y888968D02*
Y953068D01*
X529349Y887997D02*
X530320Y888968D01*
X532330Y964946D02*
X538250Y959026D01*
Y870140D02*
Y959026D01*
X532930Y864820D02*
X538250Y870140D01*
X532930Y827468D02*
Y864820D01*
Y827468D02*
X539521Y820877D01*
X544576Y799592D02*
X546180Y801196D01*
X279092Y978834D02*
Y990346D01*
Y978834D02*
X288912Y969014D01*
X459245Y787348D02*
X462882Y783711D01*
X466328D01*
X471147Y778891D01*
X474491D01*
X441282Y789070D02*
X446641Y783711D01*
X583130Y990346D02*
X596250Y977226D01*
Y957500D02*
Y977226D01*
X588000Y949250D02*
X596250Y957500D01*
X580750Y949250D02*
X588000D01*
X554482Y799592D02*
Y805880D01*
X608530Y990346D02*
X619750Y979126D01*
Y880890D02*
Y979126D01*
X614680Y875820D02*
X619750Y880890D01*
X614680Y865468D02*
Y875820D01*
Y865468D02*
X619750Y860398D01*
Y822750D02*
Y860398D01*
X599307Y802307D02*
X619750Y822750D01*
X599307Y796961D02*
Y802307D01*
X596483Y794137D02*
X599307Y796961D01*
X592757Y794137D02*
X596483D01*
X589307Y790687D02*
X592757Y794137D01*
X589307Y787055D02*
Y790687D01*
X586483Y784231D02*
X589307Y787055D01*
X583010Y784231D02*
X586483D01*
X579307Y780527D02*
X583010Y784231D01*
X579307Y776895D02*
Y780527D01*
X576483Y774071D02*
X579307Y776895D01*
X572757Y774071D02*
X576483D01*
X559321Y760636D02*
X572757Y774071D01*
X559321Y756829D02*
Y760636D01*
X556497Y754005D02*
X559321Y756829D01*
X542345Y754005D02*
X556497D01*
X537524Y758825D02*
X542345Y754005D01*
X534435Y758825D02*
X537524D01*
X601680Y812828D02*
Y862070D01*
X595894Y807180D02*
X596032D01*
X589307Y796961D02*
Y800593D01*
X582757Y794137D02*
X586483D01*
X579307Y787055D02*
Y790687D01*
X573010Y784231D02*
X576483D01*
X559321Y766989D02*
Y770542D01*
X608530Y868920D02*
Y964946D01*
X601680Y862070D02*
X608530Y868920D01*
X596032Y807180D02*
X601680Y812828D01*
X589307Y800593D02*
X595894Y807180D01*
X586483Y794137D02*
X589307Y796961D01*
X579307Y790687D02*
X582757Y794137D01*
X576483Y784231D02*
X579307Y787055D01*
X559321Y770542D02*
X573010Y784231D01*
X556497Y764165D02*
X559321Y766989D01*
X549681Y764165D02*
X556497D01*
X544341Y758825D02*
X549681Y764165D01*
X649070Y810357D02*
Y823070D01*
X654000Y828000D01*
X599307Y750555D02*
X602491Y753739D01*
X596217Y743833D02*
X599307Y746923D01*
Y750555D01*
X602491Y753739D02*
X606217D01*
X609307Y756829D01*
Y760462D01*
X612491Y763645D01*
X615964D01*
X619307Y766989D01*
Y770621D01*
X622491Y773805D01*
X626217D01*
X629307Y776895D01*
Y780527D01*
X632491Y783711D01*
X635964D01*
X639307Y787055D01*
Y800593D01*
X649070Y810357D01*
X767210Y517790D02*
X849547D01*
X767000Y518000D02*
X767210Y517790D01*
X849757Y518000D02*
X904000D01*
X849547Y517790D02*
X849757Y518000D01*
X848247Y520930D02*
X850316Y523000D01*
X844253Y520930D02*
X848247D01*
X842184Y523000D02*
X844253Y520930D01*
X761000Y523000D02*
X842184D01*
X918804Y455054D02*
X936750Y473000D01*
X787380Y455054D02*
X918804D01*
X779091Y463342D02*
X787380Y455054D01*
X765409Y463342D02*
X779091D01*
X764718Y462651D02*
X765409Y463342D01*
X764287Y560277D02*
X764750Y560740D01*
Y560750D01*
X764000Y561500D02*
X764750Y560750D01*
X760000Y561500D02*
X764000D01*
X756500Y565000D02*
X760000Y561500D01*
X756500Y565000D02*
Y590000D01*
X753750Y607000D02*
Y616328D01*
X741500Y594750D02*
X753750Y607000D01*
X706582Y633668D02*
X736750Y603500D01*
X705969Y628848D02*
X732000Y602817D01*
X696750Y624000D02*
X728250Y592500D01*
X529349Y707045D02*
Y710771D01*
X526006Y703701D02*
X529349Y707045D01*
X522533Y703701D02*
X526006D01*
X519709Y700878D02*
X522533Y703701D01*
X519709Y697404D02*
Y700878D01*
X516366Y694061D02*
X519709Y697404D01*
X512812Y694061D02*
X516366D01*
X499643Y680891D02*
X512812Y694061D01*
X499643Y677165D02*
Y680891D01*
X496553Y674075D02*
X499643Y677165D01*
X492920Y674075D02*
X496553D01*
X489737Y670891D02*
X492920Y674075D01*
X489737Y667419D02*
Y670891D01*
X486394Y664075D02*
X489737Y667419D01*
X472854Y664075D02*
X486394D01*
X467674Y658895D02*
X472854Y664075D01*
X464331Y658895D02*
X467674D01*
X459436Y654000D02*
X464331Y658895D01*
X436000Y654000D02*
X459436D01*
X430070Y648070D02*
X436000Y654000D01*
X409172Y648070D02*
X430070D01*
X400602Y639500D02*
X409172Y648070D01*
X532439Y703701D02*
X535911D01*
X529615Y700878D02*
X532439Y703701D01*
X529615Y697150D02*
Y700878D01*
X526525Y694061D02*
X529615Y697150D01*
X522719Y694061D02*
X526525D01*
X509549Y680891D02*
X522719Y694061D01*
X509549Y677165D02*
Y680891D01*
X506460Y674075D02*
X509549Y677165D01*
X502826Y674075D02*
X506460D01*
X499643Y670891D02*
X502826Y674075D01*
X499643Y667165D02*
Y670891D01*
X496553Y664075D02*
X499643Y667165D01*
X492920Y664075D02*
X496553D01*
X489737Y660891D02*
X492920Y664075D01*
X489737Y657419D02*
Y660891D01*
X524529Y585712D02*
X529615Y580625D01*
Y576898D02*
Y580625D01*
Y576898D02*
X530750Y575764D01*
X461102Y482352D02*
Y516293D01*
X466860Y492860D02*
Y517610D01*
X748500Y610750D02*
Y616500D01*
X741820Y623180D02*
X748500Y616500D01*
X731070Y623180D02*
X741820D01*
X825816Y594250D02*
X839684D01*
X825747Y594180D02*
X825816Y594250D01*
X821753Y594180D02*
X825747D01*
X821684Y594250D02*
X821753Y594180D01*
X715500Y638750D02*
X731070Y623180D01*
X567348Y608848D02*
X572528Y614028D01*
X554454Y608848D02*
X567348D01*
X745930Y624148D02*
X753750Y616328D01*
X552457Y673668D02*
X559714D01*
X883539Y600750D02*
X886000D01*
X881233Y598444D02*
X883539Y600750D01*
X877240Y598444D02*
X881233D01*
X875863Y599820D02*
X877240Y598444D01*
X824570Y599820D02*
X875863D01*
X823750Y599000D02*
X824570Y599820D01*
X737862Y619388D02*
X743000Y614250D01*
X733571Y619388D02*
X737862D01*
X733434Y619250D02*
X733571Y619388D01*
X726750Y619250D02*
X733434D01*
X706570Y639430D02*
X726750Y619250D01*
X549634Y670844D02*
X552457Y673668D01*
X477580Y608895D02*
X482761Y614075D01*
X496553D02*
X499643Y617164D01*
X482761Y614075D02*
X496553D01*
X499643Y617164D02*
Y620891D01*
X502826Y624075D01*
X506460D01*
X509549Y627164D01*
Y630891D01*
X512733Y634075D01*
X516366D01*
X519709Y637419D01*
Y640891D01*
X522892Y644075D01*
X526525D01*
X529615Y647165D01*
Y650891D01*
X532799Y654075D01*
X536432D01*
X539521Y657165D01*
Y660891D01*
X542705Y664075D01*
X546338D01*
X549634Y667371D01*
Y670844D01*
X474491Y608895D02*
X477580D01*
X502779Y654028D02*
X506412D01*
X529615Y677165D02*
Y680891D01*
X526525Y674075D02*
X529615Y677165D01*
X522892Y674075D02*
X526525D01*
X519709Y670891D02*
X522892Y674075D01*
X519709Y667419D02*
Y670891D01*
X516366Y664075D02*
X519709Y667419D01*
X512733Y664075D02*
X516366D01*
X509549Y660891D02*
X512733Y664075D01*
X509549Y657165D02*
Y660891D01*
X506412Y654028D02*
X509549Y657165D01*
X579500Y572000D02*
X590140Y561360D01*
Y539390D02*
Y561360D01*
X589250Y538500D02*
X590140Y539390D01*
X574534Y567216D02*
Y578848D01*
X904044Y583279D02*
Y584044D01*
X904500Y584500D01*
X902500Y586500D02*
X904500Y584500D01*
X883750Y586500D02*
X902500D01*
X880070Y590180D02*
X883750Y586500D01*
X843754Y590180D02*
X880070D01*
X839684Y594250D02*
X843754Y590180D01*
X611750Y573250D02*
X617243D01*
X658680Y557570D02*
Y567570D01*
X649714Y576536D02*
X658680Y567570D01*
X649714Y576536D02*
Y581786D01*
X647500Y584000D02*
X649714Y581786D01*
X659750Y574250D02*
Y576780D01*
X703750Y588500D02*
X711750D01*
X688500Y603750D02*
X703750Y588500D01*
X652000Y603750D02*
X688500D01*
X649714Y601464D02*
X652000Y603750D01*
X649714Y594028D02*
Y601464D01*
X644534Y588848D02*
X649714Y594028D01*
X659714Y576815D02*
X659750Y576780D01*
X659714Y576815D02*
Y583668D01*
X654534Y588848D02*
X659714Y583668D01*
X669714Y575536D02*
Y590484D01*
X666171Y594028D02*
X669714Y590484D01*
X662538Y594028D02*
X666171D01*
X657718Y598848D02*
X662538Y594028D01*
X654534Y598848D02*
X657718D01*
X661000Y416309D02*
Y435750D01*
X656750Y412059D02*
X661000Y416309D01*
X635750Y436250D02*
Y517500D01*
X630750Y416180D02*
Y515000D01*
X626000Y422000D02*
Y426750D01*
X621570Y431180D02*
X626000Y426750D01*
X603000Y439000D02*
Y513000D01*
X767000Y495000D02*
X773140D01*
X574534Y608848D02*
X579500Y603882D01*
X584534Y575818D02*
X596500Y563852D01*
X584534Y575818D02*
Y578848D01*
X589500Y576750D02*
X600750Y565500D01*
X599714Y572750D02*
Y584028D01*
X604750Y554250D02*
Y567714D01*
X599714Y572750D02*
X604750Y567714D01*
X589500Y576750D02*
Y584000D01*
X594348Y588848D01*
X594534D01*
X599714Y584028D02*
X604534Y588848D01*
X609714Y575286D02*
Y594028D01*
X614534Y598848D01*
X608250Y569250D02*
X616000D01*
X604534Y572966D02*
X608250Y569250D01*
X604534Y572966D02*
Y578848D01*
X609714Y575286D02*
X611750Y573250D01*
X476488Y574075D02*
X479311Y576898D01*
X471395Y578895D02*
X474491D01*
X552774Y577168D02*
X554454Y578848D01*
X761500Y408000D02*
X768184D01*
X674534Y628848D02*
X705969D01*
X908774Y415250D02*
X908794Y415270D01*
X509549Y603715D02*
X514369Y598895D01*
X475180Y480180D02*
X480000Y485000D01*
X468004Y480180D02*
X475180D01*
X470000Y485000D02*
Y496000D01*
X519709Y590891D02*
X522817Y594000D01*
X534105Y588895D02*
X534435D01*
X524529Y585712D02*
Y588895D01*
X904000Y518000D02*
X905000Y519000D01*
X514000Y578526D02*
X514369Y578895D01*
X776000Y502991D02*
Y505000D01*
X908000Y498000D02*
Y498997D01*
X907998Y498999D02*
X908000Y498997D01*
X458756Y573320D02*
X464331Y578895D01*
X356000Y204000D02*
X361000Y209000D01*
X445895Y578895D02*
X454425D01*
X479577Y587164D02*
Y590891D01*
X482761Y594075D01*
X444000Y577000D02*
X445895Y578895D01*
X368000Y213000D02*
Y217000D01*
X461241Y598895D02*
X464331D01*
X456422Y594075D02*
X461241Y598895D01*
X390000Y288000D02*
X393000Y285000D01*
X385000Y289000D02*
Y309000D01*
X361000Y209000D02*
Y218000D01*
X356000Y211000D02*
Y221000D01*
X441925Y594075D02*
X456422D01*
X356000Y221000D02*
X360000Y225000D01*
X361000Y218000D02*
X366000Y223000D01*
X368000Y217000D02*
X372000Y221000D01*
X484397Y585712D02*
Y588895D01*
X486597Y570935D02*
X494557Y578895D01*
X479311Y580625D02*
X484397Y585712D01*
X440817Y583715D02*
X476128D01*
X479577Y587164D01*
X479311Y576898D02*
Y580625D01*
X465000Y483184D02*
X468004Y480180D01*
X465000Y483184D02*
Y491000D01*
X466860Y492860D01*
X360000Y225000D02*
Y275500D01*
X366000Y223000D02*
Y277000D01*
X365500Y286250D02*
X372000Y279750D01*
Y221000D02*
Y279750D01*
X370250Y289000D02*
X462750Y196500D01*
X522817Y594000D02*
X529000D01*
X534105Y588895D01*
X539255Y593255D02*
X544341Y598341D01*
Y598895D01*
X470000Y496000D02*
X485750Y511750D01*
X474999Y489999D02*
X478815D01*
X656750Y392000D02*
Y412059D01*
X390000Y288000D02*
Y299750D01*
X443718Y558680D02*
X451180D01*
X471395Y578895D01*
X600750Y553000D02*
Y565500D01*
X764000Y419000D02*
X768750D01*
X664534Y618848D02*
Y619534D01*
X669000Y624000D01*
X529330Y604000D02*
X534435Y598895D01*
X522817Y604000D02*
X529330D01*
X519709Y600891D02*
X522817Y604000D01*
X519709Y597419D02*
Y600891D01*
X516366Y594075D02*
X519709Y597419D01*
X482761Y594075D02*
X496575D01*
X501395Y598895D01*
X504463D01*
X498250Y559000D02*
X509549Y570299D01*
X504463Y572963D02*
Y578895D01*
X479750Y562750D02*
X494250D01*
X504463Y572963D01*
X490750Y567000D02*
X499500Y575750D01*
X452500Y554750D02*
X471825Y574075D01*
X476488D01*
X453250Y550000D02*
X474185Y570935D01*
X486597D01*
X475398Y567000D02*
X490750D01*
X455625Y486625D02*
Y518625D01*
X451500Y496500D02*
Y521500D01*
X435000Y480000D02*
X451500Y496500D01*
X435000Y368000D02*
Y480000D01*
X381000Y314000D02*
X435000Y368000D01*
X429250Y482250D02*
X447500Y500500D01*
X429250Y456000D02*
Y482250D01*
X556750Y573476D02*
X559274Y576000D01*
X579500Y572000D02*
Y603882D01*
X891750Y503000D02*
X902000D01*
X762538Y508646D02*
X764354D01*
X764820Y513180D02*
X768997D01*
X764181Y513819D02*
X764820Y513180D01*
X898568Y401068D02*
X906250Y408750D01*
X890183Y409500D02*
X891983Y411300D01*
X900800D01*
X904750Y415250D01*
X908774D01*
X474491Y628895D02*
X479671Y634075D01*
X486394D01*
X489217Y636898D01*
Y640371D01*
X492920Y644075D01*
X496553D01*
X499377Y646898D01*
Y650626D01*
X502779Y654028D01*
X765247Y433930D02*
X767887Y436570D01*
X897184Y423000D02*
X898253Y424070D01*
X902246D01*
X903316Y423000D01*
X906750D01*
X861000D02*
X897184D01*
X868750Y409500D02*
X890183D01*
X855932Y401068D02*
X898568D01*
X762500Y574250D02*
X763500Y573250D01*
X906430Y572430D02*
X907250Y573250D01*
X469311Y613715D02*
X474491Y618895D01*
X322180Y391003D02*
Y394996D01*
Y391003D02*
X328000Y385183D01*
X432434Y628500D02*
X437004Y623930D01*
X489522D01*
X494557Y618895D01*
X418032Y633430D02*
X418677Y634075D01*
X456422D01*
X459245Y636898D01*
Y643809D01*
X464331Y648895D01*
X486034Y653715D02*
X489737Y657419D01*
X768750Y555250D02*
X779250D01*
X789000Y558000D02*
X800500D01*
X809000Y566500D01*
X779250Y555250D02*
X781320Y553180D01*
X862570Y578750D02*
X887680D01*
X894000Y572430D01*
X906430D01*
X892500Y568430D02*
X909247D01*
X762000Y545750D02*
X762326Y545424D01*
X778869D01*
X779042Y545596D01*
X786470D01*
X823567Y573250D02*
X837137Y586820D01*
X854500D01*
X862570Y578750D01*
X763500Y573250D02*
X823567D01*
X809000Y566500D02*
X827500D01*
X833430Y572430D01*
X888500D01*
X781320Y553180D02*
X840363D01*
X842754Y555570D01*
X786470Y545596D02*
X787567Y544500D01*
X905750D01*
X788750Y536500D02*
X790820Y538570D01*
X889180D02*
X893250Y534500D01*
X790820Y538570D02*
X889180D01*
X634534Y618848D02*
X637718D01*
X642538Y614028D01*
X659000Y371250D02*
X669000D01*
X526067Y557750D02*
X530750Y562434D01*
Y575764D01*
X479000Y497000D02*
X489625Y507625D01*
X565070Y589384D02*
X574534Y598848D01*
X624534Y597966D02*
Y598848D01*
Y597966D02*
X629714Y592786D01*
Y586566D02*
Y592786D01*
Y586566D02*
X632711Y583569D01*
X634534Y588848D02*
X637652D01*
X642500Y584000D01*
X647500D01*
X632711Y583569D02*
X637181D01*
X639714Y581036D01*
Y576851D02*
Y581036D01*
Y576851D02*
X642538Y574028D01*
X642972D01*
X647750Y569250D01*
X667400Y552660D02*
X673533Y546527D01*
X649500Y515345D02*
X657852Y523697D01*
X659750Y574250D02*
X663000Y571000D01*
X668500D01*
X686820Y552680D01*
X658680Y557570D02*
X663590Y552660D01*
X667400D01*
X670250Y447500D02*
X671750Y449000D01*
X716468Y555605D02*
X716750Y555886D01*
X678000Y480750D02*
X716468Y519218D01*
Y555605D01*
X671750Y449000D02*
Y482500D01*
X690180Y500930D01*
X692930D01*
X706250Y514250D01*
Y520250D01*
X699250Y527250D02*
X706250Y520250D01*
X699250Y527250D02*
Y540250D01*
X713320Y554320D01*
X674534Y588848D02*
X674882Y588500D01*
X669000Y500250D02*
X680500D01*
X690000Y509750D01*
Y521750D01*
X693000Y524750D01*
X686820Y512320D02*
Y552680D01*
X681250Y506750D02*
X686820Y512320D01*
X666032Y506750D02*
X681250D01*
X661282Y502000D02*
X666032Y506750D01*
X661282Y496524D02*
Y502000D01*
X665750Y546750D02*
X677250Y535250D01*
Y527250D02*
Y535250D01*
X672103Y522103D02*
X677250Y527250D01*
X672103Y516141D02*
Y522103D01*
X666712Y510750D02*
X672103Y516141D01*
X661000Y510750D02*
X666712D01*
X654500Y504250D02*
X661000Y510750D01*
X608320Y518320D02*
Y545430D01*
X603000Y513000D02*
X608320Y518320D01*
X600750Y553000D02*
X608320Y545430D01*
X604750Y554250D02*
X621570Y537430D01*
X624710Y521040D02*
X630750Y515000D01*
X624710Y536210D02*
X628250Y539750D01*
X624710Y521040D02*
Y523438D01*
X624680Y523468D02*
X624710Y523438D01*
X624680Y523468D02*
Y529532D01*
X624710Y529562D01*
Y536210D01*
X621540Y522167D02*
X621570Y522137D01*
X621540Y522167D02*
Y530833D01*
X621570Y530863D01*
Y537430D01*
X780907Y498084D02*
X784900D01*
X776000Y502991D02*
X780907Y498084D01*
X812250Y484250D02*
X813710Y482790D01*
X774250Y484000D02*
X774500Y484250D01*
X812250D01*
X845413Y431021D02*
X846504Y429930D01*
X669000Y371250D02*
X678000Y380250D01*
Y480750D01*
X672250Y381500D02*
Y396500D01*
X667000Y376250D02*
X672250Y381500D01*
X656750Y376250D02*
X667000D01*
X572000Y300750D02*
X618250D01*
X641430Y323930D01*
X615320Y305570D02*
X634500Y324750D01*
X570004Y305570D02*
X615320D01*
X567180Y302747D02*
X570004Y305570D01*
X567180Y302180D02*
Y302747D01*
X530250Y265250D02*
X567180Y302180D01*
X530250Y229250D02*
Y265250D01*
X513775Y213010D02*
X514010D01*
X530250Y229250D01*
X898000Y382000D02*
X905000Y389000D01*
X498750Y435250D02*
Y473066D01*
Y435250D02*
X604500Y329500D01*
X621282Y318283D02*
X622500Y319501D01*
X619750Y318283D02*
X619999D01*
X621282D01*
X717250Y471993D02*
X755313Y433930D01*
X717250Y471993D02*
Y493500D01*
X755313Y433930D02*
X765247D01*
X734500Y468750D02*
X779750D01*
X589250Y427000D02*
X594000Y422250D01*
X463433Y203750D02*
X483250D01*
X789038Y466773D02*
X857523D01*
X860750Y470000D01*
X762283Y477217D02*
Y481750D01*
Y477217D02*
X765820Y473680D01*
X813113D01*
X816504Y477070D01*
X821364D01*
X826254Y472180D01*
X830247D01*
X833066Y475000D01*
X782904Y502904D02*
X784500Y504500D01*
X890250D01*
X891750Y503000D01*
X882522Y513820D02*
X883047Y514345D01*
X823019Y513820D02*
X823544Y514345D01*
X827537D01*
X828062Y513820D01*
X882522D01*
X788035Y514345D02*
X788560Y513820D01*
X823019D01*
X770161Y514345D02*
X788035D01*
X883047D02*
X898655D01*
X768997Y513180D02*
X770161Y514345D01*
X898655D02*
X900000Y513000D01*
X784900Y498084D02*
X787816Y501000D01*
X881750D01*
X856540Y482790D02*
X860500Y486750D01*
X813710Y482790D02*
X856540D01*
X903000Y498000D02*
X908000D01*
X905750Y465750D02*
X907750Y467750D01*
X866000Y465750D02*
X905750D01*
X833066Y475000D02*
X889000D01*
X897500Y483500D01*
X902250Y492000D02*
X906000D01*
X897500Y483500D02*
X904000D01*
X905750Y485250D01*
X390000Y299750D02*
X451750Y361500D01*
Y473000D01*
X461102Y482352D01*
X385000Y309000D02*
X439750Y363750D01*
Y470750D01*
X455625Y486625D01*
X850316Y523000D02*
X891500D01*
X625750Y411180D02*
X630750Y416180D01*
X619930Y411180D02*
X625750D01*
X620000Y416000D02*
X626000Y422000D01*
X619999Y317000D02*
Y318283D01*
Y317000D02*
X621282Y318283D01*
X774817Y373250D02*
X783000D01*
X770996Y369430D02*
X774817Y373250D01*
X389750Y361750D02*
Y368000D01*
X381250Y376500D02*
X389750Y368000D01*
X328000Y302000D02*
Y385183D01*
X724180Y471570D02*
Y493180D01*
Y471570D02*
X746750Y449000D01*
X762500D01*
X717250Y493500D02*
X725250Y501500D01*
X724180Y493180D02*
X729000Y498000D01*
X763250Y438750D02*
X763430D01*
X768250Y443570D01*
X819070D01*
X857799Y426201D02*
X861000Y423000D01*
X897000Y486750D02*
X902250Y492000D01*
X895000Y490000D02*
X903000Y498000D01*
X860500Y486750D02*
X897000D01*
X856500Y490000D02*
X895000D01*
X881750Y501000D02*
X882250Y500500D01*
Y498750D02*
Y500500D01*
X698750Y654028D02*
X698792Y654070D01*
X708430D02*
X715500Y647000D01*
X698792Y654070D02*
X708430D01*
X715500Y638750D02*
Y647000D01*
X569250Y583695D02*
X574402Y588848D01*
X584820Y542820D02*
X586750Y544750D01*
Y555000D01*
X574534Y567216D02*
X586750Y555000D01*
X593500Y532000D02*
X596500Y535000D01*
Y563852D01*
X845820Y411180D02*
X855932Y401068D01*
X831613Y411180D02*
X831753Y411320D01*
X835747D01*
X835887Y411180D01*
X845820D01*
X355292Y918458D02*
Y964946D01*
X536245Y754005D02*
X539255Y750995D01*
X375000Y292183D02*
X463433Y203750D01*
X302750Y417497D02*
X303038Y417785D01*
Y421778D01*
X302750Y422066D02*
X303038Y421778D01*
X302750Y308500D02*
Y417497D01*
X307538Y362892D02*
X321000Y349430D01*
X296000Y232750D02*
X300500D01*
X302750Y308500D02*
X317000Y294250D01*
X539255Y746745D02*
X542167Y743833D01*
X539255Y746745D02*
Y750995D01*
X542167Y743833D02*
X596217D01*
X529349Y710771D02*
X532705Y714127D01*
X536432D01*
X539255Y716951D01*
Y720677D01*
X542345Y723767D01*
X697665D01*
X701468Y727570D01*
X732680D01*
X748250Y712000D01*
Y706250D02*
Y712000D01*
X539521Y707310D02*
Y711038D01*
X542611Y714127D01*
X698771D01*
X700718Y712180D01*
X535911Y703701D02*
X539521Y707310D01*
X538474Y689750D02*
X554000D01*
X568471Y704221D02*
X596483D01*
X596512Y704250D01*
X602462D01*
X602491Y704221D01*
X697869D01*
X700718Y707070D01*
X710680D01*
X529615Y680891D02*
X538474Y689750D01*
X554000D02*
X568471Y704221D01*
X710680Y707070D02*
X731430Y686320D01*
X751000Y643250D02*
Y663500D01*
X731430Y682468D02*
X735718Y678180D01*
X736320D01*
X751000Y663500D01*
X731430Y682468D02*
Y686320D01*
X700500Y692000D02*
X719000D01*
X728290Y682710D01*
Y681167D02*
Y682710D01*
Y681167D02*
X739648Y669809D01*
X739941D01*
X745930Y663820D01*
Y624148D02*
Y663820D01*
X584534Y608848D02*
X587718D01*
X592538Y604028D01*
X596531D01*
X599714Y607211D01*
Y610844D01*
X602898Y614028D01*
X626531D01*
X629354Y616851D01*
Y620484D01*
X632898Y624028D01*
X656531D01*
X659714Y627211D01*
X572528Y614028D02*
X596531D01*
X599354Y616851D01*
Y620484D01*
X602538Y623668D01*
X626171D01*
X629714Y627211D01*
Y630844D01*
X632898Y634028D01*
X646531D01*
X649714Y637211D01*
Y640844D01*
X652538Y643668D01*
X439000Y597000D02*
X441925Y594075D01*
X439032Y581930D02*
X440817Y583715D01*
X443648Y558750D02*
X443718Y558680D01*
X452535Y603715D02*
X509549D01*
X438500Y603000D02*
X442605Y598895D01*
X454425D01*
X447250Y609000D02*
X452535Y603715D01*
X450465Y612930D02*
X451250Y613715D01*
X469311D01*
X464331Y648895D02*
X464851D01*
X469671Y653715D01*
X486034D01*
X512733Y594075D02*
X516366D01*
X509549Y590891D02*
X512733Y594075D01*
X514369Y585619D02*
Y588895D01*
X509549Y580891D02*
X512373Y583715D01*
X512465D01*
X514369Y585619D01*
X509549Y570299D02*
Y580891D01*
X506215Y583715D02*
X509549Y587049D01*
X502467Y583715D02*
X506215D01*
X499501Y580750D02*
X502467Y583715D01*
X499500Y580750D02*
X499501D01*
X509549Y587049D02*
Y590891D01*
X499500Y575750D02*
Y580750D01*
X559274Y576000D02*
Y594028D01*
X554454Y598848D02*
X559274Y594028D01*
X556750Y560559D02*
Y573476D01*
X552774Y562274D02*
Y577168D01*
X544341Y565341D02*
Y578895D01*
X489625Y507625D02*
Y529875D01*
X517500Y557750D01*
X526067D01*
X485750Y511750D02*
Y531067D01*
X524529Y569846D02*
Y578895D01*
X485750Y531067D02*
X524529Y569846D01*
X447500Y500500D02*
Y539102D01*
X475398Y567000D01*
X519709Y570416D02*
Y590891D01*
X466860Y517610D02*
X488790Y539540D01*
X488833D01*
X519709Y570416D01*
X461102Y516293D02*
X487489Y542680D01*
X514000Y569148D02*
Y578526D01*
X487489Y542680D02*
X487532D01*
X514000Y569148D01*
X455625Y518625D02*
X477180Y540180D01*
X451500Y521500D02*
X473000Y543000D01*
Y556000D02*
X479750Y562750D01*
X483148Y559000D02*
X498250D01*
X473000Y543000D02*
Y556000D01*
X477180Y553032D02*
X483148Y559000D01*
X477180Y540180D02*
Y553032D01*
X700718Y712180D02*
X736172D01*
X884500Y643250D02*
Y643750D01*
X664534Y628848D02*
X666848D01*
X671668Y633668D01*
X659714Y627211D02*
Y630844D01*
X662538Y633668D01*
X666171D01*
X669714Y637211D01*
X652538Y643668D02*
X666418D01*
X669714Y640844D02*
X672538Y643668D01*
X669714Y637211D02*
Y640844D01*
X670000Y647250D02*
X679972D01*
X686750Y654028D01*
X666418Y643668D02*
X670000Y647250D01*
X686750Y654028D02*
X698750D01*
X559714Y673668D02*
X580047Y694000D01*
X680183D01*
X681254Y695070D01*
X697430D01*
X700500Y692000D01*
X509549Y756829D02*
X512373Y754005D01*
X536245D01*
X504463Y768985D02*
X509549Y763899D01*
Y756829D02*
Y763899D01*
X716750Y392750D02*
X717184D01*
X667674Y398741D02*
Y437076D01*
X661750Y382000D02*
Y392817D01*
X667674Y398741D01*
X712750Y495000D02*
X722750Y505000D01*
X708750Y438000D02*
Y498125D01*
X719625Y509000D01*
X703500Y483250D02*
Y500250D01*
X717000Y513750D01*
X360500Y282500D02*
X366000Y277000D01*
X603000Y439000D02*
X619000Y423000D01*
X716750Y555886D02*
Y592250D01*
X713500Y595500D02*
X716750Y592250D01*
X642538Y614028D02*
X685222D01*
X703750Y595500D01*
X713500D01*
X843500Y691250D02*
X846000D01*
X888500Y572430D02*
X892500Y568430D01*
X878113Y496070D02*
X880254Y493930D01*
X891930D01*
X893000Y495000D01*
X816557Y496070D02*
X878113D01*
X816254Y485930D02*
X852430D01*
X856500Y490000D01*
X787500Y461000D02*
X861250D01*
X779750Y468750D02*
X787500Y461000D01*
X861250D02*
X866000Y465750D01*
X892301Y444250D02*
X898250D01*
X905250Y437250D01*
X894680Y439570D02*
X904250Y430000D01*
X877514Y439570D02*
X894680D01*
X692180Y403110D02*
X712750Y423680D01*
Y495000D01*
X687250Y416500D02*
X708750Y438000D01*
X683250Y463000D02*
X703500Y483250D01*
X669714Y575536D02*
X693000Y552250D01*
Y524750D02*
Y552250D01*
X672538Y643668D02*
X696762D01*
X701000Y639430D01*
X706570D01*
X671668Y633668D02*
X679918D01*
X702322D02*
X706582D01*
X685820Y639570D02*
X696419D01*
X679918Y633668D02*
X685820Y639570D01*
X696419D02*
X702322Y633668D01*
X589250Y427000D02*
Y538500D01*
X593500Y430000D02*
Y532000D01*
X594000Y416750D02*
Y422250D01*
X593500Y416250D02*
X594000Y416750D01*
X559750Y442000D02*
X563000D01*
X210894Y313000D02*
X258000D01*
X288000Y240750D02*
X296000Y232750D01*
X298500Y300000D02*
Y354441D01*
X289356Y363585D02*
X298500Y354441D01*
Y300000D02*
X311750Y286750D01*
X285000Y360000D02*
X292750Y352250D01*
Y296750D02*
Y352250D01*
X288000Y292000D02*
X292750Y296750D01*
X288000Y240750D02*
Y292000D01*
X327000Y198000D02*
X334820Y205820D01*
X311750Y235250D02*
Y286750D01*
X338750Y245250D02*
X355000Y229000D01*
X342750Y472250D02*
X351570Y481070D01*
X342750Y284250D02*
Y472250D01*
Y284250D02*
X354000Y273000D01*
X347500Y288000D02*
X360000Y275500D01*
X370250Y382500D02*
X385820Y398070D01*
X370250Y289000D02*
Y382500D01*
X365500Y388000D02*
X372375Y394875D01*
X365500Y286250D02*
Y388000D01*
X360500Y282500D02*
Y389875D01*
X367375Y396750D01*
X375000Y292183D02*
Y380250D01*
X382500Y387750D01*
X397250D01*
X621570Y431180D02*
Y446254D01*
X622070Y446754D01*
Y450746D01*
X621570Y451246D02*
X622070Y450746D01*
X621570Y451246D02*
Y522137D01*
X643000Y437000D02*
Y512500D01*
X657500Y447250D02*
Y490750D01*
X654500Y493750D02*
X657500Y490750D01*
Y447250D02*
X667674Y437076D01*
X654500Y493750D02*
Y504250D01*
X653375Y443375D02*
Y487125D01*
X649500Y491000D02*
X653375Y487125D01*
Y443375D02*
X661000Y435750D01*
X649500Y491000D02*
Y515345D01*
X635750Y436250D02*
X645282Y426718D01*
Y420250D02*
Y426718D01*
X643000Y437000D02*
X651000Y429000D01*
X618250Y399750D02*
X633000D01*
X651000Y417750D01*
Y429000D01*
X593500Y430000D02*
X599250Y424250D01*
X607250Y398500D02*
X619930Y411180D01*
X599250Y358250D02*
Y424250D01*
Y358250D02*
X614500Y343000D01*
X607250Y357066D02*
X619999Y344317D01*
Y318283D02*
Y344317D01*
X634500Y354000D02*
X656750Y376250D01*
X634500Y324750D02*
Y354000D01*
X641430Y323930D02*
Y353680D01*
X659000Y371250D01*
X697000Y351250D02*
Y388250D01*
X543500Y248000D02*
X543640Y247860D01*
X599860D01*
X537000Y254000D02*
X599750D01*
X697000Y351250D01*
X653750Y328000D02*
X683250Y357500D01*
X646250Y328000D02*
X653750D01*
X769000Y388000D02*
X777250Y396250D01*
X769000Y374250D02*
Y388000D01*
X729250Y377250D02*
X756930D01*
X764750Y369430D01*
X599860Y247860D02*
X729250Y377250D01*
X764750Y369430D02*
X770996D01*
X533500Y218000D02*
X533750D01*
X559250Y243500D01*
X603250D01*
X637750Y278000D01*
X648750D01*
X589000Y260500D02*
X599250D01*
X594750Y267250D02*
X598816D01*
X304492Y940508D02*
Y964946D01*
Y940508D02*
X426875Y818125D01*
X442375D01*
X294000Y925000D02*
Y976000D01*
Y925000D02*
X418500Y800500D01*
X454250D01*
X503680Y856828D02*
X504570Y857718D01*
Y863782D01*
X503680Y864672D02*
X504570Y863782D01*
X503680Y864672D02*
Y867527D01*
X491930Y879277D02*
X503680Y867527D01*
Y827070D02*
Y856828D01*
X491930Y879277D02*
Y949946D01*
X506930Y964946D01*
X322180Y394996D02*
X326570Y399386D01*
Y457500D01*
X814500Y388250D02*
X894750D01*
X904250Y397750D01*
X717184Y392750D02*
X750635Y426201D01*
X599250Y260500D02*
X692180Y353430D01*
Y403110D01*
X598816Y267250D02*
X687250Y355684D01*
X683250Y357500D02*
Y463000D01*
X687250Y355684D02*
Y416500D01*
X607250Y357066D02*
Y398500D01*
X846504Y429930D02*
X867874D01*
X877514Y439570D01*
X819070Y443570D02*
X824250Y448750D01*
X887801D01*
X892301Y444250D01*
X860750Y470000D02*
X900750D01*
X933750Y503000D01*
X943000D01*
X779140Y489000D02*
X813184D01*
X773140Y495000D02*
X779140Y489000D01*
X813184D02*
X816254Y485930D01*
X780000Y493000D02*
X813487D01*
X816557Y496070D01*
X764354Y508646D02*
X780000Y493000D01*
X772288Y539026D02*
X783314Y528000D01*
X826540D01*
X842754Y555570D02*
X877680D01*
X879000Y554250D01*
X821750Y561000D02*
X823250Y559500D01*
X888138D01*
X892000Y555638D01*
X909247Y568430D02*
X913000Y572183D01*
Y614750D01*
X884500Y643250D02*
X913000Y614750D01*
X892000Y555638D02*
X903638D01*
X917250Y569250D01*
Y620000D01*
X846000Y691250D02*
X917250Y620000D01*
X462750Y196500D02*
X481000D01*
X717000Y513750D02*
X721500D01*
X728250Y520500D01*
Y592500D01*
X719625Y509000D02*
X723250D01*
X732000Y517750D01*
Y602817D01*
X722750Y505000D02*
X725500D01*
X736750Y516250D01*
Y603500D01*
X725250Y501500D02*
X730000D01*
X741500Y513000D01*
Y594750D01*
X729000Y498000D02*
X734000D01*
X745750Y509750D01*
Y593250D01*
X729000Y490000D02*
X732500D01*
X756319Y513819D01*
X764181D01*
X758500Y555250D02*
X768750D01*
X752000Y561750D02*
X758500Y555250D01*
X764000Y589250D02*
X769000Y594250D01*
X821684D01*
X752000Y561750D02*
Y592000D01*
X745750Y593250D02*
X761750Y609250D01*
Y632500D01*
X751000Y643250D02*
X761750Y632500D01*
X752000Y592000D02*
X770750Y610750D01*
Y677602D01*
X736172Y712180D02*
X770750Y677602D01*
X756500Y590000D02*
X775750Y609250D01*
Y678750D01*
X748250Y706250D02*
X775750Y678750D01*
X669000Y624000D02*
X696750D01*
X674882Y588500D02*
X692750D01*
X713320Y567930D01*
Y554320D02*
Y567930D01*
X616000Y569250D02*
X628250Y557000D01*
Y539750D02*
Y557000D01*
X617243Y573250D02*
X632000Y558493D01*
Y539250D02*
Y558493D01*
X614534Y578848D02*
X616086D01*
X635140Y559794D01*
X623750Y578750D02*
X638750Y563750D01*
X647750Y559250D02*
Y569250D01*
Y559250D02*
X660250Y546750D01*
X665750D01*
X643750Y555250D02*
X661000Y538000D01*
X643750Y555250D02*
Y567000D01*
X633999Y576751D02*
X643750Y567000D01*
X638750Y554000D02*
Y563750D01*
Y554000D02*
X657852Y534898D01*
Y523697D02*
Y534898D01*
X661000Y538000D02*
X664500D01*
X668750Y533750D01*
X635140Y550110D02*
Y559794D01*
X635750Y517500D02*
X640072Y521822D01*
X643000Y512500D02*
X643212Y512712D01*
X640072Y521822D02*
Y531178D01*
X632000Y539250D02*
X640072Y531178D01*
X635140Y550110D02*
X643212Y542038D01*
Y512712D02*
Y542038D01*
X563000Y442000D02*
X584820Y463820D01*
Y542820D01*
X569250Y518567D02*
X570708Y517108D01*
X569250Y518567D02*
Y583695D01*
X530250Y442000D02*
X570708Y482458D01*
Y517108D01*
X558000Y515750D02*
X565070Y522820D01*
X558000Y512998D02*
Y515750D01*
X565070Y522820D02*
Y589384D01*
X503775Y458772D02*
X558000Y512998D01*
X544341Y588895D02*
X549634Y583602D01*
Y564634D02*
Y583602D01*
X521500Y489000D02*
X549500Y517000D01*
Y553309D01*
X556750Y560559D01*
X498750Y473066D02*
X545250Y519566D01*
Y554750D01*
X552774Y562274D01*
X541000Y522750D02*
Y556000D01*
X549634Y564634D01*
X524500Y545500D02*
X544341Y565341D01*
X506656Y498887D02*
Y502520D01*
X524500Y520364D01*
Y545500D01*
X457000Y459000D02*
X466768D01*
X506656Y498887D01*
X518398Y553750D02*
X527750D01*
X539255Y565255D01*
Y593255D01*
X478815Y489999D02*
X493500Y504683D01*
Y528852D01*
X518398Y553750D01*
X382750Y342250D02*
X411000Y370500D01*
Y409750D01*
X420250Y419000D01*
X397250Y387750D02*
X406070Y396570D01*
X777250Y388750D02*
Y396250D01*
Y388750D02*
X784000Y382000D01*
X898000D01*
X771000Y400750D02*
X771320Y401070D01*
X801680D01*
X814500Y388250D01*
X856156Y422094D02*
X868750Y409500D01*
X768750Y419000D02*
X771844Y422094D01*
X768184Y408000D02*
X771364Y411180D01*
X831613D01*
X771844Y422094D02*
X778656D01*
X780500Y420250D01*
X820250D01*
X822094Y422094D01*
X856156D01*
X780049Y426201D02*
X782500Y423750D01*
X819049D01*
X821500Y426201D01*
X750635D02*
X780049D01*
X821500D02*
X857799D01*
X769538Y431021D02*
X780979D01*
X784250Y427750D01*
X816500D01*
X767887Y436570D02*
X780930D01*
X786000Y431500D01*
X812044D01*
X817114Y436570D01*
Y436570D02*
X817180D01*
X816500Y427750D02*
X819771Y431021D01*
X845413D01*
X320688Y160750D02*
X323820Y163882D01*
X317000Y168038D02*
X317288Y167750D01*
X317000Y168038D02*
Y294250D01*
X321000Y174666D02*
Y349430D01*
Y174666D02*
X323820Y171846D01*
Y163882D02*
Y171846D01*
X396000Y295000D02*
X469453Y368453D01*
X406070Y396570D02*
Y412820D01*
X372375Y394875D02*
Y441499D01*
X391996Y461120D01*
X385820Y398070D02*
Y402852D01*
X394148Y411180D01*
X397250D01*
X347500Y396750D02*
X362335Y411585D01*
X347500Y288000D02*
Y396750D01*
X417817Y510567D02*
X428618Y521368D01*
X417817Y424567D02*
Y510567D01*
X406070Y412820D02*
X417817Y424567D01*
X428618Y521368D02*
Y533530D01*
X445088Y550000D01*
X453250D01*
X408942Y526623D02*
X437069Y554750D01*
X452500D01*
X408942Y422872D02*
Y526623D01*
X397250Y411180D02*
X408942Y422872D01*
X391996Y461120D02*
Y515358D01*
X435388Y558750D01*
X443648D01*
X367375Y511727D02*
X428968Y573320D01*
X367375Y396750D02*
Y511727D01*
X428968Y573320D02*
X458756D01*
X362335Y411585D02*
Y513335D01*
X426000Y577000D01*
X444000D01*
X351570Y510468D02*
X423032Y581930D01*
X439032D01*
X351570Y481070D02*
Y510468D01*
X338750Y245250D02*
Y476349D01*
X345584Y483184D01*
Y512232D02*
X406143Y572791D01*
Y587643D01*
X415500Y597000D01*
X439000D01*
X345584Y483184D02*
Y512232D01*
X334820Y525846D02*
X411974Y603000D01*
X438500D01*
X334820Y205820D02*
Y525846D01*
X329892Y529392D02*
X409500Y609000D01*
X329892Y484892D02*
Y529392D01*
X323500Y478500D02*
X329892Y484892D01*
X409500Y609000D02*
X447250D01*
X323500Y460570D02*
X326570Y457500D01*
X323500Y460570D02*
Y478500D01*
X342196Y554750D02*
X400376Y612930D01*
X307538Y475001D02*
X312133Y479597D01*
X400376Y612930D02*
X450465D01*
X307538Y362892D02*
Y475001D01*
X312133Y479597D02*
Y533838D01*
X333045Y554750D01*
X342196D01*
X408874Y628500D02*
X432434D01*
X340618Y560244D02*
X408874Y628500D01*
X329257Y560244D02*
X340618D01*
X306263Y537250D02*
X329257Y560244D01*
X306263Y481348D02*
Y537250D01*
X302750Y477835D02*
X306263Y481348D01*
X302750Y422066D02*
Y477835D01*
X396123Y633430D02*
X418032D01*
X382930Y623782D02*
X387218Y628070D01*
X390763D01*
X396123Y633430D01*
X289356Y527923D02*
X368863Y607430D01*
X371746D01*
X382930Y618614D01*
Y623782D01*
X289356Y363585D02*
Y527923D01*
X285000Y360000D02*
Y536278D01*
X388222Y639500D01*
X400602D01*
X244000Y282000D02*
X257750Y295750D01*
D49*
X543600Y-60000D02*
D03*
X912193Y-15000D02*
D03*
X903870Y286258D02*
D03*
X774446Y137922D02*
D03*
X215138Y204216D02*
D03*
X491900Y13000D02*
D03*
X339500D02*
D03*
X364900D02*
D03*
X390300D02*
D03*
X415700D02*
D03*
X441100D02*
D03*
X466500D02*
D03*
X380692Y990346D02*
D03*
Y964946D02*
D03*
X355292Y990346D02*
D03*
Y964946D02*
D03*
X304492Y990346D02*
D03*
Y964946D02*
D03*
X279092Y990346D02*
D03*
Y964946D02*
D03*
X506930D02*
D03*
Y990346D02*
D03*
X532330Y964946D02*
D03*
Y990346D02*
D03*
X583130Y964946D02*
D03*
Y990346D02*
D03*
X608530Y964946D02*
D03*
Y990346D02*
D03*
X169800Y294750D02*
D03*
X195200D02*
D03*
X169800Y269350D02*
D03*
D50*
X723646Y112522D02*
D03*
X385064D02*
D03*
D51*
X841607Y305300D02*
D03*
X169800Y320150D02*
D03*
D53*
X248000Y-78000D02*
D03*
D54*
X200000Y-106000D02*
D03*
Y-48000D02*
D03*
D55*
X660000Y55000D02*
D03*
X889934Y25274D02*
D03*
X879977D02*
D03*
X869985Y24774D02*
D03*
X860000D02*
D03*
X305308Y-90000D02*
D03*
X959522Y670018D02*
D03*
Y633522D02*
D03*
X960522Y658344D02*
D03*
X961522Y684018D02*
D03*
X307500Y-15000D02*
D03*
X82500Y26541D02*
D03*
X117722Y26927D02*
D03*
X891250Y195250D02*
D03*
X121006Y125006D02*
D03*
X167000Y84250D02*
D03*
X135500Y44000D02*
D03*
X111250Y74000D02*
D03*
X489000Y198000D02*
D03*
X794500Y215500D02*
D03*
X758500Y280750D02*
D03*
X300265Y94255D02*
D03*
X485000Y344250D02*
D03*
X526750Y212000D02*
D03*
X524529Y789051D02*
D03*
Y798957D02*
D03*
X514369Y789051D02*
D03*
X524529Y778891D02*
D03*
X534435D02*
D03*
X514369Y798957D02*
D03*
X544341Y758825D02*
D03*
X534435D02*
D03*
X936750Y473000D02*
D03*
X764718Y462651D02*
D03*
X764287Y560277D02*
D03*
X300500Y232750D02*
D03*
X311750Y235250D02*
D03*
X748750Y610500D02*
D03*
X764000Y589250D02*
D03*
X823750Y599000D02*
D03*
X886000Y600750D02*
D03*
X743000Y614250D02*
D03*
X904044Y583279D02*
D03*
X907250Y573250D02*
D03*
X623750Y578750D02*
D03*
X634499Y578749D02*
D03*
X711750Y588500D02*
D03*
X767000Y495000D02*
D03*
X574402Y588848D02*
D03*
X761500Y408000D02*
D03*
X908794Y415270D02*
D03*
X906000Y492000D02*
D03*
X480000Y485000D02*
D03*
X474999Y489999D02*
D03*
X479000Y497000D02*
D03*
X470000Y485000D02*
D03*
X782904Y502904D02*
D03*
X902000Y503000D02*
D03*
X544341Y648895D02*
D03*
Y638895D02*
D03*
X554454Y628848D02*
D03*
X544341Y628895D02*
D03*
X554454Y618848D02*
D03*
Y608848D02*
D03*
X574534D02*
D03*
X584534D02*
D03*
X534435Y768985D02*
D03*
X504463Y758825D02*
D03*
X574534Y598848D02*
D03*
X544341Y778891D02*
D03*
X534435Y598895D02*
D03*
X494557Y618895D02*
D03*
X634534Y618848D02*
D03*
X504463Y768985D02*
D03*
X544341Y588895D02*
D03*
X614534Y598848D02*
D03*
X514369Y598895D02*
D03*
X544341Y789051D02*
D03*
X534435Y588895D02*
D03*
X594534Y588848D02*
D03*
X464331Y658895D02*
D03*
X474491Y628895D02*
D03*
X524529Y588895D02*
D03*
X504463Y598895D02*
D03*
X604534Y588848D02*
D03*
X624534Y598848D02*
D03*
X464331Y648895D02*
D03*
X554454Y578848D02*
D03*
X574534D02*
D03*
X584534D02*
D03*
X544341Y578895D02*
D03*
X494557Y778891D02*
D03*
X474491Y618895D02*
D03*
X664534Y628848D02*
D03*
X524529Y578895D02*
D03*
X604534Y578848D02*
D03*
X474491Y608895D02*
D03*
X614534Y578848D02*
D03*
X514369Y578895D02*
D03*
X664534Y618848D02*
D03*
X504463Y578895D02*
D03*
X674534Y628848D02*
D03*
X474491Y778891D02*
D03*
X654534Y598848D02*
D03*
X644534Y588848D02*
D03*
X484397Y588895D02*
D03*
X494557Y578895D02*
D03*
X654534Y588848D02*
D03*
X464331Y598895D02*
D03*
X454425Y778891D02*
D03*
Y598895D02*
D03*
X674534Y588848D02*
D03*
X464331Y578895D02*
D03*
Y798957D02*
D03*
X454425Y578895D02*
D03*
X554482Y799592D02*
D03*
X544576D02*
D03*
X941000Y620000D02*
D03*
X933000Y578000D02*
D03*
X946000Y584000D02*
D03*
Y554000D02*
D03*
Y524000D02*
D03*
X946768Y454232D02*
D03*
X947956Y414956D02*
D03*
X935000Y381000D02*
D03*
X790000Y604000D02*
D03*
X272078Y330078D02*
D03*
X275500Y320500D02*
D03*
X392000Y214000D02*
D03*
X378000Y216000D02*
D03*
X404702Y207298D02*
D03*
X551862Y153138D02*
D03*
X650428Y884428D02*
D03*
X654000Y828000D02*
D03*
X879236Y603264D02*
D03*
X900000Y513000D02*
D03*
X905000Y519000D02*
D03*
X514369Y588895D02*
D03*
X767000Y518000D02*
D03*
X761000Y523000D02*
D03*
X634534Y588848D02*
D03*
X776000Y505000D02*
D03*
X893000Y495000D02*
D03*
X907998Y498999D02*
D03*
X943000Y503000D02*
D03*
X356000Y204000D02*
D03*
Y211000D02*
D03*
X381000Y314000D02*
D03*
X368000Y213000D02*
D03*
X396000Y295000D02*
D03*
X393000Y285000D02*
D03*
X385000Y289000D02*
D03*
X354000Y273000D02*
D03*
X355000Y229000D02*
D03*
X327000Y198000D02*
D03*
X457000Y459000D02*
D03*
X474491Y578895D02*
D03*
X554454Y598848D02*
D03*
X544341Y598895D02*
D03*
X618250Y399750D02*
D03*
X904250Y397750D02*
D03*
X656750Y392000D02*
D03*
X906250Y408750D02*
D03*
X729000Y490000D02*
D03*
X904250Y430000D02*
D03*
X764000Y419000D02*
D03*
X646250Y328000D02*
D03*
X503775Y458772D02*
D03*
X429250Y456000D02*
D03*
X826540Y528526D02*
D03*
X521500Y489000D02*
D03*
X530250Y442000D02*
D03*
X762538Y508646D02*
D03*
X817114Y436570D02*
D03*
X905250Y437250D02*
D03*
X906750Y423000D02*
D03*
X769538Y431021D02*
D03*
X762500Y448500D02*
D03*
X905750Y544500D02*
D03*
X762500Y574250D02*
D03*
X821750Y561000D02*
D03*
X789000Y558000D02*
D03*
X768750Y555250D02*
D03*
X762000Y545750D02*
D03*
X879000Y554250D02*
D03*
X772288Y539026D02*
D03*
X788750Y536500D02*
D03*
X893250Y534500D02*
D03*
X572000Y300750D02*
D03*
X673533Y546527D02*
D03*
X668750Y533750D02*
D03*
X665750Y546750D02*
D03*
X670250Y447500D02*
D03*
X669000Y500250D02*
D03*
X661282Y496524D02*
D03*
X774250Y484000D02*
D03*
X697000Y388250D02*
D03*
X771000Y400750D02*
D03*
X648750Y278000D02*
D03*
X789038Y466773D02*
D03*
X672250Y396500D02*
D03*
X533500Y218000D02*
D03*
X513775Y213010D02*
D03*
X905000Y389000D02*
D03*
X604500Y329500D02*
D03*
X619750Y318283D02*
D03*
X734500Y468750D02*
D03*
X763250Y438750D02*
D03*
X537000Y254000D02*
D03*
X762283Y481750D02*
D03*
X907750Y467750D02*
D03*
X905750Y485250D02*
D03*
X891500Y523500D02*
D03*
X620000Y416000D02*
D03*
X783000Y373250D02*
D03*
X543500Y248000D02*
D03*
X389750Y361750D02*
D03*
X381250Y376500D02*
D03*
X328000Y302000D02*
D03*
X882250Y498750D02*
D03*
X845994Y111256D02*
D03*
X813000Y111500D02*
D03*
X861314Y101686D02*
D03*
X895250Y94250D02*
D03*
X881000Y103000D02*
D03*
X896000Y102750D02*
D03*
X931634Y198134D02*
D03*
X880320Y249680D02*
D03*
X890320Y240320D02*
D03*
X836354Y230396D02*
D03*
X128750Y273750D02*
D03*
X130000Y230500D02*
D03*
X126250Y211750D02*
D03*
X518160Y125590D02*
D03*
X360000Y158250D02*
D03*
X198892Y36892D02*
D03*
X207500Y76976D02*
D03*
X215000Y92250D02*
D03*
X206250Y112282D02*
D03*
X223250Y113750D02*
D03*
X206864Y123364D02*
D03*
X85640Y68860D02*
D03*
X135750Y28500D02*
D03*
X537250Y119750D02*
D03*
X172250Y45000D02*
D03*
X171700Y30000D02*
D03*
X127172Y157828D02*
D03*
X735000Y952500D02*
D03*
Y900000D02*
D03*
Y880000D02*
D03*
Y827500D02*
D03*
X775000Y787500D02*
D03*
X822500D02*
D03*
X850000D02*
D03*
X900000D02*
D03*
X940000Y827500D02*
D03*
X939546Y926476D02*
D03*
X900000Y992500D02*
D03*
X850000D02*
D03*
X825000D02*
D03*
X775000D02*
D03*
X765000Y962500D02*
D03*
X800000D02*
D03*
X832500D02*
D03*
X765000Y935000D02*
D03*
X800000D02*
D03*
X832500D02*
D03*
X765000Y907500D02*
D03*
X800000D02*
D03*
X765000Y815000D02*
D03*
X870000Y832500D02*
D03*
X920000Y812500D02*
D03*
X922500Y962500D02*
D03*
X940000Y952500D02*
D03*
Y900000D02*
D03*
Y880000D02*
D03*
X870000Y962500D02*
D03*
X702500Y925000D02*
D03*
X702500Y982500D02*
D03*
X707500Y963388D02*
D03*
X715000Y852500D02*
D03*
Y840000D02*
D03*
X272000Y847000D02*
D03*
X275000Y781000D02*
D03*
X268312Y718312D02*
D03*
X281940Y714310D02*
D03*
X260500Y749000D02*
D03*
X353750Y816250D02*
D03*
X301694Y763444D02*
D03*
X315806Y763444D02*
D03*
X302000Y773000D02*
D03*
X232250Y636250D02*
D03*
X236178Y650822D02*
D03*
X148336Y484086D02*
D03*
X144750Y406250D02*
D03*
X162178Y412322D02*
D03*
X323500Y773750D02*
D03*
X221500Y488500D02*
D03*
X216800Y415450D02*
D03*
X201250Y404000D02*
D03*
X500000Y294750D02*
D03*
X766750Y319750D02*
D03*
X942394Y721106D02*
D03*
X913250Y740000D02*
D03*
X717750Y653500D02*
D03*
X714098Y668098D02*
D03*
X720500Y675750D02*
D03*
X696750Y688890D02*
D03*
X884500Y643750D02*
D03*
X446024Y763524D02*
D03*
X684750Y689750D02*
D03*
X524500Y163750D02*
D03*
X529500Y196750D02*
D03*
X716750Y392750D02*
D03*
X661750Y382000D02*
D03*
X619000Y423000D02*
D03*
X490750Y428750D02*
D03*
X779500Y84000D02*
D03*
X843500Y691250D02*
D03*
X777250Y396250D02*
D03*
X593500Y416250D02*
D03*
X559750Y442000D02*
D03*
X561000Y449000D02*
D03*
X257750Y295750D02*
D03*
X258000Y313000D02*
D03*
X277000Y306750D02*
D03*
X445500Y242250D02*
D03*
X264750Y265250D02*
D03*
X459250Y334750D02*
D03*
X663136Y448430D02*
D03*
X221000Y267500D02*
D03*
X782750Y40000D02*
D03*
X168250Y375250D02*
D03*
X822000Y31500D02*
D03*
X420250Y419000D02*
D03*
X382750Y342250D02*
D03*
X418500Y406500D02*
D03*
X392750Y339250D02*
D03*
X648000Y443500D02*
D03*
X645531Y420250D02*
D03*
X614500Y343000D02*
D03*
X619750Y356000D02*
D03*
X906000Y145250D02*
D03*
X735386Y238250D02*
D03*
X756000Y336250D02*
D03*
X769000Y374250D02*
D03*
X739500Y371750D02*
D03*
X759968Y241750D02*
D03*
X801250Y297500D02*
D03*
X823468Y320032D02*
D03*
X682648Y308102D02*
D03*
X711000Y319750D02*
D03*
X716250Y297500D02*
D03*
X730500Y298000D02*
D03*
X573000Y214000D02*
D03*
X568250Y219250D02*
D03*
X560500Y221500D02*
D03*
X519000Y208500D02*
D03*
X779750Y75500D02*
D03*
X931084Y174334D02*
D03*
X938000Y151250D02*
D03*
X589000Y260500D02*
D03*
X594750Y267250D02*
D03*
X481000Y196500D02*
D03*
X672500Y416000D02*
D03*
X702250Y887500D02*
D03*
X701448Y894198D02*
D03*
X701250Y900750D02*
D03*
X702250Y823500D02*
D03*
X159008Y404270D02*
D03*
X378750Y165750D02*
D03*
X108500Y358750D02*
D03*
X320688Y160750D02*
D03*
X317288Y167750D02*
D03*
X642791Y257852D02*
D03*
X646532Y263763D02*
D03*
X803500Y105250D02*
D03*
X851041Y77504D02*
D03*
X210760Y46752D02*
D03*
X250512Y66753D02*
D03*
X841351Y205677D02*
D03*
X610000Y84750D02*
D03*
X610000Y20000D02*
D03*
X595000Y55000D02*
D03*
D56*
X117458Y417472D02*
D03*
Y423472D02*
D03*
Y429472D02*
D03*
X111458Y429472D02*
D03*
Y423472D02*
D03*
Y417472D02*
D03*
X99458Y417472D02*
D03*
Y423472D02*
D03*
Y429472D02*
D03*
X105458Y429472D02*
D03*
Y423472D02*
D03*
Y417472D02*
D03*
X357584Y759056D02*
D03*
Y753056D02*
D03*
Y747056D02*
D03*
X363584Y747056D02*
D03*
Y753056D02*
D03*
Y759056D02*
D03*
X351584Y759056D02*
D03*
Y753056D02*
D03*
Y747056D02*
D03*
X345584Y747056D02*
D03*
Y753056D02*
D03*
Y759056D02*
D03*
X235092Y544552D02*
D03*
Y550552D02*
D03*
Y556552D02*
D03*
X229092Y556552D02*
D03*
Y550552D02*
D03*
Y544552D02*
D03*
X241092Y544552D02*
D03*
Y550552D02*
D03*
Y556552D02*
D03*
X247092Y556552D02*
D03*
Y550552D02*
D03*
Y544552D02*
D03*
X235092Y562552D02*
D03*
Y568552D02*
D03*
Y574552D02*
D03*
X229092Y574552D02*
D03*
Y568552D02*
D03*
Y562552D02*
D03*
X241092Y562552D02*
D03*
Y568552D02*
D03*
Y574552D02*
D03*
X247092Y574552D02*
D03*
Y568552D02*
D03*
Y562552D02*
D03*
X292342Y598302D02*
D03*
Y604302D02*
D03*
X286342Y604302D02*
D03*
Y598302D02*
D03*
X298342Y598302D02*
D03*
Y604302D02*
D03*
X304342Y604302D02*
D03*
Y598302D02*
D03*
X247092Y580552D02*
D03*
Y586552D02*
D03*
Y592552D02*
D03*
X241092Y592552D02*
D03*
Y586552D02*
D03*
Y580552D02*
D03*
X229092Y580552D02*
D03*
Y586552D02*
D03*
Y592552D02*
D03*
X235092Y592552D02*
D03*
Y586552D02*
D03*
Y580552D02*
D03*
M02*
