G04 Layer_Color=32896*
%FSLAX44Y44*%
%MOMM*%
G71*
G01*
G75*
%ADD43C,0.1500*%
%ADD46C,0.2000*%
%ADD48C,0.6000*%
%ADD66C,0.2500*%
%ADD67C,0.2540*%
%ADD91C,0.1524*%
%ADD93C,0.1000*%
%ADD95C,0.1200*%
%ADD96C,0.2032*%
%ADD205C,0.0500*%
%ADD206C,0.4064*%
G36*
X679534Y793848D02*
X669534Y803848D01*
X679534D01*
Y793848D01*
D02*
G37*
D43*
X782184Y868408D02*
G03*
X782184Y868408I-750J0D01*
G01*
X308750Y-74500D02*
X313750D01*
X308750Y-95500D02*
Y-74500D01*
X308750Y-95500D02*
X321250D01*
X321250Y-95500D02*
Y-74500D01*
X313750Y-74500D02*
X321250D01*
X279740Y622654D02*
Y630154D01*
X258740Y622654D02*
X279740D01*
X258740Y622654D02*
Y635154D01*
X258740Y635154D02*
X279740D01*
X279740Y630154D02*
Y635154D01*
X255356Y630154D02*
Y635154D01*
X234356Y635154D02*
X255356D01*
X234356Y622654D02*
Y635154D01*
X234356Y622654D02*
X255356D01*
X255356Y622654D02*
Y630154D01*
X712000Y966500D02*
X717000D01*
X717000Y966500D02*
Y987500D01*
X704500Y987500D02*
X717000D01*
X704500Y966500D02*
Y987500D01*
X704500Y966500D02*
X712000D01*
X133500Y363000D02*
X141000D01*
X133500Y363000D02*
Y384000D01*
X133500Y384000D02*
X146000D01*
X146000Y363000D02*
Y384000D01*
X141000Y363000D02*
X146000D01*
X315568Y814410D02*
X320568D01*
X315568Y793410D02*
Y814410D01*
X315568Y793410D02*
X328068D01*
X328068Y793410D02*
Y814410D01*
X320568Y814410D02*
X328068D01*
X138250Y426750D02*
X145750D01*
X145750Y405750D02*
Y426750D01*
X133250Y405750D02*
X145750D01*
X133250Y405750D02*
Y426750D01*
X133250Y426750D02*
X138250D01*
X323068Y747944D02*
X328068D01*
X328068Y747944D02*
Y768944D01*
X315568Y768944D02*
X328068D01*
X315568Y747944D02*
Y768944D01*
X315568Y747944D02*
X323068D01*
X672504Y885678D02*
Y890678D01*
X651504Y890678D02*
X672504D01*
X651504Y878178D02*
Y890678D01*
X651504Y878178D02*
X672504D01*
X672504Y878178D02*
Y885678D01*
X313592Y500D02*
X321092D01*
X321092Y-20500D02*
Y500D01*
X308592Y-20500D02*
X321092D01*
X308592Y-20500D02*
Y500D01*
X308592Y500D02*
X313592D01*
X768076Y269248D02*
X773076D01*
X773076Y269248D02*
Y290248D01*
X760576Y290248D02*
X773076D01*
X760576Y269248D02*
Y290248D01*
X760576Y269248D02*
X768076D01*
X823834Y193849D02*
X831334D01*
X831334Y172849D02*
Y193849D01*
X818834Y172848D02*
X831334D01*
X818834Y172849D02*
Y193849D01*
X818834Y193849D02*
X823834D01*
X134220Y71910D02*
Y76910D01*
X113220Y76910D02*
X134220D01*
X113220Y64410D02*
Y76910D01*
X113220Y64410D02*
X134220D01*
X134220Y64410D02*
Y71910D01*
X722222Y567014D02*
X727222D01*
X722222Y546014D02*
Y567014D01*
X722222Y546014D02*
X734722D01*
X734722Y546014D02*
Y567014D01*
X727222Y567014D02*
X734722D01*
X880972Y444374D02*
X888472D01*
X880972Y444374D02*
Y465374D01*
X880972Y465374D02*
X893472D01*
X893472Y444374D02*
Y465374D01*
X888472Y444374D02*
X893472D01*
X722222Y465922D02*
X727222D01*
X722222Y444922D02*
Y465922D01*
X722222Y444922D02*
X734722D01*
X734722Y444922D02*
Y465922D01*
X727222Y465922D02*
X734722D01*
X880972Y544958D02*
X888472D01*
X880972Y544958D02*
Y565958D01*
X880972Y565958D02*
X893472D01*
X893472Y544958D02*
Y565958D01*
X888472Y544958D02*
X893472D01*
X722222Y596478D02*
X727222D01*
X722222Y575478D02*
Y596478D01*
X722222Y575478D02*
X734722D01*
X734722Y575478D02*
Y596478D01*
X727222Y596478D02*
X734722D01*
X885972Y421980D02*
X893472D01*
X893472Y400980D02*
Y421980D01*
X880972Y400980D02*
X893472D01*
X880972Y400980D02*
Y421980D01*
X880972Y421980D02*
X885972D01*
X722222Y536788D02*
X727222D01*
X722222Y515788D02*
Y536788D01*
X722222Y515788D02*
X734722D01*
X734722Y515788D02*
Y536788D01*
X727222Y536788D02*
X734722D01*
X880972Y576160D02*
X888472D01*
X880972Y576160D02*
Y597160D01*
X880972Y597160D02*
X893472D01*
X893472Y576160D02*
Y597160D01*
X888472Y576160D02*
X893472D01*
X729722Y599068D02*
X734722D01*
X734722Y599068D02*
Y620068D01*
X722222Y620068D02*
X734722D01*
X722222Y599068D02*
Y620068D01*
X722222Y599068D02*
X729722D01*
X727222Y397326D02*
X734722D01*
X734722Y376326D02*
Y397326D01*
X722222Y376326D02*
X734722D01*
X722222Y376326D02*
Y397326D01*
X722222Y397326D02*
X727222D01*
X729472Y398424D02*
X734472D01*
X734472Y398424D02*
Y419424D01*
X721972Y419424D02*
X734472D01*
X721972Y398424D02*
Y419424D01*
X721972Y398424D02*
X729472D01*
X313028Y329270D02*
X318028D01*
X313028Y308270D02*
Y329270D01*
X313028Y308270D02*
X325528D01*
X325528Y308270D02*
Y329270D01*
X318028Y329270D02*
X325528D01*
X648054Y395646D02*
X655554D01*
X648054Y395646D02*
Y416646D01*
X648054Y416646D02*
X660554D01*
X660554Y395646D02*
Y416646D01*
X655554Y395646D02*
X660554D01*
X466938Y494772D02*
Y499772D01*
X445938Y499772D02*
X466938D01*
X445938Y487272D02*
Y499772D01*
X445938Y487272D02*
X466938D01*
X466938Y487272D02*
Y494772D01*
X381676Y492272D02*
Y499772D01*
X381676Y499772D02*
X402676D01*
X402676Y487272D02*
Y499772D01*
X381676Y487272D02*
X402676D01*
X381676Y487272D02*
Y492272D01*
X652440Y213460D02*
Y218460D01*
X652440Y213460D02*
X673440D01*
X673440Y213460D02*
Y225960D01*
X652440Y225960D02*
X673440D01*
X652440Y218460D02*
Y225960D01*
X313028Y404282D02*
X320528D01*
X313028Y404282D02*
Y425282D01*
X313028Y425282D02*
X325528D01*
X325528Y404282D02*
Y425282D01*
X320528Y404282D02*
X325528D01*
X313028Y461858D02*
X318028D01*
X313028Y440858D02*
Y461858D01*
X313028Y440858D02*
X325528D01*
X325528Y440858D02*
Y461858D01*
X318028Y461858D02*
X325528D01*
X536362Y158262D02*
Y165762D01*
X536362Y165762D02*
X557362D01*
X557362Y153262D02*
Y165762D01*
X536362Y153262D02*
X557362D01*
X536362Y153262D02*
Y158262D01*
X466766Y153262D02*
Y158262D01*
X466766Y153262D02*
X487766D01*
X487766Y153262D02*
Y165762D01*
X466766Y165762D02*
X487766D01*
X466766Y158262D02*
Y165762D01*
X655554Y286934D02*
X660554D01*
X660554Y286934D02*
Y307934D01*
X648054Y307934D02*
X660554D01*
X648054Y286934D02*
Y307934D01*
X648054Y286934D02*
X655554D01*
X610596Y487340D02*
X615596D01*
X615596Y487340D02*
Y508340D01*
X603096Y508340D02*
X615596D01*
X603096Y487340D02*
Y508340D01*
X603096Y487340D02*
X610596D01*
X299058Y404282D02*
X306558D01*
X299058Y404282D02*
Y425282D01*
X299058Y425282D02*
X311558D01*
X311558Y404282D02*
Y425282D01*
X306558Y404282D02*
X311558D01*
X313028Y276692D02*
X318028D01*
X313028Y255692D02*
Y276692D01*
X313028Y255692D02*
X325528D01*
X325528Y255692D02*
Y276692D01*
X318028Y276692D02*
X325528D01*
X602910Y158262D02*
Y165762D01*
X602910Y165762D02*
X623910D01*
X623910Y153262D02*
Y165762D01*
X602910Y153262D02*
X623910D01*
X602910Y153262D02*
Y158262D01*
X574782Y487340D02*
X579782D01*
X579782Y487340D02*
Y508340D01*
X567282Y508340D02*
X579782D01*
X567282Y487340D02*
Y508340D01*
X567282Y487340D02*
X574782D01*
X653054Y367116D02*
X660554D01*
X660554Y346116D02*
Y367116D01*
X648054Y346116D02*
X660554D01*
X648054Y346116D02*
Y367116D01*
X648054Y367116D02*
X653054D01*
X516976Y494772D02*
Y499772D01*
X495976Y499772D02*
X516976D01*
X495976Y487272D02*
Y499772D01*
X495976Y487272D02*
X516976D01*
X516976Y487272D02*
Y494772D01*
X292250Y379250D02*
Y386750D01*
X271250Y379250D02*
X292250D01*
X271250Y379250D02*
Y391750D01*
X271250Y391750D02*
X292250D01*
X292250Y386750D02*
Y391750D01*
X278750Y314250D02*
Y319250D01*
X278750Y314250D02*
X299750D01*
X299750Y314250D02*
Y326750D01*
X278750Y326750D02*
X299750D01*
X278750Y319250D02*
Y326750D01*
X783930Y879194D02*
Y886694D01*
X762930Y879194D02*
X783930D01*
X762930Y879194D02*
Y891694D01*
X762930Y891694D02*
X783930D01*
X783930Y886694D02*
Y891694D01*
X905342Y818114D02*
Y823114D01*
X884342Y823114D02*
X905342D01*
X884342Y810614D02*
Y823114D01*
X884342Y810614D02*
X905342D01*
X905342Y810614D02*
Y818114D01*
X910422Y955902D02*
Y963402D01*
X889422Y955902D02*
X910422D01*
X889422Y955902D02*
Y968402D01*
X889422Y968402D02*
X910422D01*
X910422Y963402D02*
Y968402D01*
X245278Y712062D02*
Y717062D01*
X245278Y712062D02*
X266278D01*
X266278Y712062D02*
Y724562D01*
X245278Y724562D02*
X266278D01*
X245278Y717062D02*
Y724562D01*
X245000Y756000D02*
Y763500D01*
X245000Y763500D02*
X266000D01*
X266000Y751000D02*
Y763500D01*
X245000Y751000D02*
X266000D01*
X245000Y751000D02*
Y756000D01*
X250500Y840750D02*
Y845750D01*
X250500Y840750D02*
X271500D01*
X271500Y840750D02*
Y853250D01*
X250500Y853250D02*
X271500D01*
X250500Y845750D02*
Y853250D01*
X158148Y610616D02*
Y632616D01*
X51148D02*
X158148D01*
X51148Y588616D02*
Y632616D01*
Y588616D02*
X158148D01*
Y610616D01*
X159948Y631616D02*
Y637616D01*
X156948Y634616D02*
X162948D01*
X156948Y569846D02*
X162948D01*
X159948Y566846D02*
Y572846D01*
X158148Y523846D02*
Y545846D01*
X51148Y523846D02*
X158148D01*
X51148D02*
Y567846D01*
X158148D01*
Y545846D02*
Y567846D01*
X305676Y339868D02*
Y359910D01*
X260648Y339868D02*
Y359910D01*
X750000Y59500D02*
X756250D01*
Y59500D02*
Y80500D01*
X743750D02*
X756250D01*
X743750D02*
X743750Y59500D01*
X743750Y59500D02*
X750000D01*
X763750D02*
X770000D01*
X763750Y80500D02*
X763750Y59500D01*
X763750Y80500D02*
X776250D01*
Y59500D02*
Y80500D01*
X770000Y59500D02*
X776250D01*
X790000D02*
X796250D01*
Y59500D02*
Y80500D01*
X783750D02*
X796250D01*
X783750D02*
X783750Y59500D01*
X783750Y59500D02*
X790000D01*
X253750Y64500D02*
X260000D01*
X253750Y85500D02*
X253750Y64500D01*
X253750Y85500D02*
X266250D01*
Y64500D02*
Y85500D01*
X260000Y64500D02*
X266250D01*
X240000D02*
X246250D01*
Y64500D02*
Y85500D01*
X233750D02*
X246250D01*
X233750D02*
X233750Y64500D01*
X233750Y64500D02*
X240000D01*
X293750D02*
X300000D01*
X293750Y85500D02*
X293750Y64500D01*
X293750Y85500D02*
X306250D01*
Y64500D02*
Y85500D01*
X300000Y64500D02*
X306250D01*
X430000D02*
X436250D01*
Y64500D02*
Y85500D01*
X423750D02*
X436250D01*
X423750D02*
X423750Y64500D01*
X423750Y64500D02*
X430000D01*
X403750D02*
X410000D01*
X403750Y85500D02*
X403750Y64500D01*
X403750Y85500D02*
X416250D01*
Y64500D02*
Y85500D01*
X410000Y64500D02*
X416250D01*
X470000D02*
X476250D01*
Y64500D02*
Y85500D01*
X463750D02*
X476250D01*
X463750D02*
X463750Y64500D01*
X463750Y64500D02*
X470000D01*
X691556Y356048D02*
Y362298D01*
X691556Y356048D02*
X712556D01*
Y368548D01*
X691556Y368548D02*
X712556Y368548D01*
X691556Y362298D02*
Y368548D01*
X702250Y345250D02*
Y351500D01*
X681250Y345250D02*
X702250Y345250D01*
X681250Y345250D02*
Y357750D01*
X702250D01*
X702250Y351500D02*
Y357750D01*
X752770Y252162D02*
Y258412D01*
X752770Y252162D02*
X773770D01*
Y264662D01*
X752770Y264662D02*
X773770Y264662D01*
X752770Y258412D02*
Y264662D01*
X313522Y639418D02*
Y645668D01*
X292522Y639418D02*
X313522Y639418D01*
X292522Y639418D02*
Y651918D01*
X313522D01*
X313522Y645668D02*
Y651918D01*
X234356Y639418D02*
Y645668D01*
X234356Y639418D02*
X255356D01*
Y651918D01*
X234356Y651918D02*
X255356Y651918D01*
X234356Y645668D02*
Y651918D01*
X258740Y645668D02*
Y651918D01*
X258740Y651918D02*
X279740Y651918D01*
Y639418D02*
Y651918D01*
X258740Y639418D02*
X279740D01*
X258740D02*
Y645668D01*
X282616Y622654D02*
Y628904D01*
X282616Y622654D02*
X303616D01*
Y635154D01*
X282616Y635154D02*
X303616Y635154D01*
X282616Y628904D02*
Y635154D01*
X210226Y628904D02*
Y635154D01*
X210226Y635154D02*
X231226Y635154D01*
Y622654D02*
Y635154D01*
X210226Y622654D02*
X231226D01*
X210226D02*
Y628904D01*
X803750Y59500D02*
X810000D01*
X803750Y80500D02*
X803750Y59500D01*
X803750Y80500D02*
X816250D01*
Y59500D02*
Y80500D01*
X810000Y59500D02*
X816250D01*
X105750Y358648D02*
Y364898D01*
X84750D02*
X105750D01*
X84750Y352398D02*
Y364898D01*
Y352398D02*
X105750Y352398D01*
X105750Y352398D02*
Y358648D01*
X355500Y814750D02*
Y821000D01*
X355500Y821000D02*
X376500Y821000D01*
Y808500D02*
Y821000D01*
X355500Y808500D02*
X376500D01*
X355500D02*
Y814750D01*
X141070Y405978D02*
X147320D01*
X141070Y384978D02*
Y405978D01*
Y384978D02*
X153570D01*
X153570Y405978D02*
X153570Y384978D01*
X147320Y405978D02*
X153570D01*
X153670Y383880D02*
X159920D01*
X159920Y383880D02*
X159920Y362880D01*
X147420D02*
X159920D01*
X147420D02*
Y383880D01*
Y383880D02*
X153670D01*
X315468Y770550D02*
X321718D01*
Y770550D02*
Y791550D01*
X309218D02*
X321718D01*
X309218D02*
X309218Y770550D01*
X309218Y770550D02*
X315468D01*
X301852Y793410D02*
X308102D01*
X301852Y814410D02*
X301852Y793410D01*
X301852Y814410D02*
X314352D01*
Y793410D02*
Y814410D01*
X308102Y793410D02*
X314352D01*
X155194Y406822D02*
X161444D01*
Y406822D02*
Y427822D01*
X148944D02*
X161444D01*
X148944D02*
X148944Y406822D01*
X148944Y406822D02*
X155194D01*
X121418Y450950D02*
Y457200D01*
X100418Y450950D02*
X121418Y450950D01*
X100418Y450950D02*
Y463450D01*
X121418D01*
X121418Y457200D02*
Y463450D01*
X301852Y768944D02*
X308102D01*
X301852Y747944D02*
Y768944D01*
Y747944D02*
X314352D01*
X314352Y768944D02*
X314352Y747944D01*
X308102Y768944D02*
X314352D01*
X341798Y718058D02*
Y724308D01*
X341798Y724308D02*
X362798Y724308D01*
Y711808D02*
Y724308D01*
X341798Y711808D02*
X362798D01*
X341798D02*
Y718058D01*
X696300Y884428D02*
Y890678D01*
X675300D02*
X696300D01*
X675300Y878178D02*
Y890678D01*
Y878178D02*
X696300Y878178D01*
X696300Y878178D02*
Y884428D01*
X766750Y342500D02*
X773000D01*
X773000Y342500D02*
X773000Y321500D01*
X760500D02*
X773000D01*
X760500D02*
Y342500D01*
Y342500D02*
X766750D01*
X780964Y252162D02*
Y258412D01*
X780964Y252162D02*
X801964D01*
Y264662D01*
X780964Y264662D02*
X801964Y264662D01*
X780964Y258412D02*
Y264662D01*
X280000Y64500D02*
X286250D01*
Y64500D02*
Y85500D01*
X273750D02*
X286250D01*
X273750D02*
X273750Y64500D01*
X273750Y64500D02*
X280000D01*
X443750D02*
X450000D01*
X443750Y85500D02*
X443750Y64500D01*
X443750Y85500D02*
X456250D01*
Y64500D02*
Y85500D01*
X450000Y64500D02*
X456250D01*
X319278Y357210D02*
X325528D01*
X325528Y357210D02*
X325528Y336210D01*
X313028D02*
X325528D01*
X313028D02*
Y357210D01*
Y357210D02*
X319278D01*
X800708Y829396D02*
X806958D01*
X800708Y808396D02*
Y829396D01*
Y808396D02*
X813208D01*
X813208Y829396D02*
X813208Y808396D01*
X806958Y829396D02*
X813208D01*
X857082Y854810D02*
Y861060D01*
X836082Y854810D02*
X857082Y854810D01*
X836082Y854810D02*
Y867310D01*
X857082D01*
X857082Y861060D02*
Y867310D01*
X920328Y846328D02*
Y852578D01*
X899328D02*
X920328D01*
X899328Y840078D02*
Y852578D01*
Y840078D02*
X920328Y840078D01*
X920328Y840078D02*
Y846328D01*
X864716Y921934D02*
X870966D01*
X864716Y942934D02*
X864716Y921934D01*
X864716Y942934D02*
X877216D01*
Y921934D02*
Y942934D01*
X870966Y921934D02*
X877216D01*
X281940Y715686D02*
X288190D01*
Y715686D02*
Y736686D01*
X275690D02*
X288190D01*
X275690D02*
X275690Y715686D01*
X275690Y715686D02*
X281940D01*
X266278Y725524D02*
Y731774D01*
X245278Y725524D02*
X266278Y725524D01*
X245278Y725524D02*
Y738024D01*
X266278D01*
X266278Y731774D02*
Y738024D01*
X710000Y884500D02*
X716250D01*
Y884500D02*
Y905500D01*
X703750D02*
X716250D01*
X703750D02*
X703750Y884500D01*
X703750Y884500D02*
X710000D01*
X638656Y818810D02*
X644906D01*
X638656Y839810D02*
X638656Y818810D01*
X638656Y839810D02*
X651156D01*
Y818810D02*
Y839810D01*
X644906Y818810D02*
X651156D01*
X177836Y994331D02*
X179502Y995997D01*
X182834D01*
X184500Y994331D01*
Y987666D01*
X182834Y986000D01*
X179502D01*
X177836Y987666D01*
X174503Y986000D02*
X171171D01*
X172837D01*
Y995997D01*
X174503Y994331D01*
X177335Y945831D02*
X179002Y947497D01*
X182334D01*
X184000Y945831D01*
Y939166D01*
X182334Y937500D01*
X179002D01*
X177335Y939166D01*
X167339Y937500D02*
X174003D01*
X167339Y944165D01*
Y945831D01*
X169005Y947497D01*
X172337D01*
X174003Y945831D01*
X175585Y896581D02*
X177252Y898247D01*
X180584D01*
X182250Y896581D01*
Y889916D01*
X180584Y888250D01*
X177252D01*
X175585Y889916D01*
X172253Y896581D02*
X170587Y898247D01*
X167255D01*
X165589Y896581D01*
Y894914D01*
X167255Y893248D01*
X168921D01*
X167255D01*
X165589Y891582D01*
Y889916D01*
X167255Y888250D01*
X170587D01*
X172253Y889916D01*
X261560Y866343D02*
X263226Y868009D01*
X266558D01*
X268224Y866343D01*
Y859678D01*
X266558Y858012D01*
X263226D01*
X261560Y859678D01*
X253229Y858012D02*
Y868009D01*
X258227Y863010D01*
X251563D01*
X256085Y773331D02*
X257752Y774997D01*
X261084D01*
X262750Y773331D01*
Y766666D01*
X261084Y765000D01*
X257752D01*
X256085Y766666D01*
X246089Y774997D02*
X252753D01*
Y769998D01*
X249421Y771665D01*
X247755D01*
X246089Y769998D01*
Y766666D01*
X247755Y765000D01*
X251087D01*
X252753Y766666D01*
X255835Y707581D02*
X257502Y709247D01*
X260834D01*
X262500Y707581D01*
Y700916D01*
X260834Y699250D01*
X257502D01*
X255835Y700916D01*
X245839Y709247D02*
X249171Y707581D01*
X252503Y704248D01*
Y700916D01*
X250837Y699250D01*
X247505D01*
X245839Y700916D01*
Y702582D01*
X247505Y704248D01*
X252503D01*
X115585Y679831D02*
X117252Y681497D01*
X120584D01*
X122250Y679831D01*
Y673166D01*
X120584Y671500D01*
X117252D01*
X115585Y673166D01*
X112253Y679831D02*
X110587Y681497D01*
X107255D01*
X105589Y679831D01*
Y678165D01*
X107255Y676498D01*
X105589Y674832D01*
Y673166D01*
X107255Y671500D01*
X110587D01*
X112253Y673166D01*
Y674832D01*
X110587Y676498D01*
X112253Y678165D01*
Y679831D01*
X110587Y676498D02*
X107255D01*
X144836Y580581D02*
X146502Y582247D01*
X149834D01*
X151500Y580581D01*
Y573916D01*
X149834Y572250D01*
X146502D01*
X144836Y573916D01*
X141503D02*
X139837Y572250D01*
X136505D01*
X134839Y573916D01*
Y580581D01*
X136505Y582247D01*
X139837D01*
X141503Y580581D01*
Y578914D01*
X139837Y577248D01*
X134839D01*
X145585Y645331D02*
X147252Y646997D01*
X150584D01*
X152250Y645331D01*
Y638666D01*
X150584Y637000D01*
X147252D01*
X145585Y638666D01*
X142253Y637000D02*
X138921D01*
X140587D01*
Y646997D01*
X142253Y645331D01*
X133923D02*
X132256Y646997D01*
X128924D01*
X127258Y645331D01*
Y638666D01*
X128924Y637000D01*
X132256D01*
X133923Y638666D01*
Y645331D01*
X905335Y977331D02*
X907002Y978997D01*
X910334D01*
X912000Y977331D01*
Y970666D01*
X910334Y969000D01*
X907002D01*
X905335Y970666D01*
X902003Y969000D02*
X898671D01*
X900337D01*
Y978997D01*
X902003Y977331D01*
X888674Y969000D02*
Y978997D01*
X893673Y973998D01*
X887008D01*
X899781Y805867D02*
X901448Y807533D01*
X904780D01*
X906446Y805867D01*
Y799202D01*
X904780Y797536D01*
X901448D01*
X899781Y799202D01*
X896449Y797536D02*
X893117D01*
X894783D01*
Y807533D01*
X896449Y805867D01*
X881454Y807533D02*
X888119D01*
Y802534D01*
X884786Y804201D01*
X883120D01*
X881454Y802534D01*
Y799202D01*
X883120Y797536D01*
X886452D01*
X888119Y799202D01*
X778335Y900331D02*
X780002Y901997D01*
X783334D01*
X785000Y900331D01*
Y893666D01*
X783334Y892000D01*
X780002D01*
X778335Y893666D01*
X775003Y892000D02*
X771671D01*
X773337D01*
Y901997D01*
X775003Y900331D01*
X760008Y901997D02*
X763340Y900331D01*
X766673Y896998D01*
Y893666D01*
X765006Y892000D01*
X761674D01*
X760008Y893666D01*
Y895332D01*
X761674Y896998D01*
X766673D01*
X270086Y327081D02*
X271752Y328747D01*
X275084D01*
X276750Y327081D01*
Y320416D01*
X275084Y318750D01*
X271752D01*
X270086Y320416D01*
X266753Y318750D02*
X263421D01*
X265087D01*
Y328747D01*
X266753Y327081D01*
X258423Y328747D02*
X251758D01*
Y327081D01*
X258423Y320416D01*
Y318750D01*
X284585Y402081D02*
X286252Y403747D01*
X289584D01*
X291250Y402081D01*
Y395416D01*
X289584Y393750D01*
X286252D01*
X284585Y395416D01*
X281253Y393750D02*
X277921D01*
X279587D01*
Y403747D01*
X281253Y402081D01*
X272923D02*
X271256Y403747D01*
X267924D01*
X266258Y402081D01*
Y400415D01*
X267924Y398748D01*
X266258Y397082D01*
Y395416D01*
X267924Y393750D01*
X271256D01*
X272923Y395416D01*
Y397082D01*
X271256Y398748D01*
X272923Y400415D01*
Y402081D01*
X271256Y398748D02*
X267924D01*
X481086Y131331D02*
X482752Y132997D01*
X486084D01*
X487750Y131331D01*
Y124666D01*
X486084Y123000D01*
X482752D01*
X481086Y124666D01*
X471089Y123000D02*
X477753D01*
X471089Y129664D01*
Y131331D01*
X472755Y132997D01*
X476087D01*
X477753Y131331D01*
X467756Y123000D02*
X464424D01*
X466090D01*
Y132997D01*
X467756Y131331D01*
X557836Y549331D02*
X559502Y550997D01*
X562834D01*
X564500Y549331D01*
Y542666D01*
X562834Y541000D01*
X559502D01*
X557836Y542666D01*
X547839Y541000D02*
X554503D01*
X547839Y547664D01*
Y549331D01*
X549505Y550997D01*
X552837D01*
X554503Y549331D01*
X537842Y541000D02*
X544506D01*
X537842Y547664D01*
Y549331D01*
X539508Y550997D01*
X542840D01*
X544506Y549331D01*
X557336Y533331D02*
X559002Y534997D01*
X562334D01*
X564000Y533331D01*
Y526666D01*
X562334Y525000D01*
X559002D01*
X557336Y526666D01*
X547339Y525000D02*
X554003D01*
X547339Y531665D01*
Y533331D01*
X549005Y534997D01*
X552337D01*
X554003Y533331D01*
X544006D02*
X542340Y534997D01*
X539008D01*
X537342Y533331D01*
Y531665D01*
X539008Y529998D01*
X540674D01*
X539008D01*
X537342Y528332D01*
Y526666D01*
X539008Y525000D01*
X542340D01*
X544006Y526666D01*
X698081Y238915D02*
X699747Y237248D01*
Y233916D01*
X698081Y232250D01*
X691416D01*
X689750Y233916D01*
Y237248D01*
X691416Y238915D01*
X689750Y248911D02*
Y242247D01*
X696414Y248911D01*
X698081D01*
X699747Y247245D01*
Y243913D01*
X698081Y242247D01*
X689750Y257242D02*
X699747D01*
X694748Y252244D01*
Y258908D01*
X714331Y237915D02*
X715997Y236248D01*
Y232916D01*
X714331Y231250D01*
X707666D01*
X706000Y232916D01*
Y236248D01*
X707666Y237915D01*
X706000Y247911D02*
Y241247D01*
X712664Y247911D01*
X714331D01*
X715997Y246245D01*
Y242913D01*
X714331Y241247D01*
X715997Y257908D02*
Y251244D01*
X710998D01*
X712664Y254576D01*
Y256242D01*
X710998Y257908D01*
X707666D01*
X706000Y256242D01*
Y252910D01*
X707666Y251244D01*
X282831Y259415D02*
X284497Y257748D01*
Y254416D01*
X282831Y252750D01*
X276166D01*
X274500Y254416D01*
Y257748D01*
X276166Y259415D01*
X274500Y269411D02*
Y262747D01*
X281164Y269411D01*
X282831D01*
X284497Y267745D01*
Y264413D01*
X282831Y262747D01*
X284497Y279408D02*
X282831Y276076D01*
X279498Y272743D01*
X276166D01*
X274500Y274410D01*
Y277742D01*
X276166Y279408D01*
X277832D01*
X279498Y277742D01*
Y272743D01*
X467299Y537921D02*
X468966Y539587D01*
X472298D01*
X473964Y537921D01*
Y531256D01*
X472298Y529590D01*
X468966D01*
X467299Y531256D01*
X457303Y529590D02*
X463967D01*
X457303Y536255D01*
Y537921D01*
X458969Y539587D01*
X462301D01*
X463967Y537921D01*
X453970Y539587D02*
X447306D01*
Y537921D01*
X453970Y531256D01*
Y529590D01*
X506923Y512775D02*
X508590Y514441D01*
X511922D01*
X513588Y512775D01*
Y506110D01*
X511922Y504444D01*
X508590D01*
X506923Y506110D01*
X496927Y504444D02*
X503591D01*
X496927Y511109D01*
Y512775D01*
X498593Y514441D01*
X501925D01*
X503591Y512775D01*
X493594D02*
X491928Y514441D01*
X488596D01*
X486930Y512775D01*
Y511109D01*
X488596Y509442D01*
X486930Y507776D01*
Y506110D01*
X488596Y504444D01*
X491928D01*
X493594Y506110D01*
Y507776D01*
X491928Y509442D01*
X493594Y511109D01*
Y512775D01*
X491928Y509442D02*
X488596D01*
X669581Y349915D02*
X671247Y348248D01*
Y344916D01*
X669581Y343250D01*
X662916D01*
X661250Y344916D01*
Y348248D01*
X662916Y349915D01*
X661250Y359911D02*
Y353247D01*
X667915Y359911D01*
X669581D01*
X671247Y358245D01*
Y354913D01*
X669581Y353247D01*
X662916Y363244D02*
X661250Y364910D01*
Y368242D01*
X662916Y369908D01*
X669581D01*
X671247Y368242D01*
Y364910D01*
X669581Y363244D01*
X667915D01*
X666248Y364910D01*
Y369908D01*
X578081Y518164D02*
X579747Y516498D01*
Y513166D01*
X578081Y511500D01*
X571416D01*
X569750Y513166D01*
Y516498D01*
X571416Y518164D01*
X578081Y521497D02*
X579747Y523163D01*
Y526495D01*
X578081Y528161D01*
X576414D01*
X574748Y526495D01*
Y524829D01*
Y526495D01*
X573082Y528161D01*
X571416D01*
X569750Y526495D01*
Y523163D01*
X571416Y521497D01*
X578081Y531494D02*
X579747Y533160D01*
Y536492D01*
X578081Y538158D01*
X571416D01*
X569750Y536492D01*
Y533160D01*
X571416Y531494D01*
X578081D01*
X593835Y163331D02*
X595502Y164997D01*
X598834D01*
X600500Y163331D01*
Y156666D01*
X598834Y155000D01*
X595502D01*
X593835Y156666D01*
X590503Y163331D02*
X588837Y164997D01*
X585505D01*
X583839Y163331D01*
Y161665D01*
X585505Y159998D01*
X587171D01*
X585505D01*
X583839Y158332D01*
Y156666D01*
X585505Y155000D01*
X588837D01*
X590503Y156666D01*
X580506Y155000D02*
X577174D01*
X578840D01*
Y164997D01*
X580506Y163331D01*
X322331Y233165D02*
X323997Y231498D01*
Y228166D01*
X322331Y226500D01*
X315666D01*
X314000Y228166D01*
Y231498D01*
X315666Y233165D01*
X322331Y236497D02*
X323997Y238163D01*
Y241495D01*
X322331Y243161D01*
X320664D01*
X318998Y241495D01*
Y239829D01*
Y241495D01*
X317332Y243161D01*
X315666D01*
X314000Y241495D01*
Y238163D01*
X315666Y236497D01*
X314000Y253158D02*
Y246494D01*
X320664Y253158D01*
X322331D01*
X323997Y251492D01*
Y248160D01*
X322331Y246494D01*
X279081Y418665D02*
X280747Y416998D01*
Y413666D01*
X279081Y412000D01*
X272416D01*
X270750Y413666D01*
Y416998D01*
X272416Y418665D01*
X279081Y421997D02*
X280747Y423663D01*
Y426995D01*
X279081Y428661D01*
X277414D01*
X275748Y426995D01*
Y425329D01*
Y426995D01*
X274082Y428661D01*
X272416D01*
X270750Y426995D01*
Y423663D01*
X272416Y421997D01*
X279081Y431993D02*
X280747Y433660D01*
Y436992D01*
X279081Y438658D01*
X277414D01*
X275748Y436992D01*
Y435326D01*
Y436992D01*
X274082Y438658D01*
X272416D01*
X270750Y436992D01*
Y433660D01*
X272416Y431993D01*
X600831Y495697D02*
X602497Y494031D01*
Y490699D01*
X600831Y489033D01*
X594166D01*
X592500Y490699D01*
Y494031D01*
X594166Y495697D01*
X600831Y499029D02*
X602497Y500695D01*
Y504028D01*
X600831Y505694D01*
X599165D01*
X597498Y504028D01*
Y502361D01*
Y504028D01*
X595832Y505694D01*
X594166D01*
X592500Y504028D01*
Y500695D01*
X594166Y499029D01*
X592500Y514024D02*
X602497D01*
X597498Y509026D01*
Y515691D01*
X670081Y292414D02*
X671747Y290748D01*
Y287416D01*
X670081Y285750D01*
X663416D01*
X661750Y287416D01*
Y290748D01*
X663416Y292414D01*
X670081Y295747D02*
X671747Y297413D01*
Y300745D01*
X670081Y302411D01*
X668415D01*
X666748Y300745D01*
Y299079D01*
Y300745D01*
X665082Y302411D01*
X663416D01*
X661750Y300745D01*
Y297413D01*
X663416Y295747D01*
X671747Y312408D02*
X670081Y309076D01*
X666748Y305744D01*
X663416D01*
X661750Y307410D01*
Y310742D01*
X663416Y312408D01*
X665082D01*
X666748Y310742D01*
Y305744D01*
X454836Y164331D02*
X456502Y165997D01*
X459834D01*
X461500Y164331D01*
Y157666D01*
X459834Y156000D01*
X456502D01*
X454836Y157666D01*
X451503Y164331D02*
X449837Y165997D01*
X446505D01*
X444839Y164331D01*
Y162665D01*
X446505Y160998D01*
X448171D01*
X446505D01*
X444839Y159332D01*
Y157666D01*
X446505Y156000D01*
X449837D01*
X451503Y157666D01*
X441506Y164331D02*
X439840Y165997D01*
X436508D01*
X434842Y164331D01*
Y162665D01*
X436508Y160998D01*
X434842Y159332D01*
Y157666D01*
X436508Y156000D01*
X439840D01*
X441506Y157666D01*
Y159332D01*
X439840Y160998D01*
X441506Y162665D01*
Y164331D01*
X439840Y160998D02*
X436508D01*
X527585Y163331D02*
X529252Y164997D01*
X532584D01*
X534250Y163331D01*
Y156666D01*
X532584Y155000D01*
X529252D01*
X527585Y156666D01*
X524253Y163331D02*
X522587Y164997D01*
X519255D01*
X517589Y163331D01*
Y161665D01*
X519255Y159998D01*
X520921D01*
X519255D01*
X517589Y158332D01*
Y156666D01*
X519255Y155000D01*
X522587D01*
X524253Y156666D01*
X514257D02*
X512590Y155000D01*
X509258D01*
X507592Y156666D01*
Y163331D01*
X509258Y164997D01*
X512590D01*
X514257Y163331D01*
Y161665D01*
X512590Y159998D01*
X507592D01*
X309581Y447915D02*
X311247Y446248D01*
Y442916D01*
X309581Y441250D01*
X302916D01*
X301250Y442916D01*
Y446248D01*
X302916Y447915D01*
X301250Y456245D02*
X311247D01*
X306248Y451247D01*
Y457911D01*
X309581Y461244D02*
X311247Y462910D01*
Y466242D01*
X309581Y467908D01*
X302916D01*
X301250Y466242D01*
Y462910D01*
X302916Y461244D01*
X309581D01*
X294831Y420164D02*
X296497Y418498D01*
Y415166D01*
X294831Y413500D01*
X288166D01*
X286500Y415166D01*
Y418498D01*
X288166Y420164D01*
X286500Y428495D02*
X296497D01*
X291498Y423497D01*
Y430161D01*
X286500Y433494D02*
Y436826D01*
Y435160D01*
X296497D01*
X294831Y433494D01*
X697085Y223831D02*
X698752Y225497D01*
X702084D01*
X703750Y223831D01*
Y217166D01*
X702084Y215500D01*
X698752D01*
X697085Y217166D01*
X688755Y215500D02*
Y225497D01*
X693753Y220498D01*
X687089D01*
X677092Y215500D02*
X683756D01*
X677092Y222164D01*
Y223831D01*
X678758Y225497D01*
X682090D01*
X683756Y223831D01*
X395835Y510081D02*
X397502Y511747D01*
X400834D01*
X402500Y510081D01*
Y503416D01*
X400834Y501750D01*
X397502D01*
X395835Y503416D01*
X387505Y501750D02*
Y511747D01*
X392503Y506748D01*
X385839D01*
X382506Y510081D02*
X380840Y511747D01*
X377508D01*
X375842Y510081D01*
Y508414D01*
X377508Y506748D01*
X379174D01*
X377508D01*
X375842Y505082D01*
Y503416D01*
X377508Y501750D01*
X380840D01*
X382506Y503416D01*
X438086Y497581D02*
X439752Y499247D01*
X443084D01*
X444750Y497581D01*
Y490916D01*
X443084Y489250D01*
X439752D01*
X438086Y490916D01*
X429755Y489250D02*
Y499247D01*
X434753Y494248D01*
X428089D01*
X419758Y489250D02*
Y499247D01*
X424757Y494248D01*
X418092D01*
X670081Y400415D02*
X671747Y398748D01*
Y395416D01*
X670081Y393750D01*
X663416D01*
X661750Y395416D01*
Y398748D01*
X663416Y400415D01*
X661750Y408745D02*
X671747D01*
X666748Y403747D01*
Y410411D01*
X671747Y420408D02*
Y413744D01*
X666748D01*
X668415Y417076D01*
Y418742D01*
X666748Y420408D01*
X663416D01*
X661750Y418742D01*
Y415410D01*
X663416Y413744D01*
X310831Y305665D02*
X312497Y303998D01*
Y300666D01*
X310831Y299000D01*
X304166D01*
X302500Y300666D01*
Y303998D01*
X304166Y305665D01*
X302500Y313995D02*
X312497D01*
X307498Y308997D01*
Y315661D01*
X312497Y325658D02*
X310831Y322326D01*
X307498Y318994D01*
X304166D01*
X302500Y320660D01*
Y323992D01*
X304166Y325658D01*
X305832D01*
X307498Y323992D01*
Y318994D01*
X718831Y408414D02*
X720497Y406748D01*
Y403416D01*
X718831Y401750D01*
X712166D01*
X710500Y403416D01*
Y406748D01*
X712166Y408414D01*
X720497Y418411D02*
Y411747D01*
X715498D01*
X717165Y415079D01*
Y416745D01*
X715498Y418411D01*
X712166D01*
X710500Y416745D01*
Y413413D01*
X712166Y411747D01*
X718831Y421744D02*
X720497Y423410D01*
Y426742D01*
X718831Y428408D01*
X717165D01*
X715498Y426742D01*
X713832Y428408D01*
X712166D01*
X710500Y426742D01*
Y423410D01*
X712166Y421744D01*
X713832D01*
X715498Y423410D01*
X717165Y421744D01*
X718831D01*
X715498Y423410D02*
Y426742D01*
X719081Y376414D02*
X720747Y374748D01*
Y371416D01*
X719081Y369750D01*
X712416D01*
X710750Y371416D01*
Y374748D01*
X712416Y376414D01*
X720747Y386411D02*
Y379747D01*
X715748D01*
X717414Y383079D01*
Y384745D01*
X715748Y386411D01*
X712416D01*
X710750Y384745D01*
Y381413D01*
X712416Y379747D01*
Y389744D02*
X710750Y391410D01*
Y394742D01*
X712416Y396408D01*
X719081D01*
X720747Y394742D01*
Y391410D01*
X719081Y389744D01*
X717414D01*
X715748Y391410D01*
Y396408D01*
X731081Y628414D02*
X732747Y626748D01*
Y623416D01*
X731081Y621750D01*
X724416D01*
X722750Y623416D01*
Y626748D01*
X724416Y628414D01*
X732747Y638411D02*
X731081Y635079D01*
X727748Y631747D01*
X724416D01*
X722750Y633413D01*
Y636745D01*
X724416Y638411D01*
X726082D01*
X727748Y636745D01*
Y631747D01*
X731081Y641743D02*
X732747Y643410D01*
Y646742D01*
X731081Y648408D01*
X724416D01*
X722750Y646742D01*
Y643410D01*
X724416Y641743D01*
X731081D01*
X904081Y584664D02*
X905747Y582998D01*
Y579666D01*
X904081Y578000D01*
X897416D01*
X895750Y579666D01*
Y582998D01*
X897416Y584664D01*
X905747Y594661D02*
X904081Y591329D01*
X900748Y587997D01*
X897416D01*
X895750Y589663D01*
Y592995D01*
X897416Y594661D01*
X899082D01*
X900748Y592995D01*
Y587997D01*
X895750Y597994D02*
Y601326D01*
Y599660D01*
X905747D01*
X904081Y597994D01*
X718581Y519165D02*
X720247Y517498D01*
Y514166D01*
X718581Y512500D01*
X711916D01*
X710250Y514166D01*
Y517498D01*
X711916Y519165D01*
X720247Y529161D02*
X718581Y525829D01*
X715248Y522497D01*
X711916D01*
X710250Y524163D01*
Y527495D01*
X711916Y529161D01*
X713582D01*
X715248Y527495D01*
Y522497D01*
X710250Y539158D02*
Y532494D01*
X716915Y539158D01*
X718581D01*
X720247Y537492D01*
Y534160D01*
X718581Y532494D01*
X904331Y409414D02*
X905997Y407748D01*
Y404416D01*
X904331Y402750D01*
X897666D01*
X896000Y404416D01*
Y407748D01*
X897666Y409414D01*
X905997Y419411D02*
X904331Y416079D01*
X900998Y412747D01*
X897666D01*
X896000Y414413D01*
Y417745D01*
X897666Y419411D01*
X899332D01*
X900998Y417745D01*
Y412747D01*
X904331Y422744D02*
X905997Y424410D01*
Y427742D01*
X904331Y429408D01*
X902664D01*
X900998Y427742D01*
Y426076D01*
Y427742D01*
X899332Y429408D01*
X897666D01*
X896000Y427742D01*
Y424410D01*
X897666Y422744D01*
X718331Y583914D02*
X719997Y582248D01*
Y578916D01*
X718331Y577250D01*
X711666D01*
X710000Y578916D01*
Y582248D01*
X711666Y583914D01*
X719997Y593911D02*
X718331Y590579D01*
X714998Y587247D01*
X711666D01*
X710000Y588913D01*
Y592245D01*
X711666Y593911D01*
X713332D01*
X714998Y592245D01*
Y587247D01*
X710000Y602242D02*
X719997D01*
X714998Y597244D01*
Y603908D01*
X903831Y546665D02*
X905497Y544998D01*
Y541666D01*
X903831Y540000D01*
X897166D01*
X895500Y541666D01*
Y544998D01*
X897166Y546665D01*
X905497Y556661D02*
X903831Y553329D01*
X900498Y549997D01*
X897166D01*
X895500Y551663D01*
Y554995D01*
X897166Y556661D01*
X898832D01*
X900498Y554995D01*
Y549997D01*
X905497Y566658D02*
Y559994D01*
X900498D01*
X902165Y563326D01*
Y564992D01*
X900498Y566658D01*
X897166D01*
X895500Y564992D01*
Y561660D01*
X897166Y559994D01*
X718331Y448914D02*
X719997Y447248D01*
Y443916D01*
X718331Y442250D01*
X711666D01*
X710000Y443916D01*
Y447248D01*
X711666Y448914D01*
X719997Y458911D02*
X718331Y455579D01*
X714998Y452247D01*
X711666D01*
X710000Y453913D01*
Y457245D01*
X711666Y458911D01*
X713332D01*
X714998Y457245D01*
Y452247D01*
X719997Y468908D02*
X718331Y465576D01*
X714998Y462244D01*
X711666D01*
X710000Y463910D01*
Y467242D01*
X711666Y468908D01*
X713332D01*
X714998Y467242D01*
Y462244D01*
X903581Y453414D02*
X905247Y451748D01*
Y448416D01*
X903581Y446750D01*
X896916D01*
X895250Y448416D01*
Y451748D01*
X896916Y453414D01*
X905247Y463411D02*
X903581Y460079D01*
X900248Y456747D01*
X896916D01*
X895250Y458413D01*
Y461745D01*
X896916Y463411D01*
X898582D01*
X900248Y461745D01*
Y456747D01*
X905247Y466744D02*
Y473408D01*
X903581D01*
X896916Y466744D01*
X895250D01*
X718581Y551414D02*
X720247Y549748D01*
Y546416D01*
X718581Y544750D01*
X711916D01*
X710250Y546416D01*
Y549748D01*
X711916Y551414D01*
X720247Y561411D02*
X718581Y558079D01*
X715248Y554747D01*
X711916D01*
X710250Y556413D01*
Y559745D01*
X711916Y561411D01*
X713582D01*
X715248Y559745D01*
Y554747D01*
X718581Y564743D02*
X720247Y566410D01*
Y569742D01*
X718581Y571408D01*
X716915D01*
X715248Y569742D01*
X713582Y571408D01*
X711916D01*
X710250Y569742D01*
Y566410D01*
X711916Y564743D01*
X713582D01*
X715248Y566410D01*
X716915Y564743D01*
X718581D01*
X715248Y566410D02*
Y569742D01*
X220536Y45119D02*
X222202Y46785D01*
X225534D01*
X227201Y45119D01*
Y38454D01*
X225534Y36788D01*
X222202D01*
X220536Y38454D01*
X217204Y46785D02*
X210539D01*
Y45119D01*
X217204Y38454D01*
Y36788D01*
X200543D02*
X207207D01*
X200543Y43453D01*
Y45119D01*
X202209Y46785D01*
X205541D01*
X207207Y45119D01*
X129962Y89797D02*
X131628Y91463D01*
X134960D01*
X136626Y89797D01*
Y83132D01*
X134960Y81466D01*
X131628D01*
X129962Y83132D01*
X126629Y91463D02*
X119965D01*
Y89797D01*
X126629Y83132D01*
Y81466D01*
X116633Y89797D02*
X114966Y91463D01*
X111634D01*
X109968Y89797D01*
Y88131D01*
X111634Y86464D01*
X113300D01*
X111634D01*
X109968Y84798D01*
Y83132D01*
X111634Y81466D01*
X114966D01*
X116633Y83132D01*
X768008Y165301D02*
X769675Y163635D01*
Y160302D01*
X768008Y158636D01*
X761344D01*
X759678Y160302D01*
Y163635D01*
X761344Y165301D01*
X768008Y168633D02*
X769675Y170299D01*
Y173631D01*
X768008Y175298D01*
X766342D01*
X764676Y173631D01*
X763010Y175298D01*
X761344D01*
X759678Y173631D01*
Y170299D01*
X761344Y168633D01*
X763010D01*
X764676Y170299D01*
X766342Y168633D01*
X768008D01*
X764676Y170299D02*
Y173631D01*
X769675Y178630D02*
Y185294D01*
X768008D01*
X761344Y178630D01*
X759678D01*
X828730Y148242D02*
X830396Y146576D01*
Y143244D01*
X828730Y141577D01*
X822065D01*
X820399Y143244D01*
Y146576D01*
X822065Y148242D01*
X828730Y151574D02*
X830396Y153240D01*
Y156573D01*
X828730Y158239D01*
X827064D01*
X825398Y156573D01*
X823732Y158239D01*
X822065D01*
X820399Y156573D01*
Y153240D01*
X822065Y151574D01*
X823732D01*
X825398Y153240D01*
X827064Y151574D01*
X828730D01*
X825398Y153240D02*
Y156573D01*
X828730Y161571D02*
X830396Y163237D01*
Y166569D01*
X828730Y168235D01*
X827064D01*
X825398Y166569D01*
X823732Y168235D01*
X822065D01*
X820399Y166569D01*
Y163237D01*
X822065Y161571D01*
X823732D01*
X825398Y163237D01*
X827064Y161571D01*
X828730D01*
X825398Y163237D02*
Y166569D01*
X329473Y-98101D02*
X327806Y-99767D01*
X324474D01*
X322808Y-98101D01*
Y-91436D01*
X324474Y-89770D01*
X327806D01*
X329473Y-91436D01*
X332805Y-89770D02*
X336137D01*
X334471D01*
Y-99767D01*
X332805Y-98101D01*
X341135D02*
X342802Y-99767D01*
X346134D01*
X347800Y-98101D01*
Y-91436D01*
X346134Y-89770D01*
X342802D01*
X341135Y-91436D01*
Y-98101D01*
X357797Y-99767D02*
X351132D01*
Y-94768D01*
X354464Y-96434D01*
X356131D01*
X357797Y-94768D01*
Y-91436D01*
X356131Y-89770D01*
X352798D01*
X351132Y-91436D01*
X758081Y276915D02*
X759747Y275248D01*
Y271916D01*
X758081Y270250D01*
X751416D01*
X749750Y271916D01*
Y275248D01*
X751416Y276915D01*
X749750Y280247D02*
Y283579D01*
Y281913D01*
X759747D01*
X758081Y280247D01*
Y288577D02*
X759747Y290244D01*
Y293576D01*
X758081Y295242D01*
X751416D01*
X749750Y293576D01*
Y290244D01*
X751416Y288577D01*
X758081D01*
X759747Y298574D02*
Y305239D01*
X758081D01*
X751416Y298574D01*
X749750D01*
X305053Y-30368D02*
X306719Y-32034D01*
Y-35366D01*
X305053Y-37032D01*
X298388D01*
X296722Y-35366D01*
Y-32034D01*
X298388Y-30368D01*
X296722Y-27035D02*
Y-23703D01*
Y-25369D01*
X306719D01*
X305053Y-27035D01*
Y-18705D02*
X306719Y-17038D01*
Y-13706D01*
X305053Y-12040D01*
X298388D01*
X296722Y-13706D01*
Y-17038D01*
X298388Y-18705D01*
X305053D01*
Y-8708D02*
X306719Y-7042D01*
Y-3709D01*
X305053Y-2043D01*
X303386D01*
X301720Y-3709D01*
X300054Y-2043D01*
X298388D01*
X296722Y-3709D01*
Y-7042D01*
X298388Y-8708D01*
X300054D01*
X301720Y-7042D01*
X303386Y-8708D01*
X305053D01*
X301720Y-7042D02*
Y-3709D01*
X658085Y900081D02*
X659752Y901747D01*
X663084D01*
X664750Y900081D01*
Y893416D01*
X663084Y891750D01*
X659752D01*
X658085Y893416D01*
X654753Y891750D02*
X651421D01*
X653087D01*
Y901747D01*
X654753Y900081D01*
X646423Y891750D02*
X643090D01*
X644756D01*
Y901747D01*
X646423Y900081D01*
X638092Y891750D02*
X634760D01*
X636426D01*
Y901747D01*
X638092Y900081D01*
X428581Y715915D02*
X430247Y714248D01*
Y710916D01*
X428581Y709250D01*
X421916D01*
X420250Y710916D01*
Y714248D01*
X421916Y715915D01*
X420250Y719247D02*
Y722579D01*
Y720913D01*
X430247D01*
X428581Y719247D01*
X420250Y727577D02*
Y730910D01*
Y729244D01*
X430247D01*
X428581Y727577D01*
Y735908D02*
X430247Y737574D01*
Y740906D01*
X428581Y742573D01*
X426914D01*
X425248Y740906D01*
Y739240D01*
Y740906D01*
X423582Y742573D01*
X421916D01*
X420250Y740906D01*
Y737574D01*
X421916Y735908D01*
X43831Y440914D02*
X45497Y439248D01*
Y435916D01*
X43831Y434250D01*
X37166D01*
X35500Y435916D01*
Y439248D01*
X37166Y440914D01*
X35500Y444247D02*
Y447579D01*
Y445913D01*
X45497D01*
X43831Y444247D01*
X35500Y452577D02*
Y455910D01*
Y454244D01*
X45497D01*
X43831Y452577D01*
X35500Y465906D02*
X45497D01*
X40498Y460908D01*
Y467573D01*
X325581Y719165D02*
X327247Y717498D01*
Y714166D01*
X325581Y712500D01*
X318916D01*
X317250Y714166D01*
Y717498D01*
X318916Y719165D01*
X317250Y722497D02*
Y725829D01*
Y724163D01*
X327247D01*
X325581Y722497D01*
X317250Y730827D02*
Y734160D01*
Y732494D01*
X327247D01*
X325581Y730827D01*
X327247Y745823D02*
Y739158D01*
X322248D01*
X323914Y742490D01*
Y744156D01*
X322248Y745823D01*
X318916D01*
X317250Y744156D01*
Y740824D01*
X318916Y739158D01*
X172081Y422915D02*
X173747Y421248D01*
Y417916D01*
X172081Y416250D01*
X165416D01*
X163750Y417916D01*
Y421248D01*
X165416Y422915D01*
X163750Y426247D02*
Y429579D01*
Y427913D01*
X173747D01*
X172081Y426247D01*
X163750Y434577D02*
Y437910D01*
Y436244D01*
X173747D01*
X172081Y434577D01*
X173747Y449573D02*
X172081Y446240D01*
X168748Y442908D01*
X165416D01*
X163750Y444574D01*
Y447906D01*
X165416Y449573D01*
X167082D01*
X168748Y447906D01*
Y442908D01*
X324581Y827414D02*
X326247Y825748D01*
Y822416D01*
X324581Y820750D01*
X317916D01*
X316250Y822416D01*
Y825748D01*
X317916Y827414D01*
X316250Y830747D02*
Y834079D01*
Y832413D01*
X326247D01*
X324581Y830747D01*
X316250Y839077D02*
Y842410D01*
Y840744D01*
X326247D01*
X324581Y839077D01*
X326247Y847408D02*
Y854073D01*
X324581D01*
X317916Y847408D01*
X316250D01*
X174581Y353164D02*
X176247Y351498D01*
Y348166D01*
X174581Y346500D01*
X167916D01*
X166250Y348166D01*
Y351498D01*
X167916Y353164D01*
X166250Y356497D02*
Y359829D01*
Y358163D01*
X176247D01*
X174581Y356497D01*
X166250Y364827D02*
Y368160D01*
Y366494D01*
X176247D01*
X174581Y364827D01*
Y373158D02*
X176247Y374824D01*
Y378156D01*
X174581Y379823D01*
X172915D01*
X171248Y378156D01*
X169582Y379823D01*
X167916D01*
X166250Y378156D01*
Y374824D01*
X167916Y373158D01*
X169582D01*
X171248Y374824D01*
X172915Y373158D01*
X174581D01*
X171248Y374824D02*
Y378156D01*
X428581Y784665D02*
X430247Y782998D01*
Y779666D01*
X428581Y778000D01*
X421916D01*
X420250Y779666D01*
Y782998D01*
X421916Y784665D01*
X420250Y787997D02*
Y791329D01*
Y789663D01*
X430247D01*
X428581Y787997D01*
X420250Y796327D02*
Y799660D01*
Y797994D01*
X430247D01*
X428581Y796327D01*
X421916Y804658D02*
X420250Y806324D01*
Y809656D01*
X421916Y811323D01*
X428581D01*
X430247Y809656D01*
Y806324D01*
X428581Y804658D01*
X426914D01*
X425248Y806324D01*
Y811323D01*
X43581Y376165D02*
X45247Y374498D01*
Y371166D01*
X43581Y369500D01*
X36916D01*
X35250Y371166D01*
Y374498D01*
X36916Y376165D01*
X35250Y379497D02*
Y382829D01*
Y381163D01*
X45247D01*
X43581Y379497D01*
X35250Y394492D02*
Y387827D01*
X41915Y394492D01*
X43581D01*
X45247Y392826D01*
Y389494D01*
X43581Y387827D01*
Y397824D02*
X45247Y399490D01*
Y402823D01*
X43581Y404489D01*
X36916D01*
X35250Y402823D01*
Y399490D01*
X36916Y397824D01*
X43581D01*
X714581Y940415D02*
X716247Y938748D01*
Y935416D01*
X714581Y933750D01*
X707916D01*
X706250Y935416D01*
Y938748D01*
X707916Y940415D01*
X706250Y943747D02*
Y947079D01*
Y945413D01*
X716247D01*
X714581Y943747D01*
X706250Y958742D02*
Y952077D01*
X712915Y958742D01*
X714581D01*
X716247Y957076D01*
Y953744D01*
X714581Y952077D01*
X706250Y962074D02*
Y965406D01*
Y963740D01*
X716247D01*
X714581Y962074D01*
X279585Y510831D02*
X281252Y512497D01*
X284584D01*
X286250Y510831D01*
Y504166D01*
X284584Y502500D01*
X281252D01*
X279585Y504166D01*
X269589Y502500D02*
X276253D01*
X269589Y509165D01*
Y510831D01*
X271255Y512497D01*
X274587D01*
X276253Y510831D01*
X266256D02*
X264590Y512497D01*
X261258D01*
X259592Y510831D01*
Y504166D01*
X261258Y502500D01*
X264590D01*
X266256Y504166D01*
Y510831D01*
X249595Y512497D02*
X256260D01*
Y507498D01*
X252927Y509165D01*
X251261D01*
X249595Y507498D01*
Y504166D01*
X251261Y502500D01*
X254594D01*
X256260Y504166D01*
X278585Y473581D02*
X280252Y475247D01*
X283584D01*
X285250Y473581D01*
Y466916D01*
X283584Y465250D01*
X280252D01*
X278585Y466916D01*
X268589Y465250D02*
X275253D01*
X268589Y471914D01*
Y473581D01*
X270255Y475247D01*
X273587D01*
X275253Y473581D01*
X265256D02*
X263590Y475247D01*
X260258D01*
X258592Y473581D01*
Y466916D01*
X260258Y465250D01*
X263590D01*
X265256Y466916D01*
Y473581D01*
X248595Y475247D02*
X251927Y473581D01*
X255260Y470248D01*
Y466916D01*
X253594Y465250D01*
X250261D01*
X248595Y466916D01*
Y468582D01*
X250261Y470248D01*
X255260D01*
X231085Y662081D02*
X232752Y663747D01*
X236084D01*
X237750Y662081D01*
Y655416D01*
X236084Y653750D01*
X232752D01*
X231085Y655416D01*
X221089Y653750D02*
X227753D01*
X221089Y660415D01*
Y662081D01*
X222755Y663747D01*
X226087D01*
X227753Y662081D01*
X217756D02*
X216090Y663747D01*
X212758D01*
X211092Y662081D01*
Y655416D01*
X212758Y653750D01*
X216090D01*
X217756Y655416D01*
Y662081D01*
X207760Y663747D02*
X201095D01*
Y662081D01*
X207760Y655416D01*
Y653750D01*
X271586Y662331D02*
X273252Y663997D01*
X276584D01*
X278250Y662331D01*
Y655666D01*
X276584Y654000D01*
X273252D01*
X271586Y655666D01*
X261589Y654000D02*
X268253D01*
X261589Y660665D01*
Y662331D01*
X263255Y663997D01*
X266587D01*
X268253Y662331D01*
X258256D02*
X256590Y663997D01*
X253258D01*
X251592Y662331D01*
Y655666D01*
X253258Y654000D01*
X256590D01*
X258256Y655666D01*
Y662331D01*
X248260D02*
X246593Y663997D01*
X243261D01*
X241595Y662331D01*
Y660665D01*
X243261Y658998D01*
X241595Y657332D01*
Y655666D01*
X243261Y654000D01*
X246593D01*
X248260Y655666D01*
Y657332D01*
X246593Y658998D01*
X248260Y660665D01*
Y662331D01*
X246593Y658998D02*
X243261D01*
X374581Y542915D02*
X376247Y541248D01*
Y537916D01*
X374581Y536250D01*
X367916D01*
X366250Y537916D01*
Y541248D01*
X367916Y542915D01*
X366250Y552911D02*
Y546247D01*
X372915Y552911D01*
X374581D01*
X376247Y551245D01*
Y547913D01*
X374581Y546247D01*
Y556244D02*
X376247Y557910D01*
Y561242D01*
X374581Y562908D01*
X367916D01*
X366250Y561242D01*
Y557910D01*
X367916Y556244D01*
X374581D01*
X367916Y566240D02*
X366250Y567906D01*
Y571239D01*
X367916Y572905D01*
X374581D01*
X376247Y571239D01*
Y567906D01*
X374581Y566240D01*
X372915D01*
X371248Y567906D01*
Y572905D01*
X374581Y613914D02*
X376247Y612248D01*
Y608916D01*
X374581Y607250D01*
X367916D01*
X366250Y608916D01*
Y612248D01*
X367916Y613914D01*
X366250Y623911D02*
Y617247D01*
X372915Y623911D01*
X374581D01*
X376247Y622245D01*
Y618913D01*
X374581Y617247D01*
X366250Y627244D02*
Y630576D01*
Y628910D01*
X376247D01*
X374581Y627244D01*
Y635574D02*
X376247Y637240D01*
Y640573D01*
X374581Y642239D01*
X367916D01*
X366250Y640573D01*
Y637240D01*
X367916Y635574D01*
X374581D01*
X799036Y897965D02*
X809033D01*
Y892967D01*
X807366Y891301D01*
X800702D01*
X799036Y892967D01*
Y897965D01*
X809033Y887969D02*
Y884636D01*
Y886302D01*
X799036D01*
X800702Y887969D01*
X429199Y870041D02*
X435864D01*
Y865042D01*
X432532D01*
X435864D01*
Y860044D01*
X425867Y870041D02*
Y860044D01*
X420869D01*
X419203Y861710D01*
Y863376D01*
X420869Y865042D01*
X425867D01*
X420869D01*
X419203Y866709D01*
Y868375D01*
X420869Y870041D01*
X425867D01*
X409206D02*
X415870D01*
Y865042D01*
X412538Y866709D01*
X410872D01*
X409206Y865042D01*
Y861710D01*
X410872Y860044D01*
X414204D01*
X415870Y861710D01*
X85336Y316747D02*
X92000D01*
Y311748D01*
X88668D01*
X92000D01*
Y306750D01*
X82003Y316747D02*
Y306750D01*
X77005D01*
X75339Y308416D01*
Y310082D01*
X77005Y311748D01*
X82003D01*
X77005D01*
X75339Y313414D01*
Y315081D01*
X77005Y316747D01*
X82003D01*
X65342D02*
X68674Y315081D01*
X72006Y311748D01*
Y308416D01*
X70340Y306750D01*
X67008D01*
X65342Y308416D01*
Y310082D01*
X67008Y311748D01*
X72006D01*
X419997Y580415D02*
Y573750D01*
X414998D01*
Y577082D01*
Y573750D01*
X410000D01*
X419997Y583747D02*
X410000D01*
Y588745D01*
X411666Y590411D01*
X413332D01*
X414998Y588745D01*
Y583747D01*
Y588745D01*
X416665Y590411D01*
X418331D01*
X419997Y588745D01*
Y583747D01*
Y593744D02*
Y600408D01*
X418331D01*
X411666Y593744D01*
X410000D01*
X886908Y941641D02*
Y948305D01*
X888574Y949971D01*
X891907D01*
X893573Y948305D01*
Y941641D01*
X891907Y939975D01*
X888574D01*
X890240Y943307D02*
X886908Y939975D01*
X888574D02*
X886908Y941641D01*
X876911Y939975D02*
X883576D01*
X876911Y946639D01*
Y948305D01*
X878577Y949971D01*
X881910D01*
X883576Y948305D01*
X247085Y357166D02*
Y363831D01*
X248752Y365497D01*
X252084D01*
X253750Y363831D01*
Y357166D01*
X252084Y355500D01*
X248752D01*
X250418Y358832D02*
X247085Y355500D01*
X248752D02*
X247085Y357166D01*
X243753Y363831D02*
X242087Y365497D01*
X238755D01*
X237089Y363831D01*
Y362164D01*
X238755Y360498D01*
X240421D01*
X238755D01*
X237089Y358832D01*
Y357166D01*
X238755Y355500D01*
X242087D01*
X243753Y357166D01*
X708416Y834165D02*
X715081D01*
X716747Y832498D01*
Y829166D01*
X715081Y827500D01*
X708416D01*
X706750Y829166D01*
Y832498D01*
X710082Y830832D02*
X706750Y834165D01*
Y832498D02*
X708416Y834165D01*
X716747Y844161D02*
Y837497D01*
X711748D01*
X713415Y840829D01*
Y842495D01*
X711748Y844161D01*
X708416D01*
X706750Y842495D01*
Y839163D01*
X708416Y837497D01*
X638500Y842500D02*
X648497D01*
Y847498D01*
X646831Y849165D01*
X643498D01*
X641832Y847498D01*
Y842500D01*
Y845832D02*
X638500Y849165D01*
Y857495D02*
X648497D01*
X643498Y852497D01*
Y859161D01*
X704500Y909500D02*
X714497D01*
Y914498D01*
X712831Y916164D01*
X709498D01*
X707832Y914498D01*
Y909500D01*
Y912832D02*
X704500Y916164D01*
X714497Y919497D02*
Y926161D01*
X712831D01*
X706166Y919497D01*
X704500D01*
X262750Y739500D02*
Y749497D01*
X257752D01*
X256085Y747831D01*
Y744498D01*
X257752Y742832D01*
X262750D01*
X259418D02*
X256085Y739500D01*
X252753Y747831D02*
X251087Y749497D01*
X247755D01*
X246089Y747831D01*
Y746164D01*
X247755Y744498D01*
X246089Y742832D01*
Y741166D01*
X247755Y739500D01*
X251087D01*
X252753Y741166D01*
Y742832D01*
X251087Y744498D01*
X252753Y746164D01*
Y747831D01*
X251087Y744498D02*
X247755D01*
X288750Y717750D02*
X298747D01*
Y722748D01*
X297081Y724415D01*
X293748D01*
X292082Y722748D01*
Y717750D01*
Y721082D02*
X288750Y724415D01*
X290416Y727747D02*
X288750Y729413D01*
Y732745D01*
X290416Y734411D01*
X297081D01*
X298747Y732745D01*
Y729413D01*
X297081Y727747D01*
X295415D01*
X293748Y729413D01*
Y734411D01*
X854000Y923000D02*
X863997D01*
Y927998D01*
X862331Y929665D01*
X858998D01*
X857332Y927998D01*
Y923000D01*
Y926332D02*
X854000Y929665D01*
Y932997D02*
Y936329D01*
Y934663D01*
X863997D01*
X862331Y932997D01*
Y941327D02*
X863997Y942994D01*
Y946326D01*
X862331Y947992D01*
X855666D01*
X854000Y946326D01*
Y942994D01*
X855666Y941327D01*
X862331D01*
X920297Y855907D02*
Y865903D01*
X915298D01*
X913632Y864237D01*
Y860905D01*
X915298Y859239D01*
X920297D01*
X916964D02*
X913632Y855907D01*
X910300D02*
X906968D01*
X908634D01*
Y865903D01*
X910300Y864237D01*
X901969Y855907D02*
X898637D01*
X900303D01*
Y865903D01*
X901969Y864237D01*
X848750Y865750D02*
Y875747D01*
X843752D01*
X842085Y874081D01*
Y870748D01*
X843752Y869082D01*
X848750D01*
X845418D02*
X842085Y865750D01*
X838753D02*
X835421D01*
X837087D01*
Y875747D01*
X838753Y874081D01*
X823758Y865750D02*
X830423D01*
X823758Y872414D01*
Y874081D01*
X825424Y875747D01*
X828756D01*
X830423Y874081D01*
X790000Y806000D02*
X799997D01*
Y810998D01*
X798331Y812664D01*
X794998D01*
X793332Y810998D01*
Y806000D01*
Y809332D02*
X790000Y812664D01*
Y815997D02*
Y819329D01*
Y817663D01*
X799997D01*
X798331Y815997D01*
Y824327D02*
X799997Y825993D01*
Y829326D01*
X798331Y830992D01*
X796665D01*
X794998Y829326D01*
Y827660D01*
Y829326D01*
X793332Y830992D01*
X791666D01*
X790000Y829326D01*
Y825993D01*
X791666Y824327D01*
X314250Y360500D02*
X324247D01*
Y365498D01*
X322581Y367164D01*
X319248D01*
X317582Y365498D01*
Y360500D01*
Y363832D02*
X314250Y367164D01*
Y370497D02*
Y373829D01*
Y372163D01*
X324247D01*
X322581Y370497D01*
X314250Y383826D02*
X324247D01*
X319248Y378827D01*
Y385492D01*
X451500Y90000D02*
X461497D01*
Y94998D01*
X459831Y96664D01*
X456498D01*
X454832Y94998D01*
Y90000D01*
Y93332D02*
X451500Y96664D01*
Y99997D02*
Y103329D01*
Y101663D01*
X461497D01*
X459831Y99997D01*
X461497Y114992D02*
X459831Y111660D01*
X456498Y108327D01*
X453166D01*
X451500Y109994D01*
Y113326D01*
X453166Y114992D01*
X454832D01*
X456498Y113326D01*
Y108327D01*
X276250Y90000D02*
X286247D01*
Y94998D01*
X284581Y96664D01*
X281248D01*
X279582Y94998D01*
Y90000D01*
Y93332D02*
X276250Y96664D01*
X284581Y99997D02*
X286247Y101663D01*
Y104995D01*
X284581Y106661D01*
X282915D01*
X281248Y104995D01*
Y103329D01*
Y104995D01*
X279582Y106661D01*
X277916D01*
X276250Y104995D01*
Y101663D01*
X277916Y99997D01*
X276250Y109994D02*
Y113326D01*
Y111660D01*
X286247D01*
X284581Y109994D01*
X801750Y239750D02*
Y249747D01*
X796752D01*
X795086Y248081D01*
Y244748D01*
X796752Y243082D01*
X801750D01*
X798418D02*
X795086Y239750D01*
X791753Y248081D02*
X790087Y249747D01*
X786755D01*
X785089Y248081D01*
Y246415D01*
X786755Y244748D01*
X788421D01*
X786755D01*
X785089Y243082D01*
Y241416D01*
X786755Y239750D01*
X790087D01*
X791753Y241416D01*
X781757Y248081D02*
X780090Y249747D01*
X776758D01*
X775092Y248081D01*
Y246415D01*
X776758Y244748D01*
X778424D01*
X776758D01*
X775092Y243082D01*
Y241416D01*
X776758Y239750D01*
X780090D01*
X781757Y241416D01*
X748500Y322500D02*
X758497D01*
Y327498D01*
X756831Y329165D01*
X753498D01*
X751832Y327498D01*
Y322500D01*
Y325832D02*
X748500Y329165D01*
X756831Y332497D02*
X758497Y334163D01*
Y337495D01*
X756831Y339161D01*
X755164D01*
X753498Y337495D01*
Y335829D01*
Y337495D01*
X751832Y339161D01*
X750166D01*
X748500Y337495D01*
Y334163D01*
X750166Y332497D01*
X748500Y347492D02*
X758497D01*
X753498Y342494D01*
Y349158D01*
X696750Y891750D02*
Y901747D01*
X691752D01*
X690086Y900081D01*
Y896748D01*
X691752Y895082D01*
X696750D01*
X693418D02*
X690086Y891750D01*
X681755D02*
Y901747D01*
X686753Y896748D01*
X680089D01*
X676756Y893416D02*
X675090Y891750D01*
X671758D01*
X670092Y893416D01*
Y900081D01*
X671758Y901747D01*
X675090D01*
X676756Y900081D01*
Y898415D01*
X675090Y896748D01*
X670092D01*
X360250Y700500D02*
Y710497D01*
X355252D01*
X353586Y708831D01*
Y705498D01*
X355252Y703832D01*
X360250D01*
X356918D02*
X353586Y700500D01*
X343589Y710497D02*
X350253D01*
Y705498D01*
X346921Y707165D01*
X345255D01*
X343589Y705498D01*
Y702166D01*
X345255Y700500D01*
X348587D01*
X350253Y702166D01*
X333592Y700500D02*
X340256D01*
X333592Y707165D01*
Y708831D01*
X335258Y710497D01*
X338590D01*
X340256Y708831D01*
X301500Y713750D02*
X311497D01*
Y718748D01*
X309831Y720415D01*
X306498D01*
X304832Y718748D01*
Y713750D01*
Y717082D02*
X301500Y720415D01*
X311497Y730411D02*
Y723747D01*
X306498D01*
X308165Y727079D01*
Y728745D01*
X306498Y730411D01*
X303166D01*
X301500Y728745D01*
Y725413D01*
X303166Y723747D01*
X309831Y733744D02*
X311497Y735410D01*
Y738742D01*
X309831Y740408D01*
X308165D01*
X306498Y738742D01*
Y737076D01*
Y738742D01*
X304832Y740408D01*
X303166D01*
X301500Y738742D01*
Y735410D01*
X303166Y733744D01*
X118500Y465750D02*
Y475747D01*
X113502D01*
X111835Y474081D01*
Y470748D01*
X113502Y469082D01*
X118500D01*
X115168D02*
X111835Y465750D01*
X101839Y475747D02*
X108503D01*
Y470748D01*
X105171Y472415D01*
X103505D01*
X101839Y470748D01*
Y467416D01*
X103505Y465750D01*
X106837D01*
X108503Y467416D01*
X93508Y465750D02*
Y475747D01*
X98506Y470748D01*
X91842D01*
X177250Y416250D02*
X187247D01*
Y421248D01*
X185581Y422915D01*
X182248D01*
X180582Y421248D01*
Y416250D01*
Y419582D02*
X177250Y422915D01*
X187247Y432911D02*
Y426247D01*
X182248D01*
X183915Y429579D01*
Y431245D01*
X182248Y432911D01*
X178916D01*
X177250Y431245D01*
Y427913D01*
X178916Y426247D01*
X187247Y442908D02*
Y436244D01*
X182248D01*
X183915Y439576D01*
Y441242D01*
X182248Y442908D01*
X178916D01*
X177250Y441242D01*
Y437910D01*
X178916Y436244D01*
X302000Y820750D02*
X311997D01*
Y825748D01*
X310331Y827414D01*
X306998D01*
X305332Y825748D01*
Y820750D01*
Y824082D02*
X302000Y827414D01*
X311997Y837411D02*
Y830747D01*
X306998D01*
X308664Y834079D01*
Y835745D01*
X306998Y837411D01*
X303666D01*
X302000Y835745D01*
Y832413D01*
X303666Y830747D01*
X311997Y847408D02*
X310331Y844076D01*
X306998Y840744D01*
X303666D01*
X302000Y842410D01*
Y845742D01*
X303666Y847408D01*
X305332D01*
X306998Y845742D01*
Y840744D01*
X288750Y769500D02*
X298747D01*
Y774498D01*
X297081Y776164D01*
X293748D01*
X292082Y774498D01*
Y769500D01*
Y772832D02*
X288750Y776164D01*
X298747Y786161D02*
Y779497D01*
X293748D01*
X295415Y782829D01*
Y784495D01*
X293748Y786161D01*
X290416D01*
X288750Y784495D01*
Y781163D01*
X290416Y779497D01*
X298747Y789494D02*
Y796158D01*
X297081D01*
X290416Y789494D01*
X288750D01*
X181250Y362250D02*
X191247D01*
Y367248D01*
X189581Y368914D01*
X186248D01*
X184582Y367248D01*
Y362250D01*
Y365582D02*
X181250Y368914D01*
X191247Y378911D02*
Y372247D01*
X186248D01*
X187915Y375579D01*
Y377245D01*
X186248Y378911D01*
X182916D01*
X181250Y377245D01*
Y373913D01*
X182916Y372247D01*
X189581Y382244D02*
X191247Y383910D01*
Y387242D01*
X189581Y388908D01*
X187915D01*
X186248Y387242D01*
X184582Y388908D01*
X182916D01*
X181250Y387242D01*
Y383910D01*
X182916Y382244D01*
X184582D01*
X186248Y383910D01*
X187915Y382244D01*
X189581D01*
X186248Y383910D02*
Y387242D01*
X166750Y383750D02*
X176747D01*
Y388748D01*
X175081Y390415D01*
X171748D01*
X170082Y388748D01*
Y383750D01*
Y387082D02*
X166750Y390415D01*
X176747Y400411D02*
Y393747D01*
X171748D01*
X173414Y397079D01*
Y398745D01*
X171748Y400411D01*
X168416D01*
X166750Y398745D01*
Y395413D01*
X168416Y393747D01*
Y403744D02*
X166750Y405410D01*
Y408742D01*
X168416Y410408D01*
X175081D01*
X176747Y408742D01*
Y405410D01*
X175081Y403744D01*
X173414D01*
X171748Y405410D01*
Y410408D01*
X376000Y823750D02*
Y833747D01*
X371002D01*
X369336Y832081D01*
Y828748D01*
X371002Y827082D01*
X376000D01*
X372668D02*
X369336Y823750D01*
X359339Y833747D02*
X362671Y832081D01*
X366003Y828748D01*
Y825416D01*
X364337Y823750D01*
X361005D01*
X359339Y825416D01*
Y827082D01*
X361005Y828748D01*
X366003D01*
X356007Y832081D02*
X354340Y833747D01*
X351008D01*
X349342Y832081D01*
Y825416D01*
X351008Y823750D01*
X354340D01*
X356007Y825416D01*
Y832081D01*
X129750Y354000D02*
Y363997D01*
X124752D01*
X123085Y362331D01*
Y358998D01*
X124752Y357332D01*
X129750D01*
X126418D02*
X123085Y354000D01*
X113089Y363997D02*
X116421Y362331D01*
X119753Y358998D01*
Y355666D01*
X118087Y354000D01*
X114755D01*
X113089Y355666D01*
Y357332D01*
X114755Y358998D01*
X119753D01*
X109756Y354000D02*
X106424D01*
X108090D01*
Y363997D01*
X109756Y362331D01*
X804500Y84500D02*
X814497D01*
Y89498D01*
X812831Y91165D01*
X809498D01*
X807832Y89498D01*
Y84500D01*
Y87832D02*
X804500Y91165D01*
X814497Y101161D02*
X812831Y97829D01*
X809498Y94497D01*
X806166D01*
X804500Y96163D01*
Y99495D01*
X806166Y101161D01*
X807832D01*
X809498Y99495D01*
Y94497D01*
X804500Y109492D02*
X814497D01*
X809498Y104494D01*
Y111158D01*
X209250Y626500D02*
Y636497D01*
X204252D01*
X202586Y634831D01*
Y631498D01*
X204252Y629832D01*
X209250D01*
X205918D02*
X202586Y626500D01*
X192589Y636497D02*
X195921Y634831D01*
X199253Y631498D01*
Y628166D01*
X197587Y626500D01*
X194255D01*
X192589Y628166D01*
Y629832D01*
X194255Y631498D01*
X199253D01*
X182592Y636497D02*
X185924Y634831D01*
X189256Y631498D01*
Y628166D01*
X187590Y626500D01*
X184258D01*
X182592Y628166D01*
Y629832D01*
X184258Y631498D01*
X189256D01*
X309000Y654750D02*
Y664747D01*
X304002D01*
X302335Y663081D01*
Y659748D01*
X304002Y658082D01*
X309000D01*
X305668D02*
X302335Y654750D01*
X292339Y664747D02*
X295671Y663081D01*
X299003Y659748D01*
Y656416D01*
X297337Y654750D01*
X294005D01*
X292339Y656416D01*
Y658082D01*
X294005Y659748D01*
X299003D01*
X289006Y664747D02*
X282342D01*
Y663081D01*
X289006Y656416D01*
Y654750D01*
X282000Y669250D02*
Y679247D01*
X277002D01*
X275336Y677581D01*
Y674248D01*
X277002Y672582D01*
X282000D01*
X278668D02*
X275336Y669250D01*
X265339Y679247D02*
X268671Y677581D01*
X272003Y674248D01*
Y670916D01*
X270337Y669250D01*
X267005D01*
X265339Y670916D01*
Y672582D01*
X267005Y674248D01*
X272003D01*
X262006Y677581D02*
X260340Y679247D01*
X257008D01*
X255342Y677581D01*
Y675915D01*
X257008Y674248D01*
X255342Y672582D01*
Y670916D01*
X257008Y669250D01*
X260340D01*
X262006Y670916D01*
Y672582D01*
X260340Y674248D01*
X262006Y675915D01*
Y677581D01*
X260340Y674248D02*
X257008D01*
X237750Y668500D02*
Y678497D01*
X232752D01*
X231085Y676831D01*
Y673498D01*
X232752Y671832D01*
X237750D01*
X234418D02*
X231085Y668500D01*
X221089Y678497D02*
X224421Y676831D01*
X227753Y673498D01*
Y670166D01*
X226087Y668500D01*
X222755D01*
X221089Y670166D01*
Y671832D01*
X222755Y673498D01*
X227753D01*
X217756Y670166D02*
X216090Y668500D01*
X212758D01*
X211092Y670166D01*
Y676831D01*
X212758Y678497D01*
X216090D01*
X217756Y676831D01*
Y675164D01*
X216090Y673498D01*
X211092D01*
X324500Y669500D02*
Y679497D01*
X319502D01*
X317836Y677831D01*
Y674498D01*
X319502Y672832D01*
X324500D01*
X321168D02*
X317836Y669500D01*
X314503Y679497D02*
X307839D01*
Y677831D01*
X314503Y671166D01*
Y669500D01*
X304506Y677831D02*
X302840Y679497D01*
X299508D01*
X297842Y677831D01*
Y671166D01*
X299508Y669500D01*
X302840D01*
X304506Y671166D01*
Y677831D01*
X770750Y240000D02*
Y249997D01*
X765752D01*
X764085Y248331D01*
Y244998D01*
X765752Y243332D01*
X770750D01*
X767418D02*
X764085Y240000D01*
X760753Y248331D02*
X759087Y249997D01*
X755755D01*
X754089Y248331D01*
Y246665D01*
X755755Y244998D01*
X754089Y243332D01*
Y241666D01*
X755755Y240000D01*
X759087D01*
X760753Y241666D01*
Y243332D01*
X759087Y244998D01*
X760753Y246665D01*
Y248331D01*
X759087Y244998D02*
X755755D01*
X750756Y248331D02*
X749090Y249997D01*
X745758D01*
X744092Y248331D01*
Y241666D01*
X745758Y240000D01*
X749090D01*
X750756Y241666D01*
Y248331D01*
X675250Y359750D02*
X685247D01*
Y364748D01*
X683581Y366414D01*
X680248D01*
X678582Y364748D01*
Y359750D01*
Y363082D02*
X675250Y366414D01*
X683581Y369747D02*
X685247Y371413D01*
Y374745D01*
X683581Y376411D01*
X681915D01*
X680248Y374745D01*
X678582Y376411D01*
X676916D01*
X675250Y374745D01*
Y371413D01*
X676916Y369747D01*
X678582D01*
X680248Y371413D01*
X681915Y369747D01*
X683581D01*
X680248Y371413D02*
Y374745D01*
X675250Y379744D02*
Y383076D01*
Y381410D01*
X685247D01*
X683581Y379744D01*
X693000Y371500D02*
X702997D01*
Y376498D01*
X701331Y378164D01*
X697998D01*
X696332Y376498D01*
Y371500D01*
Y374832D02*
X693000Y378164D01*
X701331Y381497D02*
X702997Y383163D01*
Y386495D01*
X701331Y388161D01*
X699665D01*
X697998Y386495D01*
X696332Y388161D01*
X694666D01*
X693000Y386495D01*
Y383163D01*
X694666Y381497D01*
X696332D01*
X697998Y383163D01*
X699665Y381497D01*
X701331D01*
X697998Y383163D02*
Y386495D01*
X693000Y398158D02*
Y391494D01*
X699665Y398158D01*
X701331D01*
X702997Y396492D01*
Y393160D01*
X701331Y391494D01*
X466250Y90000D02*
X476247D01*
Y94998D01*
X474581Y96664D01*
X471248D01*
X469582Y94998D01*
Y90000D01*
Y93332D02*
X466250Y96664D01*
X467916Y99997D02*
X466250Y101663D01*
Y104995D01*
X467916Y106661D01*
X474581D01*
X476247Y104995D01*
Y101663D01*
X474581Y99997D01*
X472915D01*
X471248Y101663D01*
Y106661D01*
X466250Y116658D02*
Y109993D01*
X472915Y116658D01*
X474581D01*
X476247Y114992D01*
Y111660D01*
X474581Y109993D01*
X375750Y66500D02*
X385747D01*
Y71498D01*
X384081Y73165D01*
X380748D01*
X379082Y71498D01*
Y66500D01*
Y69832D02*
X375750Y73165D01*
X377416Y76497D02*
X375750Y78163D01*
Y81495D01*
X377416Y83161D01*
X384081D01*
X385747Y81495D01*
Y78163D01*
X384081Y76497D01*
X382415D01*
X380748Y78163D01*
Y83161D01*
X384081Y86494D02*
X385747Y88160D01*
Y91492D01*
X384081Y93158D01*
X382415D01*
X380748Y91492D01*
Y89826D01*
Y91492D01*
X379082Y93158D01*
X377416D01*
X375750Y91492D01*
Y88160D01*
X377416Y86494D01*
X390500Y66750D02*
X400497D01*
Y71748D01*
X398831Y73415D01*
X395498D01*
X393832Y71748D01*
Y66750D01*
Y70082D02*
X390500Y73415D01*
X392166Y76747D02*
X390500Y78413D01*
Y81745D01*
X392166Y83411D01*
X398831D01*
X400497Y81745D01*
Y78413D01*
X398831Y76747D01*
X397164D01*
X395498Y78413D01*
Y83411D01*
X390500Y91742D02*
X400497D01*
X395498Y86744D01*
Y93408D01*
X295250Y89500D02*
X305247D01*
Y94498D01*
X303581Y96165D01*
X300248D01*
X298582Y94498D01*
Y89500D01*
Y92832D02*
X295250Y96165D01*
X296916Y99497D02*
X295250Y101163D01*
Y104495D01*
X296916Y106161D01*
X303581D01*
X305247Y104495D01*
Y101163D01*
X303581Y99497D01*
X301915D01*
X300248Y101163D01*
Y106161D01*
X305247Y116158D02*
Y109494D01*
X300248D01*
X301915Y112826D01*
Y114492D01*
X300248Y116158D01*
X296916D01*
X295250Y114492D01*
Y111160D01*
X296916Y109494D01*
X235250Y89500D02*
X245247D01*
Y94498D01*
X243581Y96165D01*
X240248D01*
X238582Y94498D01*
Y89500D01*
Y92832D02*
X235250Y96165D01*
X236916Y99497D02*
X235250Y101163D01*
Y104495D01*
X236916Y106161D01*
X243581D01*
X245247Y104495D01*
Y101163D01*
X243581Y99497D01*
X241915D01*
X240248Y101163D01*
Y106161D01*
X245247Y116158D02*
X243581Y112826D01*
X240248Y109494D01*
X236916D01*
X235250Y111160D01*
Y114492D01*
X236916Y116158D01*
X238582D01*
X240248Y114492D01*
Y109494D01*
X255250Y89500D02*
X265247D01*
Y94498D01*
X263581Y96165D01*
X260248D01*
X258582Y94498D01*
Y89500D01*
Y92832D02*
X255250Y96165D01*
X256916Y99497D02*
X255250Y101163D01*
Y104495D01*
X256916Y106161D01*
X263581D01*
X265247Y104495D01*
Y101163D01*
X263581Y99497D01*
X261915D01*
X260248Y101163D01*
Y106161D01*
X265247Y109494D02*
Y116158D01*
X263581D01*
X256916Y109494D01*
X255250D01*
X788500Y86750D02*
X798497D01*
Y91748D01*
X796831Y93414D01*
X793498D01*
X791832Y91748D01*
Y86750D01*
Y90082D02*
X788500Y93414D01*
X790166Y96747D02*
X788500Y98413D01*
Y101745D01*
X790166Y103411D01*
X796831D01*
X798497Y101745D01*
Y98413D01*
X796831Y96747D01*
X795164D01*
X793498Y98413D01*
Y103411D01*
X796831Y106744D02*
X798497Y108410D01*
Y111742D01*
X796831Y113408D01*
X795164D01*
X793498Y111742D01*
X791832Y113408D01*
X790166D01*
X788500Y111742D01*
Y108410D01*
X790166Y106744D01*
X791832D01*
X793498Y108410D01*
X795164Y106744D01*
X796831D01*
X793498Y108410D02*
Y111742D01*
X733500Y63750D02*
X743497D01*
Y68748D01*
X741831Y70415D01*
X738498D01*
X736832Y68748D01*
Y63750D01*
Y67082D02*
X733500Y70415D01*
X735166Y73747D02*
X733500Y75413D01*
Y78745D01*
X735166Y80411D01*
X741831D01*
X743497Y78745D01*
Y75413D01*
X741831Y73747D01*
X740164D01*
X738498Y75413D01*
Y80411D01*
X735166Y83744D02*
X733500Y85410D01*
Y88742D01*
X735166Y90408D01*
X741831D01*
X743497Y88742D01*
Y85410D01*
X741831Y83744D01*
X740164D01*
X738498Y85410D01*
Y90408D01*
X720500Y63250D02*
X730497D01*
Y68248D01*
X728831Y69914D01*
X725498D01*
X723832Y68248D01*
Y63250D01*
Y66582D02*
X720500Y69914D01*
Y73247D02*
Y76579D01*
Y74913D01*
X730497D01*
X728831Y73247D01*
Y81577D02*
X730497Y83244D01*
Y86576D01*
X728831Y88242D01*
X722166D01*
X720500Y86576D01*
Y83244D01*
X722166Y81577D01*
X728831D01*
Y91574D02*
X730497Y93240D01*
Y96573D01*
X728831Y98239D01*
X722166D01*
X720500Y96573D01*
Y93240D01*
X722166Y91574D01*
X728831D01*
X965335Y998331D02*
X967002Y999997D01*
X970334D01*
X972000Y998331D01*
Y996665D01*
X970334Y994998D01*
X967002D01*
X965335Y993332D01*
Y991666D01*
X967002Y990000D01*
X970334D01*
X972000Y991666D01*
X962003Y990000D02*
X958671D01*
X960337D01*
Y999997D01*
X962003Y998331D01*
X908592Y912423D02*
X901927D01*
X905260D01*
Y902426D01*
X898595D02*
X895263D01*
X896929D01*
Y912423D01*
X898595Y910757D01*
X850488Y857197D02*
X843823D01*
X847156D01*
Y847201D01*
X833827D02*
X840491D01*
X833827Y853865D01*
Y855531D01*
X835493Y857197D01*
X838825D01*
X840491Y855531D01*
X885000Y875997D02*
X878335D01*
X881668D01*
Y866000D01*
X875003D02*
Y875997D01*
X870005D01*
X868339Y874331D01*
Y870998D01*
X870005Y869332D01*
X875003D01*
X865006Y866000D02*
X861674D01*
X863340D01*
Y875997D01*
X865006Y874331D01*
X818000Y876997D02*
X811336D01*
X814668D01*
Y867000D01*
X808003D02*
Y876997D01*
X803005D01*
X801339Y875331D01*
Y871998D01*
X803005Y870332D01*
X808003D01*
X791342Y867000D02*
X798006D01*
X791342Y873664D01*
Y875331D01*
X793008Y876997D01*
X796340D01*
X798006Y875331D01*
X170270Y876309D02*
Y867978D01*
X168604Y866312D01*
X165272D01*
X163606Y867978D01*
Y876309D01*
X160273Y866312D02*
X156941D01*
X158607D01*
Y876309D01*
X160273Y874643D01*
X781000Y832997D02*
Y824666D01*
X779334Y823000D01*
X776002D01*
X774335Y824666D01*
Y832997D01*
X771003Y831331D02*
X769337Y832997D01*
X766005D01*
X764339Y831331D01*
Y829665D01*
X766005Y827998D01*
X767671D01*
X766005D01*
X764339Y826332D01*
Y824666D01*
X766005Y823000D01*
X769337D01*
X771003Y824666D01*
X640819Y506820D02*
Y498489D01*
X639153Y496823D01*
X635821D01*
X634155Y498489D01*
Y506820D01*
X625824Y496823D02*
Y506820D01*
X630822Y501822D01*
X624158D01*
X855500Y626247D02*
Y617916D01*
X853834Y616250D01*
X850502D01*
X848836Y617916D01*
Y626247D01*
X838839D02*
X842171Y624581D01*
X845503Y621248D01*
Y617916D01*
X843837Y616250D01*
X840505D01*
X838839Y617916D01*
Y619582D01*
X840505Y621248D01*
X845503D01*
X818750Y357997D02*
Y349666D01*
X817084Y348000D01*
X813752D01*
X812085Y349666D01*
Y357997D01*
X808753Y348000D02*
X805421D01*
X807087D01*
Y357997D01*
X808753Y356331D01*
X793758Y348000D02*
X800423D01*
X793758Y354664D01*
Y356331D01*
X795424Y357997D01*
X798756D01*
X800423Y356331D01*
X582000Y817997D02*
Y809666D01*
X580334Y808000D01*
X577002D01*
X575336Y809666D01*
Y817997D01*
X572003Y808000D02*
X568671D01*
X570337D01*
Y817997D01*
X572003Y816331D01*
X563673D02*
X562006Y817997D01*
X558674D01*
X557008Y816331D01*
Y814665D01*
X558674Y812998D01*
X560340D01*
X558674D01*
X557008Y811332D01*
Y809666D01*
X558674Y808000D01*
X562006D01*
X563673Y809666D01*
X353250Y819997D02*
Y811666D01*
X351584Y810000D01*
X348252D01*
X346586Y811666D01*
Y819997D01*
X343253Y810000D02*
X339921D01*
X341587D01*
Y819997D01*
X343253Y818331D01*
X329924Y810000D02*
Y819997D01*
X334923Y814998D01*
X328258D01*
X143000Y464247D02*
Y455916D01*
X141334Y454250D01*
X138002D01*
X136335Y455916D01*
Y464247D01*
X133003Y454250D02*
X129671D01*
X131337D01*
Y464247D01*
X133003Y462581D01*
X118008Y464247D02*
X124673D01*
Y459248D01*
X121340Y460914D01*
X119674D01*
X118008Y459248D01*
Y455916D01*
X119674Y454250D01*
X123006D01*
X124673Y455916D01*
X329500Y636497D02*
Y628166D01*
X327834Y626500D01*
X324502D01*
X322836Y628166D01*
Y636497D01*
X319503Y626500D02*
X316171D01*
X317837D01*
Y636497D01*
X319503Y634831D01*
X304508Y636497D02*
X307840Y634831D01*
X311173Y631498D01*
Y628166D01*
X309506Y626500D01*
X306174D01*
X304508Y628166D01*
Y629832D01*
X306174Y631498D01*
X311173D01*
X859500Y970750D02*
Y980747D01*
X852835Y970750D01*
Y980747D01*
X844505D02*
X847837D01*
X849503Y979081D01*
Y972416D01*
X847837Y970750D01*
X844505D01*
X842839Y972416D01*
Y979081D01*
X844505Y980747D01*
X839506D02*
X836174D01*
X837840D01*
Y970750D01*
X839506D01*
X836174D01*
X824511Y979081D02*
X826177Y980747D01*
X829510D01*
X831176Y979081D01*
Y977414D01*
X829510Y975748D01*
X826177D01*
X824511Y974082D01*
Y972416D01*
X826177Y970750D01*
X829510D01*
X831176Y972416D01*
X821179Y980747D02*
Y979081D01*
X817847Y975748D01*
X814514Y979081D01*
Y980747D01*
X817847Y975748D02*
Y970750D01*
X801186Y980747D02*
Y970750D01*
X796187D01*
X794521Y972416D01*
Y979081D01*
X796187Y980747D01*
X801186D01*
X791189D02*
X787856D01*
X789523D01*
Y970750D01*
X791189D01*
X787856D01*
X777860Y980747D02*
X781192D01*
X782858Y979081D01*
Y972416D01*
X781192Y970750D01*
X777860D01*
X776193Y972416D01*
Y979081D01*
X777860Y980747D01*
X772861D02*
Y970750D01*
X767863D01*
X766197Y972416D01*
Y979081D01*
X767863Y980747D01*
X772861D01*
X756200D02*
X762865D01*
Y970750D01*
X756200D01*
X762865Y975748D02*
X759532D01*
X826168Y953750D02*
X829500Y957082D01*
Y960415D01*
X826168Y963747D01*
X814505Y955416D02*
Y962081D01*
X816171Y963747D01*
X819503D01*
X821169Y962081D01*
Y955416D01*
X819503Y953750D01*
X816171D01*
X817837Y957082D02*
X814505Y953750D01*
X816171D02*
X814505Y955416D01*
X804508Y953750D02*
X811173D01*
X804508Y960415D01*
Y962081D01*
X806174Y963747D01*
X809506D01*
X811173Y962081D01*
X801176Y953750D02*
X797843Y957082D01*
Y960415D01*
X801176Y963747D01*
D46*
X449534Y573848D02*
X679534D01*
X449534Y803848D02*
X679534D01*
X449534Y573848D02*
Y803848D01*
X679534Y573848D02*
Y803848D01*
X669534D02*
X679534Y793848D01*
X350918Y462136D02*
X622918D01*
X350918Y190136D02*
X622918D01*
Y462136D01*
X350918Y190136D02*
Y462136D01*
X759204Y386264D02*
Y610264D01*
X854204Y386264D02*
Y610264D01*
X759204Y386264D02*
X854204D01*
X759204Y610264D02*
X854204D01*
X723200Y777454D02*
X953200D01*
X723200D02*
Y1002454D01*
X953200D01*
Y777454D02*
Y1002454D01*
D48*
X363918Y200136D02*
G03*
X363918Y200136I-3000J0D01*
G01*
X772204Y396264D02*
G03*
X772204Y396264I-3000J0D01*
G01*
D66*
X687284Y802348D02*
G03*
X687284Y802348I-1250J0D01*
G01*
X340668Y191636D02*
G03*
X340668Y191636I-1250J0D01*
G01*
X750454Y386264D02*
G03*
X750454Y386264I-1250J0D01*
G01*
D67*
X893826Y851408D02*
G03*
X893826Y851408I-10668J0D01*
G01*
X832104D02*
G03*
X832104Y851408I-10668J0D01*
G01*
X131428Y372872D02*
G03*
X131428Y372872I-2396J0D01*
G01*
X336406Y803656D02*
G03*
X336406Y803656I-2396J0D01*
G01*
X224900Y866140D02*
G03*
X224900Y866140I-2396J0D01*
G01*
X315578Y618490D02*
G03*
X315578Y618490I-2396J0D01*
G01*
X710294Y859790D02*
G03*
X710294Y859790I-2396J0D01*
G01*
X311304Y333240D02*
G03*
X311304Y333240I-2396J0D01*
G01*
X786906Y349090D02*
G03*
X786906Y349090I-2300J0D01*
G01*
D91*
X779526Y304132D02*
G03*
X779526Y310228I-127J3048D01*
G01*
X829310Y295496D02*
Y318864D01*
X779526Y295496D02*
Y310228D01*
Y318864D01*
D93*
X837510Y820532D02*
X846510D01*
X847010Y834532D02*
X857010D01*
Y820532D02*
Y834532D01*
X827010D02*
X837010D01*
X827010Y820532D02*
Y834532D01*
X917208Y874634D02*
Y888634D01*
X907208Y874634D02*
X917208D01*
X887208D02*
Y888634D01*
Y874634D02*
X897208D01*
X897708Y888634D02*
X906708D01*
X896732Y923362D02*
Y932362D01*
X910732Y912862D02*
Y922862D01*
X896732Y912862D02*
X910732D01*
Y932862D02*
Y942862D01*
X896732D02*
X910732D01*
X821548Y876794D02*
X835548D01*
X821548D02*
Y886794D01*
Y906794D02*
X835548D01*
X821548Y896794D02*
Y906794D01*
X835548Y887294D02*
Y896294D01*
D95*
X677926Y229840D02*
X684926D01*
Y257840D01*
X670926D02*
X684926D01*
X670926Y229840D02*
Y257840D01*
Y229840D02*
X677926D01*
X652638D02*
X659638D01*
X652638D02*
Y257840D01*
X666638D01*
Y229840D02*
Y257840D01*
X659638Y229840D02*
X666638D01*
X564672Y496824D02*
Y503824D01*
X536672D02*
X564672D01*
X536672Y489824D02*
Y503824D01*
Y489824D02*
X564672D01*
Y496824D01*
Y508112D02*
Y515112D01*
X536672Y508112D02*
X564672D01*
X536672D02*
Y522112D01*
X564672D01*
Y515112D02*
Y522112D01*
X463266Y135494D02*
Y142494D01*
Y135494D02*
X491266D01*
Y149494D01*
X463266D02*
X491266D01*
X463266Y142494D02*
Y149494D01*
X784038Y152710D02*
X793038D01*
Y188710D01*
X775038D02*
X793038D01*
X775038Y152710D02*
Y188710D01*
Y152710D02*
X784038D01*
X179759Y50614D02*
Y59614D01*
Y50614D02*
X215759D01*
Y68614D01*
X179759D02*
X215759D01*
X179759Y59614D02*
Y68614D01*
X474946Y504334D02*
Y513334D01*
X438946Y504334D02*
X474946D01*
X438946D02*
Y522334D01*
X474946D01*
Y513334D02*
Y522334D01*
X288180Y283684D02*
X297180D01*
X288180Y247684D02*
Y283684D01*
Y247684D02*
X306180D01*
Y283684D01*
X297180D02*
X306180D01*
X347472Y599078D02*
X362472D01*
Y649078D01*
X332472D02*
X362472D01*
X332472Y599078D02*
Y649078D01*
Y599078D02*
X347472D01*
X346964Y578466D02*
X361964D01*
Y528466D02*
Y578466D01*
X331964Y528466D02*
X361964D01*
X331964D02*
Y578466D01*
X346964D01*
X195472Y447788D02*
Y462788D01*
Y447788D02*
X245472D01*
Y477788D01*
X195472D02*
X245472D01*
X195472Y462788D02*
Y477788D01*
Y506476D02*
Y521476D01*
X245472D01*
Y491476D02*
Y521476D01*
X195472Y491476D02*
X245472D01*
X195472D02*
Y506476D01*
X49008Y360826D02*
X64008D01*
X49008D02*
Y410826D01*
X79008D01*
Y360826D02*
Y410826D01*
X64008Y360826D02*
X79008D01*
X385558Y819004D02*
X400558D01*
X385558Y769004D02*
Y819004D01*
Y769004D02*
X415558D01*
Y819004D01*
X400558D02*
X415558D01*
X64008Y474326D02*
X79008D01*
Y424326D02*
Y474326D01*
X49008Y424326D02*
X79008D01*
X49008D02*
Y474326D01*
X64008D01*
X400558Y701186D02*
X415558D01*
Y751186D01*
X385558D02*
X415558D01*
X385558Y701186D02*
Y751186D01*
Y701186D02*
X400558D01*
X177908Y658354D02*
Y673354D01*
X127908Y658354D02*
X177908D01*
X127908D02*
Y688354D01*
X177908D01*
Y673354D02*
Y688354D01*
X189630Y875524D02*
Y890524D01*
Y875524D02*
X239630D01*
Y905524D01*
X189630D02*
X239630D01*
X189630Y890524D02*
Y905524D01*
Y940689D02*
Y955689D01*
X239630D01*
Y925689D02*
Y955689D01*
X189630Y925689D02*
X239630D01*
X189630D02*
Y940689D01*
Y975854D02*
Y990854D01*
Y975854D02*
X239630D01*
Y1005854D01*
X189630D02*
X239630D01*
X189630Y990854D02*
Y1005854D01*
X767684Y836408D02*
Y866408D01*
X779684Y836408D02*
Y866408D01*
X767684Y836408D02*
X779684D01*
X767684Y866408D02*
X779684D01*
D96*
X658368Y822452D02*
X701548D01*
Y871220D01*
X658368Y822452D02*
Y871220D01*
X701294D01*
D205*
X385740Y559668D02*
X406740D01*
Y604668D01*
X385740D02*
X406740D01*
X385740Y559668D02*
Y604668D01*
X55478Y341970D02*
X100478D01*
Y320970D02*
Y341970D01*
X55478Y320970D02*
X100478D01*
X55478D02*
Y341970D01*
X392028Y832272D02*
Y853272D01*
Y832272D02*
X437028D01*
Y853272D01*
X392028D02*
X437028D01*
D206*
X203200Y703326D02*
Y861828D01*
X46736D02*
X203200D01*
X46736Y703326D02*
Y861828D01*
Y703326D02*
X203200D01*
M02*
