G04 Layer_Physical_Order=1*
G04 Layer_Color=255*
%FSLAX44Y44*%
%MOMM*%
G71*
G01*
G75*
%ADD10R,1.0000X0.8000*%
%ADD11R,1.2000X0.8000*%
%ADD12R,0.8000X1.2000*%
%ADD13C,1.0000*%
%ADD14R,0.6604X2.0320*%
%ADD15R,2.0320X0.6604*%
%ADD16R,0.4500X0.6000*%
%ADD17R,0.6000X0.4500*%
%ADD18R,1.0000X1.2000*%
%ADD19R,1.2000X1.0000*%
%ADD20R,2.6000X1.6000*%
%ADD21R,1.6000X2.6000*%
%ADD22R,2.4000X2.6000*%
%ADD23R,2.6000X2.4000*%
%ADD24R,1.3970X1.1938*%
%ADD25R,1.1938X1.3970*%
%ADD26R,1.5500X0.6000*%
%ADD27O,1.2000X0.3000*%
%ADD28R,0.3000X0.8500*%
%ADD29R,1.6000X2.0000*%
%ADD30R,0.6000X1.6000*%
%ADD31R,1.0000X0.9000*%
%ADD32R,0.9000X1.0000*%
%ADD33R,0.3000X1.8000*%
%ADD34R,1.8000X0.3000*%
%ADD35R,1.9050X1.1176*%
%ADD36O,0.5500X1.5500*%
%ADD37R,0.5500X1.5500*%
%ADD38R,1.5500X0.5500*%
%ADD39R,1.2446X0.4064*%
%ADD40R,0.4500X1.0160*%
%ADD41R,0.6096X1.0160*%
%ADD42C,0.3000*%
%ADD43C,0.1500*%
%ADD44C,0.5000*%
%ADD45C,1.0000*%
%ADD46C,0.2000*%
%ADD47C,0.1640*%
%ADD48C,0.6000*%
%ADD49C,1.5000*%
%ADD50R,1.5000X1.5000*%
%ADD51R,1.5000X1.5000*%
%ADD52C,1.0160*%
%ADD53O,2.0000X4.5000*%
%ADD54O,4.5000X2.0000*%
%ADD55C,0.5000*%
%ADD56C,0.6000*%
G36*
X259750Y1005000D02*
Y950000D01*
X411499Y950000D01*
X411501Y927250D01*
X435750Y927250D01*
X435750Y942750D01*
X443000Y950000D01*
X560000D01*
Y880000D01*
X630750Y880000D01*
X630750Y863750D01*
X630750Y837750D01*
X614750D01*
Y848750D01*
X523250D01*
Y876500D01*
X502500D01*
X502561Y849587D01*
X501663Y848688D01*
X456250D01*
Y862447D01*
X460000Y866000D01*
X460000Y875000D01*
X450000Y885000D01*
X425000D01*
X420000Y880000D01*
X420000Y872467D01*
X415533Y868000D01*
Y834500D01*
X423016Y827016D01*
X427766Y822266D01*
X427766Y781016D01*
X435016Y773766D01*
X448750D01*
Y761004D01*
X432597D01*
X429351Y764250D01*
X418500D01*
X417697Y764583D01*
X416000Y764806D01*
X414303Y764583D01*
X413500Y764250D01*
X407500D01*
Y738750D01*
X429351D01*
Y720500D01*
X375243Y720500D01*
X355240Y740503D01*
X343161Y740503D01*
X338968Y744696D01*
X338968Y774782D01*
X261500Y852250D01*
X235500Y852250D01*
X235500Y706750D01*
X170000Y641250D01*
Y620000D01*
X175500Y614500D01*
X254346Y614500D01*
X299750D01*
X312250Y602000D01*
X312250Y556000D01*
X301500Y545250D01*
X261500D01*
X257500Y541250D01*
Y492500D01*
X218250Y492500D01*
X207750Y482000D01*
X145000D01*
X125000Y502000D01*
X125000Y531000D01*
X105376Y531000D01*
X104982Y531078D01*
X104588Y531000D01*
X90000D01*
X90000Y438000D01*
X124000Y438000D01*
Y400000D01*
X162500D01*
Y350000D01*
X120000D01*
X120000Y166219D01*
X27000D01*
Y817857D01*
X27000Y970000D01*
X62000Y1005000D01*
X259750Y1005000D01*
D02*
G37*
G36*
X495000Y810000D02*
X451000D01*
Y839000D01*
X495000D01*
Y810000D01*
D02*
G37*
G36*
X1010000Y-150000D02*
X985000Y-175000D01*
X885043D01*
Y-80000D01*
X1010000D01*
Y-150000D01*
D02*
G37*
G36*
X815000Y-90000D02*
Y-175000D01*
X780000D01*
X780000Y-140000D01*
X720000Y-140000D01*
X720000Y-175000D01*
X685000D01*
Y-80000D01*
X805000D01*
X815000Y-90000D01*
D02*
G37*
G36*
X295000Y-80000D02*
X615000D01*
Y-175000D01*
X570000D01*
Y-171059D01*
X575000D01*
X576171Y-170826D01*
X577163Y-170163D01*
X577826Y-169170D01*
X578059Y-168000D01*
X577826Y-166829D01*
X577163Y-165837D01*
X576171Y-165174D01*
X575000Y-164941D01*
X570000D01*
Y-135000D01*
X490000D01*
Y-164941D01*
X488000D01*
X486829Y-165174D01*
X485837Y-165837D01*
X485174Y-166829D01*
X484941Y-168000D01*
X485174Y-169170D01*
X485837Y-170163D01*
X486829Y-170826D01*
X488000Y-171059D01*
X490000D01*
Y-175000D01*
X465000D01*
Y-170559D01*
X470000D01*
X471171Y-170326D01*
X472163Y-169663D01*
X472826Y-168671D01*
X473059Y-167500D01*
X472826Y-166329D01*
X472163Y-165337D01*
X471171Y-164674D01*
X470000Y-164441D01*
X465000D01*
Y-135000D01*
X385000D01*
Y-164441D01*
X379820D01*
X378649Y-164674D01*
X377657Y-165337D01*
X376994Y-166329D01*
X376761Y-167500D01*
X376994Y-168671D01*
X377657Y-169663D01*
X378649Y-170326D01*
X379820Y-170559D01*
X385000D01*
Y-175000D01*
X355000D01*
Y-170559D01*
X357500D01*
X358671Y-170326D01*
X359663Y-169663D01*
X360326Y-168671D01*
X360559Y-167500D01*
X360326Y-166329D01*
X359663Y-165337D01*
X358671Y-164674D01*
X357500Y-164441D01*
X355000D01*
Y-135000D01*
X275000D01*
Y-164441D01*
X270500D01*
X269329Y-164674D01*
X268337Y-165337D01*
X267674Y-166329D01*
X267441Y-167500D01*
X267674Y-168671D01*
X268337Y-169663D01*
X269329Y-170326D01*
X270500Y-170559D01*
X275000D01*
Y-175000D01*
X54829D01*
X29915Y-150085D01*
Y10000D01*
X295000D01*
Y-80000D01*
D02*
G37*
%LPC*%
G36*
X80000Y980952D02*
X78303Y980728D01*
X76722Y980073D01*
X75364Y979032D01*
X74322Y977674D01*
X73667Y976093D01*
X73444Y974396D01*
X73667Y972699D01*
X74322Y971118D01*
X75364Y969760D01*
X76722Y968718D01*
X78303Y968063D01*
X80000Y967840D01*
X81697Y968063D01*
X83278Y968718D01*
X84636Y969760D01*
X85678Y971118D01*
X86333Y972699D01*
X86556Y974396D01*
X86333Y976093D01*
X85678Y977674D01*
X84636Y979032D01*
X83278Y980073D01*
X81697Y980728D01*
X80000Y980952D01*
D02*
G37*
G36*
X95000Y980752D02*
X93303Y980529D01*
X91722Y979874D01*
X90364Y978832D01*
X89322Y977474D01*
X88667Y975893D01*
X88444Y974196D01*
X88667Y972499D01*
X89322Y970918D01*
X90364Y969560D01*
X91722Y968518D01*
X93303Y967863D01*
X95000Y967640D01*
X96697Y967863D01*
X98278Y968518D01*
X99636Y969560D01*
X100678Y970918D01*
X101333Y972499D01*
X101556Y974196D01*
X101333Y975893D01*
X100678Y977474D01*
X99636Y978832D01*
X98278Y979874D01*
X96697Y980529D01*
X95000Y980752D01*
D02*
G37*
G36*
X80000Y966006D02*
X78303Y965782D01*
X76722Y965127D01*
X75364Y964085D01*
X74322Y962728D01*
X73667Y961146D01*
X73444Y959450D01*
X73667Y957753D01*
X74322Y956172D01*
X75364Y954814D01*
X76722Y953772D01*
X78303Y953117D01*
X80000Y952894D01*
X81697Y953117D01*
X83278Y953772D01*
X84636Y954814D01*
X85678Y956172D01*
X86333Y957753D01*
X86556Y959450D01*
X86333Y961146D01*
X85678Y962728D01*
X84636Y964085D01*
X83278Y965127D01*
X81697Y965782D01*
X80000Y966006D01*
D02*
G37*
G36*
X95000Y965806D02*
X93303Y965583D01*
X91722Y964928D01*
X90364Y963886D01*
X89322Y962528D01*
X88667Y960947D01*
X88444Y959250D01*
X88667Y957553D01*
X89322Y955972D01*
X90364Y954614D01*
X91722Y953572D01*
X93303Y952917D01*
X95000Y952694D01*
X96697Y952917D01*
X98278Y953572D01*
X99636Y954614D01*
X100678Y955972D01*
X101333Y957553D01*
X101556Y959250D01*
X101333Y960947D01*
X100678Y962528D01*
X99636Y963886D01*
X98278Y964928D01*
X96697Y965583D01*
X95000Y965806D01*
D02*
G37*
G36*
X80000Y950952D02*
X78303Y950728D01*
X76722Y950073D01*
X75364Y949032D01*
X74322Y947674D01*
X73667Y946093D01*
X73444Y944396D01*
X73667Y942699D01*
X74322Y941118D01*
X75364Y939760D01*
X76722Y938718D01*
X78303Y938063D01*
X80000Y937840D01*
X81697Y938063D01*
X83278Y938718D01*
X84636Y939760D01*
X85678Y941118D01*
X86333Y942699D01*
X86556Y944396D01*
X86333Y946093D01*
X85678Y947674D01*
X84636Y949032D01*
X83278Y950073D01*
X81697Y950728D01*
X80000Y950952D01*
D02*
G37*
G36*
X95000Y950752D02*
X93303Y950529D01*
X91722Y949874D01*
X90364Y948832D01*
X89322Y947474D01*
X88667Y945893D01*
X88444Y944196D01*
X88667Y942499D01*
X89322Y940918D01*
X90364Y939560D01*
X91722Y938518D01*
X93303Y937863D01*
X95000Y937640D01*
X96697Y937863D01*
X98278Y938518D01*
X99636Y939560D01*
X100678Y940918D01*
X101333Y942499D01*
X101556Y944196D01*
X101333Y945893D01*
X100678Y947474D01*
X99636Y948832D01*
X98278Y949874D01*
X96697Y950529D01*
X95000Y950752D01*
D02*
G37*
G36*
X80000Y936006D02*
X78303Y935782D01*
X76722Y935127D01*
X75364Y934085D01*
X74322Y932728D01*
X73667Y931147D01*
X73444Y929450D01*
X73667Y927753D01*
X74322Y926172D01*
X75364Y924814D01*
X76722Y923772D01*
X78303Y923117D01*
X80000Y922894D01*
X81697Y923117D01*
X83278Y923772D01*
X84636Y924814D01*
X85678Y926172D01*
X86333Y927753D01*
X86556Y929450D01*
X86333Y931147D01*
X85678Y932728D01*
X84636Y934085D01*
X83278Y935127D01*
X81697Y935782D01*
X80000Y936006D01*
D02*
G37*
G36*
X95000Y935806D02*
X93303Y935583D01*
X91722Y934928D01*
X90364Y933886D01*
X89322Y932528D01*
X88667Y930947D01*
X88444Y929250D01*
X88667Y927553D01*
X89322Y925972D01*
X90364Y924614D01*
X91722Y923572D01*
X93303Y922917D01*
X95000Y922694D01*
X96697Y922917D01*
X98278Y923572D01*
X99636Y924614D01*
X100678Y925972D01*
X101333Y927553D01*
X101556Y929250D01*
X101333Y930947D01*
X100678Y932528D01*
X99636Y933886D01*
X98278Y934928D01*
X96697Y935583D01*
X95000Y935806D01*
D02*
G37*
G36*
X80000Y920952D02*
X78303Y920728D01*
X76722Y920073D01*
X75364Y919032D01*
X74322Y917674D01*
X73667Y916093D01*
X73444Y914396D01*
X73667Y912699D01*
X74322Y911118D01*
X75364Y909760D01*
X76722Y908718D01*
X78303Y908063D01*
X80000Y907840D01*
X81697Y908063D01*
X83278Y908718D01*
X84636Y909760D01*
X85678Y911118D01*
X86333Y912699D01*
X86556Y914396D01*
X86333Y916093D01*
X85678Y917674D01*
X84636Y919032D01*
X83278Y920073D01*
X81697Y920728D01*
X80000Y920952D01*
D02*
G37*
G36*
X95000Y920752D02*
X93303Y920529D01*
X91722Y919874D01*
X90364Y918832D01*
X89322Y917474D01*
X88667Y915893D01*
X88444Y914196D01*
X88667Y912499D01*
X89322Y910918D01*
X90364Y909560D01*
X91722Y908518D01*
X93303Y907863D01*
X95000Y907640D01*
X96697Y907863D01*
X98278Y908518D01*
X99636Y909560D01*
X100678Y910918D01*
X101333Y912499D01*
X101556Y914196D01*
X101333Y915893D01*
X100678Y917474D01*
X99636Y918832D01*
X98278Y919874D01*
X96697Y920529D01*
X95000Y920752D01*
D02*
G37*
G36*
X80000Y906006D02*
X78303Y905782D01*
X76722Y905127D01*
X75364Y904085D01*
X74322Y902728D01*
X73667Y901147D01*
X73444Y899450D01*
X73667Y897753D01*
X74322Y896172D01*
X75364Y894814D01*
X76722Y893772D01*
X78303Y893117D01*
X79662Y892938D01*
Y891657D01*
X79099Y891583D01*
X78303Y891478D01*
X76722Y890823D01*
X75364Y889781D01*
X74322Y888424D01*
X73667Y886842D01*
X73444Y885146D01*
X73667Y883449D01*
X74322Y881868D01*
X75364Y880510D01*
X76722Y879468D01*
X78303Y878813D01*
X80000Y878590D01*
X81697Y878813D01*
X83278Y879468D01*
X84636Y880510D01*
X85678Y881868D01*
X86333Y883449D01*
X86556Y885146D01*
X86333Y886842D01*
X85678Y888424D01*
X84636Y889781D01*
X83278Y890823D01*
X81697Y891478D01*
X80338Y891657D01*
Y892938D01*
X80901Y893012D01*
X81697Y893117D01*
X83278Y893772D01*
X84636Y894814D01*
X85678Y896172D01*
X86333Y897753D01*
X86556Y899450D01*
X86333Y901147D01*
X85678Y902728D01*
X84636Y904085D01*
X83278Y905127D01*
X81697Y905782D01*
X80000Y906006D01*
D02*
G37*
G36*
X95000Y905806D02*
X93303Y905583D01*
X91722Y904928D01*
X90364Y903886D01*
X89322Y902528D01*
X88667Y900947D01*
X88444Y899250D01*
X88667Y897553D01*
X89322Y895972D01*
X90364Y894614D01*
X91722Y893572D01*
X93303Y892917D01*
X94662Y892738D01*
Y891458D01*
X94099Y891384D01*
X93303Y891279D01*
X91722Y890624D01*
X90364Y889582D01*
X89322Y888224D01*
X88667Y886643D01*
X88444Y884946D01*
X88667Y883249D01*
X89322Y881668D01*
X90364Y880310D01*
X91722Y879268D01*
X93303Y878613D01*
X95000Y878390D01*
X96697Y878613D01*
X98278Y879268D01*
X99636Y880310D01*
X100678Y881668D01*
X101333Y883249D01*
X101556Y884946D01*
X101333Y886643D01*
X100678Y888224D01*
X99636Y889582D01*
X98278Y890624D01*
X96697Y891279D01*
X95338Y891458D01*
Y892738D01*
X95901Y892813D01*
X96697Y892917D01*
X98278Y893572D01*
X99636Y894614D01*
X100678Y895972D01*
X101333Y897553D01*
X101556Y899250D01*
X101333Y900947D01*
X100678Y902528D01*
X99636Y903886D01*
X98278Y904928D01*
X96697Y905583D01*
X95000Y905806D01*
D02*
G37*
G36*
X80000Y876756D02*
X78303Y876532D01*
X76722Y875877D01*
X75364Y874836D01*
X74322Y873478D01*
X73667Y871897D01*
X73444Y870200D01*
X73667Y868503D01*
X74322Y866922D01*
X75364Y865564D01*
X76722Y864522D01*
X78303Y863867D01*
X80000Y863644D01*
X81697Y863867D01*
X83278Y864522D01*
X84636Y865564D01*
X85678Y866922D01*
X86333Y868503D01*
X86556Y870200D01*
X86333Y871897D01*
X85678Y873478D01*
X84636Y874836D01*
X83278Y875877D01*
X81697Y876532D01*
X80000Y876756D01*
D02*
G37*
G36*
X95000Y876556D02*
X93303Y876333D01*
X91722Y875678D01*
X90364Y874636D01*
X89322Y873278D01*
X88667Y871697D01*
X88444Y870000D01*
X88667Y868303D01*
X89322Y866722D01*
X90364Y865364D01*
X91722Y864322D01*
X93303Y863667D01*
X95000Y863444D01*
X96697Y863667D01*
X98278Y864322D01*
X99636Y865364D01*
X100678Y866722D01*
X101333Y868303D01*
X101556Y870000D01*
X101333Y871697D01*
X100678Y873278D01*
X99636Y874636D01*
X98278Y875678D01*
X96697Y876333D01*
X95000Y876556D01*
D02*
G37*
G36*
X96250Y352306D02*
X94553Y352083D01*
X92972Y351428D01*
X91614Y350386D01*
X90572Y349028D01*
X89917Y347447D01*
X89694Y345750D01*
X89917Y344053D01*
X90572Y342472D01*
X91614Y341114D01*
X92972Y340072D01*
X94553Y339417D01*
X96250Y339194D01*
X97947Y339417D01*
X98980Y339845D01*
X99895Y338849D01*
X99417Y337697D01*
X99194Y336000D01*
X99417Y334303D01*
X100072Y332722D01*
X101114Y331364D01*
X101284Y331234D01*
X101614Y329886D01*
X100572Y328528D01*
X99917Y326947D01*
X99694Y325250D01*
X99821Y324285D01*
X98658Y323392D01*
X98197Y323583D01*
X96500Y323806D01*
X94803Y323583D01*
X93222Y322928D01*
X91864Y321886D01*
X90822Y320528D01*
X90167Y318947D01*
X89944Y317250D01*
X90167Y315553D01*
X90822Y313972D01*
X91864Y312614D01*
X93222Y311572D01*
X94803Y310917D01*
X96500Y310694D01*
X98197Y310917D01*
X99778Y311572D01*
X101136Y312614D01*
X102178Y313972D01*
X102833Y315553D01*
X103056Y317250D01*
X102929Y318215D01*
X104092Y319108D01*
X104553Y318917D01*
X106250Y318694D01*
X107947Y318917D01*
X109528Y319572D01*
X110886Y320614D01*
X111928Y321972D01*
X112583Y323553D01*
X112806Y325250D01*
X112583Y326947D01*
X111928Y328528D01*
X110886Y329886D01*
X110579Y330121D01*
X110416Y331404D01*
X111428Y332722D01*
X112083Y334303D01*
X112306Y336000D01*
X112083Y337697D01*
X111428Y339278D01*
X110386Y340636D01*
X109028Y341678D01*
X107447Y342333D01*
X105750Y342556D01*
X104053Y342333D01*
X103020Y341905D01*
X102105Y342901D01*
X102583Y344053D01*
X102806Y345750D01*
X102583Y347447D01*
X101928Y349028D01*
X100886Y350386D01*
X99528Y351428D01*
X97947Y352083D01*
X96250Y352306D01*
D02*
G37*
G36*
X212500Y-36401D02*
X187500D01*
X184498Y-36796D01*
X181700Y-37955D01*
X179298Y-39798D01*
X177455Y-42200D01*
X176296Y-44998D01*
X175901Y-48000D01*
X176296Y-51002D01*
X177455Y-53800D01*
X179298Y-56202D01*
X181700Y-58045D01*
X184498Y-59204D01*
X187500Y-59599D01*
X212500D01*
X215502Y-59204D01*
X218300Y-58045D01*
X220702Y-56202D01*
X222545Y-53800D01*
X223704Y-51002D01*
X224099Y-48000D01*
X223704Y-44998D01*
X222545Y-42200D01*
X220702Y-39798D01*
X218300Y-37955D01*
X215502Y-36796D01*
X212500Y-36401D01*
D02*
G37*
G36*
X248000Y-52892D02*
X244737Y-53322D01*
X241696Y-54581D01*
X241085Y-55050D01*
X248000Y-61964D01*
X254914Y-55050D01*
X254304Y-54581D01*
X251263Y-53322D01*
X248000Y-52892D01*
D02*
G37*
G36*
X258450Y-58585D02*
X249768Y-67268D01*
X248000Y-65500D01*
X246232Y-67268D01*
X237550Y-58585D01*
X237081Y-59196D01*
X235822Y-62237D01*
X235392Y-65500D01*
Y-90500D01*
X235822Y-93763D01*
X237081Y-96804D01*
X237550Y-97415D01*
X246232Y-88732D01*
X248000Y-90500D01*
X249768Y-88732D01*
X258450Y-97415D01*
X258919Y-96804D01*
X260178Y-93763D01*
X260608Y-90500D01*
Y-65500D01*
X260178Y-62237D01*
X258919Y-59196D01*
X258450Y-58585D01*
D02*
G37*
G36*
X248000Y-94035D02*
X241085Y-100950D01*
X241696Y-101419D01*
X244737Y-102678D01*
X248000Y-103108D01*
X251263Y-102678D01*
X254304Y-101419D01*
X254915Y-100950D01*
X248000Y-94035D01*
D02*
G37*
G36*
X177050Y-99085D02*
X176581Y-99696D01*
X175322Y-102737D01*
X174892Y-106000D01*
X175322Y-109263D01*
X176581Y-112304D01*
X177050Y-112915D01*
X183965Y-106000D01*
X177050Y-99085D01*
D02*
G37*
G36*
X222950Y-99085D02*
X216035Y-106000D01*
X222950Y-112915D01*
X223419Y-112304D01*
X224678Y-109263D01*
X225108Y-106000D01*
X224678Y-102737D01*
X223419Y-99696D01*
X222950Y-99085D01*
D02*
G37*
G36*
X212500Y-93392D02*
X187500D01*
X184237Y-93822D01*
X181196Y-95081D01*
X180585Y-95550D01*
X189268Y-104232D01*
X187500Y-106000D01*
X189268Y-107768D01*
X180585Y-116450D01*
X181196Y-116919D01*
X184237Y-118178D01*
X187500Y-118608D01*
X212500D01*
X215763Y-118178D01*
X218804Y-116919D01*
X219415Y-116450D01*
X210732Y-107768D01*
X212500Y-106000D01*
X210732Y-104232D01*
X219415Y-95550D01*
X218804Y-95081D01*
X215763Y-93822D01*
X212500Y-93392D01*
D02*
G37*
%LPD*%
D10*
X560500Y-152000D02*
D03*
Y-168000D02*
D03*
X540500D02*
D03*
Y-152000D02*
D03*
X520500Y-168000D02*
D03*
Y-152000D02*
D03*
X500500D02*
D03*
Y-168000D02*
D03*
X283500Y-152000D02*
D03*
Y-168000D02*
D03*
X303500D02*
D03*
Y-152000D02*
D03*
X343500D02*
D03*
Y-168000D02*
D03*
X323500D02*
D03*
Y-152000D02*
D03*
X395142Y-152000D02*
D03*
Y-168000D02*
D03*
X415142D02*
D03*
Y-152000D02*
D03*
X435142Y-168000D02*
D03*
Y-152000D02*
D03*
X455142D02*
D03*
Y-168000D02*
D03*
X761322Y-168000D02*
D03*
Y-152000D02*
D03*
X740000D02*
D03*
Y-168000D02*
D03*
D11*
X146398Y433606D02*
D03*
Y414606D02*
D03*
X168398Y424106D02*
D03*
X882064Y730504D02*
D03*
X904064Y740004D02*
D03*
Y721004D02*
D03*
X317168Y738734D02*
D03*
Y719734D02*
D03*
X339168Y729234D02*
D03*
X105078Y472694D02*
D03*
X127078Y482194D02*
D03*
Y463194D02*
D03*
X220804Y626008D02*
D03*
Y645008D02*
D03*
X198804Y635508D02*
D03*
D12*
X724520Y941388D02*
D03*
X715020Y963388D02*
D03*
X734020D02*
D03*
D13*
X652394Y155970D02*
D03*
X817106Y856381D02*
D03*
X253791Y679965D02*
D03*
X606600Y-149636D02*
D03*
X805000Y-95364D02*
D03*
X895000Y-150000D02*
D03*
X894874Y-95000D02*
D03*
X806600Y-150678D02*
D03*
X694884Y-150000D02*
D03*
Y-90000D02*
D03*
X605000Y-94136D02*
D03*
X850000Y-80000D02*
D03*
X665000Y-90000D02*
D03*
X357500Y-167500D02*
D03*
X575000Y-168000D02*
D03*
X487500Y-167500D02*
D03*
X470000D02*
D03*
X379820D02*
D03*
X270000Y-168000D02*
D03*
X80000Y885146D02*
D03*
X95000Y884946D02*
D03*
Y870000D02*
D03*
X80000Y870200D02*
D03*
Y914396D02*
D03*
X95000Y914196D02*
D03*
Y899250D02*
D03*
X80000Y899450D02*
D03*
Y944396D02*
D03*
X95000Y944196D02*
D03*
Y929250D02*
D03*
X80000Y929450D02*
D03*
Y959450D02*
D03*
X95000Y959250D02*
D03*
Y974196D02*
D03*
X80000Y974396D02*
D03*
X435938Y524921D02*
D03*
X461250Y859500D02*
D03*
X437500Y875250D02*
D03*
X409500Y875000D02*
D03*
X451250Y867001D02*
D03*
X471750Y873500D02*
D03*
X487000Y873250D02*
D03*
X552250Y301750D02*
D03*
X620750Y550750D02*
D03*
X578028Y551027D02*
D03*
X72500Y820000D02*
D03*
X82500D02*
D03*
X92500D02*
D03*
X102500D02*
D03*
X112500D02*
D03*
X122500D02*
D03*
X132500D02*
D03*
X142500D02*
D03*
X152500D02*
D03*
X162500D02*
D03*
X172500D02*
D03*
X182500D02*
D03*
Y807500D02*
D03*
X172500D02*
D03*
X162500D02*
D03*
X152500D02*
D03*
X142500D02*
D03*
X132500D02*
D03*
X122500D02*
D03*
X112500D02*
D03*
X102500D02*
D03*
X92500D02*
D03*
X82500D02*
D03*
X72500D02*
D03*
X182500Y795000D02*
D03*
X172500D02*
D03*
X162500D02*
D03*
X152500D02*
D03*
X142500D02*
D03*
X132500D02*
D03*
X122500D02*
D03*
X112500D02*
D03*
X102500D02*
D03*
X92500D02*
D03*
X82500D02*
D03*
X72500D02*
D03*
X182500Y782500D02*
D03*
X172500D02*
D03*
X162500D02*
D03*
X152500D02*
D03*
X142500D02*
D03*
X132500D02*
D03*
X122500D02*
D03*
X112500D02*
D03*
X102500D02*
D03*
X92500D02*
D03*
X82500D02*
D03*
X72500D02*
D03*
X182500Y770000D02*
D03*
X172500D02*
D03*
X162500D02*
D03*
X152500D02*
D03*
X142500D02*
D03*
X132500D02*
D03*
X122500D02*
D03*
X112500D02*
D03*
X102500D02*
D03*
X92500D02*
D03*
X82500D02*
D03*
X72500D02*
D03*
X182500Y757500D02*
D03*
X172500D02*
D03*
X162500D02*
D03*
X152500D02*
D03*
X142500D02*
D03*
X132500D02*
D03*
X122500D02*
D03*
X112500D02*
D03*
X102500D02*
D03*
X92500D02*
D03*
X82500D02*
D03*
X72500D02*
D03*
X182500Y745000D02*
D03*
X172500D02*
D03*
X162500D02*
D03*
X152500D02*
D03*
X142500D02*
D03*
X132500D02*
D03*
X122500D02*
D03*
X112500D02*
D03*
X102500D02*
D03*
X92500D02*
D03*
X82500D02*
D03*
X72500D02*
D03*
X472500Y816250D02*
D03*
X486500D02*
D03*
X460750Y831500D02*
D03*
X440000Y737250D02*
D03*
X418250Y696000D02*
D03*
X403500Y681000D02*
D03*
X428000D02*
D03*
X415000Y640750D02*
D03*
X390250Y620750D02*
D03*
X414750Y620250D02*
D03*
X436000Y589250D02*
D03*
X446750Y566000D02*
D03*
X410500Y544500D02*
D03*
X513000Y538000D02*
D03*
X533000Y537250D02*
D03*
X577500Y527250D02*
D03*
X557000Y527000D02*
D03*
X557750Y550750D02*
D03*
X679500Y516500D02*
D03*
X697500D02*
D03*
X685500Y571750D02*
D03*
X666000Y561000D02*
D03*
X612250Y561250D02*
D03*
X705000Y646750D02*
D03*
X727500Y643000D02*
D03*
X763250Y643000D02*
D03*
X738250Y630500D02*
D03*
X753250D02*
D03*
X752500Y685500D02*
D03*
X738750D02*
D03*
X762750Y673750D02*
D03*
X694250Y676750D02*
D03*
X779000Y688250D02*
D03*
X789000Y666000D02*
D03*
X805000Y665750D02*
D03*
X803500Y699000D02*
D03*
X703750Y699750D02*
D03*
Y719500D02*
D03*
X727500Y720250D02*
D03*
X804000Y730500D02*
D03*
X789750Y730250D02*
D03*
X779250Y747000D02*
D03*
X814500Y746250D02*
D03*
X703500Y738250D02*
D03*
X748250Y745250D02*
D03*
X712750Y772250D02*
D03*
X748750Y768000D02*
D03*
X692750Y809250D02*
D03*
X681250Y814500D02*
D03*
X641750Y814750D02*
D03*
X628750Y826750D02*
D03*
X609000Y826500D02*
D03*
X593000Y814500D02*
D03*
X553500Y815250D02*
D03*
X592750Y840250D02*
D03*
X553250Y840000D02*
D03*
X622000Y868500D02*
D03*
X610000Y855750D02*
D03*
X649500Y869250D02*
D03*
X511000Y841250D02*
D03*
Y868250D02*
D03*
X540250Y857500D02*
D03*
Y830500D02*
D03*
X497250Y860750D02*
D03*
X523000Y892000D02*
D03*
X509250Y891750D02*
D03*
X509250Y928000D02*
D03*
X523000Y927750D02*
D03*
X499250Y917250D02*
D03*
X499500Y902750D02*
D03*
X574750Y928250D02*
D03*
X588000D02*
D03*
X598250Y917750D02*
D03*
X598500Y902000D02*
D03*
X574250Y891750D02*
D03*
X588500Y891500D02*
D03*
X640250Y843250D02*
D03*
X395250Y864500D02*
D03*
X438000Y809750D02*
D03*
X420750D02*
D03*
X438250Y781750D02*
D03*
X422000D02*
D03*
X416000Y758250D02*
D03*
X424500Y726750D02*
D03*
X428750Y661000D02*
D03*
X403500Y663750D02*
D03*
X387750Y766000D02*
D03*
X399000D02*
D03*
X403750Y792000D02*
D03*
X387750Y728250D02*
D03*
X398250Y728000D02*
D03*
X387500Y754250D02*
D03*
X398750Y753750D02*
D03*
X460250Y816500D02*
D03*
X242750Y998500D02*
D03*
Y983500D02*
D03*
Y948500D02*
D03*
Y933500D02*
D03*
Y898500D02*
D03*
Y882500D02*
D03*
X51500Y537250D02*
D03*
X51000Y549000D02*
D03*
X64000Y567000D02*
D03*
X77000D02*
D03*
X78000Y589000D02*
D03*
X65000D02*
D03*
X51000Y616000D02*
D03*
Y603000D02*
D03*
X121000Y679000D02*
D03*
Y665000D02*
D03*
X138000Y696000D02*
D03*
X329000Y540000D02*
D03*
X365000Y542000D02*
D03*
X248000Y514000D02*
D03*
Y499000D02*
D03*
Y470000D02*
D03*
Y455000D02*
D03*
X72000Y401500D02*
D03*
Y421000D02*
D03*
X41500Y401500D02*
D03*
X41000Y421000D02*
D03*
X96250Y345750D02*
D03*
X105750Y336000D02*
D03*
X106250Y325250D02*
D03*
X96500Y317250D02*
D03*
X297250Y287000D02*
D03*
X297500Y244500D02*
D03*
X923000Y62000D02*
D03*
X864250Y50750D02*
D03*
X748500Y84750D02*
D03*
X482750Y85000D02*
D03*
X268500Y89750D02*
D03*
X77500Y170500D02*
D03*
X252750Y169000D02*
D03*
X476500Y513500D02*
D03*
X435500Y513500D02*
D03*
X704000Y755000D02*
D03*
X743000Y733000D02*
D03*
X470500Y133500D02*
D03*
X484500D02*
D03*
X706000Y561250D02*
D03*
X696250Y572500D02*
D03*
X464250Y545500D02*
D03*
X632000Y526500D02*
D03*
X601000Y528000D02*
D03*
X664782Y520275D02*
D03*
X650532Y527026D02*
D03*
X255250Y790000D02*
D03*
X315250Y825000D02*
D03*
X320000Y940000D02*
D03*
X370000D02*
D03*
X442500D02*
D03*
X727250Y669500D02*
D03*
X420500Y589250D02*
D03*
X390000Y648250D02*
D03*
X484500Y550000D02*
D03*
X727535Y700784D02*
D03*
X428750Y706750D02*
D03*
X354000Y652000D02*
D03*
X315000D02*
D03*
X341000D02*
D03*
X315500Y634750D02*
D03*
X708000Y530250D02*
D03*
X344250Y524000D02*
D03*
X421000Y526750D02*
D03*
X521250Y281500D02*
D03*
X437250Y768000D02*
D03*
X246178Y820928D02*
D03*
X704500Y781750D02*
D03*
X394250Y74024D02*
D03*
D14*
X798068Y354932D02*
D03*
X785368D02*
D03*
X798068Y254348D02*
D03*
X785368D02*
D03*
X683768Y354932D02*
D03*
X696468D02*
D03*
X709168D02*
D03*
X721868D02*
D03*
X734568D02*
D03*
X747268D02*
D03*
X759968D02*
D03*
X772668D02*
D03*
Y254348D02*
D03*
X759968D02*
D03*
X747268D02*
D03*
X734568D02*
D03*
X721868D02*
D03*
X709168D02*
D03*
X696468D02*
D03*
X683768D02*
D03*
D15*
X443852Y326374D02*
D03*
Y339074D02*
D03*
Y351774D02*
D03*
Y364474D02*
D03*
Y377174D02*
D03*
Y389874D02*
D03*
Y402574D02*
D03*
Y415274D02*
D03*
X343268D02*
D03*
Y402574D02*
D03*
Y389874D02*
D03*
Y377174D02*
D03*
Y364474D02*
D03*
Y351774D02*
D03*
Y339074D02*
D03*
Y326374D02*
D03*
X443852Y427974D02*
D03*
Y440674D02*
D03*
X343268Y427974D02*
D03*
Y440674D02*
D03*
X486102Y233782D02*
D03*
X424634D02*
D03*
X486102Y246482D02*
D03*
Y259182D02*
D03*
X424634Y246482D02*
D03*
Y259182D02*
D03*
X486102Y271882D02*
D03*
X424634D02*
D03*
X300818Y529330D02*
D03*
X362286D02*
D03*
X300818Y516630D02*
D03*
Y503930D02*
D03*
X362286Y516630D02*
D03*
Y503930D02*
D03*
X300818Y491230D02*
D03*
X362286D02*
D03*
D16*
X724000Y167000D02*
D03*
X734000D02*
D03*
X464486Y668782D02*
D03*
X454486D02*
D03*
X504524Y618998D02*
D03*
X514524D02*
D03*
X644318Y678942D02*
D03*
X634318D02*
D03*
X514270Y807974D02*
D03*
X504270D02*
D03*
X474552Y678942D02*
D03*
X484552D02*
D03*
X494458Y769112D02*
D03*
X484458D02*
D03*
X494364Y589026D02*
D03*
X504364D02*
D03*
X534590Y679196D02*
D03*
X524590D02*
D03*
X683180Y647446D02*
D03*
X673180D02*
D03*
X525098Y569976D02*
D03*
X535098D02*
D03*
X504364Y698754D02*
D03*
X494364D02*
D03*
X614506Y619244D02*
D03*
X624506D02*
D03*
X484552Y598678D02*
D03*
X474552D02*
D03*
X614600Y728980D02*
D03*
X604600D02*
D03*
X604346Y719074D02*
D03*
X614346D02*
D03*
X574374Y638810D02*
D03*
X584374D02*
D03*
X604346Y648462D02*
D03*
X614346D02*
D03*
X584534Y708914D02*
D03*
X594534D02*
D03*
X584534Y648462D02*
D03*
X594534D02*
D03*
X594788Y658876D02*
D03*
X584788D02*
D03*
X614346D02*
D03*
X604346D02*
D03*
X614506Y668782D02*
D03*
X624506D02*
D03*
X614600Y678942D02*
D03*
X604600D02*
D03*
X584628Y669036D02*
D03*
X574628D02*
D03*
X574374Y719074D02*
D03*
X584374D02*
D03*
X614600Y638556D02*
D03*
X604600D02*
D03*
X604346Y709168D02*
D03*
X614346D02*
D03*
X574374Y728980D02*
D03*
X584374D02*
D03*
X614346Y698754D02*
D03*
X604346D02*
D03*
X415000Y935000D02*
D03*
X425000D02*
D03*
X490500Y294750D02*
D03*
X480500D02*
D03*
X554562Y678942D02*
D03*
X564562D02*
D03*
X535832Y324286D02*
D03*
X525832D02*
D03*
X549040Y449508D02*
D03*
X539040D02*
D03*
X835994Y118298D02*
D03*
X845994D02*
D03*
X804250Y221500D02*
D03*
X794250D02*
D03*
X823000Y118250D02*
D03*
X813000D02*
D03*
X804592Y208976D02*
D03*
X794592D02*
D03*
X110326Y157828D02*
D03*
X120326D02*
D03*
X155792Y35908D02*
D03*
X165792D02*
D03*
X130486Y35654D02*
D03*
X120486D02*
D03*
X396000Y516750D02*
D03*
X386000D02*
D03*
X136250Y204500D02*
D03*
X126250D02*
D03*
X707500Y925000D02*
D03*
X717500D02*
D03*
X375910Y604076D02*
D03*
X365910D02*
D03*
X375910Y591757D02*
D03*
X365910D02*
D03*
X931084Y136332D02*
D03*
X921084D02*
D03*
X931084Y166050D02*
D03*
X921084D02*
D03*
Y151318D02*
D03*
X931084D02*
D03*
X366500Y630500D02*
D03*
X376500D02*
D03*
Y645607D02*
D03*
X366500D02*
D03*
Y660000D02*
D03*
X376500D02*
D03*
X829000Y48000D02*
D03*
X839000D02*
D03*
X329750Y756250D02*
D03*
X319750D02*
D03*
X349170Y703580D02*
D03*
X339170D02*
D03*
X110000Y447000D02*
D03*
X120000D02*
D03*
X114982Y501650D02*
D03*
X104982D02*
D03*
X377750Y690250D02*
D03*
X367750D02*
D03*
X377250Y676500D02*
D03*
X367250D02*
D03*
X847090Y731266D02*
D03*
X837090D02*
D03*
X420250Y294750D02*
D03*
X430250D02*
D03*
X948102Y633476D02*
D03*
X938102D02*
D03*
Y658622D02*
D03*
X948102D02*
D03*
X948356Y684022D02*
D03*
X938356D02*
D03*
X924132Y721106D02*
D03*
X934132D02*
D03*
X357000Y676500D02*
D03*
X347000D02*
D03*
X837090Y717296D02*
D03*
X847090D02*
D03*
X387500Y715750D02*
D03*
X397500D02*
D03*
X836756Y238440D02*
D03*
X846756D02*
D03*
X880250Y94000D02*
D03*
X890250D02*
D03*
X197956Y91534D02*
D03*
X207956D02*
D03*
X301832Y440944D02*
D03*
X311832D02*
D03*
Y427990D02*
D03*
X301832D02*
D03*
X308086Y416290D02*
D03*
X318086D02*
D03*
X269250Y529000D02*
D03*
X279250D02*
D03*
X279402Y503930D02*
D03*
X269402D02*
D03*
X414702Y200406D02*
D03*
X404702D02*
D03*
X722500Y982500D02*
D03*
X712500D02*
D03*
X722500Y995000D02*
D03*
X712500D02*
D03*
X252048Y808308D02*
D03*
X262048D02*
D03*
D17*
X360000Y150000D02*
D03*
Y140000D02*
D03*
X309118Y758270D02*
D03*
Y768270D02*
D03*
X148336Y477694D02*
D03*
Y467694D02*
D03*
X240030Y625936D02*
D03*
Y635936D02*
D03*
X445955Y757719D02*
D03*
Y747719D02*
D03*
X674624Y678862D02*
D03*
Y668862D02*
D03*
X514604Y728900D02*
D03*
Y718900D02*
D03*
X604520Y619078D02*
D03*
Y629078D02*
D03*
X494538Y658956D02*
D03*
Y668956D02*
D03*
X464312Y789098D02*
D03*
Y779098D02*
D03*
X524510Y758872D02*
D03*
Y748872D02*
D03*
X446786Y638984D02*
D03*
Y628984D02*
D03*
X554736Y759126D02*
D03*
Y749126D02*
D03*
X534670Y789258D02*
D03*
Y799258D02*
D03*
X484378Y628824D02*
D03*
Y618824D02*
D03*
X594360Y718900D02*
D03*
Y728900D02*
D03*
X554228Y658796D02*
D03*
Y648796D02*
D03*
X574548Y648796D02*
D03*
Y658796D02*
D03*
X554736Y729060D02*
D03*
Y739060D02*
D03*
Y708994D02*
D03*
Y718994D02*
D03*
X574548Y699088D02*
D03*
Y709088D02*
D03*
X343522Y296482D02*
D03*
Y306482D02*
D03*
X653250Y351250D02*
D03*
Y341250D02*
D03*
X803910Y186196D02*
D03*
Y196196D02*
D03*
X922020Y208134D02*
D03*
Y198134D02*
D03*
X892302Y109234D02*
D03*
Y119234D02*
D03*
X803910Y165970D02*
D03*
Y155970D02*
D03*
X877824Y109234D02*
D03*
Y119234D02*
D03*
X861314D02*
D03*
Y109234D02*
D03*
X198892Y123364D02*
D03*
Y133364D02*
D03*
Y102282D02*
D03*
Y112282D02*
D03*
X223250Y105250D02*
D03*
Y95250D02*
D03*
X198892Y76976D02*
D03*
Y66976D02*
D03*
X92974Y26844D02*
D03*
Y36844D02*
D03*
X198892Y43608D02*
D03*
Y53608D02*
D03*
X107198Y26844D02*
D03*
Y36844D02*
D03*
X193000Y414000D02*
D03*
Y404000D02*
D03*
X221000Y483750D02*
D03*
Y473750D02*
D03*
X940562Y524082D02*
D03*
Y534082D02*
D03*
X781050Y448644D02*
D03*
Y458644D02*
D03*
X940562Y583772D02*
D03*
Y593772D02*
D03*
Y404956D02*
D03*
Y414956D02*
D03*
Y614934D02*
D03*
Y604934D02*
D03*
X781050Y550244D02*
D03*
Y560244D02*
D03*
X940562Y454232D02*
D03*
Y464232D02*
D03*
X781050Y578946D02*
D03*
Y588946D02*
D03*
X940562Y554054D02*
D03*
Y564054D02*
D03*
X781050Y417274D02*
D03*
Y407274D02*
D03*
X940562Y381080D02*
D03*
Y391080D02*
D03*
X392000Y208000D02*
D03*
Y198000D02*
D03*
X378000Y210000D02*
D03*
Y200000D02*
D03*
X266000Y238000D02*
D03*
Y228000D02*
D03*
X745000Y890000D02*
D03*
Y900000D02*
D03*
X594000Y619000D02*
D03*
Y629000D02*
D03*
X180096Y157400D02*
D03*
Y167400D02*
D03*
X154950D02*
D03*
Y157400D02*
D03*
X167523D02*
D03*
Y167400D02*
D03*
X129712Y416566D02*
D03*
Y426566D02*
D03*
X177800Y635936D02*
D03*
Y625936D02*
D03*
X447000Y608500D02*
D03*
Y618500D02*
D03*
X130000Y237000D02*
D03*
Y247000D02*
D03*
X128750Y290500D02*
D03*
Y280500D02*
D03*
X129000Y323250D02*
D03*
Y333250D02*
D03*
X790000Y78750D02*
D03*
Y68750D02*
D03*
X362204Y233854D02*
D03*
Y223854D02*
D03*
X467000Y381250D02*
D03*
Y371250D02*
D03*
X76210Y68754D02*
D03*
Y78754D02*
D03*
X275000Y787000D02*
D03*
Y797000D02*
D03*
Y819000D02*
D03*
Y809000D02*
D03*
D18*
X464472Y560832D02*
D03*
X484472D02*
D03*
X671162Y815594D02*
D03*
X651162D02*
D03*
X532986Y549148D02*
D03*
X512986D02*
D03*
X418244Y792734D02*
D03*
X438244D02*
D03*
X437736Y820674D02*
D03*
X417736D02*
D03*
X577690Y561848D02*
D03*
X557690D02*
D03*
X583024Y815594D02*
D03*
X563024D02*
D03*
X557436Y537972D02*
D03*
X577436D02*
D03*
X563024Y840232D02*
D03*
X583024D02*
D03*
X628490Y815594D02*
D03*
X608490D02*
D03*
X510700Y857250D02*
D03*
X530700D02*
D03*
X510700Y830072D02*
D03*
X530700D02*
D03*
X541526Y301478D02*
D03*
X521526D02*
D03*
X910000Y250000D02*
D03*
X890000D02*
D03*
X715000Y865000D02*
D03*
X735000D02*
D03*
D19*
X692658Y738284D02*
D03*
Y758284D02*
D03*
X426212Y749206D02*
D03*
Y769206D02*
D03*
X654558Y561180D02*
D03*
Y541180D02*
D03*
X692658Y799432D02*
D03*
Y779432D02*
D03*
X425958Y620428D02*
D03*
Y640428D02*
D03*
X401574D02*
D03*
Y620428D02*
D03*
X632460Y537430D02*
D03*
Y557430D02*
D03*
X414020Y726788D02*
D03*
Y706788D02*
D03*
X704850Y676496D02*
D03*
Y656496D02*
D03*
X692658Y699676D02*
D03*
Y719676D02*
D03*
X414274Y661068D02*
D03*
Y681068D02*
D03*
X439166D02*
D03*
Y661068D02*
D03*
X716788Y720184D02*
D03*
Y700184D02*
D03*
X601218Y561180D02*
D03*
Y541180D02*
D03*
X439928Y706788D02*
D03*
Y726788D02*
D03*
X911860Y62070D02*
D03*
Y82070D02*
D03*
X864190Y80668D02*
D03*
Y60668D02*
D03*
X77734Y140716D02*
D03*
Y160716D02*
D03*
X242072Y168844D02*
D03*
Y148844D02*
D03*
X258074Y108900D02*
D03*
Y88900D02*
D03*
X762500Y887500D02*
D03*
Y867500D02*
D03*
D20*
X730758Y744714D02*
D03*
Y774714D02*
D03*
X688340Y558830D02*
D03*
Y528830D02*
D03*
X745236Y643114D02*
D03*
Y673114D02*
D03*
X428498Y575914D02*
D03*
Y545914D02*
D03*
X479298Y860566D02*
D03*
Y830566D02*
D03*
D21*
X407910Y856996D02*
D03*
X437910D02*
D03*
X652794Y850646D02*
D03*
X622794D02*
D03*
D22*
X516254Y909970D02*
D03*
X581254D02*
D03*
D23*
X797052Y682510D02*
D03*
Y747510D02*
D03*
D24*
X836426Y79364D02*
D03*
X814328D02*
D03*
Y96382D02*
D03*
X836426D02*
D03*
D25*
X222368Y66176D02*
D03*
Y44078D02*
D03*
X239386D02*
D03*
Y66176D02*
D03*
D26*
X282924Y453550D02*
D03*
Y440850D02*
D03*
Y428150D02*
D03*
Y415450D02*
D03*
X228822D02*
D03*
Y428150D02*
D03*
Y440850D02*
D03*
Y453550D02*
D03*
D27*
X804204Y603264D02*
D03*
Y598264D02*
D03*
Y593264D02*
D03*
Y588264D02*
D03*
Y583264D02*
D03*
Y578264D02*
D03*
Y573264D02*
D03*
Y568264D02*
D03*
Y563264D02*
D03*
Y558264D02*
D03*
Y553264D02*
D03*
Y548264D02*
D03*
Y543264D02*
D03*
Y538264D02*
D03*
Y533264D02*
D03*
Y528264D02*
D03*
Y523264D02*
D03*
Y518264D02*
D03*
Y513264D02*
D03*
Y508264D02*
D03*
Y503264D02*
D03*
Y498264D02*
D03*
Y493264D02*
D03*
Y488264D02*
D03*
Y483264D02*
D03*
Y478264D02*
D03*
Y473264D02*
D03*
Y468264D02*
D03*
Y463264D02*
D03*
Y458264D02*
D03*
Y453264D02*
D03*
Y448264D02*
D03*
Y443264D02*
D03*
Y438264D02*
D03*
Y433264D02*
D03*
Y428264D02*
D03*
Y423264D02*
D03*
Y418264D02*
D03*
Y413264D02*
D03*
Y408264D02*
D03*
Y403264D02*
D03*
Y398264D02*
D03*
Y393264D02*
D03*
X919204Y603264D02*
D03*
Y598264D02*
D03*
Y593264D02*
D03*
Y588264D02*
D03*
Y583264D02*
D03*
Y578264D02*
D03*
Y573264D02*
D03*
Y568264D02*
D03*
Y563264D02*
D03*
Y558264D02*
D03*
Y553264D02*
D03*
Y548264D02*
D03*
Y543264D02*
D03*
Y538264D02*
D03*
Y533264D02*
D03*
Y528264D02*
D03*
Y523264D02*
D03*
Y518264D02*
D03*
Y513264D02*
D03*
Y508264D02*
D03*
Y503264D02*
D03*
Y498264D02*
D03*
Y493264D02*
D03*
Y488264D02*
D03*
Y483264D02*
D03*
Y478264D02*
D03*
Y473264D02*
D03*
Y468264D02*
D03*
Y463264D02*
D03*
Y458264D02*
D03*
Y453264D02*
D03*
Y448264D02*
D03*
Y443264D02*
D03*
Y438264D02*
D03*
Y433264D02*
D03*
Y428264D02*
D03*
Y423264D02*
D03*
Y418264D02*
D03*
Y413264D02*
D03*
Y408264D02*
D03*
Y403264D02*
D03*
Y398264D02*
D03*
Y393264D02*
D03*
D28*
X696134Y103494D02*
D03*
X691134D02*
D03*
X686134D02*
D03*
Y117994D02*
D03*
X691134D02*
D03*
X696134D02*
D03*
X523160D02*
D03*
X518160D02*
D03*
X513160D02*
D03*
Y103494D02*
D03*
X518160D02*
D03*
X523160D02*
D03*
D29*
X806600Y-113948D02*
D03*
Y-169000D02*
D03*
X893600Y-113948D02*
D03*
Y-169000D02*
D03*
X693600D02*
D03*
Y-113948D02*
D03*
X606600Y-169000D02*
D03*
Y-113948D02*
D03*
D30*
X834000Y-112000D02*
D03*
X842000D02*
D03*
X850000D02*
D03*
X858000D02*
D03*
X866002D02*
D03*
X666002D02*
D03*
X658000D02*
D03*
X650000D02*
D03*
X642000D02*
D03*
X634000D02*
D03*
D31*
X911860Y101162D02*
D03*
Y118162D02*
D03*
X932180D02*
D03*
Y101162D02*
D03*
X273512Y165726D02*
D03*
Y148726D02*
D03*
D32*
X216028Y149192D02*
D03*
X199028D02*
D03*
D33*
X836354Y137996D02*
D03*
X841354D02*
D03*
X846354D02*
D03*
X851354D02*
D03*
X856354D02*
D03*
X861354D02*
D03*
X866354D02*
D03*
X871354D02*
D03*
X876354D02*
D03*
X881354D02*
D03*
X886354D02*
D03*
X891354D02*
D03*
Y218996D02*
D03*
X886354D02*
D03*
X881354D02*
D03*
X876354D02*
D03*
X871354D02*
D03*
X866354D02*
D03*
X861354D02*
D03*
X856354D02*
D03*
X851354D02*
D03*
X846354D02*
D03*
X841354D02*
D03*
X836354D02*
D03*
X165686Y55860D02*
D03*
X160686D02*
D03*
X155686D02*
D03*
X150686D02*
D03*
X145686D02*
D03*
X140686D02*
D03*
X135686D02*
D03*
X130686D02*
D03*
X125686D02*
D03*
X120686D02*
D03*
X115686D02*
D03*
X110686D02*
D03*
Y136860D02*
D03*
X115686D02*
D03*
X120686D02*
D03*
X125686D02*
D03*
X130686D02*
D03*
X135686D02*
D03*
X140686D02*
D03*
X145686D02*
D03*
X150686D02*
D03*
X155686D02*
D03*
X160686D02*
D03*
X165686D02*
D03*
D34*
X904354Y150996D02*
D03*
Y155996D02*
D03*
Y160996D02*
D03*
Y165996D02*
D03*
Y170996D02*
D03*
Y175996D02*
D03*
Y180996D02*
D03*
Y185996D02*
D03*
Y190996D02*
D03*
Y195996D02*
D03*
Y200996D02*
D03*
Y205996D02*
D03*
X823354D02*
D03*
Y200996D02*
D03*
Y195996D02*
D03*
Y190996D02*
D03*
Y185996D02*
D03*
Y180996D02*
D03*
Y175996D02*
D03*
Y170996D02*
D03*
Y165996D02*
D03*
Y160996D02*
D03*
Y155996D02*
D03*
Y150996D02*
D03*
X97686Y68860D02*
D03*
Y73860D02*
D03*
Y78860D02*
D03*
Y83860D02*
D03*
Y88860D02*
D03*
Y93860D02*
D03*
Y98860D02*
D03*
Y103860D02*
D03*
Y108860D02*
D03*
Y113860D02*
D03*
Y118860D02*
D03*
Y123860D02*
D03*
X178686D02*
D03*
Y118860D02*
D03*
Y113860D02*
D03*
Y108860D02*
D03*
Y103860D02*
D03*
Y98860D02*
D03*
Y93860D02*
D03*
Y88860D02*
D03*
Y83860D02*
D03*
Y78860D02*
D03*
Y73860D02*
D03*
Y68860D02*
D03*
D35*
X192750Y468192D02*
D03*
Y444000D02*
D03*
D36*
X502832Y340750D02*
D03*
D37*
X510832D02*
D03*
X518832D02*
D03*
X526832D02*
D03*
X534832D02*
D03*
X542832D02*
D03*
X550832D02*
D03*
X558832D02*
D03*
Y430250D02*
D03*
X550832D02*
D03*
X542832D02*
D03*
X534832D02*
D03*
X526832D02*
D03*
X518832D02*
D03*
X510832D02*
D03*
X502832D02*
D03*
D38*
X575582Y357500D02*
D03*
Y365500D02*
D03*
Y373500D02*
D03*
Y381500D02*
D03*
Y389500D02*
D03*
Y397500D02*
D03*
Y405500D02*
D03*
Y413500D02*
D03*
X486082D02*
D03*
Y405500D02*
D03*
Y397500D02*
D03*
Y389500D02*
D03*
Y381500D02*
D03*
Y373500D02*
D03*
Y365500D02*
D03*
Y357500D02*
D03*
D39*
X692000Y907250D02*
D03*
Y900750D02*
D03*
Y894198D02*
D03*
Y887594D02*
D03*
X718208D02*
D03*
Y894198D02*
D03*
Y900750D02*
D03*
Y907250D02*
D03*
D40*
X653170Y53608D02*
D03*
X602650D02*
D03*
D41*
X609458Y75608D02*
D03*
Y31510D02*
D03*
X646500D02*
D03*
Y75608D02*
D03*
D42*
X772908Y45310D02*
X790000Y62402D01*
X772908Y7836D02*
Y45310D01*
Y7836D02*
X835000Y-54256D01*
X865000Y-65000D02*
Y-51000D01*
X822000Y-8000D02*
X865000Y-51000D01*
X822000Y-8000D02*
Y31500D01*
X855000Y-65000D02*
Y-51960D01*
X812074Y-9034D02*
X855000Y-51960D01*
X812074Y-9034D02*
Y37076D01*
X845000Y-65000D02*
Y-53000D01*
X782750Y9250D02*
X845000Y-53000D01*
X782750Y9250D02*
Y40000D01*
X822998Y48000D02*
X829000D01*
X812074Y37076D02*
X822998Y48000D01*
X835000Y-65000D02*
Y-54256D01*
X790000Y62402D02*
Y68750D01*
X839000Y48000D02*
Y52354D01*
X832104Y59250D02*
X839000Y52354D01*
X827977Y59250D02*
X832104D01*
X771657Y-168000D02*
X774962Y-164695D01*
X761322Y-168000D02*
X771657D01*
X772598Y-152000D02*
X774962Y-149636D01*
X761322Y-152000D02*
X772598D01*
X727250Y-165000D02*
X730250Y-168000D01*
X740000D01*
X727500Y-150000D02*
X729500Y-152000D01*
X740000D01*
X850000Y-80000D02*
X866002Y-96002D01*
Y-112000D02*
Y-96002D01*
X665000Y-90000D02*
X666002Y-91002D01*
Y-112000D02*
Y-91002D01*
X270500Y-167500D02*
X357500D01*
X500500Y-168000D02*
X520500D01*
X488000D02*
X500500D01*
X379820Y-167500D02*
X470000D01*
X560500Y-168000D02*
X575000D01*
X540500D02*
X560500D01*
X520500D02*
X540500D01*
X368250Y48000D02*
X394500Y74250D01*
X271608Y48000D02*
X368250D01*
X251858Y28250D02*
X271608Y48000D01*
X549040Y449508D02*
X551777Y446771D01*
X550898Y427918D02*
X551777Y428797D01*
Y446771D01*
X175125Y56875D02*
X179500Y52500D01*
X794250Y209318D02*
X794592Y208976D01*
X794250Y209318D02*
Y221500D01*
X525500Y564000D02*
Y569574D01*
X525098Y569976D02*
X525500Y569574D01*
X534435Y570639D02*
X535098Y569976D01*
X534435Y570639D02*
Y578895D01*
X940562Y604934D02*
X945934D01*
X940562Y614934D02*
X941000Y615372D01*
Y620000D01*
X921004Y578264D02*
X932736D01*
X933000Y578000D01*
X940562Y583772D02*
X945772D01*
X946000Y584000D01*
X940562Y564054D02*
X946946D01*
X947000Y564000D01*
X940562Y554054D02*
X945946D01*
X946000Y554000D01*
X921004Y533264D02*
X939744D01*
X940562Y534082D01*
X945918D01*
X946000Y534000D01*
X921004Y548264D02*
X934772D01*
X940562Y554054D01*
Y524082D02*
X945918D01*
X946000Y524000D01*
X921004Y463212D02*
X939542D01*
X940562Y464232D01*
X945768D01*
X946000Y464000D01*
X921004Y448226D02*
X934556D01*
X940562Y454232D01*
X945768D01*
X921004Y403014D02*
X938620D01*
X940562Y404956D01*
X921004Y418254D02*
X937264D01*
X940562Y414956D01*
Y404956D02*
X946956D01*
X940562Y414956D02*
X947956D01*
X921004Y393108D02*
X938534D01*
X940562Y391080D01*
X946920D01*
X935000Y381000D02*
X940482D01*
X940562Y381080D01*
X790736Y603264D02*
X802268D01*
X790000Y604000D02*
X790736Y603264D01*
X785368Y593264D02*
X802268D01*
X781050Y588946D02*
X785368Y593264D01*
X775054Y588946D02*
X781050D01*
X781732Y578264D02*
X802268D01*
X781050Y578946D02*
X781732Y578264D01*
X774054Y578946D02*
X781050D01*
X774244Y560244D02*
X781050D01*
X773756Y550244D02*
X781050D01*
X781468Y448226D02*
X802268D01*
X781050Y448644D02*
X781468Y448226D01*
X782030Y418254D02*
X802268D01*
X781050Y417274D02*
X782030Y418254D01*
X785310Y403014D02*
X802268D01*
X781050Y407274D02*
X785310Y403014D01*
X379556Y194444D02*
Y200406D01*
Y194444D02*
X380000Y194000D01*
X387000Y193000D02*
X392000Y198000D01*
X378000Y210000D02*
Y216000D01*
X392000Y208000D02*
Y214000D01*
X414702Y193702D02*
Y200406D01*
X414000Y193000D02*
X414702Y193702D01*
X404702Y200406D02*
Y207298D01*
X802268Y533264D02*
X814014D01*
X814500Y533750D01*
X439234Y628984D02*
X446786D01*
X439000Y628750D02*
X439234Y628984D01*
X780928Y448522D02*
X781050Y448644D01*
X774538Y448522D02*
X780928D01*
X780928Y458522D02*
X781050Y458644D01*
X774538Y458522D02*
X780928D01*
X802032Y563500D02*
X802268Y563264D01*
X784306Y563500D02*
X802032D01*
X781050Y560244D02*
X784306Y563500D01*
X781050Y550244D02*
X782018Y549276D01*
X784559D01*
X785571Y548264D01*
X802268D01*
X788108Y393108D02*
X802268D01*
X793256Y463212D02*
X802268D01*
X791317Y461273D02*
X793256Y463212D01*
X781050Y458644D02*
X783679Y461273D01*
X791317D01*
X892302Y119234D02*
X910788D01*
X912918Y136332D02*
X921084D01*
X803910Y196196D02*
X821180D01*
X797250D02*
X803910D01*
X128750Y273750D02*
Y280500D01*
X128500Y322750D02*
X129000Y323250D01*
X128500Y317500D02*
Y322750D01*
X130000Y230500D02*
Y237000D01*
X518160Y117994D02*
Y125590D01*
X360000Y150000D02*
Y158250D01*
X198892Y36892D02*
Y43608D01*
Y76976D02*
X207500D01*
X214284Y91534D02*
X215000Y92250D01*
X207956Y91534D02*
X214284D01*
X223250Y95250D02*
X233000D01*
X246650Y108900D01*
X258074D01*
X65716Y140716D02*
X77734D01*
Y131766D02*
Y140716D01*
X76210Y62040D02*
Y68754D01*
X120660Y35828D02*
Y53860D01*
X120486Y35654D02*
X120660Y35828D01*
X179500Y34750D02*
Y52500D01*
Y34750D02*
X186000Y28250D01*
X394500Y74250D02*
X442500D01*
X475250Y107000D01*
X506500D01*
X198892Y102282D02*
X211282D01*
X216028Y107028D01*
Y149192D01*
X241724D01*
X242072Y148844D01*
X190692Y149192D02*
X199028D01*
X273512Y165726D02*
Y174262D01*
X149408Y35908D02*
X155792D01*
X165792D02*
X171700Y30000D01*
X120326Y157828D02*
X127172D01*
X258074Y108900D02*
Y133288D01*
X273512Y148726D01*
X264500Y164000D02*
X266226Y165726D01*
X273512D01*
X735000Y865000D02*
Y872222D01*
X740500Y877722D01*
Y882278D01*
X737278Y885500D02*
X740500Y882278D01*
X737000Y885500D02*
X737278D01*
X734906Y887594D02*
X737000Y885500D01*
X723208Y887594D02*
X734906D01*
X723208Y894198D02*
X740802D01*
X745000Y890000D01*
X718208Y900750D02*
X727972D01*
X732722Y905500D01*
X739500D01*
X745000Y900000D01*
X633768Y911232D02*
Y917448D01*
X692000Y907250D02*
X699750D01*
X705000Y912500D01*
Y880000D02*
X712594Y887594D01*
X718208D01*
X659168Y917448D02*
X672448D01*
X633768Y911232D02*
X642500Y902500D01*
X681252D01*
X686002Y907250D02*
X692000D01*
X681252Y902500D02*
X686002Y907250D01*
X672448Y917448D02*
X697500Y942500D01*
X722020D01*
X722500Y982500D02*
Y995000D01*
X722500Y995000D01*
X745000Y890000D02*
X760000D01*
X762500Y887500D01*
X880906D01*
X922078Y846328D01*
X715000Y852500D02*
Y865000D01*
X242500Y807500D02*
X251240D01*
X252048Y808308D01*
X247000Y847000D02*
X275000Y819000D01*
Y797000D02*
Y808308D01*
Y809000D01*
X262048Y808308D02*
X275000D01*
Y781000D02*
Y787000D01*
X504270Y799150D02*
Y807974D01*
Y799150D02*
X504463Y798957D01*
X564562Y678942D02*
X574440D01*
X673132Y647446D02*
X673180D01*
X664534Y638848D02*
X673132Y647446D01*
X192750Y414250D02*
Y444000D01*
Y414250D02*
X193000Y414000D01*
X195900Y440850D02*
X228822D01*
X192750Y444000D02*
X195900Y440850D01*
X228822Y453550D02*
Y465928D01*
X221000Y473750D02*
X228822Y465928D01*
X192750Y468192D02*
X196442D01*
X202000Y473750D01*
X221000D01*
X282924Y440850D02*
X301738D01*
X301832Y440944D01*
X282924Y428150D02*
X301672D01*
X301832Y427990D01*
X216800Y415450D02*
X228822D01*
X193000Y404000D02*
X201250D01*
X311832Y440944D02*
X313276Y439500D01*
X313218Y409782D02*
X315282D01*
X318086Y412586D01*
Y416290D01*
X278386Y529076D02*
X300564D01*
X300818Y529330D01*
X279402Y503930D02*
X300818D01*
X362286Y516630D02*
X385880D01*
X386000Y516750D01*
Y520750D01*
X377420Y529330D02*
X386000Y520750D01*
X362286Y529330D02*
X377420D01*
X386000Y511750D02*
Y516750D01*
X384000Y509750D02*
X386000Y511750D01*
X380750Y509750D02*
X384000D01*
X396000Y516750D02*
X401250D01*
X362286Y491230D02*
X380500D01*
X300818D02*
X318230D01*
X268386Y522114D02*
Y529076D01*
X269402Y497348D02*
Y503930D01*
X420250Y288250D02*
Y294750D01*
X478118Y271882D02*
X486102D01*
X490500Y294750D02*
X500000D01*
X521526Y301478D02*
Y309776D01*
X525832Y314082D01*
Y324286D01*
Y342146D01*
X526768Y343082D01*
X534896Y325222D02*
Y343082D01*
Y325222D02*
X535832Y324286D01*
Y318168D02*
Y324286D01*
Y318168D02*
X541526Y312474D01*
Y301478D02*
Y312474D01*
X467000Y381250D02*
X467186Y381436D01*
X467000Y364250D02*
Y371250D01*
Y364250D02*
X469250Y362000D01*
X228822Y428150D02*
X245850D01*
X246250Y427750D01*
X709168Y336332D02*
X709250Y336250D01*
X930522Y684022D02*
X938356D01*
X930522Y658272D02*
X938356D01*
X931272Y633272D02*
X938102D01*
X790000Y78750D02*
Y83000D01*
X794000Y87000D01*
X904064Y721004D02*
X924030D01*
X924132Y721106D01*
X847090Y717296D02*
Y731266D01*
X881302D01*
X882064Y730504D01*
X837041Y717247D02*
X837090Y717296D01*
X837041Y710535D02*
Y717247D01*
X445522Y607022D02*
X447000Y608500D01*
X445522Y603779D02*
Y607022D01*
X365910Y604076D02*
Y608410D01*
X369750Y612250D01*
X313276Y439500D02*
X313526Y439750D01*
X318500D01*
X320510Y427990D02*
X321750Y426750D01*
X311832Y427990D02*
X320510D01*
X317019Y387519D02*
X317265D01*
X549040Y449508D02*
X560742D01*
X561000Y449250D01*
Y449000D02*
Y449250D01*
X343268Y326374D02*
X343522Y326120D01*
X480500Y294750D02*
Y301750D01*
X486102Y259182D02*
X494682D01*
X502250Y266750D01*
X354732Y306482D02*
X361500Y313250D01*
X343522Y306482D02*
X354732D01*
X314750Y304750D02*
X318750Y308750D01*
X343522D01*
Y306482D02*
Y308750D01*
X343268Y326374D02*
X356376D01*
X361500Y321250D01*
Y313250D02*
Y321250D01*
X653250Y351250D02*
X660018D01*
X660384Y351616D01*
X653250Y341250D02*
X682500D01*
X683768Y342518D01*
Y354932D01*
X653250Y335750D02*
Y341250D01*
X653500Y335250D02*
X653750D01*
X653250Y335750D02*
X653750Y335250D01*
X798068Y254348D02*
Y294318D01*
X801250Y297500D01*
X473750Y276250D02*
X478118Y271882D01*
X473750Y276250D02*
Y288000D01*
X480500Y294750D01*
X425000Y935000D02*
X431492Y941492D01*
Y964946D01*
X406092Y938408D02*
Y964946D01*
Y938408D02*
X409500Y935000D01*
X415000D01*
X692000Y887594D02*
X701906D01*
X692000Y894198D02*
X701448D01*
X692000Y900750D02*
X701250D01*
X282924Y453550D02*
X295950D01*
X296000Y453500D01*
X792156Y433240D02*
X802268D01*
X788198Y437198D02*
X792156Y433240D01*
X776042Y407274D02*
X781050D01*
X775038Y406270D02*
X776042Y407274D01*
X775726Y417274D02*
X781050D01*
X431076Y440674D02*
X443852D01*
X423750Y448000D02*
Y450250D01*
Y448000D02*
X431076Y440674D01*
X327500Y586500D02*
Y607772D01*
X298022Y637250D02*
X327500Y607772D01*
X723678Y977459D02*
Y981322D01*
Y977459D02*
X734020Y967117D01*
Y963388D02*
Y967117D01*
X77734Y140716D02*
X93214D01*
X110326Y157828D01*
X772908Y793186D02*
Y860908D01*
X769500Y789778D02*
X772908Y793186D01*
X769500Y782000D02*
Y789778D01*
Y782000D02*
X770486Y781014D01*
Y769206D02*
Y781014D01*
X806958Y777366D02*
Y807250D01*
Y777366D02*
X812074Y772250D01*
X718208Y907250D02*
X726031D01*
X727500Y908719D01*
X717500Y925000D02*
X726074D01*
X727500Y923574D01*
Y908719D02*
Y923574D01*
X823354Y190996D02*
X842150D01*
X842297Y190849D01*
X723646Y156058D02*
X771731D01*
X120486Y35654D02*
X125000Y31140D01*
Y28000D02*
Y31140D01*
X125162Y22533D02*
Y27838D01*
X791748Y196196D02*
X797250D01*
X677597Y57903D02*
Y110000D01*
Y138347D01*
Y57903D02*
X834000Y-98500D01*
Y-112000D02*
Y-98500D01*
X677597Y138347D02*
X695308Y156058D01*
X723646Y137922D02*
Y156058D01*
Y166646D01*
X695308Y156058D02*
X723646D01*
X360000Y140000D02*
X382986D01*
X385064Y137922D01*
X186000Y28250D02*
X251858D01*
X506500Y76250D02*
Y107000D01*
Y76250D02*
X634000Y-51250D01*
Y-112000D02*
Y-51250D01*
X609458Y20542D02*
Y31510D01*
X654562Y55000D02*
X660000D01*
X610000Y76150D02*
Y84750D01*
X595000Y55000D02*
X601258D01*
D43*
X806000Y64000D02*
X848750D01*
X395000Y-151858D02*
X395142Y-152000D01*
X395000Y-151858D02*
Y-142500D01*
X415000Y-151858D02*
X415142Y-152000D01*
X415000Y-151858D02*
Y-142500D01*
X435000Y-151858D02*
X435142Y-152000D01*
X435000Y-151858D02*
Y-142500D01*
X455000Y-151858D02*
X455142Y-152000D01*
X455000Y-151858D02*
Y-142500D01*
X500000Y-151500D02*
X500500Y-152000D01*
X500000Y-151500D02*
Y-142500D01*
X520000Y-151500D02*
X520500Y-152000D01*
X520000Y-151500D02*
Y-142500D01*
X540000Y-151500D02*
X540500Y-152000D01*
X540000Y-151500D02*
Y-142500D01*
X560000Y-151500D02*
X560500Y-152000D01*
X560000Y-151500D02*
Y-142500D01*
X342500Y-151000D02*
X343500Y-152000D01*
X342500Y-151000D02*
Y-142500D01*
X322500Y-151000D02*
X323500Y-152000D01*
X322500Y-151000D02*
Y-142500D01*
X302550Y-151050D02*
X303500Y-152000D01*
X302550Y-151050D02*
Y-142500D01*
X282500Y-151000D02*
X283500Y-152000D01*
X282500Y-151000D02*
Y-142500D01*
X270000Y-168000D02*
X270500Y-167500D01*
X948102Y633476D02*
X948148Y633522D01*
X959522D01*
X960244Y658622D02*
X960522Y658344D01*
X948102Y658622D02*
X960244D01*
X954000Y696750D02*
Y724000D01*
X948356Y691106D02*
X954000Y696750D01*
X948356Y684022D02*
Y691106D01*
Y684022D02*
X948360Y684018D01*
X961522D01*
X839250Y748500D02*
X929500D01*
X954000Y724000D01*
X896250Y670000D02*
X959500D01*
X886500Y660250D02*
X896250Y670000D01*
X873250Y299000D02*
X909816D01*
X916758Y305942D01*
Y316742D01*
X909283Y324217D02*
X916758Y316742D01*
X900906Y324217D02*
X909283D01*
X888066Y337058D02*
X900906Y324217D01*
X878470Y337058D02*
X888066D01*
X847965D02*
X878470D01*
X841607Y330700D02*
X847965Y337058D01*
X806250Y232000D02*
X873250Y299000D01*
X928393Y645607D02*
X935971D01*
X917750Y656250D02*
X928393Y645607D01*
X829250Y656250D02*
X917750D01*
X935971Y645607D02*
X948102Y633476D01*
X101253Y310000D02*
X113500Y322247D01*
Y328253D01*
X93497Y310000D02*
X101253D01*
X90548Y312949D02*
X93497Y310000D01*
X67552Y312949D02*
X90548D01*
X897216Y49000D02*
X931000D01*
X874966Y71250D02*
X897216Y49000D01*
X856000Y71250D02*
X874966D01*
X82500Y26541D02*
X92671D01*
X92974Y26844D01*
X107281Y26927D02*
X117722D01*
X107198Y26844D02*
X107281Y26927D01*
X465250Y387932D02*
Y512503D01*
X461250Y383932D02*
X465250Y387932D01*
X587000Y418000D02*
Y418239D01*
X586500Y418500D02*
X587750Y417250D01*
X586000Y395500D02*
X589500D01*
X584000Y397500D02*
X586000Y395500D01*
X575582Y397500D02*
X584000D01*
X593734Y411500D02*
X595467D01*
X588279Y406045D02*
X593734Y411500D01*
X588279Y405520D02*
Y406045D01*
X591250Y400500D02*
X600000Y391750D01*
X586264Y400500D02*
X591250D01*
X581264Y405500D02*
X586264Y400500D01*
X573250Y405566D02*
X575582D01*
Y405500D02*
X581264D01*
X567250Y231750D02*
Y320000D01*
X558832Y328418D02*
X567250Y320000D01*
X558832Y328418D02*
Y340750D01*
X564000Y227750D02*
Y314750D01*
X550898Y340750D02*
Y343082D01*
X550832Y327918D02*
X564000Y314750D01*
X550832Y327918D02*
Y340750D01*
X560750Y221500D02*
Y311500D01*
X542770Y340750D02*
Y343082D01*
X542832Y329418D02*
Y340750D01*
Y329418D02*
X560750Y311500D01*
X861354Y135996D02*
Y144032D01*
X861182Y156182D02*
X866354Y151010D01*
Y137996D02*
Y151010D01*
X739296Y128172D02*
X749046Y137922D01*
X688884Y135614D02*
X693020Y139750D01*
X701364D01*
X688884Y131833D02*
Y135614D01*
X686134Y129083D02*
X688884Y131833D01*
X701364Y139750D02*
X712942Y128172D01*
X739296D01*
X686134Y117994D02*
Y129083D01*
X738068Y123500D02*
X749046Y112522D01*
X711250Y123500D02*
X738068D01*
X694884Y135250D02*
X699500D01*
X693384Y131833D02*
X696134Y129083D01*
X693384Y133750D02*
X694884Y135250D01*
X693384Y131833D02*
Y133750D01*
X699500Y135250D02*
X711250Y123500D01*
X696134Y117994D02*
Y129083D01*
X860625Y126375D02*
X862500Y124500D01*
X856354Y127396D02*
Y137996D01*
X857375Y126375D02*
X860625D01*
X856354Y127396D02*
X857375Y126375D01*
X857548Y123000D02*
X861314Y119234D01*
X850000Y123000D02*
X857548D01*
X846354Y126646D02*
X850000Y123000D01*
X846354Y126646D02*
Y137996D01*
X876554Y135996D02*
Y149196D01*
X875500Y150250D02*
X876554Y149196D01*
X886793Y136329D02*
Y150007D01*
X886460Y135996D02*
X886793Y136329D01*
X174250Y134250D02*
X180000Y140000D01*
X155686Y136860D02*
Y139032D01*
Y124686D02*
Y136860D01*
X160686Y125564D02*
Y136860D01*
Y125564D02*
X161750Y124500D01*
X155500D02*
X155686Y124686D01*
X121006Y125006D02*
Y138686D01*
X120660Y139032D02*
X121006Y138686D01*
X167000Y84250D02*
X180296D01*
X180686Y83860D01*
X125486Y53860D02*
Y55860D01*
X95514Y73860D02*
X95654Y74000D01*
X578481Y285514D02*
X587250Y294282D01*
X577778Y285514D02*
X578481D01*
X607000Y268750D02*
Y319250D01*
X606000Y224000D02*
Y267750D01*
X607000Y268750D01*
X605000Y223000D02*
X606000Y224000D01*
X601250Y277218D02*
Y314750D01*
Y277218D02*
X603000Y275467D01*
Y271532D02*
Y275467D01*
X601250Y269783D02*
X603000Y271532D01*
X601250Y234250D02*
Y269783D01*
X599500Y316500D02*
X601250Y314750D01*
X598000Y273750D02*
Y310757D01*
Y273750D02*
X598250Y273500D01*
X594000Y314757D02*
X598000Y310757D01*
X376250Y678750D02*
X377875Y677125D01*
X379000Y674750D02*
X388250D01*
X377250Y676500D02*
X379000Y674750D01*
X449272Y672000D02*
X451304Y674032D01*
X391000Y672000D02*
X449272D01*
X744500Y216750D02*
X757500D01*
X721868Y239382D02*
X744500Y216750D01*
X721868Y239382D02*
Y254348D01*
X898512Y453052D02*
X921004D01*
X896870Y454694D02*
X898512Y453052D01*
X892517Y454694D02*
X896870D01*
X881073Y443250D02*
X892517Y454694D01*
X892123Y443146D02*
X921004D01*
X887407Y438430D02*
X892123Y443146D01*
X835434Y440500D02*
X837504Y438430D01*
X831750Y440500D02*
X835434D01*
X777094Y236344D02*
X803156D01*
X757500Y216750D02*
X777094Y236344D01*
X772000Y201000D02*
X772500Y200500D01*
Y167000D02*
Y200500D01*
X424000Y315000D02*
X424500D01*
X435874Y326374D01*
X867258Y286258D02*
X878470D01*
X809000Y228000D02*
X867258Y286258D01*
X788500Y228000D02*
X809000D01*
X749250Y194750D02*
X786500Y232000D01*
X761250Y200750D02*
X788500Y228000D01*
X786500Y232000D02*
X806250D01*
X803156Y236344D02*
X878470Y311658D01*
X801750Y240250D02*
X860750Y299250D01*
X770000Y240250D02*
X801750D01*
X766500Y236750D02*
X770000Y240250D01*
X749250Y236750D02*
X766500D01*
X761250Y167500D02*
Y200750D01*
X696750Y321500D02*
Y337750D01*
Y321500D02*
X703000Y315250D01*
Y208750D02*
Y315250D01*
X490500Y191750D02*
X496750Y198000D01*
X425000Y191750D02*
X490500D01*
X499525Y302725D02*
X508000Y294250D01*
X499525Y302725D02*
Y316483D01*
X500250Y317208D02*
Y329000D01*
X499525Y316483D02*
X500250Y317208D01*
X509250Y314743D02*
X510766Y316259D01*
X509250Y310000D02*
Y314743D01*
X510766Y316259D02*
Y343082D01*
X514000Y311500D02*
X518894Y316394D01*
X514000Y308032D02*
Y311500D01*
X512000Y306033D02*
X514000Y308032D01*
X512000Y279250D02*
Y306033D01*
X518894Y316394D02*
Y343082D01*
X554930Y412680D02*
X573250D01*
X548777Y403776D02*
Y406527D01*
X554930Y412680D01*
X573250D02*
Y413440D01*
X730697Y194750D02*
X749250D01*
X705250Y169303D02*
X730697Y194750D01*
X705250Y167750D02*
Y169303D01*
X747268Y238732D02*
X749250Y236750D01*
X860750Y299250D02*
Y313750D01*
X709717Y336250D02*
X785368Y260599D01*
Y254348D02*
Y260599D01*
X709250Y336250D02*
X709717D01*
X747268Y254348D02*
Y268232D01*
X743000Y272500D02*
X747268Y268232D01*
X720500Y272500D02*
X743000D01*
X715250Y267250D02*
X720500Y272500D01*
X785368Y354932D02*
Y367118D01*
X792030Y373780D02*
X878470D01*
X785368Y367118D02*
X792030Y373780D01*
X488032Y334500D02*
X494750D01*
X461500Y360000D02*
Y373250D01*
X532750Y191250D02*
X540750Y199250D01*
X597000D02*
X601250Y195000D01*
X540750Y199250D02*
X597000D01*
X547500Y184750D02*
X554750Y192000D01*
X461750Y184750D02*
X547500D01*
X428750Y188500D02*
X492500D01*
X495250Y191250D01*
X532750D01*
X529033Y203000D02*
X608500D01*
X496750Y198000D02*
X524033D01*
X529033Y203000D01*
X530125Y208625D02*
X575125D01*
X525250Y203750D02*
X530125Y208625D01*
X434000Y203750D02*
X525250D01*
X608500Y203000D02*
X614500Y209000D01*
X416000Y221750D02*
X434000Y203750D01*
X575125Y208625D02*
X577750Y211250D01*
X442500Y165500D02*
X461750Y184750D01*
X322467Y184250D02*
X424500D01*
X428750Y188500D01*
X379033Y188250D02*
X421500D01*
X425000Y191750D01*
X695750Y255066D02*
X696468Y254348D01*
X695750Y255066D02*
Y270000D01*
X577750Y211250D02*
Y276042D01*
X821356Y118298D02*
X824500Y121442D01*
Y88000D02*
Y121442D01*
X815864Y79364D02*
X824500Y88000D01*
X814328Y79364D02*
X815864D01*
X841250Y135892D02*
X841354Y135996D01*
X841250Y128500D02*
Y135892D01*
X835994Y123244D02*
X841250Y128500D01*
X835994Y118298D02*
Y123244D01*
X836354Y129854D02*
Y135996D01*
X835994Y118298D02*
X836426Y117866D01*
Y96382D02*
Y117866D01*
X920990Y528250D02*
X921004Y528264D01*
X899467Y528250D02*
X920990D01*
X898968Y528750D02*
X899467Y528250D01*
X895033Y528750D02*
X898968D01*
X894532Y528250D02*
X895033Y528750D01*
X857568Y528250D02*
X894532D01*
X852792Y533026D02*
X857568Y528250D01*
X843750Y525750D02*
X846250D01*
X841264Y523264D02*
X843750Y525750D01*
X673250Y604000D02*
X716500D01*
X672848Y603598D02*
X673250Y604000D01*
X672567Y603598D02*
X672848D01*
X669784Y600815D02*
X672567Y603598D01*
X669784Y597380D02*
Y600815D01*
X666502Y594098D02*
X669784Y597380D01*
X663067Y594098D02*
X666502D01*
X659750Y590781D02*
X663067Y594098D01*
X659750Y586250D02*
Y590781D01*
X801673Y482429D02*
X802268Y483024D01*
X901374Y459874D02*
Y460092D01*
X893966Y467500D02*
X901374Y460092D01*
X802268Y467500D02*
Y468038D01*
X931788D02*
X936750Y473000D01*
X921004Y468038D02*
X931788D01*
X849993Y543264D02*
X852007Y541250D01*
X785268Y543264D02*
X849993D01*
X760027Y547723D02*
X762000Y545750D01*
X763027Y560277D02*
X764287D01*
X900000Y577500D02*
Y578070D01*
X899410Y576910D02*
X900000Y577500D01*
X892193Y576910D02*
X899410D01*
X802268Y573264D02*
X842014D01*
X568348Y613598D02*
X628348D01*
X629784Y615034D01*
X563000Y608250D02*
X568348Y613598D01*
X521645Y604145D02*
X529685D01*
X534435Y608895D01*
X523000Y520250D02*
Y558000D01*
X519119Y601619D02*
X521645Y604145D01*
X519119Y561881D02*
Y601619D01*
Y561881D02*
X523000Y558000D01*
X839736Y583264D02*
X841000Y582000D01*
X802268Y583264D02*
X839736D01*
X753500Y615250D02*
X770486Y598264D01*
X744000Y615250D02*
X753500D01*
X743000Y614250D02*
X744000Y615250D01*
X765750Y594000D02*
X765967D01*
X768750Y591217D01*
Y586750D02*
Y591217D01*
Y586750D02*
X771804Y583696D01*
X776204D01*
X776453Y583446D01*
X802268Y583264D02*
Y583446D01*
X549091Y603485D02*
X554454Y608848D01*
X549091Y576927D02*
Y603485D01*
X543000Y570836D02*
X549091Y576927D01*
X543000Y507500D02*
Y570836D01*
X772326Y443146D02*
X802268D01*
X768824Y446647D02*
X772326Y443146D01*
X823014Y598264D02*
X823750Y599000D01*
X802268Y598264D02*
X823014D01*
X547000Y511500D02*
Y568000D01*
X644534Y648716D02*
Y648848D01*
X639284Y643466D02*
X644534Y648716D01*
X639284Y626880D02*
Y643466D01*
X636502Y624098D02*
X639284Y626880D01*
X633067Y624098D02*
X636502D01*
X629784Y620815D02*
X633067Y624098D01*
X629784Y615034D02*
Y620815D01*
X563000Y576250D02*
Y608250D01*
X558250Y571500D02*
X563000Y576250D01*
X550500Y571500D02*
X558250D01*
X547000Y568000D02*
X550500Y571500D01*
X585500Y506000D02*
X633250Y458250D01*
X571750Y509782D02*
Y521750D01*
X585500Y506000D02*
Y569250D01*
X589000Y519250D02*
Y576312D01*
Y519250D02*
X607500Y500750D01*
X592750Y524250D02*
X598750Y518250D01*
X579784Y574966D02*
X585500Y569250D01*
X770486Y598264D02*
X802268D01*
X583067Y604098D02*
X626502D01*
X579784Y600815D02*
X583067Y604098D01*
X578824D02*
X583574Y608848D01*
X584534D01*
X570848Y604098D02*
X578824D01*
X567500Y600750D02*
X570848Y604098D01*
X567500Y526000D02*
Y600750D01*
Y526000D02*
X571750Y521750D01*
X900486Y598264D02*
X921004D01*
X890250Y608500D02*
X900486Y598264D01*
X870750Y608500D02*
X890250D01*
X867029Y604780D02*
X870750Y608500D01*
X848791Y604780D02*
X867029D01*
X644534Y618348D02*
Y618848D01*
X639784Y613598D02*
X644534Y618348D01*
X639784Y607380D02*
Y613598D01*
X636502Y604098D02*
X639784Y607380D01*
X632567Y604098D02*
X636502D01*
X632415Y604250D02*
X632567Y604098D01*
X626654Y604250D02*
X632415D01*
X626502Y604098D02*
X626654Y604250D01*
X579784Y574966D02*
Y600815D01*
X648697Y217697D02*
X649000D01*
X601848Y583598D02*
X636848D01*
X592750Y570346D02*
X599284Y576880D01*
Y581034D01*
X601848Y583598D01*
X636848D02*
X642098Y588848D01*
X644534D01*
X642567Y583598D02*
X657098D01*
X639784Y580815D02*
X642567Y583598D01*
X639784Y580534D02*
Y580815D01*
X637999Y578749D02*
X639784Y580534D01*
X634499Y578749D02*
X637999D01*
X589000Y576312D02*
X589284Y576596D01*
Y590784D01*
X592098Y593598D01*
X639284D01*
X644534Y598848D01*
X904059Y583264D02*
X921004D01*
X904044Y583279D02*
X904059Y583264D01*
X907264Y573264D02*
X921004D01*
X907250Y573250D02*
X907264Y573264D01*
X657098Y583598D02*
X659750Y586250D01*
X712718Y594250D02*
X716500Y590467D01*
X676654Y594250D02*
X712718D01*
X716500Y589782D02*
X720533Y585750D01*
X716500Y589782D02*
Y590467D01*
X920490Y567750D02*
X921004Y568264D01*
X902235Y567750D02*
X920490D01*
X901485Y568500D02*
X902235Y567750D01*
X849000Y568500D02*
X901485D01*
X897482Y588264D02*
X921004D01*
X896127Y586910D02*
X897482Y588264D01*
X853840Y586910D02*
X896127D01*
X845750Y595000D02*
X853840Y586910D01*
X716500Y470250D02*
Y566750D01*
X700500Y582750D02*
X716500Y566750D01*
X679250Y582750D02*
X700500D01*
X920990Y558250D02*
X921004Y558264D01*
X907493Y558250D02*
X920990D01*
X900243Y565500D02*
X907493Y558250D01*
X920924Y423000D02*
X921004Y423080D01*
X912076Y413174D02*
X921004D01*
X909980Y415270D02*
X912076Y413174D01*
X908794Y415270D02*
X909980D01*
X907184Y493184D02*
X921004D01*
X906000Y492000D02*
X907184Y493184D01*
X819000Y502000D02*
X878000D01*
X812589Y508411D02*
X819000Y502000D01*
X812589Y508411D02*
Y510749D01*
X811230Y512108D02*
X812589Y510749D01*
X803424Y512108D02*
X811230D01*
X802268Y513264D02*
X803424Y512108D01*
X802268Y493184D02*
X817816D01*
X794264Y498264D02*
X802268D01*
X790000Y494000D02*
X794264Y498264D01*
X776000Y494000D02*
X790000D01*
X789282Y498084D02*
X794462Y503264D01*
X779233Y498084D02*
X789282D01*
X788904Y502904D02*
X794264Y508264D01*
X782904Y502904D02*
X788904D01*
X787000Y509000D02*
X791264Y513264D01*
X794462Y503264D02*
X802268D01*
X794264Y508264D02*
X802268D01*
X791264Y513264D02*
X802268D01*
X454336Y638984D02*
X454425Y638895D01*
X900000Y513000D02*
X920740D01*
X921004Y513264D01*
X905000Y519000D02*
X920268D01*
X921004Y518264D01*
X920268Y524000D02*
X921004Y523264D01*
X776000Y501316D02*
Y505000D01*
Y501316D02*
X779233Y498084D01*
X907998Y498999D02*
X920269D01*
X921004Y498264D01*
X921268Y503000D02*
X943000D01*
X921004Y503264D02*
X921268Y503000D01*
X904250Y397750D02*
X920566D01*
X921004Y398188D01*
X906250Y408750D02*
X906906Y408094D01*
X921004D01*
X904250Y430000D02*
X906750D01*
X908590Y428160D01*
X921004D01*
X920188Y437250D02*
X921004Y438066D01*
X789236Y518264D02*
X802268D01*
X820000Y491000D02*
X849000D01*
X818500Y472250D02*
X893250D01*
X898000Y477000D01*
X839500Y443250D02*
X881073D01*
X890337Y435000D02*
X890544Y434793D01*
X762538Y507462D02*
X776000Y494000D01*
X762538Y507462D02*
Y508646D01*
X898003Y508180D02*
X901997D01*
X902317Y508500D01*
X920768D01*
X921004Y508264D01*
X802268Y453052D02*
X814198D01*
X802268Y443146D02*
X817354D01*
X824680Y435820D01*
Y435754D02*
Y435820D01*
Y435754D02*
X832013Y428420D01*
X883756D01*
X802268Y438066D02*
X815478D01*
X817114Y435136D02*
Y436570D01*
Y435136D02*
X829250Y423000D01*
X905250Y437250D02*
X920188D01*
X890000Y423000D02*
X896000Y429000D01*
X829250Y423000D02*
X890000D01*
X890544Y434750D02*
Y434793D01*
X906750Y423000D02*
X920924D01*
X764000Y454750D02*
X768824Y449926D01*
Y446647D02*
Y449926D01*
X762500Y447000D02*
Y448500D01*
Y447000D02*
X786420Y423080D01*
X811420D02*
X813250Y421250D01*
X786420Y423080D02*
X811420D01*
X674534Y588848D02*
X703652D01*
X801548Y412454D02*
X802268Y413174D01*
X700006Y408744D02*
X752604D01*
X813250Y419000D02*
Y421250D01*
X802268Y428160D02*
X811840D01*
X824000Y416000D01*
X835750Y400250D02*
X850000Y414500D01*
X824000Y416000D02*
X827500Y419500D01*
X724180Y470997D02*
Y491996D01*
X674534Y578848D02*
X675348D01*
X679250Y582750D01*
X811908Y407500D02*
X817500Y401908D01*
X802862Y407500D02*
X811908D01*
X802268Y408094D02*
X802862Y407500D01*
X813250Y419000D02*
X825750Y406500D01*
X802268Y413174D02*
X812826D01*
X825750Y400250D02*
X835750D01*
X779188Y398188D02*
X802268D01*
X654534Y578848D02*
X657817D01*
X662567Y583598D01*
X667098D02*
X669784Y586284D01*
Y592034D01*
X671848Y594098D01*
X676502D01*
X676654Y594250D01*
X662567Y583598D02*
X667098D01*
X905750Y544500D02*
X909000D01*
X910236Y543264D01*
X921004D01*
X907796Y553264D02*
X921004D01*
X716500Y604000D02*
X746250Y574250D01*
X762500D01*
X753750Y589250D02*
X764000D01*
X802268Y568264D02*
X814736D01*
X848291Y567791D02*
X849000Y568500D01*
X891852Y577250D02*
X892193Y576910D01*
X847500Y568583D02*
X847541Y568541D01*
X842014Y573264D02*
X846000Y577250D01*
X846000Y577250D01*
X847500D01*
X847541Y567528D02*
Y568541D01*
X840750Y565500D02*
X842851D01*
X789000Y558000D02*
X789264Y558264D01*
X802268D01*
Y553250D02*
Y553264D01*
X784789Y555494D02*
X787032Y553250D01*
X772277Y555494D02*
X784789D01*
X772271Y555500D02*
X772277Y555494D01*
X845750Y562602D02*
X872352D01*
X875250Y565500D01*
X842851D02*
X845750Y562602D01*
X875250Y565500D02*
X900243D01*
X853250Y544250D02*
X898783D01*
X907796Y553264D01*
X772288Y535212D02*
Y539026D01*
Y535212D02*
X789236Y518264D01*
X763027Y551973D02*
X771224Y543776D01*
X777320D01*
X779071Y545526D01*
X783006D01*
X785268Y543264D01*
X788750Y533500D02*
Y536500D01*
Y533500D02*
X793986Y528264D01*
X802268D01*
X781038Y534462D02*
Y540776D01*
Y534462D02*
X792236Y523264D01*
X841264D01*
X814736Y568264D02*
X822250Y560750D01*
X846750Y550750D02*
X853250Y544250D01*
X844750Y550750D02*
X846750D01*
X787032Y553250D02*
X802268D01*
X768250Y555500D02*
X772271D01*
X852007Y541250D02*
X894750D01*
X901000Y535000D01*
Y534500D02*
Y535000D01*
X763027Y551973D02*
Y560277D01*
X501274Y608895D02*
X504463D01*
X496525Y604145D02*
X501274Y608895D01*
X491395Y604145D02*
X496525D01*
X489500Y602250D02*
X491395Y604145D01*
X489500Y572250D02*
Y602250D01*
Y572250D02*
X494500Y567250D01*
Y528750D02*
Y567250D01*
X499713Y531287D02*
X599750Y431250D01*
X499713Y531287D02*
Y601213D01*
X502145Y603645D01*
X643282Y524023D02*
X644750Y522554D01*
X847541Y568541D02*
X848291Y567791D01*
X817816Y493184D02*
X820000Y491000D01*
X616504Y527996D02*
Y532500D01*
X644750Y513250D02*
X656532Y501468D01*
Y493968D02*
Y501468D01*
Y493968D02*
X683500Y467000D01*
X644750Y513250D02*
Y522554D01*
X645500Y335467D02*
X656750Y324217D01*
X802268Y488104D02*
Y488750D01*
X880344Y481972D02*
X880543Y481773D01*
X837504Y438430D02*
X845462D01*
X846533Y439500D01*
X850468D01*
X851537Y438430D01*
X887407D01*
X825750Y406500D02*
X833750D01*
X812826Y413174D02*
X825750Y400250D01*
X817500Y401000D02*
Y401908D01*
Y391500D02*
Y401000D01*
X811000Y385000D02*
X817500Y391500D01*
X784500Y478029D02*
Y478500D01*
Y478029D02*
X794491Y468038D01*
X802268D01*
X777500Y479250D02*
X781500Y483250D01*
X796679D02*
X797500Y482429D01*
X781500Y483250D02*
X796679D01*
X797500Y482429D02*
X801673D01*
X802268Y478198D02*
X812552D01*
X818500Y472250D01*
X828250Y477000D02*
X891283D01*
X896032Y481750D01*
X899967D01*
X903217Y478500D01*
X920702D01*
X921004Y478198D01*
X571750Y509782D02*
X628750Y452783D01*
X633250Y236000D02*
Y458250D01*
X776453Y583446D02*
X802268D01*
X748500Y611250D02*
X765750Y594000D01*
X846000Y577250D02*
X891852D01*
X729500Y473500D02*
X744750Y488750D01*
X802268Y483024D02*
X814448D01*
X815500Y481972D01*
X880344D01*
X802268Y467500D02*
X893966D01*
X920886Y473000D02*
X921004Y473118D01*
X766750Y479500D02*
X769000D01*
X878000Y502000D02*
X885043Y509043D01*
Y509525D01*
X880293Y511110D02*
Y511492D01*
X883076Y514275D01*
X786475Y509525D02*
X787000Y509000D01*
X786038Y509525D02*
X786475D01*
X883076Y514275D02*
X891909D01*
X878708Y509525D02*
X880293Y511110D01*
X825540Y509525D02*
X878708D01*
X891909Y514275D02*
X898003Y508180D01*
X907750Y467750D02*
Y469250D01*
X911500Y473000D01*
X920886D01*
X905750Y485250D02*
X906500D01*
X908726Y483024D01*
X921004D01*
Y488104D02*
X938854D01*
X939250Y488500D01*
X906967Y523750D02*
X907217Y523500D01*
X919768D01*
X891500D02*
X891750Y523750D01*
X906967D01*
X690500Y437317D02*
X724180Y470997D01*
X690500Y418250D02*
X700006Y408744D01*
X690500Y418250D02*
Y437317D01*
X919768Y523500D02*
X920268Y524000D01*
X744750Y488750D02*
X802268D01*
X705750Y443250D02*
X738250D01*
X749750Y454750D01*
X764000D01*
X697250Y434750D02*
X705750Y443250D01*
X695250Y434750D02*
X697250D01*
X883756Y428420D02*
X890337Y435000D01*
X766500Y479250D02*
X777500D01*
X814198Y453052D02*
X827000Y440250D01*
Y438532D02*
Y440250D01*
Y438532D02*
X830782Y434750D01*
X848500D01*
X827500Y419500D02*
X883846D01*
X891826Y411520D01*
X898020D01*
X900250Y413750D01*
Y419250D01*
X502145Y603645D02*
X509119D01*
X514369Y608895D01*
X683500Y409500D02*
Y467000D01*
X686750Y415000D02*
Y440500D01*
X716500Y470250D01*
X724180Y491996D02*
X726750Y494566D01*
Y565750D01*
X703652Y588848D02*
X726750Y565750D01*
X720533Y585750D02*
X724250D01*
X760027Y549973D01*
Y547723D02*
Y549973D01*
X862500Y124500D02*
X865250D01*
X869000Y120750D01*
X871474Y125584D02*
Y135996D01*
Y125584D02*
X877824Y119234D01*
X879516D01*
X885000Y113750D01*
X899750D01*
X911860Y101640D01*
Y101162D02*
Y101640D01*
X891540Y119996D02*
Y135996D01*
Y119996D02*
X892302Y119234D01*
X910788D02*
X911860Y118162D01*
X869000Y105250D02*
X880250Y94000D01*
X869000Y105250D02*
Y120750D01*
X860484Y119234D02*
X861314D01*
X853000Y111750D02*
X860484Y119234D01*
X853000Y91858D02*
Y111750D01*
Y91858D02*
X864190Y80668D01*
X906526Y150996D02*
X920762D01*
X921084Y151318D01*
X931084Y136332D02*
Y151318D01*
X906526Y206182D02*
X920068D01*
X922020Y208134D01*
X922500Y208614D02*
Y215000D01*
X922020Y208134D02*
X922500Y208614D01*
X846354Y221168D02*
Y238038D01*
X846756Y238440D01*
X830060D02*
X836756D01*
X804592Y222908D02*
X815000Y212500D01*
Y207000D02*
Y212500D01*
Y207000D02*
X815818Y206182D01*
X821354D01*
X804592Y208976D02*
X812500Y201068D01*
X821320D01*
X821354Y201102D01*
X821180Y196196D02*
X821354Y196022D01*
X803910Y186196D02*
X821274D01*
X821354Y186116D01*
X803910Y165970D02*
X808280D01*
X813254Y160996D01*
X821354D01*
X795780Y165970D02*
X803910D01*
Y155970D02*
X821328D01*
X821354Y155996D01*
X796000Y155970D02*
X803910D01*
X812496Y150996D02*
X821354D01*
X810500Y149000D02*
X812496Y150996D01*
X734000Y167000D02*
X742250D01*
X136250Y204500D02*
X164054D01*
X164338Y204216D01*
X126250Y204500D02*
Y211750D01*
X266000Y204278D02*
Y228000D01*
X265938Y204216D02*
X266000Y204278D01*
Y238000D02*
Y245500D01*
X518160Y103494D02*
Y111250D01*
X163750Y92500D02*
X165110Y93860D01*
X180686D01*
X163750Y100500D02*
X165350Y98900D01*
X180686D01*
X410464Y137922D02*
X425542Y153000D01*
X513160Y117994D02*
Y131590D01*
X491750Y153000D02*
X513160Y131590D01*
X425542Y153000D02*
X491750D01*
X398250Y124736D02*
Y142250D01*
Y124736D02*
X410464Y112522D01*
X398250Y142250D02*
X413750Y157750D01*
X493364D01*
X523160Y117994D02*
Y127954D01*
X493364Y157750D02*
X523160Y127954D01*
X191250Y61250D02*
X198892Y53608D01*
X191250Y61250D02*
Y65750D01*
X188140Y68860D02*
X191250Y65750D01*
X180686Y68860D02*
X188140D01*
X199692Y66176D02*
X222368D01*
X198892Y66976D02*
X199692Y66176D01*
X180686Y78860D02*
X188610D01*
X193250Y83500D01*
X180686Y88860D02*
X195282D01*
X197956Y91534D01*
X193250Y83500D02*
X214250D01*
X223250Y92500D01*
X180686Y103980D02*
X197194D01*
X198892Y102282D01*
X180686Y109060D02*
X195670D01*
X198892Y112282D01*
X207968D01*
X223250Y105250D02*
Y113750D01*
Y92500D02*
Y95250D01*
X180686Y118966D02*
X189716D01*
X194114Y123364D01*
X198892D01*
X206864D01*
X180686Y124046D02*
X186546D01*
X198892Y133364D02*
X206386D01*
X110500Y139032D02*
Y157654D01*
X110326Y157828D02*
X110500Y157654D01*
X76210Y78754D02*
X95408D01*
X95514Y78860D01*
X85640Y68860D02*
X95514D01*
X92974Y36844D02*
X93844D01*
X102250Y45250D01*
X108750D01*
X110500Y47000D01*
Y53860D01*
X107198Y36844D02*
X107594D01*
X115580Y44830D01*
Y53860D01*
X130486Y35654D02*
Y53780D01*
X130566Y53860D01*
X130486Y33764D02*
Y35654D01*
Y33764D02*
X135750Y28500D01*
X155792Y35908D02*
Y53754D01*
X155686Y53860D02*
X155792Y53754D01*
X160686Y46314D02*
Y53860D01*
Y46314D02*
X165792Y41208D01*
Y35908D02*
Y41208D01*
X165686Y49064D02*
Y53860D01*
Y49064D02*
X169750Y45000D01*
X172250D01*
X115580Y139032D02*
Y147080D01*
X120326Y151826D01*
Y157828D01*
X160686Y136860D02*
Y146814D01*
X154950Y152550D02*
X160686Y146814D01*
X154950Y152550D02*
Y157400D01*
X167523Y167400D02*
X180096D01*
Y150596D02*
Y157400D01*
X421750Y123808D02*
X435864Y137922D01*
X421750Y103250D02*
Y123808D01*
X417000Y98500D02*
X421750Y103250D01*
X373000Y98500D02*
X417000D01*
X167523Y153273D02*
Y157400D01*
X165686Y139032D02*
Y151436D01*
X167523Y153273D01*
X288750Y182750D02*
X373000Y98500D01*
X215750Y182750D02*
X288750D01*
X435864Y110614D02*
Y112522D01*
X419250Y94000D02*
X435864Y110614D01*
X371250Y94000D02*
X419250D01*
X286238Y179012D02*
X371250Y94000D01*
X220762Y179012D02*
X286238D01*
X208500Y166750D02*
X220762Y179012D01*
X208500Y144250D02*
Y166750D01*
X204250Y140000D02*
X208500Y144250D01*
X180000Y140000D02*
X204250D01*
X702500Y925000D02*
X707500D01*
X702500Y982500D02*
X712500D01*
X705888Y963388D02*
X715020D01*
X306730Y768270D02*
X309118D01*
X302000Y773000D02*
X306730Y768270D01*
X317168Y738734D02*
Y744918D01*
X319750Y747500D01*
Y756250D01*
X329750Y738652D02*
Y756250D01*
Y738652D02*
X339168Y729234D01*
X339170Y703580D02*
Y729232D01*
X339168Y729234D02*
X339170Y729232D01*
X349170Y703580D02*
X363090Y717500D01*
X371250D01*
X316000Y731000D02*
Y737566D01*
X317168Y738734D01*
X220804Y626008D02*
X239958D01*
X240030Y625936D01*
X220546Y625750D02*
X220804Y626008D01*
X207500Y625750D02*
X220546D01*
X177986D02*
X207500D01*
X177800Y625936D02*
X177986Y625750D01*
X177800Y635936D02*
X198376D01*
X198804Y635508D01*
X232564Y635936D02*
X240030D01*
X232250Y636250D02*
X232564Y635936D01*
X234309Y620750D02*
X234366Y620693D01*
X114982Y501650D02*
X120900D01*
X104982Y472790D02*
Y501650D01*
Y472790D02*
X105078Y472694D01*
X128750Y445516D02*
Y461522D01*
X127078Y463194D02*
X128750Y461522D01*
X127078Y463194D02*
X143836D01*
X148336Y467694D01*
Y477694D02*
Y484086D01*
X136106Y433606D02*
X146398D01*
X120570Y445516D02*
X128750D01*
X134250Y404500D02*
Y412028D01*
X129712Y416566D02*
X134250Y412028D01*
X94250Y445750D02*
Y454250D01*
X351750Y737000D02*
X371250Y717500D01*
X341000Y737000D02*
X351750D01*
X335000Y743000D02*
X341000Y737000D01*
X514270Y807974D02*
X519750Y813454D01*
Y817816D01*
X519709Y817857D02*
X519750Y817816D01*
X574440Y678942D02*
X574534Y678848D01*
X683180Y647446D02*
X687196D01*
X688750Y649000D01*
X674624Y678862D02*
X681112D01*
X221000Y483750D02*
X221500Y484250D01*
Y490250D01*
X306828Y415032D02*
X308086Y416290D01*
X300818Y516630D02*
X317500Y516250D01*
X467186Y381436D02*
X488414D01*
X709168Y336332D02*
Y354932D01*
X704500Y991250D02*
X708250Y995000D01*
X712500D01*
X377750Y688750D02*
Y690250D01*
X544195Y688750D02*
X554414Y698968D01*
X377750Y688750D02*
X544195D01*
X447000Y618500D02*
X454425Y625925D01*
Y628895D01*
X565402Y628848D02*
X574534D01*
X560605Y633645D02*
X565402Y628848D01*
X457395Y613645D02*
X459581Y615831D01*
X581252Y628848D02*
X584534D01*
X576502Y624098D02*
X581252Y628848D01*
X523014Y624098D02*
X576502D01*
X519119Y620202D02*
X523014Y624098D01*
X519119Y615161D02*
Y620202D01*
X517706Y613748D02*
X519119Y615161D01*
X501342Y613748D02*
X517706D01*
X499713Y615377D02*
X501342Y613748D01*
X499713Y615377D02*
Y620457D01*
X496525Y623645D02*
X499713Y620457D01*
X472523Y623645D02*
X496525D01*
X469081Y620202D02*
X472523Y623645D01*
X469081Y606927D02*
Y620202D01*
X466298Y604145D02*
X469081Y606927D01*
X452957Y604145D02*
X466298D01*
X449675Y600863D02*
X452957Y604145D01*
X449675Y600175D02*
Y600863D01*
X446750Y597250D02*
X449675Y600175D01*
X394750Y597250D02*
X446750D01*
X389257Y591757D02*
X394750Y597250D01*
X375910Y591757D02*
X389257D01*
X376500Y645607D02*
Y647250D01*
X484397Y638895D02*
Y640353D01*
X481000Y643750D02*
X484397Y640353D01*
X461000Y643750D02*
X481000D01*
X459250Y642000D02*
X461000Y643750D01*
X459250Y635250D02*
Y642000D01*
X457645Y633645D02*
X459250Y635250D01*
X437178Y633645D02*
X457645D01*
X433783Y630250D02*
X437178Y633645D01*
X376750Y630250D02*
X433783D01*
X376500Y630500D02*
X376750Y630250D01*
X459581Y615831D02*
Y620863D01*
X462864Y624145D01*
X466298D01*
X469741Y627588D01*
Y630863D01*
X472523Y633645D01*
X560605D01*
X434076Y604076D02*
X443645Y613645D01*
X457395D01*
X563250Y669250D02*
X564500D01*
X559062Y673438D02*
X563250Y669250D01*
X559062Y673438D02*
Y683562D01*
X561000Y685500D01*
X846000Y577250D02*
X847500Y578750D01*
Y585500D01*
X841000Y592000D02*
X847500Y585500D01*
X720000Y675250D02*
X720500Y675750D01*
X720000Y662500D02*
Y675250D01*
Y662500D02*
X725250Y657250D01*
X821750D01*
X731500Y688250D02*
Y688503D01*
X749247Y706250D01*
X723750Y680500D02*
X731500Y688250D01*
X718532Y680500D02*
X723750D01*
X714098Y676065D02*
X718532Y680500D01*
X714098Y668098D02*
Y676065D01*
X760250Y832500D02*
X760500Y832750D01*
X446325Y748919D02*
X454425D01*
X446024Y748618D02*
X446325Y748919D01*
X559171Y723697D02*
X574487Y739013D01*
X551007Y723697D02*
X559171D01*
X549486Y722176D02*
X551007Y723697D01*
X549486Y717374D02*
Y722176D01*
X546261Y714150D02*
X549486Y717374D01*
X399100Y714150D02*
X546261D01*
X397500Y715750D02*
X399100Y714150D01*
X376500Y647250D02*
X385000Y655750D01*
X393000D01*
X399855Y648895D01*
X454425D01*
X448280Y652750D02*
X454425Y658895D01*
X402500Y652750D02*
X448280D01*
X395250Y660000D02*
X402500Y652750D01*
X376500Y660000D02*
X395250D01*
X551011Y668848D02*
X554454D01*
X546309Y664145D02*
X551011Y668848D01*
X472523Y664145D02*
X546309D01*
X469081Y667588D02*
X472523Y664145D01*
X469081Y667588D02*
Y672619D01*
X467668Y674032D02*
X469081Y672619D01*
X451304Y674032D02*
X467668D01*
X357000Y676500D02*
X367250D01*
X341500D02*
X347000D01*
X561000Y685500D02*
X671750D01*
X682000Y695750D01*
Y705000D01*
X686623Y709623D01*
X684750Y689750D02*
X689173D01*
X694782Y684140D01*
X721640D01*
X686623Y709623D02*
X733623D01*
X760250Y736250D01*
Y832500D01*
X721640Y684140D02*
X750500Y713000D01*
X803750D01*
X749247Y706250D02*
X812074D01*
X837090Y731266D01*
X145686Y170186D02*
X152750Y177250D01*
X145686Y139032D02*
Y170186D01*
X258125Y454375D02*
X273500Y469750D01*
X180250Y167554D02*
Y176500D01*
X180096Y167400D02*
X180250Y167554D01*
X268013Y415520D02*
X268501Y415032D01*
X306828D01*
X269500Y428000D02*
X282774D01*
X282924Y428150D01*
X268250Y442250D02*
X281524D01*
X282924Y440850D01*
X275250Y325250D02*
X320000Y370000D01*
X273533Y325250D02*
X275250D01*
X267750Y319468D02*
X273533Y325250D01*
X189738Y198262D02*
Y204216D01*
Y198262D02*
X202250Y185750D01*
X320967D01*
X619250Y301000D02*
X628750Y310500D01*
Y452783D01*
X608250Y210750D02*
Y217750D01*
X610750Y220250D01*
X620030Y222780D02*
X633250Y236000D01*
X620030Y215760D02*
Y222780D01*
X614500Y209000D02*
Y246000D01*
X377282Y190000D02*
X379033Y188250D01*
X246000Y190000D02*
X377282D01*
X240538Y195462D02*
Y204216D01*
Y195462D02*
X246000Y190000D01*
X320967Y185750D02*
X322467Y184250D01*
X152750Y177250D02*
X158250D01*
X176500Y195500D01*
Y212000D01*
X160738Y173250D02*
X179988Y192500D01*
Y208255D01*
X150686Y139032D02*
Y148814D01*
X150500Y149000D02*
X150686Y148814D01*
X238000Y273500D02*
Y397625D01*
X258125Y417750D01*
X176500Y212000D02*
X238000Y273500D01*
X258125Y417750D02*
Y454375D01*
X368250Y414000D02*
X380500D01*
X363000Y408750D02*
X368250Y414000D01*
X245750Y387000D02*
X257000Y398250D01*
X371500Y396000D02*
X381000Y405500D01*
X257000Y398250D02*
X312750D01*
X323250Y408750D01*
X363000D01*
X332500Y396000D02*
X371500D01*
X329000Y399500D02*
X332500Y396000D01*
X322250Y399500D02*
X329000D01*
X314000Y391250D02*
X322250Y399500D01*
X264250Y391250D02*
X314000D01*
X252750Y379750D02*
X264250Y391250D01*
X702576Y399174D02*
X723044D01*
X723103Y399234D01*
X723766D01*
X686750Y415000D02*
X702576Y399174D01*
X723766Y399234D02*
X726283Y401750D01*
X683500Y409500D02*
X705000Y388000D01*
X755250D01*
X301198Y516250D02*
X317500D01*
X300818Y516630D02*
X301198Y516250D01*
X328500Y418000D02*
X331226Y415274D01*
X343268D01*
Y389874D02*
X373624D01*
X332576Y440674D02*
X343268D01*
X331000Y442250D02*
X332576Y440674D01*
X323250Y434750D02*
Y474500D01*
Y434750D02*
X328500Y429500D01*
Y418000D02*
Y429500D01*
X327250Y437000D02*
X330000Y434250D01*
X350750Y541000D02*
Y614750D01*
X366500Y630500D01*
Y645607D02*
X371500Y640607D01*
Y625750D02*
Y640607D01*
X354250Y608500D02*
X371500Y625750D01*
X427250Y351750D02*
X443828D01*
X443852Y351774D01*
X234309Y620750D02*
X246750D01*
X329580Y703580D01*
X339170D01*
X376217Y715750D02*
X387500D01*
X358797Y698330D02*
X376217Y715750D01*
X335330Y698330D02*
X358797D01*
X337750Y694500D02*
X361000D01*
X345750Y633750D02*
X356750Y644750D01*
X357003D01*
X366500Y654247D01*
Y660000D01*
X240750Y458003D02*
X244997Y462250D01*
X240750Y448500D02*
Y458003D01*
Y448500D02*
X253250Y436000D01*
Y420500D02*
Y436000D01*
X232500Y399750D02*
X253250Y420500D01*
X232500Y278000D02*
Y399750D01*
X509750Y410000D02*
Y426902D01*
X510766Y427918D01*
X479002Y438750D02*
X479023Y438771D01*
X500500Y438750D02*
X502892Y436358D01*
Y427918D02*
Y436358D01*
X479002Y438750D02*
X500500D01*
X388250Y674750D02*
X391000Y672000D01*
X357000Y671250D02*
Y676500D01*
X349000Y663250D02*
X357000Y671250D01*
X334750Y663250D02*
X349000D01*
X329250Y657750D02*
X334750Y663250D01*
X331750Y526750D02*
X345750Y540750D01*
Y633750D01*
X332000Y532750D02*
X332003D01*
X327000Y527750D02*
X332000Y532750D01*
X327000Y501250D02*
Y527750D01*
X336000Y504033D02*
X344500Y495532D01*
X331750Y503750D02*
Y526750D01*
Y503750D02*
X339250Y496250D01*
X273500Y469750D02*
X304992D01*
X324766Y489524D01*
X323250Y474500D02*
X329516Y480766D01*
X323250Y498750D02*
Y528250D01*
Y498750D02*
X329516Y492484D01*
Y480766D02*
Y492484D01*
X327000Y501250D02*
X334000Y494250D01*
X331000Y442250D02*
Y456750D01*
X344500Y470250D01*
Y495532D01*
X327250Y437000D02*
Y459250D01*
X339250Y471250D01*
Y496250D01*
X329000Y472750D02*
X334000Y477750D01*
Y494250D01*
X598750Y518250D02*
X612000D01*
X641500Y488750D01*
X607500Y500750D02*
X613500D01*
X637500Y476750D01*
X361000Y694500D02*
X363250Y696750D01*
X378500D01*
X397500Y715750D01*
X332003Y532750D02*
X341000Y541747D01*
X244997Y462250D02*
X256500D01*
X274152Y479902D01*
X262250Y492750D02*
X268250Y486750D01*
X269000D01*
X489980Y404000D02*
X506500D01*
X488414Y405566D02*
X489980Y404000D01*
X835250Y591750D02*
Y626750D01*
X832250Y588750D02*
X835250Y591750D01*
X802518Y588514D02*
X832250D01*
X841000Y592000D02*
Y621750D01*
X763250Y401750D02*
X780000Y385000D01*
X726283Y401750D02*
X763250D01*
X780000Y385000D02*
X811000D01*
X664534Y608848D02*
X667817D01*
X672567Y613598D01*
X685880D01*
X902870D02*
X933466D01*
X936630Y610434D01*
X944494D01*
X944560Y610500D01*
X951250D01*
X959750Y602000D01*
Y382500D02*
Y602000D01*
X943250Y366000D02*
X959750Y382500D01*
X827000Y366000D02*
X943250D01*
X803000Y342000D02*
X827000Y366000D01*
X799000Y342000D02*
X803000D01*
X798068Y342932D02*
X799000Y342000D01*
X798068Y342932D02*
Y354932D01*
X756253Y623250D02*
X756253Y623250D01*
X915000Y625000D02*
X946250D01*
X965500Y605750D01*
Y380750D02*
Y605750D01*
X944500Y359750D02*
X965500Y380750D01*
X831000Y359750D02*
X944500D01*
X801500Y330250D02*
X831000Y359750D01*
X777750Y330250D02*
X801500D01*
X772668Y335332D02*
X777750Y330250D01*
X772668Y335332D02*
Y354932D01*
X881750Y665750D02*
X904064Y688064D01*
Y721004D01*
X777250Y396250D02*
X779188Y398188D01*
X707750Y272250D02*
X709168Y270832D01*
Y254348D02*
Y270832D01*
X747250Y339250D02*
Y354932D01*
X474491Y585612D02*
Y588895D01*
X469741Y580863D02*
X474491Y585612D01*
X469741Y574145D02*
Y580863D01*
X654534Y628848D02*
X659284Y633598D01*
X691098D01*
X729750Y613250D02*
X753750Y589250D01*
X693750Y613250D02*
X729750D01*
X685880Y613598D02*
X692032Y619750D01*
X821533D01*
X654534Y618848D02*
X659284Y623598D01*
X676502D01*
X676850Y623250D01*
X756253D01*
X691098Y633598D02*
X692250Y634750D01*
X318051Y382769D02*
X373019D01*
X459750Y121750D02*
Y141250D01*
X419000Y81000D02*
X459750Y121750D01*
X419000Y80750D02*
Y81000D01*
X472995Y97255D02*
X473523D01*
X469250Y93510D02*
X472995Y97255D01*
X469250Y87000D02*
Y93510D01*
X447000Y90000D02*
X458000Y101000D01*
X447000Y87526D02*
Y90000D01*
Y87526D02*
X447272Y87254D01*
X434500Y87500D02*
X446250Y99250D01*
X167523Y157400D02*
X167650D01*
X172625Y162375D01*
X195375D01*
X215750Y182750D01*
X595467Y411500D02*
X599750Y415783D01*
Y431250D01*
X586500Y418500D02*
X591000Y423000D01*
Y432250D01*
X494500Y528750D02*
X591000Y432250D01*
X534896Y415604D02*
Y427918D01*
Y415604D02*
X544026Y406474D01*
Y406270D02*
Y406474D01*
X518894Y413856D02*
Y427918D01*
X457750Y345000D02*
X464250Y338500D01*
X331482Y296482D02*
X343522D01*
X326000Y291000D02*
X331482Y296482D01*
X309324Y339074D02*
X343268D01*
X277000Y306750D02*
X309324Y339074D01*
X424634Y233782D02*
X437032D01*
X445500Y242250D01*
X351518Y246482D02*
X424634D01*
X332250Y265750D02*
X351518Y246482D01*
X179988Y208255D02*
X263000Y291267D01*
Y327718D01*
X318051Y382769D01*
X257750Y236250D02*
X266000Y228000D01*
X265250Y265750D02*
X332250D01*
X264750Y265250D02*
X265250Y265750D01*
X257750Y236250D02*
Y279000D01*
X267750Y289000D01*
Y319468D01*
X373019Y382769D02*
X392250Y402000D01*
X412750Y366250D02*
X427250Y351750D01*
X394000Y454250D02*
X409000Y439250D01*
X373624Y389874D02*
X387500Y403750D01*
X343268Y427974D02*
X378276D01*
X379820Y426430D01*
Y426213D02*
Y426430D01*
X361250Y434250D02*
X361729Y433771D01*
X382479D01*
X387500Y428750D01*
X330000Y434250D02*
X361250D01*
X387500Y403750D02*
Y428750D01*
X222000Y267500D02*
X232500Y278000D01*
X221000Y267500D02*
X222000D01*
X782750Y39250D02*
Y40000D01*
X168398Y375398D02*
Y424106D01*
X168250Y375250D02*
X168398Y375398D01*
X435874Y326374D02*
X443852D01*
X432326Y377174D02*
X443852D01*
X428500Y381000D02*
X432326Y377174D01*
X428500Y381000D02*
Y388000D01*
X425000Y391500D02*
X428500Y388000D01*
X409000Y362000D02*
Y439250D01*
Y362000D02*
X426000Y345000D01*
X457750D01*
X443852Y377174D02*
X452576D01*
X458000Y371750D01*
X464250Y232500D02*
Y338500D01*
Y232500D02*
X487750Y209000D01*
X502500D01*
X427274Y415274D02*
X443852D01*
X418500Y406500D02*
X427274Y415274D01*
X461250Y378500D02*
X463500Y376250D01*
X472750D01*
X475750Y373250D01*
X443852Y389874D02*
X451126D01*
X457250Y383750D01*
Y377500D02*
Y383750D01*
Y377500D02*
X461500Y373250D01*
X458000Y356750D02*
Y371750D01*
X523000Y520250D02*
X604250Y439000D01*
X608750Y338750D02*
Y441750D01*
X543000Y507500D02*
X608750Y441750D01*
X547000Y511500D02*
X613750Y444750D01*
Y401968D02*
Y444750D01*
X613500Y401717D02*
X613750Y401968D01*
X617250Y448750D02*
X618750D01*
X624750Y442750D01*
X618500Y372500D02*
X624750Y378750D01*
Y442750D01*
X637500Y228893D02*
X648697Y217697D01*
X461250Y378500D02*
Y383932D01*
X657250Y405500D02*
Y487250D01*
X645500Y393750D02*
X657250Y405500D01*
X645500Y335467D02*
Y393750D01*
X616504Y527996D02*
X657250Y487250D01*
X637500Y228893D02*
Y476750D01*
X608750Y338750D02*
X610000Y337500D01*
Y322250D02*
Y337500D01*
X607000Y319250D02*
X610000Y322250D01*
X614000Y305500D02*
Y324000D01*
X610750Y302250D02*
X614000Y305500D01*
X613500Y353500D02*
Y401717D01*
X619250Y329250D02*
Y347750D01*
X614000Y324000D02*
X619250Y329250D01*
X613500Y353500D02*
X619250Y347750D01*
X734568Y239068D02*
Y254348D01*
Y239068D02*
X735386Y238250D01*
X756000Y336250D02*
X760500Y340750D01*
Y354400D01*
X759968Y354932D02*
X760500Y354400D01*
X755250Y388000D02*
X769000Y374250D01*
X734568Y366818D02*
X739500Y371750D01*
X734568Y354932D02*
Y366818D01*
X759968Y241750D02*
Y254348D01*
X747268Y238732D02*
Y254348D01*
X860750Y313750D02*
X870250Y323250D01*
X892278D01*
X903870Y311658D01*
X696750Y337750D02*
Y354650D01*
X696468Y354932D02*
X696750Y354650D01*
X467625Y238375D02*
Y347125D01*
Y238375D02*
X472218Y233782D01*
X486102D01*
X458000Y356750D02*
X467625Y347125D01*
X508000Y278250D02*
Y294250D01*
Y278250D02*
X517250Y269000D01*
Y231033D02*
Y269000D01*
Y231033D02*
X519750Y228533D01*
X512000Y279250D02*
X527250Y264000D01*
X519750Y207500D02*
Y228533D01*
X862250Y200750D02*
X892004Y170996D01*
X906526D01*
X854000Y197750D02*
X885754Y165996D01*
X906526D01*
X846000Y195750D02*
Y200500D01*
Y195750D02*
X880754Y160996D01*
X906526D01*
X931084Y166050D02*
Y174334D01*
X931000Y49000D02*
X947750Y65750D01*
X848750Y64000D02*
X856000Y71250D01*
X800750Y69250D02*
X806000Y64000D01*
X800750Y69250D02*
Y94250D01*
X782478Y112522D02*
X800750Y94250D01*
X774446Y112522D02*
X782478D01*
X921165Y159500D02*
X938750D01*
X947750Y150500D01*
Y65750D02*
Y150500D01*
X931084Y151318D02*
X937932D01*
X938000Y151250D01*
X619250Y236000D02*
Y301000D01*
X589500Y395500D02*
X595750Y389250D01*
X573250Y389564D02*
X588686D01*
X591500Y386750D01*
X573250Y381436D02*
X583814D01*
X587500Y377750D01*
X641500Y277750D02*
X653750Y265500D01*
X641500Y277750D02*
Y417564D01*
X640781Y418283D02*
X641500Y417564D01*
X640781Y418283D02*
Y422217D01*
X641500Y422936D01*
Y488750D01*
X604250Y338750D02*
Y439000D01*
X599500Y316500D02*
Y334000D01*
X604250Y338750D01*
X600000Y342000D02*
Y391750D01*
X595750Y343500D02*
Y389250D01*
X591500Y345250D02*
Y386750D01*
X582500Y343500D02*
X587500Y348500D01*
Y377750D01*
X610750Y220250D02*
Y243032D01*
Y248967D02*
Y302250D01*
X609750Y247967D02*
X610750Y248967D01*
X609750Y244032D02*
X610750Y243032D01*
X609750Y244032D02*
Y247967D01*
X594000Y314757D02*
Y336000D01*
X600000Y342000D01*
X591000Y338750D02*
X595750Y343500D01*
X587250Y341000D02*
X591500Y345250D01*
X582500Y294750D02*
Y343500D01*
X581250Y293500D02*
X582500Y294750D01*
X579750Y293500D02*
X581250D01*
X582750Y282250D02*
X591000Y290500D01*
X582750Y281294D02*
Y282250D01*
X591000Y290500D02*
Y338750D01*
X587250Y294282D02*
Y341000D01*
X683768Y254348D02*
Y269768D01*
X694250Y280250D01*
X494750Y334500D02*
X500250Y329000D01*
X488414Y397438D02*
X512312D01*
X537000Y372750D01*
X488414Y389564D02*
X511186D01*
X527750Y373000D01*
X488414Y381436D02*
X511064D01*
X519250Y373250D01*
Y373000D02*
Y373250D01*
X488414Y373562D02*
X509688D01*
X510500Y372750D01*
X559812Y373562D02*
X573250D01*
X555750Y369500D02*
X559812Y373562D01*
X555000Y369500D02*
X555750D01*
X561184Y365434D02*
X573250D01*
X560000Y364250D02*
X561184Y365434D01*
X568250Y219250D02*
Y223500D01*
X567250Y231750D02*
X573000Y226000D01*
Y214000D02*
Y226000D01*
X564000Y227750D02*
X568250Y223500D01*
X564560Y357560D02*
X573250D01*
X563250Y356250D02*
X564560Y357560D01*
X563250Y353750D02*
Y356250D01*
Y353750D02*
X572500Y344500D01*
Y321717D02*
Y344500D01*
X572250Y321468D02*
X572500Y321717D01*
X572250Y308750D02*
Y321468D01*
Y308750D02*
X577750Y303250D01*
Y298218D02*
Y303250D01*
X573028Y293496D02*
X577750Y298218D01*
X573028Y280764D02*
Y293496D01*
Y280764D02*
X577750Y276042D01*
X302765Y194760D02*
X326505Y218500D01*
X104982Y501650D02*
Y527000D01*
X129712Y416566D02*
X135646Y422500D01*
X152500D01*
X128750Y445516D02*
X136984D01*
X94250Y445750D02*
X99234Y440766D01*
X153234D01*
X152500Y422500D02*
X156000Y426000D01*
Y438000D01*
X153234Y440766D02*
X156000Y438000D01*
X262250Y492750D02*
Y533500D01*
X325750Y781000D02*
X335000Y771750D01*
Y743000D02*
Y771750D01*
X340750Y690250D02*
X367750D01*
X336000Y504033D02*
Y526250D01*
X350750Y541000D01*
X821750Y657250D02*
X824750Y660250D01*
X886500D01*
X717750Y653500D02*
X826500D01*
X829250Y656250D01*
X841000Y621750D02*
X862500Y643250D01*
X864000D01*
X821533Y619750D02*
X849782Y648000D01*
X868467D01*
X902870Y613598D01*
X888500Y651500D02*
X915000Y625000D01*
X756253Y623250D02*
X817250D01*
X845500Y651500D01*
X888500D01*
X323750Y673250D02*
X340750Y690250D01*
X329250Y645500D02*
Y657750D01*
Y645500D02*
X341000Y633750D01*
Y541747D02*
Y633750D01*
X323750Y642000D02*
Y673250D01*
Y642000D02*
X334250Y631500D01*
Y559000D02*
Y631500D01*
X321250Y530250D02*
X323250Y528250D01*
X321250Y530250D02*
Y546000D01*
X334250Y559000D01*
X292250Y634500D02*
Y649000D01*
X337750Y694500D01*
X287750Y631750D02*
Y650750D01*
X335330Y698330D01*
X274152Y479902D02*
Y533402D01*
X278250Y537500D01*
X305500D01*
X321250Y553250D01*
X262250Y533500D02*
X271000Y542250D01*
X303750D01*
X316500Y555000D01*
X527250Y212000D02*
Y264000D01*
X691750Y175750D02*
X715250Y199250D01*
Y267250D01*
X803750Y713000D02*
X839250Y748500D01*
X502892Y343082D02*
X503250Y342724D01*
Y315540D02*
X504275Y314515D01*
X503250Y315540D02*
Y342724D01*
X471750Y319539D02*
X480023Y311265D01*
X471750Y319539D02*
Y349750D01*
X461500Y360000D02*
X471750Y349750D01*
X475750Y346782D02*
Y373250D01*
Y346782D02*
X488032Y334500D01*
X656750Y221750D02*
X663500Y215000D01*
X656750Y221750D02*
Y324217D01*
X653750Y215729D02*
Y265500D01*
X647750Y209750D02*
X650947Y212947D01*
X650967D01*
X653750Y215729D01*
X649500Y202250D02*
X656250D01*
X663500Y209500D01*
Y215000D01*
X545277Y369518D02*
Y400276D01*
X548777Y403776D01*
X763764Y412454D02*
X801548D01*
X752604Y408744D02*
X756314Y412454D01*
X759237D01*
X759532Y412750D01*
X763467D01*
X763764Y412454D01*
X316500Y555000D02*
Y603000D01*
X287750Y631750D02*
X316500Y603000D01*
X321250Y553250D02*
Y605500D01*
X292250Y634500D02*
X321250Y605500D01*
X486082Y413500D02*
X498045D01*
X501525Y410020D01*
X180550Y113750D02*
X180686Y113886D01*
X165792Y113750D02*
X180550D01*
X824500Y121442D02*
X828642Y125584D01*
X832084D01*
X836354Y129854D01*
X904354Y155996D02*
Y156568D01*
X918233D01*
X921165Y159500D01*
Y165969D01*
X921084Y166050D02*
X921165Y165969D01*
X906000Y145250D02*
X919920D01*
X921084Y146414D01*
Y151318D01*
X180686Y73860D02*
X192008D01*
X198892Y66976D01*
Y53608D02*
X229856D01*
X239386Y44078D01*
X186546Y124046D02*
X190546Y128046D01*
X193426D01*
X198744Y133364D02*
X198892D01*
X193426Y128046D02*
X198744Y133364D01*
X154950Y167400D02*
Y171340D01*
X156860Y173250D01*
X160738D01*
X105078Y453399D02*
Y472694D01*
Y453399D02*
X110570Y447907D01*
Y445516D02*
Y447907D01*
X129712Y426566D02*
X136106Y432960D01*
Y433606D01*
X375910Y604076D02*
X434076D01*
X309118Y758270D02*
X311138Y756250D01*
X319750D01*
X506500Y107000D02*
X510750Y111250D01*
X518160D01*
X677597Y110000D02*
X689877D01*
X691134Y108743D01*
Y103494D02*
Y108743D01*
X465250Y512503D02*
X474552Y521805D01*
Y569334D01*
X469741Y574145D02*
X474552Y569334D01*
X657437Y571750D02*
X664534Y578848D01*
X643282Y524023D02*
Y567613D01*
X647419Y571750D01*
X657437D01*
X592750Y524250D02*
Y570346D01*
X354250Y577496D02*
Y608500D01*
Y577496D02*
X412750Y518996D01*
Y366250D02*
Y518996D01*
X881354Y152862D02*
X881380Y152836D01*
Y135996D02*
Y152836D01*
X855750Y152000D02*
X858296D01*
X861354Y148942D01*
Y137996D02*
Y148942D01*
X326505Y218500D02*
X369253D01*
X372503Y221750D01*
X416000D01*
X95654Y74000D02*
X111250D01*
X821354Y181036D02*
X835464D01*
X125000Y28000D02*
X125162Y27838D01*
X791716Y196229D02*
X791748Y196196D01*
X693384Y95744D02*
X696134Y98494D01*
Y103494D01*
X848250Y-101500D02*
X850000Y-103250D01*
Y-112000D02*
Y-103250D01*
X686134Y98494D02*
Y103494D01*
Y98494D02*
X688884Y95744D01*
X842000Y-112000D02*
Y-103250D01*
X843750Y-101500D01*
X642000Y-112000D02*
Y-103250D01*
X643750Y-101500D01*
X650000Y-112000D02*
Y-103250D01*
X648250Y-101500D02*
X650000Y-103250D01*
X520410Y95744D02*
X523160Y98494D01*
Y103494D01*
X513160Y98494D02*
Y103494D01*
Y98494D02*
X515910Y95744D01*
X688884Y58866D02*
Y95744D01*
X693384Y60730D02*
Y95744D01*
Y60730D02*
X848250Y-94136D01*
Y-101500D02*
Y-94136D01*
X688884Y58866D02*
X843750Y-96000D01*
Y-101500D02*
Y-96000D01*
X648250Y-101500D02*
Y-42886D01*
X723646Y166646D02*
X724000Y167000D01*
X515910Y83090D02*
Y95744D01*
Y83090D02*
X643750Y-44750D01*
Y-101500D02*
Y-44750D01*
X520410Y84954D02*
Y95744D01*
Y84954D02*
X648250Y-42886D01*
X609458Y20542D02*
X610000Y20000D01*
X601258Y55000D02*
X602650Y53608D01*
X646500Y75608D02*
Y83500D01*
X669000Y106000D01*
Y272616D01*
X691750Y295366D01*
Y328000D01*
X129000Y333250D02*
X182100D01*
X128750Y290500D02*
X147202D01*
X182100Y333250D02*
X195200Y320150D01*
X130000Y247000D02*
X147450D01*
X169800Y269350D01*
X147202Y290500D02*
X155702Y282000D01*
X182450D01*
X195200Y294750D01*
D44*
X106250Y325250D02*
Y336000D01*
X899298Y71750D02*
X921250D01*
X890380Y80668D02*
X899298Y71750D01*
X864190Y80668D02*
X890380D01*
X911860Y82070D02*
Y101162D01*
X921250Y71750D02*
X932180Y82680D01*
Y101162D01*
X762500Y850000D02*
Y867500D01*
X752500Y840000D02*
X762500Y850000D01*
X715000Y840000D02*
X752500D01*
D45*
X685500Y558500D02*
Y571750D01*
X435938Y524921D02*
Y544938D01*
X436000Y545000D01*
X461250Y859500D02*
X466622Y863500D01*
X437500Y861000D02*
Y875250D01*
X409500Y860750D02*
Y875000D01*
X449000Y864751D02*
X451250Y867001D01*
X471750Y862750D02*
Y873500D01*
X487000Y859000D02*
Y873250D01*
X545856Y301750D02*
X552250D01*
X577690Y551027D02*
Y562250D01*
X440000Y726788D02*
Y737250D01*
X414000Y700250D02*
Y706788D01*
Y700250D02*
X418250Y696000D01*
X403500Y681000D02*
X414274D01*
X428500D02*
X439166D01*
X415000Y640750D02*
X425958D01*
X390250Y620750D02*
X401574D01*
X414750Y620250D02*
X425958D01*
X420756Y575097D02*
Y589347D01*
X436000Y576750D02*
Y589250D01*
Y576750D02*
X446750Y566000D01*
X410500Y544500D02*
X424750D01*
X513000Y538000D02*
Y549148D01*
X533000Y537250D02*
Y549148D01*
X577500Y527500D02*
Y537972D01*
X557000Y527000D02*
Y537972D01*
X557750Y550750D02*
Y561848D01*
X601250Y531000D02*
Y541180D01*
X632250Y527250D02*
Y537430D01*
X697500Y516500D02*
Y530750D01*
X601218Y561250D02*
X612250D01*
X705000Y646750D02*
Y656496D01*
X727500Y643000D02*
X741750D01*
X749000Y643000D02*
X763250D01*
X738250Y630500D02*
Y644750D01*
X753250Y630500D02*
Y644750D01*
X752500Y671250D02*
Y685500D01*
X738750Y671250D02*
Y685500D01*
X748500Y673750D02*
X762750D01*
X694250Y676750D02*
X704850D01*
X779000Y688250D02*
X793250D01*
X789000Y666000D02*
Y680250D01*
X805000Y665750D02*
Y680000D01*
X803500Y684750D02*
Y699000D01*
X692658Y699750D02*
X703750D01*
X692658Y719500D02*
X703750D01*
X716788Y720250D02*
X727500D01*
X804000Y730500D02*
Y744750D01*
X789750Y730250D02*
Y744500D01*
X779250Y747000D02*
X793500D01*
X800250Y746250D02*
X814500D01*
X692658Y738250D02*
X703500D01*
X734000Y745250D02*
X748250D01*
X712750Y772250D02*
X727000D01*
X692750Y799432D02*
Y809250D01*
X735500Y776000D02*
X740750D01*
X748750Y768000D01*
X671162Y814500D02*
X681250D01*
X641750Y814750D02*
X651162D01*
X628750Y815594D02*
Y826750D01*
X609000Y815594D02*
Y826500D01*
X583024Y814500D02*
X593000D01*
X553500Y815250D02*
X563024D01*
X583024Y840250D02*
X592750D01*
X553250Y840000D02*
X563024D01*
X622000Y854250D02*
Y868500D01*
X610000Y855750D02*
X624250D01*
X649500Y855000D02*
Y869250D01*
X511000Y830566D02*
Y841250D01*
X479298Y830566D02*
X511000D01*
Y857250D02*
Y868250D01*
X530700Y857500D02*
X540250D01*
X530700Y830500D02*
X540250D01*
X483000Y860750D02*
X497250D01*
X523000Y892000D02*
Y906250D01*
X509250Y891750D02*
Y906000D01*
X509250Y913750D02*
Y928000D01*
X523000Y913500D02*
Y927750D01*
X499250Y917250D02*
X513500D01*
X499500Y902750D02*
X513750D01*
X574750Y914000D02*
Y928250D01*
X588000Y914000D02*
Y928250D01*
X584000Y917750D02*
X598250D01*
X584250Y902000D02*
X598500D01*
X574250Y891750D02*
Y906000D01*
X588500Y891500D02*
Y905750D01*
X640250Y843250D02*
X654500D01*
X395250Y864500D02*
X409500D01*
X437000Y864751D02*
X449000D01*
X466622Y863500D02*
X471750Y862750D01*
X438000Y809750D02*
Y820674D01*
X417736Y811514D02*
Y820674D01*
Y811514D02*
X419500Y809750D01*
X438250Y781750D02*
Y792734D01*
X422000Y781750D02*
Y788978D01*
X418244Y792734D02*
X422000Y788978D01*
X413962Y726750D02*
X424500D01*
X428750Y661000D02*
X439288D01*
X403500Y663750D02*
X403500D01*
X403500D02*
X406000Y661250D01*
X916606Y62000D02*
X923000D01*
X864250Y50750D02*
Y57144D01*
X262106Y89750D02*
X268500D01*
X77500Y164106D02*
Y170500D01*
X246356Y169000D02*
X252750D01*
X692658Y758500D02*
X700500D01*
X704000Y755000D01*
X738750Y745750D02*
X743000Y741500D01*
Y733000D02*
Y741500D01*
X464250Y545500D02*
Y560832D01*
X692000Y530000D02*
X696000Y526000D01*
X654558Y561000D02*
X666000D01*
X679750Y516500D02*
Y530500D01*
X671875Y522625D02*
X674225Y520275D01*
X671875Y522625D02*
X679750Y530500D01*
X650532Y527026D02*
Y530032D01*
X654750Y534250D01*
Y541180D01*
X738250Y669500D02*
X741750Y673000D01*
X727250Y669500D02*
X738250D01*
X390000Y648250D02*
X397822Y640428D01*
X401500D01*
X484500Y550000D02*
Y560832D01*
X716788Y700250D02*
X717322Y700784D01*
X727535D01*
X428750Y706750D02*
X439288D01*
X406000Y661250D02*
X412000D01*
X420750Y544750D02*
X421000Y544500D01*
Y526750D02*
Y544500D01*
X697000Y530250D02*
X708000D01*
X696250Y563000D02*
Y572500D01*
Y561250D02*
X706000D01*
X664782Y520275D02*
X674225D01*
D46*
X849672Y151007D02*
X851354Y149325D01*
Y137996D02*
Y149325D01*
X845541Y151007D02*
X849672D01*
X891250Y195250D02*
X905754D01*
X906526Y196022D01*
X841041Y220855D02*
X841354Y221168D01*
X125686Y55860D02*
Y67436D01*
X130250Y72000D01*
X135646Y44146D02*
Y53860D01*
X135500Y44000D02*
X135646Y44146D01*
X691134Y117994D02*
Y127366D01*
X446786Y638984D02*
X454336D01*
X945934Y604934D02*
X946000Y605000D01*
X921004Y593264D02*
X940054D01*
X940562Y593772D01*
X946000D01*
X921004Y563264D02*
X939772D01*
X940562Y564054D01*
X845994Y111256D02*
Y118298D01*
X813000Y111500D02*
Y118250D01*
X861314Y101686D02*
Y109234D01*
X890250Y94000D02*
X890500Y94250D01*
X896500D01*
X877824Y106176D02*
Y109234D01*
Y106176D02*
X881000Y103000D01*
X892302Y106448D02*
Y109234D01*
Y106448D02*
X896000Y102750D01*
X906526Y201102D02*
X919052D01*
X922020Y198134D01*
X931634D01*
X836354Y221168D02*
Y230396D01*
X796554Y186196D02*
X803910D01*
X539040Y449000D02*
Y449508D01*
X525000Y443821D02*
X530179Y449000D01*
X539040D01*
X526768Y415982D02*
X532750Y410000D01*
X526768Y415982D02*
Y437732D01*
X525000Y439500D02*
X526768Y437732D01*
X525000Y439500D02*
Y443821D01*
X934132Y721106D02*
X942394D01*
X904064Y740004D02*
X913250D01*
X446024Y758618D02*
Y763524D01*
X365153Y591000D02*
X365910Y591757D01*
X359250Y591000D02*
X365153D01*
X721868Y343632D02*
Y354932D01*
Y343632D02*
X732250Y333250D01*
X754750Y270500D02*
X756000Y269250D01*
X769500D01*
X772668Y266082D01*
Y254348D02*
Y266082D01*
X146398Y414606D02*
X148672D01*
X159008Y404270D01*
X921004Y603264D02*
X938892D01*
X940562Y604934D01*
X812368Y96382D02*
X814328D01*
X803500Y105250D02*
X812368Y96382D01*
X836426Y79364D02*
X838286Y77504D01*
X851041D01*
X210760Y46388D02*
Y46752D01*
Y46388D02*
X213071Y44078D01*
X222368D01*
X239386Y66176D02*
X250476D01*
X250512Y66212D01*
Y66753D01*
X841041Y220855D02*
X841351Y220545D01*
Y205677D02*
Y220545D01*
X130250Y72000D02*
X136000D01*
D47*
X485930Y285320D02*
Y317680D01*
X494750Y326500D01*
X539310Y357560D02*
X541250Y359500D01*
X488414Y357560D02*
X539310D01*
X550180Y359430D02*
Y371567D01*
X544250Y353500D02*
X550180Y359430D01*
X500000Y353500D02*
X544250D01*
X538684Y365434D02*
X539250Y366000D01*
X488414Y365434D02*
X538684D01*
X550250Y374250D02*
X555500Y379500D01*
X490750Y344250D02*
X500000Y353500D01*
X550250Y371637D02*
Y374250D01*
X550180Y371567D02*
X550250Y371637D01*
X485000Y344250D02*
X490750D01*
X318250Y524500D02*
Y525000D01*
X313920Y529330D02*
X318250Y525000D01*
X300818Y529330D02*
X313920D01*
X424634Y271882D02*
X436632D01*
X442500Y277750D01*
Y290750D01*
X438500Y294750D02*
X442500Y290750D01*
X430250Y294750D02*
X438500D01*
X329854Y223854D02*
X362204D01*
X329500Y223500D02*
X329854Y223854D01*
X362204Y233854D02*
X377500D01*
X360466Y505750D02*
X362286Y503930D01*
X339500Y505750D02*
X339750Y506000D01*
X340750D01*
X339500Y505750D02*
X360466D01*
X542770Y417230D02*
Y427918D01*
X568750Y424000D02*
Y427000D01*
X542770Y417230D02*
X544250Y415750D01*
X560500D01*
X568750Y424000D01*
X558772Y427918D02*
Y436114D01*
X559838Y437180D01*
X561746D01*
X561908Y437342D01*
X577658D01*
X537483Y404930D02*
X537527Y404973D01*
X518894Y413856D02*
X527820Y404930D01*
X537483D01*
X343268Y351774D02*
X373226D01*
X424634Y259182D02*
X431932D01*
X447000Y274250D01*
Y295000D01*
X436500Y305500D02*
X447000Y295000D01*
X343268Y377174D02*
X374424D01*
X392000Y394750D01*
X395250D01*
X425750Y401750D02*
X426574Y402574D01*
X443852D01*
X577658Y437342D02*
X581750Y433250D01*
X459250Y334750D02*
Y336250D01*
X456426Y339074D02*
X459250Y336250D01*
X443852Y339074D02*
X456426D01*
X343268Y402574D02*
X358426D01*
X360000Y401000D01*
X486102Y246482D02*
X502232D01*
X507750Y252000D01*
X495500Y280750D02*
X507750Y268500D01*
Y252000D02*
Y268500D01*
X429224Y427974D02*
X443852D01*
X420250Y419000D02*
X429224Y427974D01*
X373226Y351774D02*
X382750Y342250D01*
X430250Y294750D01*
X343268Y364474D02*
X369026D01*
X386000Y347500D01*
Y346000D02*
Y347500D01*
Y346000D02*
X392750Y339250D01*
X426500Y305500D01*
X436500D01*
X430026Y364474D02*
X443852D01*
X420250Y374250D02*
X430026Y364474D01*
X485930Y285320D02*
X490500Y280750D01*
X495500D01*
X555500Y379500D02*
Y403750D01*
D48*
X620890Y549610D02*
X628710Y557430D01*
X692658Y779432D02*
X694932D01*
X416000Y758250D02*
X417168D01*
X426212Y749206D01*
X628710Y557430D02*
X632460D01*
X911860Y118162D02*
X932180D01*
Y127180D01*
X930662Y117820D02*
X939680D01*
X910662Y250320D02*
X919680D01*
X910320Y240320D02*
Y249338D01*
X880320Y249680D02*
X889338D01*
X890320Y240320D02*
Y249338D01*
X521526Y281500D02*
Y301478D01*
X694932Y779432D02*
X697250Y781750D01*
X704500D01*
D49*
X365800Y-60000D02*
D03*
X543600D02*
D03*
X518200D02*
D03*
X492800D02*
D03*
X467400D02*
D03*
X442000D02*
D03*
X416600D02*
D03*
X391200D02*
D03*
X340400D02*
D03*
X841607Y330700D02*
D03*
X912193Y-15000D02*
D03*
X886793D02*
D03*
X903870Y337058D02*
D03*
X878470Y311658D02*
D03*
X903870D02*
D03*
X878470Y286258D02*
D03*
X903870D02*
D03*
X774446Y137922D02*
D03*
Y112522D02*
D03*
X749046Y137922D02*
D03*
Y112522D02*
D03*
X723646Y137922D02*
D03*
X385064D02*
D03*
X410464Y112522D02*
D03*
Y137922D02*
D03*
X435864Y112522D02*
D03*
Y137922D02*
D03*
X291338Y204216D02*
D03*
X265938D02*
D03*
X240538D02*
D03*
X215138D02*
D03*
X189738D02*
D03*
X491900Y13000D02*
D03*
X339500D02*
D03*
X364900D02*
D03*
X390300D02*
D03*
X415700D02*
D03*
X441100D02*
D03*
X466500D02*
D03*
X659168Y917448D02*
D03*
X456892Y964946D02*
D03*
X431492Y990346D02*
D03*
Y964946D02*
D03*
X406092Y990346D02*
D03*
Y964946D02*
D03*
X380692Y990346D02*
D03*
Y964946D02*
D03*
X355292Y990346D02*
D03*
Y964946D02*
D03*
X329892Y990346D02*
D03*
Y964946D02*
D03*
X304492Y990346D02*
D03*
Y964946D02*
D03*
X279092Y990346D02*
D03*
Y964946D02*
D03*
X506930D02*
D03*
Y990346D02*
D03*
X532330Y964946D02*
D03*
Y990346D02*
D03*
X557730Y964946D02*
D03*
Y990346D02*
D03*
X583130Y964946D02*
D03*
Y990346D02*
D03*
X608530Y964946D02*
D03*
Y990346D02*
D03*
X633930Y964946D02*
D03*
Y990346D02*
D03*
X659330Y964946D02*
D03*
Y990346D02*
D03*
X684730Y964946D02*
D03*
X195200Y320150D02*
D03*
X169800Y294750D02*
D03*
X195200D02*
D03*
X169800Y269350D02*
D03*
X195200D02*
D03*
D50*
X315000Y-60000D02*
D03*
X861393Y-15000D02*
D03*
X723646Y112522D02*
D03*
X385064D02*
D03*
X164338Y204216D02*
D03*
X314100Y13000D02*
D03*
X633768Y917448D02*
D03*
X456892Y990346D02*
D03*
X684730D02*
D03*
D51*
X841607Y305300D02*
D03*
X878470Y337058D02*
D03*
X169800Y320150D02*
D03*
D52*
X828000Y-138840D02*
D03*
X872098D02*
D03*
X672098D02*
D03*
X628000D02*
D03*
D53*
X248000Y-78000D02*
D03*
D54*
X200000Y-106000D02*
D03*
Y-48000D02*
D03*
D55*
X845000Y-65000D02*
D03*
X865000D02*
D03*
X855000D02*
D03*
X835000D02*
D03*
X727250Y-165000D02*
D03*
X774962Y-164695D02*
D03*
Y-149636D02*
D03*
X727500Y-150000D02*
D03*
X660000Y55000D02*
D03*
X395000Y-142500D02*
D03*
X560000D02*
D03*
X540000D02*
D03*
X520000D02*
D03*
X500000D02*
D03*
X455000D02*
D03*
X435000D02*
D03*
X415000D02*
D03*
X342500D02*
D03*
X322500D02*
D03*
X302550D02*
D03*
X282500D02*
D03*
X889934Y25274D02*
D03*
X879977D02*
D03*
X869985Y24774D02*
D03*
X860000D02*
D03*
X305308Y-90000D02*
D03*
X959522Y670018D02*
D03*
Y633522D02*
D03*
X960522Y658344D02*
D03*
X961522Y684018D02*
D03*
X307500Y-15000D02*
D03*
X82500Y26541D02*
D03*
X117722Y26927D02*
D03*
X862292Y157008D02*
D03*
X855750Y152000D02*
D03*
X546277Y442272D02*
D03*
X474273Y414020D02*
D03*
X539500Y442000D02*
D03*
X587000Y418239D02*
D03*
X588279Y405520D02*
D03*
X845541Y151007D02*
D03*
X875500Y150250D02*
D03*
X886793Y150007D02*
D03*
X891250Y195250D02*
D03*
X174250Y134250D02*
D03*
X162750Y123250D02*
D03*
X155500Y124500D02*
D03*
X121006Y125006D02*
D03*
X167000Y84250D02*
D03*
X136000Y71750D02*
D03*
X175125Y56875D02*
D03*
X135500Y44000D02*
D03*
X111250Y74000D02*
D03*
X504463Y778891D02*
D03*
X827977Y59250D02*
D03*
X139500Y99500D02*
D03*
X757500Y216750D02*
D03*
X772000Y201000D02*
D03*
X772500Y167000D02*
D03*
X424000Y315000D02*
D03*
X691750Y328000D02*
D03*
X761250Y167500D02*
D03*
X703000Y208750D02*
D03*
X489000Y198000D02*
D03*
X504275Y314515D02*
D03*
X509250Y310000D02*
D03*
X480023Y311265D02*
D03*
X545277Y369518D02*
D03*
X794500Y215500D02*
D03*
X705250Y167750D02*
D03*
X758500Y280750D02*
D03*
X878470Y373780D02*
D03*
X378000Y253250D02*
D03*
X459000Y323750D02*
D03*
X386500Y251500D02*
D03*
X459250Y316500D02*
D03*
X300265Y94255D02*
D03*
X292383Y94500D02*
D03*
X541250Y359500D02*
D03*
X539250Y366000D02*
D03*
X485000Y344250D02*
D03*
X470250Y360500D02*
D03*
X554527Y194259D02*
D03*
X526750Y212000D02*
D03*
X442500Y165500D02*
D03*
X695750Y270000D02*
D03*
X691134Y127366D02*
D03*
X514369Y778891D02*
D03*
X494557Y789051D02*
D03*
X524529D02*
D03*
Y798957D02*
D03*
X514369Y789051D02*
D03*
X524529Y778891D02*
D03*
X534435D02*
D03*
X514369Y798957D02*
D03*
X504463D02*
D03*
X494557D02*
D03*
X544341Y758825D02*
D03*
X534435D02*
D03*
X554501D02*
D03*
X574487D02*
D03*
X534435Y748919D02*
D03*
X852792Y533026D02*
D03*
X846250Y525750D02*
D03*
X901374Y459874D02*
D03*
X784500Y478500D02*
D03*
X936750Y473000D02*
D03*
X764718Y462651D02*
D03*
X722022Y580978D02*
D03*
X764287Y560277D02*
D03*
X300500Y232750D02*
D03*
X311750Y235250D02*
D03*
X900000Y578070D02*
D03*
X525500Y564000D02*
D03*
X601250Y234250D02*
D03*
X605000Y223000D02*
D03*
X841000Y582000D02*
D03*
X748750Y610500D02*
D03*
X764000Y589250D02*
D03*
X832250Y588750D02*
D03*
X823750Y599000D02*
D03*
X608250Y210750D02*
D03*
X886000Y600750D02*
D03*
X743000Y614250D02*
D03*
X848791Y604780D02*
D03*
X649000Y217697D02*
D03*
X647750Y209750D02*
D03*
X904044Y583279D02*
D03*
X907250Y573250D02*
D03*
X623750Y578750D02*
D03*
X634499Y578749D02*
D03*
X845750Y595000D02*
D03*
X711750Y588500D02*
D03*
X767000Y495000D02*
D03*
X574402Y588848D02*
D03*
X761500Y408000D02*
D03*
X908794Y415270D02*
D03*
X906000Y492000D02*
D03*
X480000Y485000D02*
D03*
X474999Y489999D02*
D03*
X479000Y497000D02*
D03*
X470000Y485000D02*
D03*
X782904Y502904D02*
D03*
X902000Y503000D02*
D03*
X484400Y698881D02*
D03*
X474490D02*
D03*
X464331D02*
D03*
X554414Y698968D02*
D03*
X574534Y698928D02*
D03*
Y678848D02*
D03*
X554454Y668848D02*
D03*
X584534Y698928D02*
D03*
X574534Y668848D02*
D03*
X584534Y678848D02*
D03*
X544341Y698881D02*
D03*
X554501Y709041D02*
D03*
X544341Y678895D02*
D03*
X574487Y709041D02*
D03*
X584534Y668848D02*
D03*
X544341Y668895D02*
D03*
X584487Y709041D02*
D03*
X544341D02*
D03*
X534435Y698881D02*
D03*
X554501Y718947D02*
D03*
X554454Y658848D02*
D03*
X594534Y698928D02*
D03*
X534435Y678895D02*
D03*
X574487Y718947D02*
D03*
X574534Y658848D02*
D03*
X594534Y678848D02*
D03*
X534435Y668895D02*
D03*
X584487Y718947D02*
D03*
X584534Y658848D02*
D03*
X594534Y668848D02*
D03*
X534435Y709041D02*
D03*
X544341Y718947D02*
D03*
Y658895D02*
D03*
X594487Y709041D02*
D03*
X524529Y698881D02*
D03*
X554501Y728853D02*
D03*
X524529Y678895D02*
D03*
X574487Y728853D02*
D03*
X554454Y648848D02*
D03*
X604534Y698928D02*
D03*
X574534Y648848D02*
D03*
X604534Y678848D02*
D03*
X534435Y718947D02*
D03*
Y658895D02*
D03*
X594487Y718947D02*
D03*
X594534Y658848D02*
D03*
X524529Y668895D02*
D03*
X584487Y728853D02*
D03*
X524529Y709041D02*
D03*
X544341Y728853D02*
D03*
X584534Y648848D02*
D03*
X604534Y668848D02*
D03*
X544341Y648895D02*
D03*
X604487Y709041D02*
D03*
X524529Y718947D02*
D03*
X534435Y728853D02*
D03*
X524529Y658895D02*
D03*
X594487Y728853D02*
D03*
X534435Y648895D02*
D03*
X604487Y718947D02*
D03*
X594534Y648848D02*
D03*
X604534Y658848D02*
D03*
X554454Y638848D02*
D03*
X614534Y698928D02*
D03*
X574534Y638848D02*
D03*
X614534Y678848D02*
D03*
X514369Y698881D02*
D03*
X554501Y739013D02*
D03*
X514369Y678895D02*
D03*
X574487Y739013D02*
D03*
X584534Y638848D02*
D03*
X614534Y668848D02*
D03*
X544341Y638895D02*
D03*
X614487Y709041D02*
D03*
X514369Y668895D02*
D03*
X584487Y739013D02*
D03*
X514369Y709041D02*
D03*
X544341Y739013D02*
D03*
X524529Y728853D02*
D03*
Y648895D02*
D03*
X604487Y728853D02*
D03*
X604534Y648848D02*
D03*
X534435Y638895D02*
D03*
X614487Y718947D02*
D03*
X594534Y638848D02*
D03*
X614534Y658848D02*
D03*
X534435Y739013D02*
D03*
X514369Y658895D02*
D03*
X594487Y739013D02*
D03*
X504463Y698881D02*
D03*
X554501Y748919D02*
D03*
X504463Y678895D02*
D03*
X574487Y748919D02*
D03*
X554454Y628848D02*
D03*
X624534Y698928D02*
D03*
X574534Y628848D02*
D03*
X624534Y678848D02*
D03*
X524529Y638895D02*
D03*
X614487Y728853D02*
D03*
X504463Y668895D02*
D03*
X584487Y748919D02*
D03*
X504463Y709041D02*
D03*
X544341Y748919D02*
D03*
X514369Y728853D02*
D03*
X524529Y739013D02*
D03*
X584534Y628848D02*
D03*
X624534Y668848D02*
D03*
X604534Y638848D02*
D03*
X614534Y648848D02*
D03*
X544341Y628895D02*
D03*
X624487Y709041D02*
D03*
X514369Y648895D02*
D03*
X604487Y739013D02*
D03*
X504463Y718947D02*
D03*
Y658895D02*
D03*
X594487Y748919D02*
D03*
X534435Y628895D02*
D03*
X624487Y718947D02*
D03*
X594534Y628848D02*
D03*
X624534Y658848D02*
D03*
X614534Y638848D02*
D03*
X514369Y638895D02*
D03*
X614487Y739013D02*
D03*
X514369D02*
D03*
X494557Y698881D02*
D03*
Y678895D02*
D03*
X504463Y728853D02*
D03*
X524529Y628895D02*
D03*
X624487Y728853D02*
D03*
X504463Y648895D02*
D03*
X604487Y748919D02*
D03*
X554454Y618848D02*
D03*
X634534Y698928D02*
D03*
X574534Y618848D02*
D03*
X634534Y678848D02*
D03*
X604534Y628848D02*
D03*
X624534Y648848D02*
D03*
X494557Y668895D02*
D03*
X584487Y758825D02*
D03*
X494557Y709041D02*
D03*
X584534Y618848D02*
D03*
X634534Y668848D02*
D03*
X544341Y618895D02*
D03*
X634487Y709041D02*
D03*
X494557Y718947D02*
D03*
Y658895D02*
D03*
X594487Y758825D02*
D03*
X534435Y618895D02*
D03*
X634487Y718947D02*
D03*
X594534Y618848D02*
D03*
X634534Y658848D02*
D03*
X504463Y638895D02*
D03*
X614487Y748919D02*
D03*
X614534Y628848D02*
D03*
X624534Y638848D02*
D03*
X504463Y739013D02*
D03*
X514369Y748919D02*
D03*
Y628895D02*
D03*
X624487Y739013D02*
D03*
X494557Y728853D02*
D03*
X524529Y758825D02*
D03*
X494557Y648895D02*
D03*
X604487Y758825D02*
D03*
X524529Y618895D02*
D03*
X634487Y728853D02*
D03*
X604534Y618848D02*
D03*
X634534Y648848D02*
D03*
X554454Y608848D02*
D03*
X644534Y698928D02*
D03*
X574534Y608848D02*
D03*
X644534Y678848D02*
D03*
X554501Y768985D02*
D03*
X484397Y678895D02*
D03*
X574487Y768985D02*
D03*
X584534Y608848D02*
D03*
X644534Y668848D02*
D03*
X644487Y709041D02*
D03*
X484397Y668895D02*
D03*
X584487Y768985D02*
D03*
X484397Y709041D02*
D03*
X544341Y768985D02*
D03*
X504463Y748919D02*
D03*
Y628895D02*
D03*
X624487Y748919D02*
D03*
X624534Y628848D02*
D03*
X494557Y638895D02*
D03*
X614487Y758825D02*
D03*
X494557Y739013D02*
D03*
X514369Y758825D02*
D03*
X644487Y718947D02*
D03*
X594534Y608848D02*
D03*
X644534Y658848D02*
D03*
X614534Y618848D02*
D03*
X634534Y638848D02*
D03*
X484397Y718947D02*
D03*
X534435Y768985D02*
D03*
X484397Y658895D02*
D03*
X594487Y768985D02*
D03*
X514369Y618895D02*
D03*
X634487Y739013D02*
D03*
X524529Y608895D02*
D03*
X644487Y728853D02*
D03*
X484397D02*
D03*
X604534Y608848D02*
D03*
X644534Y648848D02*
D03*
X484397Y648895D02*
D03*
X604487Y768985D02*
D03*
X494557Y748919D02*
D03*
X504463Y758825D02*
D03*
X494557Y628895D02*
D03*
X624487Y758825D02*
D03*
X554501Y778891D02*
D03*
X574487D02*
D03*
X654534Y698928D02*
D03*
X574534Y598848D02*
D03*
X654534Y678848D02*
D03*
X504463Y618895D02*
D03*
X634487Y748919D02*
D03*
X624534Y618848D02*
D03*
X634534Y628848D02*
D03*
X474491Y668895D02*
D03*
X584487Y778891D02*
D03*
X474491Y709041D02*
D03*
X544341Y778891D02*
D03*
X584534Y598848D02*
D03*
X654534Y668848D02*
D03*
X654487Y709041D02*
D03*
X614534Y608848D02*
D03*
X644534Y638848D02*
D03*
X484397Y638895D02*
D03*
X614487Y768985D02*
D03*
X514369Y608895D02*
D03*
X644487Y739013D02*
D03*
X484397D02*
D03*
X474491Y718947D02*
D03*
Y658895D02*
D03*
X594487Y778891D02*
D03*
X534435Y598895D02*
D03*
X654487Y718947D02*
D03*
X594534Y598848D02*
D03*
X654534Y658848D02*
D03*
X494557Y758825D02*
D03*
X474491Y728853D02*
D03*
X494557Y618895D02*
D03*
X634487Y758825D02*
D03*
X474491Y648895D02*
D03*
X604487Y778891D02*
D03*
X524529Y598895D02*
D03*
X654487Y728853D02*
D03*
X604534Y598848D02*
D03*
X654534Y648848D02*
D03*
X634534Y618848D02*
D03*
X504463Y608895D02*
D03*
X644487Y748919D02*
D03*
X624534Y608848D02*
D03*
X644534Y628848D02*
D03*
X484397Y748919D02*
D03*
X504463Y768985D02*
D03*
X484397Y628895D02*
D03*
X624487Y768985D02*
D03*
X554454Y588848D02*
D03*
X664534Y698928D02*
D03*
Y678848D02*
D03*
X554501Y789051D02*
D03*
X464331Y678895D02*
D03*
X574487Y789051D02*
D03*
X474491Y638895D02*
D03*
X614487Y778891D02*
D03*
X474491Y739013D02*
D03*
X584534Y588848D02*
D03*
X664534Y668848D02*
D03*
X544341Y588895D02*
D03*
X664487Y709041D02*
D03*
X614534Y598848D02*
D03*
X654534Y638848D02*
D03*
X514369Y598895D02*
D03*
X654487Y739013D02*
D03*
X464331Y668895D02*
D03*
X584487Y789051D02*
D03*
X464331Y709041D02*
D03*
X544341Y789051D02*
D03*
X534435Y588895D02*
D03*
X664487Y718947D02*
D03*
X594534Y588848D02*
D03*
X664534Y658848D02*
D03*
X464331Y718947D02*
D03*
X534435Y789051D02*
D03*
X464331Y658895D02*
D03*
X594487Y789051D02*
D03*
X494557Y608895D02*
D03*
X644487Y758825D02*
D03*
X484397D02*
D03*
X494557Y768985D02*
D03*
X634534Y608848D02*
D03*
X644534Y618848D02*
D03*
X484397Y618895D02*
D03*
X634487Y768985D02*
D03*
X474491Y748919D02*
D03*
Y628895D02*
D03*
X624487Y778891D02*
D03*
X524529Y588895D02*
D03*
X664487Y728853D02*
D03*
X504463Y598895D02*
D03*
X654487Y748919D02*
D03*
X604534Y588848D02*
D03*
X664534Y648848D02*
D03*
X624534Y598848D02*
D03*
X654534Y628848D02*
D03*
X464331Y728853D02*
D03*
Y648895D02*
D03*
X604487Y789051D02*
D03*
X554454Y578848D02*
D03*
X454425Y698881D02*
D03*
X674534Y698928D02*
D03*
X574534Y578848D02*
D03*
X454425Y678895D02*
D03*
X574487Y798957D02*
D03*
X614534Y588848D02*
D03*
X664534Y638848D02*
D03*
X664487Y739013D02*
D03*
X464331Y638895D02*
D03*
X614487Y789051D02*
D03*
X464331Y739013D02*
D03*
X584534Y578848D02*
D03*
X674534Y668848D02*
D03*
X584487Y798957D02*
D03*
X544341Y578895D02*
D03*
X454425Y709041D02*
D03*
X674487D02*
D03*
X644534Y608848D02*
D03*
X484397Y608895D02*
D03*
X644487Y768985D02*
D03*
X484397D02*
D03*
X474491Y758825D02*
D03*
X494557Y778891D02*
D03*
Y598895D02*
D03*
X654487Y758825D02*
D03*
X474491Y618895D02*
D03*
X634487Y778891D02*
D03*
X634534Y598848D02*
D03*
X654534Y618848D02*
D03*
X534435Y578895D02*
D03*
X454425Y718947D02*
D03*
X674487D02*
D03*
X594534Y578848D02*
D03*
X454425Y658895D02*
D03*
X674534Y658848D02*
D03*
X594487Y798957D02*
D03*
X504463Y588895D02*
D03*
X664487Y748919D02*
D03*
X624534Y588848D02*
D03*
X664534Y628848D02*
D03*
X464331Y748919D02*
D03*
X504463Y789051D02*
D03*
X464331Y628895D02*
D03*
X624487Y789051D02*
D03*
X524529Y578895D02*
D03*
X454425Y728853D02*
D03*
X674487D02*
D03*
X604534Y578848D02*
D03*
X454425Y648895D02*
D03*
X604487Y798957D02*
D03*
X474491Y608895D02*
D03*
X644487Y778891D02*
D03*
X474491Y768985D02*
D03*
X484397Y778891D02*
D03*
X644534Y598848D02*
D03*
X654534Y608848D02*
D03*
X484397Y598895D02*
D03*
X654487Y768985D02*
D03*
X614534Y578848D02*
D03*
X454425Y638895D02*
D03*
X674534Y638848D02*
D03*
X614487Y798957D02*
D03*
X514369Y578895D02*
D03*
X454425Y739013D02*
D03*
X674487D02*
D03*
X494557Y588895D02*
D03*
X664487Y758825D02*
D03*
X664534Y618848D02*
D03*
X464331Y758825D02*
D03*
Y618895D02*
D03*
X634487Y789051D02*
D03*
X504463Y578895D02*
D03*
X454425Y748919D02*
D03*
X674487D02*
D03*
X454425Y628895D02*
D03*
X674534Y628848D02*
D03*
X624487Y798957D02*
D03*
X474491Y778891D02*
D03*
Y598895D02*
D03*
X654487Y778891D02*
D03*
X654534Y598848D02*
D03*
X644534Y588848D02*
D03*
X664534Y608848D02*
D03*
X484397Y588895D02*
D03*
X664487Y768985D02*
D03*
X464331Y608895D02*
D03*
X644487Y789051D02*
D03*
X464331Y768985D02*
D03*
X484397Y789051D02*
D03*
X494557Y578895D02*
D03*
X454425Y758825D02*
D03*
X674487D02*
D03*
X454425Y618895D02*
D03*
X674534Y618848D02*
D03*
X634487Y798957D02*
D03*
X474491Y588895D02*
D03*
X664487Y778891D02*
D03*
X654534Y588848D02*
D03*
X664534Y598848D02*
D03*
X464331Y778891D02*
D03*
X474491Y789051D02*
D03*
X464331Y598895D02*
D03*
X654487Y789051D02*
D03*
X644534Y578848D02*
D03*
X454425Y608895D02*
D03*
X674534Y608848D02*
D03*
X644487Y798957D02*
D03*
X454425Y768985D02*
D03*
X674487D02*
D03*
X484397Y798957D02*
D03*
X664534Y588848D02*
D03*
X464331Y588895D02*
D03*
X664487Y789051D02*
D03*
X454425Y778891D02*
D03*
X674487D02*
D03*
X474491Y798957D02*
D03*
X654534Y578848D02*
D03*
X454425Y598895D02*
D03*
X674534Y598848D02*
D03*
X654487Y798957D02*
D03*
X664534Y578848D02*
D03*
X454425Y588895D02*
D03*
X674534Y588848D02*
D03*
X664487Y798957D02*
D03*
X464331Y578895D02*
D03*
X454425Y789051D02*
D03*
X674487D02*
D03*
X464331Y798957D02*
D03*
X454425Y578895D02*
D03*
X674534Y578848D02*
D03*
X674487Y798957D02*
D03*
X554247Y678895D02*
D03*
X464312Y789098D02*
D03*
X564134Y799592D02*
D03*
X554482D02*
D03*
X544576D02*
D03*
X946000Y605000D02*
D03*
Y593772D02*
D03*
X941000Y620000D02*
D03*
X933000Y578000D02*
D03*
X946000Y584000D02*
D03*
X947000Y564000D02*
D03*
X946000Y554000D02*
D03*
Y534000D02*
D03*
Y524000D02*
D03*
Y464000D02*
D03*
X946768Y454232D02*
D03*
X947956Y414956D02*
D03*
X946956Y404956D02*
D03*
X946920Y391080D02*
D03*
X935000Y381000D02*
D03*
X790000Y604000D02*
D03*
X775054Y588946D02*
D03*
X774054Y578946D02*
D03*
X774244Y560244D02*
D03*
X773756Y550244D02*
D03*
X735568Y614568D02*
D03*
X722022Y590978D02*
D03*
X723000Y605000D02*
D03*
X722000Y562000D02*
D03*
X721288Y531288D02*
D03*
Y521288D02*
D03*
X609346Y508654D02*
D03*
X565888Y515112D02*
D03*
X501476Y500524D02*
D03*
X511476D02*
D03*
X397176Y500824D02*
D03*
X312358Y449358D02*
D03*
X313358Y456358D02*
D03*
X313218Y409782D02*
D03*
X297218D02*
D03*
X298218Y419782D02*
D03*
X295500Y385500D02*
D03*
X294176Y367176D02*
D03*
X272078Y330078D02*
D03*
X275500Y320500D02*
D03*
X312230Y323770D02*
D03*
X311230Y313770D02*
D03*
X380000Y194000D02*
D03*
X327000Y393000D02*
D03*
X387000Y193000D02*
D03*
X392000Y214000D02*
D03*
X378000Y216000D02*
D03*
X414000Y193000D02*
D03*
X404702Y207298D02*
D03*
X541862Y152862D02*
D03*
X551862Y153138D02*
D03*
X608410Y153410D02*
D03*
X624000Y159512D02*
D03*
X675290Y219710D02*
D03*
X685840Y236840D02*
D03*
X677926Y230074D02*
D03*
X661566Y292434D02*
D03*
Y302434D02*
D03*
X660384Y351616D02*
D03*
X660616Y361616D02*
D03*
X662854Y411146D02*
D03*
X662854Y401146D02*
D03*
X680800Y878200D02*
D03*
X667004Y890996D02*
D03*
X650428Y884428D02*
D03*
X654000Y828000D02*
D03*
X879236Y603264D02*
D03*
X894160Y591660D02*
D03*
Y581660D02*
D03*
X894542Y550458D02*
D03*
Y560458D02*
D03*
X884236Y533264D02*
D03*
X894874Y449874D02*
D03*
Y459874D02*
D03*
X893980Y406480D02*
D03*
X884392Y393108D02*
D03*
X900000Y513000D02*
D03*
X905000Y519000D02*
D03*
X514369Y588895D02*
D03*
X767000Y518000D02*
D03*
X761000Y523000D02*
D03*
X634534Y588848D02*
D03*
X776000Y505000D02*
D03*
X893000Y495000D02*
D03*
X907998Y498999D02*
D03*
X898000Y477000D02*
D03*
X943000Y503000D02*
D03*
X356000Y204000D02*
D03*
Y211000D02*
D03*
X381000Y314000D02*
D03*
X368000Y213000D02*
D03*
X396000Y295000D02*
D03*
X393000Y285000D02*
D03*
X385000Y289000D02*
D03*
X354000Y273000D02*
D03*
X355000Y229000D02*
D03*
X327000Y198000D02*
D03*
X457000Y459000D02*
D03*
X484397Y578895D02*
D03*
X474491D02*
D03*
X544341Y608895D02*
D03*
X554454Y598848D02*
D03*
X544341Y598895D02*
D03*
X534435Y608895D02*
D03*
X618250Y399750D02*
D03*
X904250Y397750D02*
D03*
X656750Y392000D02*
D03*
X721500Y553750D02*
D03*
X579750Y490250D02*
D03*
X616750Y489500D02*
D03*
X580000Y508250D02*
D03*
X906250Y408750D02*
D03*
X729000Y490000D02*
D03*
X849250Y491250D02*
D03*
X904250Y430000D02*
D03*
X387176Y500824D02*
D03*
X764000Y419000D02*
D03*
X646250Y328000D02*
D03*
X503775Y458772D02*
D03*
X429250Y456000D02*
D03*
X814500Y533750D02*
D03*
X826540Y528526D02*
D03*
X818250Y490750D02*
D03*
X521500Y489000D02*
D03*
X721076Y403924D02*
D03*
X720076Y413924D02*
D03*
X728250Y397000D02*
D03*
X839500Y443250D02*
D03*
X818500Y472250D02*
D03*
X530250Y442000D02*
D03*
X529750Y454000D02*
D03*
X523000Y449000D02*
D03*
X518750Y459500D02*
D03*
X762538Y508646D02*
D03*
X817114Y436570D02*
D03*
X905250Y437250D02*
D03*
X896000Y429000D02*
D03*
X890544Y434750D02*
D03*
X878000Y433240D02*
D03*
X906750Y423000D02*
D03*
X900250Y419250D02*
D03*
X439000Y628750D02*
D03*
X769538Y431021D02*
D03*
X774538Y448522D02*
D03*
Y458522D02*
D03*
X762500Y448500D02*
D03*
X824000Y416000D02*
D03*
X850000Y414500D02*
D03*
X893794Y416270D02*
D03*
X905750Y544500D02*
D03*
X762500Y574250D02*
D03*
X821750Y561000D02*
D03*
X847500Y577250D02*
D03*
X847541Y567528D02*
D03*
X840750Y565500D02*
D03*
X789000Y558000D02*
D03*
X768750Y555250D02*
D03*
X762000Y545750D02*
D03*
X879000Y554250D02*
D03*
X772288Y539026D02*
D03*
X781038Y540776D02*
D03*
X788750Y536500D02*
D03*
X844750Y550750D02*
D03*
X901000Y534500D02*
D03*
X893250D02*
D03*
X539000Y261000D02*
D03*
X537250Y235500D02*
D03*
X572000Y300750D02*
D03*
X673533Y546527D02*
D03*
X668750Y533750D02*
D03*
X665750Y546750D02*
D03*
X670250Y447500D02*
D03*
X669000Y500250D02*
D03*
X661282Y496524D02*
D03*
X577000Y319500D02*
D03*
X616530Y532526D02*
D03*
X649500Y202250D02*
D03*
X774250Y484000D02*
D03*
X697000Y388250D02*
D03*
X667250Y390500D02*
D03*
X720422Y460422D02*
D03*
X721578Y450422D02*
D03*
X721174Y381826D02*
D03*
X497500Y223750D02*
D03*
X880543Y481773D02*
D03*
X848500Y434750D02*
D03*
X833750Y406500D02*
D03*
X771000Y400750D02*
D03*
X788108Y393108D02*
D03*
X817500Y401000D02*
D03*
X648750Y278000D02*
D03*
X789038Y466773D02*
D03*
X828250Y477000D02*
D03*
X672250Y396500D02*
D03*
X533500Y218000D02*
D03*
X513775Y213010D02*
D03*
X905000Y389000D02*
D03*
X604500Y329500D02*
D03*
X619750Y318283D02*
D03*
X729500Y473500D02*
D03*
X734500Y468750D02*
D03*
X763250Y438750D02*
D03*
X537000Y254000D02*
D03*
X769000Y479500D02*
D03*
X762283Y481750D02*
D03*
X885043Y509525D02*
D03*
X825540D02*
D03*
X786038D02*
D03*
X907750Y467750D02*
D03*
X905750Y485250D02*
D03*
X938854Y488104D02*
D03*
X891500Y523500D02*
D03*
X446250Y457750D02*
D03*
X719500Y434250D02*
D03*
X620000Y416000D02*
D03*
X695250Y434750D02*
D03*
X783000Y373250D02*
D03*
X522000Y235500D02*
D03*
X543500Y248000D02*
D03*
X389750Y361750D02*
D03*
X381250Y376500D02*
D03*
X328000Y302000D02*
D03*
X882250Y498750D02*
D03*
X831750Y440500D02*
D03*
X702284Y422521D02*
D03*
X845994Y111256D02*
D03*
X813000Y111500D02*
D03*
X861314Y101686D02*
D03*
X895250Y94250D02*
D03*
X881000Y103000D02*
D03*
X896000Y102750D02*
D03*
X912918Y136332D02*
D03*
X931634Y198134D02*
D03*
X922500Y215000D02*
D03*
X932180Y127180D02*
D03*
X939680Y117820D02*
D03*
X919680Y250320D02*
D03*
X910320Y240320D02*
D03*
X880320Y249680D02*
D03*
X890320Y240320D02*
D03*
X830060Y238440D02*
D03*
X836354Y230396D02*
D03*
X797250Y196196D02*
D03*
X796554Y186196D02*
D03*
X835464Y181036D02*
D03*
X795780Y165970D02*
D03*
X796000Y155970D02*
D03*
X810500Y149000D02*
D03*
X742250Y167000D02*
D03*
X300000Y56750D02*
D03*
X320000Y56250D02*
D03*
X128750Y273750D02*
D03*
X128500Y317500D02*
D03*
X130000Y230500D02*
D03*
X126250Y211750D02*
D03*
X266000Y245500D02*
D03*
X518160Y125590D02*
D03*
X360000Y158250D02*
D03*
X163750Y92500D02*
D03*
Y100500D02*
D03*
X198892Y36892D02*
D03*
X207500Y76976D02*
D03*
X215000Y92250D02*
D03*
X206250Y112282D02*
D03*
X223250Y113750D02*
D03*
X206864Y123364D02*
D03*
X65716Y140716D02*
D03*
X77734Y131766D02*
D03*
X76210Y62040D02*
D03*
X85640Y68860D02*
D03*
X125000Y28000D02*
D03*
X135750Y28500D02*
D03*
X537250Y119750D02*
D03*
X190692Y149192D02*
D03*
X273512Y174262D02*
D03*
X172250Y45000D02*
D03*
X171700Y30000D02*
D03*
X149408Y35908D02*
D03*
X127172Y157828D02*
D03*
X180096Y150596D02*
D03*
X264500Y164000D02*
D03*
X206386Y133364D02*
D03*
X806958Y807250D02*
D03*
X922078Y846328D02*
D03*
X735000Y952500D02*
D03*
Y900000D02*
D03*
Y880000D02*
D03*
Y827500D02*
D03*
X775000Y787500D02*
D03*
X822500D02*
D03*
X850000D02*
D03*
X900000D02*
D03*
X940000Y827500D02*
D03*
X939546Y926476D02*
D03*
X900000Y992500D02*
D03*
X850000D02*
D03*
X825000D02*
D03*
X775000D02*
D03*
X765000Y962500D02*
D03*
X800000D02*
D03*
X832500D02*
D03*
X765000Y935000D02*
D03*
X800000D02*
D03*
X832500D02*
D03*
X765000Y907500D02*
D03*
X800000D02*
D03*
X765000Y815000D02*
D03*
X870000Y832500D02*
D03*
X920000Y812500D02*
D03*
X922500Y962500D02*
D03*
X940000Y952500D02*
D03*
Y900000D02*
D03*
Y880000D02*
D03*
X870000Y962500D02*
D03*
X705000Y912500D02*
D03*
Y880000D02*
D03*
X702500Y925000D02*
D03*
X702500Y982500D02*
D03*
X707500Y963388D02*
D03*
X715000Y852500D02*
D03*
Y840000D02*
D03*
X242500Y807500D02*
D03*
X247000Y847000D02*
D03*
X272000D02*
D03*
X275000Y781000D02*
D03*
X268312Y718312D02*
D03*
X281940Y714310D02*
D03*
X260500Y749000D02*
D03*
X353750Y816250D02*
D03*
X301694Y763444D02*
D03*
X315806Y763444D02*
D03*
X302000Y773000D02*
D03*
X371250Y717500D02*
D03*
X316000Y731000D02*
D03*
X207500Y625750D02*
D03*
X232250Y636250D02*
D03*
X236178Y650822D02*
D03*
X186750Y636250D02*
D03*
X204500Y649000D02*
D03*
X303000Y730750D02*
D03*
X234366Y620693D02*
D03*
X120900Y501650D02*
D03*
X148336Y484086D02*
D03*
X136106Y433606D02*
D03*
X144750Y406250D02*
D03*
X162178Y412322D02*
D03*
X134250Y404500D02*
D03*
X94250Y454250D02*
D03*
X298022Y637250D02*
D03*
X325750Y781000D02*
D03*
X323500Y773750D02*
D03*
X519709Y817857D02*
D03*
X534670Y799258D02*
D03*
X524510Y748872D02*
D03*
X514604Y718900D02*
D03*
X474552Y678942D02*
D03*
X454486Y668782D02*
D03*
X688750Y649000D02*
D03*
X221500Y488500D02*
D03*
X216800Y415450D02*
D03*
X201250Y404000D02*
D03*
X380750Y509750D02*
D03*
X401250Y516750D02*
D03*
X380500Y491230D02*
D03*
X318230D02*
D03*
X318250Y524500D02*
D03*
X268386Y522114D02*
D03*
X269402Y497348D02*
D03*
X420250Y288250D02*
D03*
X500000Y294750D02*
D03*
X329750Y223250D02*
D03*
X377500Y233750D02*
D03*
X532750Y409750D02*
D03*
X245850Y428150D02*
D03*
X767250Y290750D02*
D03*
X766750Y319750D02*
D03*
X709250Y336250D02*
D03*
X930522Y684022D02*
D03*
Y658272D02*
D03*
X931272Y633272D02*
D03*
X794000Y87000D02*
D03*
X942394Y721106D02*
D03*
X913250Y740000D02*
D03*
X837041Y710535D02*
D03*
X704500Y991250D02*
D03*
X760500Y832750D02*
D03*
X717750Y653500D02*
D03*
X714098Y668098D02*
D03*
X720500Y675750D02*
D03*
X696750Y688890D02*
D03*
X445522Y603779D02*
D03*
X369750Y612250D02*
D03*
X514750Y768750D02*
D03*
X524500Y768750D02*
D03*
X564500Y669250D02*
D03*
X884500Y643750D02*
D03*
X446024Y763524D02*
D03*
X341500Y676500D02*
D03*
X683000Y677750D02*
D03*
X684750Y689750D02*
D03*
X524500Y163750D02*
D03*
X650250Y376566D02*
D03*
X618500Y363750D02*
D03*
X529500Y196750D02*
D03*
X180250Y176500D02*
D03*
X268013Y415520D02*
D03*
X318500Y439750D02*
D03*
X321750Y426750D02*
D03*
X269500Y428000D02*
D03*
X268250Y442250D02*
D03*
X320000Y370000D02*
D03*
X601250Y195000D02*
D03*
X614500Y246000D02*
D03*
X620030Y215760D02*
D03*
X150500Y149000D02*
D03*
X380500Y414000D02*
D03*
X245750Y387000D02*
D03*
X381000Y405500D02*
D03*
X252750Y379750D02*
D03*
X395500Y48000D02*
D03*
X716750Y392750D02*
D03*
X661750Y382000D02*
D03*
X692750Y484250D02*
D03*
X317500Y516250D02*
D03*
X359250Y591000D02*
D03*
X502500Y209000D02*
D03*
X395750Y429000D02*
D03*
X501525Y410020D02*
D03*
X509750Y410000D02*
D03*
X390250Y434000D02*
D03*
X381269Y438521D02*
D03*
X479023Y438771D02*
D03*
X317265Y387519D02*
D03*
X327500Y586500D02*
D03*
X340750Y506000D02*
D03*
X324766Y489524D02*
D03*
X329000Y472750D02*
D03*
X269000Y486750D02*
D03*
X394000Y454250D02*
D03*
X506500Y404000D02*
D03*
X619000Y423000D02*
D03*
X490750Y428750D02*
D03*
X779500Y84000D02*
D03*
X835250Y626750D02*
D03*
X843500Y691250D02*
D03*
X881750Y665750D02*
D03*
X732250Y333250D02*
D03*
X754750Y270500D02*
D03*
X777250Y396250D02*
D03*
X747250Y339250D02*
D03*
X707750Y272250D02*
D03*
X692250Y634250D02*
D03*
X693750Y613250D02*
D03*
X459750Y141250D02*
D03*
X419000Y80750D02*
D03*
X473523Y97255D02*
D03*
X469250Y87000D02*
D03*
X458000Y101000D02*
D03*
X447272Y87254D02*
D03*
X434500Y87500D02*
D03*
X446250Y99250D02*
D03*
X593500Y416250D02*
D03*
X568750Y427000D02*
D03*
X544026Y406270D02*
D03*
X559750Y442000D02*
D03*
X561000Y449000D02*
D03*
X537527Y404973D02*
D03*
X257750Y295750D02*
D03*
X258000Y313000D02*
D03*
X315000Y305000D02*
D03*
X326000Y291000D02*
D03*
X277000Y306750D02*
D03*
X445500Y242250D02*
D03*
X264750Y265250D02*
D03*
X395250Y394750D02*
D03*
X425750Y401750D02*
D03*
X392250Y402000D02*
D03*
X379820Y426213D02*
D03*
X396500Y422250D02*
D03*
X581750Y433250D02*
D03*
X555500Y403750D02*
D03*
X459250Y334750D02*
D03*
X663136Y448430D02*
D03*
X221000Y267500D02*
D03*
X782750Y40000D02*
D03*
X168250Y375250D02*
D03*
X822000Y31500D02*
D03*
X425000Y391500D02*
D03*
X360000Y401000D02*
D03*
X460000Y418750D02*
D03*
X480500Y301750D02*
D03*
X502250Y266750D02*
D03*
X420250Y419000D02*
D03*
X382750Y342250D02*
D03*
X418500Y406500D02*
D03*
X617250Y448750D02*
D03*
X392750Y339250D02*
D03*
X421500Y384250D02*
D03*
X420250Y374250D02*
D03*
X618500Y372500D02*
D03*
X648000Y443500D02*
D03*
X645531Y420250D02*
D03*
X614500Y343000D02*
D03*
X619750Y356000D02*
D03*
X653500Y335250D02*
D03*
X906000Y145250D02*
D03*
X735386Y238250D02*
D03*
X756000Y336250D02*
D03*
X769000Y374250D02*
D03*
X739500Y371750D02*
D03*
X759968Y241750D02*
D03*
X801250Y297500D02*
D03*
X823468Y320032D02*
D03*
X696750Y337750D02*
D03*
X682648Y308102D02*
D03*
X711000Y319750D02*
D03*
X716250Y297500D02*
D03*
X730500Y298000D02*
D03*
X714250Y370750D02*
D03*
X573000Y214000D02*
D03*
X568250Y219250D02*
D03*
X560500Y221500D02*
D03*
X519000Y208500D02*
D03*
X779750Y75500D02*
D03*
X862250Y200750D02*
D03*
X694250Y280250D02*
D03*
X854000Y197750D02*
D03*
X846000Y200500D02*
D03*
X931084Y174334D02*
D03*
X938000Y151250D02*
D03*
X619250Y236000D02*
D03*
X579750Y293500D02*
D03*
X577778Y285514D02*
D03*
X589000Y260500D02*
D03*
X594750Y267250D02*
D03*
X582750Y281294D02*
D03*
X268763Y80254D02*
D03*
X494750Y326500D02*
D03*
X537000Y372750D02*
D03*
X527750Y373000D02*
D03*
X519250D02*
D03*
X510500Y372750D02*
D03*
X555000Y369500D02*
D03*
X560000Y364250D02*
D03*
X240000Y92000D02*
D03*
X302765Y194760D02*
D03*
X104982Y527000D02*
D03*
X136984Y445516D02*
D03*
X864000Y643250D02*
D03*
X598250Y273500D02*
D03*
X481000Y196500D02*
D03*
X691750Y175750D02*
D03*
X672500Y416000D02*
D03*
X702250Y887500D02*
D03*
X701448Y894198D02*
D03*
X701250Y900750D02*
D03*
X295950Y453550D02*
D03*
X658000Y212750D02*
D03*
X702250Y823500D02*
D03*
X159008Y404270D02*
D03*
X675500Y356750D02*
D03*
X775038Y406270D02*
D03*
X775726Y417274D02*
D03*
X788500Y437500D02*
D03*
X378750Y165750D02*
D03*
X423750Y450250D02*
D03*
X108500Y358750D02*
D03*
X772908Y860908D02*
D03*
X320688Y160750D02*
D03*
X317288Y167750D02*
D03*
X165792Y113750D02*
D03*
X770486Y769206D02*
D03*
X812074Y772250D02*
D03*
X642791Y257852D02*
D03*
X646532Y263763D02*
D03*
X803500Y105250D02*
D03*
X851041Y77504D02*
D03*
X210760Y46752D02*
D03*
X250512Y66753D02*
D03*
X881354Y152862D02*
D03*
X841351Y205677D02*
D03*
X842297Y190849D02*
D03*
X771731Y156058D02*
D03*
X125162Y22533D02*
D03*
X791716Y196229D02*
D03*
X610000Y84750D02*
D03*
X610000Y20000D02*
D03*
X595000Y55000D02*
D03*
D56*
X117458Y417472D02*
D03*
Y423472D02*
D03*
Y429472D02*
D03*
X111458Y429472D02*
D03*
Y423472D02*
D03*
Y417472D02*
D03*
X99458Y417472D02*
D03*
Y423472D02*
D03*
Y429472D02*
D03*
X105458Y429472D02*
D03*
Y423472D02*
D03*
Y417472D02*
D03*
X357584Y759056D02*
D03*
Y753056D02*
D03*
Y747056D02*
D03*
X363584Y747056D02*
D03*
Y753056D02*
D03*
Y759056D02*
D03*
X351584Y759056D02*
D03*
Y753056D02*
D03*
Y747056D02*
D03*
X345584Y747056D02*
D03*
Y753056D02*
D03*
Y759056D02*
D03*
X235092Y544552D02*
D03*
Y550552D02*
D03*
Y556552D02*
D03*
X229092Y556552D02*
D03*
Y550552D02*
D03*
Y544552D02*
D03*
X241092Y544552D02*
D03*
Y550552D02*
D03*
Y556552D02*
D03*
X247092Y556552D02*
D03*
Y550552D02*
D03*
Y544552D02*
D03*
X235092Y562552D02*
D03*
Y568552D02*
D03*
Y574552D02*
D03*
X229092Y574552D02*
D03*
Y568552D02*
D03*
Y562552D02*
D03*
X241092Y562552D02*
D03*
Y568552D02*
D03*
Y574552D02*
D03*
X247092Y574552D02*
D03*
Y568552D02*
D03*
Y562552D02*
D03*
X292342Y598302D02*
D03*
Y604302D02*
D03*
X286342Y604302D02*
D03*
Y598302D02*
D03*
X298342Y598302D02*
D03*
Y604302D02*
D03*
X304342Y604302D02*
D03*
Y598302D02*
D03*
X247092Y580552D02*
D03*
Y586552D02*
D03*
Y592552D02*
D03*
X241092Y592552D02*
D03*
Y586552D02*
D03*
Y580552D02*
D03*
X229092Y580552D02*
D03*
Y586552D02*
D03*
Y592552D02*
D03*
X235092Y592552D02*
D03*
Y586552D02*
D03*
Y580552D02*
D03*
M02*
