M48
;Layer_Color=9474304
;FILE_FORMAT=4:4
METRIC,LZ
;TYPE=PLATED
T1F00S00C0.2500
T2F00S00C0.5000
T4F00S00C1.0000
%
T01
X00835Y-00065
X00845
X00855
X00865
X00869985Y00024774
X0086
X00879977Y00025274
X00889934
X00822Y000315
X00827977Y0005925
X00851041Y00077504
X00861314Y00101686
X00881Y00103
X00896Y0010275
X0089525Y0009425
X00912918Y00136332
X00906Y0014525
X0093218Y0012718
X0093968Y0011782
X00845994Y00111256
X00813Y001115
X008035Y0010525
X00794Y00087
X007795Y00084
X0077975Y000755
X0078275Y0004
X0066Y00055
X00595
X0061Y0008475
X0061Y0002
X0053725Y0011975
X0051816Y0012559
X00473523Y00097255
X0046925Y00087
X00447272Y00087254
X0044625Y0009925
X00458Y00101
X004345Y000875
X00419Y0008075
X003955Y00048
X0045975Y0014125
X00691134Y00127366
X007275Y-0015
X0072725Y-00165
X00774962Y-00164695
Y-00149636
X0056Y-001425
X0054
X0052
X005
X00455
X00435
X00415
X00395
X003425
X003225
X0030255
X002825
X00305308Y-0009
X003075Y-00015
X003Y0005675
X0032Y0005625
X00300265Y00094255
X00292383Y000945
X00268763Y00080254
X00250512Y00066753
X0024Y00092
X00215Y0009225
X002075Y00076976
X0021076Y00046752
X00198892Y00036892
X001717Y0003
X0017225Y00045
X00175125Y00056875
X00167Y0008425
X0016375Y000925
Y001005
X00165792Y0011375
X0016275Y0012325
X001555Y001245
X0017425Y0013425
X00206386Y00133364
X00206864Y00123364
X0020625Y00112282
X0022325Y0011375
X001395Y000995
X00136Y0007175
X0011125Y00074
X0008564Y0006886
X0007621Y0006204
X000825Y00026541
X00117722Y00026927
X00125Y00028
X00125162Y00022533
X0013575Y000285
X001355Y00044
X00149408Y00035908
X00121006Y00125006
X00077734Y00131766
X00065716Y00140716
X00127172Y00157828
X001505Y00149
X00180096Y00150596
X00190692Y00149192
X0018025Y001765
X0012625Y0021175
X0013Y002305
X0012875Y0027375
X001285Y003175
X001085Y0035875
X00111458Y00417472
Y00423472
Y00429472
X00117458Y00429472
Y00423472
Y00417472
X00105458Y00417472
Y00423472
Y00429472
X00099458Y00429472
Y00423472
Y00417472
X0009425Y0045425
X00136984Y00445516
X00136106Y00433606
X0013425Y004045
X0014475Y0040625
X00159008Y0040427
X00162178Y00412322
X0016825Y0037525
X0020125Y00404
X002168Y0041545
X0024585Y0042815
X002695Y00428
X00268013Y0041552
X0026825Y0044225
X0029595Y0045355
X00313358Y00456358
X00312358Y00449358
X003185Y0043975
X0032175Y0042675
X00313218Y00409782
X00297218
X00298218Y00419782
X002955Y003855
X00294176Y00367176
X0032Y0037
X00317265Y00387519
X00327Y00393
X0036Y00401
X00381Y004055
X003805Y00414
X0037982Y00426213
X00381269Y00438521
X003805Y0049123
X0038075Y0050975
X0034075Y00506
X00324766Y00489524
X0031823Y0049123
X003175Y0051625
X0031825Y005245
X00268386Y00522114
X00269402Y00497348
X00269Y0048675
X002215Y004885
X00229092Y00544552
X00235092Y00544552
X00241092Y00544552
X00247092Y00544552
X00329Y0047275
X0038125Y003765
X00381Y00314
X00378Y0025325
X003775Y0023375
X00378Y00216
X00368Y00213
X00356Y00211
Y00204
X00355Y00229
X0032975Y0022325
X00327Y00198
X00302765Y0019476
X003005Y0023275
X0031175Y0023525
X00266Y002455
X0026475Y0026525
X0025775Y0029575
X00258Y00313
X002755Y003205
X00272078Y00330078
X00277Y0030675
X00315Y00305
X0031123Y0031377
X0031223Y0032377
X00328Y00302
X00326Y00291
X00354Y00273
X0038Y00194
X0037875Y0016575
X0036Y0015825
X00320688Y0016075
X00317288Y0016775
X00273512Y00174262
X002645Y00164
X00221Y002675
X0025275Y0037975
X0024575Y00387
X00148336Y00484086
X001209Y0050165
X00104982Y00527
X0040125Y0051675
X00397176Y00500824
X00387176
X00394Y0045425
X0039025Y00434
X0039575Y00429
X003965Y0042225
X0039225Y00402
X0039525Y0039475
X00425Y003915
X004215Y0038425
X0042025Y0037425
X0042575Y0040175
X004185Y004065
X0042025Y00419
X0042375Y0045025
X0042925Y00456
X0044625Y0045775
X00457Y00459
X0047Y00485
X00474999Y00489999
X0048Y00485
X00479Y00497
X00501476Y00500524
X00511476
X005215Y00489
X0051875Y004595
X00523Y00449
X0052975Y00454
X0053025Y00442
X005395Y00442
X00546277Y00442272
X0055975Y00442
X00561Y00449
X0056875Y00427
X0058175Y0043325
X00587Y00418239
X005935Y0041625
X00588279Y0040552
X005555Y0040375
X00544026Y0040627
X00537527Y00404973
X0053275Y0040975
X0050975Y0041
X00501525Y0041002
X005065Y00404
X005105Y0037275
X0051925Y00373
X0052775
X00537Y0037275
X0053925Y00366
X0054125Y003595
X00545277Y00369518
X00555Y003695
X0056Y0036425
X006185Y0036375
Y003725
X0061975Y00356
X006145Y00343
X006045Y003295
X0061975Y00318283
X0064625Y00328
X006535Y0033525
X00660384Y00351616
X00660616Y00361616
X006755Y0035675
X0066175Y00382
X0066725Y003905
X0067225Y003965
X00662854Y00401146
X00662854Y00411146
X006725Y00416
X00645531Y0042025
X00648Y004435
X00663136Y0044843
X0067025Y004475
X0069525Y0043475
X00702284Y00422521
X00720076Y00413924
X00721076Y00403924
X0072825Y00397
X0071675Y0039275
X00721174Y00381826
X0071425Y0037075
X007395Y0037175
X00769Y0037425
X00771Y0040075
X00775038Y0040627
X00775726Y00417274
X00764Y00419
X007615Y00408
X0077725Y0039625
X00769538Y00431021
X0076325Y0043875
X007625Y004485
X00774538Y00448522
Y00458522
X00764718Y00462651
X00769Y004795
X00762283Y0048175
X0077425Y00484
X00767Y00495
X00762538Y00508646
X00767Y00518
X00761Y00523
X00772288Y00539026
X00776Y00505
X00729Y0049
X007295Y004735
X007345Y0046875
X00720422Y00460422
X00721578Y00450422
X007195Y0043425
X00697Y0038825
X0065675Y00392
X0065025Y00376566
X0061825Y0039975
X0062Y00416
X00619Y00423
X0061725Y0044875
X0061675Y004895
X00609346Y00508654
X0058Y0050825
X0057975Y0049025
X00565888Y00515112
X0061653Y00532526
X0066875Y0053375
X00669Y0050025
X00661282Y00496524
X0069275Y0048425
X00721288Y00521288
Y00531288
X0070925Y0033625
X0069675Y0033775
X0069175Y00328
X00711Y0031975
X0071625Y002975
X007305Y00298
X0073225Y0033325
X0074725Y0033925
X00756Y0033625
X0076675Y0031975
X0076725Y0029075
X007585Y0028075
X0075475Y002705
X00759968Y0024175
X007575Y0021675
X00772Y00201
X007725Y00167
X00771731Y00156058
X0076125Y001675
X0074225Y00167
X0070525Y0016775
X0069175Y0017575
X00703Y0020875
X0067529Y0021971
X00677926Y00230074
X0068584Y0023684
X0069575Y0027
X0069425Y0028025
X0070775Y0027225
X00682648Y00308102
X00661566Y00302434
Y00292434
X0064875Y00278
X00646532Y00263763
X00642791Y00257852
X006145Y00246
X0061925Y00236
X0060125Y0023425
X00605Y00223
X0060825Y0021075
X0062003Y0021576
X00649Y00217697
X0064775Y0020975
X006495Y0020225
X00658Y0021275
X0060125Y00195
X00573Y00214
X0056825Y0021925
X005605Y002215
X005335Y00218
X0052675Y00212
X00519Y002085
X00513775Y0021301
X005025Y00209
X004975Y0022375
X00489Y00198
X00481Y001965
X005295Y0019675
X00554527Y00194259
X00551862Y00153138
X00541862Y00152862
X005245Y0016375
X00522Y002355
X0053725
X00537Y00254
X00539Y00261
X005435Y00248
X00589Y002605
X0059475Y0026725
X0059825Y002735
X0058275Y00281294
X00577778Y00285514
X0057975Y002935
X00572Y0030075
X00577Y003195
X0050925Y0031
X00504275Y00314515
X0049475Y003265
X00485Y0034425
X0047025Y003605
X0045925Y0033475
X00459Y0032375
X0045925Y003165
X00480023Y00311265
X004805Y0030175
X005Y0029475
X0050225Y0026675
X004455Y0024225
X003865Y002515
X00385Y00289
X00393Y00285
X00396Y00295
X0042025Y0028825
X00424Y00315
X0039275Y0033925
X0038275Y0034225
X0038975Y0036175
X0046Y0041875
X00474273Y0041402
X00479023Y00438771
X0049075Y0042875
X00503775Y00458772
X00404702Y00207298
X00392Y00214
X00387Y00193
X00414
X004425Y001655
X0060841Y0015341
X00624Y00159512
X00735386Y0023825
X007945Y002155
X0079725Y00196196
X00791716Y00196229
X00796554Y00186196
X0079578Y0016597
X00796Y0015597
X008105Y00149
X00845541Y00151007
X0085575Y00152
X00862292Y00157008
X008755Y0015025
X00881354Y00152862
X00886793Y00150007
X0089125Y0019525
X0086225Y0020075
X00854Y0019775
X00846Y002005
X00841351Y00205677
X00842297Y00190849
X00835464Y00181036
X00836354Y00230396
X0083006Y0023844
X0088032Y0024968
X0089032Y0024032
X0091032
X0091968Y0025032
X009225Y00215
X00931634Y00198134
X00931084Y00174334
X00938Y0015125
X00935Y00381
X0094692Y0039108
X00946956Y00404956
X00947956Y00414956
X00908794Y0041527
X0090625Y0040875
X0090425Y0039775
X00905Y00389
X00884392Y00393108
X0089398Y0040648
X00893794Y0041627
X0090025Y0041925
X0090675Y00423
X0090425Y0043
X0090525Y0043725
X00890544Y0043475
X00896Y00429
X00894874Y00449874
Y00459874
X00901374Y00459874
X0090775Y0046775
X00898Y00477
X0090575Y0048525
X00906Y00492
X00907998Y00498999
X00902Y00503
X009Y00513
X00905Y00519
X008915Y005235
X0089325Y005345
X00901
X0090575Y005445
X00884236Y00533264
X00885043Y00509525
X0088225Y0049875
X00893Y00495
X00880543Y00481773
X0084925Y0049125
X0081825Y0049075
X008185Y0047225
X0082825Y00477
X0082554Y00509525
X0082654Y00528526
X008145Y0053375
X0078875Y005365
X00781038Y00540776
X00786038Y00509525
X00782904Y00502904
X007845Y004785
X00789038Y00466773
X007885Y004375
X00817114Y0043657
X0083175Y004405
X008395Y0044325
X008485Y0043475
X0085Y004145
X0083375Y004065
X00824Y00416
X008175Y00401
X00788108Y00393108
X00783Y0037325
X00823468Y00320032
X0080125Y002975
X0087847Y0037378
X00878Y0043324
X00946768Y00454232
X00946Y00464
X0093675Y00473
X00938854Y00488104
X00943Y00503
X00946Y00524
Y00534
X00852792Y00533026
X0084625Y0052575
X0084475Y0055075
X0084075Y005655
X00847541Y00567528
X008475Y0057725
X00841Y00582
X0083225Y0058875
X0082375Y00599
X0084575Y00595
X00848791Y0060478
X00879236Y00603264
X00886Y0060075
X0089416Y0059166
Y0058166
X009Y0057807
X00904044Y00583279
X0090725Y0057325
X00894542Y00560458
Y00550458
X00879Y0055425
X0082175Y00561
X00789Y00558
X0079Y00604
X0083525Y0062675
X00864Y0064325
X008845Y0064375
X0088175Y0066575
X00930522Y00658272
X00931272Y00633272
X00941Y0062
X00946Y00605
Y00593772
Y00584
X00933Y00578
X00947Y00564
X00946Y00554
X00959522Y00633522
X00960522Y00658344
X00959522Y00670018
X00961522Y00684018
X00930522Y00684022
X00942394Y00721106
X0091325Y0074
X009Y007875
X0092Y008125
X0094Y008275
X00922078Y00846328
X0094Y0088
Y009
X00939546Y00926476
X008325Y00935
X008
Y009075
X00806958Y0080725
X008225Y007875
X00812074Y0077225
X0085Y007875
X0087Y008325
X00837041Y00710535
X008435Y0069125
X007205Y0067575
X00714098Y00668098
X0071775Y006535
X0068875Y00649
X0069225Y0063425
X00674534Y00638848
Y00628848
X00664534
X00654534
Y00638848
X00664534
Y00648848
X00654534
X00644534
X00634534
X00624534
X00614534
X00604534
X00594534
Y00658848
X00584534
Y00668848
X00574534
Y00678848
X00584534
X00594534
Y00668848
X00604534
Y00678848
X00614534
X00624534
Y00668848
X00614534
Y00658848
X00624534
X00634534
Y00668848
Y00678848
X00644534
Y00668848
Y00658848
X00654534
X00664534
Y00668848
X00654534
Y00678848
X00664534
X00683Y0067775
X0068475Y0068975
X0069675Y0068889
X00674534Y00698928
X00664534
X00654534
X00644534
X00634534
X00624534
X00614534
X00604534
X00594534
X00584534
X00574534
X00574487Y00709041
Y00718947
Y00728853
X00584487
Y00718947
Y00709041
X00594487
Y00718947
Y00728853
X00604487
Y00718947
Y00709041
X00614487
Y00718947
Y00728853
X00624487
Y00718947
Y00709041
X00634487
Y00718947
Y00728853
X00644487
Y00718947
Y00709041
X00654487
Y00718947
Y00728853
X00664487
Y00718947
Y00709041
X00674487
Y00718947
Y00728853
Y00739013
Y00748919
Y00758825
X00664487
Y00748919
Y00739013
X00654487
Y00748919
Y00758825
X00644487
Y00748919
Y00739013
X00634487
Y00748919
Y00758825
X00624487
Y00748919
Y00739013
X00614487
Y00748919
Y00758825
X00604487
Y00748919
Y00739013
X00594487
Y00748919
Y00758825
X00584487
Y00748919
Y00739013
X00574487
Y00748919
Y00758825
Y00768985
Y00778891
X00584487
Y00768985
X00594487
Y00778891
X00604487
Y00768985
X00614487
Y00778891
X00624487
Y00768985
X00634487
Y00778891
X00644487
Y00768985
X00654487
Y00778891
X00664487
Y00768985
X00674487
Y00778891
Y00789051
Y00798957
X00664487
Y00789051
X00654487
Y00798957
X00644487
Y00789051
X00634487
Y00798957
X00624487
Y00789051
X00614487
Y00798957
X00604487
Y00789051
X00594487
Y00798957
X00584487
Y00789051
X00574487
Y00798957
X00564134Y00799592
X00554482
X00544576
X0053467Y00799258
X00524529Y00798957
Y00789051
X00534435
X00544341
Y00778891
X00534435
X00524529
X00514369
X00504463
Y00768985
X00494557
Y00778891
Y00789051
Y00798957
X00504463
X00514369
Y00789051
X00504463
X00484397
X00474491
Y00798957
X00484397
Y00778891
Y00768985
X00474491
Y00778891
X00464331
Y00768985
X00454425
Y00778891
Y00789051
X00464312Y00789098
X00464331Y00798957
Y00758825
Y00748919
Y00739013
X00454425
Y00748919
Y00758825
X00446024Y00763524
X00474491Y00758825
X00484397
Y00748919
Y00739013
X00474491
Y00748919
X00494557
X00504463
Y00739013
X00514369
Y00748919
Y00758825
X00504463
X00494557
Y00739013
Y00728853
X00504463
X00514369
X00524529
Y00718947
X00534435
Y00709041
X00544341
Y00718947
Y00728853
X00534435
Y00739013
Y00748919
Y00758825
X00544341
Y00748919
Y00739013
X00554501
Y00748919
Y00758825
Y00768985
Y00778891
Y00789051
X00544341Y00768985
X00534435
X005245Y0076875
X0051475Y0076875
X00524529Y00758825
X0052451Y00748872
X00524529Y00739013
Y00709041
Y00698881
X00534435
X00544341
X00554414Y00698968
X00554501Y00709041
Y00718947
Y00728853
X00514604Y007189
X00514369Y00709041
X00504463
Y00718947
X00494557
Y00709041
Y00698881
X00504463
X00514369
Y00678895
X00504463
X00494557
Y00668895
X00504463
X00514369
Y00658895
X00504463
X00494557
Y00648895
X00504463
X00514369
Y00638895
X00504463
X00494557
Y00628895
X00504463
X00514369
Y00618895
X00504463
X00494557
Y00608895
X00504463
X00514369
Y00598895
X00504463
X00494557
Y00588895
X00504463
X00514369
Y00578895
X00504463
X00494557
X00484397
X00474491
Y00588895
X00484397
Y00598895
X00474491
Y00608895
X00484397
Y00618895
X00474491
Y00628895
X00484397
Y00638895
X00474491
Y00648895
X00484397
Y00658895
X00474491
Y00668895
X00484397
Y00678895
X00474552Y00678942
X00464331Y00678895
X00454425
X00454486Y00668782
X00454425Y00658895
X00464331
Y00668895
Y00648895
X00454425
Y00638895
X00464331
Y00628895
X00454425
Y00618895
X00464331
Y00608895
X00454425
Y00598895
X00464331
Y00588895
X00454425
Y00578895
X00464331
X00445522Y00603779
X00439Y0062875
X00454425Y00698881
X00464331
X0047449
X004844
X00484397Y00709041
Y00718947
Y00728853
X00474491
Y00718947
Y00709041
X00464331
Y00718947
Y00728853
X00454425
Y00718947
Y00709041
X00524529Y00678895
X00534435
X00544341
X00554247
X00554454Y00668848
Y00658848
Y00648848
Y00638848
Y00628848
Y00618848
Y00608848
Y00598848
Y00588848
Y00578848
X00544341Y00578895
X00534435
X00524529
Y00588895
X00534435
X00544341
Y00598895
X00534435
X00524529
Y00608895
X00534435
X00544341
Y00618895
X00534435
X00524529
Y00628895
X00534435
X00544341
Y00638895
X00534435
X00524529
Y00648895
X00534435
X00544341
Y00658895
X00534435
X00524529
Y00668895
X00534435
X00544341
X005645Y0066925
X00574534Y00658848
Y00648848
X00584534
Y00638848
Y00628848
X00574534
Y00638848
Y00618848
X00584534
X00594534
Y00628848
Y00638848
X00604534
Y00628848
X00614534
Y00638848
X00624534
Y00628848
Y00618848
X00614534
X00604534
Y00608848
X00594534
X00584534
X00574534
Y00598848
X00584534
Y00588848
X00594534
Y00598848
X00604534
Y00588848
X00614534
Y00598848
X00624534
Y00588848
X00634534
Y00598848
Y00608848
Y00618848
Y00628848
Y00638848
X00644534
Y00628848
Y00618848
Y00608848
Y00598848
Y00588848
X00654534
Y00598848
X00664534
Y00588848
Y00578848
X00654534
X00644534
X00634499Y00578749
X0062375Y0057875
X00614534Y00578848
X00604534
X00594534
X00584534
X00574534
X00574402Y00588848
X00614534Y00608848
X00624534
X00654534
X00664534
Y00618848
X00654534
X00674534
Y00608848
Y00598848
Y00588848
Y00578848
X00673533Y00546527
X0066575Y0054675
X007215Y0055375
X00722Y00562
X00722022Y00580978
Y00590978
X0071175Y005885
X00723Y00605
X00735568Y00614568
X00743Y0061425
X0074875Y006105
X00764Y0058925
X00775054Y00588946
X00774054Y00578946
X007625Y0057425
X00764287Y00560277
X0076875Y0055525
X00773756Y00550244
X00774244Y00560244
X00762Y0054575
X0069375Y0061325
X00674534Y00658848
Y00668848
X00604534Y00658848
X005255Y00564
X00519709Y00817857
X00654Y00828
X0070225Y008235
X00715Y0084
Y008525
X00705Y0088
X0070225Y008875
X00701448Y00894198
X0070125Y0090075
X00705Y009125
X007025Y00925
X00735Y009
Y0088
Y008275
X007605Y0083275
X00765Y00815
X00775Y007875
X00770486Y00769206
X00772908Y00860908
X00765Y009075
Y00935
X006808Y008782
X00667004Y00890996
X00650428Y00884428
X0035375Y0081625
X00351584Y00759056
Y00753056
Y00747056
X00345584Y00747056
Y00753056
Y00759056
X00357584Y00759056
Y00753056
Y00747056
X00363584Y00747056
Y00753056
Y00759056
X0037125Y007175
X00316Y00731
X00303Y0073075
X00301694Y00763444
X00302Y00773
X003235Y0077375
X0032575Y00781
X00315806Y00763444
X00275Y00781
X002605Y00749
X00268312Y00718312
X0028194Y0071431
X00298022Y0063725
X00298342Y00604302
Y00598302
X00304342Y00598302
Y00604302
X00292342Y00604302
Y00598302
X00286342Y00598302
Y00604302
X00247092Y00592552
Y00586552
Y00580552
X00241092Y00580552
Y00586552
Y00592552
X00235092Y00592552
Y00586552
Y00580552
X00229092Y00580552
Y00586552
Y00592552
X00229092Y00574552
Y00568552
Y00562552
X00235092Y00562552
Y00568552
Y00574552
X00241092Y00574552
Y00568552
Y00562552
X00247092Y00562552
Y00568552
Y00574552
Y00556552
Y00550552
X00241092Y00550552
Y00556552
X00235092Y00556552
Y00550552
X00229092Y00550552
Y00556552
X00234366Y00620693
X0023225Y0063625
X00236178Y00650822
X002045Y00649
X002075Y0062575
X0018675Y0063625
X003275Y005865
X0035925Y00591
X0036975Y0061225
X003415Y006765
X002425Y008075
X00247Y00847
X00272
X007075Y00963388
X007025Y009825
X007045Y0099125
X00735Y009525
X00765Y009625
X00775Y009925
X00825
X0085
X008325Y009625
X008
X0087
X009225
X0094Y009525
X009Y009925
T02
X008066Y-00150678
X00805Y-00095364
X0085Y-0008
X00894874Y-00095
X00895Y-0015
X0086425Y0005075
X00923Y00062
X007485Y0008475
X00694884Y-0009
X00665Y-0009
X00605Y-00094136
X006066Y-00149636
X00575Y-00168
X004875Y-001675
X0047
X00694884Y-0015
X0048275Y00085
X004845Y001335
X004705
X0039425Y00074024
X002685Y0008975
X0027Y-00168
X003575Y-001675
X0037982
X0025275Y00169
X002975Y002445
X0029725Y00287
X00248Y00455
Y0047
Y00499
Y00514
X0034425Y00524
X00329Y0054
X00365Y00542
X000515Y0053725
X00041Y00421
X000415Y004015
X00072
Y00421
X0009625Y0034575
X0010575Y00336
X0010625Y0032525
X000965Y0031725
X000775Y001705
X0052125Y002815
X0055225Y0030175
X00557Y00527
X005775Y0052725
X00601Y00528
X00632Y005265
X00650532Y00527026
X00664782Y00520275
X006795Y005165
X006975
X00708Y0053025
X00533Y0053725
X00513Y00538
X004765Y005135
X004355Y005135
X00435938Y00524921
X00421Y0052675
X004105Y005445
X00789Y00666
X00805Y0066575
X008035Y00699
X00804Y007305
X0078975Y0073025
X0077925Y00747
X008145Y0074625
X0074825Y0074525
X00743Y00733
X007275Y0072025
X00727535Y00700784
X0070375Y0069975
Y007195
X007035Y0073825
X00704Y00755
X0071275Y0077225
X007045Y0078175
X0069275Y0080925
X0068125Y008145
X0064175Y0081475
X0062875Y0082675
X00609Y008265
X00593Y008145
X0059275Y0084025
X0061Y0085575
X00622Y008685
X006495Y0086925
X0064025Y0084325
X0055325Y0084
X0054025Y008305
Y008575
X00511Y0086825
X0049725Y0086075
X00487Y0087325
X0047175Y008735
X0046125Y008595
X0045125Y00867001
X004375Y0087525
X004095Y00875
X0039525Y008645
X0042075Y0080975
X00438
X0043825Y0078175
X0043725Y00768
X00422Y0078175
X0040375Y00792
X00399Y00766
X0038775
X003875Y0075425
X0039875Y0075375
X00416Y0075825
X004245Y0072675
X0042875Y0070675
X0041825Y00696
X00428Y00681
X0042875Y00661
X004035Y0066375
X004035Y00681
X0039Y0064825
X0039025Y0062075
X0041475Y0062025
X00415Y0064075
X004205Y0058925
X00436
X0044675Y00566
X0046425Y005455
X004845Y0055
X0055775Y0055075
X00578028Y00551027
X0062075Y0055075
X0061225Y0056125
X00666Y00561
X006855Y0057175
X0069625Y005725
X00706Y0056125
X00705Y0064675
X007275Y00643
X0073825Y006305
X0075325
X0076325Y00643
X0076275Y0067375
X007525Y006855
X0073875
X0072725Y006695
X0069425Y0067675
X00779Y0068825
X0074875Y00768
X005535Y0081525
X004865Y0081625
X004725
X0046025Y008165
X0046075Y008315
X00511Y0084125
X0050925Y0089175
X00523Y00892
X004995Y0090275
X0049925Y0091725
X0050925Y00928
X00523Y0092775
X0057475Y0092825
X00588
X0059825Y0091775
X005985Y00902
X005885Y008915
X0057425Y0089175
X004425Y0094
X0044Y0073725
X0039825Y00728
X0038775Y0072825
X00354Y00652
X00341
X00315
X003155Y0063475
X0031525Y00825
X00246178Y00820928
X0025525Y0079
X001825Y00795
X001725
X001625
X001525
X001425
X001325
X001225
X001125
X001025
X000925
X000825
X000725
Y008075
X000825
X000925
X001025
X001125
X001225
X001325
X001425
X001525
X001625
X001725
X001825
Y0082
X001725
X001625
X001525
X001425
X001325
X001225
X001125
X001025
X000925
X000825
X000725
Y007825
X000825
X000925
X001025
X001125
X001225
X001325
X001425
X001525
X001625
X001725
X001825
Y0077
X001725
X001625
X001525
X001425
X001325
X001225
X001125
X001025
X000925
X000825
X000725
Y007575
X000825
X000925
X001025
X001125
X001225
X001325
X001425
X001525
X001625
X001725
X001825
Y00745
X001725
X001625
X001525
X001425
X001325
X001225
X001125
X001025
X000925
X000825
X000725
X00138Y00696
X00121Y00679
Y00665
X00051Y00616
Y00603
X00065Y00589
X00078
X00077Y00567
X00064
X00051Y00549
X0008Y008702
Y00885146
Y0089945
Y00914396
Y0092945
X00095Y0092925
Y00914196
Y0089925
Y00884946
Y0087
X0024275Y008825
Y008985
Y009335
X0032Y0094
X0037
X0024275Y009485
Y009835
Y009985
X00095Y00974196
Y0095925
Y00944196
X0008Y00944396
Y0095945
Y00974396
T04
X00861393Y-00015
X00886793
X00912193
X00774446Y00112522
Y00137922
X00749046
Y00112522
X00723646
Y00137922
X00435864
X00410464
X00385064
Y00112522
X00410464
X00435864
X004411Y00013
X004157
X003903
X003912Y-0006
X004166
X00442
X004674
X004928
X005182
X005436
X004919Y00013
X004665
X003649
X003395
X003141
X00315Y-0006
X003404
X003658
X00291338Y00204216
X00265938
X00240538
X00215138
X00189738
X00164338
X001698Y0026935
Y0029475
Y0032015
X001952
Y0029475
Y0026935
X00841607Y003053
Y003307
X0087847Y00337058
X0090387
Y00311658
X0087847
Y00286258
X0090387
X00659168Y00917448
X00633768
X00380692Y00964946
Y00990346
X00355292
Y00964946
X00329892
Y00990346
X00304492
Y00964946
X00279092
Y00990346
X00406092
X00431492
X00456892
Y00964946
X00431492
X00406092
X0050693
Y00990346
X0053233
Y00964946
X0055773
Y00990346
X0058313
Y00964946
X0060853
Y00990346
X0063393
Y00964946
X0065933
Y00990346
X0068473
Y00964946
M30
