G04 Layer_Physical_Order=7*
G04 Layer_Color=8388736*
%FSLAX44Y44*%
%MOMM*%
G71*
G01*
G75*
%ADD49C,1.5000*%
%ADD57C,1.0000*%
G04:AMPARAMS|DCode=58|XSize=2mm|YSize=2mm|CornerRadius=0mm|HoleSize=0mm|Usage=FLASHONLY|Rotation=0.000|XOffset=0mm|YOffset=0mm|HoleType=Round|Shape=Relief|Width=0.5mm|Gap=0.25mm|Entries=4|*
%AMTHD58*
7,0,0,2.0000,1.5000,0.5000,45*
%
%ADD58THD58*%
%ADD59C,1.6000*%
%AMTHOVALD60*
21,1,2.4000,1.8000,0,0,90.0*
1,1,1.8000,0.0000,-1.2000*
1,1,1.8000,0.0000,1.2000*
21,0,2.4000,1.3000,0,0,90.0*
1,0,1.3000,0.0000,-1.2000*
1,0,1.3000,0.0000,1.2000*
4,0,4,0.1768,-1.0232,0.8132,-1.6596,0.4596,-2.0132,-0.1768,-1.3768,0.1768,-1.0232,0.0*
4,0,4,0.1768,1.3768,-0.4596,2.0132,-0.8132,1.6596,-0.1768,1.0232,0.1768,1.3768,0.0*
4,0,4,0.1768,-1.3768,-0.4596,-2.0132,-0.8132,-1.6596,-0.1768,-1.0232,0.1768,-1.3768,0.0*
4,0,4,0.1768,1.0232,0.8132,1.6596,0.4596,2.0132,-0.1768,1.3768,0.1768,1.0232,0.0*
%
%ADD60THOVALD60*%

%AMTHOVALD61*
21,1,2.4000,1.8000,0,0,180.0*
1,1,1.8000,1.2000,0.0000*
1,1,1.8000,-1.2000,0.0000*
21,0,2.4000,1.3000,0,0,180.0*
1,0,1.3000,1.2000,0.0000*
1,0,1.3000,-1.2000,0.0000*
4,0,4,1.0232,0.1768,1.6596,0.8132,2.0132,0.4596,1.3768,-0.1768,1.0232,0.1768,0.0*
4,0,4,-1.3768,0.1768,-2.0132,-0.4596,-1.6596,-0.8132,-1.0232,-0.1768,-1.3768,0.1768,0.0*
4,0,4,1.3768,0.1768,2.0132,-0.4596,1.6596,-0.8132,1.0232,-0.1768,1.3768,0.1768,0.0*
4,0,4,-1.0232,0.1768,-1.6596,0.8132,-2.0132,0.4596,-1.3768,-0.1768,-1.0232,0.1768,0.0*
%
%ADD61THOVALD61*%

%ADD62O,3.7000X1.3000*%
%ADD63C,0.7500*%
%ADD64C,1.0000*%
D49*
X365800Y-60000D02*
D03*
X518200D02*
D03*
X492800D02*
D03*
X467400D02*
D03*
X442000D02*
D03*
X416600D02*
D03*
X391200D02*
D03*
X340400D02*
D03*
X315000D02*
D03*
X841607Y330700D02*
D03*
X886793Y-15000D02*
D03*
X861393D02*
D03*
X878470Y337058D02*
D03*
X903870D02*
D03*
X878470Y311658D02*
D03*
X903870D02*
D03*
X878470Y286258D02*
D03*
X774446Y137922D02*
D03*
Y112522D02*
D03*
X749046Y137922D02*
D03*
Y112522D02*
D03*
X723646Y137922D02*
D03*
X385064D02*
D03*
X410464Y112522D02*
D03*
Y137922D02*
D03*
X435864Y112522D02*
D03*
Y137922D02*
D03*
X291338Y204216D02*
D03*
X265938D02*
D03*
X240538D02*
D03*
X189738D02*
D03*
X164338D02*
D03*
X314100Y13000D02*
D03*
X339500D02*
D03*
X364900D02*
D03*
X390300D02*
D03*
X415700D02*
D03*
X659168Y917448D02*
D03*
X633768D02*
D03*
X456892Y990346D02*
D03*
Y964946D02*
D03*
X431492Y990346D02*
D03*
Y964946D02*
D03*
X380692Y990346D02*
D03*
Y964946D02*
D03*
X355292Y990346D02*
D03*
Y964946D02*
D03*
X304492Y990346D02*
D03*
Y964946D02*
D03*
X279092Y990346D02*
D03*
Y964946D02*
D03*
X506930D02*
D03*
Y990346D02*
D03*
X532330Y964946D02*
D03*
Y990346D02*
D03*
X583130Y964946D02*
D03*
Y990346D02*
D03*
X608530Y964946D02*
D03*
Y990346D02*
D03*
X659330Y964946D02*
D03*
Y990346D02*
D03*
X684730Y964946D02*
D03*
Y990346D02*
D03*
X169800Y320150D02*
D03*
X195200D02*
D03*
X169800Y294750D02*
D03*
X195200D02*
D03*
X169800Y269350D02*
D03*
X195200D02*
D03*
D57*
X51000Y-184000D02*
X986000D01*
X21000Y-154000D02*
X51000Y-184000D01*
X21000Y-154000D02*
Y844000D01*
Y872000D01*
X21000Y986000D01*
X51000Y1016000D01*
X141000D01*
X161000Y1036000D01*
X221000D01*
X241000Y1016000D01*
X796000D01*
X816000Y1036000D01*
X876000Y1036000D01*
X896000Y1016000D01*
X986000D01*
X1016000Y986000D01*
X1016000Y872000D02*
X1016000Y986000D01*
X1016000Y844000D02*
Y872000D01*
Y844000D02*
X1016000Y-154000D01*
X986000Y-184000D02*
X1016000Y-154000D01*
D58*
X543600Y-60000D02*
D03*
X841607Y305300D02*
D03*
X912193Y-15000D02*
D03*
X903870Y286258D02*
D03*
X723646Y112522D02*
D03*
X385064D02*
D03*
X215138Y204216D02*
D03*
X491900Y13000D02*
D03*
X441100D02*
D03*
X466500D02*
D03*
X406092Y990346D02*
D03*
Y964946D02*
D03*
X329892Y990346D02*
D03*
Y964946D02*
D03*
X557730D02*
D03*
Y990346D02*
D03*
X633930Y964946D02*
D03*
Y990346D02*
D03*
D59*
X828000Y-138840D02*
D03*
X872098D02*
D03*
X672098D02*
D03*
X628000D02*
D03*
D60*
X248000Y-78000D02*
D03*
D61*
X200000Y-106000D02*
D03*
D62*
Y-48000D02*
D03*
D63*
X845000Y-65000D02*
D03*
X865000D02*
D03*
X855000D02*
D03*
X835000D02*
D03*
X727250Y-165000D02*
D03*
X774962Y-164695D02*
D03*
Y-149636D02*
D03*
X727500Y-150000D02*
D03*
X395000Y-142500D02*
D03*
X560000D02*
D03*
X540000D02*
D03*
X520000D02*
D03*
X500000D02*
D03*
X455000D02*
D03*
X435000D02*
D03*
X415000D02*
D03*
X342500D02*
D03*
X322500D02*
D03*
X302550D02*
D03*
X282500D02*
D03*
X889934Y25274D02*
D03*
X879977D02*
D03*
X869985Y24774D02*
D03*
X860000D02*
D03*
X959522Y670018D02*
D03*
Y633522D02*
D03*
X960522Y658344D02*
D03*
X961522Y684018D02*
D03*
X862292Y157008D02*
D03*
X855750Y152000D02*
D03*
X546277Y442272D02*
D03*
X474273Y414020D02*
D03*
X539500Y442000D02*
D03*
X587000Y418239D02*
D03*
X588279Y405520D02*
D03*
X174250Y134250D02*
D03*
X162750Y123250D02*
D03*
X155500Y124500D02*
D03*
X136000Y71750D02*
D03*
X175125Y56875D02*
D03*
X504463Y778891D02*
D03*
X827977Y59250D02*
D03*
X139500Y99500D02*
D03*
X757500Y216750D02*
D03*
X772000Y201000D02*
D03*
X772500Y167000D02*
D03*
X424000Y315000D02*
D03*
X691750Y328000D02*
D03*
X761250Y167500D02*
D03*
X703000Y208750D02*
D03*
X489000Y198000D02*
D03*
X504275Y314515D02*
D03*
X509250Y310000D02*
D03*
X480023Y311265D02*
D03*
X545277Y369518D02*
D03*
X705250Y167750D02*
D03*
X758500Y280750D02*
D03*
X878470Y373780D02*
D03*
X378000Y253250D02*
D03*
X459000Y323750D02*
D03*
X386500Y251500D02*
D03*
X459250Y316500D02*
D03*
X300265Y94255D02*
D03*
X292383Y94500D02*
D03*
X541250Y359500D02*
D03*
X539250Y366000D02*
D03*
X485000Y344250D02*
D03*
X470250Y360500D02*
D03*
X554527Y194259D02*
D03*
X526750Y212000D02*
D03*
X442500Y165500D02*
D03*
X695750Y270000D02*
D03*
X494557Y789051D02*
D03*
X524529D02*
D03*
Y798957D02*
D03*
X514369Y789051D02*
D03*
X524529Y778891D02*
D03*
X534435D02*
D03*
X514369Y798957D02*
D03*
X504463D02*
D03*
X494557D02*
D03*
X544341Y758825D02*
D03*
X534435D02*
D03*
Y748919D02*
D03*
X852792Y533026D02*
D03*
X846250Y525750D02*
D03*
X901374Y459874D02*
D03*
X784500Y478500D02*
D03*
X936750Y473000D02*
D03*
X764718Y462651D02*
D03*
X764287Y560277D02*
D03*
X300500Y232750D02*
D03*
X311750Y235250D02*
D03*
X900000Y578070D02*
D03*
X601250Y234250D02*
D03*
X605000Y223000D02*
D03*
X841000Y582000D02*
D03*
X748750Y610500D02*
D03*
X764000Y589250D02*
D03*
X832250Y588750D02*
D03*
X823750Y599000D02*
D03*
X608250Y210750D02*
D03*
X886000Y600750D02*
D03*
X743000Y614250D02*
D03*
X848791Y604780D02*
D03*
X649000Y217697D02*
D03*
X647750Y209750D02*
D03*
X904044Y583279D02*
D03*
X907250Y573250D02*
D03*
X623750Y578750D02*
D03*
X634499Y578749D02*
D03*
X845750Y595000D02*
D03*
X711750Y588500D02*
D03*
X767000Y495000D02*
D03*
X574402Y588848D02*
D03*
X761500Y408000D02*
D03*
X908794Y415270D02*
D03*
X906000Y492000D02*
D03*
X480000Y485000D02*
D03*
X474999Y489999D02*
D03*
X479000Y497000D02*
D03*
X470000Y485000D02*
D03*
X782904Y502904D02*
D03*
X902000Y503000D02*
D03*
X484400Y698881D02*
D03*
X474490D02*
D03*
X464331D02*
D03*
X554414Y698968D02*
D03*
X574534Y698928D02*
D03*
X554454Y668848D02*
D03*
X584534Y698928D02*
D03*
X574534Y668848D02*
D03*
X544341Y698881D02*
D03*
X554501Y709041D02*
D03*
X544341Y678895D02*
D03*
Y668895D02*
D03*
X584487Y709041D02*
D03*
X544341D02*
D03*
X534435Y698881D02*
D03*
X554454Y658848D02*
D03*
X534435Y678895D02*
D03*
X574487Y718947D02*
D03*
X594534Y678848D02*
D03*
X534435Y668895D02*
D03*
X584534Y658848D02*
D03*
X534435Y709041D02*
D03*
X544341Y718947D02*
D03*
X524529Y698881D02*
D03*
X554501Y728853D02*
D03*
X574534Y648848D02*
D03*
X604534Y678848D02*
D03*
X534435Y718947D02*
D03*
Y658895D02*
D03*
X594487Y718947D02*
D03*
X524529Y668895D02*
D03*
X584487Y728853D02*
D03*
X544341D02*
D03*
Y648895D02*
D03*
X604487Y709041D02*
D03*
X524529Y718947D02*
D03*
X534435Y728853D02*
D03*
X524529Y658895D02*
D03*
X534435Y648895D02*
D03*
X594534Y648848D02*
D03*
X604534Y658848D02*
D03*
X554454Y638848D02*
D03*
X614534Y698928D02*
D03*
X514369Y698881D02*
D03*
Y678895D02*
D03*
X574487Y739013D02*
D03*
X584534Y638848D02*
D03*
X614534Y668848D02*
D03*
X544341Y638895D02*
D03*
X514369Y709041D02*
D03*
X544341Y739013D02*
D03*
X524529Y728853D02*
D03*
Y648895D02*
D03*
X604487Y728853D02*
D03*
X534435Y638895D02*
D03*
X614487Y718947D02*
D03*
X514369Y658895D02*
D03*
X504463Y698881D02*
D03*
X554501Y748919D02*
D03*
X504463Y678895D02*
D03*
X554454Y628848D02*
D03*
X624534Y698928D02*
D03*
X574534Y628848D02*
D03*
X624534Y678848D02*
D03*
X524529Y638895D02*
D03*
X504463Y668895D02*
D03*
X584487Y748919D02*
D03*
X504463Y709041D02*
D03*
X544341Y748919D02*
D03*
X514369Y728853D02*
D03*
X524529Y739013D02*
D03*
X584534Y628848D02*
D03*
X604534Y638848D02*
D03*
X614534Y648848D02*
D03*
X544341Y628895D02*
D03*
X624487Y709041D02*
D03*
X514369Y648895D02*
D03*
X504463Y718947D02*
D03*
Y658895D02*
D03*
X594487Y748919D02*
D03*
X624487Y718947D02*
D03*
X594534Y628848D02*
D03*
X624534Y658848D02*
D03*
X514369Y638895D02*
D03*
Y739013D02*
D03*
X494557Y678895D02*
D03*
X504463Y728853D02*
D03*
X524529Y628895D02*
D03*
X624487Y728853D02*
D03*
X504463Y648895D02*
D03*
X604487Y748919D02*
D03*
X554454Y618848D02*
D03*
X634534Y698928D02*
D03*
X604534Y628848D02*
D03*
X624534Y648848D02*
D03*
X584487Y758825D02*
D03*
X494557Y709041D02*
D03*
X584534Y618848D02*
D03*
X634534Y668848D02*
D03*
X544341Y618895D02*
D03*
X494557Y658895D02*
D03*
X534435Y618895D02*
D03*
X634487Y718947D02*
D03*
X634534Y658848D02*
D03*
X614487Y748919D02*
D03*
X614534Y628848D02*
D03*
X624534Y638848D02*
D03*
X504463Y739013D02*
D03*
X514369Y748919D02*
D03*
Y628895D02*
D03*
X494557Y728853D02*
D03*
X524529Y758825D02*
D03*
X494557Y648895D02*
D03*
X604487Y758825D02*
D03*
X524529Y618895D02*
D03*
X634487Y728853D02*
D03*
X634534Y648848D02*
D03*
X554454Y608848D02*
D03*
X644534Y698928D02*
D03*
X574534Y608848D02*
D03*
X644534Y678848D02*
D03*
X574487Y768985D02*
D03*
X584534Y608848D02*
D03*
X644534Y668848D02*
D03*
X644487Y709041D02*
D03*
X484397Y668895D02*
D03*
X584487Y768985D02*
D03*
X484397Y709041D02*
D03*
X504463Y628895D02*
D03*
X624487Y748919D02*
D03*
X624534Y628848D02*
D03*
X494557Y638895D02*
D03*
Y739013D02*
D03*
X514369Y758825D02*
D03*
X644487Y718947D02*
D03*
X594534Y608848D02*
D03*
X644534Y658848D02*
D03*
X634534Y638848D02*
D03*
X484397Y718947D02*
D03*
X534435Y768985D02*
D03*
X484397Y658895D02*
D03*
X594487Y768985D02*
D03*
X514369Y618895D02*
D03*
X524529Y608895D02*
D03*
X644487Y728853D02*
D03*
X484397D02*
D03*
X644534Y648848D02*
D03*
X484397Y648895D02*
D03*
X494557Y748919D02*
D03*
X504463Y758825D02*
D03*
X494557Y628895D02*
D03*
X624487Y758825D02*
D03*
X574487Y778891D02*
D03*
X654534Y698928D02*
D03*
X574534Y598848D02*
D03*
X654534Y678848D02*
D03*
X624534Y618848D02*
D03*
X634534Y628848D02*
D03*
X474491Y668895D02*
D03*
Y709041D02*
D03*
X544341Y778891D02*
D03*
X584534Y598848D02*
D03*
X654534Y668848D02*
D03*
X654487Y709041D02*
D03*
X614534Y608848D02*
D03*
X644534Y638848D02*
D03*
X484397Y638895D02*
D03*
X614487Y768985D02*
D03*
X514369Y608895D02*
D03*
X644487Y739013D02*
D03*
X484397D02*
D03*
X474491Y718947D02*
D03*
Y658895D02*
D03*
X594487Y778891D02*
D03*
X534435Y598895D02*
D03*
X654487Y718947D02*
D03*
X594534Y598848D02*
D03*
X494557Y758825D02*
D03*
X474491Y728853D02*
D03*
X494557Y618895D02*
D03*
X604487Y778891D02*
D03*
X654487Y728853D02*
D03*
X604534Y598848D02*
D03*
X654534Y648848D02*
D03*
X634534Y618848D02*
D03*
X504463Y608895D02*
D03*
X644487Y748919D02*
D03*
X624534Y608848D02*
D03*
X484397Y748919D02*
D03*
X504463Y768985D02*
D03*
X484397Y628895D02*
D03*
X624487Y768985D02*
D03*
X664534Y678848D02*
D03*
X464331Y678895D02*
D03*
X574487Y789051D02*
D03*
X474491Y638895D02*
D03*
X614487Y778891D02*
D03*
X474491Y739013D02*
D03*
X584534Y588848D02*
D03*
X664534Y668848D02*
D03*
X544341Y588895D02*
D03*
X664487Y709041D02*
D03*
X614534Y598848D02*
D03*
X654534Y638848D02*
D03*
X514369Y598895D02*
D03*
X654487Y739013D02*
D03*
X464331Y668895D02*
D03*
X584487Y789051D02*
D03*
X464331Y709041D02*
D03*
X544341Y789051D02*
D03*
X534435Y588895D02*
D03*
X664487Y718947D02*
D03*
X594534Y588848D02*
D03*
X664534Y658848D02*
D03*
X464331Y718947D02*
D03*
X534435Y789051D02*
D03*
X464331Y658895D02*
D03*
X594487Y789051D02*
D03*
X484397Y758825D02*
D03*
X494557Y768985D02*
D03*
X634534Y608848D02*
D03*
X644534Y618848D02*
D03*
X634487Y768985D02*
D03*
X474491Y748919D02*
D03*
Y628895D02*
D03*
X524529Y588895D02*
D03*
X664487Y728853D02*
D03*
X504463Y598895D02*
D03*
X654487Y748919D02*
D03*
X604534Y588848D02*
D03*
X664534Y648848D02*
D03*
X624534Y598848D02*
D03*
X654534Y628848D02*
D03*
X464331Y648895D02*
D03*
X604487Y789051D02*
D03*
X554454Y578848D02*
D03*
X674534Y698928D02*
D03*
X574534Y578848D02*
D03*
X454425Y678895D02*
D03*
X614534Y588848D02*
D03*
X664534Y638848D02*
D03*
X664487Y739013D02*
D03*
X464331Y638895D02*
D03*
X614487Y789051D02*
D03*
X464331Y739013D02*
D03*
X584534Y578848D02*
D03*
X674534Y668848D02*
D03*
X584487Y798957D02*
D03*
X544341Y578895D02*
D03*
X454425Y709041D02*
D03*
X674487D02*
D03*
X644534Y608848D02*
D03*
X484397Y608895D02*
D03*
X494557Y778891D02*
D03*
Y598895D02*
D03*
X654487Y758825D02*
D03*
X474491Y618895D02*
D03*
X634487Y778891D02*
D03*
X654534Y618848D02*
D03*
X534435Y578895D02*
D03*
X454425Y718947D02*
D03*
X674487D02*
D03*
X454425Y658895D02*
D03*
X674534Y658848D02*
D03*
X504463Y588895D02*
D03*
X664487Y748919D02*
D03*
X624534Y588848D02*
D03*
X664534Y628848D02*
D03*
X464331Y748919D02*
D03*
X504463Y789051D02*
D03*
X464331Y628895D02*
D03*
X624487Y789051D02*
D03*
X524529Y578895D02*
D03*
X454425Y728853D02*
D03*
X604534Y578848D02*
D03*
X454425Y648895D02*
D03*
X604487Y798957D02*
D03*
X474491Y608895D02*
D03*
X644487Y778891D02*
D03*
X474491Y768985D02*
D03*
X484397Y778891D02*
D03*
X644534Y598848D02*
D03*
X654534Y608848D02*
D03*
X614534Y578848D02*
D03*
X454425Y638895D02*
D03*
X674534Y638848D02*
D03*
X514369Y578895D02*
D03*
X454425Y739013D02*
D03*
X674487D02*
D03*
X664487Y758825D02*
D03*
X664534Y618848D02*
D03*
X464331Y758825D02*
D03*
X634487Y789051D02*
D03*
X504463Y578895D02*
D03*
X454425Y748919D02*
D03*
X674487D02*
D03*
X454425Y628895D02*
D03*
X674534Y628848D02*
D03*
X624487Y798957D02*
D03*
X474491Y778891D02*
D03*
Y598895D02*
D03*
X654534Y598848D02*
D03*
X644534Y588848D02*
D03*
X664534Y608848D02*
D03*
X484397Y588895D02*
D03*
X664487Y768985D02*
D03*
X464331Y608895D02*
D03*
X644487Y789051D02*
D03*
X464331Y768985D02*
D03*
X494557Y578895D02*
D03*
X454425Y758825D02*
D03*
X674487D02*
D03*
X454425Y618895D02*
D03*
X474491Y588895D02*
D03*
X664487Y778891D02*
D03*
X654534Y588848D02*
D03*
X664534Y598848D02*
D03*
X464331Y778891D02*
D03*
X474491Y789051D02*
D03*
X464331Y598895D02*
D03*
X644534Y578848D02*
D03*
X454425Y608895D02*
D03*
X674534Y608848D02*
D03*
X644487Y798957D02*
D03*
X454425Y768985D02*
D03*
X674487D02*
D03*
X484397Y798957D02*
D03*
X464331Y588895D02*
D03*
X664487Y789051D02*
D03*
X454425Y778891D02*
D03*
X674487D02*
D03*
X474491Y798957D02*
D03*
X654534Y578848D02*
D03*
X454425Y598895D02*
D03*
X674534Y598848D02*
D03*
X664534Y578848D02*
D03*
X674534Y588848D02*
D03*
X464331Y578895D02*
D03*
X454425Y789051D02*
D03*
X674487D02*
D03*
X464331Y798957D02*
D03*
X454425Y578895D02*
D03*
X674534Y578848D02*
D03*
X674487Y798957D02*
D03*
X554247Y678895D02*
D03*
X554482Y799592D02*
D03*
X544576D02*
D03*
X946000Y605000D02*
D03*
Y593772D02*
D03*
X947000Y564000D02*
D03*
X946000Y534000D02*
D03*
Y464000D02*
D03*
X946956Y404956D02*
D03*
X946920Y391080D02*
D03*
X774054Y578946D02*
D03*
X773756Y550244D02*
D03*
X722022Y590978D02*
D03*
X723000Y605000D02*
D03*
X722000Y562000D02*
D03*
X721288Y531288D02*
D03*
X511476Y500524D02*
D03*
X313358Y456358D02*
D03*
X313218Y409782D02*
D03*
X297218D02*
D03*
X312230Y323770D02*
D03*
X380000Y194000D02*
D03*
X387000Y193000D02*
D03*
X414000D02*
D03*
X541862Y152862D02*
D03*
X608410Y153410D02*
D03*
X661566Y292434D02*
D03*
X660616Y361616D02*
D03*
X662854Y401146D02*
D03*
X680800Y878200D02*
D03*
X667004Y890996D02*
D03*
X654000Y828000D02*
D03*
X894160Y581660D02*
D03*
X894542Y550458D02*
D03*
X894874Y449874D02*
D03*
X900000Y513000D02*
D03*
X905000Y519000D02*
D03*
X514369Y588895D02*
D03*
X767000Y518000D02*
D03*
X761000Y523000D02*
D03*
X634534Y588848D02*
D03*
X776000Y505000D02*
D03*
X893000Y495000D02*
D03*
X907998Y498999D02*
D03*
X898000Y477000D02*
D03*
X943000Y503000D02*
D03*
X356000Y204000D02*
D03*
Y211000D02*
D03*
X381000Y314000D02*
D03*
X368000Y213000D02*
D03*
X396000Y295000D02*
D03*
X393000Y285000D02*
D03*
X385000Y289000D02*
D03*
X354000Y273000D02*
D03*
X355000Y229000D02*
D03*
X327000Y198000D02*
D03*
X457000Y459000D02*
D03*
X474491Y578895D02*
D03*
X544341Y608895D02*
D03*
X554454Y598848D02*
D03*
X544341Y598895D02*
D03*
X534435Y608895D02*
D03*
X618250Y399750D02*
D03*
X904250Y397750D02*
D03*
X656750Y392000D02*
D03*
X579750Y490250D02*
D03*
X616750Y489500D02*
D03*
X906250Y408750D02*
D03*
X729000Y490000D02*
D03*
X849250Y491250D02*
D03*
X904250Y430000D02*
D03*
X387176Y500824D02*
D03*
X764000Y419000D02*
D03*
X646250Y328000D02*
D03*
X503775Y458772D02*
D03*
X429250Y456000D02*
D03*
X826540Y528526D02*
D03*
X818250Y490750D02*
D03*
X521500Y489000D02*
D03*
X721076Y403924D02*
D03*
X728250Y397000D02*
D03*
X839500Y443250D02*
D03*
X818500Y472250D02*
D03*
X530250Y442000D02*
D03*
X529750Y454000D02*
D03*
X523000Y449000D02*
D03*
X518750Y459500D02*
D03*
X762538Y508646D02*
D03*
X817114Y436570D02*
D03*
X905250Y437250D02*
D03*
X896000Y429000D02*
D03*
X890544Y434750D02*
D03*
X906750Y423000D02*
D03*
X900250Y419250D02*
D03*
X769538Y431021D02*
D03*
X774538Y448522D02*
D03*
X762500Y448500D02*
D03*
X824000Y416000D02*
D03*
X850000Y414500D02*
D03*
X893794Y416270D02*
D03*
X905750Y544500D02*
D03*
X762500Y574250D02*
D03*
X821750Y561000D02*
D03*
X847500Y577250D02*
D03*
X847541Y567528D02*
D03*
X840750Y565500D02*
D03*
X789000Y558000D02*
D03*
X768750Y555250D02*
D03*
X762000Y545750D02*
D03*
X879000Y554250D02*
D03*
X772288Y539026D02*
D03*
X781038Y540776D02*
D03*
X788750Y536500D02*
D03*
X844750Y550750D02*
D03*
X901000Y534500D02*
D03*
X893250D02*
D03*
X539000Y261000D02*
D03*
X537250Y235500D02*
D03*
X572000Y300750D02*
D03*
X673533Y546527D02*
D03*
X668750Y533750D02*
D03*
X665750Y546750D02*
D03*
X670250Y447500D02*
D03*
X669000Y500250D02*
D03*
X661282Y496524D02*
D03*
X577000Y319500D02*
D03*
X616530Y532526D02*
D03*
X649500Y202250D02*
D03*
X774250Y484000D02*
D03*
X697000Y388250D02*
D03*
X667250Y390500D02*
D03*
X720422Y460422D02*
D03*
X497500Y223750D02*
D03*
X880543Y481773D02*
D03*
X848500Y434750D02*
D03*
X833750Y406500D02*
D03*
X771000Y400750D02*
D03*
X817500Y401000D02*
D03*
X648750Y278000D02*
D03*
X789038Y466773D02*
D03*
X828250Y477000D02*
D03*
X672250Y396500D02*
D03*
X533500Y218000D02*
D03*
X513775Y213010D02*
D03*
X905000Y389000D02*
D03*
X604500Y329500D02*
D03*
X619750Y318283D02*
D03*
X729500Y473500D02*
D03*
X734500Y468750D02*
D03*
X763250Y438750D02*
D03*
X537000Y254000D02*
D03*
X769000Y479500D02*
D03*
X762283Y481750D02*
D03*
X885043Y509525D02*
D03*
X825540D02*
D03*
X786038D02*
D03*
X907750Y467750D02*
D03*
X905750Y485250D02*
D03*
X938854Y488104D02*
D03*
X891500Y523500D02*
D03*
X446250Y457750D02*
D03*
X719500Y434250D02*
D03*
X620000Y416000D02*
D03*
X695250Y434750D02*
D03*
X783000Y373250D02*
D03*
X522000Y235500D02*
D03*
X543500Y248000D02*
D03*
X389750Y361750D02*
D03*
X381250Y376500D02*
D03*
X328000Y302000D02*
D03*
X882250Y498750D02*
D03*
X831750Y440500D02*
D03*
X702284Y422521D02*
D03*
X912918Y136332D02*
D03*
X922500Y215000D02*
D03*
X932180Y127180D02*
D03*
X939680Y117820D02*
D03*
X919680Y250320D02*
D03*
X910320Y240320D02*
D03*
X830060Y238440D02*
D03*
X797250Y196196D02*
D03*
X795780Y165970D02*
D03*
X300000Y56750D02*
D03*
X320000Y56250D02*
D03*
X128500Y317500D02*
D03*
X163750Y92500D02*
D03*
Y100500D02*
D03*
X65716Y140716D02*
D03*
X77734Y131766D02*
D03*
X76210Y62040D02*
D03*
X125000Y28000D02*
D03*
X190692Y149192D02*
D03*
X273512Y174262D02*
D03*
X149408Y35908D02*
D03*
X180096Y150596D02*
D03*
X264500Y164000D02*
D03*
X206386Y133364D02*
D03*
X806958Y807250D02*
D03*
X922078Y846328D02*
D03*
X705000Y912500D02*
D03*
Y880000D02*
D03*
X242500Y807500D02*
D03*
X247000Y847000D02*
D03*
X371250Y717500D02*
D03*
X316000Y731000D02*
D03*
X207500Y625750D02*
D03*
X186750Y636250D02*
D03*
X204500Y649000D02*
D03*
X303000Y730750D02*
D03*
X234366Y620693D02*
D03*
X120900Y501650D02*
D03*
X136106Y433606D02*
D03*
X134250Y404500D02*
D03*
X94250Y454250D02*
D03*
X298022Y637250D02*
D03*
X325750Y781000D02*
D03*
X474552Y678942D02*
D03*
X380750Y509750D02*
D03*
X380500Y491230D02*
D03*
X318250Y524500D02*
D03*
X268386Y522114D02*
D03*
X269402Y497348D02*
D03*
X420250Y288250D02*
D03*
X329750Y223250D02*
D03*
X377500Y233750D02*
D03*
X245850Y428150D02*
D03*
X766750Y319750D02*
D03*
X709250Y336250D02*
D03*
X930522Y684022D02*
D03*
Y658272D02*
D03*
X931272Y633272D02*
D03*
X794000Y87000D02*
D03*
X837041Y710535D02*
D03*
X704500Y991250D02*
D03*
X760500Y832750D02*
D03*
X717750Y653500D02*
D03*
X714098Y668098D02*
D03*
X720500Y675750D02*
D03*
X696750Y688890D02*
D03*
X445522Y603779D02*
D03*
X369750Y612250D02*
D03*
X514750Y768750D02*
D03*
X524500Y768750D02*
D03*
X564500Y669250D02*
D03*
X884500Y643750D02*
D03*
X341500Y676500D02*
D03*
X684750Y689750D02*
D03*
X524500Y163750D02*
D03*
X650250Y376566D02*
D03*
X618500Y363750D02*
D03*
X529500Y196750D02*
D03*
X180250Y176500D02*
D03*
X268013Y415520D02*
D03*
X318500Y439750D02*
D03*
X321750Y426750D02*
D03*
X269500Y428000D02*
D03*
X268250Y442250D02*
D03*
X320000Y370000D02*
D03*
X601250Y195000D02*
D03*
X614500Y246000D02*
D03*
X620030Y215760D02*
D03*
X150500Y149000D02*
D03*
X380500Y414000D02*
D03*
X245750Y387000D02*
D03*
X381000Y405500D02*
D03*
X252750Y379750D02*
D03*
X395500Y48000D02*
D03*
X716750Y392750D02*
D03*
X661750Y382000D02*
D03*
X692750Y484250D02*
D03*
X317500Y516250D02*
D03*
X502500Y209000D02*
D03*
X395750Y429000D02*
D03*
X501525Y410020D02*
D03*
X509750Y410000D02*
D03*
X390250Y434000D02*
D03*
X381269Y438521D02*
D03*
X479023Y438771D02*
D03*
X317265Y387519D02*
D03*
X327500Y586500D02*
D03*
X340750Y506000D02*
D03*
X324766Y489524D02*
D03*
X329000Y472750D02*
D03*
X269000Y486750D02*
D03*
X394000Y454250D02*
D03*
X506500Y404000D02*
D03*
X619000Y423000D02*
D03*
X490750Y428750D02*
D03*
X779500Y84000D02*
D03*
X835250Y626750D02*
D03*
X843500Y691250D02*
D03*
X881750Y665750D02*
D03*
X732250Y333250D02*
D03*
X754750Y270500D02*
D03*
X777250Y396250D02*
D03*
X747250Y339250D02*
D03*
X707750Y272250D02*
D03*
X692250Y634250D02*
D03*
X693750Y613250D02*
D03*
X459750Y141250D02*
D03*
X419000Y80750D02*
D03*
X473523Y97255D02*
D03*
X469250Y87000D02*
D03*
X458000Y101000D02*
D03*
X447272Y87254D02*
D03*
X434500Y87500D02*
D03*
X446250Y99250D02*
D03*
X593500Y416250D02*
D03*
X568750Y427000D02*
D03*
X544026Y406270D02*
D03*
X559750Y442000D02*
D03*
X561000Y449000D02*
D03*
X537527Y404973D02*
D03*
X257750Y295750D02*
D03*
X258000Y313000D02*
D03*
X315000Y305000D02*
D03*
X277000Y306750D02*
D03*
X264750Y265250D02*
D03*
X395250Y394750D02*
D03*
X425750Y401750D02*
D03*
X392250Y402000D02*
D03*
X379820Y426213D02*
D03*
X396500Y422250D02*
D03*
X581750Y433250D02*
D03*
X555500Y403750D02*
D03*
X459250Y334750D02*
D03*
X663136Y448430D02*
D03*
X221000Y267500D02*
D03*
X782750Y40000D02*
D03*
X168250Y375250D02*
D03*
X822000Y31500D02*
D03*
X425000Y391500D02*
D03*
X360000Y401000D02*
D03*
X460000Y418750D02*
D03*
X480500Y301750D02*
D03*
X502250Y266750D02*
D03*
X420250Y419000D02*
D03*
X382750Y342250D02*
D03*
X418500Y406500D02*
D03*
X617250Y448750D02*
D03*
X392750Y339250D02*
D03*
X421500Y384250D02*
D03*
X420250Y374250D02*
D03*
X618500Y372500D02*
D03*
X648000Y443500D02*
D03*
X645531Y420250D02*
D03*
X614500Y343000D02*
D03*
X619750Y356000D02*
D03*
X653500Y335250D02*
D03*
X906000Y145250D02*
D03*
X735386Y238250D02*
D03*
X756000Y336250D02*
D03*
X769000Y374250D02*
D03*
X739500Y371750D02*
D03*
X759968Y241750D02*
D03*
X696750Y337750D02*
D03*
X714250Y370750D02*
D03*
X573000Y214000D02*
D03*
X568250Y219250D02*
D03*
X560500Y221500D02*
D03*
X519000Y208500D02*
D03*
X779750Y75500D02*
D03*
X862250Y200750D02*
D03*
X694250Y280250D02*
D03*
X854000Y197750D02*
D03*
X846000Y200500D02*
D03*
X931084Y174334D02*
D03*
X938000Y151250D02*
D03*
X619250Y236000D02*
D03*
X579750Y293500D02*
D03*
X577778Y285514D02*
D03*
X589000Y260500D02*
D03*
X594750Y267250D02*
D03*
X582750Y281294D02*
D03*
X268763Y80254D02*
D03*
X494750Y326500D02*
D03*
X537000Y372750D02*
D03*
X527750Y373000D02*
D03*
X519250D02*
D03*
X510500Y372750D02*
D03*
X555000Y369500D02*
D03*
X560000Y364250D02*
D03*
X240000Y92000D02*
D03*
X302765Y194760D02*
D03*
X104982Y527000D02*
D03*
X136984Y445516D02*
D03*
X864000Y643250D02*
D03*
X598250Y273500D02*
D03*
X481000Y196500D02*
D03*
X691750Y175750D02*
D03*
X672500Y416000D02*
D03*
X295950Y453550D02*
D03*
X658000Y212750D02*
D03*
X775726Y417274D02*
D03*
X772908Y860908D02*
D03*
X320688Y160750D02*
D03*
X317288Y167750D02*
D03*
X770486Y769206D02*
D03*
X812074Y772250D02*
D03*
X642791Y257852D02*
D03*
X646532Y263763D02*
D03*
X842297Y190849D02*
D03*
X771731Y156058D02*
D03*
X125162Y22533D02*
D03*
X791716Y196229D02*
D03*
D64*
X80000Y885146D02*
D03*
X95000Y884946D02*
D03*
Y870000D02*
D03*
X80000Y870200D02*
D03*
Y914396D02*
D03*
X95000Y914196D02*
D03*
Y899250D02*
D03*
X80000Y899450D02*
D03*
Y944396D02*
D03*
X95000Y944196D02*
D03*
Y929250D02*
D03*
X80000Y929450D02*
D03*
Y959450D02*
D03*
X95000Y959250D02*
D03*
Y974196D02*
D03*
X80000Y974396D02*
D03*
X437500Y875250D02*
D03*
X451250Y867001D02*
D03*
X620750Y550750D02*
D03*
X578028Y551027D02*
D03*
X472500Y816250D02*
D03*
X486500D02*
D03*
X460750Y831500D02*
D03*
X440000Y737250D02*
D03*
X418250Y696000D02*
D03*
X403500Y681000D02*
D03*
X428000D02*
D03*
X415000Y640750D02*
D03*
X436000Y589250D02*
D03*
X446750Y566000D02*
D03*
X533000Y537250D02*
D03*
X577500Y527250D02*
D03*
X685500Y571750D02*
D03*
X666000Y561000D02*
D03*
X612250Y561250D02*
D03*
X752500Y685500D02*
D03*
X738750D02*
D03*
X762750Y673750D02*
D03*
X694250Y676750D02*
D03*
X779000Y688250D02*
D03*
X789000Y666000D02*
D03*
X805000Y665750D02*
D03*
X803500Y699000D02*
D03*
X703750Y699750D02*
D03*
X712750Y772250D02*
D03*
X748750Y768000D02*
D03*
X641750Y814750D02*
D03*
X609000Y826500D02*
D03*
X593000Y814500D02*
D03*
X592750Y840250D02*
D03*
X649500Y869250D02*
D03*
X511000Y841250D02*
D03*
Y868250D02*
D03*
X574750Y928250D02*
D03*
X588000D02*
D03*
X598250Y917750D02*
D03*
X598500Y902000D02*
D03*
X574250Y891750D02*
D03*
X588500Y891500D02*
D03*
X640250Y843250D02*
D03*
X438000Y809750D02*
D03*
X438250Y781750D02*
D03*
X416000Y758250D02*
D03*
X460250Y816500D02*
D03*
X96250Y345750D02*
D03*
X105750Y336000D02*
D03*
X106250Y325250D02*
D03*
X96500Y317250D02*
D03*
X297250Y287000D02*
D03*
X476500Y513500D02*
D03*
X704000Y755000D02*
D03*
X470500Y133500D02*
D03*
X706000Y561250D02*
D03*
X696250Y572500D02*
D03*
X464250Y545500D02*
D03*
X727250Y669500D02*
D03*
X420500Y589250D02*
D03*
X390000Y648250D02*
D03*
X727535Y700784D02*
D03*
X521250Y281500D02*
D03*
X704500Y781750D02*
D03*
X394250Y74024D02*
D03*
M02*
