*
%FSLAX45Y45*%
%MOMM*%
G04 A1 - rect2600.96x1940.56xr96.52 *
%AMA1smb*
22,1,2.600960,1.747520,-1.300480,-0.873760,0.0*
1,1,0.193040,-1.203960,0.873760*
1,1,0.193040,1.203960,0.873760*
20,1,0.193040,-1.203960,0.873760,1.203960,0.873760,0.0*
1,1,0.193040,-1.203960,-0.873760*
1,1,0.193040,1.203960,-0.873760*
20,1,0.193040,-1.203960,-0.873760,1.203960,-0.873760,0.0*
%
G04 A2 - rect2499.36x1300.48xr129.54 *
%AMA2smb*
22,1,2.499360,1.041400,-1.249680,-0.520700,0.0*
1,1,0.259080,-1.120140,0.520700*
1,1,0.259080,1.120140,0.520700*
20,1,0.259080,-1.120140,0.520700,1.120140,0.520700,0.0*
1,1,0.259080,-1.120140,-0.520700*
1,1,0.259080,1.120140,-0.520700*
20,1,0.259080,-1.120140,-0.520700,1.120140,-0.520700,0.0*
%
G04 A3 - rect2349.5x5349.25xr236.22 *
%AMA3smb*
22,1,1.877060,5.349250,-0.938530,-2.674625,0.0*
1,1,0.472440,-0.938530,-2.438405*
1,1,0.472440,-0.938530,2.438405*
20,1,0.472440,-0.938530,-2.438405,-0.938530,2.438405,0.0*
1,1,0.472440,0.938530,-2.438405*
1,1,0.472440,0.938530,2.438405*
20,1,0.472440,0.938530,-2.438405,0.938530,2.438405,0.0*
%
G04 A4 - rect701.04x701.04xr200.66 *
%AMA4smb*
22,1,0.701040,0.299720,-0.350520,-0.149860,0.0*
1,1,0.401320,-0.149860,0.149860*
1,1,0.401320,0.149860,0.149860*
20,1,0.401320,-0.149860,0.149860,0.149860,0.149860,0.0*
1,1,0.401320,-0.149860,-0.149860*
1,1,0.401320,0.149860,-0.149860*
20,1,0.401320,-0.149860,-0.149860,0.149860,-0.149860,0.0*
%
G04 A5 - i274x.roundedrectd171.d171 *
%AMA5smb*
1,1,0.000000,-0.685000,0.000000*
1,1,0.000000,0.685000,0.000000*
20,1,0.000000,-0.685000,0.000000,0.685000,0.000000,0.0*
1,1,1.370000,0.000000,0.000000*
1,1,1.370000,0.000000,0.000000*
1,1,1.370000,0.000000,0.000000*
1,1,1.370000,0.000000,0.000000*
%
G04 A6 - i274x.roundedrectd175.d175 *
%AMA6smb*
1,1,0.000000,0.275000,0.000000*
1,1,0.000000,-0.275000,0.000000*
20,1,0.000000,0.275000,0.000000,-0.275000,0.000000,0.0*
1,1,0.550000,0.000000,0.000000*
1,1,0.550000,0.000000,0.000000*
1,1,0.550000,0.000000,0.000000*
1,1,0.550000,0.000000,0.000000*
%
%ADD10C,0.600000*%
%ADD11A1smb*%
%ADD12A2smb*%
%ADD13A3smb*%
%ADD14R,1.300000X0.900000*%
%ADD15R,0.900000X1.300000*%
%ADD16R,1.403198X1.203197*%
%ADD17R,1.100000X0.900000*%
%ADD18R,1.203197X1.403198*%
%ADD19R,2.700000X1.700000*%
%ADD20R,1.700000X2.700000*%
%ADD21R,2.500000X2.700000*%
%ADD22R,1.497000X1.293800*%
%ADD23R,0.680000X0.530000*%
%ADD24R,0.530000X0.680000*%
%ADD25O,1.300000X0.400000*%
%ADD26C,1.600000*%
%ADD27C,4.600000*%
%ADD28R,1.600000X1.600000*%
%ADD29O,2.100000X4.600000*%
%ADD30O,4.600000X2.100000*%
%ADD31C,1.516000*%
%ADD32R,1.500000X1.900000*%
%ADD33A4smb*%
%ADD34R,1.116000X3.402000*%
%ADD35R,1.116000X2.716200*%
%ADD36R,3.402000X1.116000*%
%ADD37R,2.716200X1.116000*%
%ADD38A5smb*%
%ADD39R,1.200000X0.750000*%
%ADD40O,1.200000X0.750000*%
%ADD41R,1.598600X1.801800*%
%ADD42A6smb*%
%ADD43R,2.513000X0.963600*%
%ADD44R,13.485800X9.244000*%
%ADD45R,1.900000X1.500000*%
%ADD46R,0.960000X0.960000*%
%ADD47R,0.700000X1.650000*%
%ADD48R,0.709600X1.116000*%
%ADD49R,0.550000X1.116000*%
%ADD50O,0.708660X0.353060*%
%ADD51O,0.353060X0.708660*%
%ADD52O,0.400000X1.300000*%
%IPPOS*%
%LNcryptech_28032016.smb*%
%LPD*%
%SRX1Y1I0J0*%
G01*
G75*
G36*
X3450840Y7478060D02*
Y7578060D01*
X3530840D01*
Y7478070D01*
X3450840Y7478060D01*
G37*
G36*
X1099580Y4187220D02*
Y4287210D01*
X1179580Y4287220D01*
Y4187220D01*
X1099580D01*
G37*
G36*
X3560840Y7478060D02*
Y7578060D01*
X3640840D01*
Y7478060D01*
X3560840D01*
G37*
G36*
X989580Y4187220D02*
Y4287220D01*
X1069580D01*
Y4187220D01*
X989580D01*
G37*
G54D10*
X8622920Y1570080D03*
X8557500Y1520000D03*
X1742500Y1342500D03*
X1627500Y1232500D03*
X1360000Y717500D03*
X1751250Y568750D03*
G54D11*
X3545840Y7529560D03*
X1084580Y4235720D03*
G54D12*
X2953420Y6013020D03*
G54D13*
X2380920Y5685520D03*
G54D14*
X8175480Y8917940D03*
X8395480Y8822940D03*
Y9012940D03*
X8927320Y9183620D03*
Y9373620D03*
X9147320Y9278620D03*
G54D15*
X8927080Y8926340D03*
X9022080Y8706340D03*
X9117080Y8926340D03*
X8325100Y8165320D03*
X8515100D03*
X8420100Y8385320D03*
G54D16*
X2971800Y2556840D03*
Y2756840D03*
G54D17*
X3000000Y320000D03*
Y480000D03*
X2800000Y320000D03*
Y480000D03*
X2600000Y320000D03*
Y480000D03*
X2400000Y320000D03*
Y480000D03*
X4700000Y320000D03*
Y480000D03*
X4500000Y320000D03*
Y480000D03*
X4300000Y320000D03*
Y480000D03*
X4100000Y320000D03*
Y480000D03*
X8100000Y320000D03*
Y480000D03*
X7900000Y320000D03*
Y480000D03*
X7700000Y320000D03*
Y480000D03*
X7500000Y320000D03*
Y480000D03*
G54D18*
X4469460Y5133340D03*
X4669460D03*
G54D19*
X4005580Y7790040D03*
Y8090040D03*
Y7411860D03*
Y7111860D03*
X3474720Y6090780D03*
Y6390780D03*
X3469640Y5384660D03*
Y5684660D03*
X640080Y4343260D03*
Y4643260D03*
Y3708260D03*
Y4008260D03*
G54D20*
X1996300Y9908540D03*
X2296300D03*
X1996300Y9406890D03*
X2296300D03*
X1996300Y8905240D03*
X2296300D03*
X1379080Y6733540D03*
X1679080D03*
X2054720Y5064760D03*
X2354720D03*
X2054720Y4627880D03*
X2354720D03*
G54D21*
X721480Y6106160D03*
X1371480D03*
X721480Y5458460D03*
X1371480D03*
G54D22*
X2720780Y3413680D03*
Y3583860D03*
X2941760Y3413680D03*
Y3583860D03*
G54D23*
X6543040Y3616160D03*
Y3516160D03*
X5735320Y4928400D03*
Y5028400D03*
X3192780Y2711920D03*
Y2611920D03*
X3053080Y4097820D03*
Y4197820D03*
X6093460Y4928400D03*
Y5028400D03*
X6543040Y2924340D03*
Y3024340D03*
X3192780Y4563580D03*
Y4463580D03*
Y4097820D03*
Y4197820D03*
X6543040Y4011460D03*
Y4111460D03*
X3192780Y3237700D03*
Y3137700D03*
X7282220Y4039240D03*
Y4139240D03*
X7284720Y3918260D03*
Y3818260D03*
Y6045680D03*
Y6145680D03*
X8872220Y5816600D03*
Y5916600D03*
X7284720Y5312880D03*
Y5212880D03*
X8872220Y4164800D03*
Y4064800D03*
X7284720Y5909780D03*
Y5809780D03*
X8872220Y5504580D03*
Y5604580D03*
X7284720Y4604220D03*
Y4504220D03*
X8872220Y4498740D03*
Y4598740D03*
X7284720Y5615140D03*
Y5515140D03*
X7668260Y2747480D03*
Y2847480D03*
X9903700Y5785320D03*
Y5685320D03*
X3218180Y7534440D03*
Y7634440D03*
X1395000Y4212500D03*
Y4112500D03*
X3218180Y8089100D03*
Y7989100D03*
X1397500Y3685000D03*
Y3785000D03*
X7107500Y9720000D03*
Y9820000D03*
X6449060Y8343100D03*
Y8243100D03*
X7100000Y9000000D03*
Y8900000D03*
X2819400Y7311860D03*
Y7211860D03*
X8709660Y9374340D03*
Y9274340D03*
X8069580Y8138960D03*
Y8238960D03*
X3192780Y3417100D03*
Y3517100D03*
X4500000Y800000D03*
Y700000D03*
X2800000Y800000D03*
Y700000D03*
X7667500Y3270000D03*
Y3370000D03*
X3081020Y7534440D03*
Y7634440D03*
X1551940Y4223220D03*
Y4123220D03*
X3081020Y8089100D03*
Y7989100D03*
X3154680Y7860500D03*
Y7760500D03*
X1536700Y3683800D03*
Y3783800D03*
X1473200Y3904780D03*
Y4004780D03*
X8100000Y750000D03*
Y650000D03*
X4700000Y800000D03*
Y700000D03*
X4100000Y800000D03*
Y700000D03*
X4300000Y800000D03*
Y700000D03*
X3000000Y800000D03*
Y700000D03*
X2400000Y800000D03*
Y700000D03*
X2600000Y800000D03*
Y700000D03*
X7900000Y750000D03*
Y650000D03*
X7700000Y750000D03*
Y650000D03*
X7500000Y750000D03*
Y650000D03*
G54D24*
X2560000Y8470000D03*
X2660000D03*
X2505000Y7572500D03*
X2605000D03*
X2507780Y7183120D03*
X2607780D03*
X9049220Y9621520D03*
X8949220D03*
X8998420Y8168640D03*
X8898420D03*
X7784300Y8854440D03*
X7684300D03*
X2842500Y3205000D03*
X2942500D03*
X2867500Y3855000D03*
X2767500D03*
X5114760Y4935220D03*
X5014760D03*
X6084100Y1595120D03*
X6184100D03*
X4722660D03*
X4822660D03*
X5418620D03*
X5518620D03*
X6579400Y2197100D03*
X6679400D03*
X3871760Y4935220D03*
X3971760D03*
X4614380D03*
X4514380D03*
X6670040Y8844280D03*
X6570040D03*
X2498560Y6289040D03*
X2398560D03*
X2742400D03*
X2642400D03*
X2507780Y7317740D03*
X2607780D03*
X9048280Y8463280D03*
X9148280D03*
X8415820Y8610600D03*
X8515820D03*
X7964640Y2584120D03*
X7864640D03*
X6808000Y8844280D03*
X6908000D03*
X3622980Y7180580D03*
X3522980D03*
X1009180Y4572000D03*
X1109180D03*
X3710000Y8147500D03*
X3610000D03*
X902500Y3586480D03*
X1002500D03*
X2257260Y6289040D03*
X2157260D03*
X2981160D03*
X2881160D03*
X2742400Y6456680D03*
X2642400D03*
X2498560D03*
X2398560D03*
X2980220D03*
X3080220D03*
X7682700Y2584120D03*
X7582700D03*
X6867500Y3515000D03*
X6967500D03*
X7070560Y3622980D03*
X6970560D03*
G54D25*
X7492040Y3932640D03*
Y3982640D03*
Y4032640D03*
Y4082640D03*
Y4132640D03*
Y4182640D03*
Y4232640D03*
Y4282640D03*
Y4332640D03*
Y4382640D03*
Y4432640D03*
Y4482640D03*
Y4532640D03*
Y4582640D03*
Y4632640D03*
Y4682640D03*
Y4732640D03*
Y4782640D03*
Y4832640D03*
Y4882640D03*
Y4932640D03*
Y4982640D03*
Y5032640D03*
Y5082640D03*
Y5132640D03*
Y5182640D03*
Y5232640D03*
Y5282640D03*
Y5332640D03*
Y5382640D03*
Y5432640D03*
Y5482640D03*
Y5532640D03*
Y5582640D03*
Y5632640D03*
Y5682640D03*
Y5732640D03*
Y5782640D03*
Y5832640D03*
Y5882640D03*
Y5932640D03*
Y5982640D03*
Y6032640D03*
X8642040Y3932640D03*
Y3982640D03*
Y4032640D03*
Y4082640D03*
Y4132640D03*
Y4182640D03*
Y4232640D03*
Y4282640D03*
Y4332640D03*
Y4382640D03*
Y4432640D03*
Y4482640D03*
Y4532640D03*
Y4582640D03*
Y4632640D03*
Y4682640D03*
Y4732640D03*
Y4782640D03*
Y4832640D03*
Y4882640D03*
Y4932640D03*
Y4982640D03*
Y5032640D03*
Y5082640D03*
Y5132640D03*
Y5182640D03*
Y5232640D03*
Y5282640D03*
Y5332640D03*
Y5382640D03*
Y5432640D03*
Y5482640D03*
Y5532640D03*
Y5582640D03*
Y5632640D03*
Y5682640D03*
Y5732640D03*
Y5782640D03*
Y5832640D03*
Y5882640D03*
Y5932640D03*
Y5982640D03*
Y6032640D03*
X6344180Y1986360D03*
Y2036360D03*
Y2086360D03*
Y2136360D03*
Y2186360D03*
Y2236360D03*
Y2286360D03*
Y2336360D03*
Y2386360D03*
Y2436360D03*
Y2486360D03*
Y2536360D03*
Y2586360D03*
Y2636360D03*
Y2686360D03*
Y2736360D03*
Y2786360D03*
Y2836360D03*
Y2886360D03*
Y2936360D03*
Y2986360D03*
Y3036360D03*
Y3086360D03*
Y3136360D03*
Y3186360D03*
Y3236360D03*
Y3286360D03*
Y3336360D03*
Y3386360D03*
Y3436360D03*
Y3486360D03*
Y3536360D03*
Y3586360D03*
Y3636360D03*
Y3686360D03*
Y3736360D03*
Y3786360D03*
Y3836360D03*
Y3886360D03*
Y3936360D03*
Y3986360D03*
Y4036360D03*
Y4086360D03*
Y4136360D03*
Y4186360D03*
Y4236360D03*
Y4286360D03*
Y4336360D03*
Y4386360D03*
Y4436360D03*
Y4486360D03*
Y4536360D03*
X3394180D03*
Y4486360D03*
Y4436360D03*
Y4386360D03*
Y4336360D03*
Y4286360D03*
Y4236360D03*
Y4186360D03*
Y4136360D03*
Y4086360D03*
Y4036360D03*
Y3986360D03*
Y3936360D03*
Y3886360D03*
Y3836360D03*
Y3786360D03*
Y3736360D03*
Y3686360D03*
Y3636360D03*
Y3586360D03*
Y3536360D03*
Y3486360D03*
Y3436360D03*
Y3386360D03*
Y3336360D03*
Y3286360D03*
Y3236360D03*
Y3186360D03*
Y3136360D03*
Y3086360D03*
Y3036360D03*
Y2986360D03*
Y2936360D03*
Y2886360D03*
Y2836360D03*
Y2786360D03*
Y2736360D03*
Y2686360D03*
Y2636360D03*
Y2586360D03*
Y2536360D03*
Y2486360D03*
Y2436360D03*
Y2386360D03*
Y2336360D03*
Y2286360D03*
Y2236360D03*
Y2186360D03*
Y2136360D03*
Y2086360D03*
Y2036360D03*
Y1986360D03*
G54D26*
X7490460Y1125220D03*
Y1379220D03*
X7236460D03*
X7744460Y1125220D03*
Y1379220D03*
X9474200Y3116580D03*
X8784700Y2862580D03*
Y3116580D03*
X9038700D03*
Y2862580D03*
Y3370580D03*
X9903700Y1846580D03*
Y2862580D03*
Y3116580D03*
Y1338580D03*
Y1592580D03*
Y1084580D03*
Y2100580D03*
Y2354580D03*
Y2608580D03*
X6591680Y9174480D03*
X2790920Y9649460D03*
X3044920D03*
X3298920D03*
X2790920Y9903460D03*
X3044920D03*
X3552920Y9649460D03*
X3298920Y9903460D03*
X4060920Y9649460D03*
X3806920D03*
X4314920D03*
X4568920D03*
X4060920Y9903460D03*
X3552920D03*
X3806920D03*
X4314920D03*
X5069300Y9649460D03*
X5323300D03*
X5577300D03*
X5069300Y9903460D03*
X5323300D03*
X5831300Y9649460D03*
X5577300Y9903460D03*
X6339300Y9649460D03*
X6085300D03*
X6593300D03*
X6847300D03*
X6339300Y9903460D03*
X5831300D03*
X6085300D03*
X6593300D03*
X9903700Y6332220D03*
Y6840220D03*
Y6586220D03*
Y7602220D03*
Y7856220D03*
Y7094220D03*
Y7348220D03*
X9474200Y2100600D03*
Y2354600D03*
X1903920Y3335020D03*
Y2904070D03*
Y2473110D03*
X2659380Y2042160D03*
X2913380D03*
X1897380D03*
X2405380D03*
X2151380D03*
X4104640Y1125220D03*
X4358640D03*
X3850640Y1379220D03*
X4358640D03*
X4104640D03*
G54D27*
X330000Y390000D03*
X9830000D03*
G54D28*
X7236460Y1125220D03*
X6337680Y9174480D03*
X4568920Y9903460D03*
X6847300D03*
X1649920Y3335020D03*
Y2904070D03*
Y2473110D03*
X1643380Y2042160D03*
X3850640Y1125220D03*
X9474200Y3370580D03*
X8784700D03*
X9903700D03*
Y6078220D03*
X9474200Y2608600D03*
G54D29*
X800000Y9198400D03*
G54D30*
X1280000Y9478400D03*
Y8898400D03*
G54D31*
X5445980Y451600D03*
X5005000D03*
X7245980D03*
X6805000D03*
G54D32*
X4005280Y8427720D03*
X4285280D03*
X639780Y3314700D03*
X919780D03*
G54D33*
X9425000Y9825000D03*
X9525000D03*
G54D34*
X7357000Y7991540D03*
Y9813400D03*
X9408160Y7991540D03*
Y9813400D03*
G54D35*
X7357000Y8526540D03*
Y9277460D03*
X9408160D03*
Y8526540D03*
G54D36*
X7472000Y7876540D03*
Y9927700D03*
X9293860Y7876540D03*
Y9927700D03*
G54D37*
X8007000D03*
X8757920Y7876540D03*
X8007000D03*
X8757920Y9927700D03*
G54D38*
X8831580Y8514080D03*
X8214360D03*
G54D39*
X7601840Y8419080D03*
Y8609080D03*
X7871840Y8419080D03*
Y8514080D03*
G54D40*
Y8609080D03*
G54D41*
X6687820Y8341360D03*
Y8596140D03*
X6910060Y8341360D03*
Y8596140D03*
G54D42*
X4593780Y5838480D03*
Y5938480D03*
X4692840Y6038480D03*
Y5938480D03*
Y5838480D03*
X4794440Y6038480D03*
Y5938480D03*
X4593780Y6138480D03*
Y6038480D03*
Y6238480D03*
X4692840D03*
Y6138480D03*
X4794440D03*
Y6338480D03*
Y6238480D03*
Y5838480D03*
X4893500Y5938480D03*
Y5838480D03*
X4995100D03*
X5094160D03*
X4995100Y5938480D03*
X5094160D03*
X4893500Y6038480D03*
X4995100D03*
X4893500Y6238480D03*
Y6138480D03*
X4995100D03*
X5094160Y6038480D03*
X4995100Y6238480D03*
X5094160Y6138480D03*
X4593780Y6338480D03*
Y6438480D03*
X4692840D03*
Y6338480D03*
X4593780Y6538480D03*
X4794440D03*
X4593780Y6638480D03*
X4692840Y6538480D03*
X4593780Y6838480D03*
Y6738480D03*
X4692840Y6638480D03*
X4794440D03*
X4692840Y6838480D03*
Y6738480D03*
X4794440Y6438480D03*
X4893500Y6338480D03*
Y6538480D03*
Y6438480D03*
X4995100D03*
Y6338480D03*
Y6638480D03*
Y6538480D03*
X4794440Y6738480D03*
X4893500D03*
X4794440Y6838480D03*
X4893500D03*
Y6638480D03*
X4995100Y6738480D03*
Y6838480D03*
X5094160D03*
X5193220Y5838480D03*
Y6038480D03*
Y5938480D03*
X5294820Y5838480D03*
Y6038480D03*
Y5938480D03*
X5094160Y6238480D03*
X5193220Y6138480D03*
Y6338480D03*
Y6238480D03*
X5294820Y6138480D03*
X5393880Y6038480D03*
X5294820Y6338480D03*
Y6238480D03*
X5492940Y5838480D03*
X5393880Y5938480D03*
Y5838480D03*
X5492940Y5938480D03*
X5594540Y5838480D03*
X5492940Y6038480D03*
X5594540Y5938480D03*
X5393880Y6138480D03*
X5492940D03*
X5393880Y6238480D03*
X5492940Y6338480D03*
X5594540Y6138480D03*
Y6038480D03*
X5492940Y6238480D03*
X5594540D03*
X5094160Y6338480D03*
Y6538480D03*
Y6438480D03*
X5193220D03*
X5294820D03*
X5193220Y6538480D03*
X5294820D03*
X5094160Y6638480D03*
X5193220D03*
X5094160Y6738480D03*
X5193220Y6838480D03*
Y6738480D03*
X5294820Y6638480D03*
Y6838480D03*
Y6738480D03*
X5393880Y6438480D03*
Y6338480D03*
Y6538480D03*
X5492940Y6438480D03*
X5594540D03*
Y6338480D03*
X5492940Y6538480D03*
X5594540D03*
X5393880Y6638480D03*
X5492940D03*
X5393880Y6738480D03*
X5492940Y6838480D03*
Y6738480D03*
X5594540Y6638480D03*
Y6838480D03*
Y6738480D03*
X4593780Y6939280D03*
Y7139940D03*
Y7040880D03*
X4692840Y6939280D03*
X4794440D03*
X4692840Y7040880D03*
X4794440D03*
X4692840Y7239000D03*
Y7139940D03*
X4593780Y7340600D03*
Y7239000D03*
X4692840Y7340600D03*
X4794440Y7139940D03*
X4692840Y7439660D03*
X4794440Y7340600D03*
X4893500Y6939280D03*
Y7139940D03*
Y7040880D03*
X4995100Y6939280D03*
X5094160D03*
X4995100Y7139940D03*
Y7040880D03*
X4794440Y7239000D03*
X4893500D03*
X4794440Y7439660D03*
X4893500Y7340600D03*
X4995100Y7239000D03*
X5094160D03*
X4995100Y7340600D03*
X5094160D03*
X4593780Y7439660D03*
Y7640320D03*
Y7538720D03*
X4692840D03*
X4794440D03*
X4692840Y7640320D03*
X4794440D03*
X4593780Y7739380D03*
X4692840D03*
X4593780Y7940040D03*
Y7840980D03*
X4692840D03*
X4794440Y7739380D03*
X4692840Y7940040D03*
X4794440Y7840980D03*
X4893500Y7538720D03*
Y7439660D03*
Y7739380D03*
Y7640320D03*
X4995100Y7439660D03*
X5094160D03*
X4995100Y7640320D03*
Y7538720D03*
X4893500Y7840980D03*
X4995100Y7739380D03*
X4794440Y7940040D03*
X4893500D03*
X4995100Y7840980D03*
X5094160D03*
X4995100Y7940040D03*
X5094160D03*
X5193220Y6939280D03*
X5094160Y7040880D03*
X5193220Y7139940D03*
X5294820Y6939280D03*
X5393880Y6838480D03*
X5193220Y7040880D03*
X5294820D03*
X5094160Y7139940D03*
X5193220Y7239000D03*
Y7340600D03*
X5294820Y7439660D03*
Y7139940D03*
X5393880D03*
X5294820Y7340600D03*
Y7239000D03*
X5393880Y6939280D03*
X5492940D03*
X5393880Y7040880D03*
X5492940D03*
X5594540D03*
Y6939280D03*
X5492940Y7139940D03*
X5594540D03*
X5393880Y7239000D03*
X5492940D03*
X5393880Y7439660D03*
Y7340600D03*
X5492940D03*
X5594540Y7239000D03*
Y7439660D03*
Y7340600D03*
X5094160Y7538720D03*
Y7640320D03*
X5193220Y7538720D03*
Y7439660D03*
X5294820Y7538720D03*
X5193220Y7640320D03*
X5294820D03*
X5094160Y7739380D03*
X5193220D03*
Y7940040D03*
Y7840980D03*
X5294820D03*
Y7739380D03*
Y7940040D03*
X5393880Y7538720D03*
X5492940Y7439660D03*
X5393880Y7640320D03*
X5492940Y7538720D03*
Y7640320D03*
X5594540Y7538720D03*
X5492940Y7739380D03*
X5594540Y7640320D03*
X5393880Y7840980D03*
Y7739380D03*
Y7940040D03*
X5492940Y7840980D03*
X5594540D03*
Y7739380D03*
X5492940Y7940040D03*
X5594540D03*
X5695340Y5838480D03*
Y5938480D03*
X5795340Y6038480D03*
Y5838480D03*
X5895340D03*
X5795340Y5938480D03*
X5895340D03*
X5695340Y6138480D03*
Y6038480D03*
Y6238480D03*
X5795340Y6138480D03*
X5895340D03*
Y6038480D03*
X5795340Y6238480D03*
X5895340D03*
X5995340Y5838480D03*
Y6038480D03*
Y5938480D03*
X6095340Y5838480D03*
X6195340D03*
X6095340Y5938480D03*
X6195340D03*
X5995340Y6138480D03*
X6095340Y6038480D03*
X5995340Y6238480D03*
X6095340Y6138480D03*
X6195340D03*
Y6038480D03*
X6095340Y6238480D03*
X6195340D03*
X5795340Y6338480D03*
X5695340Y6438480D03*
Y6338480D03*
X5795340Y6438480D03*
X5895340Y6338480D03*
Y6538480D03*
Y6438480D03*
X5695340Y6638480D03*
Y6538480D03*
Y6838480D03*
Y6738480D03*
X5795340Y6638480D03*
Y6538480D03*
Y6838480D03*
Y6738480D03*
X5995340Y6438480D03*
Y6338480D03*
Y6638480D03*
Y6538480D03*
X6095340Y6338480D03*
X6195340D03*
X6095340Y6538480D03*
Y6438480D03*
X5895340Y6738480D03*
Y6638480D03*
Y6838480D03*
X5995340Y6738480D03*
X6095340D03*
Y6638480D03*
X5995340Y6838480D03*
X6095340D03*
X6295340Y5838480D03*
Y6038480D03*
Y5938480D03*
X6395340Y5838480D03*
X6495340D03*
X6395340Y5938480D03*
X6495340D03*
X6295340Y6238480D03*
Y6138480D03*
Y6338480D03*
X6395340D03*
Y6038480D03*
X6495340D03*
X6395340Y6238480D03*
Y6138480D03*
X6595340Y5838480D03*
X6695340D03*
X6595340Y6038480D03*
Y5938480D03*
X6695340D03*
Y6138480D03*
Y6038480D03*
X6495340Y6238480D03*
Y6138480D03*
Y6338480D03*
X6595340D03*
Y6238480D03*
Y6138480D03*
X6695340Y6338480D03*
Y6238480D03*
X6195340Y6438480D03*
Y6638480D03*
Y6538480D03*
X6295340Y6438480D03*
X6395340D03*
X6295340Y6538480D03*
X6395340D03*
X6195340Y6738480D03*
X6295340Y6638480D03*
X6195340Y6838480D03*
X6295340Y6738480D03*
X6395340D03*
Y6638480D03*
X6295340Y6838480D03*
X6395340D03*
X6495340Y6438480D03*
X6595340D03*
X6495340Y6638480D03*
Y6538480D03*
X6595340D03*
X6695340Y6438480D03*
Y6538480D03*
X6495340Y6738480D03*
X6595340Y6638480D03*
X6495340Y6838480D03*
X6595340Y6738480D03*
X6695340D03*
Y6638480D03*
X6595340Y6838480D03*
X6695340D03*
X5795340Y6939280D03*
X5695340Y7040880D03*
Y6939280D03*
X5795340Y7040880D03*
X5895340Y6939280D03*
Y7139940D03*
Y7040880D03*
X5695340Y7239000D03*
Y7139940D03*
Y7340600D03*
X5795340Y7439660D03*
Y7239000D03*
Y7139940D03*
Y7340600D03*
X5895340Y7239000D03*
X5995340Y6939280D03*
Y7139940D03*
Y7040880D03*
X6095340D03*
Y6939280D03*
X6195340Y7139940D03*
Y7040880D03*
X5995340Y7239000D03*
X6095340D03*
X5895340Y7340600D03*
X5995340D03*
X6095340Y7139940D03*
X6195340Y7239000D03*
X6095340Y7340600D03*
X6195340D03*
X5695340Y7439660D03*
Y7640320D03*
Y7538720D03*
X5795340D03*
X5895340D03*
X5795340Y7640320D03*
X5895340D03*
X5695340Y7739380D03*
X5795340D03*
X5695340Y7940040D03*
Y7840980D03*
X5795340D03*
X5895340D03*
X5795340Y7940040D03*
X5895340D03*
Y7439660D03*
X5995340D03*
Y7640320D03*
Y7538720D03*
X6095340Y7439660D03*
X6195340D03*
X6095340Y7640320D03*
Y7538720D03*
X5895340Y7739380D03*
X5995340D03*
Y7940040D03*
Y7840980D03*
X6095340D03*
Y7739380D03*
Y7940040D03*
X6195340Y7840980D03*
Y6939280D03*
X6295340Y7040880D03*
Y6939280D03*
X6395340Y7040880D03*
Y6939280D03*
X6295340Y7139940D03*
X6495340Y7040880D03*
X6295340Y7239000D03*
X6395340D03*
X6295340Y7439660D03*
Y7340600D03*
X6395340D03*
Y7139940D03*
Y7439660D03*
X6495340Y7340600D03*
Y6939280D03*
X6595340D03*
X6495340Y7139940D03*
X6595340Y7040880D03*
X6695340D03*
Y6939280D03*
X6595340Y7139940D03*
X6695340D03*
X6495340Y7239000D03*
X6595340D03*
X6495340Y7439660D03*
X6595340Y7340600D03*
X6695340D03*
Y7239000D03*
X6595340Y7439660D03*
X6695340D03*
X6195340Y7538720D03*
Y7739380D03*
Y7640320D03*
X6295340Y7538720D03*
X6395340D03*
X6295340Y7640320D03*
X6395340D03*
X6295340Y7840980D03*
Y7739380D03*
X6195340Y7940040D03*
X6295340D03*
X6395340Y7739380D03*
X6495340D03*
X6395340Y7940040D03*
Y7840980D03*
X6495340Y7538720D03*
X6595340D03*
X6495340Y7640320D03*
X6595340Y7739380D03*
Y7640320D03*
X6695340Y7538720D03*
Y7739380D03*
Y7640320D03*
X6495340Y7840980D03*
X6595340D03*
X6495340Y7940040D03*
X6595340D03*
X6695340D03*
Y7840980D03*
G54D43*
X2227580Y7193280D03*
Y7574280D03*
Y7701280D03*
Y7828280D03*
Y7955280D03*
Y7320280D03*
Y7447280D03*
Y8463280D03*
Y8082280D03*
Y8336280D03*
Y8209280D03*
G54D44*
X1275080Y7828280D03*
G54D45*
X3962400Y5681680D03*
Y5961680D03*
G54D46*
X4702660Y1424940D03*
X4842660D03*
X5436720Y4968240D03*
X5576720D03*
X5436720Y5151120D03*
X5576720D03*
X6779260Y2508400D03*
Y2368400D03*
X6596380Y2508400D03*
Y2368400D03*
G54D47*
X7853680Y2802560D03*
Y3343580D03*
X7980680Y2802560D03*
X8234680D03*
X8107680D03*
Y3343580D03*
X7980680D03*
X8234680D03*
G54D48*
X6830480Y2860040D03*
Y3301020D03*
X7200900Y2860040D03*
Y3301020D03*
G54D49*
X6763780Y3081020D03*
X7268980D03*
G54D50*
X3355340Y7955560D03*
Y7905560D03*
Y7855560D03*
Y7805560D03*
Y7755560D03*
Y7705560D03*
Y7655560D03*
Y7604760D03*
Y7553960D03*
Y7503160D03*
Y7454900D03*
Y7404100D03*
Y7353300D03*
X3735840D03*
Y7404100D03*
Y7454900D03*
Y7503160D03*
Y7553960D03*
Y7604760D03*
Y7655560D03*
Y7705560D03*
Y7755560D03*
Y7805560D03*
Y7855560D03*
Y7905560D03*
Y7955560D03*
X1275080Y3809720D03*
Y3859720D03*
Y3909720D03*
Y3959720D03*
Y4009720D03*
Y4059720D03*
Y4109720D03*
Y4160520D03*
Y4211320D03*
Y4262120D03*
Y4310380D03*
Y4361180D03*
Y4411980D03*
X894580D03*
Y4361180D03*
Y4310380D03*
Y4262120D03*
Y4211320D03*
Y4160520D03*
Y4109720D03*
Y4059720D03*
Y4009720D03*
Y3959720D03*
Y3909720D03*
Y3859720D03*
Y3809720D03*
X2047240Y6098540D03*
Y6050280D03*
Y5999480D03*
Y5948680D03*
Y5900420D03*
Y5849620D03*
Y5798820D03*
Y5748020D03*
Y5698020D03*
Y5648020D03*
Y5598020D03*
Y5548020D03*
Y5498020D03*
Y5448020D03*
Y5398020D03*
X3148420D03*
Y5448020D03*
Y5498020D03*
Y5548020D03*
Y5598020D03*
Y5648020D03*
Y5698020D03*
Y5748020D03*
Y5798820D03*
Y5849620D03*
Y5900420D03*
Y5948680D03*
Y5999480D03*
Y6050280D03*
Y6098540D03*
G54D51*
X3418840Y7315200D03*
X3469640D03*
X3520440D03*
X3570840D03*
X3620840D03*
X3670840D03*
Y7995560D03*
X3620840D03*
X3570840D03*
X3520440D03*
X3469640D03*
X3418840D03*
X1211580Y4450080D03*
X1160780D03*
X1109980D03*
X1059580D03*
X1009580D03*
X959580D03*
Y3769720D03*
X1009580D03*
X1059580D03*
X1109980D03*
X1160780D03*
X1211580D03*
X3048420Y6139180D03*
X2998420D03*
X2948420D03*
X2898420D03*
X2848420D03*
X2798420D03*
X2748420D03*
X2698420D03*
X2648420D03*
X2598420D03*
X2547620D03*
X2496820D03*
X2446020D03*
X2397760D03*
X2346960D03*
X2296160D03*
X2247900D03*
X2197100D03*
X2146300D03*
Y5358020D03*
X2197100D03*
X2247900D03*
X2296160D03*
X2346960D03*
X2397760D03*
X2446020D03*
X2496820D03*
X2547620D03*
X2598420D03*
X2648420D03*
X2698420D03*
X2748420D03*
X2798420D03*
X2848420D03*
X2898420D03*
X2948420D03*
X2998420D03*
X3048420D03*
G54D52*
X3594180Y1786360D03*
X3644180D03*
X3694180D03*
X3744180D03*
X3794180D03*
X3844180D03*
X3894180D03*
X3944180D03*
X3994180D03*
X4044180D03*
X4094180D03*
X4144180D03*
X4194180D03*
X4244180D03*
X4294180D03*
X4344180D03*
X4394180D03*
X4444180D03*
X4494180D03*
X4544180D03*
X4594180D03*
X4644180D03*
X4694180D03*
X4744180D03*
X4794180D03*
X4844180D03*
X4894180D03*
X4944180D03*
X4994180D03*
X5044180D03*
X5094180D03*
X5144180D03*
X5194180D03*
X5244180D03*
X5294180D03*
X5344180D03*
X5394180D03*
X5444180D03*
X5494180D03*
X5544180D03*
X5594180D03*
X5644180D03*
X5694180D03*
X5744180D03*
X5794180D03*
X5844180D03*
X5894180D03*
X5944180D03*
X5994180D03*
X6044180D03*
X6094180D03*
X6144180D03*
Y4736360D03*
X6094180D03*
X6044180D03*
X5994180D03*
X5944180D03*
X5894180D03*
X5844180D03*
X5794180D03*
X5744180D03*
X5694180D03*
X5644180D03*
X5594180D03*
X5544180D03*
X5494180D03*
X5444180D03*
X5394180D03*
X5344180D03*
X5294180D03*
X5244180D03*
X5194180D03*
X5144180D03*
X5094180D03*
X5044180D03*
X4994180D03*
X4944180D03*
X4894180D03*
X4844180D03*
X4794180D03*
X4744180D03*
X4694180D03*
X4644180D03*
X4594180D03*
X4544180D03*
X4494180D03*
X4444180D03*
X4394180D03*
X4344180D03*
X4294180D03*
X4244180D03*
X4194180D03*
X4144180D03*
X4094180D03*
X4044180D03*
X3994180D03*
X3944180D03*
X3894180D03*
X3844180D03*
X3794180D03*
X3744180D03*
X3694180D03*
X3644180D03*
X3594180D03*
M02*
