*
%FSLAX45Y45*%
%MOMM*%
%ADD10C,1.500000*%
%ADD11R,1.500000X1.500000*%
%ADD12C,0.500000*%
%ADD13C,0.150000*%
%ADD14C,0.300000*%
%ADD15C,0.164000*%
%IPPOS*%
%LNcryptech_28032016.in2*%
%LPD*%
%SRX1Y1I0J0*%
G01*
G75*
G54D10*
X7744460Y1379220D03*
X9903700Y1846580D03*
Y1338580D03*
Y1592580D03*
Y2100580D03*
X2790920Y9649460D03*
X3044920D03*
X2790920Y9903460D03*
X3044920D03*
X3552920Y9649460D03*
X3806920D03*
X3552920Y9903460D03*
X3806920D03*
X5069300Y9649460D03*
X5323300D03*
X5069300Y9903460D03*
X5323300D03*
X5831300Y9649460D03*
X6085300D03*
X5831300Y9903460D03*
X6085300D03*
X1903920Y3335020D03*
Y2904070D03*
G54D11*
X1649920D03*
Y2473110D03*
G54D12*
X4890000Y1980000D03*
X3002650Y942550D03*
X4850000Y3442500D03*
X5267500Y2120000D03*
X5245290Y7890510D03*
Y7989570D03*
X5143690Y7890510D03*
X5245290Y7788910D03*
X5344350D03*
X5143690Y7989570D03*
X5443410Y7588250D03*
X5344350D03*
X9367500Y4730000D03*
X7647180Y4626510D03*
X7642870Y5602770D03*
X3005000Y2327500D03*
X3117500Y2352500D03*
X7487500Y6105000D03*
X7640000Y5892500D03*
X8237500Y5990000D03*
X8860000Y6007500D03*
X7430000Y6142500D03*
X9040440Y5832790D03*
X9072500Y5732500D03*
X6237500Y5787500D03*
X6344990Y5787490D03*
X7117500Y5885000D03*
X7670000Y4950000D03*
X5744020Y5888480D03*
X7615000Y4080000D03*
X9087940Y4152700D03*
X9060000Y4920000D03*
X4800000Y4850000D03*
X4749990Y4899990D03*
X4790000Y4970000D03*
X4700000Y4850000D03*
X7829040Y5029040D03*
X9020000Y5030000D03*
X5443410Y6488950D03*
Y6388950D03*
X5544540Y6288480D03*
X5443410Y6288950D03*
X5544540Y6188480D03*
Y6088480D03*
X5745340D03*
X5845340D03*
X5344350Y7689850D03*
X5044630Y7588250D03*
X5745340Y5988480D03*
X5443410Y7788910D03*
X5344350Y5988950D03*
X4945570Y6188950D03*
X6345340Y6188480D03*
X5044630Y7689850D03*
X5443410Y5888950D03*
X6145340Y5988480D03*
X5143690Y5988950D03*
X5443410Y7890510D03*
X5344350Y5888950D03*
X5945340Y5888480D03*
X4643310Y6588950D03*
X4744910Y6288950D03*
X5245290Y5888950D03*
X5044630Y5988950D03*
X6045340Y5888480D03*
X6245340Y5988480D03*
X4643310Y6488950D03*
X5544540Y5788480D03*
X5745340D03*
X5845340D03*
X5443410Y5788950D03*
X4945570Y7788910D03*
X4744910Y6188950D03*
X6645340Y6288480D03*
X5245290Y5788950D03*
X6045340Y5788480D03*
X4744910Y6088950D03*
X6145340Y5788480D03*
X5143690Y5788950D03*
X6645340Y6188480D03*
X5044630Y5788950D03*
X6745340Y6288480D03*
X4744910Y7788910D03*
X6545340Y5988480D03*
X6445340Y5888480D03*
X4843970Y5888950D03*
X4945570Y5788950D03*
X6545340Y5888480D03*
X4643310Y5988950D03*
X4544250Y7788910D03*
Y5988950D03*
X6745340Y5888480D03*
X4643310Y5788950D03*
Y7989570D03*
X4544250Y5788950D03*
X5544820Y7995920D03*
X5445760D03*
X6540000Y8280000D03*
X9000000Y5130000D03*
X9050000Y5190000D03*
X5143690Y5888950D03*
X7670000Y5180000D03*
X7610000Y5230000D03*
X6345340Y5888480D03*
X7760000Y5050000D03*
X8930000Y4950000D03*
X9079980Y4989990D03*
X9430000Y5030000D03*
X3560000Y2040000D03*
Y2110000D03*
X3810000Y3140000D03*
X3680000Y2130000D03*
X3960000Y2950000D03*
X3930000Y2850000D03*
X3850000Y2890000D03*
X3540000Y2730000D03*
X3550000Y2290000D03*
X3270000Y1980000D03*
X4570000Y4590000D03*
X4744910Y5788950D03*
X5544540Y5988480D03*
X5443410Y5988950D03*
X6182500Y3997500D03*
X9042500Y3977500D03*
X6567500Y3920000D03*
X9062500Y4087500D03*
X7290000Y4900000D03*
X9042500Y4300000D03*
X7640000Y4190000D03*
X6462500Y3280000D03*
X5037750Y4587720D03*
X4292500Y4560000D03*
X8265400Y5285260D03*
X5215000Y4890000D03*
X5302500Y4420000D03*
X7625380Y5086460D03*
X8171140Y4365700D03*
X9052500Y4372500D03*
X9067500Y4230000D03*
X7695380Y4310210D03*
X7625000Y4485000D03*
X9057500Y5445000D03*
X7625000Y5742500D03*
X8217500Y5610000D03*
X3190000Y1810000D03*
X3232500Y1690000D03*
X7890000Y5580000D03*
X7687500Y5552500D03*
X7620000Y5457500D03*
X8790000Y5542500D03*
X7722880Y5390260D03*
X7887500Y5365000D03*
X8932500Y5345000D03*
X5720000Y3007500D03*
X6735330Y5465270D03*
X6687500Y5337500D03*
X6657500Y5467500D03*
X6702500Y4475000D03*
X6690000Y5002500D03*
X6612820Y4965240D03*
X7742500Y4840000D03*
X6970000Y3882500D03*
X7710000Y4007500D03*
X6487500Y2780000D03*
X7890380Y4667730D03*
X6722500Y3965000D03*
X5335000Y2180000D03*
X5137750Y2130100D03*
X9050000Y3890000D03*
X6045000Y3295000D03*
X6197500Y3182830D03*
X7345000Y4687500D03*
X7632500Y4387500D03*
X5370000Y2540000D03*
X7622830Y4817500D03*
X9077500Y4677500D03*
X9057500Y4852500D03*
X8915000Y5235000D03*
X6200000Y4160000D03*
X7830000Y3732500D03*
X5435000Y2480000D03*
X3897500Y3617500D03*
X3812500Y3765000D03*
X3280000Y3020000D03*
X8822500Y4987500D03*
X7177500Y6535000D03*
X7140980Y6680980D03*
X7205000Y6757500D03*
X6967500Y6888900D03*
X8845000Y6437500D03*
X6847500Y6897500D03*
X5245000Y1637500D03*
X5295000Y1967500D03*
X7167500Y3927500D03*
X6617500Y3820000D03*
X6190000Y4230000D03*
X4907500Y4287500D03*
X7795000Y840000D03*
X8435000Y6912500D03*
X7772500Y3962500D03*
X5935000Y4162500D03*
X5597500Y4420000D03*
X5610000Y4490000D03*
X2577500Y2957500D03*
X2580000Y3130000D03*
X2770000Y3067500D03*
X2647500Y2652500D03*
X4592500Y3347500D03*
X6631360Y4484300D03*
X2210000Y2675000D03*
X7827500Y400000D03*
X1682500Y3752500D03*
X8220000Y315000D03*
X4202500Y4190000D03*
X3827500Y3422500D03*
X4185000Y4065000D03*
X3927500Y3392500D03*
X6480000Y4435000D03*
X6455310Y4202500D03*
X6145000Y3430000D03*
X6197500Y3560000D03*
X9060000Y1452500D03*
X7353860Y2382500D03*
X7560000Y3362500D03*
X7690000Y3742500D03*
X7395000Y3717500D03*
X7599680Y2417500D03*
X5730000Y2140000D03*
X5682500Y2192500D03*
X5605000Y2215000D03*
X5190000Y2085000D03*
X7797500Y755000D03*
X6487500Y2636520D03*
X6450000Y2582500D03*
X9310840Y1743340D03*
X9380000Y1512500D03*
X5890000Y2605000D03*
X5947500Y2672500D03*
X4810000Y1965000D03*
X6725000Y4160000D03*
G54D13*
X9660980Y1857860D02*
X9903700Y2100580D01*
X8334960Y1857860D02*
X9660980D01*
X9119920Y1617580D02*
X9307500Y1430000D01*
X8603250Y1617580D02*
X9119920D01*
X8595670Y1610000D02*
X8603250Y1617580D01*
X6472500Y1610000D02*
X8595670D01*
X5827500Y2255000D02*
X6472500Y1610000D01*
X9127500Y1525000D02*
X9280000Y1372500D01*
X8980000Y1525000D02*
X9127500D01*
X8880000Y1425000D02*
X8980000Y1525000D01*
X8012500Y1425000D02*
X8880000D01*
X7925300Y1512200D02*
X8012500Y1425000D01*
X6517480Y1512200D02*
X7925300D01*
X6688750Y2692500D02*
X7566790Y1814460D01*
X8291560D02*
X8334960Y1857860D01*
X7566790Y1814460D02*
X8291560D01*
X4993070Y7670180D02*
Y7715570D01*
X5014850Y7737350D01*
X3002650Y942550D02*
Y954850D01*
X4895000Y3464680D02*
Y4275000D01*
Y3464680D02*
X4897500Y3462170D01*
Y3422820D02*
Y3462170D01*
X4895000Y3420330D02*
X4897500Y3422820D01*
X4895000Y2722500D02*
Y3420330D01*
X7177500Y6535000D02*
Y6542500D01*
X7125920D02*
X7177500D01*
X5544540Y6288480D02*
X5697040Y6440980D01*
X5765020D01*
X5792840Y6468800D01*
Y6503150D01*
X5830670Y6540980D01*
X5865020D01*
X5892840Y6568800D01*
Y6603150D01*
X5930670Y6640980D01*
X5443410Y6288950D02*
X5497040Y6342580D01*
Y6408150D01*
X5524860Y6435980D01*
X5590440D01*
X5695440Y6540980D01*
X5765020D01*
X5792840Y6568800D01*
Y6603150D01*
X5830670Y6640980D01*
X5865020D01*
X5892840Y6668800D01*
Y6707840D01*
X5925980Y6740980D01*
X5443410Y6388950D02*
X5467040Y6412580D01*
Y6445400D01*
X5490910Y6469270D01*
Y6502020D01*
X5524860Y6535980D01*
X5761540Y6637500D02*
X5797840Y6673800D01*
Y6708150D01*
X5825670Y6735980D01*
X5873480D01*
X5897840Y6760340D01*
Y6808150D01*
X5544540Y6188480D02*
X5678170D01*
X5725670Y6235980D01*
X5960980D01*
X5997840Y6272840D01*
Y6308150D01*
X6030670Y6340980D01*
X6265020D01*
X6297840Y6373800D01*
Y6408150D01*
X6325670Y6435980D01*
X6460020D01*
X6497840Y6473800D01*
Y6508150D01*
X6525670Y6535980D01*
X5443410Y6488950D02*
X5460910Y6506450D01*
Y6539280D01*
X5490910Y6569270D01*
Y6602020D01*
X5524860Y6635980D01*
X5564210D01*
X5524860Y6535980D02*
X5618480D01*
X5720000Y6637500D01*
X5761540D01*
X5564210Y6635980D02*
X5573230Y6645000D01*
X5664680D01*
X5697840Y6678170D01*
Y6708150D01*
X5730670Y6740980D01*
X5765020D01*
X5797840Y6773800D01*
Y6808150D01*
X5825670Y6835980D01*
X5830980D01*
X6525670Y6535980D02*
X6780000D01*
X5897840Y6808150D02*
X5927190Y6837500D01*
X5830980Y6835980D02*
X5862500Y6867500D01*
X6807500D01*
X6830000Y6890000D01*
X6780000Y6535980D02*
X6826520Y6582500D01*
X7085920D01*
X7125920Y6542500D01*
X5930670Y6640980D02*
X7120980D01*
X7145980Y6665980D01*
X5925980Y6740980D02*
X6796520D01*
X6842500Y6695000D01*
X7087820D01*
X7121300Y6728480D01*
X7175980D01*
X7205000Y6757500D01*
X6762500Y6837500D02*
X6767500Y6832500D01*
X6904970D01*
X6961370Y6888900D02*
X6967500D01*
X5927190Y6837500D02*
X6762500D01*
X6904970Y6832500D02*
X6961370Y6888900D01*
X5344350Y7788910D02*
X5395910Y7737350D01*
Y7658410D02*
Y7737350D01*
X5373250Y7635750D02*
X5395910Y7658410D01*
X5324670Y7635750D02*
X5373250D01*
X5320430Y7640000D02*
X5324670Y7635750D01*
X5225330Y7640000D02*
X5320430D01*
X5195000Y7670320D02*
X5225330Y7640000D01*
X5195000Y7670320D02*
Y7707170D01*
X5164830Y7737350D02*
X5195000Y7707170D01*
X5014850Y7737350D02*
X5164830D01*
X4965250Y7642350D02*
X4993070Y7670180D01*
X4932500Y7642350D02*
X4965250D01*
X4891470Y7601330D02*
X4932500Y7642350D01*
X4891470Y7568580D02*
Y7601330D01*
X4863650Y7540750D02*
X4891470Y7568580D01*
X4828360Y7540750D02*
X4863650D01*
X4792410Y7504800D02*
X4828360Y7540750D01*
X4792410Y7469520D02*
Y7504800D01*
X4764590Y7441690D02*
X4792410Y7469520D01*
X4729290Y7441690D02*
X4764590D01*
X4690810Y7403210D02*
X4729290Y7441690D01*
X4690810Y7370460D02*
Y7403210D01*
X4662980Y7342630D02*
X4690810Y7370460D01*
X4630230Y7342630D02*
X4662980D01*
X4591750Y7304150D02*
X4630230Y7342630D01*
X4591750Y7268860D02*
Y7304150D01*
X4563930Y7241030D02*
X4591750Y7268860D01*
X4528640Y7241030D02*
X4563930D01*
X4360000Y7072400D02*
X4528640Y7241030D01*
X4360000Y7032470D02*
Y7072400D01*
X4065030Y6737500D02*
X4360000Y7032470D01*
X4993070Y7536690D02*
X5044630Y7588250D01*
X4925890Y7536690D02*
X4993070D01*
X4898070Y7508870D02*
X4925890Y7536690D01*
X4898070Y7476110D02*
Y7508870D01*
X4859590Y7437630D02*
X4898070Y7476110D01*
X4824300Y7437630D02*
X4859590D01*
X4796470Y7409810D02*
X4824300Y7437630D01*
X4796470Y7374510D02*
Y7409810D01*
X4757980Y7336030D02*
X4796470Y7374510D01*
X4725230Y7336030D02*
X4757980D01*
X4697410Y7308200D02*
X4725230Y7336030D01*
X4697410Y7275450D02*
Y7308200D01*
X4658920Y7236970D02*
X4697410Y7275450D01*
X4623640Y7236970D02*
X4658920D01*
X4591750Y7205080D02*
X4623640Y7236970D01*
X4591750Y7070740D02*
Y7205080D01*
X4563930Y7042910D02*
X4591750Y7070740D01*
X4531170Y7042910D02*
X4563930D01*
X4352500Y6864230D02*
X4531170Y7042910D01*
X4352500Y6779970D02*
Y6864230D01*
X4137530Y6565000D02*
X4352500Y6779970D01*
X3742500Y6565000D02*
X4137530D01*
X3602500Y6737500D02*
X4065030D01*
X3503750Y6638750D02*
X3602500Y6737500D01*
X3116250Y6638750D02*
X3503750D01*
X3232500Y1527500D02*
X5135000D01*
X5245000Y1637500D01*
X3077500Y1747500D02*
Y2042500D01*
Y1747500D02*
X3195000Y1630000D01*
X3619680D01*
X3647170Y1602500D01*
X4930000D01*
X5295000Y1967500D01*
X5314680Y2015000D02*
X6554680Y775000D01*
X2810000Y2310000D02*
X3077500Y2042500D01*
X2795000Y3575000D02*
X2867500Y3502500D01*
Y2972500D02*
Y3502500D01*
X2810000Y2915000D02*
X2867500Y2972500D01*
X2795000Y3575000D02*
Y5617500D01*
X2810000Y2310000D02*
Y2915000D01*
X2827500Y3035000D02*
Y3432500D01*
X2500000Y2797500D02*
X2770000Y3067500D01*
X1756490Y2797500D02*
X2500000D01*
X1649920Y2904070D02*
X1756490Y2797500D01*
X2720000Y2255000D02*
Y2927500D01*
Y2255000D02*
X2780000Y2195000D01*
Y1980000D02*
Y2195000D01*
X2720000Y2927500D02*
X2827500Y3035000D01*
X2780000Y1980000D02*
X3232500Y1527500D01*
X6625000Y4482500D02*
X6627500D01*
X6625000D02*
X6626800Y4484300D01*
X6631360D01*
X6627500Y4482500D02*
X6725330Y4384670D01*
X1916810Y2740000D02*
X2560000D01*
X2647500Y2652500D01*
X1649920Y2473110D02*
X1916810Y2740000D01*
X1682500Y3665000D02*
Y3752500D01*
X1502500Y3485000D02*
X1682500Y3665000D01*
X7389680Y272500D02*
X7432170Y315000D01*
X8220000D01*
X2535000Y1867500D02*
Y2350000D01*
Y1867500D02*
X2802500Y1600000D01*
X3055000D01*
X3218320Y1436680D01*
X2210000Y2675000D02*
X2535000Y2350000D01*
X3218320Y1436680D02*
X3344180D01*
X4380860Y400000D01*
X5075000Y2105000D02*
X5165000Y2015000D01*
X5075000Y2105000D02*
Y2542500D01*
X5165000Y2015000D02*
X5314680D01*
X4380860Y400000D02*
X4890000D01*
X4945000Y345000D01*
X7292500D01*
X7347500Y400000D01*
X7827500D01*
X3927500Y3392500D02*
X3931620D01*
X4895000Y4275000D02*
X4907500Y4287500D01*
X4895000Y2722500D02*
X5075000Y2542500D01*
X6725330Y4160000D02*
Y4384670D01*
X6480000Y4397500D02*
Y4435000D01*
Y4397500D02*
X6557500Y4320000D01*
Y4165000D02*
Y4320000D01*
X6287500Y3895000D02*
X6557500Y4165000D01*
X6287500Y3650000D02*
Y3895000D01*
X6197500Y3560000D02*
X6287500Y3650000D01*
X7744460Y1379220D02*
X8986720D01*
X9060000Y1452500D01*
X7353860Y2382500D02*
X7500000Y2528640D01*
X7635000Y2417500D02*
X7735000Y2517500D01*
X7599680Y2417500D02*
X7635000D01*
X6750330Y1367500D02*
X6891660Y1226160D01*
X9374670Y1257500D02*
X9822620D01*
X9903700Y1338580D01*
X5682500Y2192500D02*
X5775000D01*
X5190000Y2085000D02*
X5230320D01*
X5257830Y2057500D01*
X5357500D01*
X6495000Y920000D01*
X7797500Y755000D02*
X7835000D01*
X7875000Y795000D01*
X6554680Y775000D02*
X7690000D01*
X7755000Y840000D01*
X7795000D01*
X5775000Y2192500D02*
X5970000Y1997500D01*
X6032180D01*
X6517480Y1512200D01*
X9280000Y1372500D02*
X9683620D01*
X9903700Y1592580D01*
X5645000Y2255000D02*
X5827500D01*
X9547500Y1430000D02*
X9903700Y1786200D01*
Y1846580D01*
X5605000Y2215000D02*
X5645000Y2255000D01*
X9307500Y1430000D02*
X9547500D01*
X6450000Y2562830D02*
Y2582500D01*
Y2562830D02*
X6759580Y2253240D01*
X6779260D01*
X7310000Y1722500D01*
X9170000D01*
X9380000Y1512500D01*
X9301680Y1752500D02*
X9310840Y1743340D01*
X6142500Y2390000D02*
X6445000Y2692500D01*
X6688750D01*
X5642500Y2390000D02*
X6142500D01*
X3219680Y610000D02*
X3557180Y272500D01*
X2737500Y3522500D02*
X2742500Y3527500D01*
Y6265000D01*
X2737500Y3522500D02*
X2827500Y3432500D01*
X2742500Y6265000D02*
X3116250Y6638750D01*
X1502500Y2395000D02*
X1780830Y2116670D01*
X1502500Y2395000D02*
Y3485000D01*
X1780830Y1969170D02*
Y2116670D01*
Y1969170D02*
X3140000Y610000D01*
X3219680D01*
X3557180Y272500D02*
X7389680D01*
X6495000Y920000D02*
X7825000D01*
X7875000Y870000D01*
Y795000D02*
Y870000D01*
X5267500Y2120000D02*
X5372500D01*
X5642500Y2390000D01*
X5730000Y2037940D02*
X6400440Y1367500D01*
X5730000Y2037940D02*
Y2140000D01*
X6400440Y1367500D02*
X6750330D01*
X7455000Y1226160D02*
X7456860Y1224300D01*
X6891660Y1226160D02*
X7455000D01*
X7456860Y1224300D02*
X9341470D01*
X9374670Y1257500D01*
X6487500Y2636520D02*
X6663480D01*
X7547500Y1752500D01*
X9301680D01*
X7500000Y2528640D02*
Y3302500D01*
X7560000Y3362500D01*
X7395000Y3717500D02*
X7735000Y3377500D01*
Y2517500D02*
Y3377500D01*
X3931620Y3392500D02*
X4152500Y3613380D01*
Y4032500D01*
X4185000Y4065000D01*
X2795000Y5617500D02*
X3742500Y6565000D01*
G54D14*
X5610000Y4490000D02*
Y4495540D01*
G54D15*
X4755000Y3347500D02*
X4850000Y3442500D01*
X4592500Y3347500D02*
X4755000D01*
X4694530Y4512030D02*
X5410000Y5227500D01*
X4694530Y4120240D02*
Y4512030D01*
Y4120240D02*
X4701800Y4112970D01*
Y3691800D02*
Y4112970D01*
X4897370Y7837110D02*
X4945570Y7788910D01*
X4829200Y7837110D02*
X4897370D01*
X4832500Y2037500D02*
X4890000Y1980000D01*
X3960000Y2950000D02*
X4701800Y3691800D01*
X4025700Y8634300D02*
Y8711800D01*
X3552920Y9184580D02*
X4025700Y8711800D01*
X4866250Y8041250D02*
X4897370Y8010130D01*
X4025700Y8634300D02*
X4618750Y8041250D01*
X4866250D01*
X4608320Y7939180D02*
X4663090D01*
X4542500Y8005000D02*
X4608320Y7939180D01*
X4615430Y7989570D02*
X4643310D01*
X4423750Y8181250D02*
X4615430Y7989570D01*
X4117500Y7962500D02*
X4540430D01*
X2889120Y9190880D02*
X4117500Y7962500D01*
X2889120Y9190880D02*
Y9690140D01*
X2790920Y9054080D02*
X3998200Y7846800D01*
X4067820D01*
X4111720Y7890700D01*
X4412820D01*
X2790920Y9054080D02*
Y9649460D01*
X4897370Y7969610D02*
Y8010130D01*
Y7969610D02*
X4925610Y7941370D01*
X4962870D01*
X4996430Y7907810D01*
Y7870550D02*
Y7907810D01*
Y7870550D02*
X5024670Y7842310D01*
X5158450D01*
X5197090Y7803680D01*
Y7768950D02*
Y7803680D01*
Y7768950D02*
X5225330Y7740710D01*
X5293490D01*
X5344350Y7689850D01*
X4592450Y7873480D02*
Y7910480D01*
X4540430Y7962500D02*
X4592450Y7910480D01*
X4663560Y7938710D02*
X4764880D01*
X4663090Y7939180D02*
X4663560Y7938710D01*
X4496050Y7837110D02*
X4544250Y7788910D01*
X4466410Y7837110D02*
X4496050D01*
X5324390Y7842310D02*
X5387350D01*
X5293490Y7873200D02*
X5324390Y7842310D01*
X5293490Y7873200D02*
Y8879970D01*
X4796800Y8448200D02*
Y8774700D01*
Y8448200D02*
X5143690Y8101310D01*
Y7989570D02*
Y8101310D01*
X4765400Y8435190D02*
Y8583580D01*
Y8435190D02*
X5095490Y8105100D01*
Y7969610D02*
Y8105100D01*
X3680000Y9597500D02*
Y9776380D01*
Y9597500D02*
X4448200Y8829300D01*
Y8722180D02*
Y8829300D01*
X4439300Y8713280D02*
X4448200Y8722180D01*
X4439300Y8639690D02*
Y8713280D01*
Y8639690D02*
X4557190Y8521800D01*
X4609220D01*
X4996430Y8134590D01*
Y7969610D02*
Y8134590D01*
X5395210Y7937500D02*
X5442200Y7890510D01*
X5395210Y7937500D02*
Y8208770D01*
X5123730Y7941370D02*
X5161000D01*
X5197090Y7905270D01*
Y7870550D02*
Y7905270D01*
Y7870550D02*
X5245290Y7822340D01*
Y7788910D02*
Y7822340D01*
X4644300Y8704680D02*
X4765400Y8583580D01*
X3806920Y9649460D02*
X4644300Y8812080D01*
Y8704680D02*
Y8812080D01*
X5095490Y7969610D02*
X5123730Y7941370D01*
X5245290Y7890510D02*
Y7917210D01*
Y7989570D02*
Y8661190D01*
X5130180Y7890510D02*
X5143690D01*
X4996430Y7969610D02*
X5024670Y7941370D01*
X5079320D01*
X5130180Y7890510D01*
X3552920Y9903460D02*
X3680000Y9776380D01*
X5617500Y9435660D02*
X5831300Y9649460D01*
X5461800Y8011960D02*
Y8185000D01*
X5617500Y8340700D02*
Y9435660D01*
X5461800Y8185000D02*
X5617500Y8340700D01*
X5665000Y9350000D02*
X5807500Y9492500D01*
X5665000Y8178980D02*
Y9350000D01*
X5544820Y8058800D02*
X5665000Y8178980D01*
X4793110Y7873200D02*
X4829200Y7837110D01*
X4793110Y7873200D02*
Y7910480D01*
X4764880Y7938710D02*
X4793110Y7910480D01*
X2940000Y9760000D02*
X3044920Y9864920D01*
Y9903460D01*
X5191890Y7970610D02*
X5245290Y7917210D01*
X5191890Y7970610D02*
Y8115610D01*
X5036800Y8270700D02*
X5191890Y8115610D01*
X3806920Y9903460D02*
X3962720Y9747660D01*
Y9608780D02*
Y9747660D01*
Y9608780D02*
X4796800Y8774700D01*
X5069300Y9903460D02*
X5167500Y9805260D01*
Y9501400D02*
Y9805260D01*
X5019300Y9353200D02*
X5167500Y9501400D01*
X5019300Y9249680D02*
Y9353200D01*
Y9249680D02*
X5068200Y9200780D01*
Y8997180D02*
Y9200780D01*
X5019300Y8948280D02*
X5068200Y8997180D01*
X5019300Y8887180D02*
Y8948280D01*
Y8887180D02*
X5245290Y8661190D01*
X5387350Y7842310D02*
X5440750Y7788910D01*
X5443410D01*
X5442200Y7890510D02*
X5443410D01*
X5225100Y9805260D02*
X5323300Y9903460D01*
X5225100Y9608780D02*
Y9805260D01*
Y9608780D02*
X5303200Y9530680D01*
Y8889680D02*
Y9530680D01*
X5293490Y8879970D02*
X5303200Y8889680D01*
X5323300Y9649460D02*
X5382500Y9590260D01*
Y8701400D02*
Y9590260D01*
X5329300Y8648200D02*
X5382500Y8701400D01*
X5329300Y8274680D02*
Y8648200D01*
Y8274680D02*
X5395210Y8208770D01*
X5445760Y7995920D02*
X5461800Y8011960D01*
X2790920Y9788340D02*
Y9903460D01*
Y9788340D02*
X2889120Y9690140D01*
X4592450Y7873480D02*
X4628820Y7837110D01*
X4663280D01*
X4711470Y7788910D01*
X4744910D01*
X4412820Y7890700D02*
X4466410Y7837110D01*
X5831300Y9903460D02*
X5962500Y9772260D01*
Y9575000D02*
Y9772260D01*
X5880000Y9492500D02*
X5962500Y9575000D01*
X5807500Y9492500D02*
X5880000D01*
X5544820Y7995920D02*
Y8058800D01*
X6085300Y9903460D02*
X6197500Y9791260D01*
Y8808900D02*
Y9791260D01*
X6146800Y8758200D02*
X6197500Y8808900D01*
X6146800Y8654680D02*
Y8758200D01*
Y8654680D02*
X6197500Y8603980D01*
Y8227500D02*
Y8603980D01*
X5993070Y8023070D02*
X6197500Y8227500D01*
X5993070Y7969610D02*
Y8023070D01*
X5964830Y7941370D02*
X5993070Y7969610D01*
X5927570Y7941370D02*
X5964830D01*
X5893070Y7906870D02*
X5927570Y7941370D01*
X5893070Y7870550D02*
Y7906870D01*
X5864830Y7842310D02*
X5893070Y7870550D01*
X5830100Y7842310D02*
X5864830D01*
X5793070Y7805270D02*
X5830100Y7842310D01*
X5793070Y7768950D02*
Y7805270D01*
X5764830Y7740710D02*
X5793070Y7768950D01*
X5727570Y7740710D02*
X5764830D01*
X5593210Y7606360D02*
X5727570Y7740710D01*
X5593210Y7568290D02*
Y7606360D01*
X5564970Y7540050D02*
X5593210Y7568290D01*
X5423450Y7540050D02*
X5564970D01*
X5375240Y7588250D02*
X5423450Y7540050D01*
X5344350Y7588250D02*
X5375240D01*
X6016800Y8128280D02*
Y8620700D01*
X5958940Y8071800D02*
X5960320D01*
X5893070Y7969610D02*
Y8005930D01*
X5827570Y7941370D02*
X5864830D01*
X5793070Y7870550D02*
Y7906870D01*
X5730100Y7842310D02*
X5764830D01*
X5593210Y7669890D02*
Y7705420D01*
X6085300Y8689200D02*
Y9649460D01*
X6016800Y8620700D02*
X6085300Y8689200D01*
X5960320Y8071800D02*
X6016800Y8128280D01*
X5893070Y8005930D02*
X5958940Y8071800D01*
X5864830Y7941370D02*
X5893070Y7969610D01*
X5793070Y7906870D02*
X5827570Y7941370D01*
X5764830Y7842310D02*
X5793070Y7870550D01*
X5593210Y7705420D02*
X5730100Y7842310D01*
X5564970Y7641650D02*
X5593210Y7669890D01*
X5496810Y7641650D02*
X5564970D01*
X5443410Y7588250D02*
X5496810Y7641650D01*
X6490700Y8103570D02*
Y8230700D01*
X6540000Y8280000D01*
X5993070Y7505550D02*
X6024910Y7537390D01*
X5962170Y7438330D02*
X5993070Y7469230D01*
Y7505550D01*
X6024910Y7537390D02*
X6062170D01*
X6093070Y7568290D01*
Y7604620D01*
X6124910Y7636450D01*
X6159640D01*
X6193070Y7669890D01*
Y7706210D01*
X6224910Y7738050D01*
X6262170D01*
X6293070Y7768950D01*
Y7805270D01*
X6324910Y7837110D01*
X6359640D01*
X6393070Y7870550D01*
Y8005930D01*
X6490700Y8103570D01*
X7672100Y5177900D02*
X8495470D01*
X7670000Y5180000D02*
X7672100Y5177900D01*
X8497570Y5180000D02*
X9040000D01*
X8495470Y5177900D02*
X8497570Y5180000D01*
X8482470Y5209300D02*
X8503160Y5230000D01*
X8442530Y5209300D02*
X8482470D01*
X8421840Y5230000D02*
X8442530Y5209300D01*
X7610000Y5230000D02*
X8421840D01*
X9188040Y4550540D02*
X9367500Y4730000D01*
X7873800Y4550540D02*
X9188040D01*
X7790910Y4633420D02*
X7873800Y4550540D01*
X7654090Y4633420D02*
X7790910D01*
X7647180Y4626510D02*
X7654090Y4633420D01*
X7642870Y5602770D02*
X7647500Y5607400D01*
Y5607500D01*
X7640000Y5615000D02*
X7647500Y5607500D01*
X7600000Y5615000D02*
X7640000D01*
X7565000Y5650000D02*
X7600000Y5615000D01*
X7565000Y5650000D02*
Y5900000D01*
X7537500Y6070000D02*
Y6163280D01*
X7415000Y5947500D02*
X7537500Y6070000D01*
X7065820Y6336680D02*
X7367500Y6035000D01*
X7059690Y6288480D02*
X7320000Y6028170D01*
X6967500Y6240000D02*
X7282500Y5925000D01*
X5293490Y7070450D02*
Y7107710D01*
X5260060Y7037010D02*
X5293490Y7070450D01*
X5225330Y7037010D02*
X5260060D01*
X5197090Y7008780D02*
X5225330Y7037010D01*
X5197090Y6974040D02*
Y7008780D01*
X5163660Y6940610D02*
X5197090Y6974040D01*
X5128120Y6940610D02*
X5163660D01*
X4996430Y6808910D02*
X5128120Y6940610D01*
X4996430Y6771650D02*
Y6808910D01*
X4965530Y6740750D02*
X4996430Y6771650D01*
X4929200Y6740750D02*
X4965530D01*
X4897370Y6708910D02*
X4929200Y6740750D01*
X4897370Y6674190D02*
Y6708910D01*
X4863940Y6640750D02*
X4897370Y6674190D01*
X4728540Y6640750D02*
X4863940D01*
X4676740Y6588950D02*
X4728540Y6640750D01*
X4643310Y6588950D02*
X4676740D01*
X4594360Y6540000D02*
X4643310Y6588950D01*
X4360000Y6540000D02*
X4594360D01*
X4300700Y6480700D02*
X4360000Y6540000D01*
X4091720Y6480700D02*
X4300700D01*
X4006020Y6395000D02*
X4091720Y6480700D01*
X5324390Y7037010D02*
X5359110D01*
X5296150Y7008780D02*
X5324390Y7037010D01*
X5296150Y6971500D02*
Y7008780D01*
X5265250Y6940610D02*
X5296150Y6971500D01*
X5227190Y6940610D02*
X5265250D01*
X5095490Y6808910D02*
X5227190Y6940610D01*
X5095490Y6771650D02*
Y6808910D01*
X5064600Y6740750D02*
X5095490Y6771650D01*
X5028260Y6740750D02*
X5064600D01*
X4996430Y6708910D02*
X5028260Y6740750D01*
X4996430Y6671650D02*
Y6708910D01*
X4965530Y6640750D02*
X4996430Y6671650D01*
X4929200Y6640750D02*
X4965530D01*
X4897370Y6608910D02*
X4929200Y6640750D01*
X4897370Y6574190D02*
Y6608910D01*
X5245290Y5857120D02*
X5296150Y5806250D01*
Y5768980D02*
Y5806250D01*
Y5768980D02*
X5307500Y5757640D01*
X4611020Y4823520D02*
Y5162930D01*
X4668600Y4928600D02*
Y5176100D01*
X7485000Y6107500D02*
Y6165000D01*
X7418200Y6231800D02*
X7485000Y6165000D01*
X7310700Y6231800D02*
X7418200D01*
X8258160Y5942500D02*
X8396840D01*
X8257470Y5941800D02*
X8258160Y5942500D01*
X8217530Y5941800D02*
X8257470D01*
X8216840Y5942500D02*
X8217530Y5941800D01*
X7155000Y6387500D02*
X7310700Y6231800D01*
X5673480Y6088480D02*
X5725280Y6140280D01*
X5544540Y6088480D02*
X5673480D01*
X7459300Y6241480D02*
X7537500Y6163280D01*
X5524570Y6736680D02*
X5597140D01*
X8835390Y6007500D02*
X8860000D01*
X8812330Y5984440D02*
X8835390Y6007500D01*
X8772400Y5984440D02*
X8812330D01*
X8758630Y5998200D02*
X8772400Y5984440D01*
X8245700Y5998200D02*
X8758630D01*
X8237500Y5990000D02*
X8245700Y5998200D01*
X7378620Y6193880D02*
X7430000Y6142500D01*
X7335710Y6193880D02*
X7378620D01*
X7334340Y6192500D02*
X7335710Y6193880D01*
X7267500Y6192500D02*
X7334340D01*
X7065700Y6394300D02*
X7267500Y6192500D01*
X5496340Y6708440D02*
X5524570Y6736680D01*
X4775800Y6088950D02*
X4827610Y6140750D01*
X4965530D02*
X4996430Y6171640D01*
X4827610Y6140750D02*
X4965530D01*
X4996430Y6171640D02*
Y6208910D01*
X5028260Y6240750D01*
X5064600D01*
X5095490Y6271640D01*
Y6308910D01*
X5127330Y6340750D01*
X5163660D01*
X5197090Y6374190D01*
Y6408910D01*
X5228920Y6440750D01*
X5265250D01*
X5296150Y6471650D01*
Y6508910D01*
X5327990Y6540750D01*
X5364320D01*
X5395210Y6571650D01*
Y6608910D01*
X5427050Y6640750D01*
X5463380D01*
X5496340Y6673710D01*
Y6708440D01*
X4744910Y6088950D02*
X4775800D01*
X5027790Y6540280D02*
X5064120D01*
X5296150Y6771650D02*
Y6808910D01*
X5265250Y6740750D02*
X5296150Y6771650D01*
X5228920Y6740750D02*
X5265250D01*
X5197090Y6708910D02*
X5228920Y6740750D01*
X5197090Y6674190D02*
Y6708910D01*
X5163660Y6640750D02*
X5197090Y6674190D01*
X5127330Y6640750D02*
X5163660D01*
X5095490Y6608910D02*
X5127330Y6640750D01*
X5095490Y6571650D02*
Y6608910D01*
X5064120Y6540280D02*
X5095490Y6571650D01*
X5795000Y5720000D02*
X5901400Y5613600D01*
Y5393900D02*
Y5613600D01*
X5892500Y5385000D02*
X5901400Y5393900D01*
X5745340Y5672160D02*
Y5788480D01*
X9040440Y5832790D02*
Y5840440D01*
X9045000Y5845000D01*
X9025000Y5865000D02*
X9045000Y5845000D01*
X8837500Y5865000D02*
X9025000D01*
X8800700Y5901800D02*
X8837500Y5865000D01*
X8437540Y5901800D02*
X8800700D01*
X8396840Y5942500D02*
X8437540Y5901800D01*
X6117500Y5732500D02*
X6172430D01*
X6586800Y5575700D02*
Y5675700D01*
X6497140Y5765360D02*
X6586800Y5675700D01*
X6497140Y5765360D02*
Y5817860D01*
X6475000Y5840000D02*
X6497140Y5817860D01*
X6597500Y5742500D02*
Y5767800D01*
X7037500Y5885000D02*
X7117500D01*
X6885000Y6037500D02*
X7037500Y5885000D01*
X6520000Y6037500D02*
X6885000D01*
X6497140Y6014640D02*
X6520000Y6037500D01*
X6497140Y5940280D02*
Y6014640D01*
X6445340Y5888480D02*
X6497140Y5940280D01*
X6597140Y5768150D02*
X6597500Y5767800D01*
X6597140Y5768150D02*
Y5836680D01*
X6545340Y5888480D02*
X6597140Y5836680D01*
X6697140Y5755360D02*
Y5904840D01*
X6661710Y5940280D02*
X6697140Y5904840D01*
X6625380Y5940280D02*
X6661710D01*
X6577180Y5988480D02*
X6625380Y5940280D01*
X6545340Y5988480D02*
X6577180D01*
X6610000Y4163090D02*
Y4357500D01*
X6567500Y4120590D02*
X6610000Y4163090D01*
X6357500Y4362500D02*
Y5175000D01*
X6307500Y4161800D02*
Y5150000D01*
X6260000Y4220000D02*
Y4267500D01*
X6215700Y4311800D02*
X6260000Y4267500D01*
X6030000Y4390000D02*
Y5130000D01*
X7670000Y4950000D02*
X7731400D01*
X5745340Y6088480D02*
X5795000Y6038820D01*
X5845340Y5758180D02*
X5965000Y5638520D01*
X5845340Y5758180D02*
Y5788480D01*
X5895000Y5767500D02*
X6007500Y5655000D01*
X5997140Y5727500D02*
Y5840280D01*
X6047500Y5542500D02*
Y5677140D01*
X5997140Y5727500D02*
X6047500Y5677140D01*
X5895000Y5767500D02*
Y5840000D01*
X5943480Y5888480D01*
X5945340D01*
X5997140Y5840280D02*
X6045340Y5888480D01*
X6097140Y5752860D02*
Y5940280D01*
X6145340Y5988480D01*
X6082500Y5692500D02*
X6160000D01*
X6045340Y5729660D02*
X6082500Y5692500D01*
X6045340Y5729660D02*
Y5788480D01*
X6097140Y5752860D02*
X6117500Y5732500D01*
X4764880Y5740750D02*
X4793110Y5768980D01*
X4713950Y5788950D02*
X4744910D01*
X5527740Y5771680D02*
X5544540Y5788480D01*
X7615000Y4080000D02*
X7681840D01*
X6745340Y6288480D02*
X7059690D01*
X9087740Y4152500D02*
X9087940Y4152700D01*
X5095490Y6037150D02*
X5143690Y5988950D01*
X4751800Y4801800D02*
X4800000Y4850000D01*
X4680040Y4801800D02*
X4751800D01*
X4700000Y4850000D02*
Y4960000D01*
X5197090Y5908910D02*
X5228170Y5940000D01*
X5341050Y5888950D02*
X5344350D01*
X5245290Y5857120D02*
Y5888950D01*
X9040000Y5180000D02*
X9050000Y5190000D01*
X5140000Y5785260D02*
X5143690Y5788950D01*
X7760000Y5029910D02*
Y5050000D01*
X9080000Y4980000D02*
Y4989970D01*
X9079980Y4989990D02*
X9080000Y4989970D01*
X4587560Y5733200D02*
X4643310Y5788950D01*
X3560000Y2040000D02*
X3610000Y2090000D01*
X4458950Y5788950D02*
X4544250D01*
X4795770Y5871640D02*
Y5908910D01*
X4827610Y5940750D01*
X4440000Y5770000D02*
X4458950Y5788950D01*
X3680000Y2130000D02*
Y2170000D01*
X4612420Y5988950D02*
X4643310D01*
X4564220Y5940750D02*
X4612420Y5988950D01*
X3900000Y2880000D02*
X3930000Y2850000D01*
X3850000Y2890000D02*
Y3090000D01*
X3610000Y2090000D02*
Y2180000D01*
X3560000Y2110000D02*
Y2210000D01*
X4419250Y5940750D02*
X4564220D01*
X3560000Y2210000D02*
X3600000Y2250000D01*
X3610000Y2180000D02*
X3660000Y2230000D01*
X3680000Y2170000D02*
X3720000Y2210000D01*
X4843970Y5857120D02*
Y5888950D01*
X4865970Y5709350D02*
X4945570Y5788950D01*
X4793110Y5806250D02*
X4843970Y5857120D01*
X4408170Y5837150D02*
X4761280D01*
X4795770Y5871640D01*
X4793110Y5768980D02*
Y5806250D01*
X4650000Y4831840D02*
X4680040Y4801800D01*
X4650000Y4831840D02*
Y4910000D01*
X4668600Y4928600D01*
X3600000Y2250000D02*
Y2755000D01*
X3660000Y2230000D02*
Y2770000D01*
X3655000Y2862500D02*
X3720000Y2797500D01*
Y2210000D02*
Y2797500D01*
X3702500Y2890000D02*
X4627500Y1965000D01*
X5228170Y5940000D02*
X5290000D01*
X5341050Y5888950D01*
X5392550Y5932550D02*
X5443410Y5983410D01*
Y5988950D01*
X4700000Y4960000D02*
X4857500Y5117500D01*
X4749990Y4899990D02*
X4788150D01*
X6567500Y3920000D02*
Y4120590D01*
X3900000Y2880000D02*
Y2997500D01*
X4437180Y5586800D02*
X4511800D01*
X4713950Y5788950D01*
X6007500Y5530000D02*
Y5655000D01*
X7640000Y4190000D02*
X7687500D01*
X6645340Y6188480D02*
Y6195340D01*
X6690000Y6240000D01*
X5293300Y6040000D02*
X5344350Y5988950D01*
X5228170Y6040000D02*
X5293300D01*
X5197090Y6008910D02*
X5228170Y6040000D01*
X5197090Y5974190D02*
Y6008910D01*
X5163660Y5940750D02*
X5197090Y5974190D01*
X4827610Y5940750D02*
X4965750D01*
X5013950Y5988950D01*
X5044630D01*
X4982500Y5590000D02*
X5095490Y5702990D01*
X5044630Y5729630D02*
Y5788950D01*
X4797500Y5627500D02*
X4942500D01*
X5044630Y5729630D01*
X4907500Y5670000D02*
X4995000Y5757500D01*
X4525000Y5547500D02*
X4718250Y5740750D01*
X4764880D01*
X4532500Y5500000D02*
X4741850Y5709350D01*
X4865970D01*
X4753980Y5670000D02*
X4907500D01*
X4556250Y4866250D02*
Y5186250D01*
X4515000Y4965000D02*
Y5215000D01*
X4350000Y4800000D02*
X4515000Y4965000D01*
X4350000Y3680000D02*
Y4800000D01*
X3810000Y3140000D02*
X4350000Y3680000D01*
X4292500Y4822500D02*
X4475000Y5005000D01*
X4292500Y4560000D02*
Y4822500D01*
X5567500Y5734760D02*
X5592740Y5760000D01*
X5795000Y5720000D02*
Y6038820D01*
X8917500Y5030000D02*
X9020000D01*
X7625380Y5086460D02*
X7643540D01*
X7648200Y5131800D02*
X7689970D01*
X7641810Y5138190D02*
X7648200Y5131800D01*
X8985680Y4010680D02*
X9062500Y4087500D01*
X8901830Y4095000D02*
X8919830Y4113000D01*
X9008000D01*
X9047500Y4152500D01*
X9087740D01*
X4744910Y6288950D02*
X4796710Y6340750D01*
X4863940D01*
X4892170Y6368980D01*
Y6403710D01*
X4929200Y6440750D01*
X4965530D01*
X4993770Y6468980D01*
Y6506260D01*
X5027790Y6540280D01*
X7652470Y4339300D02*
X7678870Y4365700D01*
X8971840Y4230000D02*
X8982530Y4240700D01*
X9022460D01*
X9033160Y4230000D01*
X9067500D01*
X8610000D02*
X8971840D01*
X8687500Y4095000D02*
X8901830D01*
X8559320Y4010680D02*
X8985680D01*
X7625000Y5742500D02*
X7635000Y5732500D01*
X9064300Y5724300D02*
X9072500Y5732500D01*
X4693110Y6137150D02*
X4744910Y6188950D01*
X3221800Y3910030D02*
Y3949960D01*
Y3910030D02*
X3280000Y3851830D01*
X3232500Y1690000D02*
X3238200Y1695700D01*
Y1943630D01*
X3785000Y6285000D02*
X4324340D01*
X4370040Y6239300D01*
X4895220D01*
X4945570Y6188950D01*
X4180320Y6334300D02*
X4186770Y6340750D01*
X4564220D01*
X4592450Y6368980D01*
Y6438090D01*
X4643310Y6488950D01*
X4860340Y6537150D02*
X4897370Y6574190D01*
X7687500Y5552500D02*
X7792500D01*
X7890000Y5580000D02*
X8005000D01*
X8090000Y5665000D01*
X7792500Y5552500D02*
X7813200Y5531800D01*
X8625700Y5787500D02*
X8876800D01*
X8940000Y5724300D01*
X9064300D01*
X8925000Y5684300D02*
X9092470D01*
X7620000Y5457500D02*
X7623260Y5454240D01*
X7788690D01*
X7790420Y5455960D01*
X7864700D01*
X8235670Y5732500D02*
X8371370Y5868200D01*
X8545000D01*
X8625700Y5787500D01*
X7635000Y5732500D02*
X8235670D01*
X8090000Y5665000D02*
X8275000D01*
X8334300Y5724300D01*
X8885000D01*
X7813200Y5531800D02*
X8403630D01*
X8427540Y5555700D01*
X7864700Y5455960D02*
X7875670Y5445000D01*
X9057500D01*
X7887500Y5365000D02*
X7908200Y5385700D01*
X8891800D02*
X8932500Y5345000D01*
X7908200Y5385700D02*
X8891800D01*
X6345340Y6188480D02*
X6377180D01*
X6425380Y6140280D01*
X6590000Y3712500D02*
X6690000D01*
X5260670Y5577500D02*
X5307500Y5624340D01*
Y5757640D01*
X4790000Y4970000D02*
X4896250Y5076250D01*
X5650700Y5893840D02*
X5745340Y5988480D01*
X6245340Y5979660D02*
Y5988480D01*
Y5979660D02*
X6297140Y5927860D01*
Y5865660D02*
Y5927860D01*
Y5865660D02*
X6327110Y5835690D01*
X6345340Y5888480D02*
X6376520D01*
X6425000Y5840000D01*
X6475000D01*
X6327110Y5835690D02*
X6371810D01*
X6397140Y5810360D01*
Y5772860D02*
Y5810360D01*
Y5772860D02*
X6429720Y5740280D01*
X6477500Y5692500D01*
X6674000Y5526600D02*
X6735330Y5465270D01*
X6495000Y5153450D02*
X6578520Y5236970D01*
X6597500Y5742500D02*
X6630000Y5710000D01*
X6685000D01*
X6868200Y5526800D01*
X6586800Y5575700D02*
X6635900Y5526600D01*
X6674000D01*
X6702500Y4475000D02*
X6717500Y4490000D01*
X7164680Y5556050D02*
X7167500Y5558860D01*
X6780000Y4807500D02*
X7164680Y5192180D01*
Y5556050D01*
X6717500Y4490000D02*
Y4825000D01*
X6901800Y5009300D01*
X6929300D01*
X7062500Y5142500D01*
Y5202500D01*
X6992500Y5272500D02*
X7062500Y5202500D01*
X6992500Y5272500D02*
Y5402500D01*
X7133200Y5543200D01*
X6745340Y5888480D02*
X6748820Y5885000D01*
X6690000Y5002500D02*
X6805000D01*
X6900000Y5097500D01*
Y5217500D01*
X6930000Y5247500D01*
X6868200Y5123200D02*
Y5526800D01*
X6812500Y5067500D02*
X6868200Y5123200D01*
X6660320Y5067500D02*
X6812500D01*
X6612820Y5020000D02*
X6660320Y5067500D01*
X6612820Y4965240D02*
Y5020000D01*
X6657500Y5467500D02*
X6772500Y5352500D01*
Y5272500D02*
Y5352500D01*
X6721030Y5221030D02*
X6772500Y5272500D01*
X6721030Y5161410D02*
Y5221030D01*
X6667120Y5107500D02*
X6721030Y5161410D01*
X6610000Y5107500D02*
X6667120D01*
X6545000Y5042500D02*
X6610000Y5107500D01*
X6083200Y5183200D02*
Y5454300D01*
X6030000Y5130000D02*
X6083200Y5183200D01*
X6007500Y5530000D02*
X6083200Y5454300D01*
X6047500Y5542500D02*
X6215700Y5374300D01*
X6247100Y5210400D02*
X6307500Y5150000D01*
X6247100Y5362100D02*
X6282500Y5397500D01*
X6247100Y5210400D02*
Y5234380D01*
X6246800Y5234680D02*
X6247100Y5234380D01*
X6246800Y5234680D02*
Y5295320D01*
X6247100Y5295620D01*
Y5362100D01*
X6215400Y5221670D02*
X6215700Y5221370D01*
X6215400Y5221670D02*
Y5308330D01*
X6215700Y5308630D01*
Y5374300D01*
X7809070Y4980840D02*
X7849000D01*
X7760000Y5029910D02*
X7809070Y4980840D01*
X8122500Y4842500D02*
X8137100Y4827900D01*
X7742500Y4840000D02*
X7745000Y4842500D01*
X8122500D01*
X8454130Y4310210D02*
X8465040Y4299300D01*
X6690000Y3712500D02*
X6780000Y3802500D01*
Y4807500D01*
X6722500Y3815000D02*
Y3965000D01*
X6670000Y3762500D02*
X6722500Y3815000D01*
X6567500Y3762500D02*
X6670000D01*
X5720000Y3007500D02*
X6182500D01*
X6414300Y3239300D01*
X6153200Y3055700D02*
X6345000Y3247500D01*
X5700040Y3055700D02*
X6153200D01*
X5671800Y3027470D02*
X5700040Y3055700D01*
X5671800Y3021800D02*
Y3027470D01*
X5302500Y2652500D02*
X5671800Y3021800D01*
X5302500Y2292500D02*
Y2652500D01*
X5137750Y2130100D02*
X5140100D01*
X5302500Y2292500D01*
X8980000Y3820000D02*
X9050000Y3890000D01*
X4987500Y4352500D02*
Y4730660D01*
Y4352500D02*
X6045000Y3295000D01*
X6212820Y3182830D02*
X6225000Y3195010D01*
X6197500Y3182830D02*
X6199990D01*
X6212820D01*
X7172500Y4719930D02*
X7553130Y4339300D01*
X7172500Y4719930D02*
Y4935000D01*
X7553130Y4339300D02*
X7652470D01*
X7345000Y4687500D02*
X7797500D01*
X5892500Y4270000D02*
X5940000Y4222500D01*
X4634330Y2037500D02*
X4832500D01*
X7890380Y4667730D02*
X8575230D01*
X8607500Y4700000D01*
X7622830Y4772170D02*
Y4817500D01*
Y4772170D02*
X7658200Y4736800D01*
X8131130D01*
X8165040Y4770700D01*
X8213640D01*
X8262540Y4721800D01*
X8302470D01*
X8330660Y4750000D01*
X7829040Y5029040D02*
X7845000Y5045000D01*
X8902500D01*
X8917500Y5030000D01*
X8825220Y5138200D02*
X8830470Y5143450D01*
X8230190Y5138200D02*
X8235440Y5143450D01*
X8275370D01*
X8280620Y5138200D01*
X8825220D01*
X7880350Y5143450D02*
X7885600Y5138200D01*
X8230190D01*
X7701610Y5143450D02*
X7880350D01*
X8830470D02*
X8986550D01*
X7689970Y5131800D02*
X7701610Y5143450D01*
X8986550D02*
X9000000Y5130000D01*
X7849000Y4980840D02*
X7878160Y5010000D01*
X8817500D01*
X8565400Y4827900D02*
X8605000Y4867500D01*
X8137100Y4827900D02*
X8565400D01*
X9030000Y4980000D02*
X9080000D01*
X9057500Y4657500D02*
X9077500Y4677500D01*
X8660000Y4657500D02*
X9057500D01*
X8330660Y4750000D02*
X8890000D01*
X8975000Y4835000D01*
X9022500Y4920000D02*
X9060000D01*
X8975000Y4835000D02*
X9040000D01*
X9057500Y4852500D01*
X3900000Y2997500D02*
X4517500Y3615000D01*
Y4730000D01*
X4611020Y4823520D01*
X3850000Y3090000D02*
X4397500Y3637500D01*
Y4707500D01*
X4556250Y4866250D01*
X8503160Y5230000D02*
X8915000D01*
X6257500Y4111800D02*
X6307500Y4161800D01*
X6199300Y4111800D02*
X6257500D01*
X6200000Y4160000D02*
X6260000Y4220000D01*
X6199990Y3170000D02*
Y3182830D01*
Y3170000D02*
X6212820Y3182830D01*
X7748170Y3732500D02*
X7830000D01*
X7709960Y3694300D02*
X7748170Y3732500D01*
X3897500Y3617500D02*
Y3680000D01*
X3812500Y3765000D02*
X3897500Y3680000D01*
X3280000Y3020000D02*
Y3851830D01*
X7241800Y4715700D02*
Y4931800D01*
Y4715700D02*
X7467500Y4490000D01*
X7625000D01*
X7172500Y4935000D02*
X7252500Y5015000D01*
X7241800Y4931800D02*
X7290000Y4980000D01*
X7632500Y4387500D02*
X7634300D01*
X7682500Y4435700D01*
X8190700D01*
X8577990Y4262010D02*
X8610000Y4230000D01*
X8970000Y4867500D02*
X9022500Y4920000D01*
X8950000Y4900000D02*
X9030000Y4980000D01*
X8605000Y4867500D02*
X8970000D01*
X8565000Y4900000D02*
X8950000D01*
X8817500Y5010000D02*
X8822500Y5005000D01*
Y4987500D02*
Y5005000D01*
X6987500Y6540280D02*
X6987920Y6540700D01*
X7084300D02*
X7155000Y6470000D01*
X6987920Y6540700D02*
X7084300D01*
X7155000Y6387500D02*
Y6470000D01*
X5692500Y5836950D02*
X5744020Y5888480D01*
X5848200Y5428200D02*
X5867500Y5447500D01*
Y5550000D01*
X5745340Y5672160D02*
X5867500Y5550000D01*
X5935000Y5320000D02*
X5965000Y5350000D01*
Y5638520D01*
X8458200Y4111800D02*
X8559320Y4010680D01*
X8316130Y4111800D02*
X8317530Y4113200D01*
X8357470D01*
X8358870Y4111800D01*
X8458200D01*
X3552920Y9184580D02*
Y9649460D01*
X5362450Y7540050D02*
X5392550Y7509950D01*
X3750000Y2921830D02*
X4634330Y2037500D01*
X3027500Y4174970D02*
X3030380Y4177850D01*
Y4217780D01*
X3027500Y4220660D02*
X3030380Y4217780D01*
X3027500Y4220660D02*
Y5527500D01*
Y3085000D02*
Y4174970D01*
X3492500Y5449300D02*
X3862500Y5819300D01*
X3410000Y5395000D02*
Y5460000D01*
X3210000Y5342500D02*
X3262500Y5290000D01*
X3170000Y1830000D02*
X3190000Y1810000D01*
X3210000Y1971830D02*
X3238200Y1943630D01*
X3210000Y1971830D02*
Y3494300D01*
X3075380Y3628920D02*
X3210000Y3494300D01*
X2960000Y2327500D02*
X3005000D01*
X3027500Y3085000D02*
X3170000Y2942500D01*
X5392550Y7467450D02*
X5421670Y7438330D01*
X5392550Y7467450D02*
Y7509950D01*
X5421670Y7438330D02*
X5962170D01*
X5293490Y7107710D02*
X5327050Y7141270D01*
X5364320D01*
X5392550Y7169510D01*
Y7206770D01*
X5423450Y7237670D01*
X6976650D01*
X7014680Y7275700D01*
X7326800D01*
X7482500Y7120000D01*
Y7062500D02*
Y7120000D01*
X5395210Y7073100D02*
Y7110380D01*
X5426110Y7141270D01*
X6987710D01*
X7007180Y7121800D01*
X5359110Y7037010D02*
X5395210Y7073100D01*
X5384740Y6897500D02*
X5540000D01*
X5684710Y7042210D02*
X5964830D01*
X5965120Y7042500D01*
X6024620D01*
X6024910Y7042210D01*
X6978690D01*
X7007180Y7070700D01*
X7106800D01*
X5296150Y6808910D02*
X5384740Y6897500D01*
X5540000D02*
X5684710Y7042210D01*
X7106800Y7070700D02*
X7314300Y6863200D01*
X7510000Y6432500D02*
Y6635000D01*
X7314300Y6824680D02*
X7357180Y6781800D01*
X7363200D01*
X7510000Y6635000D01*
X7314300Y6824680D02*
Y6863200D01*
X7005000Y6920000D02*
X7190000D01*
X7282900Y6827100D01*
Y6811670D02*
Y6827100D01*
Y6811670D02*
X7396480Y6698090D01*
X7399410D01*
X7459300Y6638200D01*
Y6241480D02*
Y6638200D01*
X5845340Y6088480D02*
X5877180D01*
X5925380Y6040280D01*
X5965310D01*
X5997140Y6072110D01*
Y6108440D01*
X6028980Y6140280D01*
X6265310D01*
X6293540Y6168510D01*
Y6204840D01*
X6328980Y6240280D01*
X6565310D01*
X6597140Y6272110D01*
X5725280Y6140280D02*
X5965310D01*
X5993540Y6168510D01*
Y6204840D01*
X6025380Y6236680D01*
X6261710D01*
X6297140Y6272110D01*
Y6308440D01*
X6328980Y6340280D01*
X6465310D01*
X6497140Y6372110D01*
Y6408440D01*
X6525380Y6436680D01*
X4390000Y5970000D02*
X4419250Y5940750D01*
X3410000Y5460000D02*
X3920000Y5970000D01*
X4390000D01*
X4390320Y5819300D02*
X4408170Y5837150D01*
X3862500Y5819300D02*
X4390320D01*
X3890000Y5770000D02*
X4440000D01*
X4436480Y5587500D02*
X4437180Y5586800D01*
X4525350Y6037150D02*
X5095490D01*
X4385000Y6030000D02*
X4426050Y5988950D01*
X4544250D01*
X4472500Y6090000D02*
X4525350Y6037150D01*
X3862500Y6030000D02*
X4385000D01*
X3259680Y5473200D02*
X3305700D01*
X3862500Y6030000D01*
X3210000Y5423520D02*
X3259680Y5473200D01*
X3210000Y5342500D02*
Y5423520D01*
X3822500Y6090000D02*
X4472500D01*
X4504650Y6129300D02*
X4512500Y6137150D01*
X3786800Y6129300D02*
X4504650D01*
X4512500Y6137150D02*
X4693110D01*
X4643310Y6488950D02*
X4648510D01*
X4696710Y6537150D01*
X4860340D01*
X5127330Y5940750D02*
X5163660D01*
X5095490Y5908910D02*
X5127330Y5940750D01*
X5143690Y5856190D02*
Y5888950D01*
X5095490Y5808910D02*
X5123730Y5837150D01*
X5124650D01*
X5143690Y5856190D01*
X5095490Y5702990D02*
Y5808910D01*
X5062150Y5837150D02*
X5095490Y5870490D01*
X5024670Y5837150D02*
X5062150D01*
X4995010Y5807500D02*
X5024670Y5837150D01*
X4995000Y5807500D02*
X4995010D01*
X5095490Y5870490D02*
Y5908910D01*
X4995000Y5757500D02*
Y5807500D01*
X5592740Y5760000D02*
Y5940280D01*
X5544540Y5988480D02*
X5592740Y5940280D01*
X5567500Y5605590D02*
Y5734760D01*
X5527740Y5622740D02*
Y5771680D01*
X5443410Y5653410D02*
Y5788950D01*
X4896250Y5076250D02*
Y5298750D01*
X5175000Y5577500D01*
X5260670D01*
X4857500Y5117500D02*
Y5310670D01*
X5245290Y5698460D02*
Y5788950D01*
X4857500Y5310670D02*
X5245290Y5698460D01*
X4475000Y5005000D02*
Y5391020D01*
X4753980Y5670000D01*
X5197090Y5704160D02*
Y5908910D01*
X4668600Y5176100D02*
X4887900Y5395400D01*
X4888330D01*
X5197090Y5704160D01*
X4611020Y5162930D02*
X4874890Y5426800D01*
X5140000Y5691480D02*
Y5785260D01*
X4874890Y5426800D02*
X4875320D01*
X5140000Y5691480D01*
X4556250Y5186250D02*
X4771800Y5401800D01*
X4515000Y5215000D02*
X4730000Y5430000D01*
Y5560000D02*
X4797500Y5627500D01*
X4831480Y5590000D02*
X4982500D01*
X4730000Y5430000D02*
Y5560000D01*
X4771800Y5530320D02*
X4831480Y5590000D01*
X4771800Y5401800D02*
Y5530320D01*
X7007180Y7121800D02*
X7361720D01*
X8845000Y6432500D02*
Y6437500D01*
X6645340Y6288480D02*
X6668480D01*
X6716680Y6336680D01*
X6597140Y6272110D02*
Y6308440D01*
X6625380Y6336680D01*
X6661710D01*
X6697140Y6372110D01*
X6525380Y6436680D02*
X6664180D01*
X6697140Y6408440D02*
X6725380Y6436680D01*
X6697140Y6372110D02*
Y6408440D01*
X6700000Y6472500D02*
X6799720D01*
X6867500Y6540280D01*
X6664180Y6436680D02*
X6700000Y6472500D01*
X6867500Y6540280D02*
X6987500D01*
X5597140Y6736680D02*
X5800470Y6940000D01*
X6801830D01*
X6812540Y6950700D01*
X6974300D01*
X7005000Y6920000D01*
X5095490Y7568290D02*
X5123730Y7540050D01*
X5362450D01*
X5044630Y7689850D02*
X5095490Y7638990D01*
Y7568290D02*
Y7638990D01*
X3027500Y5527500D02*
X3785000Y6285000D01*
X2850000Y5582500D02*
X3662500Y6395000D01*
X4006020D01*
X7167500Y3927500D02*
X7171840D01*
X6676740Y3987410D02*
Y4370760D01*
X6617500Y3820000D02*
Y3928170D01*
X6676740Y3987410D01*
X7127500Y4950000D02*
X7227500Y5050000D01*
X7087500Y4380000D02*
Y4981250D01*
X7196250Y5090000D01*
X7035000Y4832500D02*
Y5002500D01*
X7170000Y5137500D01*
X3126800Y4713900D02*
Y5394300D01*
X3594300Y5861800D01*
X3612460D01*
X3640700Y5890030D01*
Y5908200D01*
X3822500Y6090000D01*
X3615700Y5958200D02*
X3786800Y6129300D01*
X3572530Y5958200D02*
X3615700D01*
X3075380Y5461050D02*
X3572530Y5958200D01*
X3075380Y3628920D02*
Y5461050D01*
X3492500Y5293520D02*
X3515700Y5270320D01*
X3492500Y5293520D02*
Y5449300D01*
X3262500Y5050000D02*
X3348200Y4964300D01*
X3262500Y5050000D02*
Y5290000D01*
X3676130Y6334300D02*
X4180320D01*
X3352500Y5337500D02*
X3410000Y5395000D01*
X3605000Y2825000D02*
X3660000Y2770000D01*
X3557500Y5437500D02*
X3890000Y5770000D01*
X3126800Y4713900D02*
X3265700Y4575000D01*
X6030000Y4390000D02*
X6190000Y4230000D01*
X7167500Y5558860D02*
Y5922500D01*
X7135000Y5955000D02*
X7167500Y5922500D01*
X6425380Y6140280D02*
X6852220D01*
X7037500Y5955000D01*
X7135000D01*
X8435000Y6912500D02*
X8460000D01*
X8885000Y5724300D02*
X8925000Y5684300D01*
X8781130Y4960700D02*
X8802540Y4939300D01*
X8919300D01*
X8930000Y4950000D01*
X8165570Y4960700D02*
X8781130D01*
X8162540Y4859300D02*
X8524300D01*
X8565000Y4900000D01*
X7875000Y4610000D02*
X8612500D01*
X7797500Y4687500D02*
X7875000Y4610000D01*
X8612500D02*
X8660000Y4657500D01*
X8923010Y4442500D02*
X8982500D01*
X9052500Y4372500D01*
X8946800Y4395700D02*
X9042500Y4300000D01*
X8775140Y4395700D02*
X8946800D01*
X6921800Y4031100D02*
X7127500Y4236800D01*
Y4950000D01*
X6872500Y4165000D02*
X7087500Y4380000D01*
X6832500Y4630000D02*
X7035000Y4832500D01*
X6697140Y5755360D02*
X6930000Y5522500D01*
Y5247500D02*
Y5522500D01*
X6725380Y6436680D02*
X6967620D01*
X7010000Y6394300D01*
X7065700D01*
X6716680Y6336680D02*
X6799180D01*
X7023220D02*
X7065820D01*
X6858200Y6395700D02*
X6964190D01*
X6799180Y6336680D02*
X6858200Y6395700D01*
X6964190D02*
X7023220Y6336680D01*
X5892500Y4270000D02*
Y5385000D01*
X5935000Y4300000D02*
Y5320000D01*
X5940000Y4167500D02*
Y4222500D01*
X5935000Y4162500D02*
X5940000Y4167500D01*
X5597500Y4420000D02*
X5630000D01*
X2524070Y2904070D02*
X2577500Y2957500D01*
X1903920Y2904070D02*
X2524070D01*
X2108940Y3130000D02*
X2580000D01*
X1903920Y3335020D02*
X2108940Y3130000D01*
X2880000Y2407500D02*
X2960000Y2327500D01*
X2985000Y3000000D02*
Y3544410D01*
X2893560Y3635850D02*
X2985000Y3544410D01*
Y3000000D02*
X3117500Y2867500D01*
X2850000Y3600000D02*
X2927500Y3522500D01*
Y2967500D02*
Y3522500D01*
X2880000Y2920000D02*
X2927500Y2967500D01*
X2850000Y3600000D02*
Y5582500D01*
X2880000Y2407500D02*
Y2920000D01*
X3348200Y2058200D02*
Y4964300D01*
X3270000Y1980000D02*
X3348200Y2058200D01*
X3170000Y1830000D02*
Y2942500D01*
X3117500Y2352500D02*
Y2867500D01*
X3352500Y5030000D02*
Y5337500D01*
Y5030000D02*
X3387500Y4995000D01*
Y2452500D02*
Y4995000D01*
Y2452500D02*
X3550000Y2290000D01*
X3427500Y4722500D02*
X3515700Y4810700D01*
X3427500Y2842500D02*
Y4722500D01*
X3515700Y4810700D02*
Y5270320D01*
X3427500Y2842500D02*
X3540000Y2730000D01*
X3475000Y4700000D02*
X3557500Y4782500D01*
X3475000Y2880000D02*
Y4700000D01*
X3557500Y4782500D02*
Y5437500D01*
X3475000Y2880000D02*
X3600000Y2755000D01*
X3764490Y4364000D02*
X3858200Y4270290D01*
Y3980700D02*
Y4270290D01*
X3702500Y3825000D02*
X3858200Y3980700D01*
X3702500Y2890000D02*
Y3825000D01*
X3655000Y3880000D02*
X3723750Y3948750D01*
X3655000Y2862500D02*
Y3880000D01*
X3605000Y2825000D02*
Y3898750D01*
X3673750Y3967500D01*
X3750000Y2921830D02*
Y3802500D01*
X3825000Y3877500D01*
X3972500D01*
X6215700Y4311800D02*
Y4462540D01*
X6220700Y4467540D01*
Y4507460D01*
X6215700Y4512460D02*
X6220700Y4507460D01*
X6215700Y4512460D02*
Y5221370D01*
X6430000Y4370000D02*
Y5125000D01*
X6575000Y4472500D02*
Y4907500D01*
X6545000Y4937500D02*
X6575000Y4907500D01*
Y4472500D02*
X6676740Y4370760D01*
X6545000Y4937500D02*
Y5042500D01*
X6533750Y4433750D02*
Y4871250D01*
X6495000Y4910000D02*
X6533750Y4871250D01*
Y4433750D02*
X6610000Y4357500D01*
X6495000Y4910000D02*
Y5153450D01*
X6357500Y4362500D02*
X6452820Y4267180D01*
Y4202500D02*
Y4267180D01*
X6430000Y4370000D02*
X6510000Y4290000D01*
X6182500Y3997500D02*
X6330000D01*
X6510000Y4177500D01*
Y4290000D01*
X5935000Y4300000D02*
X5992500Y4242500D01*
X6072500Y3985000D02*
X6199300Y4111800D01*
X5992500Y3582500D02*
Y4242500D01*
Y3582500D02*
X6145000Y3430000D01*
X6072500Y3570660D02*
X6199990Y3443170D01*
Y3182830D02*
Y3443170D01*
X6345000Y3540000D02*
X6567500Y3762500D01*
X6345000Y3247500D02*
Y3540000D01*
X6414300Y3239300D02*
Y3536800D01*
X6590000Y3712500D01*
X6970000Y3512500D02*
Y3882500D01*
X5435000Y2480000D02*
X5436400Y2478600D01*
X5998600D01*
X5370000Y2540000D02*
X5997500D01*
X6970000Y3512500D01*
X6537500Y3280000D02*
X6832500Y3575000D01*
X6462500Y3280000D02*
X6537500D01*
X7690000Y3880000D02*
X7772500Y3962500D01*
X7690000Y3742500D02*
Y3880000D01*
X7292500Y3772500D02*
X7569300D01*
X7647500Y3694300D01*
X5998600Y2478600D02*
X7292500Y3772500D01*
X7647500Y3694300D02*
X7709960D01*
X5335000Y2180000D02*
X5337500D01*
X5592500Y2435000D01*
X6032500D01*
X6377500Y2780000D01*
X6487500D01*
X5890000Y2605000D02*
X5992500D01*
X5947500Y2672500D02*
X5988160D01*
X3044920Y9405080D02*
Y9649460D01*
Y9405080D02*
X4268750Y8181250D01*
X4423750D01*
X2940000Y9250000D02*
Y9760000D01*
Y9250000D02*
X4185000Y8005000D01*
X4542500D01*
X5036800Y8568280D02*
X5045700Y8577180D01*
Y8637820D01*
X5036800Y8646720D02*
X5045700Y8637820D01*
X5036800Y8646720D02*
Y8675270D01*
X4919300Y8792770D02*
X5036800Y8675270D01*
Y8270700D02*
Y8568280D01*
X4919300Y8792770D02*
Y9499460D01*
X5069300Y9649460D01*
X2893560Y3635850D02*
Y5551730D01*
X3676130Y6334300D01*
X3221800Y3949960D02*
X3265700Y3993860D01*
Y4575000D01*
X8145000Y3882500D02*
X8947500D01*
X9042500Y3977500D01*
X7171840Y3927500D02*
X7506350Y4262010D01*
X5992500Y2605000D02*
X6921800Y3534300D01*
Y4031100D01*
X5988160Y2672500D02*
X6872500Y3556840D01*
X6832500Y3575000D02*
Y4630000D01*
X6872500Y3556840D02*
Y4165000D01*
X6072500Y3570660D02*
Y3985000D01*
X8465040Y4299300D02*
X8678740D01*
X8775140Y4395700D01*
X8190700Y4435700D02*
X8242500Y4487500D01*
X8878010D01*
X8923010Y4442500D01*
X8607500Y4700000D02*
X9007500D01*
X9337500Y5030000D01*
X9430000D01*
X7791400Y4890000D02*
X8131840D01*
X7731400Y4950000D02*
X7791400Y4890000D01*
X8131840D02*
X8162540Y4859300D01*
X7800000Y4930000D02*
X8134870D01*
X8165570Y4960700D01*
X7643540Y5086460D02*
X7800000Y4930000D01*
X7722880Y5390260D02*
X7833140Y5280000D01*
X8265400D01*
X8427540Y5555700D02*
X8776800D01*
X8790000Y5542500D01*
X8217500Y5610000D02*
X8232500Y5595000D01*
X8881380D01*
X8920000Y5556380D01*
X9092470Y5684300D02*
X9130000Y5721830D01*
Y6147500D01*
X8845000Y6432500D02*
X9130000Y6147500D01*
X8920000Y5556380D02*
X9036380D01*
X9172500Y5692500D01*
Y6200000D01*
X8460000Y6912500D02*
X9172500Y6200000D01*
X4627500Y1965000D02*
X4810000D01*
X7170000Y5137500D02*
X7215000D01*
X7282500Y5205000D01*
Y5925000D01*
X7196250Y5090000D02*
X7232500D01*
X7320000Y5177500D01*
Y6028170D01*
X7227500Y5050000D02*
X7255000D01*
X7367500Y5162500D01*
Y6035000D01*
X7252500Y5015000D02*
X7300000D01*
X7415000Y5130000D01*
Y5947500D01*
X7290000Y4980000D02*
X7340000D01*
X7457500Y5097500D01*
Y5932500D01*
X7290000Y4900000D02*
X7325000D01*
X7563190Y5138190D01*
X7641810D01*
X7585000Y5552500D02*
X7687500D01*
X7520000Y5617500D02*
X7585000Y5552500D01*
X7640000Y5892500D02*
X7690000Y5942500D01*
X8216840D01*
X7520000Y5617500D02*
Y5920000D01*
X7457500Y5932500D02*
X7617500Y6092500D01*
Y6325000D01*
X7510000Y6432500D02*
X7617500Y6325000D01*
X7520000Y5920000D02*
X7707500Y6107500D01*
Y6776020D01*
X7361720Y7121800D02*
X7707500Y6776020D01*
X7565000Y5900000D02*
X7757500Y6092500D01*
Y6787500D01*
X7482500Y7062500D02*
X7757500Y6787500D01*
X6690000Y6240000D02*
X6967500D01*
X6748820Y5885000D02*
X6927500D01*
X7133200Y5679300D01*
Y5543200D02*
Y5679300D01*
X6160000Y5692500D02*
X6282500Y5570000D01*
Y5397500D02*
Y5570000D01*
X6172430Y5732500D02*
X6320000Y5584930D01*
Y5392500D02*
Y5584930D01*
X6145340Y5788480D02*
X6160860D01*
X6351400Y5597940D01*
X6237500Y5787500D02*
X6387500Y5637500D01*
X6477500Y5592500D02*
Y5692500D01*
Y5592500D02*
X6602500Y5467500D01*
X6657500D01*
X6437500Y5552500D02*
X6610000Y5380000D01*
X6437500Y5552500D02*
Y5670000D01*
X6344990Y5787490D02*
Y5762510D01*
X6387500Y5540000D02*
Y5637500D01*
Y5540000D02*
X6578520Y5348980D01*
Y5236970D02*
Y5348980D01*
X6610000Y5380000D02*
X6645000D01*
X6687500Y5337500D01*
X6351400Y5501100D02*
Y5597940D01*
X6357500Y5175000D02*
X6400720Y5218220D01*
X6430000Y5125000D02*
X6432120Y5127120D01*
X6400720Y5218220D02*
Y5311780D01*
X6320000Y5392500D02*
X6400720Y5311780D01*
X6351400Y5501100D02*
X6432120Y5420380D01*
Y5127120D02*
Y5420380D01*
X5630000Y4420000D02*
X5848200Y4638200D01*
Y5428200D01*
X5692500Y5185670D02*
X5707080Y5171080D01*
X5692500Y5185670D02*
Y5836950D01*
X5302500Y4420000D02*
X5707080Y4824580D01*
Y5171080D01*
X5580000Y5157500D02*
X5650700Y5228200D01*
X5580000Y5129980D02*
Y5157500D01*
X5650700Y5228200D02*
Y5893840D01*
X5037750Y4587720D02*
X5580000Y5129980D01*
X5443410Y5888950D02*
X5496340Y5836020D01*
Y5646340D02*
Y5836020D01*
X5215000Y4890000D02*
X5495000Y5170000D01*
Y5533090D01*
X5567500Y5605590D01*
X4987500Y4730660D02*
X5452500Y5195660D01*
Y5547500D01*
X5527740Y5622740D01*
X5410000Y5227500D02*
Y5560000D01*
X5496340Y5646340D01*
X5245000Y5455000D02*
X5443410Y5653410D01*
X5066560Y4988870D02*
Y5025200D01*
X5245000Y5203640D01*
Y5455000D01*
X4570000Y4590000D02*
X4667680D01*
X5066560Y4988870D01*
X5183980Y5537500D02*
X5277500D01*
X5392550Y5652550D01*
Y5932550D01*
X4788150Y4899990D02*
X4935000Y5046830D01*
Y5288520D01*
X5183980Y5537500D01*
X3827500Y3422500D02*
X4110000Y3705000D01*
Y4097500D01*
X4202500Y4190000D01*
X3972500Y3877500D02*
X4060700Y3965700D01*
Y5228200D01*
X4332500Y5500000D01*
X4532500D01*
X3920000Y5155000D02*
X4312500Y5547500D01*
X4525000D01*
X3764490Y4364000D02*
Y4459490D01*
X3920000Y4615000D01*
Y5155000D01*
X3723750Y3948750D02*
Y5176250D01*
X4135000Y5587500D01*
X4436480D01*
X3673750Y3967500D02*
Y5183750D01*
X4223200Y5733200D01*
X4587560D01*
X7772500Y3887500D02*
Y3962500D01*
Y3887500D02*
X7840000Y3820000D01*
X8980000D01*
X7710000Y4007500D02*
X7713200Y4010700D01*
X8016800D01*
X8145000Y3882500D01*
X8561560Y4220940D02*
X8687500Y4095000D01*
X7687500Y4190000D02*
X7718440Y4220940D01*
X7681840Y4080000D02*
X7713640Y4111800D01*
X8316130D01*
X7718440Y4220940D02*
X7786560D01*
X7805000Y4202500D01*
X8202500D01*
X8220940Y4220940D01*
X8561560D01*
X7800490Y4262010D02*
X7825000Y4237500D01*
X8190490D01*
X8215000Y4262010D01*
X7506350D02*
X7800490D01*
X8215000D02*
X8577990D01*
X7695380Y4310210D02*
X7809790D01*
X7842500Y4277500D01*
X8165000D01*
X7678870Y4365700D02*
X7809300D01*
X7860000Y4315000D01*
X8120440D01*
X8171140Y4365700D01*
X8171800D01*
X8165000Y4277500D02*
X8197710Y4310210D01*
X8454130D01*
X6344990Y5762510D02*
X6437500Y5670000D01*
M02*
