*
%FSLAX45Y45*%
%MOMM*%
%ADD10C,1.700000*%
%ADD11C,1.400000*%
%ADD12C,4.600000*%
%ADD13C,1.300000*%
%ADD14O,3.600000X1.200000*%
%ADD15C,0.650000*%
%ADD16C,0.900000*%
%ADD17O,1.200000X3.600000*%
%ADD18C,1.000000*%
%IPPOS*%
%LNcryptech_28032016.in3*%
%LPD*%
%SRX1Y1I0J0*%
G01*
G75*
G36*
X9680000Y9430000D02*
Y9470000D01*
X9683280Y9501190D01*
X9692960Y9531010D01*
X9708640Y9558170D01*
X9729630Y9581470D01*
X9755000Y9599900D01*
X9783640Y9612660D01*
X9814320Y9619180D01*
X9845680D01*
X9876350Y9612660D01*
X9905000Y9599900D01*
X9930370Y9581470D01*
X9951350Y9558170D01*
X9967030Y9531010D01*
X9976720Y9501190D01*
X9980000Y9470000D01*
Y9430000D01*
X9976240Y9396620D01*
X9965140Y9364920D01*
X9947270Y9336480D01*
X9923520Y9312730D01*
X9895080Y9294850D01*
X9863380Y9283760D01*
X9830000Y9280000D01*
X9796620Y9283760D01*
X9764910Y9294850D01*
X9736470Y9312730D01*
X9712720Y9336480D01*
X9694850Y9364920D01*
X9683760Y9396620D01*
X9680000Y9430000D01*
G37*
G36*
X180000D02*
Y9470000D01*
X183280Y9501190D01*
X192970Y9531010D01*
X208650Y9558170D01*
X229630Y9581470D01*
X255000Y9599900D01*
X283650Y9612660D01*
X314320Y9619180D01*
X345680D01*
X376350Y9612660D01*
X405000Y9599900D01*
X430370Y9581470D01*
X451350Y9558170D01*
X467030Y9531010D01*
X476720Y9501190D01*
X480000Y9470000D01*
Y9430000D01*
X476240Y9396620D01*
X465140Y9364920D01*
X447270Y9336480D01*
X423520Y9312730D01*
X395080Y9294850D01*
X363380Y9283760D01*
X330000Y9280000D01*
X296620Y9283760D01*
X264920Y9294850D01*
X236470Y9312730D01*
X212720Y9336480D01*
X194850Y9364920D01*
X183760Y9396620D01*
X180000Y9430000D01*
G37*
G54D10*
X5445980Y451600D03*
X5005000D03*
X7245980D03*
X6805000D03*
G54D11*
X7490460Y1125220D03*
Y1379220D03*
X7236460Y1125220D03*
X7744460D03*
Y1379220D03*
X9474200Y3370580D03*
Y3116580D03*
X8784700Y2862580D03*
Y3116580D03*
X9038700D03*
Y2862580D03*
X8784700Y3370580D03*
X9038700D03*
X6337680Y9174480D03*
X6591680D03*
X2790920Y9649460D03*
X3044920D03*
X3298920D03*
X2790920Y9903460D03*
X3044920D03*
X3552920Y9649460D03*
X3298920Y9903460D03*
X4060920Y9649460D03*
X3806920D03*
X4060920Y9903460D03*
X3552920D03*
X3806920D03*
X5069300Y9649460D03*
X5323300D03*
X5577300D03*
X5069300Y9903460D03*
X5323300D03*
X5831300Y9649460D03*
X5577300Y9903460D03*
X6339300Y9649460D03*
X6085300D03*
X6339300Y9903460D03*
X5831300D03*
X6085300D03*
X9903700Y6332220D03*
Y6840220D03*
Y6586220D03*
Y7602220D03*
Y7856220D03*
Y7094220D03*
Y7348220D03*
X9474200Y2100600D03*
Y2354600D03*
X1649920Y3335020D03*
X1903920D03*
X1649920Y2904070D03*
X1903920D03*
X1649920Y2473110D03*
X2659380Y2042160D03*
X2913380D03*
X1897380D03*
X2405380D03*
X2151380D03*
X3850640Y1125220D03*
X4104640D03*
X4358640D03*
Y1379220D03*
X4104640D03*
G54D12*
X330000Y390000D03*
X9830000D03*
G54D13*
X9903700Y1846580D03*
Y2862580D03*
Y3116580D03*
Y1338580D03*
Y1592580D03*
Y1084580D03*
Y2100580D03*
Y2354580D03*
Y2608580D03*
G54D14*
X1280000Y9478400D03*
Y8898400D03*
G54D15*
X8622920Y1570080D03*
X8557500Y1520000D03*
X5462770Y4422720D03*
X4742730Y4140200D03*
X5395000Y4420000D03*
X5870000Y4182390D03*
X5882790Y4055200D03*
X8455410Y1510070D03*
X8755000Y1502500D03*
X8867930Y1500070D03*
X8912500Y1952500D03*
X8817930Y2065100D03*
X8752500Y2067350D03*
X8410410Y2077600D03*
X1742500Y1342500D03*
X1627500Y1232500D03*
X1555000Y1245000D03*
X1210060Y1250060D03*
X1670000Y842500D03*
X1360000Y717500D03*
X1751250Y568750D03*
X1355000Y440000D03*
X1112500Y740000D03*
X5044630Y7788910D03*
X8279770Y592500D03*
X1395000Y995000D03*
X7575000Y2167500D03*
X7720000Y2010000D03*
X7725000Y1670000D03*
X4240000Y3150000D03*
X6917500Y3280000D03*
X7612500Y1675000D03*
X7030000Y2087500D03*
X4890000Y1980000D03*
X5042750Y3145150D03*
X5092500Y3100000D03*
X4800230Y3112650D03*
X5452770Y3695180D03*
X7945000Y2155000D03*
X7052500Y1677500D03*
X7585000Y2807500D03*
X8784700Y3737800D03*
X3780000Y2532500D03*
X4590000Y3237500D03*
X3865000Y2515000D03*
X4592500Y3165000D03*
X3002650Y942550D03*
X2923830Y945000D03*
X5412500Y3595000D03*
X5392500Y3660000D03*
X4850000Y3442500D03*
X4702500Y3605000D03*
X5545270Y1942590D03*
X5267500Y2120000D03*
X4425000Y1655000D03*
X6957500Y2700000D03*
X6725920Y1208420D03*
X6911340Y1273660D03*
X5143690Y7788910D03*
X4945570Y7890510D03*
X5245290D03*
Y7989570D03*
X5143690Y7890510D03*
X5245290Y7788910D03*
X5344350D03*
X5143690Y7989570D03*
X4945570D03*
X5443410Y7588250D03*
X5344350D03*
X5545010D03*
X5744870D03*
X5344350Y7489190D03*
X8527920Y5330260D03*
X8462500Y5257500D03*
X9013740Y4598740D03*
X7845000Y4785000D03*
X9367500Y4730000D03*
X7647180Y4626510D03*
X7220220Y5809780D03*
X7642870Y5602770D03*
X3005000Y2327500D03*
X3117500Y2352500D03*
X9000000Y5780700D03*
X5255000Y5640000D03*
X6012500Y2342500D03*
X6050000Y2230000D03*
X8410000Y5820000D03*
X7487500Y6105000D03*
X7640000Y5892500D03*
X8322500Y5887500D03*
X8237500Y5990000D03*
X6082500Y2107500D03*
X8860000Y6007500D03*
X7430000Y6142500D03*
X8487910Y6047800D03*
X6490000Y2176970D03*
X6477500Y2097500D03*
X9040440Y5832790D03*
X9072500Y5732500D03*
X6237500Y5787500D03*
X6344990Y5787490D03*
X8457500Y5950000D03*
X7117500Y5885000D03*
X7670000Y4950000D03*
X5744020Y5888480D03*
X7615000Y4080000D03*
X9087940Y4152700D03*
X9060000Y4920000D03*
X4800000Y4850000D03*
X4749990Y4899990D03*
X4790000Y4970000D03*
X4700000Y4850000D03*
X7829040Y5029040D03*
X9020000Y5030000D03*
X4844000Y6988810D03*
X4744900D03*
X4643310D03*
X5544140Y6989680D03*
X5745340Y6989280D03*
Y6788480D03*
X5544540Y6688480D03*
X5845340Y6989280D03*
X5745340Y6688480D03*
X5845340Y6788480D03*
X5443410Y6988810D03*
X5545010Y7090410D03*
X5443410Y6788950D03*
X5744870Y7090410D03*
X5845340Y6688480D03*
X5443410Y6688950D03*
X5844870Y7090410D03*
X5443410D03*
X5344350Y6988810D03*
X5545010Y7189470D03*
X5544540Y6588480D03*
X5945340Y6989280D03*
X5744870Y7189470D03*
X5745340Y6588480D03*
X5945340Y6788480D03*
X5344350Y6688950D03*
X5844870Y7189470D03*
X5845340Y6588480D03*
X5945340Y6688480D03*
X5344350Y7090410D03*
X5443410Y6588950D03*
X5944870Y7090410D03*
X5245290Y6988810D03*
X5545010Y7288530D03*
X5245290Y6788950D03*
X5744870Y7288530D03*
X5544540Y6488480D03*
X6045340Y6989280D03*
X5745340Y6488480D03*
X6045340Y6788480D03*
X5344350Y7189470D03*
Y6588950D03*
X5944870Y7189470D03*
X5945340Y6588480D03*
X5245290Y6688950D03*
X5844870Y7288530D03*
X5245290Y7090410D03*
X5443410Y7288530D03*
X5845340Y6488480D03*
X6045340Y6688480D03*
X5443410Y6488950D03*
X6044870Y7090410D03*
X5245290Y7189470D03*
X5344350Y7288530D03*
X5245290Y6588950D03*
X5944870Y7288530D03*
X5344350Y6488950D03*
X6044870Y7189470D03*
X5945340Y6488480D03*
X6045340Y6588480D03*
X6145340Y6989280D03*
X5745340Y6388480D03*
X6145340Y6788480D03*
X5143690Y6988810D03*
X5545010Y7390130D03*
X5143690Y6788950D03*
X5744870Y7390130D03*
X5845340Y6388480D03*
X6145340Y6688480D03*
X5443410Y6388950D03*
X6144870Y7090410D03*
X5143690Y6688950D03*
X5844870Y7390130D03*
X5143690Y7090410D03*
X5443410Y7390130D03*
X5245290Y7288530D03*
X6044870D03*
X6045340Y6488480D03*
X5344350Y6388950D03*
X6144870Y7189470D03*
X5945340Y6388480D03*
X6145340Y6588480D03*
X5344350Y7390130D03*
X5143690Y6588950D03*
X5944870Y7390130D03*
X5044630Y6788950D03*
X5744870Y7489190D03*
X5544540Y6288480D03*
X6245340Y6989280D03*
X5745340Y6288480D03*
X6245340Y6788480D03*
X5245290Y6388950D03*
X6144870Y7288530D03*
X5044630Y6688950D03*
X5844870Y7489190D03*
X5044630Y7090410D03*
X5443410Y7489190D03*
X5245290Y7390130D03*
X5845340Y6288480D03*
X6245340Y6688480D03*
X6045340Y6388480D03*
X6145340Y6488480D03*
X5443410Y6288950D03*
X6244870Y7090410D03*
X5143690Y6488950D03*
X6044870Y7390130D03*
X5044630Y7189470D03*
Y6588950D03*
X5944870Y7489190D03*
X5344350Y6288950D03*
X6244870Y7189470D03*
X5945340Y6288480D03*
X6245340Y6588480D03*
X6145340Y6388480D03*
X5143690Y6388950D03*
X6144870Y7390130D03*
X5143690D03*
X4945570Y6988810D03*
Y6788950D03*
X5044630Y7288530D03*
X5245290Y6288950D03*
X5044630Y6488950D03*
X6044870Y7489190D03*
X5544540Y6188480D03*
X6345340Y6989280D03*
X5745340Y6188480D03*
X6345340Y6788480D03*
X6245340Y6488480D03*
X4945570Y6688950D03*
X5844870Y7588250D03*
X4945570Y7090410D03*
X5845340Y6188480D03*
X6345340Y6688480D03*
X5443410Y6188950D03*
X6344870Y7090410D03*
X4945570Y7189470D03*
X5944870Y7588250D03*
X5344350Y6188950D03*
X6344870Y7189470D03*
X5945340Y6188480D03*
X6345340Y6588480D03*
X5044630Y6388950D03*
X6144870Y7489190D03*
X6145340Y6288480D03*
X6245340Y6388480D03*
X5044630Y7390130D03*
X5143690Y7489190D03*
Y6288950D03*
X6244870Y7390130D03*
X4945570Y7288530D03*
Y6488950D03*
X6044870Y7588250D03*
X5245290Y6188950D03*
X6344870Y7288530D03*
X6045340Y6188480D03*
X5544540Y6088480D03*
X6445340Y6989280D03*
X5745340Y6088480D03*
X5545010Y7689850D03*
X4843970Y6788950D03*
X5744870Y7689850D03*
X5845340Y6088480D03*
X6445340Y6688480D03*
X6444870Y7090410D03*
X4843970Y6688950D03*
X5844870Y7689850D03*
X4843970Y7090410D03*
X5443410Y7689850D03*
X5044630Y7489190D03*
Y6288950D03*
X6244870Y7489190D03*
X6245340Y6288480D03*
X4945570Y6388950D03*
X6144870Y7588250D03*
X4945570Y7390130D03*
X5143690Y7588250D03*
X6444870Y7189470D03*
X5945340Y6088480D03*
X6445340Y6588480D03*
X6145340Y6188480D03*
X6345340Y6388480D03*
X4843970Y7189470D03*
X5344350Y7689850D03*
X4843970Y6588950D03*
X5944870Y7689850D03*
X6344870Y7390130D03*
X5245290Y6088950D03*
X6444870Y7288530D03*
X4843970D03*
X6045340Y6088480D03*
X6445340Y6488480D03*
X4843970Y6488950D03*
X6044870Y7689850D03*
X4945570Y7489190D03*
X5044630Y7588250D03*
X4945570Y6288950D03*
X6244870Y7588250D03*
X5545010Y7788910D03*
X5744870D03*
X6545340Y6989280D03*
X5745340Y5988480D03*
X6545340Y6788480D03*
X5044630Y6188950D03*
X6344870Y7489190D03*
X6345340Y6288480D03*
X4744910Y6688950D03*
X5844870Y7788910D03*
X5443410D03*
X6545340Y6688480D03*
X6544870Y7090410D03*
X6145340Y6088480D03*
X6445340Y6388480D03*
X4843970Y6388950D03*
X6144870Y7689850D03*
X5143690Y6088950D03*
X6444870Y7390130D03*
X4744910Y7189470D03*
Y6588950D03*
X5944870Y7788910D03*
X5344350Y5988950D03*
X5945340Y5988480D03*
X6545340Y6588480D03*
X4945570Y7588250D03*
X4744910Y7288530D03*
X4945570Y6188950D03*
X6344870Y7588250D03*
X4744910Y6488950D03*
X6044870Y7788910D03*
X5245290Y5988950D03*
X6544870Y7288530D03*
X6045340Y5988480D03*
X6545340Y6488480D03*
X6345340Y6188480D03*
X5044630Y6088950D03*
X6444870Y7489190D03*
X6245340Y6088480D03*
X6445340Y6288480D03*
X4843970Y7489190D03*
X5044630Y7689850D03*
X6244870D03*
X5544540Y5888480D03*
X6645340Y6989280D03*
Y6788480D03*
X5545010Y7890510D03*
X4643310Y6788950D03*
X5744870Y7890510D03*
X4744910Y6388950D03*
X6144870Y7788910D03*
X4744910Y7390130D03*
X5845340Y5888480D03*
X6645340Y6688480D03*
X5443410Y5888950D03*
X6644870Y7090410D03*
X6145340Y5988480D03*
X6545340Y6388480D03*
X5143690Y5988950D03*
X6544870Y7390130D03*
X5844870Y7890510D03*
X4643310Y7090410D03*
X5443410Y7890510D03*
X5344350Y5888950D03*
X6644870Y7189470D03*
X5945340Y5888480D03*
X6645340Y6588480D03*
X4643310Y7189470D03*
Y6588950D03*
X5944870Y7890510D03*
X4945570Y6088950D03*
X6444870Y7588250D03*
X4843970D03*
X6345340Y6088480D03*
X6445340Y6188480D03*
X4843970Y6188950D03*
X6344870Y7689850D03*
X4744910Y7489190D03*
Y6288950D03*
X6244870Y7788910D03*
X5245290Y5888950D03*
X6644870Y7288530D03*
X5044630Y5988950D03*
X6544870Y7489190D03*
X6045340Y5888480D03*
X6645340Y6488480D03*
X6245340Y5988480D03*
X6545340Y6288480D03*
X4643310Y7288530D03*
Y6488950D03*
X6044870Y7890510D03*
X5544540Y5788480D03*
X4544250Y6988810D03*
X6745340Y6989280D03*
X5745340Y5788480D03*
X4544250Y6788950D03*
X5744870Y7989570D03*
X6644870Y7390130D03*
X4643310Y6388950D03*
X6144870Y7890510D03*
X4643310Y7390130D03*
X5845340Y5788480D03*
X5844870Y7989570D03*
X5443410Y5788950D03*
X4544250Y7090410D03*
X6744870D03*
X6445340Y6088480D03*
X4843970Y6088950D03*
X6444870Y7689850D03*
X4843970D03*
X4744910Y7588250D03*
X4945570Y7788910D03*
Y5988950D03*
X6544870Y7588250D03*
X4744910Y6188950D03*
X6344870Y7788910D03*
X6345340Y5988480D03*
X6545340Y6188480D03*
X4544250Y7189470D03*
X6744870D03*
X5945340Y5788480D03*
X4544250Y6588950D03*
X6745340Y6588480D03*
X5944870Y7989570D03*
X6245340Y5888480D03*
X6645340Y6288480D03*
X4643310Y7489190D03*
X5044630Y7890510D03*
X4643310Y6288950D03*
X6244870Y7890510D03*
X5245290Y5788950D03*
X4544250Y7288530D03*
X6744870D03*
X6045340Y5788480D03*
X4544250Y6488950D03*
X6044870Y7989570D03*
X4744910Y6088950D03*
X6444870Y7788910D03*
X4744910Y7689850D03*
X4843970Y7788910D03*
X6445340Y5988480D03*
X4843970Y5988950D03*
X6544870Y7689850D03*
X6145340Y5788480D03*
X6745340Y6388480D03*
X6144870Y7989570D03*
X5143690Y5788950D03*
X4544250Y7390130D03*
X6744870D03*
X4945570Y5888950D03*
X6644870Y7588250D03*
X6645340Y6188480D03*
X4643310Y7588250D03*
Y6188950D03*
X6344870Y7890510D03*
X5044630Y5788950D03*
X6744870Y7489190D03*
X4544250Y6288950D03*
X6745340Y6288480D03*
X6244870Y7989570D03*
X4744910Y7788910D03*
X6544870D03*
X6545340Y5988480D03*
X6445340Y5888480D03*
X6645340Y6088480D03*
X4843970Y5888950D03*
X6644870Y7689850D03*
X4643310Y6088950D03*
X6444870Y7890510D03*
X4643310Y7689850D03*
X4843970Y7890510D03*
X4945570Y5788950D03*
X4544250Y7588250D03*
X6744870D03*
X4544250Y6188950D03*
X6745340Y6188480D03*
X6344870Y7989570D03*
X4744910Y5888950D03*
X6644870Y7788910D03*
X6545340Y5888480D03*
X6645340Y5988480D03*
X4744910Y7890510D03*
X4643310Y5988950D03*
X6544870Y7890510D03*
X4544250Y6088950D03*
X6745340Y6088480D03*
X6444870Y7989570D03*
X4544250Y7689850D03*
X6744870D03*
X4843970Y7989570D03*
X6645340Y5888480D03*
X4643310Y5888950D03*
X6644870Y7890510D03*
X4544250Y7788910D03*
X4744910Y7989570D03*
X6545340Y5788480D03*
X4544250Y5988950D03*
X6745340Y5988480D03*
X6544870Y7989570D03*
X6645340Y5788480D03*
X4544250Y5888950D03*
X6745340Y5888480D03*
X6644870Y7989570D03*
X4643310Y5788950D03*
X4544250Y7890510D03*
X6744870D03*
X4643310Y7989570D03*
X4544250Y5788950D03*
X6745340Y5788480D03*
X6744870Y7989570D03*
X5542470Y6788950D03*
X4643120Y7890980D03*
X5641340Y7995920D03*
X5544820D03*
X5445760D03*
X9410000Y6200000D03*
X9330000Y5780000D03*
X9460000Y5840000D03*
Y5540000D03*
Y5240000D03*
X9467680Y4542320D03*
X9479560Y4149560D03*
X9350000Y3810000D03*
X7900000Y6040000D03*
X7750540Y5889460D03*
X7742440Y5602440D03*
X7355680Y6145680D03*
X7212880Y5212880D03*
X6093460Y5086540D03*
X5658880Y5151120D03*
X5014760Y5005240D03*
X3971760Y5008240D03*
X3123580Y4493580D03*
X2982180Y4197820D03*
X2955000Y3855000D03*
X2941760Y3671760D03*
X2720780Y3300780D03*
X2755000Y3205000D03*
X3112300Y3137700D03*
X3270000Y3930000D03*
X3920000Y2140000D03*
X3780000Y2160000D03*
X4140000Y1930000D03*
X4047020Y2072980D03*
X5518620Y1531380D03*
X6240000Y1595120D03*
X6752900Y2197100D03*
X6858400Y2368400D03*
X6779260Y2300740D03*
X6615660Y3024340D03*
X6603840Y3516160D03*
X6628540Y4111460D03*
X6504280Y8844280D03*
X6540000Y8280000D03*
X8792360Y6032640D03*
X8941600Y5916600D03*
X8945420Y5604580D03*
X8842360Y5332640D03*
X8948740Y4598740D03*
X8939800Y4064800D03*
X8843920Y3931080D03*
X9000000Y5130000D03*
X9050000Y5190000D03*
X5143690Y5888950D03*
X7670000Y5180000D03*
X7610000Y5230000D03*
X6345340Y5888480D03*
X7760000Y5050000D03*
X8930000Y4950000D03*
X9079980Y4989990D03*
X8980000Y4770000D03*
X9430000Y5030000D03*
X3560000Y2040000D03*
Y2110000D03*
X3810000Y3140000D03*
X3680000Y2130000D03*
X3960000Y2950000D03*
X3930000Y2850000D03*
X3850000Y2890000D03*
X3540000Y2730000D03*
X3550000Y2290000D03*
X3270000Y1980000D03*
X4570000Y4590000D03*
X4843970Y5788950D03*
X4744910D03*
X5544540Y5988480D03*
X5443410Y5988950D03*
X5344350Y6088950D03*
X6182500Y3997500D03*
X9042500Y3977500D03*
X6567500Y3920000D03*
X7215000Y5537500D03*
X5800000Y5082500D03*
X9062500Y4087500D03*
X7290000Y4900000D03*
X8492500Y4912500D03*
X9042500Y4300000D03*
X7640000Y4190000D03*
X6462500Y3280000D03*
X5037750Y4587720D03*
X4292500Y4560000D03*
X8145000Y5337500D03*
X8265400Y5285260D03*
X8182500Y4907500D03*
X5215000Y4890000D03*
X7200760Y4139240D03*
X8395000Y4432500D03*
X8185000Y4722500D03*
X5302500Y4420000D03*
X5297500Y4540000D03*
X5230000Y4490000D03*
X5187500Y4595000D03*
X7625380Y5086460D03*
X8171140Y4365700D03*
X9052500Y4372500D03*
X8960000Y4290000D03*
X8905440Y4347500D03*
X8780000Y4332400D03*
X9067500Y4230000D03*
X9002500Y4192500D03*
X4390000Y6287500D03*
X7695380Y4310210D03*
X7745380Y4585220D03*
X7625000Y4485000D03*
X8240000Y4160000D03*
X8500000Y4145000D03*
X9057500Y5445000D03*
X7625000Y5742500D03*
X8217500Y5610000D03*
X8475000Y5772500D03*
X8475410Y5675280D03*
X8407500Y5655000D03*
X3190000Y1810000D03*
X3232500Y1690000D03*
X7890000Y5580000D03*
X7687500Y5552500D03*
X7620000Y5457500D03*
X8790000Y5542500D03*
X7722880Y5390260D03*
X7810380Y5407760D03*
X7887500Y5365000D03*
X8447500Y5507500D03*
X9010000Y5345000D03*
X8932500D03*
X5390000Y2610000D03*
X5372500Y2355000D03*
X5720000Y3007500D03*
X6735330Y5465270D03*
X6687500Y5337500D03*
X6657500Y5467500D03*
X6702500Y4475000D03*
X6690000Y5002500D03*
X6612820Y4965240D03*
X5770000Y3195000D03*
X6165300Y5325260D03*
X6495000Y2022500D03*
X7742500Y4840000D03*
X6970000Y3882500D03*
X6672500Y3905000D03*
X7215780Y4504220D03*
X7211740Y3818260D03*
X4975000Y2237500D03*
X8805430Y4817730D03*
X8485000Y4347500D03*
X8337500Y4065000D03*
X7710000Y4007500D03*
X7881080Y3931080D03*
X8175000Y4010000D03*
X6487500Y2780000D03*
X7890380Y4667730D03*
X8282500Y4770000D03*
X6722500Y3965000D03*
X5335000Y2180000D03*
X5137750Y2130100D03*
X9050000Y3890000D03*
X6045000Y3295000D03*
X6197500Y3182830D03*
X7295000Y4735000D03*
X7345000Y4687500D03*
X7632500Y4387500D03*
X5370000Y2540000D03*
X7690000Y4795000D03*
X7622830Y4817500D03*
X8850430Y5095250D03*
X8255400D03*
X7860380D03*
X9077500Y4677500D03*
X9057500Y4852500D03*
X9388540Y4881040D03*
X8915000Y5235000D03*
X4462500Y4577500D03*
X7195000Y4342500D03*
X6200000Y4160000D03*
X6952500Y4347500D03*
X7830000Y3732500D03*
X5220000Y2355000D03*
X5435000Y2480000D03*
X3897500Y3617500D03*
X3812500Y3765000D03*
X3280000Y3020000D03*
X8822500Y4987500D03*
X8317500Y4405000D03*
X7022840Y4225210D03*
X8459940Y1112560D03*
X8130000Y1115000D03*
X8613140Y1016860D03*
X8952500Y942500D03*
X8810000Y1030000D03*
X8960000Y1027500D03*
X9316340Y1981340D03*
X9225000Y2150000D03*
X9321800Y1271800D03*
X9396800Y1178200D03*
X9196800Y2503200D03*
X9103200Y2403200D03*
X8803200Y2496800D03*
X8903200Y2403200D03*
X8300600Y2384400D03*
X8363540Y2303960D03*
X7972500Y1961960D03*
X7965540Y1861960D03*
X8354640Y1810360D03*
X7957800Y1659700D03*
X7960000Y1559700D03*
X8105000Y1490000D03*
X8817500Y1510000D03*
X7422500Y1670000D03*
X3000000Y567500D03*
X3200000Y562500D03*
X1287500Y2737500D03*
X1300000Y2305000D03*
X1262500Y2117500D03*
X2660000Y2455000D03*
X5181600Y1255900D03*
X3600000Y1582500D03*
X1637500Y925000D03*
Y1005000D03*
X4100000Y192500D03*
X4302500Y195000D03*
X4500000D03*
X4835000Y332500D03*
X2400000Y215000D03*
X2600000D03*
X2797500D03*
X3000000D03*
X8097500D03*
X7895000D03*
X7697500D03*
X7382500Y332500D03*
X1988920Y368920D03*
X2075000Y769760D03*
X2150000Y922500D03*
X2062500Y1122820D03*
X2232500Y1137500D03*
X1698860Y1138860D03*
X2068640Y1233640D03*
X657160Y1407160D03*
X777340Y1317660D03*
X762100Y620400D03*
X856400Y688600D03*
X826560Y268440D03*
X1171560D03*
X1250000Y280000D03*
X1357500Y285000D03*
X5372500Y1197500D03*
X1906920Y1491920D03*
X2735120Y1742620D03*
X1722500Y450000D03*
X1717000Y300000D03*
X1494080Y359080D03*
X1271720Y1578280D03*
X2645000Y1640000D03*
X2063860Y1333640D03*
X9220780Y8463280D03*
X9525000Y9825000D03*
X7350000Y9525000D03*
Y9000000D03*
Y8800000D03*
Y8275000D03*
X7750000Y7875000D03*
X8225000D03*
X8500000D03*
X9000000D03*
X9400000Y8275000D03*
X9395460Y9264760D03*
X9000000Y9925000D03*
X8500000D03*
X8250000D03*
X7750000D03*
X7650000Y9625000D03*
X8000000D03*
X8325000D03*
X7650000Y9350000D03*
X8000000D03*
X8325000D03*
X7650000Y9075000D03*
X8000000D03*
X7650000Y8150000D03*
X8700000Y8325000D03*
X9200000Y8125000D03*
X9225000Y9625000D03*
X9400000Y9525000D03*
Y9000000D03*
Y8800000D03*
X8700000Y9625000D03*
X7050000Y9125000D03*
Y8800000D03*
X7025000Y9250000D03*
Y9825000D03*
X7075000Y9633880D03*
X7150000Y8525000D03*
Y8400000D03*
X2425000Y8075000D03*
X2470000Y8470000D03*
X2720000D03*
X2750000Y7810000D03*
X2683120Y7183120D03*
X2819400Y7143100D03*
X2605000Y7490000D03*
X3537500Y8162500D03*
X3016940Y7634440D03*
X3158060D03*
X3020000Y7730000D03*
X3712500Y7175000D03*
X3160000Y7310000D03*
X2075000Y6257500D03*
X2322500Y6362500D03*
X2361780Y6508220D03*
X1867500Y6362500D03*
X2045000Y6490000D03*
X3030000Y7307500D03*
X2343660Y6206930D03*
X1209000Y5016500D03*
X1483360Y4840860D03*
X1361060Y4336060D03*
X1447500Y4062500D03*
X1621780Y4123220D03*
X1342500Y4045000D03*
X942500Y4542500D03*
X2980220Y6372500D03*
X3257500Y7810000D03*
X3235000Y7737500D03*
X5197090Y8178570D03*
X5346700Y7992580D03*
X5245100Y7488720D03*
X5146040Y7189000D03*
X4544860Y6687820D03*
X6887500Y6490000D03*
X3975000Y320000D03*
X517500Y952500D03*
X4212500Y205000D03*
X547500Y1187500D03*
X2215000Y4885000D03*
X2168000Y4154500D03*
X2012500Y4040000D03*
X4012500Y5167500D03*
X3805000Y4912300D03*
X3182300D03*
X3182500Y5245000D03*
X5000000Y2947500D03*
X3297500Y2232500D03*
X3775000Y2337500D03*
X5327500Y4097500D03*
X2458500Y4281500D03*
X7672500Y2907500D03*
X7667500Y3197500D03*
X7092500Y3362500D03*
X9805200Y3710200D03*
X9423940Y7211060D03*
X9132500Y7400000D03*
X7045000Y9912500D03*
X7605000Y8327500D03*
X7177500Y6535000D03*
X7140980Y6680980D03*
X7205000Y6757500D03*
X6967500Y6888900D03*
X5147500Y7687500D03*
X5245000D03*
X5645000Y6692500D03*
X8845000Y6437500D03*
X4460240Y7635240D03*
X6830000Y6777500D03*
X6847500Y6897500D03*
X5245000Y1637500D03*
X6502500Y3765660D03*
X6185000Y3637500D03*
X5295000Y1967500D03*
X1802500Y1765000D03*
X2680130Y4155200D03*
X2695000Y4280000D03*
X2682500Y4422500D03*
X3200000Y3700000D03*
X6012500Y1950000D03*
X6145000Y2460000D03*
X6200300Y2157600D03*
X1505000Y1490000D03*
X3805000Y4140000D03*
X2457500Y3870000D03*
X3810000Y4055000D03*
X2527500Y3797500D03*
X3955000Y480000D03*
X3007500Y867500D03*
X3200000D03*
X7167500Y3927500D03*
X6617500Y3820000D03*
X6927500Y4842500D03*
X3175000Y5162500D03*
X3592500Y5910000D03*
X5025000Y2090000D03*
X3957500Y4290000D03*
X5015250Y4100200D03*
X5097500Y4100000D03*
X3902500Y4340000D03*
X3812690Y4385210D03*
X4790230Y4387710D03*
X3275000Y5865000D03*
X3407500Y5060000D03*
X3247660Y4895240D03*
X3290000Y4727500D03*
X2690000Y4867500D03*
X3940000Y4542500D03*
X5065000Y4040000D03*
X6190000Y4230000D03*
X4907500Y4287500D03*
X7795000Y840000D03*
X8352500Y6267500D03*
X8435000Y6912500D03*
X8817500Y6657500D03*
X9903700Y5608700D03*
X7322500Y3332500D03*
X7547500Y2705000D03*
X7772500Y3962500D03*
X7472500Y3392500D03*
X7077500Y2722500D03*
X6922500Y6342500D03*
X6937500Y6132500D03*
X4597500Y1412500D03*
X4190000Y807500D03*
X4735230Y972550D03*
X4692500Y870000D03*
X4580000Y1010000D03*
X4472720Y872540D03*
X4345000Y875000D03*
X4462500Y992500D03*
X5935000Y4162500D03*
X5687500Y4270000D03*
X5440260Y4062700D03*
X5597500Y4420000D03*
X5610000Y4490000D03*
X5375270Y4049730D03*
X2577500Y2957500D03*
X2580000Y3130000D03*
X3260000Y2910000D03*
X2770000Y3067500D03*
X4455000Y2422500D03*
X2647500Y2652500D03*
X3952500Y3947500D03*
X4257500Y4017500D03*
X3922500Y4020000D03*
X3798200Y4262130D03*
X3965000Y4222500D03*
X5817500Y4332500D03*
X5555000Y4037500D03*
X4592500Y3347500D03*
X6631360Y4484300D03*
X2210000Y2675000D03*
X7827500Y400000D03*
X1682500Y3752500D03*
X8220000Y315000D03*
X4250000Y3915000D03*
X3600000Y4010000D03*
X4600000Y4187500D03*
X4202500Y4190000D03*
X3827500Y3422500D03*
X4185000Y4065000D03*
X6172500Y4487500D03*
X3927500Y3392500D03*
X4215000Y3842500D03*
X4202500Y3742500D03*
X6185000Y3725000D03*
X6480000Y4435000D03*
X6455310Y4202500D03*
X6145000Y3430000D03*
X6197500Y3560000D03*
X6535000Y3352500D03*
X9060000Y1452500D03*
X7353860Y2382500D03*
X7560000Y3362500D03*
X7690000Y3742500D03*
X7395000Y3717500D03*
X7599680Y2417500D03*
X8012500Y2975000D03*
X8234680Y3200320D03*
X6967500Y3377500D03*
X6826480Y3081020D03*
X7110000Y3197500D03*
X7162500Y2975000D03*
X7305000Y2980000D03*
X7142500Y3707500D03*
X5730000Y2140000D03*
X5682500Y2192500D03*
X5605000Y2215000D03*
X5190000Y2085000D03*
X7797500Y755000D03*
X8622500Y2007500D03*
X6942500Y2802500D03*
X6487500Y2636520D03*
X6450000Y2582500D03*
X8540000Y1977500D03*
X8460000Y2005000D03*
X9310840Y1743340D03*
X9380000Y1512500D03*
X6192500Y2360000D03*
X5797500Y2935000D03*
X5777780Y2855140D03*
X5890000Y2605000D03*
X5947500Y2672500D03*
X5827500Y2812940D03*
X2687630Y802540D03*
X4947500Y3265000D03*
X5370000Y3727500D03*
X5277500Y3730000D03*
X5192500D03*
X5105000Y3727500D03*
X5550000Y3695000D03*
X5600000Y3642500D03*
X2400000Y920000D03*
X3027650Y1947600D03*
X1049820Y5270000D03*
X1369840Y4455160D03*
X8640000Y6432500D03*
X5982500Y2735000D03*
X4810000Y1965000D03*
X6917500Y1757500D03*
X3575840Y7590560D03*
Y7530560D03*
Y7470560D03*
X3635840D03*
Y7530560D03*
Y7590560D03*
X3515840D03*
Y7530560D03*
Y7470560D03*
X3455840D03*
Y7530560D03*
Y7590560D03*
X1054580Y4174720D03*
Y4234720D03*
Y4294720D03*
X994580D03*
Y4234720D03*
Y4174720D03*
X1114580D03*
Y4234720D03*
Y4294720D03*
X1174580D03*
Y4234720D03*
Y4174720D03*
X2350920Y5805520D03*
Y5865520D03*
Y5925520D03*
X2290920D03*
Y5865520D03*
Y5805520D03*
X2410920D03*
Y5865520D03*
Y5925520D03*
X2470920D03*
Y5865520D03*
Y5805520D03*
X3043420Y5983020D03*
Y6043020D03*
X2983420D03*
Y5983020D03*
X2863420D03*
Y6043020D03*
X2923420D03*
Y5983020D03*
X2470920Y5625520D03*
Y5685520D03*
Y5745520D03*
X2410920D03*
Y5685520D03*
Y5625520D03*
X2290920D03*
Y5685520D03*
Y5745520D03*
X2350920D03*
Y5685520D03*
Y5625520D03*
X2470920Y5445520D03*
Y5505520D03*
Y5565520D03*
X2410920D03*
Y5505520D03*
Y5445520D03*
X2290920D03*
Y5505520D03*
Y5565520D03*
X2350920D03*
Y5505520D03*
Y5445520D03*
X6725000Y4160000D03*
X7022500Y8875000D03*
X7014480Y8941980D03*
X7012500Y9007500D03*
X7022500Y8235000D03*
X1590080Y4042700D03*
X6755000Y3567500D03*
X7750380Y4062700D03*
X7885000Y4375000D03*
X3787500Y1657500D03*
X4237500Y4502500D03*
X1085000Y3587500D03*
G54D16*
X4612500Y8595000D03*
X4095000Y8750000D03*
X4717500Y8735000D03*
X4870000Y8732500D03*
X5522500Y3017500D03*
X5780280Y5510270D03*
X725000Y8200000D03*
X825000D03*
X925000D03*
X1025000D03*
X1125000D03*
X1225000D03*
X1325000D03*
X1425000D03*
X1525000D03*
X1625000D03*
X1725000D03*
X1825000D03*
Y8075000D03*
X1725000D03*
X1625000D03*
X1525000D03*
X1425000D03*
X1325000D03*
X1225000D03*
X1125000D03*
X1025000D03*
X925000D03*
X825000D03*
X725000D03*
X1825000Y7950000D03*
X1725000D03*
X1625000D03*
X1525000D03*
X1425000D03*
X1325000D03*
X1225000D03*
X1125000D03*
X1025000D03*
X925000D03*
X825000D03*
X725000D03*
X1825000Y7825000D03*
X1725000D03*
X1625000D03*
X1525000D03*
X1425000D03*
X1325000D03*
X1225000D03*
X1125000D03*
X1025000D03*
X925000D03*
X825000D03*
X725000D03*
X1825000Y7700000D03*
X1725000D03*
X1625000D03*
X1525000D03*
X1425000D03*
X1325000D03*
X1225000D03*
X1125000D03*
X1025000D03*
X925000D03*
X825000D03*
X725000D03*
X1825000Y7575000D03*
X1725000D03*
X1625000D03*
X1525000D03*
X1425000D03*
X1325000D03*
X1225000D03*
X1125000D03*
X1025000D03*
X925000D03*
X825000D03*
X725000D03*
X1825000Y7450000D03*
X1725000D03*
X1625000D03*
X1525000D03*
X1425000D03*
X1325000D03*
X1225000D03*
X1125000D03*
X1025000D03*
X925000D03*
X825000D03*
X725000D03*
X4725000Y8162500D03*
X4865000D03*
X4607500Y8315000D03*
X4400000Y7372500D03*
X4182500Y6960000D03*
X4035000Y6810000D03*
X4280000D03*
X3902500Y6207500D03*
X4147500Y6202500D03*
X4360000Y5892500D03*
X4467500Y5660000D03*
X4105000Y5445000D03*
X5130000Y5380000D03*
X5775000Y5272500D03*
X5570000Y5270000D03*
X5577500Y5507500D03*
X6795000Y5165000D03*
X6975000D03*
X6122500Y5612500D03*
X7050000Y6467500D03*
X7275000Y6430000D03*
X7632500D03*
X7382500Y6305000D03*
X7532500D03*
X7525000Y6855000D03*
X7387500D03*
X7627500Y6737500D03*
X6942500Y6767500D03*
X7790000Y6882500D03*
X7890000Y6660000D03*
X8050000Y6657500D03*
X8035000Y6990000D03*
X7037500Y6997500D03*
Y7195000D03*
X7275000Y7202500D03*
X8040000Y7305000D03*
X7897500Y7302500D03*
X7792500Y7470000D03*
X8145000Y7462500D03*
X7035000Y7382500D03*
X7482500Y7452500D03*
X6927500Y8092500D03*
X6812500Y8145000D03*
X6287500Y8267500D03*
X6090000Y8265000D03*
X5930000Y8145000D03*
X5535000Y8152500D03*
X5927500Y8402500D03*
X5532500Y8400000D03*
X6220000Y8685000D03*
X6100000Y8557500D03*
X5110000Y8412500D03*
Y8682500D03*
X5402500Y8575000D03*
Y8305000D03*
X4972500Y8607500D03*
X5230000Y8920000D03*
X5092500Y8917500D03*
Y9280000D03*
X5230000Y9277500D03*
X4992500Y9172500D03*
X4995000Y9027500D03*
X5747500Y9282500D03*
X5880000D03*
X5982500Y9177500D03*
X5985000Y9020000D03*
X5742500Y8917500D03*
X5885000Y8915000D03*
X3952500Y8645000D03*
X4207500Y8097500D03*
X4220000Y7817500D03*
X4245000Y7267500D03*
X4287500Y6610000D03*
X4035000Y6637500D03*
X3877500Y7660000D03*
X3990000D03*
X4037500Y7920000D03*
X3877500Y7282500D03*
X3982500Y7280000D03*
X3875000Y7542500D03*
X3987500Y7537500D03*
X4602500Y8165000D03*
X2427500Y9985000D03*
Y9835000D03*
Y9485000D03*
Y9335000D03*
Y8985000D03*
Y8825000D03*
X515000Y5372500D03*
X510000Y5490000D03*
X640000Y5670000D03*
X770000D03*
X780000Y5890000D03*
X650000D03*
X510000Y6160000D03*
Y6030000D03*
X1210000Y6790000D03*
Y6650000D03*
X1380000Y6960000D03*
X3290000Y5400000D03*
X3650000Y5420000D03*
X2480000Y5140000D03*
Y4990000D03*
Y4700000D03*
Y4550000D03*
X560000Y4210000D03*
X720000D03*
X415000Y4015000D03*
X410000Y4210000D03*
X2975000Y2445000D03*
X9230000Y620000D03*
X8642500Y507500D03*
X6462500Y695000D03*
X6460000Y165000D03*
X7590000Y120000D03*
X7485000Y847500D03*
X5787500Y740000D03*
X5785000Y190000D03*
X4827500Y850000D03*
X4662500Y122500D03*
X3597500Y720000D03*
X6517500Y1295000D03*
X2685000Y897500D03*
X775000Y1705000D03*
X2527500Y1690000D03*
X4355000Y5135000D03*
X7430000Y7330000D03*
X4845000Y1335000D03*
X4360000Y5307500D03*
X6320000Y5265000D03*
X6010000Y5280000D03*
X6647820Y5202750D03*
X6505320Y5270260D03*
X2552500Y7900000D03*
X3152500Y8250000D03*
X3200000Y9400000D03*
X3700000D03*
X4425000D03*
X7272500Y6695000D03*
X4205000Y5892500D03*
X4845000Y5500000D03*
X7275350Y7007840D03*
X4287500Y7067500D03*
X3540000Y6520000D03*
X3150000D03*
X3410000D03*
X3155000Y6347500D03*
X7080000Y5302500D03*
X3442500Y5240000D03*
X4210000Y5267500D03*
X5212500Y2815000D03*
X4372500Y7680000D03*
X2461780Y8209280D03*
G54D17*
X800000Y9198400D03*
G54D18*
X345680Y9619180D02*
X376350Y9612660D01*
X405000Y9599900D01*
X430370Y9581470D01*
X451350Y9558170D01*
X467030Y9531010D01*
X476720Y9501190D01*
X480000Y9470000D01*
Y9430000D02*
Y9470000D01*
X476240Y9396620D02*
X480000Y9430000D01*
X465140Y9364920D02*
X476240Y9396620D01*
X447270Y9336480D02*
X465140Y9364920D01*
X423520Y9312730D02*
X447270Y9336480D01*
X395080Y9294850D02*
X423520Y9312730D01*
X363380Y9283760D02*
X395080Y9294850D01*
X330000Y9280000D02*
X363380Y9283760D01*
X296620D02*
X330000Y9280000D01*
X264920Y9294850D02*
X296620Y9283760D01*
X236470Y9312730D02*
X264920Y9294850D01*
X212720Y9336480D02*
X236470Y9312730D01*
X194850Y9364920D02*
X212720Y9336480D01*
X183760Y9396620D02*
X194850Y9364920D01*
X180000Y9430000D02*
X183760Y9396620D01*
X180000Y9430000D02*
Y9470000D01*
X183280Y9501190D01*
X192970Y9531010D01*
X208650Y9558170D01*
X229630Y9581470D01*
X255000Y9599900D01*
X283650Y9612660D01*
X314320Y9619180D01*
X345680D01*
X9845680D02*
X9876350Y9612660D01*
X9905000Y9599900D01*
X9930370Y9581470D01*
X9951350Y9558170D01*
X9967030Y9531010D01*
X9976720Y9501190D01*
X9980000Y9470000D01*
Y9430000D02*
Y9470000D01*
X9976240Y9396620D02*
X9980000Y9430000D01*
X9965140Y9364920D02*
X9976240Y9396620D01*
X9947270Y9336480D02*
X9965140Y9364920D01*
X9923520Y9312730D02*
X9947270Y9336480D01*
X9895080Y9294850D02*
X9923520Y9312730D01*
X9863380Y9283760D02*
X9895080Y9294850D01*
X9830000Y9280000D02*
X9863380Y9283760D01*
X9796620D02*
X9830000Y9280000D01*
X9764910Y9294850D02*
X9796620Y9283760D01*
X9736470Y9312730D02*
X9764910Y9294850D01*
X9712720Y9336480D02*
X9736470Y9312730D01*
X9694850Y9364920D02*
X9712720Y9336480D01*
X9683760Y9396620D02*
X9694850Y9364920D01*
X9680000Y9430000D02*
X9683760Y9396620D01*
X9680000Y9430000D02*
Y9470000D01*
X9683280Y9501190D01*
X9692960Y9531010D01*
X9708640Y9558170D01*
X9729630Y9581470D01*
X9755000Y9599900D01*
X9783640Y9612660D01*
X9814320Y9619180D01*
X9845680D01*
X9760000Y10160000D02*
X9829460Y10153920D01*
X7507500Y10160000D02*
X9760000D01*
X7238230Y10159930D02*
X7507500Y10160000D01*
X3970500D02*
X7238230Y10159930D01*
X400000Y10160000D02*
X3970500D01*
X330540Y10153920D02*
X400000Y10160000D01*
X263190Y10135880D02*
X330540Y10153920D01*
X200000Y10106410D02*
X263190Y10135880D01*
X142880Y10066420D02*
X200000Y10106410D01*
X93580Y10017120D02*
X142880Y10066420D01*
X53590Y9960000D02*
X93580Y10017120D01*
X24120Y9896810D02*
X53590Y9960000D01*
X6080Y9829460D02*
X24120Y9896810D01*
X0Y9760000D02*
X6080Y9829460D01*
X0Y8720000D02*
Y9760000D01*
Y8720000D02*
X140000D01*
X169110Y8716940D01*
X196940Y8707900D01*
X222290Y8693260D01*
X244040Y8673680D01*
X261240Y8650000D01*
X273150Y8623260D01*
X279230Y8594640D01*
Y8565370D02*
Y8594640D01*
X273150Y8536740D02*
X279230Y8565370D01*
X261240Y8510000D02*
X273150Y8536740D01*
X244040Y8486320D02*
X261240Y8510000D01*
X222290Y8466740D02*
X244040Y8486320D01*
X196940Y8452100D02*
X222290Y8466740D01*
X169110Y8443060D02*
X196940Y8452100D01*
X140000Y8440000D02*
X169110Y8443060D01*
X0Y8440000D02*
X140000D01*
X0Y400000D02*
Y8440000D01*
Y400000D02*
X6080Y330540D01*
X24120Y263190D01*
X53590Y200000D01*
X93580Y142890D01*
X142880Y93580D01*
X200000Y53590D01*
X263190Y24120D01*
X330540Y6080D01*
X400000Y0D01*
X1680000D01*
X2479990D01*
X3100000D01*
X9760000D01*
X9829460Y6080D01*
X9896810Y24120D01*
X9960000Y53590D01*
X10017110Y93580D01*
X10066420Y142890D01*
X10106410Y200000D01*
X10135880Y263190D01*
X10153920Y330540D01*
X10160000Y400000D01*
Y8440000D01*
X10020000D02*
X10160000D01*
X9990890Y8443060D02*
X10020000Y8440000D01*
X9963050Y8452100D02*
X9990890Y8443060D01*
X9937710Y8466740D02*
X9963050Y8452100D01*
X9915960Y8486320D02*
X9937710Y8466740D01*
X9898750Y8510000D02*
X9915960Y8486320D01*
X9886850Y8536740D02*
X9898750Y8510000D01*
X9880760Y8565370D02*
X9886850Y8536740D01*
X9880760Y8565370D02*
Y8594640D01*
X9886850Y8623260D01*
X9898750Y8650000D01*
X9915960Y8673680D01*
X9937710Y8693260D01*
X9963050Y8707900D01*
X9990890Y8716940D01*
X10020000Y8720000D01*
X10160000D01*
Y9760000D01*
X10153920Y9829460D02*
X10160000Y9760000D01*
X10135880Y9896810D02*
X10153920Y9829460D01*
X10106410Y9960000D02*
X10135880Y9896810D01*
X10066420Y10017120D02*
X10106410Y9960000D01*
X10017110Y10066420D02*
X10066420Y10017120D01*
X9960000Y10106410D02*
X10017110Y10066420D01*
X9896810Y10135880D02*
X9960000Y10106410D01*
X9829460Y10153920D02*
X9896810Y10135880D01*
M02*
