*
%FSLAX45Y45*%
%MOMM*%
%ADD10R,1.550000X0.550000*%
%ADD11R,0.550000X1.550000*%
%ADD12O,0.550000X1.550000*%
%ADD13R,0.300000X1.800000*%
%ADD14R,1.800000X0.300000*%
%ADD15R,1.905000X1.117600*%
%ADD16R,1.200000X0.800000*%
%ADD17R,0.800000X1.200000*%
%ADD18R,1.200000X1.000000*%
%ADD19R,1.000000X0.800000*%
%ADD20R,1.000000X0.900000*%
%ADD21R,1.000000X1.200000*%
%ADD22R,2.600000X1.600000*%
%ADD23R,2.600000X2.400000*%
%ADD24R,1.600000X2.600000*%
%ADD25R,1.244600X0.406400*%
%ADD26R,2.400000X2.600000*%
%ADD27R,1.550000X0.600000*%
%ADD28R,1.193800X1.397000*%
%ADD29R,0.900000X1.000000*%
%ADD30R,0.300000X0.850000*%
%ADD31R,1.397000X1.193800*%
%ADD32R,2.032000X0.660400*%
%ADD33R,0.660400X2.032000*%
%ADD34R,0.600000X0.450000*%
%ADD35R,0.450000X0.600000*%
%ADD36R,1.600000X2.000000*%
%ADD37R,0.600000X1.600000*%
%ADD38O,1.200000X0.300000*%
%ADD39C,1.000000*%
%ADD40C,1.500000*%
%ADD41R,1.500000X1.500000*%
%ADD42O,2.000000X4.500000*%
%ADD43O,4.500000X2.000000*%
%ADD44C,0.500000*%
%ADD45C,0.600000*%
%ADD46C,0.150000*%
%ADD47C,0.200000*%
%ADD48C,0.300000*%
%ADD49C,0.164000*%
%IPPOS*%
%LNcryptech_28032016.top*%
%LPD*%
%SRX1Y1I0J0*%
G01*
G75*
G36*
X4510000Y8100000D02*
Y8390000D01*
X4950000D01*
Y8100000D01*
X4510000D01*
G37*
G36*
X150000Y1658980D02*
Y8175000D01*
X600000Y8625000D01*
Y10041020D01*
X608980Y10050000D01*
X2597500D01*
Y9500000D01*
X4114990D01*
X4115010Y9272500D01*
X4357500D01*
Y9427500D01*
X4430000Y9500000D01*
X5600000D01*
Y8800000D01*
X6307500D01*
Y8377500D01*
X6147500D01*
Y8487500D01*
X5232500D01*
Y8765000D01*
X5025000D01*
X5025610Y8495870D01*
X5016630Y8486880D01*
X4562500D01*
Y8624470D01*
X4600000Y8660000D01*
Y8750000D01*
X4500000Y8850000D01*
X4250000D01*
X4200000Y8800000D01*
Y8724670D01*
X4155330Y8680000D01*
Y8345000D01*
X4230160Y8270160D01*
X4277660Y8222660D01*
Y7810160D01*
X4350160Y7737660D01*
X4487500D01*
Y7562500D01*
X4373510D01*
X4293510Y7642500D01*
X4185000D01*
X4176970Y7645830D01*
X4160000Y7648060D01*
X4143030Y7645830D01*
X4135000Y7642500D01*
X4075000D01*
Y7387500D01*
X4293510D01*
Y7213980D01*
X4284530Y7205000D01*
X3752430D01*
X3569930Y7387500D01*
X3531810D01*
X3526280Y7391190D01*
X3517500Y7392940D01*
X3422060D01*
X3377500Y7437500D01*
Y7760000D01*
X2615000Y8522500D01*
X2355000D01*
Y7067500D01*
X1700000Y6412500D01*
Y6200000D01*
X1755000Y6145000D01*
X2543460D01*
X2597500Y6199040D01*
X2943460D01*
X3122500Y6020000D01*
Y5560000D01*
X3015000Y5452500D01*
X2615000D01*
X2575000Y5412500D01*
Y4925000D01*
X2182500D01*
X2077500Y4820000D01*
X1450000D01*
X1250000Y5020000D01*
Y5310000D01*
X1053760D01*
X1049820Y5310780D01*
X1045880Y5310000D01*
X900000D01*
Y4380000D01*
X1231020D01*
X1240000Y4371020D01*
Y4000000D01*
X1625000D01*
Y3500000D01*
X1200000D01*
Y1650000D01*
X158980D01*
X150000Y1658980D01*
G37*
%LPC*%
G01*
G75*
X150000Y1658980D02*
G36*
X1042960Y8868380D02*
X1039010Y8898400D01*
X1042960Y8928420D01*
X1054550Y8956400D01*
X1072980Y8980420D01*
X1097000Y8998850D01*
X1124980Y9010440D01*
X1155000Y9014390D01*
X1405000D01*
X1435020Y9010440D01*
X1463000Y8998850D01*
X1487020Y8980420D01*
X1505450Y8956400D01*
X1517040Y8928420D01*
X1520990Y8898400D01*
X1517040Y8868380D01*
X1505450Y8840400D01*
X1487020Y8816380D01*
X1463000Y8797950D01*
X1435020Y8786360D01*
X1405000Y8782410D01*
X1155000D01*
X1124980Y8786360D01*
X1097000Y8797950D01*
X1072980Y8816380D01*
X1054550Y8840400D01*
X1042960Y8868380D01*
G37*
G36*
X899170Y3440530D02*
X896940Y3457500D01*
X899170Y3474470D01*
X905720Y3490280D01*
X916140Y3503860D01*
X929720Y3514280D01*
X945530Y3520830D01*
X962500Y3523060D01*
X979470Y3520830D01*
X995280Y3514280D01*
X1008860Y3503860D01*
X1019280Y3490280D01*
X1025830Y3474470D01*
X1028060Y3457500D01*
X1025830Y3440530D01*
X1021050Y3429010D01*
X1030200Y3419050D01*
X1040530Y3423330D01*
X1057500Y3425560D01*
X1074470Y3423330D01*
X1090280Y3416780D01*
X1103860Y3406360D01*
X1114280Y3392780D01*
X1120830Y3376970D01*
X1123060Y3360000D01*
X1120830Y3343030D01*
X1114280Y3327220D01*
X1106300Y3316830D01*
X1105790Y3301210D01*
X1108860Y3298860D01*
X1119280Y3285280D01*
X1125830Y3269470D01*
X1128060Y3252500D01*
X1125830Y3235530D01*
X1119280Y3219720D01*
X1108860Y3206140D01*
X1095280Y3195720D01*
X1079470Y3189170D01*
X1062500Y3186940D01*
X1045530Y3189170D01*
X1040920Y3191080D01*
X1029290Y3182150D01*
X1030560Y3172500D01*
X1028330Y3155530D01*
X1021780Y3139720D01*
X1011360Y3126140D01*
X997780Y3115720D01*
X981970Y3109170D01*
X965000Y3106940D01*
X948030Y3109170D01*
X932220Y3115720D01*
X918640Y3126140D01*
X908220Y3139720D01*
X901670Y3155530D01*
X899440Y3172500D01*
X901670Y3189470D01*
X908220Y3205280D01*
X918640Y3218860D01*
X932220Y3229280D01*
X948030Y3235830D01*
X965000Y3238060D01*
X981970Y3235830D01*
X986580Y3233920D01*
X998210Y3242850D01*
X996940Y3252500D01*
X999170Y3269470D01*
X1005720Y3285280D01*
X1016140Y3298860D01*
Y3309800D01*
X1011140Y3313640D01*
X1000720Y3327220D01*
X994170Y3343030D01*
X991940Y3360000D01*
X994170Y3376970D01*
X998950Y3388490D01*
X989800Y3398450D01*
X979470Y3394170D01*
X962500Y3391940D01*
X945530Y3394170D01*
X929720Y3400720D01*
X916140Y3411140D01*
X905720Y3424720D01*
X899170Y3440530D01*
G37*
%LPD*%
G01*
G75*
X899170Y3440530D02*
G54D10*
X4860820Y3575000D03*
Y3655000D03*
Y3735000D03*
Y3815000D03*
Y3895000D03*
Y3975000D03*
Y4055000D03*
Y4135000D03*
X5755820D03*
Y4055000D03*
Y3975000D03*
Y3895000D03*
Y3815000D03*
Y3735000D03*
Y3655000D03*
Y3575000D03*
G54D11*
X5028320Y4302500D03*
X5108320D03*
X5188320D03*
X5268320D03*
X5348320D03*
X5428320D03*
X5508320D03*
X5588320D03*
Y3407500D03*
X5508320D03*
X5428320D03*
X5348320D03*
X5268320D03*
X5188320D03*
X5108320D03*
G54D12*
X5028320D03*
G54D13*
X8363540Y1379960D03*
X8413540D03*
X8463540D03*
X8513540D03*
X8563540D03*
X8613540D03*
X8663540D03*
X8713540D03*
X8763540D03*
X8813540D03*
X8863540D03*
X8913540D03*
Y2189960D03*
X8863540D03*
X8813540D03*
X8763540D03*
X8713540D03*
X8663540D03*
X8613540D03*
X8563540D03*
X8513540D03*
X8463540D03*
X8413540D03*
X8363540D03*
X1656860Y1368600D03*
X1606860D03*
X1556860D03*
X1506860D03*
X1456860D03*
X1406860D03*
X1356860D03*
X1306860D03*
X1256860D03*
X1206860D03*
X1156860D03*
X1106860D03*
Y558600D03*
X1156860D03*
X1206860D03*
X1256860D03*
X1306860D03*
X1356860D03*
X1406860D03*
X1456860D03*
X1506860D03*
X1556860D03*
X1606860D03*
X1656860D03*
G54D14*
X9043540Y1509960D03*
Y1559960D03*
Y1609960D03*
Y1659960D03*
Y1709960D03*
Y1759960D03*
Y1809960D03*
Y1859960D03*
Y1909960D03*
Y1959960D03*
Y2009960D03*
Y2059960D03*
X8233540D03*
Y2009960D03*
Y1959960D03*
Y1909960D03*
Y1859960D03*
Y1809960D03*
Y1759960D03*
Y1709960D03*
Y1659960D03*
Y1609960D03*
Y1559960D03*
Y1509960D03*
X1786860Y688600D03*
Y738600D03*
Y788600D03*
Y838600D03*
Y888600D03*
Y938600D03*
Y988600D03*
Y1038600D03*
Y1088600D03*
Y1138600D03*
Y1188600D03*
Y1238600D03*
X976860D03*
Y1188600D03*
Y1138600D03*
Y1088600D03*
Y1038600D03*
Y988600D03*
Y938600D03*
Y888600D03*
Y838600D03*
Y788600D03*
Y738600D03*
Y688600D03*
G54D15*
X1927500Y4681920D03*
Y4440000D03*
G54D16*
X1988040Y6355080D03*
X2208040Y6260080D03*
Y6450080D03*
X1050780Y4726940D03*
X1270780Y4631940D03*
Y4821940D03*
X3171680Y7197340D03*
Y7387340D03*
X3391680Y7292340D03*
X8820640Y7305040D03*
X9040640Y7210040D03*
Y7400040D03*
X1463980Y4146060D03*
Y4336060D03*
X1683980Y4241060D03*
G54D17*
X7150200Y9633880D03*
X7245200Y9413880D03*
X7340200Y9633880D03*
G54D18*
X6517640Y1199820D03*
Y999820D03*
X8641900Y806680D03*
Y606680D03*
X9118600Y820700D03*
Y620700D03*
X7048500Y6764960D03*
Y6564960D03*
X7167880Y7201840D03*
Y7001840D03*
X6926580Y7196760D03*
Y6996760D03*
Y7582840D03*
Y7382840D03*
Y7994320D03*
Y7794320D03*
X7625000Y8875000D03*
Y8675000D03*
X4262120Y7692060D03*
Y7492060D03*
X4140200Y7267880D03*
Y7067880D03*
X4399280Y7267880D03*
Y7067880D03*
X6012180Y5611800D03*
Y5411800D03*
X6324600Y5574300D03*
Y5374300D03*
X6545580Y5611800D03*
Y5411800D03*
X4015740Y6404280D03*
Y6204280D03*
X4259580Y6404280D03*
Y6204280D03*
X777340Y1607160D03*
Y1407160D03*
X2580740Y1089000D03*
Y889000D03*
X2420720Y1688440D03*
Y1488440D03*
X4142740Y6810680D03*
Y6610680D03*
X4391660Y6810680D03*
Y6610680D03*
G54D19*
X8100000Y320000D03*
Y480000D03*
X7900000Y320000D03*
Y480000D03*
X3200000Y320000D03*
Y480000D03*
X3000000Y320000D03*
Y480000D03*
X4100000Y320000D03*
Y480000D03*
X4300000Y320000D03*
Y480000D03*
G54D20*
X9118600Y1011620D03*
Y1181620D03*
X9321800Y1011620D03*
Y1181620D03*
X2735120Y1487260D03*
Y1657260D03*
G54D21*
X8900000Y2500000D03*
X9100000D03*
X5630240Y8402320D03*
X5830240D03*
X5107000Y8572500D03*
X5307000D03*
X7150000Y8650000D03*
X7350000D03*
X4177360Y8206740D03*
X4377360D03*
X4182440Y7927340D03*
X4382440D03*
X6511620Y8155940D03*
X6711620D03*
X6084900D03*
X6284900D03*
X5630240D03*
X5830240D03*
X4644720Y5608320D03*
X4844720D03*
X5129860Y5491480D03*
X5329860D03*
X5574360Y5379720D03*
X5774360D03*
X5576900Y5618480D03*
X5776900D03*
X3697680Y720860D03*
X3897680D03*
X5215260Y3014780D03*
X5415260D03*
X5107000Y8300720D03*
X5307000D03*
G54D22*
X7452360Y6731140D03*
Y6431140D03*
X7307580Y7747140D03*
Y7447140D03*
X4792980Y8605660D03*
Y8305660D03*
X4284980Y5759140D03*
Y5459140D03*
X6883400Y5588300D03*
Y5288300D03*
G54D23*
X7970520Y6825100D03*
Y7475100D03*
G54D24*
X4079100Y8569960D03*
X4379100D03*
X6227940Y8506460D03*
X6527940D03*
G54D25*
X6920000Y8941980D03*
Y8875940D03*
Y9072500D03*
Y9007500D03*
X7182080Y8875940D03*
Y8941980D03*
Y9007500D03*
Y9072500D03*
G54D26*
X5162540Y9099700D03*
X5812540D03*
G54D27*
X2288220Y4281500D03*
Y4154500D03*
Y4408500D03*
Y4535500D03*
X2829240Y4408500D03*
Y4154500D03*
Y4281500D03*
Y4535500D03*
G54D28*
X2223680Y440780D03*
Y661760D03*
X2393860Y440780D03*
Y661760D03*
G54D29*
X1990280Y1491920D03*
X2160280D03*
G54D30*
X5131600Y1034940D03*
Y1179940D03*
X5181600Y1034940D03*
X5231600D03*
X5181600Y1179940D03*
X5231600D03*
X6861340Y1034940D03*
Y1179940D03*
X6911340Y1034940D03*
X6961340D03*
X6911340Y1179940D03*
X6961340D03*
G54D31*
X8143280Y793640D03*
Y963820D03*
X8364260Y793640D03*
Y963820D03*
G54D32*
X3432680Y4406740D03*
Y4279740D03*
X4438520Y4406740D03*
Y4279740D03*
X3432680Y3263740D03*
Y3390740D03*
Y3517740D03*
Y3644740D03*
Y3771740D03*
Y3898740D03*
Y4025740D03*
Y4152740D03*
X4438520D03*
Y4025740D03*
Y3898740D03*
Y3771740D03*
Y3644740D03*
Y3517740D03*
Y3390740D03*
Y3263740D03*
X3622860Y4912300D03*
X3008180D03*
X3622860Y5039300D03*
Y5166300D03*
X3008180Y5039300D03*
Y5166300D03*
X3622860Y5293300D03*
X3008180D03*
X4861020Y2337820D03*
X4246340D03*
X4861020Y2464820D03*
Y2591820D03*
X4246340Y2464820D03*
Y2591820D03*
X4861020Y2718820D03*
X4246340D03*
G54D33*
X7980680Y3549320D03*
X7853680D03*
X7980680Y2543480D03*
X7853680D03*
X6837680Y3549320D03*
X6964680D03*
X7091680D03*
X7218680D03*
X7345680D03*
X7472680D03*
X7599680D03*
X7726680D03*
Y2543480D03*
X7599680D03*
X7472680D03*
X7345680D03*
X7218680D03*
X7091680D03*
X6964680D03*
X6837680D03*
G54D34*
X7450000Y9000000D03*
Y8900000D03*
X2660000Y2280000D03*
Y2380000D03*
X3780000Y2000000D03*
Y2100000D03*
X3920000Y1980000D03*
Y2080000D03*
X9405620Y3910800D03*
Y3810800D03*
X7810500Y4172740D03*
Y4072740D03*
X9405620Y5640540D03*
Y5540540D03*
X7810500Y5789460D03*
Y5889460D03*
X9405620Y4642320D03*
Y4542320D03*
X7810500Y5502440D03*
Y5602440D03*
X9405620Y6049340D03*
Y6149340D03*
Y4049560D03*
Y4149560D03*
Y5937720D03*
Y5837720D03*
X7810500Y4486440D03*
Y4586440D03*
X9405620Y5340820D03*
Y5240820D03*
X2210000Y4837500D03*
Y4737500D03*
X1930000Y4040000D03*
Y4140000D03*
X5382260Y1049820D03*
Y1149820D03*
X1071980Y368440D03*
Y268440D03*
X1988920Y436080D03*
Y536080D03*
X929740Y368440D03*
Y268440D03*
X1988920Y769760D03*
Y669760D03*
X2232500Y952500D03*
Y1052500D03*
X1988920Y1022820D03*
Y1122820D03*
Y1333640D03*
Y1233640D03*
X6725920Y1049820D03*
Y1149820D03*
X8613140Y1192340D03*
Y1092340D03*
X8778240Y1192340D03*
Y1092340D03*
X8039100Y1659700D03*
Y1559700D03*
X8923020Y1192340D03*
Y1092340D03*
X9220200Y2081340D03*
Y1981340D03*
X8039100Y1961960D03*
Y1861960D03*
X6532500Y3412500D03*
Y3512500D03*
X3435220Y3064820D03*
Y2964820D03*
X5745480Y6990880D03*
Y7090880D03*
X5547360Y7089940D03*
Y7189940D03*
Y7290600D03*
Y7390600D03*
X5745480Y6487960D03*
Y6587960D03*
X5542280D03*
Y6487960D03*
X5943600Y7189000D03*
Y7289000D03*
X4843780Y6288240D03*
Y6188240D03*
X5346700Y7892580D03*
Y7992580D03*
X5547360Y7491260D03*
Y7591260D03*
X4467860Y6389840D03*
Y6289840D03*
X5245100Y7588720D03*
Y7488720D03*
X4643120Y7790980D03*
Y7890980D03*
X4945380Y6589560D03*
Y6689560D03*
X6045200Y6290780D03*
Y6190780D03*
X5146040Y7289000D03*
Y7189000D03*
X6746240Y6688620D03*
Y6788620D03*
X4460240Y7486180D03*
Y7586180D03*
X2400300Y6259360D03*
Y6359360D03*
X1483360Y4676940D03*
Y4776940D03*
X3091180Y7582700D03*
Y7682700D03*
X3600000Y1400000D03*
Y1500000D03*
X2750000Y8190000D03*
Y8090000D03*
Y7970000D03*
Y7870000D03*
X762100Y687540D03*
Y787540D03*
X3200000Y800000D03*
Y700000D03*
X3000000Y800000D03*
Y700000D03*
X4670000Y3712500D03*
Y3812500D03*
X3622040Y2238540D03*
Y2338540D03*
X5940000Y6290000D03*
Y6190000D03*
X7900000Y787500D03*
Y687500D03*
X1290000Y3232500D03*
Y3332500D03*
X1287500Y2805000D03*
Y2905000D03*
X1300000Y2470000D03*
Y2370000D03*
X4470000Y6085000D03*
Y6185000D03*
X1778000Y6259360D03*
Y6359360D03*
X1297120Y4165660D03*
Y4265660D03*
X1675230Y1574000D03*
Y1674000D03*
X1549500Y1574000D03*
Y1674000D03*
X1800960D03*
Y1574000D03*
G54D35*
X7075000Y9250000D03*
X7175000D03*
X1362500Y2045000D03*
X1262500D03*
X3860000Y5167500D03*
X3960000D03*
X1204860Y356540D03*
X1304860D03*
X1557920Y359080D03*
X1657920D03*
X1103260Y1578280D03*
X1203260D03*
X8045920Y2089760D03*
X7945920D03*
X8130000Y1182500D03*
X8230000D03*
X8042500Y2215000D03*
X7942500D03*
X8459940Y1182980D03*
X8359940D03*
X5490400Y4495080D03*
X5390400D03*
X5258320Y3242860D03*
X5358320D03*
X9905200Y3614420D03*
X9805200D03*
X5545620Y6789420D03*
X5645620D03*
X4805000Y2947500D03*
X4905000D03*
X4250000Y9350000D03*
X4150000D03*
X6143460Y6987540D03*
X6043460D03*
X5843740Y7289800D03*
X5743740D03*
X6043460Y7091680D03*
X6143460D03*
X6046000Y6385560D03*
X6146000D03*
X5743740Y7190740D03*
X5843740D03*
X5746280Y6690360D03*
X5846280D03*
X6046000Y6789420D03*
X6146000D03*
X6145060Y6687820D03*
X6245060D03*
X6043460Y6588760D03*
X6143460D03*
X5847880D03*
X5947880D03*
X5945340Y6484620D03*
X5845340D03*
Y7089140D03*
X5945340D03*
X6143460Y6484620D03*
X6043460D03*
X5843740Y6388100D03*
X5743740D03*
X6143460Y7190740D03*
X6043460D03*
X6046000Y7289800D03*
X6146000D03*
X4745520Y5986780D03*
X4845520D03*
X6245060Y6192440D03*
X6145060D03*
X5043640Y6987540D03*
X4943640D03*
X5350980Y5699760D03*
X5250980D03*
X6731800Y6474460D03*
X6831800D03*
X5345900Y6791960D03*
X5245900D03*
X5043640Y5890260D03*
X4943640D03*
X4944580Y7691120D03*
X4844580D03*
X4745520Y6789420D03*
X4845520D03*
X5042700Y8079740D03*
X5142700D03*
X6443180Y6789420D03*
X6343180D03*
X5145240Y6189980D03*
X5045240D03*
X4644860Y6687820D03*
X4544860D03*
X7240000Y1670000D03*
X7340000D03*
X2520480Y8083080D03*
X2620480D03*
X7225000Y9950000D03*
X7125000D03*
Y9825000D03*
X7225000D03*
X4147020Y2004060D03*
X4047020D03*
X2794020Y5039300D03*
X2694020D03*
X2792500Y5290000D03*
X2692500D03*
X3080860Y4162900D03*
X3180860D03*
X3018320Y4279900D03*
X3118320D03*
X3018320Y4409440D03*
X3118320D03*
X2079560Y915340D03*
X1979560D03*
X733360Y1184580D03*
X633360D03*
X733360Y950900D03*
X633360D03*
X8902500Y940000D03*
X8802500D03*
X8367560Y2384400D03*
X8467560D03*
X3759100Y5917570D03*
X3659100D03*
Y6040760D03*
X3759100D03*
X3975000Y7157500D03*
X3875000D03*
X8370900Y7172960D03*
X8470900D03*
X3470000Y6765000D03*
X3570000D03*
X9241320Y7211060D03*
X9341320D03*
X9383560Y6840220D03*
X9483560D03*
X9381020Y6586220D03*
X9481020D03*
X9381020Y6334760D03*
X9481020D03*
X4202500Y2947500D03*
X4302500D03*
X8370900Y7312660D03*
X8470900D03*
X3772500Y6765000D03*
X3672500D03*
X3777500Y6902500D03*
X3677500D03*
X1149820Y5016500D03*
X1049820D03*
X1200000Y4470000D03*
X1100000D03*
X3491700Y7035800D03*
X3391700D03*
X3197500Y7562500D03*
X3297500D03*
X8390000Y480000D03*
X8290000D03*
X3765000Y6600000D03*
X3665000D03*
X3765000Y6456070D03*
X3665000D03*
X3765000Y6305000D03*
X3665000D03*
X9210840Y1513180D03*
X9310840D03*
X9210840Y1660500D03*
X9310840D03*
Y1363320D03*
X9210840D03*
G54D36*
X5661000Y150000D03*
Y700520D03*
X4791000Y150000D03*
Y700520D03*
X7461000Y150000D03*
Y700520D03*
X6591000Y150000D03*
Y700520D03*
G54D37*
X5385020Y720000D03*
X5305000D03*
X5225000D03*
X5145000D03*
X5065000D03*
X7185020D03*
X7105000D03*
X7025000D03*
X6945000D03*
X6865000D03*
G54D38*
X9192040Y3932640D03*
Y3982640D03*
Y4032640D03*
Y4082640D03*
Y4132640D03*
Y4182640D03*
Y4232640D03*
Y4282640D03*
Y4332640D03*
Y4382640D03*
Y4432640D03*
Y4482640D03*
Y4532640D03*
Y4582640D03*
Y4632640D03*
Y4682640D03*
Y4732640D03*
Y4782640D03*
Y4832640D03*
Y4882640D03*
Y4932640D03*
Y4982640D03*
Y5032640D03*
Y5082640D03*
Y5132640D03*
Y5182640D03*
Y5232640D03*
Y5282640D03*
Y5332640D03*
Y5382640D03*
Y5432640D03*
Y5482640D03*
Y5532640D03*
Y5582640D03*
Y5632640D03*
Y5682640D03*
Y5732640D03*
Y5782640D03*
Y5832640D03*
Y5882640D03*
Y5932640D03*
Y5982640D03*
Y6032640D03*
X8042040Y3932640D03*
Y3982640D03*
Y4032640D03*
Y4082640D03*
Y4132640D03*
Y4182640D03*
Y4232640D03*
Y4282640D03*
Y4332640D03*
Y4382640D03*
Y4432640D03*
Y4482640D03*
Y4532640D03*
Y4582640D03*
Y4632640D03*
Y4682640D03*
Y4732640D03*
Y4782640D03*
Y4832640D03*
Y4882640D03*
Y4932640D03*
Y4982640D03*
Y5032640D03*
Y5082640D03*
Y5132640D03*
Y5182640D03*
Y5232640D03*
Y5282640D03*
Y5332640D03*
Y5382640D03*
Y5432640D03*
Y5482640D03*
Y5532640D03*
Y5582640D03*
Y5632640D03*
Y5682640D03*
Y5732640D03*
Y5782640D03*
Y5832640D03*
Y5882640D03*
Y5932640D03*
Y5982640D03*
Y6032640D03*
G54D39*
X4035000Y6637500D03*
G54D40*
X7490460Y1125220D03*
Y1379220D03*
X7236460D03*
X7744460Y1125220D03*
Y1379220D03*
X9474200Y3116580D03*
X8784700Y2862580D03*
Y3116580D03*
X9038700D03*
Y2862580D03*
Y3370580D03*
X9903700Y1846580D03*
Y2862580D03*
Y3116580D03*
Y1338580D03*
Y1592580D03*
Y1084580D03*
Y2100580D03*
Y2354580D03*
Y2608580D03*
X6591680Y9174480D03*
X2790920Y9649460D03*
X3044920D03*
X3298920D03*
X2790920Y9903460D03*
X3044920D03*
X3552920Y9649460D03*
X3298920Y9903460D03*
X4060920Y9649460D03*
X3806920D03*
X4314920D03*
X4568920D03*
X4060920Y9903460D03*
X3552920D03*
X3806920D03*
X4314920D03*
X5069300Y9649460D03*
X5323300D03*
X5577300D03*
X5069300Y9903460D03*
X5323300D03*
X5831300Y9649460D03*
X5577300Y9903460D03*
X6339300Y9649460D03*
X6085300D03*
X6593300D03*
X6847300D03*
X6339300Y9903460D03*
X5831300D03*
X6085300D03*
X6593300D03*
X9903700Y6332220D03*
Y6840220D03*
Y6586220D03*
Y7602220D03*
Y7856220D03*
Y7094220D03*
Y7348220D03*
X9474200Y2100600D03*
Y2354600D03*
X1903920Y3335020D03*
Y2904070D03*
Y2473110D03*
X2659380Y2042160D03*
X2913380D03*
X1897380D03*
X2405380D03*
X2151380D03*
X4104640Y1125220D03*
X4358640D03*
X3850640Y1379220D03*
X4358640D03*
X4104640D03*
G54D41*
X7236460Y1125220D03*
X6337680Y9174480D03*
X4568920Y9903460D03*
X6847300D03*
X1649920Y3335020D03*
Y2904070D03*
Y2473110D03*
X1643380Y2042160D03*
X3850640Y1125220D03*
X9474200Y3370580D03*
X8784700D03*
X9903700D03*
Y6078220D03*
X9474200Y2608600D03*
G54D42*
X800000Y9198400D03*
G54D43*
X1280000Y9478400D03*
Y8898400D03*
G54D44*
X8622920Y1570080D03*
X8557500Y1520000D03*
X5462770Y4422720D03*
X4742730Y4140200D03*
X5395000Y4420000D03*
X5870000Y4182390D03*
X5882790Y4055200D03*
X8455410Y1510070D03*
X8755000Y1502500D03*
X8867930Y1500070D03*
X8912500Y1952500D03*
X8817930Y2065100D03*
X8752500Y2067350D03*
X8410410Y2077600D03*
X1742500Y1342500D03*
X1627500Y1232500D03*
X1555000Y1245000D03*
X1210060Y1250060D03*
X1670000Y842500D03*
X1360000Y717500D03*
X1751250Y568750D03*
X1355000Y440000D03*
X1112500Y740000D03*
X5044630Y7788910D03*
X8279770Y592500D03*
X1395000Y995000D03*
X7575000Y2167500D03*
X7720000Y2010000D03*
X7725000Y1670000D03*
X4240000Y3150000D03*
X6917500Y3280000D03*
X7612500Y1675000D03*
X7030000Y2087500D03*
X4890000Y1980000D03*
X5042750Y3145150D03*
X5092500Y3100000D03*
X4800230Y3112650D03*
X5452770Y3695180D03*
X7945000Y2155000D03*
X7052500Y1677500D03*
X7585000Y2807500D03*
X8784700Y3737800D03*
X3780000Y2532500D03*
X4590000Y3237500D03*
X3865000Y2515000D03*
X4592500Y3165000D03*
X3002650Y942550D03*
X2923830Y945000D03*
X5412500Y3595000D03*
X5392500Y3660000D03*
X4850000Y3442500D03*
X4702500Y3605000D03*
X5545270Y1942590D03*
X5267500Y2120000D03*
X4425000Y1655000D03*
X6957500Y2700000D03*
X6725920Y1208420D03*
X6911340Y1273660D03*
X5143690Y7788910D03*
X4945570Y7890510D03*
X5245290D03*
Y7989570D03*
X5143690Y7890510D03*
X5245290Y7788910D03*
X5344350D03*
X5143690Y7989570D03*
X5044630D03*
X4945570D03*
X5443410Y7588250D03*
X5344350D03*
X5545010D03*
X5744870D03*
X5344350Y7489190D03*
X8527920Y5330260D03*
X8462500Y5257500D03*
X9013740Y4598740D03*
X7845000Y4785000D03*
X9367500Y4730000D03*
X7647180Y4626510D03*
X7220220Y5809780D03*
X7642870Y5602770D03*
X3005000Y2327500D03*
X3117500Y2352500D03*
X9000000Y5780700D03*
X5255000Y5640000D03*
X6012500Y2342500D03*
X6050000Y2230000D03*
X8410000Y5820000D03*
X7487500Y6105000D03*
X7640000Y5892500D03*
X8322500Y5887500D03*
X8237500Y5990000D03*
X6082500Y2107500D03*
X8860000Y6007500D03*
X7430000Y6142500D03*
X8487910Y6047800D03*
X6490000Y2176970D03*
X6477500Y2097500D03*
X9040440Y5832790D03*
X9072500Y5732500D03*
X6237500Y5787500D03*
X6344990Y5787490D03*
X8457500Y5950000D03*
X7117500Y5885000D03*
X7670000Y4950000D03*
X5744020Y5888480D03*
X7615000Y4080000D03*
X9087940Y4152700D03*
X9060000Y4920000D03*
X4800000Y4850000D03*
X4749990Y4899990D03*
X4790000Y4970000D03*
X4700000Y4850000D03*
X7829040Y5029040D03*
X9020000Y5030000D03*
X4844000Y6988810D03*
X4744900D03*
X4643310D03*
X5544140Y6989680D03*
X5745340Y6989280D03*
Y6788480D03*
X5544540Y6688480D03*
X5845340Y6989280D03*
X5745340Y6688480D03*
X5845340Y6788480D03*
X5443410Y6988810D03*
X5545010Y7090410D03*
X5443410Y6788950D03*
X5744870Y7090410D03*
X5845340Y6688480D03*
X5443410Y6688950D03*
X5844870Y7090410D03*
X5443410D03*
X5344350Y6988810D03*
X5545010Y7189470D03*
X5544540Y6588480D03*
X5945340Y6989280D03*
X5344350Y6788950D03*
X5744870Y7189470D03*
X5745340Y6588480D03*
X5945340Y6788480D03*
X5344350Y6688950D03*
X5844870Y7189470D03*
X5845340Y6588480D03*
X5945340Y6688480D03*
X5344350Y7090410D03*
X5443410Y7189470D03*
Y6588950D03*
X5944870Y7090410D03*
X5245290Y6988810D03*
X5545010Y7288530D03*
X5245290Y6788950D03*
X5744870Y7288530D03*
X5544540Y6488480D03*
X6045340Y6989280D03*
X5745340Y6488480D03*
X6045340Y6788480D03*
X5344350Y7189470D03*
Y6588950D03*
X5944870Y7189470D03*
X5945340Y6588480D03*
X5245290Y6688950D03*
X5844870Y7288530D03*
X5245290Y7090410D03*
X5443410Y7288530D03*
X5845340Y6488480D03*
X6045340Y6688480D03*
X5443410Y6488950D03*
X6044870Y7090410D03*
X5245290Y7189470D03*
X5344350Y7288530D03*
X5245290Y6588950D03*
X5944870Y7288530D03*
X5344350Y6488950D03*
X6044870Y7189470D03*
X5945340Y6488480D03*
X6045340Y6588480D03*
X5544540Y6388480D03*
X6145340Y6989280D03*
X5745340Y6388480D03*
X6145340Y6788480D03*
X5143690Y6988810D03*
X5545010Y7390130D03*
X5143690Y6788950D03*
X5744870Y7390130D03*
X5845340Y6388480D03*
X6145340Y6688480D03*
X5443410Y6388950D03*
X6144870Y7090410D03*
X5143690Y6688950D03*
X5844870Y7390130D03*
X5143690Y7090410D03*
X5443410Y7390130D03*
X5245290Y7288530D03*
Y6488950D03*
X6044870Y7288530D03*
X6045340Y6488480D03*
X5344350Y6388950D03*
X6144870Y7189470D03*
X5945340Y6388480D03*
X6145340Y6588480D03*
X5344350Y7390130D03*
X5143690Y6588950D03*
X5944870Y7390130D03*
X5044630Y6988810D03*
X5545010Y7489190D03*
X5044630Y6788950D03*
X5744870Y7489190D03*
X5544540Y6288480D03*
X6245340Y6989280D03*
X5745340Y6288480D03*
X6245340Y6788480D03*
X5245290Y6388950D03*
X6144870Y7288530D03*
X5044630Y6688950D03*
X5844870Y7489190D03*
X5044630Y7090410D03*
X5443410Y7489190D03*
X5143690Y7288530D03*
X5245290Y7390130D03*
X5845340Y6288480D03*
X6245340Y6688480D03*
X6045340Y6388480D03*
X6145340Y6488480D03*
X5443410Y6288950D03*
X6244870Y7090410D03*
X5143690Y6488950D03*
X6044870Y7390130D03*
X5044630Y7189470D03*
Y6588950D03*
X5944870Y7489190D03*
X5344350Y6288950D03*
X6244870Y7189470D03*
X5945340Y6288480D03*
X6245340Y6588480D03*
X6145340Y6388480D03*
X5143690Y6388950D03*
X6144870Y7390130D03*
X5143690D03*
X4945570Y6988810D03*
Y6788950D03*
X5044630Y7288530D03*
X5245290Y6288950D03*
X6244870Y7288530D03*
X5044630Y6488950D03*
X6044870Y7489190D03*
X5544540Y6188480D03*
X6345340Y6989280D03*
X5745340Y6188480D03*
X6345340Y6788480D03*
X6045340Y6288480D03*
X6245340Y6488480D03*
X4945570Y6688950D03*
X5844870Y7588250D03*
X4945570Y7090410D03*
X5845340Y6188480D03*
X6345340Y6688480D03*
X5443410Y6188950D03*
X6344870Y7090410D03*
X4945570Y7189470D03*
Y6588950D03*
X5944870Y7588250D03*
X5344350Y6188950D03*
X6344870Y7189470D03*
X5945340Y6188480D03*
X6345340Y6588480D03*
X5044630Y6388950D03*
X6144870Y7489190D03*
X6145340Y6288480D03*
X6245340Y6388480D03*
X5044630Y7390130D03*
X5143690Y7489190D03*
Y6288950D03*
X6244870Y7390130D03*
X4945570Y7288530D03*
X5245290Y7588250D03*
X4945570Y6488950D03*
X6044870Y7588250D03*
X5245290Y6188950D03*
X6344870Y7288530D03*
X6045340Y6188480D03*
X6345340Y6488480D03*
X5544540Y6088480D03*
X6445340Y6989280D03*
X5745340Y6088480D03*
X6445340Y6788480D03*
X5545010Y7689850D03*
X4843970Y6788950D03*
X5744870Y7689850D03*
X5845340Y6088480D03*
X6445340Y6688480D03*
X6444870Y7090410D03*
X4843970Y6688950D03*
X5844870Y7689850D03*
X4843970Y7090410D03*
X5443410Y7689850D03*
X5044630Y7489190D03*
Y6288950D03*
X6244870Y7489190D03*
X6245340Y6288480D03*
X4945570Y6388950D03*
X6144870Y7588250D03*
X4945570Y7390130D03*
X5143690Y7588250D03*
X6444870Y7189470D03*
X5945340Y6088480D03*
X6445340Y6588480D03*
X6145340Y6188480D03*
X6345340Y6388480D03*
X4843970Y7189470D03*
X5344350Y7689850D03*
X4843970Y6588950D03*
X5944870Y7689850D03*
X5143690Y6188950D03*
X6344870Y7390130D03*
X5245290Y6088950D03*
X6444870Y7288530D03*
X4843970D03*
X6045340Y6088480D03*
X6445340Y6488480D03*
X4843970Y6488950D03*
X6044870Y7689850D03*
X4945570Y7489190D03*
X5044630Y7588250D03*
X4945570Y6288950D03*
X6244870Y7588250D03*
X5545010Y7788910D03*
X5744870D03*
X6545340Y6989280D03*
X5745340Y5988480D03*
X6545340Y6788480D03*
X5044630Y6188950D03*
X6344870Y7489190D03*
X6245340Y6188480D03*
X6345340Y6288480D03*
X4744910Y6688950D03*
X5844870Y7788910D03*
X4744910Y7090410D03*
X5443410Y7788910D03*
X5845340Y5988480D03*
X6545340Y6688480D03*
X6544870Y7090410D03*
X6145340Y6088480D03*
X6445340Y6388480D03*
X4843970Y6388950D03*
X6144870Y7689850D03*
X5143690Y6088950D03*
X6444870Y7390130D03*
X4843970D03*
X4744910Y7189470D03*
Y6588950D03*
X5944870Y7788910D03*
X5344350Y5988950D03*
X6544870Y7189470D03*
X5945340Y5988480D03*
X6545340Y6588480D03*
X4945570Y7588250D03*
X4744910Y7288530D03*
X4945570Y6188950D03*
X6344870Y7588250D03*
X4744910Y6488950D03*
X6044870Y7788910D03*
X5245290Y5988950D03*
X6544870Y7288530D03*
X6045340Y5988480D03*
X6545340Y6488480D03*
X6345340Y6188480D03*
X5044630Y6088950D03*
X6444870Y7489190D03*
X6245340Y6088480D03*
X6445340Y6288480D03*
X4843970Y7489190D03*
X5044630Y7689850D03*
X4843970Y6288950D03*
X6244870Y7689850D03*
X5544540Y5888480D03*
X6645340Y6989280D03*
Y6788480D03*
X5545010Y7890510D03*
X4643310Y6788950D03*
X5744870Y7890510D03*
X4744910Y6388950D03*
X6144870Y7788910D03*
X4744910Y7390130D03*
X5845340Y5888480D03*
X6645340Y6688480D03*
X5443410Y5888950D03*
X6644870Y7090410D03*
X6145340Y5988480D03*
X6545340Y6388480D03*
X5143690Y5988950D03*
X6544870Y7390130D03*
X4643310Y6688950D03*
X5844870Y7890510D03*
X4643310Y7090410D03*
X5443410Y7890510D03*
X5344350Y5888950D03*
X6644870Y7189470D03*
X5945340Y5888480D03*
X6645340Y6588480D03*
X4643310Y7189470D03*
X5344350Y7890510D03*
X4643310Y6588950D03*
X5944870Y7890510D03*
X4945570Y6088950D03*
X6444870Y7588250D03*
X4843970D03*
X4945570Y7689850D03*
X6345340Y6088480D03*
X6445340Y6188480D03*
X4843970Y6188950D03*
X6344870Y7689850D03*
X4744910Y7489190D03*
Y6288950D03*
X6244870Y7788910D03*
X5245290Y5888950D03*
X6644870Y7288530D03*
X5044630Y5988950D03*
X6544870Y7489190D03*
X6045340Y5888480D03*
X6645340Y6488480D03*
X6245340Y5988480D03*
X6545340Y6288480D03*
X4643310Y7288530D03*
Y6488950D03*
X6044870Y7890510D03*
X5544540Y5788480D03*
X4544250Y6988810D03*
X6745340Y6989280D03*
X5745340Y5788480D03*
X4544250Y6788950D03*
X5744870Y7989570D03*
X6145340Y5888480D03*
X6645340Y6388480D03*
X6644870Y7390130D03*
X4643310Y6388950D03*
X6144870Y7890510D03*
X4643310Y7390130D03*
X5845340Y5788480D03*
X6745340Y6688480D03*
X5844870Y7989570D03*
X5443410Y5788950D03*
X4544250Y7090410D03*
X6744870D03*
X6445340Y6088480D03*
X4843970Y6088950D03*
X6444870Y7689850D03*
X4843970D03*
X4744910Y7588250D03*
X4945570Y7788910D03*
Y5988950D03*
X6544870Y7588250D03*
X4744910Y6188950D03*
X6344870Y7788910D03*
X6345340Y5988480D03*
X6545340Y6188480D03*
X5344350Y5788950D03*
X4544250Y7189470D03*
X6744870D03*
X5945340Y5788480D03*
X4544250Y6588950D03*
X6745340Y6588480D03*
X5944870Y7989570D03*
X5044630Y5888950D03*
X6644870Y7489190D03*
X6245340Y5888480D03*
X6645340Y6288480D03*
X4643310Y7489190D03*
X5044630Y7890510D03*
X4643310Y6288950D03*
X6244870Y7890510D03*
X5245290Y5788950D03*
X4544250Y7288530D03*
X6744870D03*
X6045340Y5788480D03*
X4544250Y6488950D03*
X6044870Y7989570D03*
X4744910Y6088950D03*
X6444870Y7788910D03*
X4744910Y7689850D03*
X4843970Y7788910D03*
X6445340Y5988480D03*
X6545340Y6088480D03*
X4843970Y5988950D03*
X6544870Y7689850D03*
X6145340Y5788480D03*
X4544250Y6388950D03*
X6745340Y6388480D03*
X6144870Y7989570D03*
X5143690Y5788950D03*
X4544250Y7390130D03*
X6744870D03*
X4945570Y5888950D03*
X6644870Y7588250D03*
X6645340Y6188480D03*
X4643310Y7588250D03*
Y6188950D03*
X6344870Y7890510D03*
X5044630Y5788950D03*
X4544250Y7489190D03*
X6744870D03*
X4544250Y6288950D03*
X6745340Y6288480D03*
X6244870Y7989570D03*
X4744910Y7788910D03*
Y5988950D03*
X6544870Y7788910D03*
X6545340Y5988480D03*
X6445340Y5888480D03*
X6645340Y6088480D03*
X4843970Y5888950D03*
X6644870Y7689850D03*
X4643310Y6088950D03*
X6444870Y7890510D03*
X4643310Y7689850D03*
X4843970Y7890510D03*
X4945570Y5788950D03*
X4544250Y7588250D03*
X6744870D03*
X4544250Y6188950D03*
X6745340Y6188480D03*
X6344870Y7989570D03*
X4744910Y5888950D03*
X6644870Y7788910D03*
X6545340Y5888480D03*
X6645340Y5988480D03*
X4643310Y7788910D03*
X4744910Y7890510D03*
X4643310Y5988950D03*
X6544870Y7890510D03*
X6445340Y5788480D03*
X4544250Y6088950D03*
X6745340Y6088480D03*
X6444870Y7989570D03*
X4544250Y7689850D03*
X6744870D03*
X4843970Y7989570D03*
X6645340Y5888480D03*
X4643310Y5888950D03*
X6644870Y7890510D03*
X4544250Y7788910D03*
X6744870D03*
X4744910Y7989570D03*
X6545340Y5788480D03*
X4544250Y5988950D03*
X6745340Y5988480D03*
X6544870Y7989570D03*
X6645340Y5788480D03*
X4544250Y5888950D03*
X6745340Y5888480D03*
X6644870Y7989570D03*
X4643310Y5788950D03*
X4544250Y7890510D03*
X6744870D03*
X4643310Y7989570D03*
X4544250Y5788950D03*
X6745340Y5788480D03*
X6744870Y7989570D03*
X5542470Y6788950D03*
X4643120Y7890980D03*
X5641340Y7995920D03*
X5544820D03*
X5445760D03*
X9460000Y6050000D03*
Y5937720D03*
X9410000Y6200000D03*
X9330000Y5780000D03*
X9460000Y5840000D03*
X9470000Y5640000D03*
X9460000Y5540000D03*
Y5340000D03*
Y5240000D03*
Y4640000D03*
X9467680Y4542320D03*
X9479560Y4149560D03*
X9469560Y4049560D03*
X9469200Y3910800D03*
X9350000Y3810000D03*
X7900000Y6040000D03*
X7750540Y5889460D03*
X7740540Y5789460D03*
X7742440Y5602440D03*
X7737560Y5502440D03*
X7355680Y6145680D03*
X7220220Y5909780D03*
X7230000Y6050000D03*
X7220000Y5620000D03*
X7212880Y5312880D03*
Y5212880D03*
X6093460Y5086540D03*
X5658880Y5151120D03*
X5014760Y5005240D03*
X5114760D03*
X3971760Y5008240D03*
X3123580Y4493580D03*
X3133580Y4563580D03*
X3132180Y4097820D03*
X2972180D03*
X2982180Y4197820D03*
X2955000Y3855000D03*
X2941760Y3671760D03*
X2720780Y3300780D03*
X2755000Y3205000D03*
X3122300Y3237700D03*
X3112300Y3137700D03*
X3800000Y1940000D03*
X3270000Y3930000D03*
X3870000Y1930000D03*
X3920000Y2140000D03*
X3780000Y2160000D03*
X4140000Y1930000D03*
X4047020Y2072980D03*
X5418620Y1528620D03*
X5518620Y1531380D03*
X6084100Y1534100D03*
X6240000Y1595120D03*
X6752900Y2197100D03*
X6858400Y2368400D03*
X6779260Y2300740D03*
X6615660Y2924340D03*
Y3024340D03*
X6603840Y3516160D03*
X6606160Y3616160D03*
X6628540Y4111460D03*
Y4011460D03*
X6808000Y8782000D03*
X6670040Y8909960D03*
X6504280Y8844280D03*
X6540000Y8280000D03*
X8792360Y6032640D03*
X8941600Y5916600D03*
Y5816600D03*
X8945420Y5504580D03*
Y5604580D03*
X8842360Y5332640D03*
X8948740Y4498740D03*
Y4598740D03*
X8939800Y4064800D03*
X8843920Y3931080D03*
X9000000Y5130000D03*
X9050000Y5190000D03*
X5143690Y5888950D03*
X7670000Y5180000D03*
X7610000Y5230000D03*
X6345340Y5888480D03*
X7760000Y5050000D03*
X8930000Y4950000D03*
X9079980Y4989990D03*
X8980000Y4770000D03*
X9430000Y5030000D03*
X3560000Y2040000D03*
Y2110000D03*
X3810000Y3140000D03*
X3680000Y2130000D03*
X3960000Y2950000D03*
X3930000Y2850000D03*
X3850000Y2890000D03*
X3540000Y2730000D03*
X3550000Y2290000D03*
X3270000Y1980000D03*
X4570000Y4590000D03*
X4843970Y5788950D03*
X4744910D03*
X5443410Y6088950D03*
X5544540Y5988480D03*
X5443410Y5988950D03*
X5344350Y6088950D03*
X6182500Y3997500D03*
X9042500Y3977500D03*
X6567500Y3920000D03*
X7215000Y5537500D03*
X5797500Y4902500D03*
X6167500Y4895000D03*
X5800000Y5082500D03*
X9062500Y4087500D03*
X7290000Y4900000D03*
X8492500Y4912500D03*
X9042500Y4300000D03*
X3871760Y5008240D03*
X7640000Y4190000D03*
X6462500Y3280000D03*
X5037750Y4587720D03*
X4292500Y4560000D03*
X8145000Y5337500D03*
X8265400Y5285260D03*
X8182500Y4907500D03*
X5215000Y4890000D03*
X7210760Y4039240D03*
X7200760Y4139240D03*
X7282500Y3970000D03*
X8395000Y4432500D03*
X8185000Y4722500D03*
X5302500Y4420000D03*
X5297500Y4540000D03*
X5230000Y4490000D03*
X5187500Y4595000D03*
X7625380Y5086460D03*
X8171140Y4365700D03*
X9052500Y4372500D03*
X8960000Y4290000D03*
X8905440Y4347500D03*
X8780000Y4332400D03*
X9067500Y4230000D03*
X9002500Y4192500D03*
X4390000Y6287500D03*
X7695380Y4310210D03*
X7745380Y4485220D03*
Y4585220D03*
X7625000Y4485000D03*
X8240000Y4160000D03*
X8500000Y4145000D03*
X8937940Y4162700D03*
X9057500Y5445000D03*
X7625000Y5742500D03*
X8217500Y5610000D03*
X8475000Y5772500D03*
X8475410Y5675280D03*
X8407500Y5655000D03*
X3190000Y1810000D03*
X3232500Y1690000D03*
X7890000Y5580000D03*
X7687500Y5552500D03*
X7620000Y5457500D03*
X8790000Y5542500D03*
X7722880Y5390260D03*
X7810380Y5407760D03*
X7887500Y5365000D03*
X8447500Y5507500D03*
X9010000Y5345000D03*
X8932500D03*
X5390000Y2610000D03*
X5372500Y2355000D03*
X5720000Y3007500D03*
X6735330Y5465270D03*
X6687500Y5337500D03*
X6657500Y5467500D03*
X6702500Y4475000D03*
X6690000Y5002500D03*
X6612820Y4965240D03*
X5770000Y3195000D03*
X6165300Y5325260D03*
X6495000Y2022500D03*
X7742500Y4840000D03*
X6970000Y3882500D03*
X6672500Y3905000D03*
X7204220Y4604220D03*
X7215780Y4504220D03*
X7211740Y3818260D03*
X4975000Y2237500D03*
X8805430Y4817730D03*
X8485000Y4347500D03*
X8337500Y4065000D03*
X7710000Y4007500D03*
X7881080Y3931080D03*
X8175000Y4010000D03*
X6487500Y2780000D03*
X7890380Y4667730D03*
X8282500Y4770000D03*
X6722500Y3965000D03*
X5335000Y2180000D03*
X5137750Y2130100D03*
X9050000Y3890000D03*
X6045000Y3295000D03*
X6197500Y3182830D03*
X7295000Y4735000D03*
X7345000Y4687500D03*
X7632500Y4387500D03*
X5370000Y2540000D03*
X7690000Y4795000D03*
X7622830Y4817500D03*
X8850430Y5095250D03*
X8255400D03*
X7860380D03*
X9077500Y4677500D03*
X9057500Y4852500D03*
X9388540Y4881040D03*
X8915000Y5235000D03*
X4462500Y4577500D03*
X7195000Y4342500D03*
X6200000Y4160000D03*
X6952500Y4347500D03*
X7830000Y3732500D03*
X5220000Y2355000D03*
X5435000Y2480000D03*
X3897500Y3617500D03*
X3812500Y3765000D03*
X3280000Y3020000D03*
X8822500Y4987500D03*
X8317500Y4405000D03*
X7022840Y4225210D03*
X8459940Y1112560D03*
X8130000Y1115000D03*
X8613140Y1016860D03*
X8952500Y942500D03*
X8810000Y1030000D03*
X8960000Y1027500D03*
X9129180Y1363320D03*
X9316340Y1981340D03*
X9225000Y2150000D03*
X9321800Y1271800D03*
X9396800Y1178200D03*
X9196800Y2503200D03*
X9103200Y2403200D03*
X8803200Y2496800D03*
X8903200Y2403200D03*
X8300600Y2384400D03*
X8363540Y2303960D03*
X7972500Y1961960D03*
X7965540Y1861960D03*
X8354640Y1810360D03*
X7957800Y1659700D03*
X7960000Y1559700D03*
X8105000Y1490000D03*
X8817500Y1510000D03*
X7422500Y1670000D03*
X3000000Y567500D03*
X3200000Y562500D03*
X1287500Y2737500D03*
X1285000Y3175000D03*
X1300000Y2305000D03*
X1262500Y2117500D03*
X2660000Y2455000D03*
X5181600Y1255900D03*
X3600000Y1582500D03*
X1637500Y925000D03*
Y1005000D03*
X4100000Y192500D03*
X4302500Y195000D03*
X4500000D03*
X4835000Y332500D03*
X2400000Y215000D03*
X2600000D03*
X2797500D03*
X3000000D03*
X8097500D03*
X7895000D03*
X7697500D03*
X7382500Y332500D03*
X1988920Y368920D03*
X2075000Y769760D03*
X2150000Y922500D03*
X2062500Y1122820D03*
X2232500Y1137500D03*
X1698860Y1138860D03*
X2068640Y1233640D03*
X657160Y1407160D03*
X777340Y1317660D03*
X762100Y620400D03*
X856400Y688600D03*
X826560Y268440D03*
X1171560D03*
X1250000Y280000D03*
X1357500Y285000D03*
X5372500Y1197500D03*
X1906920Y1491920D03*
X2735120Y1742620D03*
X1722500Y450000D03*
X1717000Y300000D03*
X1494080Y359080D03*
X1271720Y1578280D03*
X1800960Y1505960D03*
X2645000Y1640000D03*
X2063860Y1333640D03*
X8069580Y8072500D03*
X9220780Y8463280D03*
X9525000Y9825000D03*
X7350000Y9525000D03*
Y9000000D03*
Y8800000D03*
Y8275000D03*
X7750000Y7875000D03*
X8225000D03*
X8500000D03*
X9000000D03*
X9400000Y8275000D03*
X9395460Y9264760D03*
X9000000Y9925000D03*
X8500000D03*
X8250000D03*
X7750000D03*
X7650000Y9625000D03*
X8000000D03*
X8325000D03*
X7650000Y9350000D03*
X8000000D03*
X8325000D03*
X7650000Y9075000D03*
X8000000D03*
X7650000Y8150000D03*
X8700000Y8325000D03*
X9200000Y8125000D03*
X9225000Y9625000D03*
X9400000Y9525000D03*
Y9000000D03*
Y8800000D03*
X8700000Y9625000D03*
X7050000Y9125000D03*
Y8800000D03*
X7025000Y9250000D03*
Y9825000D03*
X7075000Y9633880D03*
X7150000Y8525000D03*
Y8400000D03*
X2425000Y8075000D03*
X2470000Y8470000D03*
X2720000D03*
X2750000Y7810000D03*
X2683120Y7183120D03*
X2819400Y7143100D03*
X2605000Y7490000D03*
X3537500Y8162500D03*
X3016940Y7634440D03*
X3158060D03*
X3020000Y7730000D03*
X3712500Y7175000D03*
X3160000Y7310000D03*
X2075000Y6257500D03*
X2322500Y6362500D03*
X2361780Y6508220D03*
X1867500Y6362500D03*
X2045000Y6490000D03*
X3030000Y7307500D03*
X2343660Y6206930D03*
X1209000Y5016500D03*
X1483360Y4840860D03*
X1361060Y4336060D03*
X1447500Y4062500D03*
X1621780Y4123220D03*
X1342500Y4045000D03*
X942500Y4542500D03*
X2980220Y6372500D03*
X3257500Y7810000D03*
X3235000Y7737500D03*
X5197090Y8178570D03*
X5346700Y7992580D03*
X5245100Y7488720D03*
X5146040Y7189000D03*
X4745520Y6789420D03*
X4544860Y6687820D03*
X6887500Y6490000D03*
X3975000Y320000D03*
X517500Y952500D03*
X4212500Y205000D03*
X547500Y1187500D03*
X2215000Y4885000D03*
X2168000Y4154500D03*
X2012500Y4040000D03*
X3807500Y5097500D03*
X4012500Y5167500D03*
X3805000Y4912300D03*
X3182300D03*
X3182500Y5245000D03*
X2683860Y5221140D03*
X2694020Y4973480D03*
X4202500Y2882500D03*
X5000000Y2947500D03*
X3297500Y2232500D03*
X3775000Y2337500D03*
X5327500Y4097500D03*
X2458500Y4281500D03*
X7672500Y2907500D03*
X7667500Y3197500D03*
X7092500Y3362500D03*
X9805200Y3710200D03*
X9305220Y6840220D03*
Y6582720D03*
X9312720Y6332720D03*
X7940000Y870000D03*
X9423940Y7211060D03*
X9132500Y7400000D03*
X8370410Y7105350D03*
X7045000Y9912500D03*
X7605000Y8327500D03*
X7177500Y6535000D03*
X7140980Y6680980D03*
X7205000Y6757500D03*
X6967500Y6888900D03*
X4455220Y6037790D03*
X3697500Y6122500D03*
X5147500Y7687500D03*
X5245000D03*
X5645000Y6692500D03*
X8845000Y6437500D03*
X4460240Y7635240D03*
X3415000Y6765000D03*
X6830000Y6777500D03*
X6847500Y6897500D03*
X5245000Y1637500D03*
X6502500Y3765660D03*
X6185000Y3637500D03*
X5295000Y1967500D03*
X1802500Y1765000D03*
X2680130Y4155200D03*
X3185000Y4397500D03*
X3217500Y4267500D03*
X2695000Y4280000D03*
X2682500Y4422500D03*
X3200000Y3700000D03*
X6012500Y1950000D03*
X6145000Y2460000D03*
X6200300Y2157600D03*
X1505000Y1490000D03*
X3805000Y4140000D03*
X2457500Y3870000D03*
X3810000Y4055000D03*
X2527500Y3797500D03*
X3955000Y480000D03*
X3007500Y867500D03*
X3200000D03*
X7167500Y3927500D03*
X6617500Y3820000D03*
X6927500Y4842500D03*
X3175000Y5162500D03*
X3592500Y5910000D03*
X5025000Y2090000D03*
X3957500Y4290000D03*
X5015250Y4100200D03*
X5097500Y4100000D03*
X3902500Y4340000D03*
X3812690Y4385210D03*
X4790230Y4387710D03*
X3172650Y3875190D03*
X3275000Y5865000D03*
X3407500Y5060000D03*
X3247660Y4895240D03*
X3290000Y4727500D03*
X2690000Y4867500D03*
X3940000Y4542500D03*
X5065000Y4040000D03*
X6190000Y4230000D03*
X4907500Y4287500D03*
X7795000Y840000D03*
X8352500Y6267500D03*
X8435000Y6912500D03*
X8817500Y6657500D03*
X9903700Y5608700D03*
X7322500Y3332500D03*
X7547500Y2705000D03*
X7772500Y3962500D03*
X7472500Y3392500D03*
X7077500Y2722500D03*
X6922500Y6342500D03*
X6937500Y6132500D03*
X4597500Y1412500D03*
X4190000Y807500D03*
X4735230Y972550D03*
X4692500Y870000D03*
X4580000Y1010000D03*
X4472720Y872540D03*
X4345000Y875000D03*
X4462500Y992500D03*
X5935000Y4162500D03*
X5687500Y4270000D03*
X5440260Y4062700D03*
X5597500Y4420000D03*
X5610000Y4490000D03*
X5375270Y4049730D03*
X2577500Y2957500D03*
X2580000Y3130000D03*
X3150000Y3050000D03*
X3260000Y2910000D03*
X2770000Y3067500D03*
X4455000Y2422500D03*
X2647500Y2652500D03*
X3952500Y3947500D03*
X4257500Y4017500D03*
X3922500Y4020000D03*
X3798200Y4262130D03*
X3965000Y4222500D03*
X5817500Y4332500D03*
X5555000Y4037500D03*
X4592500Y3347500D03*
X6631360Y4484300D03*
X2210000Y2675000D03*
X7827500Y400000D03*
X1682500Y3752500D03*
X8220000Y315000D03*
X4250000Y3915000D03*
X3600000Y4010000D03*
X4600000Y4187500D03*
X4805000Y3017500D03*
X5022500Y2667500D03*
X4202500Y4190000D03*
X3827500Y3422500D03*
X4185000Y4065000D03*
X6172500Y4487500D03*
X3927500Y3392500D03*
X4215000Y3842500D03*
X4202500Y3742500D03*
X6185000Y3725000D03*
X6480000Y4435000D03*
X6455310Y4202500D03*
X6145000Y3430000D03*
X6197500Y3560000D03*
X6535000Y3352500D03*
X9060000Y1452500D03*
X7353860Y2382500D03*
X7560000Y3362500D03*
X7690000Y3742500D03*
X7395000Y3717500D03*
X7599680Y2417500D03*
X8012500Y2975000D03*
X8234680Y3200320D03*
X6967500Y3377500D03*
X6826480Y3081020D03*
X7110000Y3197500D03*
X7162500Y2975000D03*
X7305000Y2980000D03*
X7142500Y3707500D03*
X5730000Y2140000D03*
X5682500Y2192500D03*
X5605000Y2215000D03*
X5190000Y2085000D03*
X7797500Y755000D03*
X8622500Y2007500D03*
X6942500Y2802500D03*
X6487500Y2636520D03*
X6450000Y2582500D03*
X8540000Y1977500D03*
X8460000Y2005000D03*
X9310840Y1743340D03*
X9380000Y1512500D03*
X6192500Y2360000D03*
X5797500Y2935000D03*
X5777780Y2855140D03*
X5890000Y2605000D03*
X5947500Y2672500D03*
X5827500Y2812940D03*
X2687630Y802540D03*
X4947500Y3265000D03*
X5370000Y3727500D03*
X5277500Y3730000D03*
X5192500D03*
X5105000Y3727500D03*
X5550000Y3695000D03*
X5600000Y3642500D03*
X2400000Y920000D03*
X3027650Y1947600D03*
X1049820Y5270000D03*
X1369840Y4455160D03*
X8640000Y6432500D03*
X5982500Y2735000D03*
X4810000Y1965000D03*
X6917500Y1757500D03*
X6725000Y4160000D03*
X7022500Y8875000D03*
X7014480Y8941980D03*
X7012500Y9007500D03*
X2959500Y4535500D03*
X6580000Y2127500D03*
X7022500Y8235000D03*
X1590080Y4042700D03*
X6755000Y3567500D03*
X7750380Y4062700D03*
X7757260Y4172740D03*
X7885000Y4375000D03*
X3787500Y1657500D03*
X4237500Y4502500D03*
X1085000Y3587500D03*
X7729080Y8609080D03*
G54D39*
X4612500Y8595000D03*
X4375000Y8752500D03*
X4095000Y8750000D03*
X4512500Y8670010D03*
X4717500Y8735000D03*
X4870000Y8732500D03*
X5522500Y3017500D03*
X6207500Y5507500D03*
X5780280Y5510270D03*
X725000Y8200000D03*
X825000D03*
X925000D03*
X1025000D03*
X1125000D03*
X1225000D03*
X1325000D03*
X1425000D03*
X1525000D03*
X1625000D03*
X1725000D03*
X1825000D03*
Y8075000D03*
X1725000D03*
X1625000D03*
X1525000D03*
X1425000D03*
X1325000D03*
X1225000D03*
X1125000D03*
X1025000D03*
X925000D03*
X825000D03*
X725000D03*
X1825000Y7950000D03*
X1725000D03*
X1625000D03*
X1525000D03*
X1425000D03*
X1325000D03*
X1225000D03*
X1125000D03*
X1025000D03*
X925000D03*
X825000D03*
X725000D03*
X1825000Y7825000D03*
X1725000D03*
X1625000D03*
X1525000D03*
X1425000D03*
X1325000D03*
X1225000D03*
X1125000D03*
X1025000D03*
X925000D03*
X825000D03*
X725000D03*
X1825000Y7700000D03*
X1725000D03*
X1625000D03*
X1525000D03*
X1425000D03*
X1325000D03*
X1225000D03*
X1125000D03*
X1025000D03*
X925000D03*
X825000D03*
X725000D03*
X1825000Y7575000D03*
X1725000D03*
X1625000D03*
X1525000D03*
X1425000D03*
X1325000D03*
X1225000D03*
X1125000D03*
X1025000D03*
X925000D03*
X825000D03*
X725000D03*
X1825000Y7450000D03*
X1725000D03*
X1625000D03*
X1525000D03*
X1425000D03*
X1325000D03*
X1225000D03*
X1125000D03*
X1025000D03*
X925000D03*
X825000D03*
X725000D03*
X4725000Y8162500D03*
X4865000D03*
X4607500Y8315000D03*
X4400000Y7372500D03*
X4182500Y6960000D03*
X4035000Y6810000D03*
X4280000D03*
X4150000Y6407500D03*
X3902500Y6207500D03*
X4147500Y6202500D03*
X4360000Y5892500D03*
X4467500Y5660000D03*
X4105000Y5445000D03*
X5130000Y5380000D03*
X5330000Y5372500D03*
X5775000Y5272500D03*
X5570000Y5270000D03*
X5577500Y5507500D03*
X6795000Y5165000D03*
X6975000D03*
X6855000Y5717500D03*
X6660000Y5610000D03*
X6122500Y5612500D03*
X7050000Y6467500D03*
X7275000Y6430000D03*
X7632500D03*
X7382500Y6305000D03*
X7532500D03*
X7525000Y6855000D03*
X7387500D03*
X7627500Y6737500D03*
X6942500Y6767500D03*
X7790000Y6882500D03*
X7890000Y6660000D03*
X8050000Y6657500D03*
X8035000Y6990000D03*
X7037500Y6997500D03*
Y7195000D03*
X7275000Y7202500D03*
X8040000Y7305000D03*
X7897500Y7302500D03*
X7792500Y7470000D03*
X8145000Y7462500D03*
X7035000Y7382500D03*
X7482500Y7452500D03*
X7127500Y7722500D03*
X7487500Y7680000D03*
X6927500Y8092500D03*
X7037500Y7882500D03*
X6812500Y8145000D03*
X6417500Y8147500D03*
X6287500Y8267500D03*
X6090000Y8265000D03*
X5930000Y8145000D03*
X5535000Y8152500D03*
X5927500Y8402500D03*
X5532500Y8400000D03*
X6220000Y8685000D03*
X6100000Y8557500D03*
X6495000Y8692500D03*
X5110000Y8412500D03*
Y8682500D03*
X5402500Y8575000D03*
Y8305000D03*
X4972500Y8607500D03*
X5230000Y8920000D03*
X5092500Y8917500D03*
Y9280000D03*
X5230000Y9277500D03*
X4992500Y9172500D03*
X4995000Y9027500D03*
X5747500Y9282500D03*
X5880000D03*
X5982500Y9177500D03*
X5985000Y9020000D03*
X5742500Y8917500D03*
X5885000Y8915000D03*
X6402500Y8432500D03*
X3952500Y8645000D03*
X4380000Y8097500D03*
X4207500D03*
X4382500Y7817500D03*
X4220000D03*
X4160000Y7582500D03*
X4245000Y7267500D03*
X4287500Y6610000D03*
X4035000Y6637500D03*
X3877500Y7660000D03*
X3990000D03*
X4037500Y7920000D03*
X3877500Y7282500D03*
X3982500Y7280000D03*
X3875000Y7542500D03*
X3987500Y7537500D03*
X4602500Y8165000D03*
X2427500Y9985000D03*
Y9835000D03*
Y9485000D03*
Y9335000D03*
Y8985000D03*
Y8825000D03*
X515000Y5372500D03*
X510000Y5490000D03*
X640000Y5670000D03*
X770000D03*
X780000Y5890000D03*
X650000D03*
X510000Y6160000D03*
Y6030000D03*
X1210000Y6790000D03*
Y6650000D03*
X1380000Y6960000D03*
X3290000Y5400000D03*
X3650000Y5420000D03*
X2480000Y5140000D03*
Y4990000D03*
Y4700000D03*
Y4550000D03*
X560000Y4210000D03*
X720000D03*
X415000Y4015000D03*
X410000Y4210000D03*
X962500Y3457500D03*
X1057500Y3360000D03*
X1062500Y3252500D03*
X965000Y3172500D03*
X2972500Y2870000D03*
X2975000Y2445000D03*
X9230000Y620000D03*
X8642500Y507500D03*
X6462500Y695000D03*
X6460000Y165000D03*
X7590000Y120000D03*
X7485000Y847500D03*
X5787500Y740000D03*
X5785000Y190000D03*
X4827500Y850000D03*
X4662500Y122500D03*
X3597500Y720000D03*
X6517500Y1295000D03*
X2685000Y897500D03*
X775000Y1705000D03*
X2527500Y1690000D03*
X4765000Y5135000D03*
X4355000D03*
X7040000Y7550000D03*
X7430000Y7330000D03*
X4705000Y1335000D03*
X4845000D03*
X7060000Y5612500D03*
X6962500Y5725000D03*
X4360000Y5307500D03*
X4642500Y5455000D03*
X6320000Y5265000D03*
X6010000Y5280000D03*
X6647820Y5202750D03*
X6505320Y5270260D03*
X2552500Y7900000D03*
X3152500Y8250000D03*
X3200000Y9400000D03*
X3700000D03*
X4425000D03*
X7272500Y6695000D03*
X4205000Y5892500D03*
X3900000Y6482500D03*
X4845000Y5500000D03*
X7275350Y7007840D03*
X4287500Y7067500D03*
X3540000Y6520000D03*
X3150000D03*
X3410000D03*
X3155000Y6347500D03*
X7080000Y5302500D03*
X3442500Y5240000D03*
X4210000Y5267500D03*
X5212500Y2815000D03*
X4372500Y7680000D03*
X2461780Y8209280D03*
G54D45*
X3575840Y7590560D03*
Y7530560D03*
Y7470560D03*
X3635840D03*
Y7530560D03*
Y7590560D03*
X3515840D03*
Y7530560D03*
Y7470560D03*
X3455840D03*
Y7530560D03*
Y7590560D03*
X1054580Y4174720D03*
Y4234720D03*
Y4294720D03*
X994580D03*
Y4234720D03*
Y4174720D03*
X1114580D03*
Y4234720D03*
Y4294720D03*
X1174580D03*
Y4234720D03*
Y4174720D03*
X2350920Y5805520D03*
Y5865520D03*
Y5925520D03*
X2290920D03*
Y5865520D03*
Y5805520D03*
X2410920D03*
Y5865520D03*
Y5925520D03*
X2470920D03*
Y5865520D03*
Y5805520D03*
X3043420Y5983020D03*
Y6043020D03*
X2983420D03*
Y5983020D03*
X2863420D03*
Y6043020D03*
X2923420D03*
Y5983020D03*
X2470920Y5625520D03*
Y5685520D03*
Y5745520D03*
X2410920D03*
Y5685520D03*
Y5625520D03*
X2290920D03*
Y5685520D03*
Y5745520D03*
X2350920D03*
Y5685520D03*
Y5625520D03*
X2470920Y5445520D03*
Y5505520D03*
Y5565520D03*
X2410920D03*
Y5505520D03*
Y5445520D03*
X2290920D03*
Y5505520D03*
Y5565520D03*
X2350920D03*
Y5505520D03*
Y5445520D03*
G54D46*
X8557500Y1520000D02*
X8560320D01*
X4652500Y3879320D02*
Y5125030D01*
X4612500Y3839320D02*
X4652500Y3879320D01*
X5870000Y4180000D02*
Y4182390D01*
X5865000Y4185000D02*
X5877500Y4172500D01*
X5860000Y3955000D02*
X5895000D01*
X5840000Y3975000D02*
X5860000Y3955000D01*
X5755820Y3975000D02*
X5840000D01*
X5937340Y4115000D02*
X5954670D01*
X5882790Y4060450D02*
X5937340Y4115000D01*
X5882790Y4055200D02*
Y4060450D01*
X5912500Y4005000D02*
X6000000Y3917500D01*
X5862640Y4005000D02*
X5912500D01*
X5812640Y4055000D02*
X5862640Y4005000D01*
X5732500Y4055660D02*
X5755820D01*
Y4055000D02*
X5812640D01*
X5672500Y2317500D02*
Y3200000D01*
X5588320Y3284180D02*
X5672500Y3200000D01*
X5588320Y3284180D02*
Y3407500D01*
X5640000Y2277500D02*
Y3147500D01*
X5508980Y3407500D02*
Y3430820D01*
X5508320Y3279180D02*
X5640000Y3147500D01*
X5508320Y3279180D02*
Y3407500D01*
X5607500Y2215000D02*
Y3115000D01*
X5427700Y3407500D02*
Y3430820D01*
X5428320Y3294180D02*
Y3407500D01*
Y3294180D02*
X5607500Y3115000D01*
X8613540Y1359960D02*
Y1440320D01*
Y1379960D02*
Y1466780D01*
X8560320Y1520000D02*
X8613540Y1466780D01*
X8611820Y1561820D02*
X8663540Y1510100D01*
Y1379960D02*
Y1510100D01*
X7392960Y1281720D02*
X7490460Y1379220D01*
X6888840Y1356140D02*
X6930200Y1397500D01*
X7013640D01*
X6888840Y1318330D02*
Y1356140D01*
X6861340Y1290830D02*
X6888840Y1318330D01*
X7013640Y1397500D02*
X7129420Y1281720D01*
X7392960D01*
X6861340Y1179940D02*
Y1290830D01*
X7380680Y1235000D02*
X7490460Y1125220D01*
X7112500Y1235000D02*
X7380680D01*
X6948840Y1352500D02*
X6995000D01*
X6933840Y1318330D02*
X6961340Y1290830D01*
X6933840Y1337500D02*
X6948840Y1352500D01*
X6933840Y1318330D02*
Y1337500D01*
X6995000Y1352500D02*
X7112500Y1235000D01*
X6961340Y1179940D02*
Y1290830D01*
X8606250Y1263750D02*
X8625000Y1245000D01*
X8563540Y1273960D02*
Y1379960D01*
X8573750Y1263750D02*
X8606250D01*
X8563540Y1273960D02*
X8573750Y1263750D01*
X8575480Y1230000D02*
X8613140Y1192340D01*
X8500000Y1230000D02*
X8575480D01*
X8463540Y1266460D02*
X8500000Y1230000D01*
X8463540Y1266460D02*
Y1379960D01*
X8765540Y1359960D02*
Y1491960D01*
X8755000Y1502500D02*
X8765540Y1491960D01*
X8867930Y1363290D02*
Y1500070D01*
X8864600Y1359960D02*
X8867930Y1363290D01*
X8813800Y2211680D02*
X8817930Y2207550D01*
Y2065100D02*
Y2207550D01*
X8765540Y2080390D02*
Y2211680D01*
X8752500Y2067350D02*
X8765540Y2080390D01*
X1742500Y1342500D02*
X1800000Y1400000D01*
X1556860Y1368600D02*
Y1390320D01*
Y1246860D02*
Y1368600D01*
X1606860Y1255640D02*
Y1368600D01*
Y1255640D02*
X1617500Y1245000D01*
X1555000D02*
X1556860Y1246860D01*
X1210060Y1250060D02*
Y1386860D01*
X1206600Y1390320D02*
X1210060Y1386860D01*
X1670000Y842500D02*
X1802960D01*
X1806860Y838600D01*
X1254860Y538600D02*
Y558600D01*
X956540Y740000D02*
X1112500D01*
X955140Y738600D02*
X956540Y740000D01*
X5784810Y2855140D02*
X5872500Y2942820D01*
X5777780Y2855140D02*
X5784810D01*
X6070000Y2687500D02*
Y3192500D01*
X6060000Y2240000D02*
Y2677500D01*
X6070000Y2687500D01*
X6050000Y2230000D02*
X6060000Y2240000D01*
X6012500Y2772180D02*
Y3147500D01*
Y2772180D02*
X6030000Y2754670D01*
Y2715320D02*
Y2754670D01*
X6012500Y2697830D02*
X6030000Y2715320D01*
X6012500Y2342500D02*
Y2697830D01*
X5995000Y3165000D02*
X6012500Y3147500D01*
X5980000Y2737500D02*
Y3107570D01*
Y2737500D02*
X5982500Y2735000D01*
X5940000Y3147570D02*
X5980000Y3107570D01*
X3762500Y6787500D02*
X3778750Y6771250D01*
X3790000Y6747500D02*
X3882500D01*
X3772500Y6765000D02*
X3790000Y6747500D01*
X4492720Y6720000D02*
X4513040Y6740320D01*
X3910000Y6720000D02*
X4492720D01*
X7445000Y2167500D02*
X7575000D01*
X7218680Y2393820D02*
X7445000Y2167500D01*
X7218680Y2393820D02*
Y2543480D01*
X8985120Y4530520D02*
X9210040D01*
X8968700Y4546940D02*
X8985120Y4530520D01*
X8925170Y4546940D02*
X8968700D01*
X8810730Y4432500D02*
X8925170Y4546940D01*
X8921230Y4431460D02*
X9210040D01*
X8874070Y4384300D02*
X8921230Y4431460D01*
X8354340Y4405000D02*
X8375040Y4384300D01*
X8317500Y4405000D02*
X8354340D01*
X7770940Y2363440D02*
X8031560D01*
X7575000Y2167500D02*
X7770940Y2363440D01*
X7720000Y2010000D02*
X7725000Y2005000D01*
Y1670000D02*
Y2005000D01*
X4240000Y3150000D02*
X4245000D01*
X4358740Y3263740D01*
X8672580Y2862580D02*
X8784700D01*
X8090000Y2280000D02*
X8672580Y2862580D01*
X7885000Y2280000D02*
X8090000D01*
X7492500Y1947500D02*
X7865000Y2320000D01*
X7612500Y2007500D02*
X7885000Y2280000D01*
X8062500Y2320000D02*
X8645470Y2902970D01*
X7865000Y2320000D02*
X8062500D01*
X8031560Y2363440D02*
X8784700Y3116580D01*
X8017500Y2402500D02*
X8607500Y2992500D01*
X7700000Y2402500D02*
X8017500D01*
X7665000Y2367500D02*
X7700000Y2402500D01*
X7492500Y2367500D02*
X7665000D01*
X7612500Y1675000D02*
Y2007500D01*
X8645470Y2902970D02*
X8687200D01*
X8744310Y2960080D01*
X9167580D01*
X9324080Y3116580D01*
X9474200D01*
X6967500Y3215000D02*
Y3377500D01*
Y3215000D02*
X7030000Y3152500D01*
Y2087500D02*
Y3152500D01*
X4905000Y1917500D02*
X4967500Y1980000D01*
X4250000Y1917500D02*
X4905000D01*
X4995250Y3027250D02*
X5080000Y2942500D01*
X4995250Y3027250D02*
Y3164830D01*
X5002500Y3172080D02*
Y3290000D01*
X4995250Y3164830D02*
X5002500Y3172080D01*
X5092500Y3147430D02*
X5107660Y3162590D01*
X5092500Y3100000D02*
Y3147430D01*
X5107660Y3162590D02*
Y3430820D01*
X5140000Y3115000D02*
X5188940Y3163940D01*
X5140000Y3080320D02*
Y3115000D01*
X5120000Y3060330D02*
X5140000Y3080320D01*
X5120000Y2792500D02*
Y3060330D01*
X5188940Y3163940D02*
Y3430820D01*
X5549300Y4126800D02*
X5732500D01*
X5487770Y4037760D02*
Y4065270D01*
X5549300Y4126800D01*
X5732500D02*
Y4134400D01*
X9225000Y3365780D02*
X9474200Y3116580D01*
X9225000Y3365780D02*
Y3392500D01*
X7306970Y1947500D02*
X7492500D01*
X7052500Y1693030D02*
X7306970Y1947500D01*
X7052500Y1677500D02*
Y1693030D01*
X7472680Y2387320D02*
X7492500Y2367500D01*
X8607500Y2992500D02*
Y3137500D01*
X7097170Y3362500D02*
X7853680Y2605990D01*
Y2543480D02*
Y2605990D01*
X7092500Y3362500D02*
X7097170D01*
X7472680Y2543480D02*
Y2682320D01*
X7430000Y2725000D02*
X7472680Y2682320D01*
X7205000Y2725000D02*
X7430000D01*
X7152500Y2672500D02*
X7205000Y2725000D01*
X7853680Y3549320D02*
Y3671180D01*
X7920300Y3737800D02*
X8784700D01*
X7853680Y3671180D02*
X7920300Y3737800D01*
X4880320Y3345000D02*
X4947500D01*
X4615000Y3600000D02*
Y3732500D01*
X5327500Y1912500D02*
X5407500Y1992500D01*
X5970000D02*
X6012500Y1950000D01*
X5407500Y1992500D02*
X5970000D01*
X5450180Y1847500D02*
X5545270Y1942590D01*
X4617500Y1847500D02*
X5450180D01*
X4287500Y1885000D02*
X4925000D01*
X4952500Y1912500D01*
X5327500D01*
X5290330Y2030000D02*
X6085000D01*
X4967500Y1980000D02*
X5240330D01*
X5290330Y2030000D01*
X5301250Y2086250D02*
X5751250D01*
X5252500Y2037500D02*
X5301250Y2086250D01*
X4340000Y2037500D02*
X5252500D01*
X6085000Y2030000D02*
X6145000Y2090000D01*
X4160000Y2217500D02*
X4340000Y2037500D01*
X5751250Y2086250D02*
X5777500Y2112500D01*
X4425000Y1655000D02*
X4617500Y1847500D01*
X3224670Y1842500D02*
X4245000D01*
X4287500Y1885000D01*
X3790330Y1882500D02*
X4215000D01*
X4250000Y1917500D01*
X6957500Y2550660D02*
X6964680Y2543480D01*
X6957500Y2550660D02*
Y2700000D01*
X5777500Y2112500D02*
Y2760420D01*
X8245000Y1214420D02*
X8315000Y1284420D01*
X8213560Y1182980D02*
X8245000Y1214420D01*
Y880000D02*
Y1214420D01*
X8158640Y793640D02*
X8245000Y880000D01*
X8143280Y793640D02*
X8158640D01*
X8412500Y1358920D02*
X8413540Y1359960D01*
X8412500Y1285000D02*
Y1358920D01*
X8359940Y1232440D02*
X8412500Y1285000D01*
X8359940Y1182980D02*
Y1232440D01*
X8363540Y1298540D02*
Y1359960D01*
X8349420Y1284420D02*
X8363540Y1298540D01*
X8315000Y1284420D02*
X8349420D01*
X8359940Y1182980D02*
X8364260Y1178660D01*
Y963820D02*
Y1178660D01*
X6911340Y1034940D02*
Y1076160D01*
X6887500Y1100000D02*
X6911340Y1076160D01*
X6830000Y1100000D02*
X6887500D01*
X6725920Y1049820D02*
X6792500Y983240D01*
X6807500Y1077500D02*
X6830000Y1100000D01*
X6725920Y1049820D02*
X6753600Y1077500D01*
X6807500D01*
X6865000Y720000D02*
Y817500D01*
X6792500Y890000D02*
X6865000Y817500D01*
X6792500Y890000D02*
Y983240D01*
X6961340Y901160D02*
Y1034940D01*
Y901160D02*
X7017500Y845000D01*
Y727500D02*
Y845000D01*
X6945000Y720000D02*
Y815000D01*
X6861340Y898660D02*
X6945000Y815000D01*
X6861340Y898660D02*
Y1034940D01*
X7017500Y727500D02*
X7025000Y720000D01*
X9209900Y5282500D02*
X9210040Y5282640D01*
X8994670Y5282500D02*
X9209900D01*
X8989680Y5287500D02*
X8994670Y5282500D01*
X8950330Y5287500D02*
X8989680D01*
X8945320Y5282500D02*
X8950330Y5287500D01*
X8575680Y5282500D02*
X8945320D01*
X8527920Y5330260D02*
X8575680Y5282500D01*
X8437500Y5257500D02*
X8462500D01*
X8412640Y5232640D02*
X8437500Y5257500D01*
X6732500Y6040000D02*
X7165000D01*
X6728480Y6035980D02*
X6732500Y6040000D01*
X6725670Y6035980D02*
X6728480D01*
X6697840Y6008150D02*
X6725670Y6035980D01*
X6697840Y5973800D02*
Y6008150D01*
X6665020Y5940980D02*
X6697840Y5973800D01*
X6630670Y5940980D02*
X6665020D01*
X6597500Y5907810D02*
X6630670Y5940980D01*
X6597500Y5862500D02*
Y5907810D01*
X8016730Y4824290D02*
X8022680Y4830240D01*
X9013740Y4598740D02*
Y4600920D01*
X8939660Y4675000D02*
X9013740Y4600920D01*
X8022680Y4675000D02*
Y4680380D01*
X9317880D02*
X9367500Y4730000D01*
X9210040Y4680380D02*
X9317880D01*
X8499930Y5432640D02*
X8520070Y5412500D01*
X8022680Y5432640D02*
X8499930D01*
X7600270Y5477230D02*
X7620000Y5457500D01*
X7630270Y5602770D02*
X7642870D01*
X9000000Y5775000D02*
Y5780700D01*
X8994100Y5769100D02*
X9000000Y5775000D01*
X8921930Y5769100D02*
X8994100D01*
X8022680Y5732640D02*
X8420140D01*
X5683480Y6135980D02*
X6283480D01*
X6297840Y6150340D01*
X5630000Y6082500D02*
X5683480Y6135980D01*
X5216450Y6041450D02*
X5296850D01*
X5344350Y6088950D01*
X5230000Y5202500D02*
Y5580000D01*
X5191190Y6016190D02*
X5216450Y6041450D01*
X5191190Y5618810D02*
Y6016190D01*
Y5618810D02*
X5230000Y5580000D01*
X8397360Y5832640D02*
X8410000Y5820000D01*
X8022680Y5832640D02*
X8397360D01*
X7535000Y6152500D02*
X7704860Y5982640D01*
X7440000Y6152500D02*
X7535000D01*
X7430000Y6142500D02*
X7440000Y6152500D01*
X7657500Y5940000D02*
X7659670D01*
X7687500Y5912170D01*
Y5867500D02*
Y5912170D01*
Y5867500D02*
X7718040Y5836960D01*
X7762040D01*
X7764530Y5834460D01*
X8022680Y5832640D02*
Y5834460D01*
X5490910Y6034850D02*
X5544540Y6088480D01*
X5490910Y5769270D02*
Y6034850D01*
X5430000Y5708360D02*
X5490910Y5769270D01*
X5430000Y5075000D02*
Y5708360D01*
X7723260Y4431460D02*
X8022680D01*
X7688240Y4466470D02*
X7723260Y4431460D01*
X8230140Y5982640D02*
X8237500Y5990000D01*
X8022680Y5982640D02*
X8230140D01*
X5470000Y5115000D02*
Y5680000D01*
X6445340Y6487160D02*
Y6488480D01*
X6392840Y6434660D02*
X6445340Y6487160D01*
X6392840Y6268800D02*
Y6434660D01*
X6365020Y6240980D02*
X6392840Y6268800D01*
X6330670Y6240980D02*
X6365020D01*
X6297840Y6208150D02*
X6330670Y6240980D01*
X6297840Y6150340D02*
Y6208150D01*
X5630000Y5762500D02*
Y6082500D01*
X5582500Y5715000D02*
X5630000Y5762500D01*
X5505000Y5715000D02*
X5582500D01*
X5470000Y5680000D02*
X5505000Y5715000D01*
X5855000Y5060000D02*
X6332500Y4582500D01*
X5717500Y5097820D02*
Y5217500D01*
X5855000Y5060000D02*
Y5692500D01*
X5890000Y5192500D02*
Y5763120D01*
Y5192500D02*
X6075000Y5007500D01*
X5927500Y5242500D02*
Y5707500D01*
Y5242500D02*
X5987500Y5182500D01*
X5927500Y5707500D02*
X5960980Y5740980D01*
X5797840Y5749660D02*
X5855000Y5692500D01*
X7704860Y5982640D02*
X8022680D01*
X5830670Y6040980D02*
X6265020D01*
X5797840Y6008150D02*
X5830670Y6040980D01*
X5788240D02*
X5835740Y6088480D01*
X5845340D01*
X5708480Y6040980D02*
X5788240D01*
X5675000Y6007500D02*
X5708480Y6040980D01*
X5675000Y5260000D02*
Y6007500D01*
Y5260000D02*
X5717500Y5217500D01*
X9004860Y5982640D02*
X9210040D01*
X8902500Y6085000D02*
X9004860Y5982640D01*
X8707500Y6085000D02*
X8902500D01*
X8670290Y6047800D02*
X8707500Y6085000D01*
X8487910Y6047800D02*
X8670290D01*
X6445340Y6183480D02*
Y6188480D01*
X6397840Y6135980D02*
X6445340Y6183480D01*
X6397840Y6073800D02*
Y6135980D01*
X6365020Y6040980D02*
X6397840Y6073800D01*
X6325670Y6040980D02*
X6365020D01*
X6324150Y6042500D02*
X6325670Y6040980D01*
X6266540Y6042500D02*
X6324150D01*
X6265020Y6040980D02*
X6266540Y6042500D01*
X5797840Y5749660D02*
Y6008150D01*
X6486970Y2176970D02*
X6490000D01*
X6018480Y5835980D02*
X6368480D01*
X5960980Y5740980D02*
X5965020D01*
X5992840Y5768800D01*
Y5810340D01*
X6018480Y5835980D01*
X6368480D02*
X6420980Y5888480D01*
X6445340D01*
X6425670Y5835980D02*
X6570980D01*
X6397840Y5808150D02*
X6425670Y5835980D01*
X6397840Y5805340D02*
Y5808150D01*
X6379990Y5787490D02*
X6397840Y5805340D01*
X6344990Y5787490D02*
X6379990D01*
X5890000Y5763120D02*
X5892840Y5765960D01*
Y5907840D01*
X5920980Y5935980D01*
X6392840D01*
X6445340Y5988480D01*
X6492820Y5707820D02*
X6564680D01*
X9040590Y5832640D02*
X9210040D01*
X9040440Y5832790D02*
X9040590Y5832640D01*
X9072640Y5732640D02*
X9210040D01*
X9072500Y5732500D02*
X9072640Y5732640D01*
X6570980Y5835980D02*
X6597500Y5862500D01*
X7127180Y5942500D02*
X7165000Y5904670D01*
X6766540Y5942500D02*
X7127180D01*
X7165000Y5897820D02*
X7205330Y5857500D01*
X7165000Y5897820D02*
Y5904670D01*
X9204900Y5677500D02*
X9210040Y5682640D01*
X9022350Y5677500D02*
X9204900D01*
X9014850Y5685000D02*
X9022350Y5677500D01*
X8490000Y5685000D02*
X9014850D01*
X8974820Y5882640D02*
X9210040D01*
X8961270Y5869100D02*
X8974820Y5882640D01*
X8538400Y5869100D02*
X8961270D01*
X8457500Y5950000D02*
X8538400Y5869100D01*
X7165000Y4702500D02*
Y5667500D01*
X7005000Y5827500D02*
X7165000Y5667500D01*
X6792500Y5827500D02*
X7005000D01*
X9209900Y5582500D02*
X9210040Y5582640D01*
X9074930Y5582500D02*
X9209900D01*
X9002430Y5655000D02*
X9074930Y5582500D01*
X9209240Y4230000D02*
X9210040Y4230800D01*
X9120760Y4131740D02*
X9210040D01*
X9099800Y4152700D02*
X9120760Y4131740D01*
X9087940Y4152700D02*
X9099800D01*
X9071840Y4931840D02*
X9210040D01*
X9060000Y4920000D02*
X9071840Y4931840D01*
X8190000Y5020000D02*
X8780000D01*
X8125890Y5084110D02*
X8190000Y5020000D01*
X8125890Y5084110D02*
Y5107490D01*
X8100740Y5132640D02*
X8125890Y5107490D01*
X8042040Y5132640D02*
X8100740D01*
X8022680Y5232640D02*
X8412640D01*
X8022680Y4931840D02*
X8178160D01*
X7942640Y4982640D02*
X8022680D01*
X7900000Y4940000D02*
X7942640Y4982640D01*
X7760000Y4940000D02*
X7900000D01*
X7892820Y4980840D02*
X7944620Y5032640D01*
X7792330Y4980840D02*
X7892820D01*
X7889040Y5029040D02*
X7942640Y5082640D01*
X7829040Y5029040D02*
X7889040D01*
X7870000Y5090000D02*
X7912640Y5132640D01*
X7944620Y5032640D02*
X8022680D01*
X7942640Y5082640D02*
X8022680D01*
X7912640Y5132640D02*
X8022680D01*
X4543360Y6389840D02*
X4544250Y6388950D01*
X9000000Y5130000D02*
X9207400D01*
X9210040Y5132640D01*
X9050000Y5190000D02*
X9202680D01*
X9210040Y5182640D01*
X9202680Y5240000D02*
X9210040Y5232640D01*
X7760000Y5013160D02*
Y5050000D01*
Y5013160D02*
X7792330Y4980840D01*
X9079980Y4989990D02*
X9202690D01*
X9210040Y4982640D01*
X9212680Y5030000D02*
X9430000D01*
X9210040Y5032640D02*
X9212680Y5030000D01*
X9042500Y3977500D02*
X9205660D01*
X9210040Y3981880D01*
X9062500Y4087500D02*
X9069060Y4080940D01*
X9210040D01*
X9042500Y4300000D02*
X9067500D01*
X9085900Y4281600D01*
X9210040D01*
X9201880Y4372500D02*
X9210040Y4380660D01*
X7892360Y5182640D02*
X8022680D01*
X8200000Y4910000D02*
X8490000D01*
X8185000Y4722500D02*
X8932500D01*
X8980000Y4770000D01*
X8395000Y4432500D02*
X8810730D01*
X8903370Y4350000D02*
X8905440Y4347930D01*
X7625380Y5074620D02*
X7760000Y4940000D01*
X7625380Y5074620D02*
Y5086460D01*
X8980030Y5081800D02*
X9019970D01*
X9023170Y5085000D01*
X9207680D01*
X9210040Y5082640D01*
X8022680Y4530520D02*
X8141980D01*
X8022680Y4431460D02*
X8173540D01*
X8246800Y4358200D01*
Y4357540D02*
Y4358200D01*
Y4357540D02*
X8320130Y4284200D01*
X8837560D01*
X8022680Y4380660D02*
X8156180D01*
X8171140Y4351360D02*
Y4365700D01*
Y4351360D02*
X8292500Y4230000D01*
X9052500Y4372500D02*
X9201880D01*
X8900000Y4230000D02*
X8960000Y4290000D01*
X8292500Y4230000D02*
X8900000D01*
X8905440Y4347500D02*
Y4347930D01*
X9067500Y4230000D02*
X9209240D01*
X7640000Y4547500D02*
X7688240Y4499260D01*
Y4466470D02*
Y4499260D01*
X7625000Y4470000D02*
Y4485000D01*
Y4470000D02*
X7864200Y4230800D01*
X8022680D01*
X8114200D02*
X8132500Y4212500D01*
X8022680Y4230800D02*
X8114200D01*
X6745340Y5888480D02*
X7036520D01*
X8015480Y4124540D02*
X8022680Y4131740D01*
X7000060Y4087440D02*
X7526040D01*
X8132500Y4190000D02*
Y4212500D01*
X8022680Y4281600D02*
X8118400D01*
X8240000Y4160000D01*
X8357500Y4002500D02*
X8500000Y4145000D01*
X8240000Y4160000D02*
X8275000Y4195000D01*
X7241800Y4709970D02*
Y4919960D01*
X6745340Y5788480D02*
X6753480D01*
X6792500Y5827500D01*
X8119080Y4075000D02*
X8175000Y4019080D01*
X8028620Y4075000D02*
X8119080D01*
X8022680Y4080940D02*
X8028620Y4075000D01*
X8132500Y4190000D02*
X8257500Y4065000D01*
X8022680Y4131740D02*
X8128260D01*
X8257500Y4002500D02*
X8357500D01*
X7791880Y3981880D02*
X8022680D01*
X6564680Y5707820D02*
X6645340Y5788480D01*
X6545340D02*
X6578170D01*
X6625670Y5835980D01*
X6670980D02*
X6697840Y5862840D01*
Y5920340D01*
X6718480Y5940980D01*
X6765020D01*
X6766540Y5942500D01*
X6625670Y5835980D02*
X6670980D01*
X9057500Y5445000D02*
X9090000D01*
X9102360Y5432640D01*
X9210040D01*
X9077960Y5532640D02*
X9210040D01*
X7165000Y6040000D02*
X7462500Y5742500D01*
X7625000D01*
X7537500Y5892500D02*
X7640000D01*
X8022680Y5682640D02*
X8147360D01*
X8482910Y5677910D02*
X8490000Y5685000D01*
X8918520Y5772500D02*
X8921930Y5769100D01*
X8475000Y5685830D02*
X8475410Y5685410D01*
X8420140Y5732640D02*
X8460000Y5772500D01*
X8475000D01*
X8475410Y5675280D02*
Y5685410D01*
X8407500Y5655000D02*
X8428510D01*
X7890000Y5580000D02*
X7892640Y5582640D01*
X8022680D01*
Y5532500D02*
Y5532640D01*
X7847890Y5554940D02*
X7870320Y5532500D01*
X7722770Y5554940D02*
X7847890D01*
X7722710Y5555000D02*
X7722770Y5554940D01*
X8457500Y5626020D02*
X8723520D01*
X8752500Y5655000D01*
X8428510D02*
X8457500Y5626020D01*
X8752500Y5655000D02*
X9002430D01*
X8532500Y5442500D02*
X8987830D01*
X9077960Y5532640D01*
X7722880Y5352120D02*
Y5390260D01*
Y5352120D02*
X7892360Y5182640D01*
X7630270Y5519730D02*
X7712240Y5437760D01*
X7773200D01*
X7790710Y5455260D01*
X7830060D01*
X7852680Y5432640D01*
X7887500Y5335000D02*
Y5365000D01*
Y5335000D02*
X7939860Y5282640D01*
X8022680D01*
X7810380Y5344620D02*
Y5407760D01*
Y5344620D02*
X7922360Y5232640D01*
X8022680D01*
X7852680Y5432640D02*
X8022680D01*
X8147360Y5682640D02*
X8222500Y5607500D01*
X8467500Y5507500D02*
X8532500Y5442500D01*
X8447500Y5507500D02*
X8467500D01*
X7870320Y5532500D02*
X8022680D01*
X7682500Y5555000D02*
X7722710D01*
X8520070Y5412500D02*
X8947500D01*
X9010000Y5350000D01*
Y5345000D02*
Y5350000D01*
X7630270Y5519730D02*
Y5602770D01*
X5012740Y6088950D02*
X5044630D01*
X4965250Y6041450D02*
X5012740Y6088950D01*
X4913950Y6041450D02*
X4965250D01*
X4895000Y6022500D02*
X4913950Y6041450D01*
X4895000Y5722500D02*
Y6022500D01*
Y5722500D02*
X4945000Y5672500D01*
Y5287500D02*
Y5672500D01*
X4997130Y5312870D02*
X5997500Y4312500D01*
X4997130Y5312870D02*
Y6012130D01*
X5021450Y6036450D01*
X6432820Y5240230D02*
X6447500Y5225540D01*
X6432820Y5647820D02*
X6492820Y5707820D01*
X6432820Y5240230D02*
Y5647820D01*
X8475410Y5685410D02*
X8482910Y5677910D01*
X8178160Y4931840D02*
X8200000Y4910000D01*
X6165040Y5279960D02*
Y5325000D01*
X6447500Y5132500D02*
X6565320Y5014680D01*
Y4939680D02*
Y5014680D01*
Y4939680D02*
X6835000Y4670000D01*
X6447500Y5132500D02*
Y5225540D01*
X6455000Y3354670D02*
X6567500Y3242170D01*
X8022680Y4881040D02*
Y4887500D01*
X8803440Y4819720D02*
X8805430Y4817730D01*
X8375040Y4384300D02*
X8454620D01*
X8465330Y4395000D01*
X8504680D01*
X8515370Y4384300D01*
X8874070D01*
X8257500Y4065000D02*
X8337500D01*
X8128260Y4131740D02*
X8257500Y4002500D01*
X8175000Y4010000D02*
Y4019080D01*
Y3915000D02*
Y4010000D01*
X8110000Y3850000D02*
X8175000Y3915000D01*
X7845000Y4780290D02*
Y4785000D01*
Y4780290D02*
X7944910Y4680380D01*
X8022680D01*
X7775000Y4792500D02*
X7815000Y4832500D01*
X7966790D02*
X7975000Y4824290D01*
X7815000Y4832500D02*
X7966790D01*
X7975000Y4824290D02*
X8016730D01*
X8022680Y4781980D02*
X8125520D01*
X8185000Y4722500D01*
X8282500Y4770000D02*
X8912830D01*
X8960320Y4817500D01*
X8999670D01*
X9032170Y4785000D01*
X9207020D01*
X9210040Y4781980D01*
X5717500Y5097820D02*
X6287500Y4527830D01*
X6332500Y2360000D02*
Y4582500D01*
X7764530Y5834460D02*
X8022680D01*
X7485000Y6112500D02*
X7657500Y5940000D01*
X8460000Y5772500D02*
X8918520D01*
X7295000Y4735000D02*
X7447500Y4887500D01*
X8022680Y4830240D02*
X8144480D01*
X8155000Y4819720D01*
X8803440D01*
X8022680Y4675000D02*
X8939660D01*
X9208860Y4730000D02*
X9210040Y4731180D01*
X7667500Y4795000D02*
X7690000D01*
X8780000Y5020000D02*
X8850430Y5090430D01*
Y5095250D01*
X8802930Y5111100D02*
Y5114920D01*
X8830760Y5142750D01*
X7864750Y5095250D02*
X7870000Y5090000D01*
X7860380Y5095250D02*
X7864750D01*
X8830760Y5142750D02*
X8919090D01*
X8787080Y5095250D02*
X8802930Y5111100D01*
X8255400Y5095250D02*
X8787080D01*
X8919090Y5142750D02*
X8980030Y5081800D01*
X9077500Y4677500D02*
Y4692500D01*
X9115000Y4730000D01*
X9208860D01*
X9057500Y4852500D02*
X9065000D01*
X9087260Y4830240D01*
X9210040D01*
Y4881040D02*
X9388540D01*
X9392500Y4885000D01*
X9069670Y5237500D02*
X9072170Y5235000D01*
X9197680D01*
X8915000D02*
X8917500Y5237500D01*
X9069670D01*
X6905000Y4373170D02*
X7241800Y4709970D01*
X6905000Y4182500D02*
X7000060Y4087440D01*
X6905000Y4182500D02*
Y4373170D01*
X9197680Y5235000D02*
X9202680Y5240000D01*
X7447500Y4887500D02*
X8022680D01*
X7057500Y4432500D02*
X7382500D01*
X7497500Y4547500D01*
X7640000D01*
X6972500Y4347500D02*
X7057500Y4432500D01*
X6952500Y4347500D02*
X6972500D01*
X8837560Y4284200D02*
X8903370Y4350000D01*
X7665000Y4792500D02*
X7775000D01*
X8141980Y4530520D02*
X8270000Y4402500D01*
Y4385320D02*
Y4402500D01*
Y4385320D02*
X8307820Y4347500D01*
X8485000D01*
X8275000Y4195000D02*
X8838460D01*
X8918260Y4115200D01*
X8980200D01*
X9002500Y4137500D01*
Y4192500D01*
X5021450Y6036450D02*
X5091190D01*
X5143690Y6088950D01*
X6835000Y4095000D02*
Y4670000D01*
X6867500Y4150000D02*
Y4405000D01*
X7165000Y4702500D01*
X7241800Y4919960D02*
X7267500Y4945660D01*
Y5657500D01*
X7036520Y5888480D02*
X7267500Y5657500D01*
X7205330Y5857500D02*
X7242500D01*
X7600270Y5499730D01*
Y5477230D02*
Y5499730D01*
X8625000Y1245000D02*
X8652500D01*
X8690000Y1207500D01*
X8714740Y1255840D02*
Y1359960D01*
Y1255840D02*
X8778240Y1192340D01*
X8795160D01*
X8850000Y1137500D01*
X8997500D01*
X9118600Y1016400D01*
Y1011620D02*
Y1016400D01*
X8915400Y1199960D02*
Y1359960D01*
Y1199960D02*
X8923020Y1192340D01*
X9107880D02*
X9118600Y1181620D01*
X8690000Y1052500D02*
X8802500Y940000D01*
X8690000Y1052500D02*
Y1207500D01*
X8604840Y1192340D02*
X8613140D01*
X8530000Y1117500D02*
X8604840Y1192340D01*
X8530000Y918580D02*
Y1117500D01*
Y918580D02*
X8641900Y806680D01*
X9065260Y1509960D02*
X9207620D01*
X9210840Y1513180D01*
X9310840Y1363320D02*
Y1513180D01*
X9065260Y2061820D02*
X9200680D01*
X9220200Y2081340D01*
X9225000Y2086140D02*
Y2150000D01*
X9220200Y2081340D02*
X9225000Y2086140D01*
X8463540Y2211680D02*
Y2380380D01*
X8467560Y2384400D01*
X8300600D02*
X8367560D01*
X8045920Y2229080D02*
X8150000Y2125000D01*
Y2070000D02*
Y2125000D01*
Y2070000D02*
X8158180Y2061820D01*
X8213540D01*
X8045920Y2089760D02*
X8125000Y2010680D01*
X8213200D01*
X8213540Y2011020D01*
X8039100Y1961960D02*
X8211800D01*
X8213540Y1960220D01*
X7972500Y1961960D02*
X8039100D01*
Y1861960D02*
X8212740D01*
X8213540Y1861160D01*
Y1810360D02*
X8354640D01*
X8039100Y1659700D02*
X8082800D01*
X8132540Y1609960D01*
X8213540D01*
X7957800Y1659700D02*
X8039100D01*
Y1559700D02*
X8213280D01*
X8213540Y1559960D01*
X7960000Y1559700D02*
X8039100D01*
X8124960Y1509960D02*
X8213540D01*
X8105000Y1490000D02*
X8124960Y1509960D01*
X8813800Y1359960D02*
Y1506300D01*
X8817500Y1510000D01*
X7340000Y1670000D02*
X7422500D01*
X7910000Y1910000D02*
X8211580D01*
X8213540Y1911960D01*
X2950000Y320000D02*
X3000000D01*
X2892500Y377500D02*
X2950000Y320000D01*
X2892500Y377500D02*
Y592500D01*
X3000000Y700000D01*
X3200000Y320000D02*
X3247500D01*
X3297500Y370000D01*
Y602500D01*
X3200000Y700000D02*
X3297500Y602500D01*
X3000000Y480000D02*
Y567500D01*
X3200000Y480000D02*
Y562500D01*
X9903700Y3370580D02*
Y3612920D01*
X9905200Y3614420D01*
X1290000Y3332500D02*
X1647400D01*
X1649920Y3335020D01*
X1287500Y2905000D02*
X1648990D01*
X1649920Y2904070D01*
X1300000Y2470000D02*
X1646810D01*
X1649920Y2473110D01*
X1362500Y2045000D02*
X1640540D01*
X1643380Y2042160D01*
X1262500Y2045000D02*
Y2117500D01*
X2660000Y2042780D02*
Y2280000D01*
X2659380Y2042160D02*
X2660000Y2042780D01*
Y2380000D02*
Y2455000D01*
X5225000Y720000D02*
Y978340D01*
X5231600Y984940D01*
Y1034940D01*
X5145000Y720000D02*
Y971540D01*
X5131600Y984940D02*
X5145000Y971540D01*
X5131600Y984940D02*
Y1034940D01*
X5181600D02*
Y1088400D01*
X5160000Y1110000D02*
X5181600Y1088400D01*
X5105000Y1110000D02*
X5160000D01*
X5065000Y1070000D02*
X5105000Y1110000D01*
X5181600Y1088400D02*
X5205700Y1112500D01*
X5275000D01*
X5337680Y1049820D01*
X5382260D01*
X3829860Y1400000D02*
X3850640Y1379220D01*
X1637500Y925000D02*
X1651100Y938600D01*
X1806860D01*
X1637500Y1005000D02*
X1653500Y989000D01*
X1806860D01*
X4104640Y1379220D02*
X4255420Y1530000D01*
X5131600Y1179940D02*
Y1315900D01*
X4917500Y1530000D02*
X5131600Y1315900D01*
X4255420Y1530000D02*
X4917500D01*
X3982500Y1247360D02*
Y1422500D01*
Y1247360D02*
X4104640Y1125220D01*
X3982500Y1422500D02*
X4137500Y1577500D01*
X4933640D01*
X5231600Y1179940D02*
Y1279540D01*
X4933640Y1577500D02*
X5231600Y1279540D01*
X2393860Y440780D02*
Y473640D01*
X2331420Y536080D02*
X2393860Y473640D01*
X1988920Y536080D02*
X2331420D01*
X1912500Y612500D02*
X1988920Y536080D01*
X1912500Y612500D02*
Y657500D01*
X1881400Y688600D02*
X1912500Y657500D01*
X1806860Y688600D02*
X1881400D01*
X1996920Y661760D02*
X2223680D01*
X1988920Y669760D02*
X1996920Y661760D01*
X1972740Y669760D02*
X1988920D01*
X1903900Y738600D02*
X1972740Y669760D01*
X1806860Y738600D02*
X1903900D01*
X1806860Y788600D02*
X1886100D01*
X1932500Y835000D01*
X1806860Y888600D02*
X1952820D01*
X1979560Y915340D01*
X1932500Y835000D02*
X2142500D01*
X2232500Y925000D01*
X1806860Y1039800D02*
X1971940D01*
X1988920Y1022820D01*
X1806860Y1090600D02*
X1956700D01*
X1988920Y1122820D01*
X2062500D01*
X2232500Y1052500D02*
Y1137500D01*
Y925000D02*
Y952500D01*
X1698860Y1138860D02*
X1806860D01*
Y1189660D02*
X1897160D01*
X1941140Y1233640D01*
X1988920D01*
X2068640D01*
X1806860Y1240460D02*
X1865460D01*
X1958640Y1333640D01*
X1988920D01*
X2063860D01*
X1105000Y1390320D02*
Y1576540D01*
X1103260Y1578280D02*
X1105000Y1576540D01*
X733360Y1184580D02*
X805420D01*
X851140Y1138860D01*
X955140D01*
X733360Y950900D02*
X874960Y1092500D01*
X953240D01*
X955140Y1090600D01*
X762100Y787540D02*
X954080D01*
X955140Y788600D01*
X856400Y688600D02*
X955140D01*
X929740Y368440D02*
X938440D01*
X1022500Y452500D01*
X1087500D01*
X1105000Y470000D01*
Y538600D01*
X1071980Y368440D02*
X1075940D01*
X1155800Y448300D01*
Y538600D01*
X826560Y268440D02*
X929740D01*
X1071980D02*
X1171560D01*
X1206600Y358280D02*
Y538600D01*
X1204860Y325140D02*
Y356540D01*
Y325140D02*
X1250000Y280000D01*
X1304860Y356540D02*
Y537800D01*
X1305660Y538600D01*
X1304860Y337640D02*
Y356540D01*
Y337640D02*
X1357500Y285000D01*
X1557920Y359080D02*
Y537540D01*
X1556860Y538600D02*
X1557920Y537540D01*
X1606860Y463140D02*
Y538600D01*
Y463140D02*
X1657920Y412080D01*
Y359080D02*
Y412080D01*
X1656860Y490640D02*
Y538600D01*
Y490640D02*
X1697500Y450000D01*
X1722500D01*
X1155800Y1390320D02*
Y1470800D01*
X1203260Y1518260D01*
Y1578280D01*
X1606860Y1368600D02*
Y1468140D01*
X1549500Y1525500D02*
X1606860Y1468140D01*
X1549500Y1525500D02*
Y1574000D01*
X1675230Y1674000D02*
X1800960D01*
Y1505960D02*
Y1574000D01*
X4217500Y1238080D02*
X4358640Y1379220D01*
X4217500Y1032500D02*
Y1238080D01*
X4170000Y985000D02*
X4217500Y1032500D01*
X3730000Y985000D02*
X4170000D01*
X1675230Y1532730D02*
Y1574000D01*
X1656860Y1390320D02*
Y1514360D01*
X1675230Y1532730D01*
X2887500Y1827500D02*
X3730000Y985000D01*
X2157500Y1827500D02*
X2887500D01*
X4358640Y1106140D02*
Y1125220D01*
X4192500Y940000D02*
X4358640Y1106140D01*
X3712500Y940000D02*
X4192500D01*
X2862380Y1790120D02*
X3712500Y940000D01*
X2207620Y1790120D02*
X2862380D01*
X2085000Y1667500D02*
X2207620Y1790120D01*
X2085000Y1442500D02*
Y1667500D01*
X2042500Y1400000D02*
X2085000Y1442500D01*
X1800000Y1400000D02*
X2042500D01*
X7025000Y9250000D02*
X7075000D01*
X7025000Y9825000D02*
X7125000D01*
X7058880Y9633880D02*
X7150200D01*
X3067300Y7682700D02*
X3091180D01*
X3020000Y7730000D02*
X3067300Y7682700D01*
X3091180Y7582700D02*
X3112300D01*
X3132500Y7562500D01*
X3197500D01*
X3171680Y7387340D02*
Y7449180D01*
X3197500Y7475000D01*
Y7562500D01*
X3297500Y7386520D02*
Y7562500D01*
Y7386520D02*
X3391680Y7292340D01*
X3391700Y7035800D02*
Y7292320D01*
X3391680Y7292340D02*
X3391700Y7292320D01*
X3491700Y7035800D02*
X3630900Y7175000D01*
X3712500D01*
X3160000Y7310000D02*
Y7375660D01*
X3171680Y7387340D01*
X2208040Y6260080D02*
X2399580D01*
X2400300Y6259360D01*
X2205460Y6257500D02*
X2208040Y6260080D01*
X2075000Y6257500D02*
X2205460D01*
X1779860D02*
X2075000D01*
X1778000Y6259360D02*
X1779860Y6257500D01*
X1778000Y6359360D02*
X1983760D01*
X1988040Y6355080D01*
X2325640Y6359360D02*
X2400300D01*
X2322500Y6362500D02*
X2325640Y6359360D01*
X2343090Y6207500D02*
X2343660Y6206930D01*
X1149820Y5016500D02*
X1209000D01*
X1049820Y4727900D02*
Y5016500D01*
Y4727900D02*
X1050780Y4726940D01*
Y4510080D02*
Y4726940D01*
Y4510080D02*
X1105700Y4455160D01*
X1287500D02*
Y4615220D01*
X1270780Y4631940D02*
X1287500Y4615220D01*
X1270780Y4631940D02*
X1438360D01*
X1483360Y4676940D01*
Y4776940D02*
Y4840860D01*
X1297120Y4265660D02*
Y4272120D01*
X1361060Y4336060D01*
X1463980D01*
X1205700Y4455160D02*
X1287500D01*
X1342500Y4045000D02*
Y4120280D01*
X1297120Y4165660D02*
X1342500Y4120280D01*
X942500Y4457500D02*
Y4542500D01*
X3517500Y7370000D02*
X3712500Y7175000D01*
X3410000Y7370000D02*
X3517500D01*
X3350000Y7430000D02*
X3410000Y7370000D01*
X5142700Y8079740D02*
X5197500Y8134540D01*
Y8178160D01*
X5197090Y8178570D02*
X5197500Y8178160D01*
X5744400Y6789420D02*
X5745340Y6788480D01*
X6831800Y6474460D02*
X6871960D01*
X6887500Y6490000D01*
X6746240Y6788620D02*
X6830000D01*
X2210000Y4837500D02*
X2215000Y4842500D01*
Y4902500D01*
X3068280Y4150320D02*
X3080860Y4162900D01*
X3008180Y5166300D02*
X3175000Y5162500D01*
X4671860Y3814360D02*
X4884140D01*
X7091680Y3363320D02*
Y3549320D01*
X7045000Y9912500D02*
X7082500Y9950000D01*
X7125000D01*
X3777500Y6887500D02*
Y6902500D01*
X5441950Y6887500D02*
X5544140Y6989680D01*
X3777500Y6887500D02*
X5441950D01*
X9595000Y6957500D02*
X9731720Y7094220D01*
X9903700D01*
X4470000Y6185000D02*
X4544250Y6259250D01*
Y6288950D01*
X5654020Y6288480D02*
X5745340D01*
X5606050Y6336450D02*
X5654020Y6288480D01*
X4573950Y6136450D02*
X4595810Y6158310D01*
X3759100Y6040760D02*
X4018260D01*
X4045000Y6067500D01*
X5812520Y6288480D02*
X5845340D01*
X5765020Y6240980D02*
X5812520Y6288480D01*
X5230140Y6240980D02*
X5765020D01*
X5191190Y6202020D02*
X5230140Y6240980D01*
X5191190Y6151610D02*
Y6202020D01*
X5177060Y6137480D02*
X5191190Y6151610D01*
X5013420Y6137480D02*
X5177060D01*
X4997130Y6153770D02*
X5013420Y6137480D01*
X4997130Y6153770D02*
Y6204570D01*
X4965250Y6236450D02*
X4997130Y6204570D01*
X4725230Y6236450D02*
X4965250D01*
X4690810Y6202020D02*
X4725230Y6236450D01*
X4690810Y6069270D02*
Y6202020D01*
X4662980Y6041450D02*
X4690810Y6069270D01*
X4529570Y6041450D02*
X4662980D01*
X4496750Y6008630D02*
X4529570Y6041450D01*
X4496750Y6001750D02*
Y6008630D01*
X4467500Y5972500D02*
X4496750Y6001750D01*
X3947500Y5972500D02*
X4467500D01*
X3892570Y5917570D02*
X3947500Y5972500D01*
X3759100Y5917570D02*
X3892570D01*
X3765000Y6456070D02*
Y6472500D01*
X4843970Y6388950D02*
Y6403530D01*
X4810000Y6437500D02*
X4843970Y6403530D01*
X4610000Y6437500D02*
X4810000D01*
X4592500Y6420000D02*
X4610000Y6437500D01*
X4592500Y6352500D02*
Y6420000D01*
X4576450Y6336450D02*
X4592500Y6352500D01*
X4371780Y6336450D02*
X4576450D01*
X4337830Y6302500D02*
X4371780Y6336450D01*
X3767500Y6302500D02*
X4337830D01*
X3765000Y6305000D02*
X3767500Y6302500D01*
X4595810Y6158310D02*
Y6208630D01*
X4628640Y6241450D01*
X4662980D01*
X4697410Y6275880D01*
Y6308630D01*
X4725230Y6336450D01*
X5606050D01*
X4045000Y6067500D02*
X4367500D01*
X4436450Y6136450D01*
X4573950D01*
X5632500Y6692500D02*
X5645000D01*
X5590620Y6734380D02*
X5632500Y6692500D01*
X5590620Y6734380D02*
Y6835620D01*
X5610000Y6855000D01*
X8460000Y5772500D02*
X8475000Y5787500D01*
Y5855000D01*
X8410000Y5920000D02*
X8475000Y5855000D01*
X7200000Y6752500D02*
X7205000Y6757500D01*
X7200000Y6625000D02*
Y6752500D01*
Y6625000D02*
X7252500Y6572500D01*
X8217500D01*
X7315000Y6882500D02*
Y6885030D01*
X7492470Y7062500D01*
X7237500Y6805000D02*
X7315000Y6882500D01*
X7185320Y6805000D02*
X7237500D01*
X7140980Y6760650D02*
X7185320Y6805000D01*
X7140980Y6680980D02*
Y6760650D01*
X7602500Y8325000D02*
X7605000Y8327500D01*
X4463250Y7489190D02*
X4544250D01*
X4460240Y7486180D02*
X4463250Y7489190D01*
X5591710Y7236970D02*
X5744870Y7390130D01*
X5510070Y7236970D02*
X5591710D01*
X5494860Y7221760D02*
X5510070Y7236970D01*
X5494860Y7173740D02*
Y7221760D01*
X5462610Y7141500D02*
X5494860Y7173740D01*
X3991000Y7141500D02*
X5462610D01*
X3975000Y7157500D02*
X3991000Y7141500D01*
X3765000Y6472500D02*
X3850000Y6557500D01*
X3930000D01*
X3998550Y6488950D01*
X4544250D01*
X4482800Y6527500D02*
X4544250Y6588950D01*
X4025000Y6527500D02*
X4482800D01*
X3952500Y6600000D02*
X4025000Y6527500D01*
X3765000Y6600000D02*
X3952500D01*
X5510110Y6688480D02*
X5544540D01*
X5463090Y6641450D02*
X5510110Y6688480D01*
X4725230Y6641450D02*
X5463090D01*
X4690810Y6675880D02*
X4725230Y6641450D01*
X4690810Y6675880D02*
Y6726190D01*
X4676680Y6740320D02*
X4690810Y6726190D01*
X4513040Y6740320D02*
X4676680D01*
X3570000Y6765000D02*
X3672500D01*
X3415000D02*
X3470000D01*
X5610000Y6855000D02*
X6717500D01*
X6820000Y6957500D01*
Y7050000D01*
X6866230Y7096230D01*
X6847500Y6897500D02*
X6891730D01*
X6947820Y6841400D01*
X7216400D01*
X6866230Y7096230D02*
X7336230D01*
X7602500Y7362500D01*
Y8325000D01*
X7216400Y6841400D02*
X7505000Y7130000D01*
X8037500D01*
X7492470Y7062500D02*
X8120740D01*
X8370900Y7312660D01*
X9777500Y7217500D02*
X9962500D01*
X10025000Y7155000D01*
Y6890000D02*
Y7155000D01*
X9975220Y6840220D02*
X10025000Y6890000D01*
X9903700Y6840220D02*
X9975220D01*
X1456860Y1701860D02*
X1527500Y1772500D01*
X1456860Y1390320D02*
Y1701860D01*
X2581250Y4543750D02*
X2735000Y4697500D01*
X1802500Y1675540D02*
Y1765000D01*
X1800960Y1674000D02*
X1802500Y1675540D01*
X2680130Y4155200D02*
X2685010Y4150320D01*
X3068280D01*
X2695000Y4280000D02*
X2827740D01*
X2829240Y4281500D01*
X2682500Y4422500D02*
X2815240D01*
X2829240Y4408500D01*
X2752500Y3252500D02*
X3200000Y3700000D01*
X2735330Y3252500D02*
X2752500D01*
X2677500Y3194680D02*
X2735330Y3252500D01*
X1897380Y1982620D02*
Y2042160D01*
Y1982620D02*
X2022500Y1857500D01*
X3209670D01*
X6192500Y3010000D02*
X6287500Y3105000D01*
Y4527830D01*
X6082500Y2107500D02*
Y2177500D01*
X6107500Y2202500D01*
X6200300Y2227800D02*
X6332500Y2360000D01*
X6200300Y2157600D02*
Y2227800D01*
X6145000Y2090000D02*
Y2460000D01*
X3772820Y1900000D02*
X3790330Y1882500D01*
X2460000Y1900000D02*
X3772820D01*
X2405380Y1954620D02*
Y2042160D01*
Y1954620D02*
X2460000Y1900000D01*
X3209670Y1857500D02*
X3224670Y1842500D01*
X1527500Y1772500D02*
X1582500D01*
X1765000Y1955000D01*
Y2120000D01*
X1549500Y1674000D02*
Y1702000D01*
X1580000Y1732500D01*
X1607380D01*
X1799880Y1925000D01*
Y2082550D01*
X1506860Y1390320D02*
Y1488140D01*
X1505000Y1490000D02*
X1506860Y1488140D01*
X2380000Y2735000D02*
Y3976250D01*
X2581250Y4177500D01*
X1765000Y2120000D02*
X2380000Y2735000D01*
X2581250Y4177500D02*
Y4543750D01*
X3682500Y4140000D02*
X3805000D01*
X3630000Y4087500D02*
X3682500Y4140000D01*
X2457500Y3870000D02*
X2570000Y3982500D01*
X3715000Y3960000D02*
X3810000Y4055000D01*
X2570000Y3982500D02*
X3127500D01*
X3232500Y4087500D01*
X3630000D01*
X3325000Y3960000D02*
X3715000D01*
X3290000Y3995000D02*
X3325000Y3960000D01*
X3222500Y3995000D02*
X3290000D01*
X3140000Y3912500D02*
X3222500Y3995000D01*
X2642500Y3912500D02*
X3140000D01*
X2527500Y3797500D02*
X2642500Y3912500D01*
X7025760Y3991740D02*
X7230440D01*
X7231030Y3992340D01*
X7237660D01*
X6867500Y4150000D02*
X7025760Y3991740D01*
X7237660Y3992340D02*
X7262830Y4017500D01*
X6835000Y4095000D02*
X7050000Y3880000D01*
X7552500D01*
X3011980Y5162500D02*
X3175000D01*
X3008180Y5166300D02*
X3011980Y5162500D01*
X3285000Y4180000D02*
X3312260Y4152740D01*
X3432680D01*
Y3898740D02*
X3736240D01*
X3325760Y4406740D02*
X3432680D01*
X3310000Y4422500D02*
X3325760Y4406740D01*
X3232500Y4347500D02*
Y4745000D01*
Y4347500D02*
X3285000Y4295000D01*
Y4180000D02*
Y4295000D01*
X3272500Y4370000D02*
X3300000Y4342500D01*
X3507500Y5410000D02*
Y6147500D01*
X3665000Y6305000D01*
Y6456070D02*
X3715000Y6406070D01*
Y6257500D02*
Y6406070D01*
X3542500Y6085000D02*
X3715000Y6257500D01*
X3542500Y5865000D02*
Y6085000D01*
X4272500Y3517500D02*
X4438280D01*
X4438520Y3517740D01*
X2343090Y6207500D02*
X2467500D01*
X3295800Y7035800D01*
X3391700D01*
X3762170Y7157500D02*
X3875000D01*
X3587970Y6983300D02*
X3762170Y7157500D01*
X3353300Y6983300D02*
X3587970D01*
X3377500Y6945000D02*
X3610000D01*
X3457500Y6337500D02*
X3567500Y6447500D01*
X3570030D01*
X3665000Y6542470D01*
Y6600000D01*
X2407500Y4580030D02*
X2449970Y4622500D01*
X2407500Y4485000D02*
Y4580030D01*
Y4485000D02*
X2532500Y4360000D01*
Y4205000D02*
Y4360000D01*
X2325000Y3997500D02*
X2532500Y4205000D01*
X2325000Y2780000D02*
Y3997500D01*
X5015250Y4100200D02*
Y4127750D01*
X5008590Y4134400D02*
X5015250Y4127750D01*
X4884140Y4134400D02*
X5008590D01*
X5097500Y4100000D02*
Y4269020D01*
X5107660Y4279180D01*
X4790020Y4387500D02*
X4790230Y4387710D01*
X5005000Y4387500D02*
X5028920Y4363580D01*
Y4279180D02*
Y4363580D01*
X4790020Y4387500D02*
X5005000D01*
X3882500Y6747500D02*
X3910000Y6720000D01*
X3570000Y6712500D02*
Y6765000D01*
X3490000Y6632500D02*
X3570000Y6712500D01*
X3347500Y6632500D02*
X3490000D01*
X3292500Y6577500D02*
X3347500Y6632500D01*
X3317500Y5267500D02*
X3457500Y5407500D01*
Y6337500D01*
X3320000Y5327500D02*
X3320030D01*
X3270000Y5277500D02*
X3320000Y5327500D01*
X3270000Y5012500D02*
Y5277500D01*
X3360000Y5040330D02*
X3445000Y4955320D01*
X3317500Y5037500D02*
Y5267500D01*
Y5037500D02*
X3392500Y4962500D01*
X2735000Y4697500D02*
X3049920D01*
X3247660Y4895240D01*
X3232500Y4745000D02*
X3295160Y4807660D01*
X3232500Y4987500D02*
Y5282500D01*
Y4987500D02*
X3295160Y4924840D01*
Y4807660D02*
Y4924840D01*
X3270000Y5012500D02*
X3340000Y4942500D01*
X3310000Y4422500D02*
Y4567500D01*
X3445000Y4702500D01*
Y4955320D01*
X3272500Y4370000D02*
Y4592500D01*
X3392500Y4712500D01*
Y4962500D01*
X3290000Y4727500D02*
X3340000Y4777500D01*
Y4942500D01*
X5987500Y5182500D02*
X6120000D01*
X6415000Y4887500D01*
X6075000Y5007500D02*
X6135000D01*
X6375000Y4767500D01*
X3610000Y6945000D02*
X3632500Y6967500D01*
X3785000D01*
X3975000Y7157500D01*
X3320030Y5327500D02*
X3410000Y5417470D01*
X2449970Y4622500D02*
X2565000D01*
X2741520Y4799020D01*
X2622500Y4927500D02*
X2682500Y4867500D01*
X2690000D01*
X4899800Y4040000D02*
X5065000D01*
X4884140Y4055660D02*
X4899800Y4040000D01*
X8352500Y5917500D02*
Y6267500D01*
X8322500Y5887500D02*
X8352500Y5917500D01*
X8025180Y5885140D02*
X8322500D01*
X8410000Y5920000D02*
Y6217500D01*
X7632500Y4017500D02*
X7800000Y3850000D01*
X7262830Y4017500D02*
X7632500D01*
X7800000Y3850000D02*
X8110000D01*
X6645340Y6088480D02*
X6678170D01*
X6725670Y6135980D01*
X6858800D01*
X9028700D02*
X9334660D01*
X9366300Y6104340D01*
X9444940D01*
X9445600Y6105000D01*
X9512500D01*
X9597500Y6020000D01*
Y3825000D02*
Y6020000D01*
X9432500Y3660000D02*
X9597500Y3825000D01*
X8270000Y3660000D02*
X9432500D01*
X8030000Y3420000D02*
X8270000Y3660000D01*
X7990000Y3420000D02*
X8030000D01*
X7980680Y3429320D02*
X7990000Y3420000D01*
X7980680Y3429320D02*
Y3549320D01*
X9150000Y6250000D02*
X9462500D01*
X9655000Y6057500D01*
Y3807500D02*
Y6057500D01*
X9445000Y3597500D02*
X9655000Y3807500D01*
X8310000Y3597500D02*
X9445000D01*
X8015000Y3302500D02*
X8310000Y3597500D01*
X7777500Y3302500D02*
X8015000D01*
X7726680Y3353320D02*
X7777500Y3302500D01*
X7726680Y3353320D02*
Y3549320D01*
X9253280Y6562500D02*
X9481020Y6334760D01*
X8817500Y6657500D02*
X9040640Y6880640D01*
Y7210040D01*
X7772500Y3962500D02*
X7791880Y3981880D01*
X7077500Y2722500D02*
X7091680Y2708320D01*
Y2543480D02*
Y2708320D01*
X7472500Y3392500D02*
Y3549320D01*
X4744910Y5856120D02*
Y5888950D01*
X4697410Y5808630D02*
X4744910Y5856120D01*
X4697410Y5741450D02*
Y5808630D01*
Y5741450D02*
X4717220Y5721640D01*
Y5189750D02*
Y5721640D01*
X4652500Y5125030D02*
X4717220Y5189750D01*
X6545340Y6288480D02*
X6592840Y6335980D01*
X6910980D01*
X7297500Y6132500D02*
X7537500Y5892500D01*
X6937500Y6132500D02*
X7297500D01*
X6858800Y6135980D02*
X6920320Y6197500D01*
X8215330D01*
X6545340Y6188480D02*
X6592840Y6235980D01*
X6765020D01*
X6768500Y6232500D01*
X7562530D01*
X6910980Y6335980D02*
X6922500Y6347500D01*
X3180510Y3827690D02*
X3730190D01*
X4597500Y1217500D02*
Y1412500D01*
X4190000Y810000D02*
X4597500Y1217500D01*
X4190000Y807500D02*
Y810000D01*
X4729950Y972550D02*
X4735230D01*
X4692500Y935100D02*
X4729950Y972550D01*
X4692500Y870000D02*
Y935100D01*
X4470000Y900000D02*
X4580000Y1010000D01*
X4470000Y875260D02*
Y900000D01*
Y875260D02*
X4472720Y872540D01*
X4345000Y875000D02*
X4462500Y992500D01*
X1675230Y1574000D02*
X1676500D01*
X1726250Y1623750D01*
X1953750D01*
X2157500Y1827500D01*
X5954670Y4115000D02*
X5997500Y4157830D01*
Y4312500D01*
X5865000Y4185000D02*
X5910000Y4230000D01*
Y4322500D01*
X4945000Y5287500D02*
X5910000Y4322500D01*
X5348960Y4156040D02*
Y4279180D01*
Y4156040D02*
X5440260Y4064740D01*
Y4062700D02*
Y4064740D01*
X5188940Y4138560D02*
Y4279180D01*
X4577500Y3450000D02*
X4642500Y3385000D01*
X3314820Y2964820D02*
X3435220D01*
X3260000Y2910000D02*
X3314820Y2964820D01*
X3093240Y3390740D02*
X3432680D01*
X2770000Y3067500D02*
X3093240Y3390740D01*
X4246340Y2337820D02*
X4370320D01*
X4455000Y2422500D01*
X3515180Y2464820D02*
X4246340D01*
X3322500Y2657500D02*
X3515180Y2464820D01*
X1799880Y2082550D02*
X2630000Y2912670D01*
Y3277180D01*
X3180510Y3827690D01*
X2577500Y2362500D02*
X2660000Y2280000D01*
X2652500Y2657500D02*
X3322500D01*
X2647500Y2652500D02*
X2652500Y2657500D01*
X2577500Y2362500D02*
Y2790000D01*
X2677500Y2890000D01*
Y3194680D01*
X3730190Y3827690D02*
X3922500Y4020000D01*
X4127500Y3662500D02*
X4272500Y3517500D01*
X4127500Y3662500D02*
Y5280000D01*
X3542500Y5865000D02*
X4127500Y5280000D01*
X3940000Y4542500D02*
X4090000Y4392500D01*
X3736240Y3898740D02*
X3875000Y4037500D01*
X3432680Y4279740D02*
X3782760D01*
X3798200Y4264300D01*
Y4262130D02*
Y4264300D01*
X3612500Y4342500D02*
X3617290Y4337710D01*
X3824790D01*
X3875000Y4287500D01*
X3300000Y4342500D02*
X3612500D01*
X3875000Y4037500D02*
Y4287500D01*
X2220000Y2675000D02*
X2325000Y2780000D01*
X2210000Y2675000D02*
X2220000D01*
X7827500Y392500D02*
Y400000D01*
Y392500D02*
X7900000Y320000D01*
X1683980Y3753980D02*
Y4241060D01*
X1682500Y3752500D02*
X1683980Y3753980D01*
X8105000Y315000D02*
X8220000D01*
X8100000Y320000D02*
X8105000Y315000D01*
X4358740Y3263740D02*
X4438520D01*
X4323260Y3771740D02*
X4438520D01*
X4285000Y3810000D02*
X4323260Y3771740D01*
X4285000Y3810000D02*
Y3880000D01*
X4250000Y3915000D02*
X4285000Y3880000D01*
X4090000Y3620000D02*
Y4392500D01*
Y3620000D02*
X4260000Y3450000D01*
X4577500D01*
X4438520Y3771740D02*
X4525760D01*
X4580000Y3717500D01*
X4642500Y2325000D02*
Y3385000D01*
Y2325000D02*
X4877500Y2090000D01*
X5025000D01*
X4272740Y4152740D02*
X4438520D01*
X4185000Y4065000D02*
X4272740Y4152740D01*
X4612500Y3785000D02*
X4635000Y3762500D01*
X4727500D01*
X4757500Y3732500D01*
X4438520Y3898740D02*
X4511260D01*
X4572500Y3837500D01*
Y3775000D02*
Y3837500D01*
Y3775000D02*
X4615000Y3732500D01*
X4580000Y3567500D02*
Y3717500D01*
X5230000Y5202500D02*
X6042500Y4390000D01*
X6087500Y3387500D02*
Y4417500D01*
X5430000Y5075000D02*
X6087500Y4417500D01*
X5470000Y5115000D02*
X6137500Y4447500D01*
Y4019680D02*
Y4447500D01*
X6135000Y4017170D02*
X6137500Y4019680D01*
X6172500Y4487500D02*
X6187500D01*
X6247500Y4427500D01*
X6185000Y3725000D02*
X6247500Y3787500D01*
Y4427500D01*
X6375000Y2288930D02*
X6486970Y2176970D01*
X4612500Y3785000D02*
Y3839320D01*
X6572500Y4055000D02*
Y4872500D01*
X6455000Y3937500D02*
X6572500Y4055000D01*
X6455000Y3354670D02*
Y3937500D01*
X6165040Y5279960D02*
X6572500Y4872500D01*
X6375000Y2288930D02*
Y4767500D01*
X6087500Y3387500D02*
X6100000Y3375000D01*
Y3222500D02*
Y3375000D01*
X6070000Y3192500D02*
X6100000Y3222500D01*
X6140000Y3055000D02*
Y3240000D01*
X6107500Y3022500D02*
X6140000Y3055000D01*
X6135000Y3535000D02*
Y4017170D01*
X6192500Y3292500D02*
Y3477500D01*
X6140000Y3240000D02*
X6192500Y3292500D01*
X6135000Y3535000D02*
X6192500Y3477500D01*
X9060000Y1452500D02*
Y1512271D01*
X9210000Y1661340D02*
X9210840Y1660500D01*
X7345680Y2390680D02*
Y2543480D01*
Y2390680D02*
X7353860Y2382500D01*
X7560000Y3362500D02*
X7605000Y3407500D01*
Y3544000D01*
X7599680Y3549320D02*
X7605000Y3544000D01*
X7552500Y3880000D02*
X7690000Y3742500D01*
X7345680Y3668180D02*
X7395000Y3717500D01*
X7345680Y3549320D02*
Y3668180D01*
X7599680Y2417500D02*
Y2543480D01*
X7472680Y2387320D02*
Y2543480D01*
X8607500Y3137500D02*
X8702500Y3232500D01*
X8922780D01*
X9038700Y3116580D01*
X9107500Y3510000D02*
X9225000Y3392500D01*
X8924120Y3510000D02*
X9107500D01*
X8784700Y3370580D02*
X8924120Y3510000D01*
X6967500Y3377500D02*
Y3546500D01*
X6964680Y3549320D02*
X6967500Y3546500D01*
X4676250Y2383750D02*
Y3471250D01*
Y2383750D02*
X4722180Y2337820D01*
X4861020D01*
X4580000Y3567500D02*
X4676250Y3471250D01*
X5080000Y2782500D02*
Y2942500D01*
Y2782500D02*
X5172500Y2690000D01*
Y2310330D02*
Y2690000D01*
Y2310330D02*
X5197500Y2285330D01*
X5120000Y2792500D02*
X5272500Y2640000D01*
X5197500Y2075000D02*
Y2285330D01*
X8622500Y2007500D02*
X8920040Y1709960D01*
X9065260D01*
X8540000Y1977500D02*
X8857540Y1659960D01*
X9065260D01*
X8460000Y1957500D02*
Y2005000D01*
Y1957500D02*
X8807540Y1609960D01*
X9065260D01*
X9310840Y1660500D02*
Y1743340D01*
X9210840Y1631660D02*
Y1660500D01*
Y1631660D02*
X9247500Y1595000D01*
X9310000Y490000D02*
X9477500Y657500D01*
X8920000Y490000D02*
X9310000D01*
X8697500Y712500D02*
X8920000Y490000D01*
X8560000Y712500D02*
X8697500D01*
X8487500Y640000D02*
X8560000Y712500D01*
X8060000Y640000D02*
X8487500D01*
X8007500Y692500D02*
X8060000Y640000D01*
X8007500Y692500D02*
Y942500D01*
X7824780Y1125220D02*
X8007500Y942500D01*
X7744460Y1125220D02*
X7824780D01*
X9065260Y1559960D02*
X9139140D01*
X9210840Y1631660D01*
X9247500Y1595000D02*
X9387500D01*
X9477500Y1505000D01*
Y657500D02*
Y1505000D01*
X9310840Y1513180D02*
X9379320D01*
X9380000Y1512500D01*
X6192500Y2360000D02*
Y3010000D01*
X5895000Y3955000D02*
X5957500Y3892500D01*
X5732500Y3895640D02*
X5886860D01*
X5915000Y3867500D01*
X5732500Y3814360D02*
X5838140D01*
X5875000Y3777500D01*
X6415000Y2777500D02*
X6537500Y2655000D01*
X6415000Y2777500D02*
Y4175640D01*
X6407810Y4182830D02*
X6415000Y4175640D01*
X6407810Y4182830D02*
Y4222170D01*
X6415000Y4229360D01*
Y4887500D01*
X6042500Y3387500D02*
Y4390000D01*
X5995000Y3165000D02*
Y3340000D01*
X6042500Y3387500D01*
X6000000Y3420000D02*
Y3917500D01*
X5957500Y3435000D02*
Y3892500D01*
X5915000Y3452500D02*
Y3867500D01*
X5825000Y3435000D02*
X5875000Y3485000D01*
Y3777500D01*
X6107500Y2202500D02*
Y2430320D01*
Y2489670D02*
Y3022500D01*
X6097500Y2479670D02*
X6107500Y2489670D01*
X6097500Y2440320D02*
X6107500Y2430320D01*
X6097500Y2440320D02*
Y2479670D01*
X5940000Y3147570D02*
Y3360000D01*
X6000000Y3420000D01*
X5910000Y3387500D02*
X5957500Y3435000D01*
X5872500Y3410000D02*
X5915000Y3452500D01*
X5825000Y2947500D02*
Y3435000D01*
X5812500Y2935000D02*
X5825000Y2947500D01*
X5797500Y2935000D02*
X5812500D01*
X5827500Y2822500D02*
X5910000Y2905000D01*
X5827500Y2812940D02*
Y2822500D01*
X5910000Y2905000D02*
Y3387500D01*
X5872500Y2942820D02*
Y3410000D01*
X6837680Y2543480D02*
Y2697680D01*
X6942500Y2802500D01*
X4947500Y3345000D02*
X5002500Y3290000D01*
X4884140Y3974380D02*
X5123120D01*
X5370000Y3727500D01*
X4884140Y3895640D02*
X5111860D01*
X5277500Y3730000D01*
X4884140Y3814360D02*
X5110640D01*
X5192500Y3732500D01*
Y3730000D02*
Y3732500D01*
X4884140Y3735620D02*
X5096880D01*
X5105000Y3727500D01*
X5598120Y3735620D02*
X5732500D01*
X5557500Y3695000D02*
X5598120Y3735620D01*
X5550000Y3695000D02*
X5557500D01*
X5611840Y3654340D02*
X5732500D01*
X5600000Y3642500D02*
X5611840Y3654340D01*
X5682500Y2192500D02*
Y2235000D01*
X5672500Y2317500D02*
X5730000Y2260000D01*
Y2140000D02*
Y2260000D01*
X5640000Y2277500D02*
X5682500Y2235000D01*
X5645600Y3575600D02*
X5732500D01*
X5632500Y3562500D02*
X5645600Y3575600D01*
X5632500Y3537500D02*
Y3562500D01*
Y3537500D02*
X5725000Y3445000D01*
Y3217170D02*
Y3445000D01*
X5722500Y3214680D02*
X5725000Y3217170D01*
X5722500Y3087500D02*
Y3214680D01*
Y3087500D02*
X5777500Y3032500D01*
Y2982180D02*
Y3032500D01*
X5730280Y2934960D02*
X5777500Y2982180D01*
X5730280Y2807640D02*
Y2934960D01*
Y2807640D02*
X5777500Y2760420D01*
X3685320Y2217500D02*
X4160000D01*
X3652820Y2185000D02*
X3685320Y2217500D01*
X3027650Y1947600D02*
X3265050Y2185000D01*
X3652820D01*
X1049820Y5016500D02*
Y5270000D01*
X1297120Y4165660D02*
X1356460Y4225000D01*
X1525000D01*
X1287500Y4455160D02*
X1369840D01*
X942500Y4457500D02*
X992340Y4407660D01*
X1532340D01*
X1525000Y4225000D02*
X1560000Y4260000D01*
Y4380000D01*
X1532340Y4407660D02*
X1560000Y4380000D01*
X2622500Y4927500D02*
Y5335000D01*
X3257500Y7810000D02*
X3350000Y7717500D01*
Y7430000D02*
Y7717500D01*
X3407500Y6902500D02*
X3677500D01*
X3360000Y5040330D02*
Y5262500D01*
X3507500Y5410000D01*
X9220000Y6957500D02*
X9595000D01*
X8217500Y6572500D02*
X8247500Y6602500D01*
X8865000D01*
X9220000Y6957500D01*
X7177500Y6535000D02*
X8265000D01*
X8292500Y6562500D01*
X9253280D01*
X8410000Y6217500D02*
X8625000Y6432500D01*
X8640000D01*
X8215330Y6197500D02*
X8497820Y6480000D01*
X8684670D01*
X9028700Y6135980D01*
X8885000Y6515000D02*
X9150000Y6250000D01*
X7562530Y6232500D02*
X8172500D01*
X8455000Y6515000D01*
X8885000D01*
X3237500Y6732500D02*
X3407500Y6902500D01*
X3292500Y6455000D02*
Y6577500D01*
Y6455000D02*
X3410000Y6337500D01*
Y5417470D02*
Y6337500D01*
X3237500Y6420000D02*
Y6732500D01*
Y6420000D02*
X3342500Y6315000D01*
Y5590000D02*
Y6315000D01*
X3212500Y5302500D02*
X3232500Y5282500D01*
X3212500Y5302500D02*
Y5460000D01*
X3342500Y5590000D01*
X2922500Y6345000D02*
Y6490000D01*
X3377500Y6945000D01*
X2877500Y6317500D02*
Y6507500D01*
X3353300Y6983300D01*
X2741520Y4799020D02*
Y5334020D01*
X2782500Y5375000D01*
X3055000D01*
X3212500Y5532500D01*
X2622500Y5335000D02*
X2710000Y5422500D01*
X3037500D01*
X3165000Y5550000D01*
X5272500Y2120000D02*
Y2640000D01*
X6917500Y1757500D02*
X7152500Y1992500D01*
Y2672500D01*
X8037500Y7130000D02*
X8392500Y7485000D01*
X9510000D01*
X9777500Y7217500D01*
X5028920Y3430820D02*
X5032500Y3427240D01*
Y3155400D02*
X5042750Y3145150D01*
X5032500Y3155400D02*
Y3427240D01*
X4717500Y3195390D02*
X4800230Y3112650D01*
X4717500Y3195390D02*
Y3497500D01*
X4615000Y3600000D02*
X4717500Y3497500D01*
X4757500Y3467820D02*
Y3732500D01*
Y3467820D02*
X4880320Y3345000D01*
X6567500Y2217500D02*
X6635000Y2150000D01*
X6567500Y2217500D02*
Y3242170D01*
X6537500Y2157290D02*
Y2655000D01*
X6477500Y2097500D02*
X6509470Y2129470D01*
X6509670D01*
X6537500Y2157290D01*
X6495000Y2022500D02*
X6562500D01*
X6635000Y2095000D01*
Y2150000D01*
X5452770Y3695180D02*
Y4002760D01*
X5487770Y4037760D01*
X7637640Y4124540D02*
X8015480D01*
X7526040Y4087440D02*
X7563140Y4124540D01*
X7592370D01*
X7595320Y4127500D01*
X7634670D01*
X7637640Y4124540D01*
X3165000Y5550000D02*
Y6030000D01*
X2877500Y6317500D02*
X3165000Y6030000D01*
X3212500Y5532500D02*
Y6055000D01*
X2922500Y6345000D02*
X3212500Y6055000D01*
G54D47*
X8496720Y1510070D02*
X8513540Y1493250D01*
Y1379960D02*
Y1493250D01*
X8455410Y1510070D02*
X8496720D01*
X8912500Y1952500D02*
X9057540D01*
X9065260Y1960220D01*
X8410410Y2077600D02*
Y2208550D01*
X8413540Y2211680D01*
X1302500Y720000D02*
X1360000D01*
X1256860Y558600D02*
Y674360D01*
X1302500Y720000D01*
X1356460Y441460D02*
Y538600D01*
X1355000Y440000D02*
X1356460Y441460D01*
X8390000Y480000D02*
Y497270D01*
X8279770Y592500D02*
X8287270Y600000D01*
X6725920Y1149820D02*
Y1208420D01*
X6911340Y1179940D02*
Y1273660D01*
X7185020Y720000D02*
Y927480D01*
X7007500Y1105000D02*
X7185020Y927480D01*
X6942500Y1105000D02*
X7007500D01*
X6911340Y1136160D02*
X6942500Y1105000D01*
X6911340Y1136160D02*
Y1179940D01*
X4467860Y6389840D02*
X4543360D01*
X9459340Y6049340D02*
X9460000Y6050000D01*
X9210040Y6032640D02*
X9362640D01*
X9379340Y6049340D01*
X9405620D01*
X9210040Y5932640D02*
X9400540D01*
X9405620Y5937720D01*
X9460000D01*
X9210040Y5632640D02*
X9397720D01*
X9405620Y5640540D01*
X8459940Y1112560D02*
Y1182980D01*
X8130000Y1115000D02*
Y1182500D01*
X8613140Y1016860D02*
Y1092340D01*
X8902500Y940000D02*
X8905000Y942500D01*
X8965000D01*
X8778240Y1061760D02*
Y1092340D01*
Y1061760D02*
X8810000Y1030000D01*
X8923020Y1064480D02*
Y1092340D01*
Y1064480D02*
X8960000Y1027500D01*
X9065260Y2011020D02*
X9190520D01*
X9220200Y1981340D01*
X9316340D01*
X8363540Y2211680D02*
Y2303960D01*
X7965540Y1861960D02*
X8039100D01*
X5390400Y4490000D02*
Y4495080D01*
X5250000Y4438210D02*
X5301790Y4490000D01*
X5390400D01*
X5267680Y4159820D02*
Y4279180D01*
Y4159820D02*
X5327500Y4100000D01*
X5267680Y4279180D02*
Y4377320D01*
X5250000Y4395000D02*
X5267680Y4377320D01*
X5250000Y4395000D02*
Y4438210D01*
X9805200Y3614420D02*
Y3710200D01*
X9341320Y7211060D02*
X9423940D01*
X9040640Y7400040D02*
X9132500D01*
X4460240Y7586180D02*
Y7635240D01*
X3651530Y5910000D02*
X3659100Y5917570D01*
X3592500Y5910000D02*
X3651530D01*
X7218680Y3436320D02*
Y3549320D01*
Y3436320D02*
X7322500Y3332500D01*
X7547500Y2705000D02*
X7560000Y2692500D01*
X7695000D01*
X7726680Y2660820D01*
Y2543480D02*
Y2660820D01*
X8287270Y600000D02*
X8390000Y497270D01*
X1463980Y4146060D02*
X1486720D01*
X1590080Y4042700D01*
G54D48*
X5490400Y4495080D02*
X5517770Y4467710D01*
X5508980Y4279180D02*
X5517770Y4287970D01*
Y4467710D01*
X1751250Y568750D02*
X1795000Y525000D01*
X7807500Y1657500D02*
Y1842500D01*
X7742500Y1592500D02*
X7807500Y1657500D01*
X7557500Y1592500D02*
X7742500D01*
X7875000Y1910000D02*
X7910000D01*
X7807500Y1842500D02*
X7875000Y1910000D01*
X7525000Y1625000D02*
X7557500Y1592500D01*
X7525000Y1625000D02*
Y1712500D01*
X7470000Y1767500D02*
X7525000Y1712500D01*
X7942500Y2093180D02*
X7945920Y2089760D01*
X7942500Y2093180D02*
Y2215000D01*
X5255000Y5640000D02*
Y5695740D01*
X5250980Y5699760D02*
X5255000Y5695740D01*
X5344350Y5706390D02*
X5350980Y5699760D01*
X5344350Y5706390D02*
Y5788950D01*
X9405620Y6049340D02*
X9459340D01*
X9405620Y6149340D02*
X9410000Y6153720D01*
Y6200000D01*
X9210040Y5782640D02*
X9327360D01*
X9330000Y5780000D01*
X9405620Y5837720D02*
X9457720D01*
X9460000Y5840000D01*
X9405620Y5640540D02*
X9469460D01*
X9470000Y5640000D01*
X9405620Y5540540D02*
X9459460D01*
X9460000Y5540000D01*
X9210040Y5332640D02*
X9397440D01*
X9405620Y5340820D01*
X9459180D01*
X9460000Y5340000D01*
X9210040Y5482640D02*
X9347720D01*
X9405620Y5540540D01*
Y5240820D02*
X9459180D01*
X9460000Y5240000D01*
X9210040Y4632120D02*
X9395420D01*
X9405620Y4642320D01*
X9457680D01*
X9460000Y4640000D01*
X9210040Y4482260D02*
X9345560D01*
X9405620Y4542320D01*
X9457680D01*
X9210040Y4030140D02*
X9386200D01*
X9405620Y4049560D01*
X9210040Y4182540D02*
X9372640D01*
X9405620Y4149560D01*
Y4049560D02*
X9469560D01*
X9405620Y4149560D02*
X9479560D01*
X9210040Y3931080D02*
X9385340D01*
X9405620Y3910800D01*
X9469200D01*
X9350000Y3810000D02*
X9404820D01*
X9405620Y3810800D01*
X7907360Y6032640D02*
X8022680D01*
X7900000Y6040000D02*
X7907360Y6032640D01*
X7853680Y5932640D02*
X8022680D01*
X7810500Y5889460D02*
X7853680Y5932640D01*
X7750540Y5889460D02*
X7810500D01*
X7817320Y5782640D02*
X8022680D01*
X7810500Y5789460D02*
X7817320Y5782640D01*
X7740540Y5789460D02*
X7810500D01*
X7742440Y5602440D02*
X7810500D01*
X7737560Y5502440D02*
X7810500D01*
X7814680Y4482260D02*
X8022680D01*
X7810500Y4486440D02*
X7814680Y4482260D01*
X7820300Y4182540D02*
X8022680D01*
X7810500Y4172740D02*
X7820300Y4182540D01*
X7853100Y4030140D02*
X8022680D01*
X7810500Y4072740D02*
X7853100Y4030140D01*
X3795560Y1944440D02*
Y2004060D01*
Y1944440D02*
X3800000Y1940000D01*
X3870000Y1930000D02*
X3920000Y1980000D01*
X3780000Y2100000D02*
Y2160000D01*
X3920000Y2080000D02*
Y2140000D01*
X4147020Y1937020D02*
Y2004060D01*
X4140000Y1930000D02*
X4147020Y1937020D01*
X4047020Y2004060D02*
Y2072980D01*
X8022680Y5332640D02*
X8140140D01*
X8145000Y5337500D01*
X4392340Y6289840D02*
X4467860D01*
X4390000Y6287500D02*
X4392340Y6289840D01*
X7809280Y4485220D02*
X7810500Y4486440D01*
X7745380Y4485220D02*
X7809280D01*
Y4585220D02*
X7810500Y4586440D01*
X7745380Y4585220D02*
X7809280D01*
X8020320Y5635000D02*
X8022680Y5632640D01*
X7843060Y5635000D02*
X8020320D01*
X7810500Y5602440D02*
X7843060Y5635000D01*
X7810500Y5502440D02*
X7820180Y5492760D01*
X7845590D01*
X7855710Y5482640D01*
X8022680D01*
X7881080Y3931080D02*
X8022680D01*
X7932560Y4632120D02*
X8022680D01*
X7913170Y4612730D02*
X7932560Y4632120D01*
X7810500Y4586440D02*
X7836790Y4612730D01*
X7913170D01*
X8923020Y1192340D02*
X9107880D01*
X9129180Y1363320D02*
X9210840D01*
X7236460Y1379220D02*
Y1666460D01*
X7240000Y1670000D01*
X6675920Y999820D02*
X6725920Y1049820D01*
X6517640Y999820D02*
X6675920D01*
X1287500Y2737500D02*
Y2805000D01*
X1285000Y3227500D02*
X1290000Y3232500D01*
X1285000Y3175000D02*
Y3227500D01*
X1300000Y2305000D02*
Y2370000D01*
X5065000Y720000D02*
Y1070000D01*
X5385020Y720000D02*
Y859980D01*
X5181600Y1179940D02*
Y1255900D01*
X3600000Y1400000D02*
X3829860D01*
X3600000Y1500000D02*
Y1582500D01*
X1988920Y368920D02*
Y436080D01*
Y769760D02*
X2075000D01*
X2142840Y915340D02*
X2150000Y922500D01*
X2079560Y915340D02*
X2142840D01*
X2232500Y952500D02*
X2330000D01*
X2466500Y1089000D01*
X2580740D01*
X1103260Y1558260D02*
Y1578280D01*
X952160Y1407160D02*
X1103260Y1558260D01*
X777340Y1407160D02*
X952160D01*
X657160D02*
X777340D01*
Y1317660D02*
Y1407160D01*
X762100Y620400D02*
Y687540D01*
X1204860Y356540D02*
X1206600Y358280D01*
X1795000Y347500D02*
Y525000D01*
Y347500D02*
X1860000Y282500D01*
X2812500D01*
X2940000Y155000D01*
X3357500D01*
X3945000Y742500D01*
X4425000D01*
X4752500Y1070000D01*
X5065000D01*
X5385020Y859980D02*
X5460000Y934960D01*
Y1107500D01*
X5417680Y1149820D02*
X5460000Y1107500D01*
X5382260Y1149820D02*
X5417680D01*
X5382260D02*
Y1187740D01*
X5372500Y1197500D02*
X5382260Y1187740D01*
X1988920Y1022820D02*
X2112820D01*
X2160280Y1070280D01*
Y1491920D01*
X2417240D01*
X2420720Y1488440D01*
X1906920Y1491920D02*
X1990280D01*
X2735120Y1657260D02*
Y1742620D01*
X1494080Y359080D02*
X1557920D01*
X1657920D02*
X1717000Y300000D01*
X1203260Y1578280D02*
X1271720D01*
X2580740Y1089000D02*
Y1332880D01*
X2735120Y1487260D01*
X2645000Y1640000D02*
X2662260Y1657260D01*
X2735120D01*
X8100000Y480000D02*
X8290000D01*
X7350000Y8650000D02*
Y8722220D01*
X7405000Y8777220D01*
Y8822780D01*
X7372780Y8855000D02*
X7405000Y8822780D01*
X7370000Y8855000D02*
X7372780D01*
X7349060Y8875940D02*
X7370000Y8855000D01*
X7232080Y8875940D02*
X7349060D01*
X7232080Y8941980D02*
X7408020D01*
X7450000Y8900000D01*
X7182080Y9007500D02*
X7279720D01*
X7327220Y9055000D01*
X7395000D01*
X7450000Y9000000D01*
X7175000Y9250000D02*
X7275000Y9150000D01*
Y9100000D02*
Y9150000D01*
X7247500Y9072500D02*
X7275000Y9100000D01*
X7182080Y9072500D02*
X7247500D01*
X6337680Y9112320D02*
Y9174480D01*
X6920000Y9072500D02*
X6997500D01*
X7050000Y9125000D01*
Y8800000D02*
X7125940Y8875940D01*
X7182080D01*
X6591680Y9174480D02*
X6724480D01*
X7236780Y9813220D02*
X7340200Y9709800D01*
Y9633880D02*
Y9709800D01*
X6337680Y9112320D02*
X6425000Y9025000D01*
X6812520D01*
X6860020Y9072500D02*
X6920000D01*
X6812520Y9025000D02*
X6860020Y9072500D01*
X6724480Y9174480D02*
X6975000Y9425000D01*
X7220200D01*
X7225000Y9825000D02*
Y9950000D01*
X7450000Y8900000D02*
X7600000D01*
X7625000Y8875000D01*
X8809060D01*
X9220780Y8463280D01*
X7150000Y8525000D02*
Y8650000D01*
X2425000Y8075000D02*
X2512400D01*
X2520480Y8083080D01*
X2470000Y8470000D02*
X2750000Y8190000D01*
Y7970000D02*
Y8083080D01*
Y8090000D01*
X2620480Y8083080D02*
X2750000D01*
Y7810000D02*
Y7870000D01*
X5042700Y7991500D02*
Y8079740D01*
Y7991500D02*
X5044630Y7989570D01*
X5645620Y6789420D02*
X5744400D01*
X6731320Y6474460D02*
X6731800D01*
X6645340Y6388480D02*
X6731320Y6474460D01*
X1927500Y4142500D02*
Y4440000D01*
Y4142500D02*
X1930000Y4140000D01*
X1959000Y4408500D02*
X2288220D01*
X1927500Y4440000D02*
X1959000Y4408500D01*
X2288220Y4535500D02*
Y4659280D01*
X2210000Y4737500D02*
X2288220Y4659280D01*
X1927500Y4681920D02*
X1964420D01*
X2020000Y4737500D01*
X2210000D01*
X2829240Y4408500D02*
X3017380D01*
X3018320Y4409440D01*
X2829240Y4281500D02*
X3016720D01*
X3018320Y4279900D01*
X2168000Y4154500D02*
X2288220D01*
X1930000Y4040000D02*
X2012500D01*
X3118320Y4409440D02*
X3132760Y4395000D01*
X3132180Y4097820D02*
X3152820D01*
X3180860Y4125860D01*
Y4162900D01*
X2783860Y5290760D02*
X3005640D01*
X3008180Y5293300D01*
X2794020Y5039300D02*
X3008180D01*
X3622860Y5166300D02*
X3858800D01*
X3860000Y5167500D01*
Y5207500D01*
X3774200Y5293300D02*
X3860000Y5207500D01*
X3622860Y5293300D02*
X3774200D01*
X3860000Y5117500D02*
Y5167500D01*
X3840000Y5097500D02*
X3860000Y5117500D01*
X3807500Y5097500D02*
X3840000D01*
X3960000Y5167500D02*
X4012500D01*
X3622860Y4912300D02*
X3805000D01*
X3008180D02*
X3182300D01*
X2683860Y5221140D02*
Y5290760D01*
X2694020Y4973480D02*
Y5039300D01*
X4202500Y2882500D02*
Y2947500D01*
X4781180Y2718820D02*
X4861020D01*
X4905000Y2947500D02*
X5000000D01*
X5215260Y3014780D02*
Y3097760D01*
X5258320Y3140820D01*
Y3242860D01*
Y3421460D01*
X5267680Y3430820D01*
X5348960Y3252220D02*
Y3430820D01*
Y3252220D02*
X5358320Y3242860D01*
Y3181680D02*
Y3242860D01*
Y3181680D02*
X5415260Y3124740D01*
Y3014780D02*
Y3124740D01*
X4670000Y3812500D02*
X4671860Y3814360D01*
X4670000Y3642500D02*
Y3712500D01*
Y3642500D02*
X4692500Y3620000D01*
X2288220Y4281500D02*
X2458500D01*
X2462500Y4277500D01*
X7091680Y3363320D02*
X7092500Y3362500D01*
X9483560Y6840220D02*
X9903700D01*
X9481020Y6586220D02*
X9903700D01*
X9481020Y6334760D02*
X9901160D01*
X9903700Y6332220D01*
X9305220Y6840220D02*
X9383560D01*
X9305220Y6582720D02*
X9383560D01*
X9312720Y6332720D02*
X9381020D01*
X7900000Y480000D02*
Y687500D01*
Y787500D02*
Y830000D01*
X7940000Y870000D01*
X9040640Y7210040D02*
X9240300D01*
X9241320Y7211060D01*
X8470900Y7172960D02*
Y7312660D01*
X8813020D01*
X8820640Y7305040D01*
X8370410Y7172470D02*
X8370900Y7172960D01*
X8370410Y7105350D02*
Y7172470D01*
X4455220Y6070220D02*
X4470000Y6085000D01*
X4455220Y6037790D02*
Y6070220D01*
X3659100Y6040760D02*
Y6084100D01*
X3697500Y6122500D01*
X3132760Y4395000D02*
X3135260Y4397500D01*
X3185000D01*
X3205100Y4279900D02*
X3217500Y4267500D01*
X3118320Y4279900D02*
X3205100D01*
X4100000Y480000D02*
X4300000D01*
X3955000D02*
X4100000D01*
X3000000Y800000D02*
Y860000D01*
X3007500Y867500D01*
X3200000Y800000D02*
Y867500D01*
X3195000Y872500D02*
X3200000Y867500D01*
X3170190Y3875190D02*
X3172650D01*
X5490400Y4495080D02*
X5607420D01*
X5610000Y4492500D01*
Y4490000D02*
Y4492500D01*
X3432680Y3263740D02*
X3435220Y3261200D01*
X4805000Y2947500D02*
Y3017500D01*
X4861020Y2591820D02*
X4946820D01*
X5022500Y2667500D01*
X3547320Y3064820D02*
X3615000Y3132500D01*
X3435220Y3064820D02*
X3547320D01*
X3147500Y3047500D02*
X3187500Y3087500D01*
X3435220D01*
Y3064820D02*
Y3087500D01*
X3432680Y3263740D02*
X3563760D01*
X3615000Y3212500D01*
Y3132500D02*
Y3212500D01*
X6532500Y3512500D02*
X6600180D01*
X6603840Y3516160D01*
X6532500Y3412500D02*
X6825000D01*
X6837680Y3425180D01*
Y3549320D01*
X6532500Y3357500D02*
Y3412500D01*
X6535000Y3352500D02*
X6537500D01*
X6532500Y3357500D02*
X6537500Y3352500D01*
X7980680Y2543480D02*
Y2943180D01*
X8012500Y2975000D01*
X4737500Y2762500D02*
X4781180Y2718820D01*
X4737500Y2762500D02*
Y2880000D01*
X4805000Y2947500D01*
X4250000Y9350000D02*
X4314920Y9414920D01*
Y9649460D01*
X4060920Y9384080D02*
Y9649460D01*
Y9384080D02*
X4095000Y9350000D01*
X4150000D01*
X7140000Y1700000D02*
X7207500Y1767500D01*
X7470000D01*
X7023750Y1531250D02*
X7140000Y1647500D01*
Y1700000D01*
X6642500Y999820D02*
Y1250000D01*
X6923750Y1531250D01*
X7023750D01*
X6920000Y8875940D02*
X7019060D01*
X6920000Y8941980D02*
X7014480D01*
X6920000Y9007500D02*
X7012500D01*
X2829240Y4535500D02*
X2959500D01*
X2960000Y4535000D01*
X7921560Y4332400D02*
X8022680D01*
X7881980Y4371980D02*
X7921560Y4332400D01*
X7760420Y4072740D02*
X7810500D01*
X7750380Y4062700D02*
X7760420Y4072740D01*
X7757260Y4172740D02*
X7810500D01*
X4310760Y4406740D02*
X4438520D01*
X4237500Y4480000D02*
Y4502500D01*
Y4480000D02*
X4310760Y4406740D01*
X3275000Y5865000D02*
Y6077720D01*
X2980220Y6372500D02*
X3275000Y6077720D01*
G54D49*
X4859300Y2853200D02*
Y3176800D01*
X4947500Y3265000D01*
X5393100Y3575600D02*
X5412500Y3595000D01*
X4884140Y3575600D02*
X5393100D01*
X5501800Y3594300D02*
Y3715670D01*
X5442500Y3535000D02*
X5501800Y3594300D01*
X5000000Y3535000D02*
X5442500D01*
X5386840Y3654340D02*
X5392500Y3660000D01*
X4884140Y3654340D02*
X5386840D01*
X5502500Y3742500D02*
X5555000Y3795000D01*
X4907500Y3442500D02*
X5000000Y3535000D01*
X5502500Y3716370D02*
Y3742500D01*
X5501800Y3715670D02*
X5502500Y3716370D01*
X4850000Y3442500D02*
X4907500D01*
X3975000Y320000D02*
X4100000D01*
X517500Y952500D02*
X519100Y950900D01*
X633360D01*
X4300000Y292500D02*
Y320000D01*
X4212500Y205000D02*
X4300000Y292500D01*
X547500Y1187500D02*
X630440D01*
X633360Y1184580D01*
X3182500Y5245000D02*
Y5250000D01*
X3139200Y5293300D02*
X3182500Y5250000D01*
X3008180Y5293300D02*
X3139200D01*
X4246340Y2718820D02*
X4366320D01*
X4425000Y2777500D01*
Y2907500D01*
X4385000Y2947500D02*
X4425000Y2907500D01*
X4302500Y2947500D02*
X4385000D01*
X3298540Y2238540D02*
X3622040D01*
X3295000Y2235000D02*
X3298540Y2238540D01*
X3622040Y2338540D02*
X3775000D01*
X3604660Y5057500D02*
X3622860Y5039300D01*
X3395000Y5057500D02*
X3397500Y5060000D01*
X3407500D01*
X3395000Y5057500D02*
X3604660D01*
X5427700Y4172300D02*
Y4279180D01*
X5687500Y4240000D02*
Y4270000D01*
X5427700Y4172300D02*
X5442500Y4157500D01*
X5605000D01*
X5687500Y4240000D01*
X5587720Y4279180D02*
Y4361140D01*
X5598380Y4371800D01*
X5617460D01*
X5619080Y4373420D01*
X5776580D01*
X5374830Y4049300D02*
X5375270Y4049730D01*
X5188940Y4138560D02*
X5278200Y4049300D01*
X5374830D01*
X3432680Y3517740D02*
X3732260D01*
X4246340Y2591820D02*
X4319320D01*
X4470000Y2742500D01*
Y2950000D01*
X4365000Y3055000D02*
X4470000Y2950000D01*
X3432680Y3771740D02*
X3744240D01*
X3920000Y3947500D01*
X3952500D01*
X4257500Y4017500D02*
X4265740Y4025740D01*
X4438520D01*
X5776580Y4373420D02*
X5817500Y4332500D01*
X4592500Y3347500D02*
Y3362500D01*
X4564260Y3390740D02*
X4592500Y3362500D01*
X4438520Y3390740D02*
X4564260D01*
X3432680Y4025740D02*
X3584260D01*
X3600000Y4010000D01*
X4861020Y2464820D02*
X5022320D01*
X5077500Y2520000D01*
X4955000Y2807500D02*
X5077500Y2685000D01*
Y2520000D02*
Y2685000D01*
X4292240Y4279740D02*
X4438520D01*
X4202500Y4190000D02*
X4292240Y4279740D01*
X3732260Y3517740D02*
X3827500Y3422500D01*
X4302500Y2947500D01*
X3432680Y3644740D02*
X3690260D01*
X3860000Y3475000D01*
Y3460000D02*
Y3475000D01*
Y3460000D02*
X3927500Y3392500D01*
X4265000Y3055000D01*
X4365000D01*
X4300260Y3644740D02*
X4438520D01*
X4202500Y3742500D02*
X4300260Y3644740D01*
X4859300Y2853200D02*
X4905000Y2807500D01*
X4955000D01*
X5555000Y3795000D02*
Y4037500D01*
G54D39*
X4612500Y8595000D02*
X4666220Y8635000D01*
X4375000Y8610000D02*
Y8752500D01*
X4095000Y8607500D02*
Y8750000D01*
X4490000Y8647510D02*
X4512500Y8670010D01*
X4717500Y8627500D02*
Y8735000D01*
X4870000Y8590000D02*
Y8732500D01*
X5458560Y3017500D02*
X5522500D01*
X5776900Y5510270D02*
Y5622500D01*
X4400000Y7267880D02*
Y7372500D01*
X4140000Y7002500D02*
Y7067880D01*
Y7002500D02*
X4182500Y6960000D01*
X4035000Y6810000D02*
X4142740D01*
X4285000D02*
X4391660D01*
X4150000Y6407500D02*
X4259580D01*
X3902500Y6207500D02*
X4015740D01*
X4147500Y6202500D02*
X4259580D01*
X4215000Y5750000D02*
Y5892500D01*
X4360000Y5767500D02*
Y5892500D01*
Y5767500D02*
X4467500Y5660000D01*
X4105000Y5445000D02*
X4247500D01*
X5130000Y5380000D02*
Y5491480D01*
X5330000Y5372500D02*
Y5491480D01*
X5775000Y5275000D02*
Y5379720D01*
X5570000Y5270000D02*
Y5379720D01*
X5577500Y5507500D02*
Y5618480D01*
X6012500Y5310000D02*
Y5411800D01*
X6322500Y5272500D02*
Y5374300D01*
X6962500Y5165000D02*
Y5307500D01*
X6962761Y5717500D02*
X6855000D01*
X6012180Y5612500D02*
X6122500D01*
X7050000Y6467500D02*
Y6564960D01*
X7275000Y6430000D02*
X7417500D01*
X7490000D02*
X7632500D01*
X7382500Y6305000D02*
Y6447500D01*
X7532500Y6305000D02*
Y6447500D01*
X7525000Y6712500D02*
Y6855000D01*
X7387500Y6712500D02*
Y6855000D01*
X7485000Y6737500D02*
X7627500D01*
X6942500Y6767500D02*
X7048500D01*
X7790000Y6882500D02*
X7932500D01*
X7890000Y6660000D02*
Y6802500D01*
X8050000Y6657500D02*
Y6800000D01*
X8035000Y6847500D02*
Y6990000D01*
X6926580Y6997500D02*
X7037500D01*
X6926580Y7195000D02*
X7037500D01*
X7167880Y7202500D02*
X7275000D01*
X8040000Y7305000D02*
Y7447500D01*
X7897500Y7302500D02*
Y7445000D01*
X7792500Y7470000D02*
X7935000D01*
X8002500Y7462500D02*
X8145000D01*
X6926580Y7382500D02*
X7035000D01*
X7340000Y7452500D02*
X7482500D01*
X7127500Y7722500D02*
X7270000D01*
X6927500Y7994320D02*
Y8092500D01*
X7355000Y7760000D02*
X7407500D01*
X7487500Y7680000D01*
X6711620Y8145000D02*
X6812500D01*
X6417500Y8147500D02*
X6511620D01*
X6287500Y8155940D02*
Y8267500D01*
X6090000Y8155940D02*
Y8265000D01*
X5830240Y8145000D02*
X5930000D01*
X5535000Y8152500D02*
X5630240D01*
X5830240Y8402500D02*
X5927500D01*
X5532500Y8400000D02*
X5630240D01*
X6220000Y8542500D02*
Y8685000D01*
X6100000Y8557500D02*
X6242500D01*
X6495000Y8550000D02*
Y8692500D01*
X5110000Y8305660D02*
Y8412500D01*
X4792980Y8305660D02*
X5110000D01*
Y8572500D02*
Y8682500D01*
X5307000Y8575000D02*
X5402500D01*
X5307000Y8305000D02*
X5402500D01*
X4830000Y8607500D02*
X4972500D01*
X5230000Y8920000D02*
Y9062500D01*
X5092500Y8917500D02*
Y9060000D01*
Y9137500D02*
Y9280000D01*
X5230000Y9135000D02*
Y9277500D01*
X4992500Y9172500D02*
X5135000D01*
X4995000Y9027500D02*
X5137500D01*
X5747500Y9140000D02*
Y9282500D01*
X5880000Y9140000D02*
Y9282500D01*
X5840000Y9177500D02*
X5982500D01*
X5842500Y9020000D02*
X5985000D01*
X5742500Y8917500D02*
Y9060000D01*
X5885000Y8915000D02*
Y9057500D01*
X6402500Y8432500D02*
X6545000D01*
X3952500Y8645000D02*
X4095000D01*
X4370000Y8647510D02*
X4490000D01*
X4666220Y8635000D02*
X4717500Y8627500D01*
X4380000Y8097500D02*
Y8206740D01*
X4177360Y8115140D02*
Y8206740D01*
Y8115140D02*
X4195000Y8097500D01*
X4382500Y7817500D02*
Y7927340D01*
X4220000Y7817500D02*
Y7889780D01*
X4182440Y7927340D02*
X4220000Y7889780D01*
X4139620Y7267500D02*
X4245000D01*
X4287500Y6610000D02*
X4392880D01*
X4035000Y6637500D02*
X4060000Y6612500D01*
X9166060Y620000D02*
X9230000D01*
X8642500Y507500D02*
Y571440D01*
X6462500Y695000D02*
X6526440D01*
X6460000Y165000D02*
X6523940D01*
X7526060Y120000D02*
X7590000D01*
X7485000Y783560D02*
Y847500D01*
X5723560Y740000D02*
X5787500D01*
X5721060Y190000D02*
X5785000D01*
X4827500Y786060D02*
Y850000D01*
X4662500Y122500D02*
X4726440D01*
X3597500Y720000D02*
X3661440D01*
X6517500Y1231060D02*
Y1295000D01*
X2621060Y897500D02*
X2685000D01*
X775000Y1641060D02*
Y1705000D01*
X2463560Y1690000D02*
X2527500D01*
X6926580Y7585000D02*
X7005000D01*
X7040000Y7550000D01*
X7387500Y7457500D02*
X7430000Y7415000D01*
Y7330000D02*
Y7415000D01*
X6962500Y5630000D02*
Y5725000D01*
Y5630000D02*
X7060000D01*
X4360000Y5307500D02*
Y5450000D01*
X4642500Y5455000D02*
Y5608320D01*
X6920000Y5300000D02*
X6960000Y5260000D01*
X7070000D01*
X6647820Y5202750D02*
X6742250D01*
X6545580Y5610000D02*
X6660000D01*
X6797500Y5165000D02*
Y5305000D01*
X6505320Y5270260D02*
Y5300320D01*
X6547500Y5342500D01*
Y5411800D01*
X7382500Y6695000D02*
X7417500Y6730000D01*
X7272500Y6695000D02*
X7382500D01*
X3900000Y6482500D02*
X3978220Y6404280D01*
X4015000D01*
X4845000Y5500000D02*
Y5608320D01*
X7167880Y7002500D02*
X7173220Y7007840D01*
X7275350D01*
X4287500Y7067500D02*
X4392880D01*
X4060000Y6612500D02*
X4120000D01*
X4207500Y5447500D02*
X4210000Y5445000D01*
Y5267500D02*
Y5445000D01*
G54D45*
X6208900Y5496100D02*
X6287100Y5574300D01*
X6926580Y7794320D02*
X6949320D01*
X7037500Y7882500D01*
X4160000Y7582500D02*
X4171680D01*
X4262120Y7492060D01*
X6287100Y5574300D02*
X6324600D01*
X9118600Y1181620D02*
X9321800D01*
Y1271800D01*
X9306620Y1178200D02*
X9396800D01*
X9106620Y2503200D02*
X9196800D01*
X9103200Y2403200D02*
Y2493380D01*
X8803200Y2496800D02*
X8893380D01*
X8903200Y2403200D02*
Y2493380D01*
X5215260Y2815000D02*
Y3014780D01*
G54D44*
X9118600Y820700D02*
Y1011620D01*
X8641900Y806680D02*
X8708320D01*
X8797500Y717500D01*
X9212500D01*
X9321800Y826800D01*
Y1011620D01*
X7625000Y8500000D02*
Y8675000D01*
X7525000Y8400000D02*
X7625000Y8500000D01*
X7150000Y8400000D02*
X7525000D01*
G54D46*
X8817500Y1510000D02*
X8867930Y1500070D01*
G54D48*
X1063147Y3250855D02*
Y3369829D01*
G54D46*
X8156180Y4380660D02*
X8171140Y4365700D01*
G54D39*
X6901236Y5585000D02*
X6855000Y5717500D01*
G54D46*
X6830000Y6788620D02*
Y6777500D01*
M02*
