*
%FSLAX45Y45*%
%MOMM*%
G04 A1 - rect599.44x599.44xr149.86 *
%AMA1bot*
22,1,0.599440,0.299720,-0.299720,-0.149860,0.0*
1,1,0.299720,-0.149860,0.149860*
1,1,0.299720,0.149860,0.149860*
20,1,0.299720,-0.149860,0.149860,0.149860,0.149860,0.0*
1,1,0.299720,-0.149860,-0.149860*
1,1,0.299720,0.149860,-0.149860*
20,1,0.299720,-0.149860,-0.149860,0.149860,-0.149860,0.0*
%
G04 A2 - i274x.roundedrectd71.d71 *
%AMA2bot*
1,1,0.000000,-0.635000,0.000000*
1,1,0.000000,0.635000,0.000000*
20,1,0.000000,-0.635000,0.000000,0.635000,0.000000,0.0*
1,1,1.270000,0.000000,0.000000*
1,1,1.270000,0.000000,0.000000*
1,1,1.270000,0.000000,0.000000*
1,1,1.270000,0.000000,0.000000*
%
G04 A3 - i274x.roundedrectd75.d75 *
%AMA3bot*
1,1,0.000000,0.225000,0.000000*
1,1,0.000000,-0.225000,0.000000*
20,1,0.000000,0.225000,0.000000,-0.225000,0.000000,0.0*
1,1,0.450000,0.000000,0.000000*
1,1,0.450000,0.000000,0.000000*
1,1,0.450000,0.000000,0.000000*
1,1,0.450000,0.000000,0.000000*
%
G04 A4 - rect2600.96x1940.56xr96.52 *
%AMA4bot*
22,1,2.600960,1.747520,-1.300480,-0.873760,0.0*
1,1,0.193040,-1.203960,0.873760*
1,1,0.193040,1.203960,0.873760*
20,1,0.193040,-1.203960,0.873760,1.203960,0.873760,0.0*
1,1,0.193040,-1.203960,-0.873760*
1,1,0.193040,1.203960,-0.873760*
20,1,0.193040,-1.203960,-0.873760,1.203960,-0.873760,0.0*
%
G04 A5 - rect2499.36x1300.48xr129.54 *
%AMA5bot*
22,1,2.499360,1.041400,-1.249680,-0.520700,0.0*
1,1,0.259080,-1.120140,0.520700*
1,1,0.259080,1.120140,0.520700*
20,1,0.259080,-1.120140,0.520700,1.120140,0.520700,0.0*
1,1,0.259080,-1.120140,-0.520700*
1,1,0.259080,1.120140,-0.520700*
20,1,0.259080,-1.120140,-0.520700,1.120140,-0.520700,0.0*
%
G04 A6 - rect2349.5x5349.25xr236.22 *
%AMA6bot*
22,1,1.877060,5.349250,-0.938530,-2.674625,0.0*
1,1,0.472440,-0.938530,-2.438405*
1,1,0.472440,-0.938530,2.438405*
20,1,0.472440,-0.938530,-2.438405,-0.938530,2.438405,0.0*
1,1,0.472440,0.938530,-2.438405*
1,1,0.472440,0.938530,2.438405*
20,1,0.472440,0.938530,-2.438405,0.938530,2.438405,0.0*
%
%ADD10R,1.200000X0.800000*%
%ADD11R,0.800000X1.200000*%
%ADD12R,1.200000X1.000000*%
%ADD13R,1.000000X0.800000*%
%ADD14R,1.000000X1.200000*%
%ADD15R,2.600000X1.600000*%
%ADD16R,1.600000X2.600000*%
%ADD17R,2.400000X2.600000*%
%ADD18R,1.397000X1.193800*%
%ADD19R,0.600000X0.450000*%
%ADD20R,0.450000X0.600000*%
%ADD21O,1.200000X0.300000*%
%ADD22C,0.300000*%
%ADD23C,1.500000*%
%ADD24R,1.500000X1.500000*%
%ADD25O,2.000000X4.500000*%
%ADD26O,4.500000X2.000000*%
%ADD27C,0.500000*%
%ADD28C,1.000000*%
%ADD29C,0.600000*%
%ADD30R,1.400000X1.800000*%
%ADD31A1bot*%
%ADD32R,1.016000X3.302000*%
%ADD33R,1.016000X2.616200*%
%ADD34R,3.302000X1.016000*%
%ADD35R,2.616200X1.016000*%
%ADD36A2bot*%
%ADD37R,1.100000X0.650000*%
%ADD38O,1.100000X0.650000*%
%ADD39R,1.498600X1.701800*%
%ADD40A3bot*%
%ADD41R,2.413000X0.863600*%
%ADD42R,13.385800X9.144000*%
%ADD43R,1.800000X1.400000*%
%ADD44R,0.800000X0.800000*%
%ADD45R,0.600000X1.550000*%
%ADD46R,0.609600X1.016000*%
%ADD47R,0.450000X1.016000*%
%ADD48A4bot*%
%ADD49O,0.609600X0.254000*%
%ADD50O,0.254000X0.609600*%
%ADD51A5bot*%
%ADD52A6bot*%
%ADD53O,0.300000X1.200000*%
%ADD54C,0.150000*%
%ADD55C,0.200000*%
%ADD56C,0.164000*%
%ADD57C,0.250000*%
%ADD58C,0.254000*%
%IPPOS*%
%LNcryptech_28032016.bot*%
%LPD*%
%SRX1Y1I0J0*%
G01*
G75*
G36*
X4207500Y8322500D02*
Y8521020D01*
X4216480Y8530000D01*
X4941020D01*
X4950000Y8521020D01*
Y8100000D01*
X4512500D01*
Y8322500D01*
X4207500D01*
G37*
G36*
X3850000Y5875000D02*
Y6050000D01*
X4350000D01*
X4450000Y5950000D01*
Y5800000D01*
X4575000Y5675000D01*
Y5575000D01*
X4400000D01*
X4100000Y5875000D01*
X3850000D01*
G37*
G36*
X8294520Y464850D02*
Y550680D01*
X8405740Y563510D01*
X8417410Y602000D01*
X8436300Y637330D01*
X8436750Y637050D01*
X8365640Y723400D01*
X8426600Y784360D01*
X8512670Y713700D01*
X8548000Y732590D01*
X8586490Y744260D01*
X8586620Y743730D01*
X8599320Y855480D01*
X8685150D01*
X8696750Y744240D01*
X8734810Y732700D01*
X8770310Y713720D01*
X8770020Y713250D01*
X8857980Y784360D01*
X8918300Y723400D01*
X8847020Y637320D01*
X8865780Y602230D01*
X8877520Y563510D01*
X8876970Y563380D01*
X8989890Y550680D01*
Y464850D01*
X8877500Y453250D01*
X8865880Y414960D01*
X8847040Y379700D01*
X8846580Y379980D01*
X8918300Y292020D01*
X8857980Y231700D01*
X8770300Y302960D01*
X8735050Y284120D01*
X8735030D01*
X8734590Y285190D01*
X8684360Y406450D01*
X8697670Y411960D01*
X8720510Y429490D01*
X8738040Y452340D01*
X8749060Y478950D01*
X8752820Y507500D01*
X8752770D01*
X8752830Y507940D01*
X8749050Y536670D01*
X8737960Y563430D01*
X8720320Y586420D01*
X8697340Y604060D01*
X8670570Y615150D01*
X8641840Y618930D01*
X8613120Y615150D01*
X8586350Y604060D01*
X8563360Y586420D01*
X8545720Y563430D01*
X8534640Y536670D01*
X8530850Y507940D01*
X8534640Y479220D01*
X8545720Y452450D01*
X8563360Y429460D01*
X8586350Y411820D01*
X8599320Y406450D01*
X8548090Y284150D01*
X8547700Y284260D01*
X8512680Y302980D01*
X8512950Y303420D01*
X8426600Y231700D01*
X8365640Y292020D01*
X8436280Y379690D01*
X8417300Y415190D01*
X8405760Y453250D01*
X8406270Y453370D01*
X8294520Y464850D01*
G37*
G36*
X3607500Y7965000D02*
Y8062500D01*
X3655000Y8110000D01*
Y8195000D01*
X3625000Y8225000D01*
Y8525000D01*
X3650000Y8550000D01*
X4150000D01*
Y8128530D01*
X4144170Y8114470D01*
X4141940Y8097500D01*
X4144170Y8080530D01*
X4150000Y8066470D01*
Y8008980D01*
X4141020Y8000000D01*
X3890000D01*
X3797500Y7907500D01*
Y7742500D01*
X3705000D01*
Y7965000D01*
X3607500D01*
G37*
G36*
X320000Y3920000D02*
Y4280000D01*
X480000Y4440000D01*
X830000D01*
Y4372500D01*
X925840D01*
Y4349720D01*
X930600Y4338240D01*
X942080Y4333480D01*
X1227080D01*
X1227500Y4333200D01*
Y4138740D01*
X1227080Y4138460D01*
X942080D01*
X930600Y4133700D01*
X925840Y4122220D01*
Y4097500D01*
X830000D01*
Y3920000D01*
X320000D01*
G37*
G36*
X2185000Y5277500D02*
Y5415000D01*
X2250000D01*
Y5962500D01*
X2512500D01*
Y5200000D01*
X2550000Y5162500D01*
Y4475000D01*
X2262500D01*
Y5200000D01*
X2185000Y5277500D01*
G37*
G36*
X2832500Y5948980D02*
Y6200000D01*
X3050000D01*
Y6600000D01*
X3650000D01*
Y6300000D01*
X3240000D01*
Y5935000D01*
X3090000D01*
Y5940000D01*
X2841480D01*
X2832500Y5948980D01*
G37*
G36*
X3410000Y7440780D02*
Y7626820D01*
X3688340D01*
X3696010Y7630000D01*
X3705000D01*
Y7658520D01*
X3713980Y7667500D01*
X3825000D01*
Y7900000D01*
X3900000Y7975000D01*
X4125000D01*
Y7675000D01*
X4075000D01*
Y7500000D01*
X4130000D01*
Y7219840D01*
X3810000D01*
Y7390000D01*
X3777970D01*
X3775000Y7391240D01*
X3714000Y7391280D01*
X3713960Y7391310D01*
X3704580Y7400280D01*
Y7415560D01*
X3699820Y7427040D01*
X3688340Y7431800D01*
X3418980D01*
X3410000Y7440780D01*
G37*
G36*
X320000Y3200000D02*
Y3894810D01*
X856630D01*
Y4022500D01*
X916020D01*
X925000Y4013520D01*
Y3800000D01*
X1022500D01*
Y3676480D01*
X1013520Y3667500D01*
X972500D01*
X933750Y3628750D01*
Y3540000D01*
X750000D01*
Y3200000D01*
X320000D01*
G37*
G36*
X3115000Y5485000D02*
Y5912500D01*
X3300000D01*
Y6200000D01*
X3650000D01*
Y5800000D01*
X4100000D01*
Y5550000D01*
X3250000D01*
Y5485000D01*
X3115000D01*
G37*
G36*
X600000Y8670000D02*
Y10050000D01*
X1600000D01*
Y9250000D01*
X950000D01*
Y8670000D01*
X600000D01*
G37*
G36*
X1000000Y8675000D02*
Y9132500D01*
X1700000D01*
Y10050000D01*
X2100000D01*
Y8750000D01*
X2300000Y8550000D01*
X2400000D01*
Y8300000D01*
X2100000D01*
Y8500000D01*
X1925000Y8675000D01*
X1000000D01*
G37*
G36*
X7275000Y8192340D02*
Y8360030D01*
X7280800Y8370330D01*
X7344300D01*
Y8682750D01*
X7280800D01*
X7275000Y8693050D01*
Y9110950D01*
X7280800Y9121250D01*
X7344300D01*
Y9433670D01*
X7280800D01*
X7275000Y9443970D01*
Y9612600D01*
X7280800Y9622900D01*
X7344300D01*
Y9813400D01*
X7357000D01*
Y9826100D01*
X7433200D01*
Y9851500D01*
X7459300D01*
Y9927700D01*
X7472000D01*
Y9940400D01*
X7662500D01*
Y10000000D01*
X7850790D01*
Y9940400D01*
X8163210D01*
Y10000000D01*
X8601710D01*
Y9940400D01*
X8914130D01*
Y10000000D01*
X9103360D01*
Y9940400D01*
X9293860D01*
Y9927700D01*
X9306560D01*
Y9851500D01*
X9331960D01*
Y9622900D01*
X9475000D01*
Y9433670D01*
X9420860D01*
Y9121250D01*
X9475000D01*
Y8682750D01*
X9420860D01*
Y8370330D01*
X9475000D01*
Y8182040D01*
X9420860D01*
Y7991540D01*
X9408160D01*
Y7978840D01*
X9331960D01*
Y7952740D01*
X9306560D01*
Y7876540D01*
X9293860D01*
Y7863840D01*
X9103360D01*
Y7800340D01*
X9090800Y7800000D01*
X8926690D01*
X8914130Y7800340D01*
Y7863840D01*
X8601710D01*
Y7800340D01*
X8589150Y7800000D01*
X8175770D01*
X8163210Y7800340D01*
Y7862200D01*
X8175910Y7863450D01*
X8177520Y7855340D01*
X8188660Y7838660D01*
X8205340Y7827520D01*
X8212300Y7826140D01*
Y7923860D01*
X8205340Y7922480D01*
X8188660Y7911340D01*
X8177520Y7894660D01*
X8175910Y7886550D01*
X8163210Y7887800D01*
Y7952740D01*
X8019700D01*
Y7876540D01*
X8007000D01*
Y7863840D01*
X7850790D01*
Y7800340D01*
X7838230Y7800000D01*
X7675060D01*
X7662500Y7800340D01*
Y7863840D01*
X7472000D01*
Y7876540D01*
X7459300D01*
Y7952740D01*
X7433200D01*
Y7978840D01*
X7357000D01*
Y7991540D01*
X7344300D01*
Y8182040D01*
X7280800D01*
X7275000Y8192340D01*
G37*
G36*
X150000Y5300000D02*
Y8175000D01*
X475000Y8500000D01*
X1950000D01*
Y7350000D01*
X1675000D01*
X1475000Y7150000D01*
Y6575000D01*
X1175000D01*
X875000Y6275000D01*
Y5300000D01*
X150000D01*
G37*
G36*
X2100000Y7775000D02*
Y8000000D01*
X2525000D01*
X2650000Y8100000D01*
Y8650000D01*
X2350000D01*
X2200000Y8800000D01*
Y10050000D01*
X2600000D01*
Y9500000D01*
X5600000D01*
Y8800000D01*
X6350000D01*
Y8550000D01*
X6250000Y8450000D01*
X6050000D01*
X5950000Y8550000D01*
X5700000D01*
X5650000Y8500000D01*
Y8150000D01*
X5575000Y8075000D01*
X5325000D01*
X5250000Y8150000D01*
Y8750000D01*
X5200000Y8800000D01*
X5050000D01*
X4900000Y8650000D01*
X4700000D01*
X4500000Y8850000D01*
X4250000D01*
X4200000Y8800000D01*
Y8725000D01*
X4050000Y8575000D01*
X3625000D01*
X3600000Y8550000D01*
Y8200000D01*
X3625000Y8175000D01*
Y8133980D01*
X3616020Y8125000D01*
X3325000D01*
X3300000Y8150000D01*
X3000000D01*
Y7900000D01*
X2875000Y7775000D01*
X2100000D01*
G37*
G36*
X450000Y4550000D02*
Y4925000D01*
X650000Y5125000D01*
X1050000D01*
X1200000Y5275000D01*
Y6275000D01*
X1325000Y6400000D01*
X1400000D01*
X1600000Y6600000D01*
Y7100000D01*
X1750000Y7250000D01*
X1975000D01*
X2100000Y7375000D01*
X2450000D01*
Y7125000D01*
X2500000Y7075000D01*
X3607500D01*
Y7336020D01*
X3616480Y7345000D01*
X3705000D01*
Y7356060D01*
X3713980Y7365030D01*
X3774990Y7364980D01*
X3774980Y7192500D01*
X4150000D01*
Y7042500D01*
X3757500Y6650000D01*
X2280000D01*
X1905000Y6275000D01*
Y5810000D01*
X2082500D01*
Y5410000D01*
X2151020D01*
X2160000Y5401020D01*
Y5282500D01*
X2150000Y5272500D01*
Y4475000D01*
X1500000D01*
X1300000Y4675000D01*
X1075000D01*
X1022500Y4622500D01*
Y4420000D01*
X937500D01*
Y4416560D01*
X930600Y4413700D01*
X925840Y4402220D01*
Y4400000D01*
X855000D01*
Y4525000D01*
X475000D01*
X450000Y4550000D01*
G37*
%LPC*%
G01*
G75*
X450000Y4550000D02*
G36*
X3554820Y5894390D02*
X3551720Y5910000D01*
X3554820Y5925610D01*
X3563660Y5938840D01*
X3576890Y5947680D01*
X3592500Y5950780D01*
X3608110Y5947680D01*
X3621340Y5938840D01*
X3630180Y5925610D01*
X3633280Y5910000D01*
X3630180Y5894390D01*
X3621340Y5881160D01*
X3608110Y5872320D01*
X3592500Y5869220D01*
X3576890Y5872320D01*
X3563660Y5881160D01*
X3554820Y5894390D01*
G37*
G36*
X7337300Y8287700D02*
X7301140D01*
X7302520Y8294660D01*
X7313660Y8311340D01*
X7330340Y8322480D01*
X7337300Y8323860D01*
Y8287700D01*
G37*
G36*
Y9012700D02*
X7301140D01*
X7302520Y9019660D01*
X7313660Y9036340D01*
X7330340Y9047480D01*
X7337300Y9048860D01*
Y9012700D01*
G37*
G36*
X7302520Y8980340D02*
X7301140Y8987300D01*
X7337300D01*
Y8951140D01*
X7330340Y8952520D01*
X7313660Y8963660D01*
X7302520Y8980340D01*
G37*
G36*
X7337300Y8812700D02*
X7301140D01*
X7302520Y8819660D01*
X7313660Y8836340D01*
X7330340Y8847480D01*
X7337300Y8848860D01*
Y8812700D01*
G37*
G36*
X7302520Y8780340D02*
X7301140Y8787300D01*
X7337300D01*
Y8751140D01*
X7330340Y8752520D01*
X7313660Y8763660D01*
X7302520Y8780340D01*
G37*
G36*
X7337300Y9537700D02*
X7301140D01*
X7302520Y9544660D01*
X7313660Y9561340D01*
X7330340Y9572480D01*
X7337300Y9573860D01*
Y9537700D01*
G37*
G36*
X7302520Y9505340D02*
X7301140Y9512300D01*
X7337300D01*
Y9476140D01*
X7330340Y9477520D01*
X7313660Y9488660D01*
X7302520Y9505340D01*
G37*
G36*
X7433200Y9622900D02*
X7369700D01*
Y9800700D01*
X7433200D01*
Y9622900D01*
G37*
G36*
X7398860Y9537700D02*
X7362700D01*
Y9573860D01*
X7369660Y9572480D01*
X7386340Y9561340D01*
X7397480Y9544660D01*
X7398860Y9537700D01*
G37*
G36*
X7369660Y9477520D02*
X7362700Y9476140D01*
Y9512300D01*
X7398860D01*
X7397480Y9505340D01*
X7386340Y9488660D01*
X7369660Y9477520D01*
G37*
G36*
X7433200Y9290160D02*
X7369700D01*
Y9433670D01*
X7433200D01*
Y9290160D01*
G37*
G36*
Y9121250D02*
X7369700D01*
Y9264760D01*
X7433200D01*
Y9121250D01*
G37*
G36*
X7398860Y9012700D02*
X7362700D01*
Y9048860D01*
X7369660Y9047480D01*
X7386340Y9036340D01*
X7397480Y9019660D01*
X7398860Y9012700D01*
G37*
G36*
X7369660Y8952520D02*
X7362700Y8951140D01*
Y8987300D01*
X7398860D01*
X7397480Y8980340D01*
X7386340Y8963660D01*
X7369660Y8952520D01*
G37*
G36*
X7398860Y8812700D02*
X7362700D01*
Y8848860D01*
X7369660Y8847480D01*
X7386340Y8836340D01*
X7397480Y8819660D01*
X7398860Y8812700D01*
G37*
G36*
X7369660Y8752520D02*
X7362700Y8751140D01*
Y8787300D01*
X7398860D01*
X7397480Y8780340D01*
X7386340Y8763660D01*
X7369660Y8752520D01*
G37*
G36*
X7433200Y8539240D02*
X7369700D01*
Y8682750D01*
X7433200D01*
Y8539240D01*
G37*
G36*
Y8370330D02*
X7369700D01*
Y8513840D01*
X7433200D01*
Y8370330D01*
G37*
G36*
X7398860Y8287700D02*
X7362700D01*
Y8323860D01*
X7369660Y8322480D01*
X7386340Y8311340D01*
X7397480Y8294660D01*
X7398860Y8287700D01*
G37*
G36*
X7369660Y8227520D02*
X7362700Y8226140D01*
Y8262300D01*
X7398860D01*
X7397480Y8255340D01*
X7386340Y8238660D01*
X7369660Y8227520D01*
G37*
G36*
X7433200Y8004240D02*
X7369700D01*
Y8182040D01*
X7433200D01*
Y8004240D01*
G37*
G36*
X7662500Y9851500D02*
X7484700D01*
Y9915000D01*
X7662500D01*
Y9851500D01*
G37*
G36*
X7637300Y9637700D02*
X7601140D01*
X7602520Y9644660D01*
X7613660Y9661340D01*
X7630340Y9672480D01*
X7637300Y9673860D01*
Y9637700D01*
G37*
G36*
X7602520Y9605340D02*
X7601140Y9612300D01*
X7637300D01*
Y9576140D01*
X7630340Y9577520D01*
X7613660Y9588660D01*
X7602520Y9605340D01*
G37*
G36*
X7637300Y9362700D02*
X7601140D01*
X7602520Y9369660D01*
X7613660Y9386340D01*
X7630340Y9397480D01*
X7637300Y9398860D01*
Y9362700D01*
G37*
G36*
X7602520Y9330340D02*
X7601140Y9337300D01*
X7637300D01*
Y9301140D01*
X7630340Y9302520D01*
X7613660Y9313660D01*
X7602520Y9330340D01*
G37*
G36*
X7637300Y9087700D02*
X7601140D01*
X7602520Y9094660D01*
X7613660Y9111340D01*
X7630340Y9122480D01*
X7637300Y9123860D01*
Y9087700D01*
G37*
G36*
X7602520Y9055340D02*
X7601140Y9062300D01*
X7637300D01*
Y9026140D01*
X7630340Y9027520D01*
X7613660Y9038660D01*
X7602520Y9055340D01*
G37*
G36*
X7698860Y9637700D02*
X7662700D01*
Y9673860D01*
X7669660Y9672480D01*
X7686340Y9661340D01*
X7697480Y9644660D01*
X7698860Y9637700D01*
G37*
G36*
X7669660Y9577520D02*
X7662700Y9576140D01*
Y9612300D01*
X7698860D01*
X7697480Y9605340D01*
X7686340Y9588660D01*
X7669660Y9577520D01*
G37*
G36*
X7698860Y9362700D02*
X7662700D01*
Y9398860D01*
X7669660Y9397480D01*
X7686340Y9386340D01*
X7697480Y9369660D01*
X7698860Y9362700D01*
G37*
G36*
X7669660Y9302520D02*
X7662700Y9301140D01*
Y9337300D01*
X7698860D01*
X7697480Y9330340D01*
X7686340Y9313660D01*
X7669660Y9302520D01*
G37*
G36*
X7698860Y9087700D02*
X7662700D01*
Y9123860D01*
X7669660Y9122480D01*
X7686340Y9111340D01*
X7697480Y9094660D01*
X7698860Y9087700D01*
G37*
G36*
X7669660Y9027520D02*
X7662700Y9026140D01*
Y9062300D01*
X7698860D01*
X7697480Y9055340D01*
X7686340Y9038660D01*
X7669660Y9027520D01*
G37*
G36*
X7737300Y9937700D02*
X7701140D01*
X7702520Y9944660D01*
X7713660Y9961340D01*
X7730340Y9972480D01*
X7737300Y9973860D01*
Y9937700D01*
G37*
G36*
X7702520Y9905340D02*
X7701140Y9912300D01*
X7737300D01*
Y9876140D01*
X7730340Y9877520D01*
X7713660Y9888660D01*
X7702520Y9905340D01*
G37*
G36*
X7798860Y9937700D02*
X7762700D01*
Y9973860D01*
X7769660Y9972480D01*
X7786340Y9961340D01*
X7797480Y9944660D01*
X7798860Y9937700D01*
G37*
G36*
X7769660Y9877520D02*
X7762700Y9876140D01*
Y9912300D01*
X7798860D01*
X7797480Y9905340D01*
X7786340Y9888660D01*
X7769660Y9877520D01*
G37*
G36*
X7771600Y8867140D02*
X7736400D01*
Y8909840D01*
X7771600D01*
Y8867140D01*
G37*
G36*
Y8799040D02*
X7736400D01*
Y8841740D01*
X7771600D01*
Y8799040D01*
G37*
G36*
X7671840Y8561580D02*
X7531840D01*
Y8656580D01*
X7571250D01*
Y8771980D01*
X7573580Y8783690D01*
X7580210Y8793610D01*
X7646800Y8860200D01*
Y8899440D01*
X7721800D01*
Y8809440D01*
X7682560D01*
X7632430Y8759310D01*
Y8656580D01*
X7671840D01*
Y8639670D01*
X7702860D01*
X7713470Y8646760D01*
X7729080Y8649860D01*
X7744690Y8646760D01*
X7757920Y8637920D01*
X7766760Y8624690D01*
X7769860Y8609080D01*
X7766760Y8593470D01*
X7757920Y8580240D01*
X7744690Y8571400D01*
X7729080Y8568300D01*
X7713470Y8571400D01*
X7702860Y8578490D01*
X7671840D01*
Y8561580D01*
G37*
G36*
X7578900Y8371580D02*
X7531840D01*
Y8466580D01*
X7671840D01*
Y8371580D01*
X7633890D01*
X7630030Y8358880D01*
X7633840Y8356340D01*
X7642680Y8343110D01*
X7645780Y8327500D01*
X7642680Y8311890D01*
X7633840Y8298660D01*
X7620610Y8289820D01*
X7614820Y8288670D01*
X7611280Y8286310D01*
X7602500Y8284560D01*
X7593720Y8286310D01*
X7586280Y8291280D01*
X7585620Y8291940D01*
X7585130Y8292670D01*
X7576160Y8298660D01*
X7567320Y8311890D01*
X7564220Y8327500D01*
X7567320Y8343110D01*
X7576160Y8356340D01*
X7578900Y8358170D01*
Y8371580D01*
G37*
G36*
X7637300Y8162700D02*
X7601140D01*
X7602520Y8169660D01*
X7613660Y8186340D01*
X7630340Y8197480D01*
X7637300Y8198860D01*
Y8162700D01*
G37*
G36*
X7602520Y8130340D02*
X7601140Y8137300D01*
X7637300D01*
Y8101140D01*
X7630340Y8102520D01*
X7613660Y8113660D01*
X7602520Y8130340D01*
G37*
G36*
X7662500Y7889240D02*
X7484700D01*
Y7952740D01*
X7662500D01*
Y7889240D01*
G37*
G36*
X7698860Y8162700D02*
X7662700D01*
Y8198860D01*
X7669660Y8197480D01*
X7686340Y8186340D01*
X7697480Y8169660D01*
X7698860Y8162700D01*
G37*
G36*
X7669660Y8102520D02*
X7662700Y8101140D01*
Y8137300D01*
X7698860D01*
X7697480Y8130340D01*
X7686340Y8113660D01*
X7669660Y8102520D01*
G37*
G36*
X7737300Y7887700D02*
X7701140D01*
X7702520Y7894660D01*
X7713660Y7911340D01*
X7730340Y7922480D01*
X7737300Y7923860D01*
Y7887700D01*
G37*
G36*
X7702520Y7855340D02*
X7701140Y7862300D01*
X7737300D01*
Y7826140D01*
X7730340Y7827520D01*
X7713660Y7838660D01*
X7702520Y7855340D01*
G37*
G36*
X7832200Y8867140D02*
X7797000D01*
Y8909840D01*
X7832200D01*
Y8867140D01*
G37*
G36*
Y8799040D02*
X7797000D01*
Y8841740D01*
X7832200D01*
Y8799040D01*
G37*
G36*
X7994300Y9851500D02*
X7850790D01*
Y9915000D01*
X7994300D01*
Y9851500D01*
G37*
G36*
X7987300Y9637700D02*
X7951140D01*
X7952520Y9644660D01*
X7963660Y9661340D01*
X7980340Y9672480D01*
X7987300Y9673860D01*
Y9637700D01*
G37*
G36*
X7952520Y9605340D02*
X7951140Y9612300D01*
X7987300D01*
Y9576140D01*
X7980340Y9577520D01*
X7963660Y9588660D01*
X7952520Y9605340D01*
G37*
G36*
X7987300Y9362700D02*
X7951140D01*
X7952520Y9369660D01*
X7963660Y9386340D01*
X7980340Y9397480D01*
X7987300Y9398860D01*
Y9362700D01*
G37*
G36*
X7952520Y9330340D02*
X7951140Y9337300D01*
X7987300D01*
Y9301140D01*
X7980340Y9302520D01*
X7963660Y9313660D01*
X7952520Y9330340D01*
G37*
G36*
X7987300Y9087700D02*
X7951140D01*
X7952520Y9094660D01*
X7963660Y9111340D01*
X7980340Y9122480D01*
X7987300Y9123860D01*
Y9087700D01*
G37*
G36*
X7952520Y9055340D02*
X7951140Y9062300D01*
X7987300D01*
Y9026140D01*
X7980340Y9027520D01*
X7963660Y9038660D01*
X7952520Y9055340D01*
G37*
G36*
X8163210Y9851500D02*
X8019700D01*
Y9915000D01*
X8163210D01*
Y9851500D01*
G37*
G36*
X8048860Y9637700D02*
X8012700D01*
Y9673860D01*
X8019660Y9672480D01*
X8036340Y9661340D01*
X8047480Y9644660D01*
X8048860Y9637700D01*
G37*
G36*
X8019660Y9577520D02*
X8012700Y9576140D01*
Y9612300D01*
X8048860D01*
X8047480Y9605340D01*
X8036340Y9588660D01*
X8019660Y9577520D01*
G37*
G36*
X8048860Y9362700D02*
X8012700D01*
Y9398860D01*
X8019660Y9397480D01*
X8036340Y9386340D01*
X8047480Y9369660D01*
X8048860Y9362700D01*
G37*
G36*
X8019660Y9302520D02*
X8012700Y9301140D01*
Y9337300D01*
X8048860D01*
X8047480Y9330340D01*
X8036340Y9313660D01*
X8019660Y9302520D01*
G37*
G36*
X8048860Y9087700D02*
X8012700D01*
Y9123860D01*
X8019660Y9122480D01*
X8036340Y9111340D01*
X8047480Y9094660D01*
X8048860Y9087700D01*
G37*
G36*
X8019660Y9027520D02*
X8012700Y9026140D01*
Y9062300D01*
X8048860D01*
X8047480Y9055340D01*
X8036340Y9038660D01*
X8019660Y9027520D01*
G37*
G36*
X8237300Y9937700D02*
X8201140D01*
X8202520Y9944660D01*
X8213660Y9961340D01*
X8230340Y9972480D01*
X8237300Y9973860D01*
Y9937700D01*
G37*
G36*
X8202520Y9905340D02*
X8201140Y9912300D01*
X8237300D01*
Y9876140D01*
X8230340Y9877520D01*
X8213660Y9888660D01*
X8202520Y9905340D01*
G37*
G36*
X8298860Y9937700D02*
X8262700D01*
Y9973860D01*
X8269660Y9972480D01*
X8286340Y9961340D01*
X8297480Y9944660D01*
X8298860Y9937700D01*
G37*
G36*
X8269660Y9877520D02*
X8262700Y9876140D01*
Y9912300D01*
X8298860D01*
X8297480Y9905340D01*
X8286340Y9888660D01*
X8269660Y9877520D01*
G37*
G36*
X8312300Y9637700D02*
X8276140D01*
X8277520Y9644660D01*
X8288660Y9661340D01*
X8305340Y9672480D01*
X8312300Y9673860D01*
Y9637700D01*
G37*
G36*
X8277520Y9605340D02*
X8276140Y9612300D01*
X8312300D01*
Y9576140D01*
X8305340Y9577520D01*
X8288660Y9588660D01*
X8277520Y9605340D01*
G37*
G36*
X8312300Y9362700D02*
X8276140D01*
X8277520Y9369660D01*
X8288660Y9386340D01*
X8305340Y9397480D01*
X8312300Y9398860D01*
Y9362700D01*
G37*
G36*
X8277520Y9330340D02*
X8276140Y9337300D01*
X8312300D01*
Y9301140D01*
X8305340Y9302520D01*
X8288660Y9313660D01*
X8277520Y9330340D01*
G37*
G36*
X8470480Y8767940D02*
X8320480D01*
Y8877940D01*
X8470480D01*
Y8767940D01*
G37*
G36*
X8373860Y9637700D02*
X8337700D01*
Y9673860D01*
X8344660Y9672480D01*
X8361340Y9661340D01*
X8372480Y9644660D01*
X8373860Y9637700D01*
G37*
G36*
X8344660Y9577520D02*
X8337700Y9576140D01*
Y9612300D01*
X8373860D01*
X8372480Y9605340D01*
X8361340Y9588660D01*
X8344660Y9577520D01*
G37*
G36*
X8373860Y9362700D02*
X8337700D01*
Y9398860D01*
X8344660Y9397480D01*
X8361340Y9386340D01*
X8372480Y9369660D01*
X8373860Y9362700D01*
G37*
G36*
X8344660Y9302520D02*
X8337700Y9301140D01*
Y9337300D01*
X8373860D01*
X8372480Y9330340D01*
X8361340Y9313660D01*
X8344660Y9302520D01*
G37*
G36*
X8487300Y9937700D02*
X8451140D01*
X8452520Y9944660D01*
X8463660Y9961340D01*
X8480340Y9972480D01*
X8487300Y9973860D01*
Y9937700D01*
G37*
G36*
X8452520Y9905340D02*
X8451140Y9912300D01*
X8487300D01*
Y9876140D01*
X8480340Y9877520D01*
X8463660Y9888660D01*
X8452520Y9905340D01*
G37*
G36*
X8548860Y9937700D02*
X8512700D01*
Y9973860D01*
X8519660Y9972480D01*
X8536340Y9961340D01*
X8547480Y9944660D01*
X8548860Y9937700D01*
G37*
G36*
X8519660Y9877520D02*
X8512700Y9876140D01*
Y9912300D01*
X8548860D01*
X8547480Y9905340D01*
X8536340Y9888660D01*
X8519660Y9877520D01*
G37*
G36*
X8745220Y9851500D02*
X8601710D01*
Y9915000D01*
X8745220D01*
Y9851500D01*
G37*
G36*
X8687300Y9637700D02*
X8651140D01*
X8652520Y9644660D01*
X8663660Y9661340D01*
X8680340Y9672480D01*
X8687300Y9673860D01*
Y9637700D01*
G37*
G36*
X8652520Y9605340D02*
X8651140Y9612300D01*
X8687300D01*
Y9576140D01*
X8680340Y9577520D01*
X8663660Y9588660D01*
X8652520Y9605340D01*
G37*
G36*
X8748860Y9637700D02*
X8712700D01*
Y9673860D01*
X8719660Y9672480D01*
X8736340Y9661340D01*
X8747480Y9644660D01*
X8748860Y9637700D01*
G37*
G36*
X8719660Y9577520D02*
X8712700Y9576140D01*
Y9612300D01*
X8748860D01*
X8747480Y9605340D01*
X8736340Y9588660D01*
X8719660Y9577520D01*
G37*
G36*
X8914130Y9851500D02*
X8770620D01*
Y9915000D01*
X8914130D01*
Y9851500D01*
G37*
G36*
X8987300Y9937700D02*
X8951140D01*
X8952520Y9944660D01*
X8963660Y9961340D01*
X8980340Y9972480D01*
X8987300Y9973860D01*
Y9937700D01*
G37*
G36*
X8952520Y9905340D02*
X8951140Y9912300D01*
X8987300D01*
Y9876140D01*
X8980340Y9877520D01*
X8963660Y9888660D01*
X8952520Y9905340D01*
G37*
G36*
X9048860Y9937700D02*
X9012700D01*
Y9973860D01*
X9019660Y9972480D01*
X9036340Y9961340D01*
X9047480Y9944660D01*
X9048860Y9937700D01*
G37*
G36*
X9019660Y9877520D02*
X9012700Y9876140D01*
Y9912300D01*
X9048860D01*
X9047480Y9905340D01*
X9036340Y9888660D01*
X9019660Y9877520D01*
G37*
G36*
X9036520Y9634220D02*
X9001320D01*
Y9676920D01*
X9036520D01*
Y9634220D01*
G37*
G36*
Y9566120D02*
X9001320D01*
Y9608820D01*
X9036520D01*
Y9566120D01*
G37*
G36*
X8754660Y9336840D02*
X8664660D01*
Y9411840D01*
X8754660D01*
Y9404930D01*
X8852320D01*
Y9428620D01*
X8918630D01*
Y9576520D01*
X8911720D01*
Y9666520D01*
X8986720D01*
Y9576520D01*
X8979810D01*
Y9428620D01*
X9002320D01*
Y9318620D01*
X8852320D01*
Y9343750D01*
X8754660D01*
Y9336840D01*
G37*
G36*
X8896490Y9128620D02*
X8852320D01*
Y9238620D01*
X9002320D01*
Y9128620D01*
X8957670D01*
Y9001340D01*
X8982080D01*
Y8851340D01*
X8872080D01*
Y9001340D01*
X8896490D01*
Y9128620D01*
G37*
G36*
X9097120Y9634220D02*
X9061920D01*
Y9676920D01*
X9097120D01*
Y9634220D01*
G37*
G36*
Y9566120D02*
X9061920D01*
Y9608820D01*
X9097120D01*
Y9566120D01*
G37*
G36*
X9281160Y9851500D02*
X9103360D01*
Y9915000D01*
X9281160D01*
Y9851500D01*
G37*
G36*
X9212300Y9637700D02*
X9176140D01*
X9177520Y9644660D01*
X9188660Y9661340D01*
X9205340Y9672480D01*
X9212300Y9673860D01*
Y9637700D01*
G37*
G36*
X9177520Y9605340D02*
X9176140Y9612300D01*
X9212300D01*
Y9576140D01*
X9205340Y9577520D01*
X9188660Y9588660D01*
X9177520Y9605340D01*
G37*
G36*
X9222320Y9223620D02*
X9072320D01*
Y9333620D01*
X9222320D01*
Y9223620D01*
G37*
G36*
X9104380Y8939040D02*
X9051680D01*
Y9011740D01*
X9104380D01*
Y8939040D01*
G37*
G36*
Y8840940D02*
X9051680D01*
Y8913640D01*
X9104380D01*
Y8840940D01*
G37*
G36*
X8679070Y9236840D02*
X8664660D01*
Y9311840D01*
X8754660D01*
Y9236840D01*
X8740250D01*
Y8648670D01*
X8802090Y8586830D01*
X8811090Y8590560D01*
X8831580Y8593260D01*
X8852070Y8590560D01*
X8859830Y8587350D01*
X8967080Y8694600D01*
Y8781340D01*
X9077080D01*
Y8631340D01*
X8990340D01*
X8903820Y8544820D01*
X8908060Y8534570D01*
X8910760Y8514080D01*
X8909350Y8503420D01*
X8917730Y8493870D01*
X9010780D01*
Y8508280D01*
X9085780D01*
Y8418280D01*
X9046540D01*
X9029010Y8400750D01*
Y8213640D01*
X9035920D01*
Y8123640D01*
X8960920D01*
Y8213640D01*
X8967830D01*
Y8413420D01*
X8969140Y8419990D01*
X8961110Y8432690D01*
X8882380D01*
X8870670Y8435020D01*
X8861170Y8441370D01*
X8852070Y8437600D01*
X8831580Y8434900D01*
X8811090Y8437600D01*
X8791990Y8445510D01*
X8775590Y8458090D01*
X8763010Y8474490D01*
X8755100Y8493590D01*
X8752400Y8514080D01*
X8755100Y8534570D01*
X8758830Y8543570D01*
X8688030Y8614370D01*
X8681400Y8624300D01*
X8679070Y8636000D01*
Y9236840D01*
G37*
G36*
X8687300Y8337700D02*
X8651140D01*
X8652520Y8344660D01*
X8663660Y8361340D01*
X8680340Y8372480D01*
X8687300Y8373860D01*
Y8337700D01*
G37*
G36*
X8652520Y8305340D02*
X8651140Y8312300D01*
X8687300D01*
Y8276140D01*
X8680340Y8277520D01*
X8663660Y8288660D01*
X8652520Y8305340D01*
G37*
G36*
X8748860Y8337700D02*
X8712700D01*
Y8373860D01*
X8719660Y8372480D01*
X8736340Y8361340D01*
X8747480Y8344660D01*
X8748860Y8337700D01*
G37*
G36*
X8719660Y8277520D02*
X8712700Y8276140D01*
Y8312300D01*
X8748860D01*
X8747480Y8305340D01*
X8736340Y8288660D01*
X8719660Y8277520D01*
G37*
G36*
X7952240Y8431780D02*
X7791440D01*
Y8476980D01*
X7801840D01*
Y8561580D01*
X7812070D01*
X7815920Y8574280D01*
X7815090Y8574840D01*
X7804600Y8590550D01*
X7800910Y8609080D01*
X7804600Y8627610D01*
X7815090Y8643330D01*
X7830810Y8653820D01*
X7849340Y8657510D01*
X7894340D01*
X7912870Y8653820D01*
X7928590Y8643330D01*
X7939080Y8627610D01*
X7942770Y8609080D01*
X7939080Y8590550D01*
X7928590Y8574840D01*
X7927760Y8574280D01*
X7931610Y8561580D01*
X7941840D01*
Y8544670D01*
X8135860D01*
X8144890Y8552960D01*
Y8862940D01*
X8100480D01*
Y8972940D01*
X8250480D01*
Y8862940D01*
X8206070D01*
Y8600530D01*
X8214360Y8593260D01*
X8234850Y8590560D01*
X8243850Y8586830D01*
X8289250Y8632230D01*
X8299180Y8638860D01*
X8310880Y8641190D01*
X8378320D01*
Y8655600D01*
X8453320D01*
Y8565600D01*
X8378320D01*
Y8580010D01*
X8323550D01*
X8287110Y8543570D01*
X8290840Y8534570D01*
X8293540Y8514080D01*
X8290840Y8493590D01*
X8287110Y8484590D01*
X8352400Y8419300D01*
X8365100Y8424090D01*
Y8460320D01*
X8475100D01*
X8485230Y8466520D01*
Y8565600D01*
X8478320D01*
Y8655600D01*
X8485230D01*
Y8946510D01*
X8480270Y8951470D01*
X8470480Y8957940D01*
X8320480D01*
Y9067940D01*
X8470480D01*
Y9041850D01*
X8473760Y9041200D01*
X8483690Y9034570D01*
X8537450Y8980810D01*
X8544080Y8970890D01*
X8546410Y8959180D01*
Y8655600D01*
X8553320D01*
Y8565600D01*
X8546410D01*
Y8240320D01*
X8570100D01*
Y8195910D01*
X8860920D01*
Y8213640D01*
X8935920D01*
Y8123640D01*
X8860920D01*
Y8134730D01*
X8570100D01*
Y8090320D01*
X8460100D01*
Y8240320D01*
X8485230D01*
Y8304120D01*
X8475100Y8310320D01*
X8365100D01*
Y8354730D01*
X8343120D01*
X8331410Y8357060D01*
X8321490Y8363690D01*
X8243850Y8441330D01*
X8234850Y8437600D01*
X8214360Y8434900D01*
X8193870Y8437600D01*
X8184870Y8441330D01*
X8100170Y8356630D01*
Y8276460D01*
X8114580D01*
Y8201460D01*
X8024580D01*
Y8276460D01*
X8038990D01*
Y8369300D01*
X8041320Y8381010D01*
X8047950Y8390930D01*
X8128780Y8471760D01*
X8123920Y8483490D01*
X7962240D01*
X7952240Y8476980D01*
Y8431780D01*
G37*
G36*
X7859140Y8361180D02*
X7791440D01*
Y8406380D01*
X7859140D01*
Y8361180D01*
G37*
G36*
X7798860Y7887700D02*
X7762700D01*
Y7923860D01*
X7769660Y7922480D01*
X7786340Y7911340D01*
X7797480Y7894660D01*
X7798860Y7887700D01*
G37*
G36*
X7769660Y7827520D02*
X7762700Y7826140D01*
Y7862300D01*
X7798860D01*
X7797480Y7855340D01*
X7786340Y7838660D01*
X7769660Y7827520D01*
G37*
G36*
X7952240Y8361180D02*
X7884540D01*
Y8406380D01*
X7952240D01*
Y8361180D01*
G37*
G36*
X7994300Y7889240D02*
X7850790D01*
Y7952740D01*
X7994300D01*
Y7889240D01*
G37*
G36*
X8025550Y8101460D02*
X8024580D01*
Y8176460D01*
X8114580D01*
Y8101460D01*
X8113610D01*
X8106820Y8088760D01*
X8107260Y8088110D01*
X8110360Y8072500D01*
X8107260Y8056890D01*
X8098420Y8043660D01*
X8085190Y8034820D01*
X8069580Y8031720D01*
X8053970Y8034820D01*
X8040740Y8043660D01*
X8031900Y8056890D01*
X8028800Y8072500D01*
X8031900Y8088110D01*
X8032340Y8088760D01*
X8025550Y8101460D01*
G37*
G36*
X8312400Y8178020D02*
X8259700D01*
Y8250720D01*
X8312400D01*
Y8178020D01*
G37*
G36*
Y8079920D02*
X8259700D01*
Y8152620D01*
X8312400D01*
Y8079920D01*
G37*
G36*
X8273860Y7887700D02*
X8237700D01*
Y7923860D01*
X8244660Y7922480D01*
X8261340Y7911340D01*
X8272480Y7894660D01*
X8273860Y7887700D01*
G37*
G36*
X8244660Y7827520D02*
X8237700Y7826140D01*
Y7862300D01*
X8273860D01*
X8272480Y7855340D01*
X8261340Y7838660D01*
X8244660Y7827520D01*
G37*
G36*
X8390500Y8178020D02*
X8337800D01*
Y8250720D01*
X8390500D01*
Y8178020D01*
G37*
G36*
Y8079920D02*
X8337800D01*
Y8152620D01*
X8390500D01*
Y8079920D01*
G37*
G36*
X8487300Y7887700D02*
X8451140D01*
X8452520Y7894660D01*
X8463660Y7911340D01*
X8480340Y7922480D01*
X8487300Y7923860D01*
Y7887700D01*
G37*
G36*
X8452520Y7855340D02*
X8451140Y7862300D01*
X8487300D01*
Y7826140D01*
X8480340Y7827520D01*
X8463660Y7838660D01*
X8452520Y7855340D01*
G37*
G36*
X8548860Y7887700D02*
X8512700D01*
Y7923860D01*
X8519660Y7922480D01*
X8536340Y7911340D01*
X8547480Y7894660D01*
X8548860Y7887700D01*
G37*
G36*
X8519660Y7827520D02*
X8512700Y7826140D01*
Y7862300D01*
X8548860D01*
X8547480Y7855340D01*
X8536340Y7838660D01*
X8519660Y7827520D01*
G37*
G36*
X8745220Y7889240D02*
X8601710D01*
Y7952740D01*
X8745220D01*
Y7889240D01*
G37*
G36*
X8914130D02*
X8770620D01*
Y7952740D01*
X8914130D01*
Y7889240D01*
G37*
G36*
X8987300Y7887700D02*
X8951140D01*
X8952520Y7894660D01*
X8963660Y7911340D01*
X8980340Y7922480D01*
X8987300Y7923860D01*
Y7887700D01*
G37*
G36*
X8952520Y7855340D02*
X8951140Y7862300D01*
X8987300D01*
Y7826140D01*
X8980340Y7827520D01*
X8963660Y7838660D01*
X8952520Y7855340D01*
G37*
G36*
X9048860Y7887700D02*
X9012700D01*
Y7923860D01*
X9019660Y7922480D01*
X9036340Y7911340D01*
X9047480Y7894660D01*
X9048860Y7887700D01*
G37*
G36*
X9019660Y7827520D02*
X9012700Y7826140D01*
Y7862300D01*
X9048860D01*
X9047480Y7855340D01*
X9036340Y7838660D01*
X9019660Y7827520D01*
G37*
G36*
X9182480Y8939040D02*
X9129780D01*
Y9011740D01*
X9182480D01*
Y8939040D01*
G37*
G36*
Y8840940D02*
X9129780D01*
Y8913640D01*
X9182480D01*
Y8840940D01*
G37*
G36*
X9273860Y9637700D02*
X9237700D01*
Y9673860D01*
X9244660Y9672480D01*
X9261340Y9661340D01*
X9272480Y9644660D01*
X9273860Y9637700D01*
G37*
G36*
X9244660Y9577520D02*
X9237700Y9576140D01*
Y9612300D01*
X9273860D01*
X9272480Y9605340D01*
X9261340Y9588660D01*
X9244660Y9577520D01*
G37*
G36*
X9185780Y8418280D02*
X9110780D01*
Y8508280D01*
X9185780D01*
Y8501850D01*
X9198480Y8496490D01*
X9205170Y8500960D01*
X9220780Y8504060D01*
X9236390Y8500960D01*
X9249620Y8492120D01*
X9258460Y8478890D01*
X9261560Y8463280D01*
X9258460Y8447670D01*
X9249620Y8434440D01*
X9236390Y8425600D01*
X9220780Y8422500D01*
X9205170Y8425600D01*
X9198480Y8430070D01*
X9185780Y8424710D01*
Y8418280D01*
G37*
G36*
X9187300Y8137700D02*
X9151140D01*
X9152520Y8144660D01*
X9163660Y8161340D01*
X9180340Y8172480D01*
X9187300Y8173860D01*
Y8137700D01*
G37*
G36*
X9152520Y8105340D02*
X9151140Y8112300D01*
X9187300D01*
Y8076140D01*
X9180340Y8077520D01*
X9163660Y8088660D01*
X9152520Y8105340D01*
G37*
G36*
X9248860Y8137700D02*
X9212700D01*
Y8173860D01*
X9219660Y8172480D01*
X9236340Y8161340D01*
X9247480Y8144660D01*
X9248860Y8137700D01*
G37*
G36*
X9219660Y8077520D02*
X9212700Y8076140D01*
Y8112300D01*
X9248860D01*
X9247480Y8105340D01*
X9236340Y8088660D01*
X9219660Y8077520D01*
G37*
G36*
X9281160Y7889240D02*
X9103360D01*
Y7952740D01*
X9281160D01*
Y7889240D01*
G37*
G36*
X9387300Y9537700D02*
X9351140D01*
X9352520Y9544660D01*
X9363660Y9561340D01*
X9380340Y9572480D01*
X9387300Y9573860D01*
Y9537700D01*
G37*
G36*
X9352520Y9505340D02*
X9351140Y9512300D01*
X9387300D01*
Y9476140D01*
X9380340Y9477520D01*
X9363660Y9488660D01*
X9352520Y9505340D01*
G37*
G36*
X9395460Y9290160D02*
X9331960D01*
Y9433670D01*
X9395460D01*
Y9290160D01*
G37*
G36*
Y9121250D02*
X9331960D01*
Y9264760D01*
X9395460D01*
Y9121250D01*
G37*
G36*
X9387300Y9012700D02*
X9351140D01*
X9352520Y9019660D01*
X9363660Y9036340D01*
X9380340Y9047480D01*
X9387300Y9048860D01*
Y9012700D01*
G37*
G36*
X9352520Y8980340D02*
X9351140Y8987300D01*
X9387300D01*
Y8951140D01*
X9380340Y8952520D01*
X9363660Y8963660D01*
X9352520Y8980340D01*
G37*
G36*
X9387300Y8812700D02*
X9351140D01*
X9352520Y8819660D01*
X9363660Y8836340D01*
X9380340Y8847480D01*
X9387300Y8848860D01*
Y8812700D01*
G37*
G36*
X9352520Y8780340D02*
X9351140Y8787300D01*
X9387300D01*
Y8751140D01*
X9380340Y8752520D01*
X9363660Y8763660D01*
X9352520Y8780340D01*
G37*
G36*
X9395460Y8539240D02*
X9331960D01*
Y8682750D01*
X9395460D01*
Y8539240D01*
G37*
G36*
Y8370330D02*
X9331960D01*
Y8513840D01*
X9395460D01*
Y8370330D01*
G37*
G36*
X9387300Y8287700D02*
X9351140D01*
X9352520Y8294660D01*
X9363660Y8311340D01*
X9380340Y8322480D01*
X9387300Y8323860D01*
Y8287700D01*
G37*
G36*
X9352520Y8255340D02*
X9351140Y8262300D01*
X9387300D01*
Y8226140D01*
X9380340Y8227520D01*
X9363660Y8238660D01*
X9352520Y8255340D01*
G37*
G36*
X9395460Y8004240D02*
X9331960D01*
Y8182040D01*
X9395460D01*
Y8004240D01*
G37*
G36*
X9448860Y9537700D02*
X9412700D01*
Y9573860D01*
X9419660Y9572480D01*
X9436340Y9561340D01*
X9447480Y9544660D01*
X9448860Y9537700D01*
G37*
G36*
X9419660Y9477520D02*
X9412700Y9476140D01*
Y9512300D01*
X9448860D01*
X9447480Y9505340D01*
X9436340Y9488660D01*
X9419660Y9477520D01*
G37*
G36*
X9448860Y9012700D02*
X9412700D01*
Y9048860D01*
X9419660Y9047480D01*
X9436340Y9036340D01*
X9447480Y9019660D01*
X9448860Y9012700D01*
G37*
G36*
X9419660Y8952520D02*
X9412700Y8951140D01*
Y8987300D01*
X9448860D01*
X9447480Y8980340D01*
X9436340Y8963660D01*
X9419660Y8952520D01*
G37*
G36*
X9448860Y8812700D02*
X9412700D01*
Y8848860D01*
X9419660Y8847480D01*
X9436340Y8836340D01*
X9447480Y8819660D01*
X9448860Y8812700D01*
G37*
G36*
X9419660Y8752520D02*
X9412700Y8751140D01*
Y8787300D01*
X9448860D01*
X9447480Y8780340D01*
X9436340Y8763660D01*
X9419660Y8752520D01*
G37*
G36*
X9448860Y8287700D02*
X9412700D01*
Y8323860D01*
X9419660Y8322480D01*
X9436340Y8311340D01*
X9447480Y8294660D01*
X9448860Y8287700D01*
G37*
G36*
X9419660Y8227520D02*
X9412700Y8226140D01*
Y8262300D01*
X9448860D01*
X9447480Y8255340D01*
X9436340Y8238660D01*
X9419660Y8227520D01*
G37*
G36*
X7302520Y8255340D02*
X7301140Y8262300D01*
X7337300D01*
Y8226140D01*
X7330340Y8227520D01*
X7313660Y8238660D01*
X7302520Y8255340D01*
G37*
G36*
X3377320Y6749390D02*
X3374220Y6765000D01*
X3377320Y6780610D01*
X3386160Y6793840D01*
X3399390Y6802680D01*
X3415000Y6805780D01*
X3430610Y6802680D01*
X3443840Y6793840D01*
X3452680Y6780610D01*
X3455780Y6765000D01*
X3452680Y6749390D01*
X3443840Y6736160D01*
X3430610Y6727320D01*
X3415000Y6724220D01*
X3399390Y6727320D01*
X3386160Y6736160D01*
X3377320Y6749390D01*
G37*
G36*
X1445680Y4825250D02*
X1442580Y4840860D01*
X1445680Y4856470D01*
X1454520Y4869700D01*
X1467750Y4878540D01*
X1483360Y4881640D01*
X1498970Y4878540D01*
X1512200Y4869700D01*
X1521040Y4856470D01*
X1524140Y4840860D01*
X1521040Y4825250D01*
X1512200Y4812020D01*
X1498970Y4803180D01*
X1483360Y4800080D01*
X1467750Y4803180D01*
X1454520Y4812020D01*
X1445680Y4825250D01*
G37*
%LPD*%
G01*
G75*
X1445680Y4825250D02*
G54D10*
X8175480Y8917940D03*
X8395480Y8822940D03*
Y9012940D03*
X8927320Y9183620D03*
Y9373620D03*
X9147320Y9278620D03*
G54D11*
X8927080Y8926340D03*
X9022080Y8706340D03*
X9117080Y8926340D03*
X8325100Y8165320D03*
X8515100D03*
X8420100Y8385320D03*
G54D12*
X2971800Y2556840D03*
Y2756840D03*
G54D13*
X3000000Y320000D03*
Y480000D03*
X2800000Y320000D03*
Y480000D03*
X2600000Y320000D03*
Y480000D03*
X2400000Y320000D03*
Y480000D03*
X4700000Y320000D03*
Y480000D03*
X4500000Y320000D03*
Y480000D03*
X4300000Y320000D03*
Y480000D03*
X4100000Y320000D03*
Y480000D03*
X8100000Y320000D03*
Y480000D03*
X7900000Y320000D03*
Y480000D03*
X7700000Y320000D03*
Y480000D03*
X7500000Y320000D03*
Y480000D03*
G54D14*
X4469460Y5133340D03*
X4669460D03*
G54D15*
X4005580Y7790040D03*
Y8090040D03*
Y7411860D03*
Y7111860D03*
X3474720Y6090780D03*
Y6390780D03*
X3469640Y5384660D03*
Y5684660D03*
X640080Y4343260D03*
Y4643260D03*
Y3708260D03*
Y4008260D03*
G54D16*
X1996300Y9908540D03*
X2296300D03*
X1996300Y9406890D03*
X2296300D03*
X1996300Y8905240D03*
X2296300D03*
X1379080Y6733540D03*
X1679080D03*
X2054720Y5064760D03*
X2354720D03*
X2054720Y4627880D03*
X2354720D03*
G54D17*
X721480Y6106160D03*
X1371480D03*
X721480Y5458460D03*
X1371480D03*
G54D18*
X2720780Y3413680D03*
Y3583860D03*
X2941760Y3413680D03*
Y3583860D03*
G54D19*
X6543040Y3616160D03*
Y3516160D03*
X5735320Y4928400D03*
Y5028400D03*
X3192780Y2711920D03*
Y2611920D03*
X3053080Y4097820D03*
Y4197820D03*
X6093460Y4928400D03*
Y5028400D03*
X6543040Y2924340D03*
Y3024340D03*
X3192780Y4563580D03*
Y4463580D03*
Y4097820D03*
Y4197820D03*
X6543040Y4011460D03*
Y4111460D03*
X3192780Y3237700D03*
Y3137700D03*
X7282220Y4039240D03*
Y4139240D03*
X7284720Y3918260D03*
Y3818260D03*
Y6045680D03*
Y6145680D03*
X8872220Y5816600D03*
Y5916600D03*
X7284720Y5312880D03*
Y5212880D03*
X8872220Y4164800D03*
Y4064800D03*
X7284720Y5909780D03*
Y5809780D03*
X8872220Y5504580D03*
Y5604580D03*
X7284720Y4604220D03*
Y4504220D03*
X8872220Y4498740D03*
Y4598740D03*
X7284720Y5615140D03*
Y5515140D03*
X7668260Y2747480D03*
Y2847480D03*
X9903700Y5785320D03*
Y5685320D03*
X3218180Y7534440D03*
Y7634440D03*
X1395000Y4212500D03*
Y4112500D03*
X3218180Y8089100D03*
Y7989100D03*
X1397500Y3685000D03*
Y3785000D03*
X7107500Y9720000D03*
Y9820000D03*
X6449060Y8343100D03*
Y8243100D03*
X7100000Y9000000D03*
Y8900000D03*
X2819400Y7311860D03*
Y7211860D03*
X8709660Y9374340D03*
Y9274340D03*
X8069580Y8138960D03*
Y8238960D03*
X3192780Y3417100D03*
Y3517100D03*
X4500000Y800000D03*
Y700000D03*
X2800000Y800000D03*
Y700000D03*
X7667500Y3270000D03*
Y3370000D03*
X3081020Y7534440D03*
Y7634440D03*
X1551940Y4223220D03*
Y4123220D03*
X3081020Y8089100D03*
Y7989100D03*
X3154680Y7860500D03*
Y7760500D03*
X1536700Y3683800D03*
Y3783800D03*
X1473200Y3904780D03*
Y4004780D03*
X8100000Y750000D03*
Y650000D03*
X4700000Y800000D03*
Y700000D03*
X4100000Y800000D03*
Y700000D03*
X4300000Y800000D03*
Y700000D03*
X3000000Y800000D03*
Y700000D03*
X2400000Y800000D03*
Y700000D03*
X2600000Y800000D03*
Y700000D03*
X7900000Y750000D03*
Y650000D03*
X7700000Y750000D03*
Y650000D03*
X7500000Y750000D03*
Y650000D03*
G54D20*
X2560000Y8470000D03*
X2660000D03*
X2505000Y7572500D03*
X2605000D03*
X2507780Y7183120D03*
X2607780D03*
X9049220Y9621520D03*
X8949220D03*
X8998420Y8168640D03*
X8898420D03*
X7784300Y8854440D03*
X7684300D03*
X2842500Y3205000D03*
X2942500D03*
X2867500Y3855000D03*
X2767500D03*
X5114760Y4935220D03*
X5014760D03*
X6084100Y1595120D03*
X6184100D03*
X4722660D03*
X4822660D03*
X5418620D03*
X5518620D03*
X6579400Y2197100D03*
X6679400D03*
X3871760Y4935220D03*
X3971760D03*
X4614380D03*
X4514380D03*
X6670040Y8844280D03*
X6570040D03*
X2498560Y6289040D03*
X2398560D03*
X2742400D03*
X2642400D03*
X2507780Y7317740D03*
X2607780D03*
X9048280Y8463280D03*
X9148280D03*
X8415820Y8610600D03*
X8515820D03*
X7964640Y2584120D03*
X7864640D03*
X6808000Y8844280D03*
X6908000D03*
X3622980Y7180580D03*
X3522980D03*
X1009180Y4572000D03*
X1109180D03*
X3710000Y8147500D03*
X3610000D03*
X902500Y3586480D03*
X1002500D03*
X2257260Y6289040D03*
X2157260D03*
X2981160D03*
X2881160D03*
X2742400Y6456680D03*
X2642400D03*
X2498560D03*
X2398560D03*
X2980220D03*
X3080220D03*
X7682700Y2584120D03*
X7582700D03*
X6867500Y3515000D03*
X6967500D03*
X7070560Y3622980D03*
X6970560D03*
G54D21*
X7492040Y3932640D03*
Y3982640D03*
Y4032640D03*
Y4082640D03*
Y4132640D03*
Y4182640D03*
Y4232640D03*
Y4282640D03*
Y4332640D03*
Y4382640D03*
Y4432640D03*
Y4482640D03*
Y4532640D03*
Y4582640D03*
Y4632640D03*
Y4682640D03*
Y4732640D03*
Y4782640D03*
Y4832640D03*
Y4882640D03*
Y4932640D03*
Y4982640D03*
Y5032640D03*
Y5082640D03*
Y5132640D03*
Y5182640D03*
Y5232640D03*
Y5282640D03*
Y5332640D03*
Y5382640D03*
Y5432640D03*
Y5482640D03*
Y5532640D03*
Y5582640D03*
Y5632640D03*
Y5682640D03*
Y5732640D03*
Y5782640D03*
Y5832640D03*
Y5882640D03*
Y5932640D03*
Y5982640D03*
Y6032640D03*
X8642040Y3932640D03*
Y3982640D03*
Y4032640D03*
Y4082640D03*
Y4132640D03*
Y4182640D03*
Y4232640D03*
Y4282640D03*
Y4332640D03*
Y4382640D03*
Y4432640D03*
Y4482640D03*
Y4532640D03*
Y4582640D03*
Y4632640D03*
Y4682640D03*
Y4732640D03*
Y4782640D03*
Y4832640D03*
Y4882640D03*
Y4932640D03*
Y4982640D03*
Y5032640D03*
Y5082640D03*
Y5132640D03*
Y5182640D03*
Y5232640D03*
Y5282640D03*
Y5332640D03*
Y5382640D03*
Y5432640D03*
Y5482640D03*
Y5532640D03*
Y5582640D03*
Y5632640D03*
Y5682640D03*
Y5732640D03*
Y5782640D03*
Y5832640D03*
Y5882640D03*
Y5932640D03*
Y5982640D03*
Y6032640D03*
X6344180Y1986360D03*
Y2036360D03*
Y2086360D03*
Y2136360D03*
Y2186360D03*
Y2236360D03*
Y2286360D03*
Y2336360D03*
Y2386360D03*
Y2436360D03*
Y2486360D03*
Y2536360D03*
Y2586360D03*
Y2636360D03*
Y2686360D03*
Y2736360D03*
Y2786360D03*
Y2836360D03*
Y2886360D03*
Y2936360D03*
Y2986360D03*
Y3036360D03*
Y3086360D03*
Y3136360D03*
Y3186360D03*
Y3236360D03*
Y3286360D03*
Y3336360D03*
Y3386360D03*
Y3436360D03*
Y3486360D03*
Y3536360D03*
Y3586360D03*
Y3636360D03*
Y3686360D03*
Y3736360D03*
Y3786360D03*
Y3836360D03*
Y3886360D03*
Y3936360D03*
Y3986360D03*
Y4036360D03*
Y4086360D03*
Y4136360D03*
Y4186360D03*
Y4236360D03*
Y4286360D03*
Y4336360D03*
Y4386360D03*
Y4436360D03*
Y4486360D03*
Y4536360D03*
X3394180D03*
Y4486360D03*
Y4436360D03*
Y4386360D03*
Y4336360D03*
Y4286360D03*
Y4236360D03*
Y4186360D03*
Y4136360D03*
Y4086360D03*
Y4036360D03*
Y3986360D03*
Y3936360D03*
Y3886360D03*
Y3836360D03*
Y3786360D03*
Y3736360D03*
Y3686360D03*
Y3636360D03*
Y3586360D03*
Y3536360D03*
Y3486360D03*
Y3436360D03*
Y3386360D03*
Y3336360D03*
Y3286360D03*
Y3236360D03*
Y3186360D03*
Y3136360D03*
Y3086360D03*
Y3036360D03*
Y2986360D03*
Y2936360D03*
Y2886360D03*
Y2836360D03*
Y2786360D03*
Y2736360D03*
Y2686360D03*
Y2636360D03*
Y2586360D03*
Y2536360D03*
Y2486360D03*
Y2436360D03*
Y2386360D03*
Y2336360D03*
Y2286360D03*
Y2236360D03*
Y2186360D03*
Y2136360D03*
Y2086360D03*
Y2036360D03*
Y1986360D03*
G54D22*
X2600000Y480000D03*
X7050000Y9125000D03*
X3218180Y7989100D03*
G54D23*
X7490460Y1125220D03*
Y1379220D03*
X7236460D03*
X7744460Y1125220D03*
Y1379220D03*
X9474200Y3116580D03*
X8784700Y2862580D03*
Y3116580D03*
X9038700D03*
Y2862580D03*
Y3370580D03*
X9903700Y1846580D03*
Y2862580D03*
Y3116580D03*
Y1338580D03*
Y1592580D03*
Y1084580D03*
Y2100580D03*
Y2354580D03*
Y2608580D03*
X6591680Y9174480D03*
X2790920Y9649460D03*
X3044920D03*
X3298920D03*
X2790920Y9903460D03*
X3044920D03*
X3552920Y9649460D03*
X3298920Y9903460D03*
X4060920Y9649460D03*
X3806920D03*
X4314920D03*
X4568920D03*
X4060920Y9903460D03*
X3552920D03*
X3806920D03*
X4314920D03*
X5069300Y9649460D03*
X5323300D03*
X5577300D03*
X5069300Y9903460D03*
X5323300D03*
X5831300Y9649460D03*
X5577300Y9903460D03*
X6339300Y9649460D03*
X6085300D03*
X6593300D03*
X6847300D03*
X6339300Y9903460D03*
X5831300D03*
X6085300D03*
X6593300D03*
X9903700Y6332220D03*
Y6840220D03*
Y6586220D03*
Y7602220D03*
Y7856220D03*
Y7094220D03*
Y7348220D03*
X9474200Y2100600D03*
Y2354600D03*
X1903920Y3335020D03*
Y2904070D03*
Y2473110D03*
X2659380Y2042160D03*
X2913380D03*
X1897380D03*
X2405380D03*
X2151380D03*
X4104640Y1125220D03*
X4358640D03*
X3850640Y1379220D03*
X4358640D03*
X4104640D03*
G54D24*
X7236460Y1125220D03*
X6337680Y9174480D03*
X4568920Y9903460D03*
X6847300D03*
X1649920Y3335020D03*
Y2904070D03*
Y2473110D03*
X1643380Y2042160D03*
X3850640Y1125220D03*
X9474200Y3370580D03*
X8784700D03*
X9903700D03*
Y6078220D03*
X9474200Y2608600D03*
G54D25*
X800000Y9198400D03*
G54D26*
X1280000Y9478400D03*
Y8898400D03*
G54D27*
X8622920Y1570080D03*
X8557500Y1520000D03*
X5462770Y4422720D03*
X4742730Y4140200D03*
X5395000Y4420000D03*
X5870000Y4182390D03*
X5882790Y4055200D03*
X8455410Y1510070D03*
X8755000Y1502500D03*
X8867930Y1500070D03*
X8912500Y1952500D03*
X8817930Y2065100D03*
X8752500Y2067350D03*
X8410410Y2077600D03*
X1742500Y1342500D03*
X1627500Y1232500D03*
X1555000Y1245000D03*
X1210060Y1250060D03*
X1670000Y842500D03*
X1360000Y717500D03*
X1751250Y568750D03*
X1355000Y440000D03*
X1112500Y740000D03*
X5044630Y7788910D03*
X8279770Y592500D03*
X1395000Y995000D03*
X7575000Y2167500D03*
X7720000Y2010000D03*
X7725000Y1670000D03*
X4240000Y3150000D03*
X6917500Y3280000D03*
X7612500Y1675000D03*
X7030000Y2087500D03*
X4890000Y1980000D03*
X5042750Y3145150D03*
X5092500Y3100000D03*
X4800230Y3112650D03*
X5452770Y3695180D03*
X7945000Y2155000D03*
X7052500Y1677500D03*
X7585000Y2807500D03*
X8784700Y3737800D03*
X3780000Y2532500D03*
X4590000Y3237500D03*
X3865000Y2515000D03*
X4592500Y3165000D03*
X3002650Y942550D03*
X2923830Y945000D03*
X5412500Y3595000D03*
X5392500Y3660000D03*
X4850000Y3442500D03*
X4702500Y3605000D03*
X5545270Y1942590D03*
X5267500Y2120000D03*
X4425000Y1655000D03*
X6957500Y2700000D03*
X6725920Y1208420D03*
X6911340Y1273660D03*
X5143690Y7788910D03*
X4945570Y7890510D03*
X5245290D03*
Y7989570D03*
X5143690Y7890510D03*
X5245290Y7788910D03*
X5344350D03*
X5143690Y7989570D03*
X5044630D03*
X4945570D03*
X5443410Y7588250D03*
X5344350D03*
X5545010D03*
X5744870D03*
X5344350Y7489190D03*
X8527920Y5330260D03*
X8462500Y5257500D03*
X9013740Y4598740D03*
X7845000Y4785000D03*
X9367500Y4730000D03*
X7647180Y4626510D03*
X7220220Y5809780D03*
X7642870Y5602770D03*
X3005000Y2327500D03*
X3117500Y2352500D03*
X9000000Y5780700D03*
X5255000Y5640000D03*
X6012500Y2342500D03*
X6050000Y2230000D03*
X8410000Y5820000D03*
X7487500Y6105000D03*
X7640000Y5892500D03*
X8322500Y5887500D03*
X8237500Y5990000D03*
X6082500Y2107500D03*
X8860000Y6007500D03*
X7430000Y6142500D03*
X8487910Y6047800D03*
X6490000Y2176970D03*
X6477500Y2097500D03*
X9040440Y5832790D03*
X9072500Y5732500D03*
X6237500Y5787500D03*
X6344990Y5787490D03*
X8457500Y5950000D03*
X7117500Y5885000D03*
X7670000Y4950000D03*
X5744020Y5888480D03*
X7615000Y4080000D03*
X9087940Y4152700D03*
X9060000Y4920000D03*
X4800000Y4850000D03*
X4749990Y4899990D03*
X4790000Y4970000D03*
X4700000Y4850000D03*
X7829040Y5029040D03*
X9020000Y5030000D03*
X4844000Y6988810D03*
X4744900D03*
X4643310D03*
X5544140Y6989680D03*
X5745340Y6989280D03*
Y6788480D03*
X5544540Y6688480D03*
X5845340Y6989280D03*
X5745340Y6688480D03*
X5845340Y6788480D03*
X5443410Y6988810D03*
X5545010Y7090410D03*
X5443410Y6788950D03*
X5744870Y7090410D03*
X5845340Y6688480D03*
X5443410Y6688950D03*
X5844870Y7090410D03*
X5443410D03*
X5344350Y6988810D03*
X5545010Y7189470D03*
X5544540Y6588480D03*
X5945340Y6989280D03*
X5344350Y6788950D03*
X5744870Y7189470D03*
X5745340Y6588480D03*
X5945340Y6788480D03*
X5344350Y6688950D03*
X5844870Y7189470D03*
X5845340Y6588480D03*
X5945340Y6688480D03*
X5344350Y7090410D03*
X5443410Y7189470D03*
Y6588950D03*
X5944870Y7090410D03*
X5245290Y6988810D03*
X5545010Y7288530D03*
X5245290Y6788950D03*
X5744870Y7288530D03*
X5544540Y6488480D03*
X6045340Y6989280D03*
X5745340Y6488480D03*
X6045340Y6788480D03*
X5344350Y7189470D03*
Y6588950D03*
X5944870Y7189470D03*
X5945340Y6588480D03*
X5245290Y6688950D03*
X5844870Y7288530D03*
X5245290Y7090410D03*
X5443410Y7288530D03*
X5845340Y6488480D03*
X6045340Y6688480D03*
X5443410Y6488950D03*
X6044870Y7090410D03*
X5245290Y7189470D03*
X5344350Y7288530D03*
X5245290Y6588950D03*
X5944870Y7288530D03*
X5344350Y6488950D03*
X6044870Y7189470D03*
X5945340Y6488480D03*
X6045340Y6588480D03*
X5544540Y6388480D03*
X6145340Y6989280D03*
X5745340Y6388480D03*
X6145340Y6788480D03*
X5143690Y6988810D03*
X5545010Y7390130D03*
X5143690Y6788950D03*
X5744870Y7390130D03*
X5845340Y6388480D03*
X6145340Y6688480D03*
X5443410Y6388950D03*
X6144870Y7090410D03*
X5143690Y6688950D03*
X5844870Y7390130D03*
X5143690Y7090410D03*
X5443410Y7390130D03*
X5245290Y7288530D03*
Y6488950D03*
X6044870Y7288530D03*
X6045340Y6488480D03*
X5344350Y6388950D03*
X6144870Y7189470D03*
X5945340Y6388480D03*
X6145340Y6588480D03*
X5344350Y7390130D03*
X5143690Y6588950D03*
X5944870Y7390130D03*
X5044630Y6988810D03*
X5545010Y7489190D03*
X5044630Y6788950D03*
X5744870Y7489190D03*
X5544540Y6288480D03*
X6245340Y6989280D03*
X5745340Y6288480D03*
X6245340Y6788480D03*
X5245290Y6388950D03*
X6144870Y7288530D03*
X5044630Y6688950D03*
X5844870Y7489190D03*
X5044630Y7090410D03*
X5443410Y7489190D03*
X5143690Y7288530D03*
X5245290Y7390130D03*
X5845340Y6288480D03*
X6245340Y6688480D03*
X6045340Y6388480D03*
X6145340Y6488480D03*
X5443410Y6288950D03*
X6244870Y7090410D03*
X5143690Y6488950D03*
X6044870Y7390130D03*
X5044630Y7189470D03*
Y6588950D03*
X5944870Y7489190D03*
X5344350Y6288950D03*
X6244870Y7189470D03*
X5945340Y6288480D03*
X6245340Y6588480D03*
X6145340Y6388480D03*
X5143690Y6388950D03*
X6144870Y7390130D03*
X5143690D03*
X4945570Y6988810D03*
Y6788950D03*
X5044630Y7288530D03*
X5245290Y6288950D03*
X6244870Y7288530D03*
X5044630Y6488950D03*
X6044870Y7489190D03*
X5544540Y6188480D03*
X6345340Y6989280D03*
X5745340Y6188480D03*
X6345340Y6788480D03*
X6045340Y6288480D03*
X6245340Y6488480D03*
X4945570Y6688950D03*
X5844870Y7588250D03*
X4945570Y7090410D03*
X5845340Y6188480D03*
X6345340Y6688480D03*
X5443410Y6188950D03*
X6344870Y7090410D03*
X4945570Y7189470D03*
Y6588950D03*
X5944870Y7588250D03*
X5344350Y6188950D03*
X6344870Y7189470D03*
X5945340Y6188480D03*
X6345340Y6588480D03*
X5044630Y6388950D03*
X6144870Y7489190D03*
X6145340Y6288480D03*
X6245340Y6388480D03*
X5044630Y7390130D03*
X5143690Y7489190D03*
Y6288950D03*
X6244870Y7390130D03*
X4945570Y7288530D03*
X5245290Y7588250D03*
X4945570Y6488950D03*
X6044870Y7588250D03*
X5245290Y6188950D03*
X6344870Y7288530D03*
X6045340Y6188480D03*
X6345340Y6488480D03*
X5544540Y6088480D03*
X6445340Y6989280D03*
X5745340Y6088480D03*
X6445340Y6788480D03*
X5545010Y7689850D03*
X4843970Y6788950D03*
X5744870Y7689850D03*
X5845340Y6088480D03*
X6445340Y6688480D03*
X6444870Y7090410D03*
X4843970Y6688950D03*
X5844870Y7689850D03*
X4843970Y7090410D03*
X5443410Y7689850D03*
X5044630Y7489190D03*
Y6288950D03*
X6244870Y7489190D03*
X6245340Y6288480D03*
X4945570Y6388950D03*
X6144870Y7588250D03*
X4945570Y7390130D03*
X5143690Y7588250D03*
X6444870Y7189470D03*
X5945340Y6088480D03*
X6445340Y6588480D03*
X6145340Y6188480D03*
X6345340Y6388480D03*
X4843970Y7189470D03*
X5344350Y7689850D03*
X4843970Y6588950D03*
X5944870Y7689850D03*
X5143690Y6188950D03*
X6344870Y7390130D03*
X5245290Y6088950D03*
X6444870Y7288530D03*
X4843970D03*
X6045340Y6088480D03*
X6445340Y6488480D03*
X4843970Y6488950D03*
X6044870Y7689850D03*
X4945570Y7489190D03*
X5044630Y7588250D03*
X4945570Y6288950D03*
X6244870Y7588250D03*
X5545010Y7788910D03*
X5744870D03*
X6545340Y6989280D03*
X5745340Y5988480D03*
X6545340Y6788480D03*
X5044630Y6188950D03*
X6344870Y7489190D03*
X6245340Y6188480D03*
X6345340Y6288480D03*
X4744910Y6688950D03*
X5844870Y7788910D03*
X4744910Y7090410D03*
X5443410Y7788910D03*
X5845340Y5988480D03*
X6545340Y6688480D03*
X6544870Y7090410D03*
X6145340Y6088480D03*
X6445340Y6388480D03*
X4843970Y6388950D03*
X6144870Y7689850D03*
X5143690Y6088950D03*
X6444870Y7390130D03*
X4843970D03*
X4744910Y7189470D03*
Y6588950D03*
X5944870Y7788910D03*
X5344350Y5988950D03*
X6544870Y7189470D03*
X5945340Y5988480D03*
X6545340Y6588480D03*
X4945570Y7588250D03*
X4744910Y7288530D03*
X4945570Y6188950D03*
X6344870Y7588250D03*
X4744910Y6488950D03*
X6044870Y7788910D03*
X5245290Y5988950D03*
X6544870Y7288530D03*
X6045340Y5988480D03*
X6545340Y6488480D03*
X6345340Y6188480D03*
X5044630Y6088950D03*
X6444870Y7489190D03*
X6245340Y6088480D03*
X6445340Y6288480D03*
X4843970Y7489190D03*
X5044630Y7689850D03*
X4843970Y6288950D03*
X6244870Y7689850D03*
X5544540Y5888480D03*
X6645340Y6989280D03*
Y6788480D03*
X5545010Y7890510D03*
X4643310Y6788950D03*
X5744870Y7890510D03*
X4744910Y6388950D03*
X6144870Y7788910D03*
X4744910Y7390130D03*
X5845340Y5888480D03*
X6645340Y6688480D03*
X5443410Y5888950D03*
X6644870Y7090410D03*
X6145340Y5988480D03*
X6545340Y6388480D03*
X5143690Y5988950D03*
X6544870Y7390130D03*
X4643310Y6688950D03*
X5844870Y7890510D03*
X4643310Y7090410D03*
X5443410Y7890510D03*
X5344350Y5888950D03*
X6644870Y7189470D03*
X5945340Y5888480D03*
X6645340Y6588480D03*
X4643310Y7189470D03*
X5344350Y7890510D03*
X4643310Y6588950D03*
X5944870Y7890510D03*
X4945570Y6088950D03*
X6444870Y7588250D03*
X4843970D03*
X4945570Y7689850D03*
X6345340Y6088480D03*
X6445340Y6188480D03*
X4843970Y6188950D03*
X6344870Y7689850D03*
X4744910Y7489190D03*
Y6288950D03*
X6244870Y7788910D03*
X5245290Y5888950D03*
X6644870Y7288530D03*
X5044630Y5988950D03*
X6544870Y7489190D03*
X6045340Y5888480D03*
X6645340Y6488480D03*
X6245340Y5988480D03*
X6545340Y6288480D03*
X4643310Y7288530D03*
Y6488950D03*
X6044870Y7890510D03*
X5544540Y5788480D03*
X4544250Y6988810D03*
X6745340Y6989280D03*
X5745340Y5788480D03*
X4544250Y6788950D03*
X5744870Y7989570D03*
X6145340Y5888480D03*
X6645340Y6388480D03*
X6644870Y7390130D03*
X4643310Y6388950D03*
X6144870Y7890510D03*
X4643310Y7390130D03*
X5845340Y5788480D03*
X6745340Y6688480D03*
X5844870Y7989570D03*
X5443410Y5788950D03*
X4544250Y7090410D03*
X6744870D03*
X6445340Y6088480D03*
X4843970Y6088950D03*
X6444870Y7689850D03*
X4843970D03*
X4744910Y7588250D03*
X4945570Y7788910D03*
Y5988950D03*
X6544870Y7588250D03*
X4744910Y6188950D03*
X6344870Y7788910D03*
X6345340Y5988480D03*
X6545340Y6188480D03*
X5344350Y5788950D03*
X4544250Y7189470D03*
X6744870D03*
X5945340Y5788480D03*
X4544250Y6588950D03*
X6745340Y6588480D03*
X5944870Y7989570D03*
X5044630Y5888950D03*
X6644870Y7489190D03*
X6245340Y5888480D03*
X6645340Y6288480D03*
X4643310Y7489190D03*
X5044630Y7890510D03*
X4643310Y6288950D03*
X6244870Y7890510D03*
X5245290Y5788950D03*
X4544250Y7288530D03*
X6744870D03*
X6045340Y5788480D03*
X4544250Y6488950D03*
X6044870Y7989570D03*
X4744910Y6088950D03*
X6444870Y7788910D03*
X4744910Y7689850D03*
X4843970Y7788910D03*
X6445340Y5988480D03*
X6545340Y6088480D03*
X4843970Y5988950D03*
X6544870Y7689850D03*
X6145340Y5788480D03*
X4544250Y6388950D03*
X6745340Y6388480D03*
X6144870Y7989570D03*
X5143690Y5788950D03*
X4544250Y7390130D03*
X6744870D03*
X4945570Y5888950D03*
X6644870Y7588250D03*
X6645340Y6188480D03*
X4643310Y7588250D03*
Y6188950D03*
X6344870Y7890510D03*
X5044630Y5788950D03*
X4544250Y7489190D03*
X6744870D03*
X4544250Y6288950D03*
X6745340Y6288480D03*
X6244870Y7989570D03*
X4744910Y7788910D03*
Y5988950D03*
X6544870Y7788910D03*
X6545340Y5988480D03*
X6445340Y5888480D03*
X6645340Y6088480D03*
X4843970Y5888950D03*
X6644870Y7689850D03*
X4643310Y6088950D03*
X6444870Y7890510D03*
X4643310Y7689850D03*
X4843970Y7890510D03*
X4945570Y5788950D03*
X4544250Y7588250D03*
X6744870D03*
X4544250Y6188950D03*
X6745340Y6188480D03*
X6344870Y7989570D03*
X4744910Y5888950D03*
X6644870Y7788910D03*
X6545340Y5888480D03*
X6645340Y5988480D03*
X4643310Y7788910D03*
X4744910Y7890510D03*
X4643310Y5988950D03*
X6544870Y7890510D03*
X6445340Y5788480D03*
X4544250Y6088950D03*
X6745340Y6088480D03*
X6444870Y7989570D03*
X4544250Y7689850D03*
X6744870D03*
X4843970Y7989570D03*
X6645340Y5888480D03*
X4643310Y5888950D03*
X6644870Y7890510D03*
X4544250Y7788910D03*
X6744870D03*
X4744910Y7989570D03*
X6545340Y5788480D03*
X4544250Y5988950D03*
X6745340Y5988480D03*
X6544870Y7989570D03*
X6645340Y5788480D03*
X4544250Y5888950D03*
X6745340Y5888480D03*
X6644870Y7989570D03*
X4643310Y5788950D03*
X4544250Y7890510D03*
X6744870D03*
X4643310Y7989570D03*
X4544250Y5788950D03*
X6745340Y5788480D03*
X6744870Y7989570D03*
X5542470Y6788950D03*
X4643120Y7890980D03*
X5641340Y7995920D03*
X5544820D03*
X5445760D03*
X9460000Y6050000D03*
Y5937720D03*
X9410000Y6200000D03*
X9330000Y5780000D03*
X9460000Y5840000D03*
X9470000Y5640000D03*
X9460000Y5540000D03*
Y5340000D03*
Y5240000D03*
Y4640000D03*
X9467680Y4542320D03*
X9479560Y4149560D03*
X9469560Y4049560D03*
X9469200Y3910800D03*
X9350000Y3810000D03*
X7900000Y6040000D03*
X7750540Y5889460D03*
X7740540Y5789460D03*
X7742440Y5602440D03*
X7737560Y5502440D03*
X7355680Y6145680D03*
X7220220Y5909780D03*
X7230000Y6050000D03*
X7220000Y5620000D03*
X7212880Y5312880D03*
Y5212880D03*
X6093460Y5086540D03*
X5658880Y5151120D03*
X5014760Y5005240D03*
X5114760D03*
X3971760Y5008240D03*
X3123580Y4493580D03*
X3133580Y4563580D03*
X3132180Y4097820D03*
X2972180D03*
X2982180Y4197820D03*
X2955000Y3855000D03*
X2941760Y3671760D03*
X2720780Y3300780D03*
X2755000Y3205000D03*
X3122300Y3237700D03*
X3112300Y3137700D03*
X3800000Y1940000D03*
X3270000Y3930000D03*
X3870000Y1930000D03*
X3920000Y2140000D03*
X3780000Y2160000D03*
X4140000Y1930000D03*
X4047020Y2072980D03*
X5418620Y1528620D03*
X5518620Y1531380D03*
X6084100Y1534100D03*
X6240000Y1595120D03*
X6752900Y2197100D03*
X6858400Y2368400D03*
X6779260Y2300740D03*
X6615660Y2924340D03*
Y3024340D03*
X6603840Y3516160D03*
X6606160Y3616160D03*
X6628540Y4111460D03*
Y4011460D03*
X6808000Y8782000D03*
X6670040Y8909960D03*
X6504280Y8844280D03*
X6540000Y8280000D03*
X8792360Y6032640D03*
X8941600Y5916600D03*
Y5816600D03*
X8945420Y5504580D03*
Y5604580D03*
X8842360Y5332640D03*
X8948740Y4498740D03*
Y4598740D03*
X8939800Y4064800D03*
X8843920Y3931080D03*
X9000000Y5130000D03*
X9050000Y5190000D03*
X5143690Y5888950D03*
X7670000Y5180000D03*
X7610000Y5230000D03*
X6345340Y5888480D03*
X7760000Y5050000D03*
X8930000Y4950000D03*
X9079980Y4989990D03*
X8980000Y4770000D03*
X9430000Y5030000D03*
X3560000Y2040000D03*
Y2110000D03*
X3810000Y3140000D03*
X3680000Y2130000D03*
X3960000Y2950000D03*
X3930000Y2850000D03*
X3850000Y2890000D03*
X3540000Y2730000D03*
X3550000Y2290000D03*
X3270000Y1980000D03*
X4570000Y4590000D03*
X4843970Y5788950D03*
X4744910D03*
X5443410Y6088950D03*
X5544540Y5988480D03*
X5443410Y5988950D03*
X5344350Y6088950D03*
X6182500Y3997500D03*
X9042500Y3977500D03*
X6567500Y3920000D03*
X7215000Y5537500D03*
X5797500Y4902500D03*
X6167500Y4895000D03*
X5800000Y5082500D03*
X9062500Y4087500D03*
X7290000Y4900000D03*
X8492500Y4912500D03*
X9042500Y4300000D03*
X3871760Y5008240D03*
X7640000Y4190000D03*
X6462500Y3280000D03*
X5037750Y4587720D03*
X4292500Y4560000D03*
X8145000Y5337500D03*
X8265400Y5285260D03*
X8182500Y4907500D03*
X5215000Y4890000D03*
X7210760Y4039240D03*
X7200760Y4139240D03*
X7282500Y3970000D03*
X8395000Y4432500D03*
X8185000Y4722500D03*
X5302500Y4420000D03*
X5297500Y4540000D03*
X5230000Y4490000D03*
X5187500Y4595000D03*
X7625380Y5086460D03*
X8171140Y4365700D03*
X9052500Y4372500D03*
X8960000Y4290000D03*
X8905440Y4347500D03*
X8780000Y4332400D03*
X9067500Y4230000D03*
X9002500Y4192500D03*
X4390000Y6287500D03*
X7695380Y4310210D03*
X7745380Y4485220D03*
Y4585220D03*
X7625000Y4485000D03*
X8240000Y4160000D03*
X8500000Y4145000D03*
X8937940Y4162700D03*
X9057500Y5445000D03*
X7625000Y5742500D03*
X8217500Y5610000D03*
X8475000Y5772500D03*
X8475410Y5675280D03*
X8407500Y5655000D03*
X3190000Y1810000D03*
X3232500Y1690000D03*
X7890000Y5580000D03*
X7687500Y5552500D03*
X7620000Y5457500D03*
X8790000Y5542500D03*
X7722880Y5390260D03*
X7810380Y5407760D03*
X7887500Y5365000D03*
X8447500Y5507500D03*
X9010000Y5345000D03*
X8932500D03*
X5390000Y2610000D03*
X5372500Y2355000D03*
X5720000Y3007500D03*
X6735330Y5465270D03*
X6687500Y5337500D03*
X6657500Y5467500D03*
X6702500Y4475000D03*
X6690000Y5002500D03*
X6612820Y4965240D03*
X5770000Y3195000D03*
X6165300Y5325260D03*
X6495000Y2022500D03*
X7742500Y4840000D03*
X6970000Y3882500D03*
X6672500Y3905000D03*
X7204220Y4604220D03*
X7215780Y4504220D03*
X7211740Y3818260D03*
X4975000Y2237500D03*
X8805430Y4817730D03*
X8485000Y4347500D03*
X8337500Y4065000D03*
X7710000Y4007500D03*
X7881080Y3931080D03*
X8175000Y4010000D03*
X6487500Y2780000D03*
X7890380Y4667730D03*
X8282500Y4770000D03*
X6722500Y3965000D03*
X5335000Y2180000D03*
X5137750Y2130100D03*
X9050000Y3890000D03*
X6045000Y3295000D03*
X6197500Y3182830D03*
X7295000Y4735000D03*
X7345000Y4687500D03*
X7632500Y4387500D03*
X5370000Y2540000D03*
X7690000Y4795000D03*
X7622830Y4817500D03*
X8850430Y5095250D03*
X8255400D03*
X7860380D03*
X9077500Y4677500D03*
X9057500Y4852500D03*
X9388540Y4881040D03*
X8915000Y5235000D03*
X4462500Y4577500D03*
X7195000Y4342500D03*
X6200000Y4160000D03*
X6952500Y4347500D03*
X7830000Y3732500D03*
X5220000Y2355000D03*
X5435000Y2480000D03*
X3897500Y3617500D03*
X3812500Y3765000D03*
X3280000Y3020000D03*
X8822500Y4987500D03*
X8317500Y4405000D03*
X7022840Y4225210D03*
X8459940Y1112560D03*
X8130000Y1115000D03*
X8613140Y1016860D03*
X8952500Y942500D03*
X8810000Y1030000D03*
X8960000Y1027500D03*
X9129180Y1363320D03*
X9316340Y1981340D03*
X9225000Y2150000D03*
X9321800Y1271800D03*
X9396800Y1178200D03*
X9196800Y2503200D03*
X9103200Y2403200D03*
X8803200Y2496800D03*
X8903200Y2403200D03*
X8300600Y2384400D03*
X8363540Y2303960D03*
X7972500Y1961960D03*
X7965540Y1861960D03*
X8354640Y1810360D03*
X7957800Y1659700D03*
X7960000Y1559700D03*
X8105000Y1490000D03*
X8817500Y1510000D03*
X7422500Y1670000D03*
X3000000Y567500D03*
X3200000Y562500D03*
X1287500Y2737500D03*
X1285000Y3175000D03*
X1300000Y2305000D03*
X1262500Y2117500D03*
X2660000Y2455000D03*
X5181600Y1255900D03*
X3600000Y1582500D03*
X1637500Y925000D03*
Y1005000D03*
X4100000Y192500D03*
X4302500Y195000D03*
X4500000D03*
X4835000Y332500D03*
X2400000Y215000D03*
X2600000D03*
X2797500D03*
X3000000D03*
X8097500D03*
X7895000D03*
X7697500D03*
X7382500Y332500D03*
X1988920Y368920D03*
X2075000Y769760D03*
X2150000Y922500D03*
X2062500Y1122820D03*
X2232500Y1137500D03*
X1698860Y1138860D03*
X2068640Y1233640D03*
X657160Y1407160D03*
X777340Y1317660D03*
X762100Y620400D03*
X856400Y688600D03*
X826560Y268440D03*
X1171560D03*
X1250000Y280000D03*
X1357500Y285000D03*
X5372500Y1197500D03*
X1906920Y1491920D03*
X2735120Y1742620D03*
X1722500Y450000D03*
X1717000Y300000D03*
X1494080Y359080D03*
X1271720Y1578280D03*
X1800960Y1505960D03*
X2645000Y1640000D03*
X2063860Y1333640D03*
X8069580Y8072500D03*
X9220780Y8463280D03*
X9525000Y9825000D03*
X7350000Y9525000D03*
Y9000000D03*
Y8800000D03*
Y8275000D03*
X7750000Y7875000D03*
X8225000D03*
X8500000D03*
X9000000D03*
X9400000Y8275000D03*
X9395460Y9264760D03*
X9000000Y9925000D03*
X8500000D03*
X8250000D03*
X7750000D03*
X7650000Y9625000D03*
X8000000D03*
X8325000D03*
X7650000Y9350000D03*
X8000000D03*
X8325000D03*
X7650000Y9075000D03*
X8000000D03*
X7650000Y8150000D03*
X8700000Y8325000D03*
X9200000Y8125000D03*
X9225000Y9625000D03*
X9400000Y9525000D03*
Y9000000D03*
Y8800000D03*
X8700000Y9625000D03*
X7050000Y9125000D03*
Y8800000D03*
X7025000Y9250000D03*
Y9825000D03*
X7075000Y9633880D03*
X7150000Y8525000D03*
Y8400000D03*
X2425000Y8075000D03*
X2470000Y8470000D03*
X2720000D03*
X2750000Y7810000D03*
X2683120Y7183120D03*
X2819400Y7143100D03*
X2605000Y7490000D03*
X3537500Y8162500D03*
X3016940Y7634440D03*
X3158060D03*
X3020000Y7730000D03*
X3712500Y7175000D03*
X3160000Y7310000D03*
X2075000Y6257500D03*
X2322500Y6362500D03*
X2361780Y6508220D03*
X1867500Y6362500D03*
X2045000Y6490000D03*
X3030000Y7307500D03*
X2343660Y6206930D03*
X1209000Y5016500D03*
X1483360Y4840860D03*
X1361060Y4336060D03*
X1447500Y4062500D03*
X1621780Y4123220D03*
X1342500Y4045000D03*
X942500Y4542500D03*
X2980220Y6372500D03*
X3257500Y7810000D03*
X3235000Y7737500D03*
X5197090Y8178570D03*
X5346700Y7992580D03*
X5245100Y7488720D03*
X5146040Y7189000D03*
X4745520Y6789420D03*
X4544860Y6687820D03*
X6887500Y6490000D03*
X3975000Y320000D03*
X517500Y952500D03*
X4212500Y205000D03*
X547500Y1187500D03*
X2215000Y4885000D03*
X2168000Y4154500D03*
X2012500Y4040000D03*
X3807500Y5097500D03*
X4012500Y5167500D03*
X3805000Y4912300D03*
X3182300D03*
X3182500Y5245000D03*
X2683860Y5221140D03*
X2694020Y4973480D03*
X4202500Y2882500D03*
X5000000Y2947500D03*
X3297500Y2232500D03*
X3775000Y2337500D03*
X5327500Y4097500D03*
X2458500Y4281500D03*
X7672500Y2907500D03*
X7667500Y3197500D03*
X7092500Y3362500D03*
X9805200Y3710200D03*
X9305220Y6840220D03*
Y6582720D03*
X9312720Y6332720D03*
X7940000Y870000D03*
X9423940Y7211060D03*
X9132500Y7400000D03*
X8370410Y7105350D03*
X7045000Y9912500D03*
X7605000Y8327500D03*
X7177500Y6535000D03*
X7140980Y6680980D03*
X7205000Y6757500D03*
X6967500Y6888900D03*
X4455220Y6037790D03*
X3697500Y6122500D03*
X5147500Y7687500D03*
X5245000D03*
X5645000Y6692500D03*
X8845000Y6437500D03*
X4460240Y7635240D03*
X3415000Y6765000D03*
X6830000Y6777500D03*
X6847500Y6897500D03*
X5245000Y1637500D03*
X6502500Y3765660D03*
X6185000Y3637500D03*
X5295000Y1967500D03*
X1802500Y1765000D03*
X2680130Y4155200D03*
X3185000Y4397500D03*
X3217500Y4267500D03*
X2695000Y4280000D03*
X2682500Y4422500D03*
X3200000Y3700000D03*
X6012500Y1950000D03*
X6145000Y2460000D03*
X6200300Y2157600D03*
X1505000Y1490000D03*
X3805000Y4140000D03*
X2457500Y3870000D03*
X3810000Y4055000D03*
X2527500Y3797500D03*
X3955000Y480000D03*
X3007500Y867500D03*
X3200000D03*
X7167500Y3927500D03*
X6617500Y3820000D03*
X6927500Y4842500D03*
X3175000Y5162500D03*
X3592500Y5910000D03*
X5025000Y2090000D03*
X3957500Y4290000D03*
X5015250Y4100200D03*
X5097500Y4100000D03*
X3902500Y4340000D03*
X3812690Y4385210D03*
X4790230Y4387710D03*
X3172650Y3875190D03*
X3275000Y5865000D03*
X3407500Y5060000D03*
X3247660Y4895240D03*
X3290000Y4727500D03*
X2690000Y4867500D03*
X3940000Y4542500D03*
X5065000Y4040000D03*
X6190000Y4230000D03*
X4907500Y4287500D03*
X7795000Y840000D03*
X8352500Y6267500D03*
X8435000Y6912500D03*
X8817500Y6657500D03*
X9903700Y5608700D03*
X7322500Y3332500D03*
X7547500Y2705000D03*
X7772500Y3962500D03*
X7472500Y3392500D03*
X7077500Y2722500D03*
X6922500Y6342500D03*
X6937500Y6132500D03*
X4597500Y1412500D03*
X4190000Y807500D03*
X4735230Y972550D03*
X4692500Y870000D03*
X4580000Y1010000D03*
X4472720Y872540D03*
X4345000Y875000D03*
X4462500Y992500D03*
X5935000Y4162500D03*
X5687500Y4270000D03*
X5440260Y4062700D03*
X5597500Y4420000D03*
X5610000Y4490000D03*
X5375270Y4049730D03*
X2577500Y2957500D03*
X2580000Y3130000D03*
X3150000Y3050000D03*
X3260000Y2910000D03*
X2770000Y3067500D03*
X4455000Y2422500D03*
X2647500Y2652500D03*
X3952500Y3947500D03*
X4257500Y4017500D03*
X3922500Y4020000D03*
X3798200Y4262130D03*
X3965000Y4222500D03*
X5817500Y4332500D03*
X5555000Y4037500D03*
X4592500Y3347500D03*
X6631360Y4484300D03*
X2210000Y2675000D03*
X7827500Y400000D03*
X1682500Y3752500D03*
X8220000Y315000D03*
X4250000Y3915000D03*
X3600000Y4010000D03*
X4600000Y4187500D03*
X4805000Y3017500D03*
X5022500Y2667500D03*
X4202500Y4190000D03*
X3827500Y3422500D03*
X4185000Y4065000D03*
X6172500Y4487500D03*
X3927500Y3392500D03*
X4215000Y3842500D03*
X4202500Y3742500D03*
X6185000Y3725000D03*
X6480000Y4435000D03*
X6455310Y4202500D03*
X6145000Y3430000D03*
X6197500Y3560000D03*
X6535000Y3352500D03*
X9060000Y1452500D03*
X7353860Y2382500D03*
X7560000Y3362500D03*
X7690000Y3742500D03*
X7395000Y3717500D03*
X7599680Y2417500D03*
X8012500Y2975000D03*
X8234680Y3200320D03*
X6967500Y3377500D03*
X6826480Y3081020D03*
X7110000Y3197500D03*
X7162500Y2975000D03*
X7305000Y2980000D03*
X7142500Y3707500D03*
X5730000Y2140000D03*
X5682500Y2192500D03*
X5605000Y2215000D03*
X5190000Y2085000D03*
X7797500Y755000D03*
X8622500Y2007500D03*
X6942500Y2802500D03*
X6487500Y2636520D03*
X6450000Y2582500D03*
X8540000Y1977500D03*
X8460000Y2005000D03*
X9310840Y1743340D03*
X9380000Y1512500D03*
X6192500Y2360000D03*
X5797500Y2935000D03*
X5777780Y2855140D03*
X5890000Y2605000D03*
X5947500Y2672500D03*
X5827500Y2812940D03*
X2687630Y802540D03*
X4947500Y3265000D03*
X5370000Y3727500D03*
X5277500Y3730000D03*
X5192500D03*
X5105000Y3727500D03*
X5550000Y3695000D03*
X5600000Y3642500D03*
X2400000Y920000D03*
X3027650Y1947600D03*
X1049820Y5270000D03*
X1369840Y4455160D03*
X8640000Y6432500D03*
X5982500Y2735000D03*
X4810000Y1965000D03*
X6917500Y1757500D03*
X6725000Y4160000D03*
X7022500Y8875000D03*
X7014480Y8941980D03*
X7012500Y9007500D03*
X2959500Y4535500D03*
X6580000Y2127500D03*
X7022500Y8235000D03*
X1590080Y4042700D03*
X6755000Y3567500D03*
X7750380Y4062700D03*
X7757260Y4172740D03*
X7885000Y4375000D03*
X3787500Y1657500D03*
X4237500Y4502500D03*
X1085000Y3587500D03*
X7729080Y8609080D03*
G54D28*
X4612500Y8595000D03*
X4375000Y8752500D03*
X4095000Y8750000D03*
X4512500Y8670010D03*
X4717500Y8735000D03*
X4870000Y8732500D03*
X5522500Y3017500D03*
X6207500Y5507500D03*
X5780280Y5510270D03*
X725000Y8200000D03*
X825000D03*
X925000D03*
X1025000D03*
X1125000D03*
X1225000D03*
X1325000D03*
X1425000D03*
X1525000D03*
X1625000D03*
X1725000D03*
X1825000D03*
Y8075000D03*
X1725000D03*
X1625000D03*
X1525000D03*
X1425000D03*
X1325000D03*
X1225000D03*
X1125000D03*
X1025000D03*
X925000D03*
X825000D03*
X725000D03*
X1825000Y7950000D03*
X1725000D03*
X1625000D03*
X1525000D03*
X1425000D03*
X1325000D03*
X1225000D03*
X1125000D03*
X1025000D03*
X925000D03*
X825000D03*
X725000D03*
X1825000Y7825000D03*
X1725000D03*
X1625000D03*
X1525000D03*
X1425000D03*
X1325000D03*
X1225000D03*
X1125000D03*
X1025000D03*
X925000D03*
X825000D03*
X725000D03*
X1825000Y7700000D03*
X1725000D03*
X1625000D03*
X1525000D03*
X1425000D03*
X1325000D03*
X1225000D03*
X1125000D03*
X1025000D03*
X925000D03*
X825000D03*
X725000D03*
X1825000Y7575000D03*
X1725000D03*
X1625000D03*
X1525000D03*
X1425000D03*
X1325000D03*
X1225000D03*
X1125000D03*
X1025000D03*
X925000D03*
X825000D03*
X725000D03*
X1825000Y7450000D03*
X1725000D03*
X1625000D03*
X1525000D03*
X1425000D03*
X1325000D03*
X1225000D03*
X1125000D03*
X1025000D03*
X925000D03*
X825000D03*
X725000D03*
X4725000Y8162500D03*
X4865000D03*
X4607500Y8315000D03*
X4400000Y7372500D03*
X4182500Y6960000D03*
X4035000Y6810000D03*
X4280000D03*
X4150000Y6407500D03*
X3902500Y6207500D03*
X4147500Y6202500D03*
X4360000Y5892500D03*
X4467500Y5660000D03*
X4105000Y5445000D03*
X5130000Y5380000D03*
X5330000Y5372500D03*
X5775000Y5272500D03*
X5570000Y5270000D03*
X5577500Y5507500D03*
X6795000Y5165000D03*
X6975000D03*
X6855000Y5717500D03*
X6660000Y5610000D03*
X6122500Y5612500D03*
X7050000Y6467500D03*
X7275000Y6430000D03*
X7632500D03*
X7382500Y6305000D03*
X7532500D03*
X7525000Y6855000D03*
X7387500D03*
X7627500Y6737500D03*
X6942500Y6767500D03*
X7790000Y6882500D03*
X7890000Y6660000D03*
X8050000Y6657500D03*
X8035000Y6990000D03*
X7037500Y6997500D03*
Y7195000D03*
X7275000Y7202500D03*
X8040000Y7305000D03*
X7897500Y7302500D03*
X7792500Y7470000D03*
X8145000Y7462500D03*
X7035000Y7382500D03*
X7482500Y7452500D03*
X7127500Y7722500D03*
X7487500Y7680000D03*
X6927500Y8092500D03*
X7037500Y7882500D03*
X6812500Y8145000D03*
X6417500Y8147500D03*
X6287500Y8267500D03*
X6090000Y8265000D03*
X5930000Y8145000D03*
X5535000Y8152500D03*
X5927500Y8402500D03*
X5532500Y8400000D03*
X6220000Y8685000D03*
X6100000Y8557500D03*
X6495000Y8692500D03*
X5110000Y8412500D03*
Y8682500D03*
X5402500Y8575000D03*
Y8305000D03*
X4972500Y8607500D03*
X5230000Y8920000D03*
X5092500Y8917500D03*
Y9280000D03*
X5230000Y9277500D03*
X4992500Y9172500D03*
X4995000Y9027500D03*
X5747500Y9282500D03*
X5880000D03*
X5982500Y9177500D03*
X5985000Y9020000D03*
X5742500Y8917500D03*
X5885000Y8915000D03*
X6402500Y8432500D03*
X3952500Y8645000D03*
X4380000Y8097500D03*
X4207500D03*
X4382500Y7817500D03*
X4220000D03*
X4160000Y7582500D03*
X4245000Y7267500D03*
X4287500Y6610000D03*
X4035000Y6637500D03*
X3877500Y7660000D03*
X3990000D03*
X4037500Y7920000D03*
X3877500Y7282500D03*
X3982500Y7280000D03*
X3875000Y7542500D03*
X3987500Y7537500D03*
X4602500Y8165000D03*
X2427500Y9985000D03*
Y9835000D03*
Y9485000D03*
Y9335000D03*
Y8985000D03*
Y8825000D03*
X515000Y5372500D03*
X510000Y5490000D03*
X640000Y5670000D03*
X770000D03*
X780000Y5890000D03*
X650000D03*
X510000Y6160000D03*
Y6030000D03*
X1210000Y6790000D03*
Y6650000D03*
X1380000Y6960000D03*
X3290000Y5400000D03*
X3650000Y5420000D03*
X2480000Y5140000D03*
Y4990000D03*
Y4700000D03*
Y4550000D03*
X560000Y4210000D03*
X720000D03*
X415000Y4015000D03*
X410000Y4210000D03*
X962500Y3457500D03*
X1057500Y3360000D03*
X1062500Y3252500D03*
X965000Y3172500D03*
X2972500Y2870000D03*
X2975000Y2445000D03*
X9230000Y620000D03*
X8642500Y507500D03*
X6462500Y695000D03*
X6460000Y165000D03*
X7590000Y120000D03*
X7485000Y847500D03*
X5787500Y740000D03*
X5785000Y190000D03*
X4827500Y850000D03*
X4662500Y122500D03*
X3597500Y720000D03*
X6517500Y1295000D03*
X2685000Y897500D03*
X775000Y1705000D03*
X2527500Y1690000D03*
X4765000Y5135000D03*
X4355000D03*
X7040000Y7550000D03*
X7430000Y7330000D03*
X4705000Y1335000D03*
X4845000D03*
X7060000Y5612500D03*
X6962500Y5725000D03*
X4360000Y5307500D03*
X4642500Y5455000D03*
X6320000Y5265000D03*
X6010000Y5280000D03*
X6647820Y5202750D03*
X6505320Y5270260D03*
X2552500Y7900000D03*
X3152500Y8250000D03*
X3200000Y9400000D03*
X3700000D03*
X4425000D03*
X7272500Y6695000D03*
X4205000Y5892500D03*
X3900000Y6482500D03*
X4845000Y5500000D03*
X7275350Y7007840D03*
X4287500Y7067500D03*
X3540000Y6520000D03*
X3150000D03*
X3410000D03*
X3155000Y6347500D03*
X7080000Y5302500D03*
X3442500Y5240000D03*
X4210000Y5267500D03*
X5212500Y2815000D03*
X4372500Y7680000D03*
X2461780Y8209280D03*
G54D29*
X3575840Y7590560D03*
Y7530560D03*
Y7470560D03*
X3635840D03*
Y7530560D03*
Y7590560D03*
X3515840D03*
Y7530560D03*
Y7470560D03*
X3455840D03*
Y7530560D03*
Y7590560D03*
X1054580Y4174720D03*
Y4234720D03*
Y4294720D03*
X994580D03*
Y4234720D03*
Y4174720D03*
X1114580D03*
Y4234720D03*
Y4294720D03*
X1174580D03*
Y4234720D03*
Y4174720D03*
X2350920Y5805520D03*
Y5865520D03*
Y5925520D03*
X2290920D03*
Y5865520D03*
Y5805520D03*
X2410920D03*
Y5865520D03*
Y5925520D03*
X2470920D03*
Y5865520D03*
Y5805520D03*
X3043420Y5983020D03*
Y6043020D03*
X2983420D03*
Y5983020D03*
X2863420D03*
Y6043020D03*
X2923420D03*
Y5983020D03*
X2470920Y5625520D03*
Y5685520D03*
Y5745520D03*
X2410920D03*
Y5685520D03*
Y5625520D03*
X2290920D03*
Y5685520D03*
Y5745520D03*
X2350920D03*
Y5685520D03*
Y5625520D03*
X2470920Y5445520D03*
Y5505520D03*
Y5565520D03*
X2410920D03*
Y5505520D03*
Y5445520D03*
X2290920D03*
Y5505520D03*
Y5565520D03*
X2350920D03*
Y5505520D03*
Y5445520D03*
G54D30*
X4005280Y8427720D03*
X4285280D03*
X639780Y3314700D03*
X919780D03*
G54D31*
X9425000Y9825000D03*
X9525000D03*
G54D32*
X7357000Y7991540D03*
Y9813400D03*
X9408160Y7991540D03*
Y9813400D03*
G54D33*
X7357000Y8526540D03*
Y9277460D03*
X9408160D03*
Y8526540D03*
G54D34*
X7472000Y7876540D03*
Y9927700D03*
X9293860Y7876540D03*
Y9927700D03*
G54D35*
X8007000D03*
X8757920Y7876540D03*
X8007000D03*
X8757920Y9927700D03*
G54D36*
X8831580Y8514080D03*
X8214360D03*
G54D37*
X7601840Y8419080D03*
Y8609080D03*
X7871840Y8419080D03*
Y8514080D03*
G54D38*
Y8609080D03*
G54D39*
X6687820Y8341360D03*
Y8596140D03*
X6910060Y8341360D03*
Y8596140D03*
G54D40*
X4593780Y5838480D03*
Y5938480D03*
X4692840Y6038480D03*
Y5938480D03*
Y5838480D03*
X4794440Y6038480D03*
Y5938480D03*
X4593780Y6138480D03*
Y6038480D03*
Y6238480D03*
X4692840D03*
Y6138480D03*
X4794440D03*
Y6338480D03*
Y6238480D03*
Y5838480D03*
X4893500Y5938480D03*
Y5838480D03*
X4995100D03*
X5094160D03*
X4995100Y5938480D03*
X5094160D03*
X4893500Y6038480D03*
X4995100D03*
X4893500Y6238480D03*
Y6138480D03*
X4995100D03*
X5094160Y6038480D03*
X4995100Y6238480D03*
X5094160Y6138480D03*
X4593780Y6338480D03*
Y6438480D03*
X4692840D03*
Y6338480D03*
X4593780Y6538480D03*
X4794440D03*
X4593780Y6638480D03*
X4692840Y6538480D03*
X4593780Y6838480D03*
Y6738480D03*
X4692840Y6638480D03*
X4794440D03*
X4692840Y6838480D03*
Y6738480D03*
X4794440Y6438480D03*
X4893500Y6338480D03*
Y6538480D03*
Y6438480D03*
X4995100D03*
Y6338480D03*
Y6638480D03*
Y6538480D03*
X4794440Y6738480D03*
X4893500D03*
X4794440Y6838480D03*
X4893500D03*
Y6638480D03*
X4995100Y6738480D03*
Y6838480D03*
X5094160D03*
X5193220Y5838480D03*
Y6038480D03*
Y5938480D03*
X5294820Y5838480D03*
Y6038480D03*
Y5938480D03*
X5094160Y6238480D03*
X5193220Y6138480D03*
Y6338480D03*
Y6238480D03*
X5294820Y6138480D03*
X5393880Y6038480D03*
X5294820Y6338480D03*
Y6238480D03*
X5492940Y5838480D03*
X5393880Y5938480D03*
Y5838480D03*
X5492940Y5938480D03*
X5594540Y5838480D03*
X5492940Y6038480D03*
X5594540Y5938480D03*
X5393880Y6138480D03*
X5492940D03*
X5393880Y6238480D03*
X5492940Y6338480D03*
X5594540Y6138480D03*
Y6038480D03*
X5492940Y6238480D03*
X5594540D03*
X5094160Y6338480D03*
Y6538480D03*
Y6438480D03*
X5193220D03*
X5294820D03*
X5193220Y6538480D03*
X5294820D03*
X5094160Y6638480D03*
X5193220D03*
X5094160Y6738480D03*
X5193220Y6838480D03*
Y6738480D03*
X5294820Y6638480D03*
Y6838480D03*
Y6738480D03*
X5393880Y6438480D03*
Y6338480D03*
Y6538480D03*
X5492940Y6438480D03*
X5594540D03*
Y6338480D03*
X5492940Y6538480D03*
X5594540D03*
X5393880Y6638480D03*
X5492940D03*
X5393880Y6738480D03*
X5492940Y6838480D03*
Y6738480D03*
X5594540Y6638480D03*
Y6838480D03*
Y6738480D03*
X4593780Y6939280D03*
Y7139940D03*
Y7040880D03*
X4692840Y6939280D03*
X4794440D03*
X4692840Y7040880D03*
X4794440D03*
X4692840Y7239000D03*
Y7139940D03*
X4593780Y7340600D03*
Y7239000D03*
X4692840Y7340600D03*
X4794440Y7139940D03*
X4692840Y7439660D03*
X4794440Y7340600D03*
X4893500Y6939280D03*
Y7139940D03*
Y7040880D03*
X4995100Y6939280D03*
X5094160D03*
X4995100Y7139940D03*
Y7040880D03*
X4794440Y7239000D03*
X4893500D03*
X4794440Y7439660D03*
X4893500Y7340600D03*
X4995100Y7239000D03*
X5094160D03*
X4995100Y7340600D03*
X5094160D03*
X4593780Y7439660D03*
Y7640320D03*
Y7538720D03*
X4692840D03*
X4794440D03*
X4692840Y7640320D03*
X4794440D03*
X4593780Y7739380D03*
X4692840D03*
X4593780Y7940040D03*
Y7840980D03*
X4692840D03*
X4794440Y7739380D03*
X4692840Y7940040D03*
X4794440Y7840980D03*
X4893500Y7538720D03*
Y7439660D03*
Y7739380D03*
Y7640320D03*
X4995100Y7439660D03*
X5094160D03*
X4995100Y7640320D03*
Y7538720D03*
X4893500Y7840980D03*
X4995100Y7739380D03*
X4794440Y7940040D03*
X4893500D03*
X4995100Y7840980D03*
X5094160D03*
X4995100Y7940040D03*
X5094160D03*
X5193220Y6939280D03*
X5094160Y7040880D03*
X5193220Y7139940D03*
X5294820Y6939280D03*
X5393880Y6838480D03*
X5193220Y7040880D03*
X5294820D03*
X5094160Y7139940D03*
X5193220Y7239000D03*
Y7340600D03*
X5294820Y7439660D03*
Y7139940D03*
X5393880D03*
X5294820Y7340600D03*
Y7239000D03*
X5393880Y6939280D03*
X5492940D03*
X5393880Y7040880D03*
X5492940D03*
X5594540D03*
Y6939280D03*
X5492940Y7139940D03*
X5594540D03*
X5393880Y7239000D03*
X5492940D03*
X5393880Y7439660D03*
Y7340600D03*
X5492940D03*
X5594540Y7239000D03*
Y7439660D03*
Y7340600D03*
X5094160Y7538720D03*
Y7640320D03*
X5193220Y7538720D03*
Y7439660D03*
X5294820Y7538720D03*
X5193220Y7640320D03*
X5294820D03*
X5094160Y7739380D03*
X5193220D03*
Y7940040D03*
Y7840980D03*
X5294820D03*
Y7739380D03*
Y7940040D03*
X5393880Y7538720D03*
X5492940Y7439660D03*
X5393880Y7640320D03*
X5492940Y7538720D03*
Y7640320D03*
X5594540Y7538720D03*
X5492940Y7739380D03*
X5594540Y7640320D03*
X5393880Y7840980D03*
Y7739380D03*
Y7940040D03*
X5492940Y7840980D03*
X5594540D03*
Y7739380D03*
X5492940Y7940040D03*
X5594540D03*
X5695340Y5838480D03*
Y5938480D03*
X5795340Y6038480D03*
Y5838480D03*
X5895340D03*
X5795340Y5938480D03*
X5895340D03*
X5695340Y6138480D03*
Y6038480D03*
Y6238480D03*
X5795340Y6138480D03*
X5895340D03*
Y6038480D03*
X5795340Y6238480D03*
X5895340D03*
X5995340Y5838480D03*
Y6038480D03*
Y5938480D03*
X6095340Y5838480D03*
X6195340D03*
X6095340Y5938480D03*
X6195340D03*
X5995340Y6138480D03*
X6095340Y6038480D03*
X5995340Y6238480D03*
X6095340Y6138480D03*
X6195340D03*
Y6038480D03*
X6095340Y6238480D03*
X6195340D03*
X5795340Y6338480D03*
X5695340Y6438480D03*
Y6338480D03*
X5795340Y6438480D03*
X5895340Y6338480D03*
Y6538480D03*
Y6438480D03*
X5695340Y6638480D03*
Y6538480D03*
Y6838480D03*
Y6738480D03*
X5795340Y6638480D03*
Y6538480D03*
Y6838480D03*
Y6738480D03*
X5995340Y6438480D03*
Y6338480D03*
Y6638480D03*
Y6538480D03*
X6095340Y6338480D03*
X6195340D03*
X6095340Y6538480D03*
Y6438480D03*
X5895340Y6738480D03*
Y6638480D03*
Y6838480D03*
X5995340Y6738480D03*
X6095340D03*
Y6638480D03*
X5995340Y6838480D03*
X6095340D03*
X6295340Y5838480D03*
Y6038480D03*
Y5938480D03*
X6395340Y5838480D03*
X6495340D03*
X6395340Y5938480D03*
X6495340D03*
X6295340Y6238480D03*
Y6138480D03*
Y6338480D03*
X6395340D03*
Y6038480D03*
X6495340D03*
X6395340Y6238480D03*
Y6138480D03*
X6595340Y5838480D03*
X6695340D03*
X6595340Y6038480D03*
Y5938480D03*
X6695340D03*
Y6138480D03*
Y6038480D03*
X6495340Y6238480D03*
Y6138480D03*
Y6338480D03*
X6595340D03*
Y6238480D03*
Y6138480D03*
X6695340Y6338480D03*
Y6238480D03*
X6195340Y6438480D03*
Y6638480D03*
Y6538480D03*
X6295340Y6438480D03*
X6395340D03*
X6295340Y6538480D03*
X6395340D03*
X6195340Y6738480D03*
X6295340Y6638480D03*
X6195340Y6838480D03*
X6295340Y6738480D03*
X6395340D03*
Y6638480D03*
X6295340Y6838480D03*
X6395340D03*
X6495340Y6438480D03*
X6595340D03*
X6495340Y6638480D03*
Y6538480D03*
X6595340D03*
X6695340Y6438480D03*
Y6538480D03*
X6495340Y6738480D03*
X6595340Y6638480D03*
X6495340Y6838480D03*
X6595340Y6738480D03*
X6695340D03*
Y6638480D03*
X6595340Y6838480D03*
X6695340D03*
X5795340Y6939280D03*
X5695340Y7040880D03*
Y6939280D03*
X5795340Y7040880D03*
X5895340Y6939280D03*
Y7139940D03*
Y7040880D03*
X5695340Y7239000D03*
Y7139940D03*
Y7340600D03*
X5795340Y7439660D03*
Y7239000D03*
Y7139940D03*
Y7340600D03*
X5895340Y7239000D03*
X5995340Y6939280D03*
Y7139940D03*
Y7040880D03*
X6095340D03*
Y6939280D03*
X6195340Y7139940D03*
Y7040880D03*
X5995340Y7239000D03*
X6095340D03*
X5895340Y7340600D03*
X5995340D03*
X6095340Y7139940D03*
X6195340Y7239000D03*
X6095340Y7340600D03*
X6195340D03*
X5695340Y7439660D03*
Y7640320D03*
Y7538720D03*
X5795340D03*
X5895340D03*
X5795340Y7640320D03*
X5895340D03*
X5695340Y7739380D03*
X5795340D03*
X5695340Y7940040D03*
Y7840980D03*
X5795340D03*
X5895340D03*
X5795340Y7940040D03*
X5895340D03*
Y7439660D03*
X5995340D03*
Y7640320D03*
Y7538720D03*
X6095340Y7439660D03*
X6195340D03*
X6095340Y7640320D03*
Y7538720D03*
X5895340Y7739380D03*
X5995340D03*
Y7940040D03*
Y7840980D03*
X6095340D03*
Y7739380D03*
Y7940040D03*
X6195340Y7840980D03*
Y6939280D03*
X6295340Y7040880D03*
Y6939280D03*
X6395340Y7040880D03*
Y6939280D03*
X6295340Y7139940D03*
X6495340Y7040880D03*
X6295340Y7239000D03*
X6395340D03*
X6295340Y7439660D03*
Y7340600D03*
X6395340D03*
Y7139940D03*
Y7439660D03*
X6495340Y7340600D03*
Y6939280D03*
X6595340D03*
X6495340Y7139940D03*
X6595340Y7040880D03*
X6695340D03*
Y6939280D03*
X6595340Y7139940D03*
X6695340D03*
X6495340Y7239000D03*
X6595340D03*
X6495340Y7439660D03*
X6595340Y7340600D03*
X6695340D03*
Y7239000D03*
X6595340Y7439660D03*
X6695340D03*
X6195340Y7538720D03*
Y7739380D03*
Y7640320D03*
X6295340Y7538720D03*
X6395340D03*
X6295340Y7640320D03*
X6395340D03*
X6295340Y7840980D03*
Y7739380D03*
X6195340Y7940040D03*
X6295340D03*
X6395340Y7739380D03*
X6495340D03*
X6395340Y7940040D03*
Y7840980D03*
X6495340Y7538720D03*
X6595340D03*
X6495340Y7640320D03*
X6595340Y7739380D03*
Y7640320D03*
X6695340Y7538720D03*
Y7739380D03*
Y7640320D03*
X6495340Y7840980D03*
X6595340D03*
X6495340Y7940040D03*
X6595340D03*
X6695340D03*
Y7840980D03*
G54D41*
X2227580Y7193280D03*
Y7574280D03*
Y7701280D03*
Y7828280D03*
Y7955280D03*
Y7320280D03*
Y7447280D03*
Y8463280D03*
Y8082280D03*
Y8336280D03*
Y8209280D03*
G54D42*
X1275080Y7828280D03*
G54D43*
X3962400Y5681680D03*
Y5961680D03*
G54D44*
X4702660Y1424940D03*
X4842660D03*
X5436720Y4968240D03*
X5576720D03*
X5436720Y5151120D03*
X5576720D03*
X6779260Y2508400D03*
Y2368400D03*
X6596380Y2508400D03*
Y2368400D03*
G54D45*
X7853680Y2802560D03*
Y3343580D03*
X7980680Y2802560D03*
X8234680D03*
X8107680D03*
Y3343580D03*
X7980680D03*
X8234680D03*
G54D46*
X6830480Y2860040D03*
Y3301020D03*
X7200900Y2860040D03*
Y3301020D03*
G54D47*
X6763780Y3081020D03*
X7268980D03*
G54D48*
X3545840Y7529560D03*
X1084580Y4235720D03*
G54D49*
X3355340Y7955560D03*
Y7905560D03*
Y7855560D03*
Y7805560D03*
Y7755560D03*
Y7705560D03*
Y7655560D03*
Y7604760D03*
Y7553960D03*
Y7503160D03*
Y7454900D03*
Y7404100D03*
Y7353300D03*
X3735840D03*
Y7404100D03*
Y7454900D03*
Y7503160D03*
Y7553960D03*
Y7604760D03*
Y7655560D03*
Y7705560D03*
Y7755560D03*
Y7805560D03*
Y7855560D03*
Y7905560D03*
Y7955560D03*
X1275080Y3809720D03*
Y3859720D03*
Y3909720D03*
Y3959720D03*
Y4009720D03*
Y4059720D03*
Y4109720D03*
Y4160520D03*
Y4211320D03*
Y4262120D03*
Y4310380D03*
Y4361180D03*
Y4411980D03*
X894580D03*
Y4361180D03*
Y4310380D03*
Y4262120D03*
Y4211320D03*
Y4160520D03*
Y4109720D03*
Y4059720D03*
Y4009720D03*
Y3959720D03*
Y3909720D03*
Y3859720D03*
Y3809720D03*
X2047240Y6098540D03*
Y6050280D03*
Y5999480D03*
Y5948680D03*
Y5900420D03*
Y5849620D03*
Y5798820D03*
Y5748020D03*
Y5698020D03*
Y5648020D03*
Y5598020D03*
Y5548020D03*
Y5498020D03*
Y5448020D03*
Y5398020D03*
X3148420D03*
Y5448020D03*
Y5498020D03*
Y5548020D03*
Y5598020D03*
Y5648020D03*
Y5698020D03*
Y5748020D03*
Y5798820D03*
Y5849620D03*
Y5900420D03*
Y5948680D03*
Y5999480D03*
Y6050280D03*
Y6098540D03*
G54D50*
X3418840Y7315200D03*
X3469640D03*
X3520440D03*
X3570840D03*
X3620840D03*
X3670840D03*
Y7995560D03*
X3620840D03*
X3570840D03*
X3520440D03*
X3469640D03*
X3418840D03*
X1211580Y4450080D03*
X1160780D03*
X1109980D03*
X1059580D03*
X1009580D03*
X959580D03*
Y3769720D03*
X1009580D03*
X1059580D03*
X1109980D03*
X1160780D03*
X1211580D03*
X3048420Y6139180D03*
X2998420D03*
X2948420D03*
X2898420D03*
X2848420D03*
X2798420D03*
X2748420D03*
X2698420D03*
X2648420D03*
X2598420D03*
X2547620D03*
X2496820D03*
X2446020D03*
X2397760D03*
X2346960D03*
X2296160D03*
X2247900D03*
X2197100D03*
X2146300D03*
Y5358020D03*
X2197100D03*
X2247900D03*
X2296160D03*
X2346960D03*
X2397760D03*
X2446020D03*
X2496820D03*
X2547620D03*
X2598420D03*
X2648420D03*
X2698420D03*
X2748420D03*
X2798420D03*
X2848420D03*
X2898420D03*
X2948420D03*
X2998420D03*
X3048420D03*
G54D51*
X2953420Y6013020D03*
G54D52*
X2380920Y5685520D03*
G54D53*
X3594180Y1786360D03*
X3644180D03*
X3694180D03*
X3744180D03*
X3794180D03*
X3844180D03*
X3894180D03*
X3944180D03*
X3994180D03*
X4044180D03*
X4094180D03*
X4144180D03*
X4194180D03*
X4244180D03*
X4294180D03*
X4344180D03*
X4394180D03*
X4444180D03*
X4494180D03*
X4544180D03*
X4594180D03*
X4644180D03*
X4694180D03*
X4744180D03*
X4794180D03*
X4844180D03*
X4894180D03*
X4944180D03*
X4994180D03*
X5044180D03*
X5094180D03*
X5144180D03*
X5194180D03*
X5244180D03*
X5294180D03*
X5344180D03*
X5394180D03*
X5444180D03*
X5494180D03*
X5544180D03*
X5594180D03*
X5644180D03*
X5694180D03*
X5744180D03*
X5794180D03*
X5844180D03*
X5894180D03*
X5944180D03*
X5994180D03*
X6044180D03*
X6094180D03*
X6144180D03*
Y4736360D03*
X6094180D03*
X6044180D03*
X5994180D03*
X5944180D03*
X5894180D03*
X5844180D03*
X5794180D03*
X5744180D03*
X5694180D03*
X5644180D03*
X5594180D03*
X5544180D03*
X5494180D03*
X5444180D03*
X5394180D03*
X5344180D03*
X5294180D03*
X5244180D03*
X5194180D03*
X5144180D03*
X5094180D03*
X5044180D03*
X4994180D03*
X4944180D03*
X4894180D03*
X4844180D03*
X4794180D03*
X4744180D03*
X4694180D03*
X4644180D03*
X4594180D03*
X4544180D03*
X4494180D03*
X4444180D03*
X4394180D03*
X4344180D03*
X4294180D03*
X4244180D03*
X4194180D03*
X4144180D03*
X4094180D03*
X4044180D03*
X3994180D03*
X3944180D03*
X3894180D03*
X3844180D03*
X3794180D03*
X3744180D03*
X3694180D03*
X3644180D03*
X3594180D03*
G54D54*
X8551840Y4931840D02*
X8661400D01*
X8492500Y4912500D02*
X8532500D01*
X8551840Y4931840D01*
X5394960Y4600040D02*
X5462770Y4532230D01*
Y4422720D02*
Y4532230D01*
X4238070Y3685540D02*
X4692730Y4140200D01*
X4742730D01*
X5344160Y4595840D02*
X5395000Y4545000D01*
Y4420000D02*
Y4545000D01*
X5962500Y4232500D02*
X6040000Y4155000D01*
X5852940Y4232500D02*
X5962500D01*
X5602940Y3982500D02*
X5852940Y4232500D01*
X5697500Y4009890D02*
X5870000Y4182390D01*
X5697500Y3062500D02*
Y4009890D01*
X5375330Y3982500D02*
X5602940D01*
X8672500Y1572500D02*
X9077500Y1977500D01*
X8672500Y1392290D02*
Y1572500D01*
X9077500Y2152500D02*
X9315000Y2390000D01*
X9077500Y1977500D02*
Y2152500D01*
X7702500Y832500D02*
X9244300Y2374300D01*
X7702500Y922500D02*
X8817930Y2037930D01*
Y2065100D01*
X7932170Y1250000D02*
X8749530Y2067350D01*
X8752500D01*
X1632500Y1232500D02*
X1742500Y1342500D01*
X1627500Y1232500D02*
X1632500D01*
X2001250Y1403750D02*
X2527500Y1930000D01*
X1658750Y1403750D02*
X2001250D01*
X1555000Y1300000D02*
X1658750Y1403750D01*
X1555000Y1245000D02*
Y1300000D01*
X5044630Y7788910D02*
X5094160Y7739380D01*
X7575000Y2155000D02*
Y2167500D01*
Y2155000D02*
X7720000Y2010000D01*
X6830480Y3301020D02*
X6851500Y3280000D01*
X6917500D01*
X4890000Y1980000D02*
X4894580Y1975420D01*
X4995250Y3120080D02*
X5062830Y3052500D01*
X4995250Y3120080D02*
Y3134790D01*
X4512530Y3617500D02*
X4995250Y3134790D01*
X5062830Y3052500D02*
X5077530D01*
X5437500Y2692530D01*
X7407170Y3315000D02*
X7597500D01*
X7652500Y3370000D01*
X7667500D01*
Y3445000D02*
X7702500Y3480000D01*
X7853680Y3343580D02*
Y3453820D01*
X7827500Y3480000D02*
X7853680Y3453820D01*
X7702500Y3480000D02*
X7827500D01*
X7667500Y3370000D02*
Y3445000D01*
X7092500Y3362500D02*
X7110000Y3380000D01*
X7342180D01*
X7407170Y3315000D01*
X2800000Y846170D02*
X2911330Y957500D01*
X3780000Y2532500D02*
X4485000Y3237500D01*
X4590000D01*
X2952500Y900000D02*
X3000000Y947500D01*
X3865000Y2515000D02*
X3942500D01*
X4592500Y3165000D01*
X3002650Y942550D02*
Y944850D01*
X3000000Y947500D02*
X3002650Y944850D01*
X2952500Y835000D02*
Y900000D01*
Y835000D02*
X2987500Y800000D01*
X3000000D01*
X2800000D02*
Y846170D01*
X2911330Y957500D02*
X2923830Y945000D01*
X5790470Y2935000D02*
X5797500D01*
X5730280Y2874810D02*
X5790470Y2935000D01*
X5730280Y2430280D02*
Y2874810D01*
X5545270Y2245270D02*
X5730280Y2430280D01*
X5545270Y1942590D02*
Y2245270D01*
X5595000Y2357500D02*
Y2815000D01*
X5394960Y2089960D02*
X5450000Y2145000D01*
Y2212500D02*
X5595000Y2357500D01*
X5450000Y2145000D02*
Y2212500D01*
X5552500Y2375000D02*
Y2840000D01*
X5344160Y2101660D02*
X5401250Y2158750D01*
Y2223750D02*
X5552500Y2375000D01*
X5401250Y2158750D02*
Y2223750D01*
X3897500Y3617500D02*
X4512530D01*
X5143690Y7788910D02*
X5193220Y7739380D01*
X4945570Y7890510D02*
X4995100Y7840980D01*
X5245290Y7890510D02*
X5294820Y7840980D01*
X5245290Y7989570D02*
X5294820Y7940040D01*
X5143690Y7890510D02*
X5193220Y7840980D01*
X5245290Y7788910D02*
X5294820Y7739380D01*
X5344350Y7788910D02*
X5393880Y7739380D01*
X5143690Y7989570D02*
X5193220Y7940040D01*
X5044630Y7989570D02*
X5094160Y7940040D01*
X4945570Y7989570D02*
X4995100Y7940040D01*
X5443410Y7588250D02*
X5492940Y7538720D01*
X5344350Y7588250D02*
X5393880Y7538720D01*
X5545010Y7588250D02*
X5594540Y7538720D01*
X5695340D02*
X5744870Y7588250D01*
X5344350Y7489190D02*
X5393880Y7439660D01*
X5344160Y4595840D02*
Y4719320D01*
Y4742500D01*
X3693160Y1803400D02*
X3706220Y1816460D01*
X8245730Y5332760D02*
X8525420D01*
X8527920Y5330260D01*
X8462500Y5257500D02*
X8482500D01*
X8507360Y5232640D01*
X8195610Y5282640D02*
X8245730Y5332760D01*
X7474040Y5282640D02*
X8195610D01*
X6327140Y4335780D02*
X6637500D01*
X6327140Y4386580D02*
X6614080D01*
X7195000Y5265000D02*
X7347500D01*
X7365140Y5282640D01*
X7474040D01*
X7360000Y4901830D02*
Y5060000D01*
X7380000Y5080000D01*
X5987500Y2055000D02*
X6144260Y1898240D01*
X5987500Y2055000D02*
Y2317500D01*
X6012500Y2342500D01*
X8661400Y4680380D02*
X8947120D01*
X9013740Y4613760D01*
Y4598740D02*
Y4613760D01*
X7474040Y4680380D02*
X7479420Y4675000D01*
X7607500D01*
X7688750Y5656250D02*
X7710000Y5677500D01*
X7648350Y5656250D02*
X7688750D01*
X7644740Y5652640D02*
X7648350Y5656250D01*
X7620140Y5652640D02*
X7644740D01*
X7576550Y5609050D02*
X7620140Y5652640D01*
X7576550Y5608080D02*
Y5609050D01*
X7551110Y5582640D02*
X7576550Y5608080D01*
X7492040Y5582640D02*
X7551110D01*
X3005000Y2327500D02*
X3214960Y2537460D01*
X3411220D01*
X3251660Y2486660D02*
X3411220D01*
X3117500Y2352500D02*
X3251660Y2486660D01*
X8661400Y5732640D02*
X8915140D01*
X8951600Y5769100D01*
X8988400D01*
X9000000Y5780700D01*
X6144260Y1803400D02*
Y1898240D01*
X6116220Y1986280D02*
X6327140D01*
X6035000Y2067500D02*
X6116220Y1986280D01*
X6035000Y2067500D02*
Y2215000D01*
X6050000Y2230000D01*
X6117500Y2172830D02*
Y2237500D01*
X8535140Y5832640D02*
X8661400D01*
X8522500Y5820000D02*
X8535140Y5832640D01*
X7640000Y5875000D02*
Y5892500D01*
X7597640Y5832640D02*
X7640000Y5875000D01*
X7880330Y5992500D02*
X8172820D01*
X8257170Y6037500D02*
X8287170Y6007500D01*
X8400000D01*
X8289310Y6047800D02*
X8487910D01*
X8269600Y6067500D02*
X8289310Y6047800D01*
X7939680Y6067500D02*
X8269600D01*
X7865330Y6007500D02*
X7880330Y5992500D01*
X7687500Y6007500D02*
X7865330D01*
X8400000D02*
X8457500Y5950000D01*
X7562640Y5882640D02*
X7687500Y6007500D01*
X7667500Y6087500D02*
X7919670D01*
X7562640Y5982640D02*
X7667500Y6087500D01*
X7474040Y5982640D02*
X7562640D01*
X8656540Y5887500D02*
X8661400Y5882640D01*
X8322500Y5887500D02*
X8656540D01*
X6082500Y2107500D02*
X6152920Y2037080D01*
X6327140D01*
X8661400Y5982640D02*
X8664040Y5980000D01*
X8832500D01*
X8860000Y6007500D01*
X6117500Y2172830D02*
X6204990Y2085340D01*
X6327140D01*
X6221360Y2136140D02*
X6327140D01*
Y2186940D02*
X6415560D01*
X6442500Y2160000D01*
Y2157290D02*
Y2160000D01*
Y2157290D02*
X6477500Y2122290D01*
Y2097500D02*
Y2122290D01*
X6431770Y2235200D02*
X6490000Y2176970D01*
X6327140Y2235200D02*
X6431770D01*
X5860280Y5482780D02*
X6080640Y5703130D01*
X5860280Y5480240D02*
Y5482780D01*
X5845000Y5464960D02*
X5860280Y5480240D01*
X5845000Y5305030D02*
Y5464960D01*
X7474040Y5832640D02*
X7597640D01*
X7474040Y5882640D02*
X7562640D01*
X7474040Y5732640D02*
X7478240Y5736850D01*
X6237500Y5787500D02*
X6246320D01*
X6295340Y5838480D02*
X6339990Y5793830D01*
X7474040Y5682640D02*
X7632320D01*
X6057500Y5137500D02*
X6217500D01*
X6040960Y5120960D02*
X6057500Y5137500D01*
X6040960Y4723560D02*
Y5120960D01*
Y4723560D02*
X6045200Y4719320D01*
X5994400D02*
Y5139400D01*
X6022500Y5167500D01*
X6245000D01*
X6494760Y4917740D01*
X5943600Y5163600D02*
X5987500Y5207500D01*
X5943600Y4719320D02*
Y5163600D01*
X5845000Y5305030D02*
X5847500Y5302530D01*
Y5242470D02*
Y5302530D01*
X5845000Y5239970D02*
X5847500Y5242470D01*
X5845000Y5104670D02*
Y5239970D01*
Y5104670D02*
X5847500Y5102180D01*
Y5062830D02*
Y5102180D01*
X5845000Y5060320D02*
X5847500Y5062830D01*
X5845000Y4719780D02*
Y5060320D01*
X6080640Y5703130D02*
X6460000D01*
X6579360Y5585000D02*
Y5722500D01*
X7372640Y5882640D02*
X7474040D01*
X7350000Y5860000D02*
X7372640Y5882640D01*
X7142500Y5860000D02*
X7350000D01*
X7117500Y5885000D02*
X7142500Y5860000D01*
X6579360Y5722500D02*
X6645340Y5788480D01*
X7637360Y4982640D02*
X7670000Y4950000D01*
X7290000Y5080000D02*
X7342640Y5132640D01*
X4894580Y4592920D02*
Y4719320D01*
X5643880Y1803400D02*
X5645000Y1802280D01*
X7474040Y4131740D02*
X7579240D01*
X4843780Y4719320D02*
X4850000Y4713100D01*
X7471400Y5080000D02*
X7474040Y5082640D01*
X7380000Y5080000D02*
X7471400D01*
X7342640Y5132640D02*
X7474040D01*
X4792980Y4842980D02*
X4800000Y4850000D01*
X4792980Y4719320D02*
Y4842980D01*
X4748200Y4722800D02*
Y4898200D01*
X4744720Y4719320D02*
X4748200Y4722800D01*
Y4898200D02*
X4749990Y4899990D01*
X4643120Y4873120D02*
X4740000Y4970000D01*
X4790000D01*
X8787360Y5132640D02*
X8830000Y5090000D01*
X8507360Y5232640D02*
X8661400D01*
Y5032640D02*
X8750380D01*
X4693920Y4719320D02*
Y4843920D01*
X4700000Y4850000D01*
X4643120Y4719320D02*
Y4873120D01*
X8661400Y5132640D02*
X8787360D01*
X4839250Y6993810D02*
X4888780Y6944280D01*
X4744250Y6988810D02*
X4793780Y6939280D01*
X4639250Y6991310D02*
X4688780Y6941780D01*
X5544140Y6989680D02*
X5594540Y6939280D01*
X5695340D02*
X5745340Y6989280D01*
X5695340Y6838480D02*
X5745340Y6788480D01*
X5544540Y6688480D02*
X5594540Y6738480D01*
X5795340Y6939280D02*
X5845340Y6989280D01*
X5695340Y6738480D02*
X5745340Y6688480D01*
X5795340Y6838480D02*
X5845340Y6788480D01*
X5443410Y6988810D02*
X5492940Y6939280D01*
X5545010Y7090410D02*
X5594540Y7040880D01*
X5443410Y6788950D02*
X5492940Y6838480D01*
X5695340Y7040880D02*
X5744870Y7090410D01*
X5795340Y6738480D02*
X5845340Y6688480D01*
X5443410Y6688950D02*
X5492940Y6738480D01*
X5795340Y7040880D02*
X5844870Y7090410D01*
X5443410D02*
X5492940Y7040880D01*
X5344350Y6988810D02*
X5393880Y6939280D01*
X5545010Y7189470D02*
X5594540Y7139940D01*
X5544540Y6588480D02*
X5594540Y6638480D01*
X5895340Y6939280D02*
X5945340Y6989280D01*
X5344350Y6788950D02*
X5393880Y6838480D01*
X5695340Y7139940D02*
X5744870Y7189470D01*
X5695340Y6638480D02*
X5745340Y6588480D01*
X5895340Y6838480D02*
X5945340Y6788480D01*
X5344350Y6688950D02*
X5393880Y6738480D01*
X5795340Y7139940D02*
X5844870Y7189470D01*
X5795340Y6638480D02*
X5845340Y6588480D01*
X5895340Y6738480D02*
X5945340Y6688480D01*
X5344350Y7090410D02*
X5393880Y7040880D01*
X5443410Y7189470D02*
X5492940Y7139940D01*
X5443410Y6588950D02*
X5492940Y6638480D01*
X5895340Y7040880D02*
X5944870Y7090410D01*
X5245290Y6988810D02*
X5294820Y6939280D01*
X5545010Y7288530D02*
X5594540Y7239000D01*
X5695340D02*
X5744870Y7288530D01*
X5544540Y6488480D02*
X5594540Y6538480D01*
X5995340Y6939280D02*
X6045340Y6989280D01*
X5695340Y6538480D02*
X5745340Y6488480D01*
X5995340Y6838480D02*
X6045340Y6788480D01*
X5344350Y7189470D02*
X5393880Y7139940D01*
X5344350Y6588950D02*
X5393880Y6638480D01*
X5895340Y7139940D02*
X5944870Y7189470D01*
X5895340Y6638480D02*
X5945340Y6588480D01*
X5245290Y6688950D02*
X5294820Y6738480D01*
X5795340Y7239000D02*
X5844870Y7288530D01*
X5245290Y7090410D02*
X5294820Y7040880D01*
X5443410Y7288530D02*
X5492940Y7239000D01*
X5795340Y6538480D02*
X5845340Y6488480D01*
X5995340Y6738480D02*
X6045340Y6688480D01*
X5443410Y6488950D02*
X5492940Y6538480D01*
X5995340Y7040880D02*
X6044870Y7090410D01*
X5245290Y7189470D02*
X5294820Y7139940D01*
X5344350Y7288530D02*
X5393880Y7239000D01*
X5245290Y6588950D02*
X5294820Y6638480D01*
X5895340Y7239000D02*
X5944870Y7288530D01*
X5344350Y6488950D02*
X5393880Y6538480D01*
X5995340Y7139940D02*
X6044870Y7189470D01*
X5895340Y6538480D02*
X5945340Y6488480D01*
X5995340Y6638480D02*
X6045340Y6588480D01*
X5544540Y6388480D02*
X5594540Y6438480D01*
X6095340Y6939280D02*
X6145340Y6989280D01*
X5695340Y6438480D02*
X5745340Y6388480D01*
X6095340Y6838480D02*
X6145340Y6788480D01*
X5143690Y6988810D02*
X5193220Y6939280D01*
X5545010Y7390130D02*
X5594540Y7340600D01*
X5143690Y6788950D02*
X5193220Y6838480D01*
X5695340Y7340600D02*
X5744870Y7390130D01*
X5795340Y6438480D02*
X5845340Y6388480D01*
X6095340Y6738480D02*
X6145340Y6688480D01*
X5443410Y6388950D02*
X5492940Y6438480D01*
X6095340Y7040880D02*
X6144870Y7090410D01*
X5143690Y6688950D02*
X5193220Y6738480D01*
X5795340Y7340600D02*
X5844870Y7390130D01*
X5143690Y7090410D02*
X5193220Y7040880D01*
X5443410Y7390130D02*
X5492940Y7340600D01*
X5245290Y7288530D02*
X5294820Y7239000D01*
X5245290Y6488950D02*
X5294820Y6538480D01*
X5995340Y7239000D02*
X6044870Y7288530D01*
X5995340Y6538480D02*
X6045340Y6488480D01*
X5344350Y6388950D02*
X5393880Y6438480D01*
X6095340Y7139940D02*
X6144870Y7189470D01*
X5895340Y6438480D02*
X5945340Y6388480D01*
X6095340Y6638480D02*
X6145340Y6588480D01*
X5344350Y7390130D02*
X5393880Y7340600D01*
X5143690Y6588950D02*
X5193220Y6638480D01*
X5895340Y7340600D02*
X5944870Y7390130D01*
X5044630Y6988810D02*
X5094160Y6939280D01*
X5545010Y7489190D02*
X5594540Y7439660D01*
X5044630Y6788950D02*
X5094160Y6838480D01*
X5695340Y7439660D02*
X5744870Y7489190D01*
X5544540Y6288480D02*
X5594540Y6338480D01*
X6195340Y6939280D02*
X6245340Y6989280D01*
X5695340Y6338480D02*
X5745340Y6288480D01*
X6195340Y6838480D02*
X6245340Y6788480D01*
X5245290Y6388950D02*
X5294820Y6438480D01*
X6095340Y7239000D02*
X6144870Y7288530D01*
X5044630Y6688950D02*
X5094160Y6738480D01*
X5795340Y7439660D02*
X5844870Y7489190D01*
X5044630Y7090410D02*
X5094160Y7040880D01*
X5443410Y7489190D02*
X5492940Y7439660D01*
X5143690Y7288530D02*
X5193220Y7239000D01*
X5245290Y7390130D02*
X5294820Y7340600D01*
X5795340Y6338480D02*
X5845340Y6288480D01*
X6195340Y6738480D02*
X6245340Y6688480D01*
X5995340Y6438480D02*
X6045340Y6388480D01*
X6095340Y6538480D02*
X6145340Y6488480D01*
X5443410Y6288950D02*
X5492940Y6338480D01*
X6195340Y7040880D02*
X6244870Y7090410D01*
X5143690Y6488950D02*
X5193220Y6538480D01*
X5995340Y7340600D02*
X6044870Y7390130D01*
X5044630Y7189470D02*
X5094160Y7139940D01*
X5044630Y6588950D02*
X5094160Y6638480D01*
X5895340Y7439660D02*
X5944870Y7489190D01*
X5344350Y6288950D02*
X5393880Y6338480D01*
X6195340Y7139940D02*
X6244870Y7189470D01*
X5895340Y6338480D02*
X5945340Y6288480D01*
X6195340Y6638480D02*
X6245340Y6588480D01*
X6095340Y6438480D02*
X6145340Y6388480D01*
X5143690Y6388950D02*
X5193220Y6438480D01*
X6095340Y7340600D02*
X6144870Y7390130D01*
X5143690D02*
X5193220Y7340600D01*
X4945570Y6788950D02*
X4995100Y6838480D01*
X5044630Y7288530D02*
X5094160Y7239000D01*
X5245290Y6288950D02*
X5294820Y6338480D01*
X6195340Y7239000D02*
X6244870Y7288530D01*
X5044630Y6488950D02*
X5094160Y6538480D01*
X5995340Y7439660D02*
X6044870Y7489190D01*
X5544540Y6188480D02*
X5594540Y6238480D01*
X6295340Y6939280D02*
X6345340Y6989280D01*
X5695340Y6238480D02*
X5745340Y6188480D01*
X5995340Y6338480D02*
X6045340Y6288480D01*
X6195340Y6538480D02*
X6245340Y6488480D01*
X5795340Y7538720D02*
X5844870Y7588250D01*
X4945570Y7090410D02*
X4995100Y7040880D01*
X5795340Y6238480D02*
X5845340Y6188480D01*
X6295340Y6738480D02*
X6345340Y6688480D01*
X5443410Y6188950D02*
X5492940Y6238480D01*
X6295340Y7040880D02*
X6344870Y7090410D01*
X4945570Y7189470D02*
X4995100Y7139940D01*
X4945570Y6588950D02*
X4995100Y6638480D01*
X5895340Y7538720D02*
X5944870Y7588250D01*
X5344350Y6188950D02*
X5393880Y6238480D01*
X6295340Y7139940D02*
X6344870Y7189470D01*
X6295340Y6638480D02*
X6345340Y6588480D01*
X5044630Y6388950D02*
X5094160Y6438480D01*
X6095340Y7439660D02*
X6144870Y7489190D01*
X6095340Y6338480D02*
X6145340Y6288480D01*
X6195340Y6438480D02*
X6245340Y6388480D01*
X5044630Y7390130D02*
X5094160Y7340600D01*
X5143690Y7489190D02*
X5193220Y7439660D01*
X5143690Y6288950D02*
X5193220Y6338480D01*
X6195340Y7340600D02*
X6244870Y7390130D01*
X4945570Y7288530D02*
X4995100Y7239000D01*
X5245290Y7588250D02*
X5294820Y7538720D01*
X4945570Y6488950D02*
X4995100Y6538480D01*
X5995340Y7538720D02*
X6044870Y7588250D01*
X5245290Y6188950D02*
X5294820Y6238480D01*
X6295340Y7239000D02*
X6344870Y7288530D01*
X6295340Y6538480D02*
X6345340Y6488480D01*
X5544540Y6088480D02*
X5594540Y6138480D01*
X6395340Y6939280D02*
X6445340Y6989280D01*
X5695340Y6138480D02*
X5745340Y6088480D01*
X6395340Y6838480D02*
X6445340Y6788480D01*
X5545010Y7689850D02*
X5594540Y7640320D01*
X4843970Y6788950D02*
X4893500Y6838480D01*
X5695340Y7640320D02*
X5744870Y7689850D01*
X5795340Y6138480D02*
X5845340Y6088480D01*
X6395340Y6738480D02*
X6445340Y6688480D01*
X6395340Y7040880D02*
X6444870Y7090410D01*
X4843970Y6688950D02*
X4893500Y6738480D01*
X5795340Y7640320D02*
X5844870Y7689850D01*
X4843970Y7090410D02*
X4893500Y7040880D01*
X5443410Y7689850D02*
X5492940Y7640320D01*
X5044630Y7489190D02*
X5094160Y7439660D01*
X5044630Y6288950D02*
X5094160Y6338480D01*
X6195340Y7439660D02*
X6244870Y7489190D01*
X6195340Y6338480D02*
X6245340Y6288480D01*
X4945570Y6388950D02*
X4995100Y6438480D01*
X6095340Y7538720D02*
X6144870Y7588250D01*
X4945570Y7390130D02*
X4995100Y7340600D01*
X5143690Y7588250D02*
X5193220Y7538720D01*
X6395340Y7139940D02*
X6444870Y7189470D01*
X5895340Y6138480D02*
X5945340Y6088480D01*
X6395340Y6638480D02*
X6445340Y6588480D01*
X6295340Y6438480D02*
X6345340Y6388480D01*
X4843970Y7189470D02*
X4893500Y7139940D01*
X5344350Y7689850D02*
X5393880Y7640320D01*
X4843970Y6588950D02*
X4893500Y6638480D01*
X5895340Y7640320D02*
X5944870Y7689850D01*
X5143690Y6188950D02*
X5193220Y6238480D01*
X6295340Y7340600D02*
X6344870Y7390130D01*
X5245290Y6088950D02*
X5294820Y6138480D01*
X6395340Y7239000D02*
X6444870Y7288530D01*
X4843970D02*
X4893500Y7239000D01*
X5995340Y6138480D02*
X6045340Y6088480D01*
X6395340Y6538480D02*
X6445340Y6488480D01*
X4843970Y6488950D02*
X4893500Y6538480D01*
X5995340Y7640320D02*
X6044870Y7689850D01*
X4945570Y7489190D02*
X4995100Y7439660D01*
X5044630Y7588250D02*
X5094160Y7538720D01*
X4945570Y6288950D02*
X4995100Y6338480D01*
X6195340Y7538720D02*
X6244870Y7588250D01*
X5545010Y7788910D02*
X5594540Y7739380D01*
X5695340D02*
X5744870Y7788910D01*
X6495340Y6939280D02*
X6545340Y6989280D01*
X5695340Y6038480D02*
X5745340Y5988480D01*
X6495340Y6838480D02*
X6545340Y6788480D01*
X6295340Y7439660D02*
X6344870Y7489190D01*
X6195340Y6238480D02*
X6245340Y6188480D01*
X4744910Y6688950D02*
X4794440Y6738480D01*
X5795340Y7739380D02*
X5844870Y7788910D01*
X4744910Y7090410D02*
X4794440Y7040880D01*
X5443410Y7788910D02*
X5492940Y7739380D01*
X5795340Y6038480D02*
X5845340Y5988480D01*
X6495340Y6738480D02*
X6545340Y6688480D01*
X6495340Y7040880D02*
X6544870Y7090410D01*
X6095340Y6138480D02*
X6145340Y6088480D01*
X6395340Y6438480D02*
X6445340Y6388480D01*
X4843970Y6388950D02*
X4893500Y6438480D01*
X6095340Y7640320D02*
X6144870Y7689850D01*
X5143690Y6088950D02*
X5193220Y6138480D01*
X6395340Y7340600D02*
X6444870Y7390130D01*
X4843970D02*
X4893500Y7340600D01*
X4744910Y7189470D02*
X4794440Y7139940D01*
X4744910Y6588950D02*
X4794440Y6638480D01*
X5895340Y7739380D02*
X5944870Y7788910D01*
X5344350Y5988950D02*
X5393880Y6038480D01*
X6495340Y7139940D02*
X6544870Y7189470D01*
X5895340Y6038480D02*
X5945340Y5988480D01*
X6495340Y6638480D02*
X6545340Y6588480D01*
X4945570Y7588250D02*
X4995100Y7538720D01*
X4744910Y7288530D02*
X4794440Y7239000D01*
X4945570Y6188950D02*
X4995100Y6238480D01*
X6295340Y7538720D02*
X6344870Y7588250D01*
X4744910Y6488950D02*
X4794440Y6538480D01*
X5995340Y7739380D02*
X6044870Y7788910D01*
X5245290Y5988950D02*
X5294820Y6038480D01*
X6495340Y7239000D02*
X6544870Y7288530D01*
X5995340Y6038480D02*
X6045340Y5988480D01*
X6495340Y6538480D02*
X6545340Y6488480D01*
X6295340Y6238480D02*
X6345340Y6188480D01*
X5044630Y6088950D02*
X5094160Y6138480D01*
X6395340Y7439660D02*
X6444870Y7489190D01*
X6195340Y6138480D02*
X6245340Y6088480D01*
X6395340Y6338480D02*
X6445340Y6288480D01*
X4843970Y7489190D02*
X4893500Y7439660D01*
X5044630Y7689850D02*
X5094160Y7640320D01*
X4843970Y6288950D02*
X4893500Y6338480D01*
X6195340Y7640320D02*
X6244870Y7689850D01*
X5544540Y5888480D02*
X5594540Y5938480D01*
X6595340Y6939280D02*
X6645340Y6989280D01*
X6595340Y6838480D02*
X6645340Y6788480D01*
X5545010Y7890510D02*
X5594540Y7840980D01*
X4643310Y6788950D02*
X4692840Y6838480D01*
X5695340Y7840980D02*
X5744870Y7890510D01*
X4744910Y6388950D02*
X4794440Y6438480D01*
X6095340Y7739380D02*
X6144870Y7788910D01*
X4744910Y7390130D02*
X4794440Y7340600D01*
X5795340Y5938480D02*
X5845340Y5888480D01*
X6595340Y6738480D02*
X6645340Y6688480D01*
X5443410Y5888950D02*
X5492940Y5938480D01*
X6595340Y7040880D02*
X6644870Y7090410D01*
X6095340Y6038480D02*
X6145340Y5988480D01*
X6495340Y6438480D02*
X6545340Y6388480D01*
X5143690Y5988950D02*
X5193220Y6038480D01*
X6495340Y7340600D02*
X6544870Y7390130D01*
X4643310Y6688950D02*
X4692840Y6738480D01*
X5795340Y7840980D02*
X5844870Y7890510D01*
X4643310Y7090410D02*
X4692840Y7040880D01*
X5443410Y7890510D02*
X5492940Y7840980D01*
X5344350Y5888950D02*
X5393880Y5938480D01*
X6595340Y7139940D02*
X6644870Y7189470D01*
X5895340Y5938480D02*
X5945340Y5888480D01*
X6595340Y6638480D02*
X6645340Y6588480D01*
X4643310Y7189470D02*
X4692840Y7139940D01*
X5344350Y7890510D02*
X5393880Y7840980D01*
X4643310Y6588950D02*
X4692840Y6638480D01*
X5895340Y7840980D02*
X5944870Y7890510D01*
X4945570Y6088950D02*
X4995100Y6138480D01*
X6395340Y7538720D02*
X6444870Y7588250D01*
X4843970D02*
X4893500Y7538720D01*
X4945570Y7689850D02*
X4995100Y7640320D01*
X6295340Y6138480D02*
X6345340Y6088480D01*
X6395340Y6238480D02*
X6445340Y6188480D01*
X6295340Y7640320D02*
X6344870Y7689850D01*
X4744910Y7489190D02*
X4794440Y7439660D01*
X4744910Y6288950D02*
X4794440Y6338480D01*
X6195340Y7739380D02*
X6244870Y7788910D01*
X5245290Y5888950D02*
X5294820Y5938480D01*
X6595340Y7239000D02*
X6644870Y7288530D01*
X5044630Y5988950D02*
X5094160Y6038480D01*
X6495340Y7439660D02*
X6544870Y7489190D01*
X5995340Y5938480D02*
X6045340Y5888480D01*
X6595340Y6538480D02*
X6645340Y6488480D01*
X6195340Y6038480D02*
X6245340Y5988480D01*
X6495340Y6338480D02*
X6545340Y6288480D01*
X4643310Y7288530D02*
X4692840Y7239000D01*
X4643310Y6488950D02*
X4692840Y6538480D01*
X5995340Y7840980D02*
X6044870Y7890510D01*
X5544540Y5788480D02*
X5594540Y5838480D01*
X4544250Y6988810D02*
X4593780Y6939280D01*
X6695340D02*
X6745340Y6989280D01*
X5695340Y5838480D02*
X5745340Y5788480D01*
X4544250Y6788950D02*
X4593780Y6838480D01*
X5695340Y7940040D02*
X5744870Y7989570D01*
X6095340Y5938480D02*
X6145340Y5888480D01*
X6595340Y6438480D02*
X6645340Y6388480D01*
X6595340Y7340600D02*
X6644870Y7390130D01*
X4643310Y6388950D02*
X4692840Y6438480D01*
X6095340Y7840980D02*
X6144870Y7890510D01*
X4643310Y7390130D02*
X4692840Y7340600D01*
X5795340Y5838480D02*
X5845340Y5788480D01*
X6695340Y6738480D02*
X6745340Y6688480D01*
X5795340Y7940040D02*
X5844870Y7989570D01*
X5443410Y5788950D02*
X5492940Y5838480D01*
X4544250Y7090410D02*
X4593780Y7040880D01*
X6695340D02*
X6744870Y7090410D01*
X6395340Y6138480D02*
X6445340Y6088480D01*
X4843970Y6088950D02*
X4893500Y6138480D01*
X6395340Y7640320D02*
X6444870Y7689850D01*
X4744910Y7588250D02*
X4794440Y7538720D01*
X4945570Y7788910D02*
X4995100Y7739380D01*
X4945570Y5988950D02*
X4995100Y6038480D01*
X6495340Y7538720D02*
X6544870Y7588250D01*
X4744910Y6188950D02*
X4794440Y6238480D01*
X6295340Y7739380D02*
X6344870Y7788910D01*
X6295340Y6038480D02*
X6345340Y5988480D01*
X6495340Y6238480D02*
X6545340Y6188480D01*
X5344350Y5788950D02*
X5393880Y5838480D01*
X4544250Y7189470D02*
X4593780Y7139940D01*
X6695340D02*
X6744870Y7189470D01*
X5895340Y5838480D02*
X5945340Y5788480D01*
X4544250Y6588950D02*
X4593780Y6638480D01*
X6695340D02*
X6745340Y6588480D01*
X5895340Y7940040D02*
X5944870Y7989570D01*
X5044630Y5888950D02*
X5094160Y5938480D01*
X6595340Y7439660D02*
X6644870Y7489190D01*
X6195340Y5938480D02*
X6245340Y5888480D01*
X6595340Y6338480D02*
X6645340Y6288480D01*
X4643310Y7489190D02*
X4692840Y7439660D01*
X5044630Y7890510D02*
X5094160Y7840980D01*
X4643310Y6288950D02*
X4692840Y6338480D01*
X6195340Y7840980D02*
X6244870Y7890510D01*
X5245290Y5788950D02*
X5294820Y5838480D01*
X4544250Y7288530D02*
X4593780Y7239000D01*
X6695340D02*
X6744870Y7288530D01*
X5995340Y5838480D02*
X6045340Y5788480D01*
X4544250Y6488950D02*
X4593780Y6538480D01*
X5995340Y7940040D02*
X6044870Y7989570D01*
X4744910Y6088950D02*
X4794440Y6138480D01*
X6395340Y7739380D02*
X6444870Y7788910D01*
X4744910Y7689850D02*
X4794440Y7640320D01*
X4843970Y7788910D02*
X4893500Y7739380D01*
X6395340Y6038480D02*
X6445340Y5988480D01*
X6495340Y6138480D02*
X6545340Y6088480D01*
X6495340Y7640320D02*
X6544870Y7689850D01*
X6095340Y5838480D02*
X6145340Y5788480D01*
X4544250Y6388950D02*
X4593780Y6438480D01*
X6695340D02*
X6745340Y6388480D01*
X6095340Y7940040D02*
X6144870Y7989570D01*
X5143690Y5788950D02*
X5193220Y5838480D01*
X4544250Y7390130D02*
X4593780Y7340600D01*
X6695340D02*
X6744870Y7390130D01*
X6595340Y7538720D02*
X6644870Y7588250D01*
X6595340Y6238480D02*
X6645340Y6188480D01*
X4643310Y7588250D02*
X4692840Y7538720D01*
X4643310Y6188950D02*
X4692840Y6238480D01*
X6295340Y7840980D02*
X6344870Y7890510D01*
X5044630Y5788950D02*
X5094160Y5838480D01*
X4544250Y7489190D02*
X4593780Y7439660D01*
X6695340D02*
X6744870Y7489190D01*
X4544250Y6288950D02*
X4593780Y6338480D01*
X6695340D02*
X6745340Y6288480D01*
X6195340Y7940040D02*
X6244870Y7989570D01*
X4744910Y7788910D02*
X4794440Y7739380D01*
X4744910Y5988950D02*
X4794440Y6038480D01*
X6495340Y7739380D02*
X6544870Y7788910D01*
X6495340Y6038480D02*
X6545340Y5988480D01*
X6395340Y5938480D02*
X6445340Y5888480D01*
X6595340Y6138480D02*
X6645340Y6088480D01*
X4843970Y5888950D02*
X4893500Y5938480D01*
X6595340Y7640320D02*
X6644870Y7689850D01*
X4643310Y6088950D02*
X4692840Y6138480D01*
X6395340Y7840980D02*
X6444870Y7890510D01*
X4643310Y7689850D02*
X4692840Y7640320D01*
X4843970Y7890510D02*
X4893500Y7840980D01*
X4945570Y5788950D02*
X4995100Y5838480D01*
X4544250Y7588250D02*
X4593780Y7538720D01*
X6695340D02*
X6744870Y7588250D01*
X4544250Y6188950D02*
X4593780Y6238480D01*
X6695340D02*
X6745340Y6188480D01*
X6295340Y7940040D02*
X6344870Y7989570D01*
X4744910Y5888950D02*
X4794440Y5938480D01*
X6595340Y7739380D02*
X6644870Y7788910D01*
X6495340Y5938480D02*
X6545340Y5888480D01*
X6595340Y6038480D02*
X6645340Y5988480D01*
X4643310Y7788910D02*
X4692840Y7739380D01*
X4744910Y7890510D02*
X4794440Y7840980D01*
X4643310Y5988950D02*
X4692840Y6038480D01*
X6495340Y7840980D02*
X6544870Y7890510D01*
X6395340Y5838480D02*
X6445340Y5788480D01*
X4544250Y6088950D02*
X4593780Y6138480D01*
X6695340D02*
X6745340Y6088480D01*
X6395340Y7940040D02*
X6444870Y7989570D01*
X4544250Y7689850D02*
X4593780Y7640320D01*
X6695340D02*
X6744870Y7689850D01*
X4843970Y7989570D02*
X4893500Y7940040D01*
X6595340Y5938480D02*
X6645340Y5888480D01*
X4643310Y5888950D02*
X4692840Y5938480D01*
X6595340Y7840980D02*
X6644870Y7890510D01*
X4544250Y7788910D02*
X4593780Y7739380D01*
X6695340D02*
X6744870Y7788910D01*
X4744910Y7989570D02*
X4794440Y7940040D01*
X6495340Y5838480D02*
X6545340Y5788480D01*
X4544250Y5988950D02*
X4593780Y6038480D01*
X6695340D02*
X6745340Y5988480D01*
X6495340Y7940040D02*
X6544870Y7989570D01*
X6595340Y5838480D02*
X6645340Y5788480D01*
X4544250Y5888950D02*
X4593780Y5938480D01*
X6695340D02*
X6745340Y5888480D01*
X6595340Y7940040D02*
X6644870Y7989570D01*
X4643310Y5788950D02*
X4692840Y5838480D01*
X4544250Y7890510D02*
X4593780Y7840980D01*
X6695340D02*
X6744870Y7890510D01*
X4643310Y7989570D02*
X4692840Y7940040D01*
X4544250Y5788950D02*
X4593780Y5838480D01*
X6695340D02*
X6745340Y5788480D01*
X6695340Y7940040D02*
X6744870Y7989570D01*
X4642840Y7890980D02*
X4643120D01*
X4593780Y7940040D02*
X4642840Y7890980D01*
X5594540Y7940040D02*
X5641340Y7986840D01*
Y7995920D01*
X5492940Y7940040D02*
X5544820Y7991920D01*
Y7995920D01*
X5393880Y7940040D02*
X5445760Y7991920D01*
Y7995920D01*
X5143690Y5888950D02*
X5193220Y5938480D01*
X7476680Y5230000D02*
X7610000D01*
X7474040Y5232640D02*
X7476680Y5230000D01*
X6295340Y5938480D02*
X6345340Y5888480D01*
X7476680Y5180000D02*
X7670000D01*
X7474040Y5182640D02*
X7476680Y5180000D01*
X3411220Y3086100D02*
X3536100D01*
X4850000Y4570000D02*
Y4713100D01*
X7450000Y4982640D02*
X7474040D01*
X7637360D01*
X6327140Y3235960D02*
X6350000D01*
X8661400Y4781980D02*
X8663380Y4780000D01*
X7474040Y5032640D02*
X7687360D01*
X6196720Y4236720D02*
X6327140D01*
X6225920Y4185920D02*
X6327140D01*
Y4135120D02*
X6435120D01*
X3536100Y3086100D02*
X3590000Y3140000D01*
X3411220Y3136900D02*
X3542490D01*
X3593790Y3188200D01*
X3414140Y2040000D02*
X3560000D01*
X3411220Y2037080D02*
X3414140Y2040000D01*
X3530000Y2110000D02*
X3560000D01*
X3505340Y2085340D02*
X3530000Y2110000D01*
X3411220Y2085340D02*
X3505340D01*
X3593790Y3188200D02*
X3871800D01*
X3590000Y3140000D02*
X3810000D01*
X3650000Y2160000D02*
X3680000Y2130000D01*
X3530000Y2160000D02*
X3650000D01*
X3506140Y2136140D02*
X3530000Y2160000D01*
X3411220Y2136140D02*
X3506140D01*
X3960000Y2950000D02*
Y3100000D01*
X3871800Y3188200D02*
X3960000Y3100000D01*
X3416800Y2730000D02*
X3540000D01*
X3411220Y2735580D02*
X3416800Y2730000D01*
X3550000Y2220000D02*
Y2290000D01*
X3521400Y2191400D02*
X3550000Y2220000D01*
X3415680Y2191400D02*
X3521400D01*
X3411220Y2186940D02*
X3415680Y2191400D01*
X3270000Y1980000D02*
X3404940D01*
X3411220Y1986280D01*
X4493260Y4626740D02*
Y4719320D01*
Y4626740D02*
X4530000Y4590000D01*
X4570000D01*
X4894580Y1803400D02*
Y1975420D01*
X4843970Y5788950D02*
X4893500Y5838480D01*
X4744910Y5788950D02*
X4794440Y5838480D01*
X4843780Y1803400D02*
Y1921220D01*
X5443410Y6088950D02*
X5492940Y6138480D01*
X5544540Y5988480D02*
X5594540Y6038480D01*
X5443410Y5988950D02*
X5492940Y6038480D01*
X6194740Y3985260D02*
X6327140D01*
X6182500Y3997500D02*
X6194740Y3985260D01*
X7474040Y3981880D02*
X7478420Y3977500D01*
X6327140Y3937000D02*
X6550500D01*
X6567500Y3920000D01*
X7290000Y4900000D02*
Y5080000D01*
X5694680Y5937820D02*
X5695340Y5938480D01*
X4894580Y4592920D02*
X4950000Y4537500D01*
X4954670D01*
X4945380Y4609620D02*
Y4719320D01*
X7637500Y4190000D02*
X7640000D01*
X7579240Y4131740D02*
X7637500Y4190000D01*
X6327140Y3286760D02*
X6455740D01*
X6462500Y3280000D01*
X4993640Y4608860D02*
X5022500Y4580000D01*
X4993640Y4608860D02*
Y4719320D01*
X4292500Y4560000D02*
X4340000Y4512500D01*
X4792500D01*
X4850000Y4570000D01*
X8262500Y5282500D02*
X8262640D01*
X8265400Y5285260D01*
X8362360Y5182640D02*
X8661400D01*
X7474040Y4530520D02*
X7478160Y4534640D01*
X5215000Y4877010D02*
Y4890000D01*
X5143500Y4846000D02*
X5167500Y4870000D01*
Y4877500D01*
X5180000Y4890000D01*
X5215000D01*
X5143500Y4719320D02*
Y4846000D01*
X8660880Y4530000D02*
X8661400Y4530520D01*
X8395000Y4432500D02*
Y4443790D01*
X8661400Y4431460D02*
X8664940Y4435000D01*
X4945380Y4609620D02*
X5140000Y4415000D01*
X5297500D02*
X5302500Y4420000D01*
X5140000Y4415000D02*
X5297500D01*
X5293360Y4544140D02*
Y4719320D01*
Y4544140D02*
X5297500Y4540000D01*
X5230000Y4490000D02*
X5245100Y4505100D01*
Y4719320D01*
X5187500Y4595000D02*
X5194300Y4601800D01*
Y4719320D01*
X7474040Y5082640D02*
X7553400D01*
X7605410Y5134660D01*
X7647180D01*
X7650040Y5131800D01*
X7689970D01*
X8664940Y4435000D02*
X8857500D01*
X8905440Y4387070D01*
Y4347500D02*
Y4387070D01*
X8661400Y4380660D02*
X8809340D01*
X4954670Y4537500D02*
X5162170Y4330000D01*
X8661400Y4281600D02*
X8828990D01*
X8875590Y4235000D01*
X8960000D01*
X9002500Y4192500D01*
X8832170Y4352600D02*
Y4357830D01*
X8885470Y4299300D02*
X8950700D01*
X8960000Y4290000D01*
X8809340Y4380660D02*
X8832170Y4357830D01*
Y4352600D02*
X8885470Y4299300D01*
X5394960Y4600040D02*
Y4719320D01*
X7478160Y4534640D02*
X8304150D01*
X8395000Y4443790D01*
X7474040Y4431460D02*
Y4435700D01*
X8500000Y4145000D02*
X8513260Y4131740D01*
X8661400D01*
X8503300Y4230800D02*
X8661400D01*
X8397500Y4010000D02*
X8468440Y4080940D01*
X8661400D01*
X3411220Y2837180D02*
X3797180D01*
X3866380Y2786380D02*
X3930000Y2850000D01*
X3411220Y2786380D02*
X3866380D01*
X7493320Y3992400D02*
X7694900D01*
X5844540Y4719320D02*
X5845000Y4719780D01*
X6460000Y5703130D02*
X6545340Y5788480D01*
X7474040Y5432640D02*
X7590140D01*
X7474040Y5532640D02*
X7476680Y5530000D01*
X7667180Y5717500D02*
X8442500D01*
X7632320Y5682640D02*
X7667180Y5717500D01*
X8442500D02*
X8475410Y5684590D01*
X8410000Y5820000D02*
X8522500D01*
X8475410Y5675280D02*
Y5684590D01*
X7710000Y5677500D02*
X8385000D01*
X8406900Y5655600D01*
X8217500Y5610000D02*
X8220000Y5607500D01*
X8505000D01*
X8580140Y5682640D01*
X8661400D01*
X3644900Y1694900D02*
Y1803400D01*
X3597500Y1647500D02*
X3644900Y1694900D01*
X3262500Y1647500D02*
X3597500D01*
X3594100Y1729100D02*
Y1803400D01*
X3542500Y1677500D02*
X3594100Y1729100D01*
X3322500Y1677500D02*
X3542500D01*
X3190000Y1810000D02*
X3322500Y1677500D01*
X3232500D02*
X3262500Y1647500D01*
X3232500Y1677500D02*
Y1690000D01*
X8395000Y5577500D02*
X8656260D01*
X8661400Y5582640D01*
X7890000Y5580000D02*
X7907500Y5562500D01*
X7590140Y5432640D02*
X7615000Y5457500D01*
X7620000D01*
X7614680Y5530000D02*
X7667500Y5477180D01*
Y5475000D02*
Y5477180D01*
Y5475000D02*
X7687560Y5454940D01*
X7476680Y5530000D02*
X7614680D01*
X8661400Y5532640D02*
X8780140D01*
X8790000Y5542500D01*
X7879940Y5454940D02*
X7910000Y5485000D01*
X7687560Y5454940D02*
X7790380D01*
X7790710Y5455260D01*
X7830060D01*
X7830380Y5454940D01*
X7879940D01*
X8661400Y5432640D02*
X8922360D01*
X9010000Y5345000D01*
X8661400Y5282640D02*
X8870140D01*
X8932500Y5345000D01*
X5793740Y1803400D02*
Y1901240D01*
X5947500Y2055000D01*
X5742940Y1803400D02*
Y1932940D01*
X5890000Y2080000D01*
X4193540Y1803400D02*
Y1971040D01*
X4162830Y2610000D02*
X5390000D01*
X3727500Y2174670D02*
X4162830Y2610000D01*
X5552500Y2840000D02*
X5720000Y3007500D01*
X6579360Y5585000D02*
X6631860Y5532500D01*
X6752500D01*
X5595000Y2815000D02*
X5770000Y2990000D01*
X6614080Y4386580D02*
X6702500Y4475000D01*
X6722500Y4522170D02*
X6750000Y4494680D01*
Y4448280D02*
Y4494680D01*
X6637500Y4335780D02*
X6750000Y4448280D01*
X6647500Y5002500D02*
X6690000D01*
X6217500Y5137500D02*
X6467260Y4887740D01*
X8406900Y5655600D02*
X8427910D01*
X5770000Y2990000D02*
Y3195000D01*
X6495000Y1712500D02*
Y2022500D01*
X6252500Y1470000D02*
X6495000Y1712500D01*
X5677500Y1470000D02*
X6252500D01*
X5575000Y1572500D02*
X5677500Y1470000D01*
X5575000Y1572500D02*
Y1689330D01*
X5555340Y1708990D02*
X5575000Y1689330D01*
X5555340Y1708990D02*
Y1792880D01*
X5544820Y1803400D02*
X5555340Y1792880D01*
X5372500Y2355000D02*
Y2377500D01*
X4381860Y2475000D02*
X5275000D01*
X5372500Y2377500D01*
X4193540Y1971040D02*
X4515000Y2292500D01*
X5405000D01*
X5502500Y2390000D01*
X3693160Y1803400D02*
Y1974440D01*
X4244340Y1803400D02*
Y1958160D01*
X4526180Y2240000D01*
X7381630Y4881040D02*
X7474040D01*
X4295140Y1803400D02*
Y1947640D01*
X4547500Y2200000D01*
X4920000D01*
X4940000Y2180000D01*
X8663380Y4780000D02*
X8732500D01*
X8742500Y4770000D01*
X8980000D01*
X8787270Y4817730D02*
X8805430D01*
X8661400Y4830240D02*
X8774760D01*
X8787270Y4817730D01*
X8661400Y4982640D02*
X8737670D01*
X8485000Y4347500D02*
Y4445000D01*
X8570000Y4530000D01*
X8660880D01*
X8556040Y4881040D02*
X8661400D01*
X8452500Y4777500D02*
X8556040Y4881040D01*
X8452500Y4405000D02*
Y4777500D01*
X8417500Y4370000D02*
X8452500Y4405000D01*
X8417500Y4237500D02*
Y4370000D01*
X8285000Y4105000D02*
X8417500Y4237500D01*
X8337500Y4065000D02*
X8503300Y4230800D01*
X7694900Y3992400D02*
X7710000Y4007500D01*
X8175000Y4010000D02*
X8397500D01*
X6677500Y2850000D02*
Y3207500D01*
X6602500Y2775000D02*
X6677500Y2850000D01*
X6487500Y2775000D02*
Y2780000D01*
X7687360Y5032640D02*
X7723750Y4996250D01*
X7890380Y4684690D02*
X7892500Y4686800D01*
X7890380Y4667730D02*
Y4684690D01*
X7478420Y3977500D02*
X7493320Y3992400D01*
X7474040Y4080000D02*
X7615000D01*
X6195340Y5838480D02*
X6246320Y5787500D01*
X8205000Y4615000D02*
X8285000Y4695000D01*
X7847500Y4615000D02*
X8205000D01*
X7474040Y4776250D02*
Y4781980D01*
X7017500Y3772500D02*
X7093260Y3848260D01*
X6805000Y3772500D02*
X7017500D01*
X6672500Y3905000D02*
X6805000Y3772500D01*
X6867500Y3810000D02*
X6990000D01*
X4940000Y2180000D02*
X5335000D01*
X4445000Y1803400D02*
Y2002500D01*
X4580000Y2137500D01*
X5137500D01*
Y2130360D02*
Y2137500D01*
Y2130360D02*
X5137750Y2130100D01*
X7474040Y4281600D02*
X7666760D01*
X7695380Y4310210D01*
X7985320Y4105000D02*
X8285000D01*
X9032500Y3890000D02*
X9050000D01*
X8940620Y3981880D02*
X9032500Y3890000D01*
X8661400Y3981880D02*
X8940620D01*
X3411220Y3782500D02*
Y3787140D01*
X6195330Y3182830D02*
X6197500D01*
X6319700Y3345000D02*
X6327140Y3337560D01*
X6192900Y3345000D02*
X6319700D01*
X6142500Y3395400D02*
X6192900Y3345000D01*
X6045000Y3295000D02*
X6104040Y3235960D01*
X6327140D01*
X5345290Y6091450D02*
X5394820Y6140980D01*
X3693160Y1974440D02*
X3727500Y2008780D01*
Y2174670D01*
X3872500Y2082500D02*
Y2159680D01*
X3743960Y1803400D02*
Y1953960D01*
X3872500Y2082500D01*
X7474040Y4781980D02*
X7583020D01*
X7262620Y4735000D02*
X7295000D01*
X7314680Y4782500D02*
X7320930Y4776250D01*
X7313090Y4812500D02*
X7381630Y4881040D01*
X7300670Y4842500D02*
X7360000Y4901830D01*
X6927500Y4842500D02*
X7300670D01*
X7142500Y4812500D02*
X7313090D01*
X7200000Y4782500D02*
X7314680D01*
X7140000Y4612380D02*
X7262620Y4735000D01*
X7105000Y4687500D02*
X7200000Y4782500D01*
X8262500Y5282500D02*
X8362360Y5182640D01*
X7381180Y4731180D02*
X7474040D01*
X7345000Y4695000D02*
X7381180Y4731180D01*
X7345000Y4687500D02*
Y4695000D01*
X5694680Y5937820D02*
X5744020Y5888480D01*
X5694020Y5938480D02*
X5694680Y5937820D01*
X4252830Y2540000D02*
X5370000D01*
X3872500Y2159680D02*
X4252830Y2540000D01*
X5502500Y2867500D02*
X5697500Y3062500D01*
X5502500Y2390000D02*
Y2867500D01*
X6487500Y2775000D02*
X6602500D01*
X7770000Y4692500D02*
X7847500Y4615000D01*
X7712170Y4840000D02*
X7742500D01*
X7620330Y4931840D02*
X7712170Y4840000D01*
X7474040Y4931840D02*
X7620330D01*
X7583020Y4781980D02*
X7672500Y4692500D01*
X7770000D01*
X7474040Y4830240D02*
X7612260D01*
X7622830Y4817500D02*
X7625000D01*
X8830000Y5090000D02*
X8835250Y5095250D01*
X8850430D01*
X8244750D02*
X8255400D01*
X7700910Y5142750D02*
X8197250D01*
X8244750Y5095250D01*
X7689970Y5131800D02*
X7700910Y5142750D01*
X7225140Y4230800D02*
X7474040D01*
X7140000Y4230510D02*
Y4612380D01*
X4445000Y4595000D02*
Y4719320D01*
Y4595000D02*
X4462500Y4577500D01*
X7195000Y4243080D02*
Y4342500D01*
X6200000Y4160000D02*
X6225920Y4185920D01*
X6715000Y3962500D02*
X6867500Y3810000D01*
X8285000Y4695000D02*
Y4775000D01*
X7320930Y4776250D02*
X7474040D01*
X7612260Y4830240D02*
X7625000Y4817500D01*
X3411220Y3685540D02*
X4238070D01*
X6185160Y3185160D02*
X6327140D01*
X4436080Y2355000D02*
X5220000D01*
X7607500Y4675000D02*
X7655990Y4626510D01*
X5435000Y2480000D02*
X5437500Y2482500D01*
X3795000Y3782500D02*
X3812500Y3765000D01*
X3411220Y3782500D02*
X3795000D01*
X6344180Y3036360D02*
X6409550D01*
X7723750Y4996250D02*
X7892500Y4827500D01*
Y4686800D02*
Y4827500D01*
X3295300Y3035300D02*
X3411220D01*
X3280000Y3020000D02*
X3295300Y3035300D01*
X7474040Y4380660D02*
X7632500D01*
X8912500Y4932500D02*
X8930000Y4950000D01*
X8737670Y4982640D02*
X8787810Y4932500D01*
X8750380Y5032640D02*
X8803020Y4980000D01*
X8787810Y4932500D02*
X8912500D01*
X8803020Y4980000D02*
X8810520Y4987500D01*
X8822500D01*
X8847170Y5030000D02*
X9020000D01*
X8794540Y5082640D02*
X8847170Y5030000D01*
X8661400Y5082640D02*
X8794540D01*
X6990000Y3810000D02*
X7032500Y3852500D01*
X7022840Y4692840D02*
X7142500Y4812500D01*
X7105000Y4240190D02*
Y4687500D01*
X7153260Y4158910D02*
X7225140Y4230800D01*
X7153260Y3914240D02*
Y4158910D01*
X7032500Y4167690D02*
X7105000Y4240190D01*
X7032500Y3852500D02*
Y4167690D01*
X7022840Y4225210D02*
Y4692840D01*
X6422500Y5227500D02*
X6647500Y5002500D01*
X5987500Y5207500D02*
X6270000D01*
X6512260Y4965240D01*
X6612820D01*
X6422500Y5227500D02*
Y5292500D01*
X6342240Y5372760D02*
X6422500Y5292500D01*
X5895340Y4719320D02*
Y5295340D01*
X5972760Y5372760D01*
X6342240D01*
X7157500Y5227500D02*
X7195000Y5265000D01*
X6985000Y5277500D02*
Y5452840D01*
X6745340Y5692500D02*
X6985000Y5452840D01*
X6745340Y5692500D02*
Y5788480D01*
X6752500Y5532500D02*
X6902500Y5382500D01*
X6865000Y5200030D02*
X6867500Y5197530D01*
X6865000Y5200030D02*
Y5212500D01*
X6740000Y5337500D02*
X6865000Y5212500D01*
X6687500Y5337500D02*
X6740000D01*
X6720320Y5112170D02*
X6737500Y5095000D01*
X6720320Y5112170D02*
Y5234670D01*
X6636280Y5318720D02*
X6720320Y5234670D01*
X6636280Y5318720D02*
Y5366220D01*
X6735330Y5465270D01*
X4104640Y1125220D02*
X4195000Y1034860D01*
Y975000D02*
Y1034860D01*
X4104640Y1379220D02*
X4240000Y1243860D01*
Y956360D02*
Y1243860D01*
X4172500Y952500D02*
X4195000Y975000D01*
X4191140Y907500D02*
X4240000Y956360D01*
X3670000Y952500D02*
X4172500D01*
X3585000Y1037500D02*
X3670000Y952500D01*
X3651360Y907500D02*
X4191140D01*
X3566360Y992500D02*
X3651360Y907500D01*
X2137500Y992500D02*
X3566360D01*
X2118860Y1037500D02*
X3585000D01*
X2087500Y942500D02*
X2137500Y992500D01*
X1655000Y942500D02*
X2087500D01*
X2068860Y987500D02*
X2118860Y1037500D01*
X1655000Y987500D02*
X2068860D01*
X1637500Y925000D02*
X1655000Y942500D01*
X1637500Y1005000D02*
X1655000Y987500D01*
X4700000Y480000D02*
Y700000D01*
X4500000Y480000D02*
Y700000D01*
X4300000Y480000D02*
Y700000D01*
X4100000Y480000D02*
Y700000D01*
X7500000Y480000D02*
Y650000D01*
X7700000Y480000D02*
Y650000D01*
X7900000Y480000D02*
Y650000D01*
X8100000Y480000D02*
Y650000D01*
X3218180Y7534440D02*
X3237700Y7553960D01*
X3355340D01*
X3081020Y7534440D02*
X3142960Y7472500D01*
X3260000D01*
X3290660Y7503160D01*
X3355340D01*
X3016940Y7634440D02*
X3081020D01*
X3158060D02*
X3218180D01*
X3421920Y7180580D02*
X3522980D01*
X3310000Y7292500D02*
X3421920Y7180580D01*
X3310000Y7292500D02*
Y7340000D01*
X3323300Y7353300D01*
X3355340D01*
X3254100Y7404100D02*
X3355340D01*
X3160000Y7310000D02*
X3254100Y7404100D01*
X2296160Y6139180D02*
Y6250140D01*
X2257260Y6289040D02*
X2296160Y6250140D01*
X2446020Y6139180D02*
Y6343520D01*
X2498560Y6396060D01*
Y6456680D01*
X2598420Y6139180D02*
Y6189180D01*
X2498560Y6289040D02*
X2598420Y6189180D01*
X2980220Y6289980D02*
X2981160Y6289040D01*
X2866540D02*
X2881160D01*
X2798420Y6139180D02*
Y6220920D01*
X2866540Y6289040D01*
X2157260Y6212740D02*
Y6289040D01*
Y6212740D02*
X2197100Y6172900D01*
Y6139180D02*
Y6172900D01*
X2247900Y6139180D02*
Y6199600D01*
X2207500Y6240000D02*
X2247900Y6199600D01*
X2207500Y6240000D02*
Y6345000D01*
X2190000Y6362500D02*
X2207500Y6345000D01*
X2120000Y6362500D02*
X2190000D01*
X2075000Y6317500D02*
X2120000Y6362500D01*
X2075000Y6257500D02*
Y6317500D01*
X2398560Y6456680D02*
Y6471440D01*
X2361780Y6508220D02*
X2398560Y6471440D01*
X2397760Y6139180D02*
Y6309200D01*
X2398560Y6310000D01*
Y6456680D01*
X2257260Y6289040D02*
Y6352150D01*
X2045000Y6490000D02*
X2062500Y6472500D01*
X2136910D01*
X2257260Y6352150D01*
X3304900Y7454900D02*
X3355340D01*
X3290000Y7440000D02*
X3304900Y7454900D01*
X3162500Y7440000D02*
X3290000D01*
X3030000Y7307500D02*
X3162500Y7440000D01*
X2343660Y6142480D02*
Y6206930D01*
Y6142480D02*
X2346960Y6139180D01*
X1275080Y4310380D02*
X1335380D01*
X1361060Y4336060D01*
X1275080Y4411980D02*
X1299480D01*
X1230500Y4572000D02*
X1320000Y4482500D01*
X1109180Y4572000D02*
X1230500D01*
X1275080Y4361180D02*
X1303680D01*
X1275080Y4262120D02*
X1513040D01*
X1551940Y4223220D01*
X1275080Y4211320D02*
X1393820D01*
X1395000Y4212500D01*
X1275080Y4160520D02*
X1456980D01*
X1480000Y4137500D01*
Y4097500D02*
Y4137500D01*
X1473200Y3904780D02*
X1542500Y3974080D01*
X1275080Y4109720D02*
X1392220D01*
X1395000Y4112500D01*
X1473200Y4004780D02*
Y4034300D01*
X1551940Y4123220D02*
X1621780D01*
X1535500Y3785000D02*
X1536700Y3783800D01*
X1470000Y3785000D02*
X1473200Y3788200D01*
X1397500Y3685000D02*
X1398700Y3683800D01*
X1275080Y4059720D02*
X1327780D01*
X1342500Y4045000D01*
X3083000Y7860500D02*
X3154680D01*
X3065000Y7842500D02*
X3083000Y7860500D01*
X3065000Y7752180D02*
Y7842500D01*
Y7752180D02*
X3067500Y7749670D01*
Y7717500D02*
Y7749670D01*
X3257500Y7800000D02*
Y7810000D01*
X3316100Y7604760D02*
X3355340D01*
X3270680Y7650180D02*
X3316100Y7604760D01*
X3241420Y7679440D02*
X3257500D01*
X3270680Y7666260D01*
Y7650180D02*
Y7666260D01*
X3332480Y7655560D02*
X3355340D01*
X3250540Y7737500D02*
X3332480Y7655560D01*
X3235000Y7737500D02*
X3250540D01*
X3230860Y7690000D02*
X3241420Y7679440D01*
X3095000Y7690000D02*
X3230860D01*
X3067500Y7717500D02*
X3095000Y7690000D01*
X3295000Y7735460D02*
Y7762500D01*
X3257500Y7800000D02*
X3295000Y7762500D01*
Y7735460D02*
X3324900Y7705560D01*
X3355340D01*
X3205000Y7767500D02*
X3235000Y7737500D01*
X3161680Y7767500D02*
X3205000D01*
X3154680Y7760500D02*
X3161680Y7767500D01*
X3792300Y4912300D02*
X3805000D01*
X3743960Y4863960D02*
X3792300Y4912300D01*
X3743960Y4719320D02*
Y4863960D01*
X7601840Y8308160D02*
X7602500Y8307500D01*
X6967500Y6888900D02*
X7318870D01*
X7384970Y6955000D01*
X8510970Y6863710D02*
X8534980Y6887720D01*
X9602200D01*
X9903700Y6586220D01*
X5246190Y7688250D02*
X5295720Y7638720D01*
X5143690Y7690750D02*
X5193220Y7641220D01*
X7601840Y8308160D02*
Y8419080D01*
X5245000Y1637500D02*
X5245100Y1637600D01*
Y1803400D01*
X6419340Y3682500D02*
X6502500Y3765660D01*
X6330180Y3682500D02*
X6419340D01*
X6327140Y3685540D02*
X6330180Y3682500D01*
X6185000Y3637500D02*
X6326920D01*
X6327140Y3637280D01*
X5293360Y1965860D02*
X5295000Y1967500D01*
X5293360Y1803400D02*
Y1965860D01*
X3411220Y4437380D02*
X3517380D01*
X3537500Y4457500D01*
Y4542310D01*
X3505630Y4574180D02*
X3537500Y4542310D01*
X3308850Y4574180D02*
X3505630D01*
X3271950Y4611080D02*
X3308850Y4574180D01*
X3244080Y4386580D02*
X3411220D01*
X3249220Y4317500D02*
X3267500Y4335780D01*
X2915000Y4317500D02*
X3249220D01*
X2870000Y4272500D02*
X2915000Y4317500D01*
X3267500Y4335780D02*
X3411220D01*
X2640000Y4195330D02*
X2680130Y4155200D01*
X3150330Y4365000D02*
X3165320Y4350000D01*
X3207500D01*
X3244080Y4386580D01*
X2640000Y4195330D02*
Y4310000D01*
X2695000Y4365000D01*
X3150330D01*
X2702500Y4272500D02*
X2870000D01*
X2695000Y4280000D02*
X2702500Y4272500D01*
X3303630Y4251130D02*
Y4261280D01*
X3245280Y4192780D02*
X3303630Y4251130D01*
X3245280Y4166000D02*
Y4192780D01*
X3229600Y4150320D02*
X3245280Y4166000D01*
X2962500Y4150320D02*
X3229600D01*
X2957830Y4155000D02*
X2962500Y4150320D01*
X2805000Y4155000D02*
X2957830D01*
X2747500Y4097500D02*
X2805000Y4155000D01*
X2652500Y4097500D02*
X2747500D01*
X2548750Y4403750D02*
X2756080Y4611080D01*
X3271950D01*
X2595000Y4155000D02*
X2652500Y4097500D01*
X2595000Y4155000D02*
Y4335000D01*
X2682500Y4422500D01*
X3329870Y4287520D02*
X3411220D01*
X3303630Y4261280D02*
X3329870Y4287520D01*
X3262720Y3637280D02*
X3411220D01*
X3200000Y3700000D02*
X3262720Y3637280D01*
X6012500Y1940000D02*
Y1950000D01*
Y1940000D02*
X6045200Y1907300D01*
Y1803400D02*
Y1907300D01*
X1802500Y1765000D02*
X2020000Y1982500D01*
Y2132500D01*
X2300000Y2412500D01*
X6327140Y2435860D02*
Y2445000D01*
X6145000Y2460000D02*
X6160000Y2445000D01*
X6200300Y2157200D02*
X6221360Y2136140D01*
X6200300Y2157200D02*
Y2157600D01*
X6160000Y2445000D02*
X6327140D01*
X1505000Y1490000D02*
X1637500Y1622500D01*
X2007500D01*
X2300000Y1915000D01*
Y2242500D01*
X2460000Y2402500D01*
X3411220Y4135120D02*
X3790120D01*
X3805000Y4150000D01*
X2460000Y2402500D02*
Y3870000D01*
X3411220Y4086860D02*
X3778140D01*
X3810000Y4055000D01*
X2527500Y1930000D02*
Y3797500D01*
X3200000Y867500D02*
X3250000D01*
X3512500Y605000D01*
X3860000D01*
X4005000Y750000D01*
X5140000D01*
X5312500Y922500D01*
X3292500Y915000D02*
X3350000Y857500D01*
X3055000Y915000D02*
X3292500D01*
X3007500Y867500D02*
X3055000Y915000D01*
X7153260Y3914240D02*
X7166520Y3927500D01*
X7167500D01*
X7120000Y3907830D02*
X7123260Y3904570D01*
X7093260Y3848260D02*
Y3892140D01*
X7090000Y3895400D02*
X7093260Y3892140D01*
X7123260Y3813260D02*
Y3904570D01*
X7090000Y3895400D02*
Y4180510D01*
X7120000Y3907830D02*
Y4168080D01*
X7195000Y4243080D01*
X7090000Y4180510D02*
X7140000Y4230510D01*
X6327140Y3835400D02*
X6550070D01*
X6615000Y3900330D01*
Y3930000D01*
X6792500Y4107500D01*
Y4830000D01*
X6880000Y3972500D02*
X6970000Y3882500D01*
X6494760Y4917740D02*
X6672420D01*
X6737500Y4982830D01*
Y5095000D01*
X6467260Y4887740D02*
X6684840D01*
X6867500Y5070400D01*
Y5197530D01*
X6489530Y4650000D02*
X6902500Y5062970D01*
Y5382500D01*
X6722500Y4522170D02*
Y4820000D01*
X6995000Y5092500D01*
X7005030D01*
X7157500Y5130000D02*
Y5227500D01*
X6880000Y4862170D02*
X6907820Y4890000D01*
X6917500D01*
X7157500Y5130000D01*
X6880000Y3972500D02*
Y4862170D01*
X6792500Y4830000D02*
X7115000Y5152500D01*
X7005030Y5092500D02*
X7050000Y5137470D01*
Y5212500D01*
X6985000Y5277500D02*
X7050000Y5212500D01*
X7115000Y5152500D02*
Y5217500D01*
X7127500Y5230000D01*
Y5247470D01*
X7152500Y5272470D01*
Y5642500D01*
X7167500Y5657500D01*
Y5767820D01*
X7070000Y5865330D02*
X7167500Y5767820D01*
X5143500Y1803400D02*
Y1971500D01*
X5025000Y2090000D02*
X5143500Y1971500D01*
X3812690Y4385210D02*
X3880540D01*
X3882830Y4387500D01*
X4790020D01*
X4790230Y4387710D01*
X6175360Y3787140D02*
X6327140D01*
X6040000Y3922500D02*
X6175360Y3787140D01*
X3644900Y4719320D02*
Y4882500D01*
X3247660Y4895240D02*
X3546360D01*
X3594100Y4847500D01*
Y4719320D02*
Y4847500D01*
X3500660Y5112500D02*
X3693160Y4920000D01*
Y4719320D02*
Y4920000D01*
X3290000Y4727500D02*
X3400000D01*
X2690000Y4867500D02*
X2709760Y4847740D01*
X3332260D01*
X3637500Y4542500D01*
X3940000D01*
X6190000Y4230000D02*
X6196720Y4236720D01*
X7795000Y840000D02*
X7810000D01*
X7900000Y750000D01*
X8217830Y6037500D02*
X8257170D01*
X8172820Y5992500D02*
X8217830Y6037500D01*
X6745340Y6088480D02*
X6798150D01*
X7030000Y9820000D02*
X7107500D01*
X7025000Y9825000D02*
X7030000Y9820000D01*
X7447340Y3844840D02*
X7725160D01*
X7985320Y4105000D01*
X6745340Y5988480D02*
X6921020D01*
X7290040Y6357500D01*
X8962500Y3662500D02*
X9172500Y3872500D01*
X7472500Y3392500D02*
Y3407500D01*
X7647500Y3582500D01*
X7022500Y3432500D02*
X7252500Y3662500D01*
X7022500Y2777500D02*
Y3432500D01*
Y2777500D02*
X7077500Y2722500D01*
X7252500Y3662500D02*
X8962500D01*
X7070000Y5865330D02*
Y6020000D01*
X7205000Y6155000D02*
X7209720D01*
X7247900Y6193180D01*
X7070000Y6020000D02*
X7205000Y6155000D01*
X7332470Y6357500D02*
X7352470Y6377500D01*
X7582470D01*
X7602470Y6357500D01*
X8417500D01*
X8765000Y6705000D01*
X7290040Y6357500D02*
X7332470D01*
X7229680Y6520000D02*
X8502500D01*
X6798150Y6088480D02*
X7229680Y6520000D01*
X6922500Y6342500D02*
Y6452500D01*
X7055000Y6585000D01*
X8497500D01*
X8695000Y6782500D01*
X7582500Y832500D02*
X7702500D01*
X7500000Y750000D02*
X7582500Y832500D01*
X8502500Y6520000D02*
X8720000Y6737500D01*
X8765000Y6705000D02*
X8872500D01*
X9172500Y6405000D01*
Y3872500D02*
Y6405000D01*
X7247900Y6193180D02*
X8353180D01*
X8782820Y6657500D02*
X8817500D01*
X6745340Y6388480D02*
X6827500Y6470640D01*
Y6512500D01*
X6937500Y6622500D01*
X7712500D01*
X7912500Y6822500D01*
X8100000Y750000D02*
Y819800D01*
X8672500Y1392290D01*
X7615000Y1015000D02*
Y1165000D01*
X7700000Y1250000D01*
X7932170D01*
X4643120Y1510620D02*
Y1803400D01*
X4597500Y1465000D02*
X4643120Y1510620D01*
X4597500Y1412500D02*
Y1465000D01*
X4182500Y800000D02*
X4190000Y807500D01*
X4100000Y800000D02*
X4182500D01*
X4594860Y1537360D02*
Y1803400D01*
X4550000Y1492500D02*
X4594860Y1537360D01*
X4550000Y1160000D02*
Y1492500D01*
Y1160000D02*
X4735230Y974770D01*
Y972550D02*
Y974770D01*
X4692500Y807500D02*
Y870000D01*
Y807500D02*
X4700000Y800000D01*
X4544060Y1569060D02*
Y1803400D01*
X4502500Y1527500D02*
X4544060Y1569060D01*
X4502500Y1100000D02*
Y1527500D01*
Y1100000D02*
X4582500Y1020000D01*
Y1012500D02*
Y1020000D01*
X4580000Y1010000D02*
X4582500Y1012500D01*
X4472500Y872760D02*
X4472720Y872540D01*
X4479740Y872760D02*
X4500000Y852500D01*
Y800000D02*
Y852500D01*
X4472500Y872760D02*
X4479740D01*
X4300000Y800000D02*
Y830000D01*
X4345000Y875000D01*
X4493260Y1638260D02*
Y1803400D01*
X4462500Y1607500D02*
X4493260Y1638260D01*
X4462500Y987500D02*
Y1607500D01*
X3350000Y857500D02*
X4255000D01*
X4320000Y922500D01*
X4755040D01*
X6040000Y3922500D02*
Y4155000D01*
X5280000Y4077830D02*
Y4115000D01*
Y4077830D02*
X5375330Y3982500D01*
X5494020Y4608480D02*
Y4719320D01*
X5507500Y4330000D02*
X5597500Y4420000D01*
X5162170Y4330000D02*
X5507500D01*
X5494020Y4608480D02*
X5512500Y4590000D01*
X5660000D01*
X5440260Y4092770D02*
X5707500Y4360000D01*
Y4542500D01*
X5660000Y4590000D02*
X5707500Y4542500D01*
X3922500Y4020000D02*
Y4102500D01*
X3735000Y4185920D02*
X3736580Y4187500D01*
X3837500D01*
X3411220Y4185920D02*
X3735000D01*
X3837500Y4187500D02*
X3922500Y4102500D01*
X3965000Y4222500D02*
X3967500D01*
X3987500Y4242500D01*
X6327140Y4485640D02*
X6328480Y4484300D01*
X6224980Y4287520D02*
X6327140D01*
X4235000Y3900000D02*
X4250000Y3915000D01*
X3707500Y3900000D02*
X4235000D01*
X3600000Y4007500D02*
X3707500Y3900000D01*
X3798200Y4262130D02*
X3825370D01*
X3947500Y4140000D01*
X4552500D01*
X4600000Y4187500D01*
X4974790Y4340210D02*
X5097500Y4217500D01*
Y4100000D02*
Y4217500D01*
X3902710Y4340210D02*
X4974790D01*
X3957500Y4290000D02*
X4812500D01*
X5002300Y4100200D01*
X5015250D01*
X3987500Y4242500D02*
X4788750D01*
X4991250Y4040000D01*
X5065000D01*
X6127500Y4385000D02*
X6224980Y4287520D01*
X6221440Y4536440D02*
X6327140D01*
X6172500Y4487500D02*
X6221440Y4536440D01*
X6260000Y4650000D02*
X6489530D01*
X6127500Y4385000D02*
Y4465330D01*
X6125000Y4467820D02*
X6127500Y4465330D01*
X6125000Y4467820D02*
Y4515000D01*
X6260000Y4650000D01*
X5437500Y2482500D02*
Y2692530D01*
X4207900Y3835400D02*
X4215000Y3842500D01*
X3411220Y3835400D02*
X4207900D01*
X6328480Y4484300D02*
X6631360D01*
X6327140Y4437380D02*
X6467380D01*
X6480000Y4450000D02*
X6485000D01*
X6435120Y4135120D02*
X6452820Y4152810D01*
Y4202500D01*
X6467380Y4437380D02*
X6480000Y4450000D01*
X6142500Y3395400D02*
X6145000Y3397900D01*
Y3430000D01*
X8234680Y2654680D02*
Y2802560D01*
X8107680Y2622680D02*
Y2802560D01*
X7599680Y2417500D02*
X7902500D01*
X8107680Y2622680D01*
X7353860Y2382500D02*
X7381360Y2355000D01*
X7935000D01*
X8234680Y2654680D01*
X6967500Y3377500D02*
Y3515000D01*
X6970560Y3620560D02*
Y3622980D01*
X6920000Y3570000D02*
X6970560Y3620560D01*
X6920000Y3390540D02*
Y3570000D01*
X6830480Y3301020D02*
X6920000Y3390540D01*
X7070560Y3622980D02*
X7080480D01*
X7045000Y3735000D02*
X7123260Y3813260D01*
X7121490Y3663990D02*
Y3686490D01*
X7142500Y3707500D01*
X7080480Y3622980D02*
X7121490Y3663990D01*
X7057500Y3697500D02*
X7117500Y3757500D01*
X7360000D01*
X7447340Y3844840D01*
X5643880Y1803400D02*
Y1901380D01*
X5832500Y2090000D01*
X5593080Y1803400D02*
Y1925580D01*
X5785000Y2117500D01*
X5344160Y1803400D02*
Y2101660D01*
X5394960Y1803400D02*
Y2089960D01*
X7792500Y750000D02*
X7797500Y755000D01*
X7700000Y750000D02*
X7792500D01*
X6327140Y2636520D02*
X6487500D01*
X6327140Y2535000D02*
Y2537460D01*
X6469670Y2535000D02*
X6497500Y2562830D01*
Y2567500D01*
X6327140Y2535000D02*
X6469670D01*
X6327140Y2486660D02*
X6463760D01*
X6533880Y2556780D01*
Y2557720D01*
X7565540Y1914460D02*
X7992180D01*
X8032710Y1955000D01*
X8517500D02*
X8540000Y1977500D01*
X8032710Y1955000D02*
X8517500D01*
X8402500Y2005000D02*
X8460000D01*
X6327140Y2585720D02*
X6450000D01*
X6117500Y2237500D02*
X6192500Y2312500D01*
Y2360000D01*
X5890000Y2080000D02*
Y2605000D01*
X5947500Y2055000D02*
Y2672500D01*
X5832500Y2090000D02*
Y2635000D01*
X5935000Y2737500D01*
Y4162500D01*
X5785000Y2117500D02*
Y2645000D01*
X5875000Y2735000D01*
Y4050000D01*
X7148710Y2584120D02*
X7582700D01*
X6942500Y2790320D02*
X7148710Y2584120D01*
X6942500Y2790320D02*
Y2802500D01*
X4526180Y2240000D02*
X4975000D01*
X2685090Y800000D02*
X2687630Y802540D01*
X2600000Y800000D02*
X2685090D01*
X2400000D02*
Y920000D01*
X1299480Y4411980D02*
X1320000Y4432500D01*
Y4482500D01*
X1303680Y4361180D02*
X1369840Y4427340D01*
Y4455160D01*
X8192500Y2215000D02*
X8402500Y2005000D01*
X7320000Y2215000D02*
X8192500D01*
X7290000Y2297500D02*
X8302830D01*
X8592830Y2007500D01*
X8622500D01*
X6533880Y2557720D02*
X6566160Y2590000D01*
X6890000D01*
X7565540Y1914460D01*
X6497500Y2567500D02*
X6560000Y2630000D01*
X6905000D01*
X7320000Y2215000D01*
X6327140Y2687320D02*
X6900180D01*
X7290000Y2297500D01*
X4755040Y922500D02*
X4807540Y975000D01*
X7575000D01*
X7615000Y1015000D01*
X5312500Y922500D02*
X7702500D01*
X8353180Y6193180D02*
X8592500Y6432500D01*
Y6467180D01*
X8782820Y6657500D01*
X8720000Y6737500D02*
X8920000D01*
X9247500Y6410000D01*
X8990000Y3582500D02*
X9247500Y3840000D01*
Y6410000D01*
X7647500Y3582500D02*
X8990000D01*
X8695000Y6782500D02*
X8957500D01*
X9382500Y6239680D02*
Y6357500D01*
X9362500Y6219680D02*
X9382500Y6239680D01*
X9362500Y6160320D02*
Y6219680D01*
Y6160320D02*
X9377500Y6145330D01*
Y4937170D02*
Y6145330D01*
X9341040Y4900710D02*
X9377500Y4937170D01*
X9341040Y4823640D02*
Y4900710D01*
Y4823640D02*
X9415000Y4749670D01*
Y4682500D02*
Y4749670D01*
X9397500Y4665000D02*
X9415000Y4682500D01*
X9397500Y3650000D02*
Y4665000D01*
X8957500Y6782500D02*
X9382500Y6357500D01*
X9547500Y3585000D02*
X9605000Y3527500D01*
Y3000000D02*
Y3527500D01*
X7912500Y6822500D02*
X8997500D01*
X9547500Y6272500D01*
Y3585000D02*
Y6272500D01*
X7384970Y6955000D02*
X7942500D01*
X8033790Y6863710D01*
X8510970D01*
X7919670Y6087500D02*
X7939680Y6067500D01*
X7619350Y5736850D02*
X7625000Y5742500D01*
X7478240Y5736850D02*
X7619350D01*
X8380000Y5562500D02*
X8395000Y5577500D01*
X7907500Y5562500D02*
X8380000D01*
X7910000Y5485000D02*
X8425000D01*
X8447500Y5507500D01*
X8317500Y4405000D02*
Y4408900D01*
X8290700Y4435700D02*
X8317500Y4408900D01*
X7474040Y4435700D02*
X8290700D01*
X3175000Y5162500D02*
X3225000Y5112500D01*
X3500660D01*
X2300000Y2412500D02*
Y4005000D01*
X2548750Y4253750D01*
Y4403750D01*
X9315000Y2390000D02*
Y2710000D01*
X9605000Y3000000D01*
X9244300Y2374300D02*
Y3496800D01*
X9397500Y3650000D01*
X4810000Y1955000D02*
X4843780Y1921220D01*
X4810000Y1955000D02*
Y1965000D01*
X3797180Y2837180D02*
X3850000Y2890000D01*
X5440260Y4062700D02*
Y4092770D01*
X1395000Y4112500D02*
X1473200Y4034300D01*
X1542500Y3974080D02*
Y4035000D01*
X1480000Y4097500D02*
X1542500Y4035000D01*
X6409550Y3036360D02*
X6657500Y3284310D01*
Y3637500D01*
X6755000Y3735000D01*
X7045000D01*
X6780000Y3697500D02*
X7057500D01*
X6677500Y3207500D02*
X6702500Y3232500D01*
Y3620000D01*
X6780000Y3697500D01*
X3400000Y4727500D02*
X3682500Y4445000D01*
X4950000D01*
X5280000Y4115000D01*
X3944180Y1786360D02*
Y2037310D01*
X4381860Y2475000D01*
X3994180Y1786360D02*
Y1913100D01*
X4436080Y2355000D01*
G54D55*
X1387500Y995000D02*
X1395000D01*
X1387500Y3344290D02*
X2062500Y4019290D01*
Y4620100D01*
X2054720Y4627880D02*
X2062500Y4620100D01*
X7535000Y2725000D02*
X7547500Y2712500D01*
X7535000Y2725000D02*
Y3007500D01*
X7542500Y3015000D01*
X6503100Y8243100D02*
X6540000Y8280000D01*
X6449060Y8243100D02*
X6503100D01*
X7668260Y2847480D02*
Y2907500D01*
X7980680Y3208180D02*
Y3343580D01*
X7547500Y2705000D02*
Y2712500D01*
X7787500Y3015000D02*
X7980680Y3208180D01*
X7542500Y3015000D02*
X7787500D01*
X7322500Y3235000D02*
Y3332500D01*
Y3235000D02*
X7542500Y3015000D01*
X1387500Y995000D02*
Y3344290D01*
G54D22*
X1360000Y717500D02*
X1632500D01*
X1751250Y598750D01*
Y568750D02*
Y598750D01*
X7617520Y2747480D02*
X7668260D01*
X7585000Y2780000D02*
X7617520Y2747480D01*
X7585000Y2780000D02*
Y2807500D01*
X7220220Y5809780D02*
X7284720D01*
X6490500Y2286000D02*
X6579400Y2197100D01*
X6327140Y2286000D02*
X6490500D01*
X4614380Y4914380D02*
Y4935220D01*
X4594860Y4894860D02*
X4614380Y4914380D01*
X4594860Y4719320D02*
Y4894860D01*
X7284720Y6145680D02*
X7355680D01*
X7307580Y5932640D02*
X7474040D01*
X7284720Y5909780D02*
X7307580Y5932640D01*
X7220220Y5909780D02*
X7284720D01*
X7297760Y6032640D02*
X7474040D01*
X7284720Y6045680D02*
X7297760Y6032640D01*
X7230000Y6050000D02*
X7280400D01*
X7284720Y6045680D01*
X7311860Y5782640D02*
X7474040D01*
X7284720Y5809780D02*
X7311860Y5782640D01*
X7302220Y5632640D02*
X7474040D01*
X7284720Y5615140D02*
X7302220Y5632640D01*
X7220000Y5610000D02*
X7279580D01*
X7284720Y5615140D01*
X7317220Y5482640D02*
X7474040D01*
X7284720Y5515140D02*
X7317220Y5482640D01*
X7304480Y5332640D02*
X7474040D01*
X7284720Y5312880D02*
X7304480Y5332640D01*
X7212880Y5312880D02*
X7284720D01*
X7212880Y5212880D02*
X7284720D01*
X7312620Y4632120D02*
X7474040D01*
X7284720Y4604220D02*
X7312620Y4632120D01*
X7297540Y3931080D02*
X7474040D01*
X7284720Y3918260D02*
X7297540Y3931080D01*
X6093460Y4719320D02*
Y4928400D01*
Y5028400D02*
Y5086540D01*
X5643880Y4719320D02*
Y4823880D01*
X5735320Y4915320D01*
Y4928400D01*
X5593080Y4719320D02*
Y4951880D01*
X5576720Y4968240D02*
X5593080Y4951880D01*
X5576720Y4968240D02*
Y5151120D01*
X5544820Y4719320D02*
Y4825180D01*
X5436720Y4933280D02*
X5544820Y4825180D01*
X5436720Y4933280D02*
Y4968240D01*
Y5151120D01*
X5095240Y4719320D02*
Y4855240D01*
X5114760Y4874760D01*
Y4935220D01*
X5044440Y4719320D02*
Y4855560D01*
X5014760Y4885240D02*
X5044440Y4855560D01*
X5014760Y4885240D02*
Y4935220D01*
X4614380D02*
X4669460Y4990300D01*
Y5133340D01*
X4469460Y5000540D02*
Y5133340D01*
Y5000540D02*
X4514380Y4955620D01*
Y4935220D02*
Y4955620D01*
Y4885620D02*
Y4935220D01*
Y4885620D02*
X4544060Y4855940D01*
Y4719320D02*
Y4855940D01*
X5576720Y5151120D02*
X5658880D01*
X5114760Y4935220D02*
Y5005240D01*
X5014760Y4935220D02*
Y5005240D01*
X3944620Y4719320D02*
Y4834620D01*
X3971760Y4861760D01*
Y4935220D01*
X3893820Y4719320D02*
Y4836180D01*
X3871760Y4858240D02*
X3893820Y4836180D01*
X3871760Y4858240D02*
Y4935220D01*
X3971760D02*
Y5008240D01*
X3293560Y4536440D02*
X3411220D01*
X3266420Y4563580D02*
X3293560Y4536440D01*
X3192780Y4563580D02*
X3266420D01*
X3295640Y4485640D02*
X3411220D01*
X3273580Y4463580D02*
X3295640Y4485640D01*
X3192780Y4463580D02*
X3273580D01*
X3133580Y4563580D02*
X3192780D01*
X3123580Y4483580D02*
X3143580Y4463580D01*
X3192780D01*
Y4097820D02*
X3212180D01*
X3273940Y4036060D01*
X3411220D01*
X3124740Y3985260D02*
X3411220D01*
X3053080Y4056920D02*
X3124740Y3985260D01*
X3053080Y4056920D02*
Y4097820D01*
X3142180D02*
X3192780D01*
X2972180D02*
X3053080D01*
X2982180Y4197820D02*
X3053080D01*
X2941760Y3205740D02*
Y3413680D01*
Y3205740D02*
X2942500Y3205000D01*
X2720780Y3300780D02*
Y3413680D01*
X2755000Y3205000D02*
X2842500D01*
X2867500Y3855000D02*
X2955000D01*
X2941760Y3583860D02*
Y3671760D01*
X3060000Y3750000D02*
X3223520Y3586480D01*
X3411220D01*
X2720780Y3583860D02*
Y3808280D01*
X2767500Y3855000D01*
X2872500Y3750000D01*
X3060000D01*
X2941760Y3413680D02*
X3189360D01*
X3192780Y3417100D01*
Y3517100D02*
X3257100D01*
X3275680Y3535680D01*
X3411220D01*
X3194520Y3235960D02*
X3411220D01*
X3192780Y3237700D02*
X3194520Y3235960D01*
X3122300Y3237700D02*
X3192780D01*
X3112300Y3137700D02*
X3192780D01*
X3276520Y2636520D02*
X3411220D01*
X3251920Y2611920D02*
X3276520Y2636520D01*
X3192780Y2611920D02*
X3251920D01*
X3140860Y2560000D02*
X3192780Y2611920D01*
X2974960Y2560000D02*
X3140860D01*
X2971800Y2556840D02*
X2974960Y2560000D01*
X2971800Y2756840D02*
X3147860D01*
X3192780Y2711920D01*
X3794760Y1803400D02*
Y1934760D01*
X3800000Y1940000D01*
X3275560Y3937000D02*
X3411220D01*
X3270000Y3931440D02*
X3275560Y3937000D01*
X3843020Y1803400D02*
Y1903020D01*
X3870000Y1930000D01*
X4145280Y1803400D02*
Y1924720D01*
X4140000Y1930000D02*
X4145280Y1924720D01*
X4744720Y1617180D02*
Y1803400D01*
X4722660Y1595120D02*
X4744720Y1617180D01*
X4722660Y1552660D02*
Y1595120D01*
X4702660Y1532660D02*
X4722660Y1552660D01*
X4702660Y1424940D02*
Y1532660D01*
X4792980Y1624800D02*
Y1803400D01*
Y1624800D02*
X4822660Y1595120D01*
Y1444940D02*
Y1595120D01*
Y1444940D02*
X4842660Y1424940D01*
X5443220Y1653220D02*
Y1803400D01*
X5418620Y1628620D02*
X5443220Y1653220D01*
X5418620Y1595120D02*
Y1628620D01*
X5494020Y1685980D02*
Y1803400D01*
Y1685980D02*
X5518620Y1661380D01*
Y1595120D02*
Y1661380D01*
X5418620Y1528620D02*
Y1595120D01*
X5518620Y1521380D02*
Y1595120D01*
X6093460Y1604480D02*
Y1803400D01*
X6084100Y1595120D02*
X6093460Y1604480D01*
X6084100Y1534100D02*
Y1595120D01*
X6184100D02*
X6240000D01*
X6679400Y2197100D02*
X6752900D01*
X6327140Y2387600D02*
X6437600D01*
X6558400Y2508400D01*
X6596380D01*
X6779260D01*
X6327140Y2336800D02*
X6564780D01*
X6596380Y2368400D01*
X6779260D01*
X6858400D01*
X6779260Y2300740D02*
Y2368400D01*
X6327140Y2936240D02*
X6531140D01*
X6543040Y2924340D01*
X6615660D01*
X6327140Y2987040D02*
X6457040D01*
X6494340Y3024340D01*
X6543040D01*
X6615660D01*
X6327140Y3586480D02*
X6446480D01*
X6476160Y3616160D01*
X6543040D01*
X6606160D01*
X6327140Y3535680D02*
X6444320D01*
X6463840Y3516160D01*
X6543040D01*
X6603840D01*
X6327140Y4036060D02*
X6443940D01*
X6468540Y4011460D01*
X6543040D01*
X6327140Y4086860D02*
X6518440D01*
X6543040Y4111460D01*
X6628540D01*
X6543040Y4011460D02*
X6628540D01*
X6910060Y8596140D02*
Y8842220D01*
X6908000Y8844280D02*
X6910060Y8842220D01*
X6808000Y8782000D02*
Y8844280D01*
X6670040Y8613920D02*
Y8844280D01*
Y8613920D02*
X6687820Y8596140D01*
X6670040Y8844280D02*
Y8909960D01*
X6504280Y8844280D02*
X6570040D01*
X6450800Y8341360D02*
X6687820D01*
X6449060Y8343100D02*
X6450800Y8341360D01*
X8661400Y6032640D02*
X8792360D01*
X8661400Y5932640D02*
X8856180D01*
X8872220Y5916600D01*
X8941600D01*
X8661400Y5782640D02*
X8838260D01*
X8872220Y5816600D01*
X8941600D01*
X8661400Y5482640D02*
X8850280D01*
X8872220Y5504580D01*
X8945420D01*
X8661400Y5632640D02*
X8844160D01*
X8872220Y5604580D01*
X8945420D01*
X8661400Y5332640D02*
X8842360D01*
X8661400Y4482260D02*
X8855740D01*
X8872220Y4498740D01*
X8661400Y4632120D02*
X8838840D01*
X8872220Y4598740D01*
Y4498740D02*
X8948740D01*
X8872220Y4598740D02*
X8948740D01*
X8661400Y4182540D02*
X8854480D01*
X8872220Y4164800D01*
X8661400Y4030140D02*
X8837560D01*
X8872220Y4064800D01*
X8939800D01*
X8661400Y3931080D02*
X8843920D01*
X3192780Y3137700D02*
X3227700D01*
X3275160Y3185160D01*
X3411220D01*
X3192780Y2711920D02*
X3248080D01*
X3272680Y2687320D01*
X3411220D01*
X7262360Y5537500D02*
X7284720Y5515140D01*
X7215000Y5537500D02*
X7262360D01*
X5735320Y4928400D02*
X5761220Y4902500D01*
X5797500D01*
X6126860Y4895000D02*
X6167500D01*
X6093460Y4928400D02*
X6126860Y4895000D01*
X5789420Y5082500D02*
X5800000D01*
X5735320Y5028400D02*
X5789420Y5082500D01*
X3871760Y4935220D02*
Y5008240D01*
X7328020Y4182540D02*
X7474040D01*
X7200760Y4139240D02*
X7284720D01*
X7328020Y4182540D01*
X7210760Y4039240D02*
X7284720D01*
X7293820Y4030140D01*
X7474040D01*
X7282500Y3950200D02*
X7284720Y3947980D01*
X7282500Y3950200D02*
Y3970000D01*
X7284720Y3918260D02*
Y3947980D01*
X8661400Y4332400D02*
X8780000D01*
X8872220Y4164800D02*
X8874320Y4162700D01*
X8937940D01*
X7284720Y4504220D02*
X7306680Y4482260D01*
X7474040D01*
X7204220Y4604220D02*
X7284720D01*
X7215780Y4504220D02*
X7284720D01*
X7211740Y3818260D02*
X7284720D01*
X4100000Y192500D02*
Y320000D01*
X4302500Y195000D02*
Y322500D01*
X4500000Y195000D02*
Y322500D01*
X4692500Y320000D02*
X4705000Y332500D01*
X4835000D01*
X2400000Y215000D02*
Y342500D01*
X2600000Y212500D02*
Y340000D01*
X2797500Y205000D02*
Y332500D01*
X3000000Y205000D02*
Y332500D01*
X8097500Y205000D02*
Y332500D01*
X7895000Y205000D02*
Y332500D01*
X7697500Y212500D02*
Y340000D01*
X7487500Y332500D02*
X7497500Y342500D01*
X7382500Y332500D02*
X7487500D01*
X3000000Y700000D02*
X3070000Y630000D01*
Y550000D02*
Y630000D01*
X3000000Y480000D02*
X3070000Y550000D01*
X2800000Y480000D02*
Y700000D01*
X2600000Y480000D02*
Y700000D01*
X2400000Y480000D02*
Y700000D01*
X7601840Y8609080D02*
Y8771980D01*
X7684300Y8854440D01*
X8175480Y8552960D02*
Y8917940D01*
Y8552960D02*
X8214360Y8514080D01*
X7871840D02*
X8214360D01*
X8069580Y8238960D02*
Y8369300D01*
X8214360Y8514080D01*
X8343120Y8385320D02*
X8420100D01*
X8214360Y8514080D02*
X8343120Y8385320D01*
X8310880Y8610600D02*
X8415820D01*
X8214360Y8514080D02*
X8310880Y8610600D01*
X8069580Y8064580D02*
Y8138960D01*
X8515100Y8165320D02*
X8895100D01*
X8898420Y8168640D01*
X8395480Y9012940D02*
X8462060D01*
X8515820Y8959180D01*
Y8610600D02*
Y8959180D01*
Y8166040D02*
Y8610600D01*
X8515100Y8165320D02*
X8515820Y8166040D01*
X8998420Y8168640D02*
Y8413420D01*
X9048280Y8463280D01*
X8882380D02*
X9048280D01*
X8831580Y8515840D02*
X9022080Y8706340D01*
X8831580Y8514080D02*
Y8515840D01*
X9148280Y8463280D02*
X9220780D01*
X9222500Y8465000D01*
X8927080Y8926340D02*
Y9183380D01*
X8927320Y9183620D01*
X8709660Y9374340D02*
X8926600D01*
X8709660Y8636000D02*
Y9274340D01*
Y8636000D02*
X8831580Y8514080D01*
X8882380Y8463280D01*
X8949220Y9396960D02*
Y9621520D01*
X8926600Y9374340D02*
X8949220Y9396960D01*
X7050000Y9125000D02*
X7100000Y9075000D01*
Y9000000D02*
Y9075000D01*
Y8850000D02*
Y8900000D01*
X7050000Y8800000D02*
X7100000Y8850000D01*
X2470000Y8470000D02*
X2560000D01*
X2234300D02*
X2470000D01*
X2227580Y8463280D02*
X2234300Y8470000D01*
X2227580Y7701280D02*
X2658720D01*
X2722500Y7637500D01*
Y7325000D02*
Y7637500D01*
X2607780Y7317740D02*
X2813520D01*
X2819400Y7311860D01*
X2230120Y7317740D02*
X2507780D01*
X2227580Y7320280D02*
X2230120Y7317740D01*
X2237740Y7183120D02*
X2507780D01*
X2227580Y7193280D02*
X2237740Y7183120D01*
X2607780D02*
X2683120D01*
X2819400Y7143100D02*
Y7211860D01*
X2227580Y7574280D02*
X2503220D01*
X2505000Y7572500D01*
X2605000Y7490000D02*
Y7572500D01*
X3081020Y8089100D02*
X3218180D01*
X3555970D01*
X3589030Y8056040D01*
X3154680Y7860500D02*
Y7983780D01*
X3160000Y7989100D01*
X3081020D02*
X3160000D01*
X3218180D01*
X2498560Y6456680D02*
X2642400D01*
Y6289040D02*
Y6456680D01*
X2742400Y6289040D02*
Y6456680D01*
X2980220D01*
X1473200Y3788200D02*
Y3904780D01*
X1397500Y3785000D02*
X1470000D01*
X1535500D01*
X1398700Y3683800D02*
X1536700D01*
X792500Y3685000D02*
X1397500D01*
X2980220Y6289980D02*
Y6372500D01*
Y6456680D01*
X7864640Y2584120D02*
Y2677860D01*
X7845000Y2697500D02*
X7864640Y2677860D01*
X7682700Y2584120D02*
X7864640D01*
X7845000Y2793880D02*
X7853680Y2802560D01*
X7964640Y2584120D02*
Y2786520D01*
X7980680Y2802560D01*
X7845000Y2697500D02*
Y2793880D01*
X7667500Y3197500D02*
Y3270000D01*
X7668260Y2747480D02*
X7748240Y2667500D01*
X7815000D01*
X7845000Y2697500D01*
X3053080Y4197820D02*
X3192780D01*
X3303980Y3886200D02*
X3411220D01*
X3292780Y3875000D02*
X3303980Y3886200D01*
X3247220Y3875000D02*
X3292780D01*
X3239720Y3882500D02*
X3247220Y3875000D01*
X3172500Y3875340D02*
Y3882500D01*
Y3875340D02*
X3172650Y3875190D01*
X3172500Y3882500D02*
X3239720D01*
X9903700Y5785320D02*
Y6078220D01*
Y5608700D02*
Y5685320D01*
X6917840Y9720000D02*
X7107500D01*
X6847300Y9649460D02*
X6917840Y9720000D01*
X8234680Y3200320D02*
Y3343580D01*
X6763780Y3081020D02*
X6826480D01*
X7200900Y3288400D02*
Y3301020D01*
X7110000Y3197500D02*
X7200900Y3288400D01*
Y2860040D02*
Y2936600D01*
X7162500Y2975000D02*
X7200900Y2936600D01*
X7268980Y3016020D02*
Y3081020D01*
Y3016020D02*
X7305000Y2980000D01*
X3589030Y8056040D02*
X3613960D01*
X3620840Y8049160D01*
X6579400Y2128100D02*
Y2197100D01*
Y2128100D02*
X6580000Y2127500D01*
X6910060Y8341360D02*
X6916140D01*
X7022500Y8235000D01*
X6807500Y3515000D02*
X6867500D01*
X6755000Y3567500D02*
X6807500Y3515000D01*
X3893820Y1696320D02*
Y1803400D01*
X3855000Y1657500D02*
X3893820Y1696320D01*
X3787500Y1657500D02*
X3855000D01*
X1002500Y3586480D02*
X1083980D01*
X1085000Y3587500D01*
X7601840Y8609080D02*
X7729080D01*
X7732500Y8612500D01*
G54D56*
X5837500Y4272500D02*
X6144260Y4579260D01*
X5790000Y4272500D02*
X5837500D01*
X5555000Y4037500D02*
X5790000Y4272500D01*
X2030000Y721560D02*
X2094960D01*
X1068900Y788200D02*
X1963360D01*
X948200Y786800D02*
X1067500D01*
X1963360Y788200D02*
X2030000Y721560D01*
X1067500Y786800D02*
X1068900Y788200D01*
X517500Y952500D02*
X1078200Y391800D01*
X1374970D01*
X1390450Y407280D02*
X1515850D01*
X1374970Y391800D02*
X1390450Y407280D01*
X3252500Y320000D02*
X3975000D01*
X3172500Y400000D02*
X3252500Y320000D01*
X2026000Y400000D02*
X3172500D01*
X2008890Y417120D02*
X2026000Y400000D01*
X1968960Y417120D02*
X2008890D01*
X1953640Y401800D02*
X1968960Y417120D01*
X1521330Y401800D02*
X1953640D01*
X1515850Y407280D02*
X1521330Y401800D01*
X4212500Y205000D02*
Y355000D01*
X4165000Y402500D02*
X4212500Y355000D01*
X3482500Y402500D02*
X4165000D01*
X3132500Y752500D02*
X3482500Y402500D01*
X2125910Y752500D02*
X3132500D01*
X2094960Y721560D02*
X2125910Y752500D01*
X547500Y1187500D02*
X948200Y786800D01*
X3297500Y2232500D02*
X3408520D01*
X3411220Y2235200D01*
X3995420Y4719320D02*
Y4831400D01*
X4019960Y4855940D01*
Y5042540D01*
X3407500Y5060000D02*
X3467400D01*
X3644900Y4882500D01*
X3271250Y5156250D02*
X3906250D01*
X4019960Y5042540D01*
X5443220Y4595200D02*
Y4719320D01*
X5793740Y4356260D02*
Y4719320D01*
X5687500Y4270000D02*
X5742940Y4325440D01*
Y4719320D01*
X5499120Y4539300D02*
X5643200D01*
X5443220Y4595200D02*
X5499120Y4539300D01*
X5643200D02*
X5676800Y4505700D01*
Y4396800D02*
Y4505700D01*
X5385000Y4105000D02*
X5676800Y4396800D01*
X5375270Y4049730D02*
X5385000Y4040000D01*
Y4105000D01*
X3315210Y2987040D02*
X3411220D01*
X3299960Y2971800D02*
X3315210Y2987040D01*
X2591800Y2971800D02*
X3299960D01*
X2577500Y2957500D02*
X2591800Y2971800D01*
X3059260Y3286760D02*
X3411220D01*
X3025000Y3252500D02*
X3059260Y3286760D01*
X3025000Y3157500D02*
Y3252500D01*
X2997500Y3130000D02*
X3025000Y3157500D01*
X2580000Y3130000D02*
X2997500D01*
X3952500Y3947500D02*
X4175000D01*
X4245000Y4017500D01*
X4257500D01*
X5793740Y4356260D02*
X5817500Y4332500D01*
X6144260Y4579260D02*
Y4719320D01*
X4687500Y4207500D02*
X4772500D01*
X4648200Y4167540D02*
Y4168200D01*
X4687500Y4207500D01*
X4498170Y4017500D02*
X4648200Y4167540D01*
X4257500Y4017500D02*
X4498170D01*
X4947500Y3265000D02*
Y4032500D01*
X4772500Y4207500D02*
X4947500Y4032500D01*
X3182500Y5245000D02*
X3271250Y5156250D01*
G54D28*
X3877500Y7660000D02*
Y7715000D01*
X3980000Y7817500D01*
X3990000Y7660000D02*
Y7715000D01*
X4037500Y7865000D02*
Y7920000D01*
X3877500Y7282500D02*
Y7337500D01*
X3982500Y7280000D02*
Y7335000D01*
X3875000Y7487500D02*
Y7542500D01*
X3987500Y7482500D02*
Y7537500D01*
X2372500Y9985000D02*
X2427500D01*
X2372500Y9835000D02*
X2427500D01*
X2372500Y9485000D02*
X2427500D01*
X2372500Y9335000D02*
X2427500D01*
X2372500Y8985000D02*
X2427500D01*
X2372500Y8825000D02*
X2427500D01*
X3410000Y6446060D02*
Y6510000D01*
X3290000Y5400000D02*
X3353940D01*
X3586060Y5420000D02*
X3650000D01*
X2416060Y5140000D02*
X2480000D01*
X2416060Y4990000D02*
X2480000D01*
X2416060Y4700000D02*
X2480000D01*
X2416060Y4550000D02*
X2480000D01*
X962500Y3393560D02*
Y3457500D01*
X993560Y3360000D02*
X1057500D01*
X998560Y3252500D02*
X1062500D01*
X965000Y3172500D02*
Y3236440D01*
X2972500Y2806060D02*
Y2870000D01*
X2975000Y2445000D02*
Y2508940D01*
X4701060Y5135000D02*
X4765000D01*
X4375000D02*
X4438940D01*
X3474720Y6390780D02*
X3540000Y6456060D01*
Y6520000D01*
X3410000Y5323940D02*
X3442500Y5291440D01*
Y5240000D02*
Y5291440D01*
G54D29*
X4705000Y1335000D02*
Y1422600D01*
X4702660Y1424940D02*
X4705000Y1422600D01*
X4845000Y1335000D02*
Y1422600D01*
X4842660Y1424940D02*
X4845000Y1422600D01*
X2227580Y8209280D02*
X2461780D01*
G54D27*
X2227580Y8082280D02*
X2417720D01*
X2425000Y8075000D01*
X2660000Y8470000D02*
X2720000D01*
X9425000Y9825000D02*
X9525000D01*
G54D57*
X3620840Y7995560D02*
Y8049160D01*
G54D58*
X2998420Y6118410D02*
Y6139180D01*
X5542470Y6788950D02*
X5545010D01*
X5594540Y6838480D01*
G54D54*
X8817500Y1510000D02*
X8867930Y1500070D01*
G54D22*
X6877776Y5722821D02*
X6942276D01*
G54D28*
X1062500Y3252500D02*
X1057500Y3360000D01*
X967121Y3318453D02*
X1031061D01*
M02*
