*
%FSLAX45Y45*%
%MOMM*%
%ADD10C,1.500000*%
%ADD11R,1.500000X1.500000*%
%ADD12C,0.500000*%
%ADD13C,0.150000*%
%ADD14C,0.200000*%
%ADD15C,0.164000*%
%IPPOS*%
%LNcryptech_28032016.in5*%
%LPD*%
%SRX1Y1I0J0*%
G01*
G75*
G54D10*
X7490460Y1125220D03*
Y1379220D03*
X9903700Y2862580D03*
Y3116580D03*
Y2354580D03*
Y2608580D03*
G54D11*
X1649920Y3335020D03*
X8784700Y3370580D03*
G54D12*
X8622920Y1570080D03*
X8557500Y1520000D03*
X5462770Y4422720D03*
X4742730Y4140200D03*
X5395000Y4420000D03*
X8279770Y592500D03*
X1395000Y995000D03*
X7725000Y1670000D03*
X4240000Y3150000D03*
X6917500Y3280000D03*
X7612500Y1675000D03*
X7030000Y2087500D03*
X5042750Y3145150D03*
X5092500Y3100000D03*
X4800230Y3112650D03*
X5452770Y3695180D03*
X7052500Y1677500D03*
X8784700Y3737800D03*
X3780000Y2532500D03*
X4590000Y3237500D03*
X3865000Y2515000D03*
X4592500Y3165000D03*
X3002650Y942550D03*
X2923830Y945000D03*
X5412500Y3595000D03*
X5392500Y3660000D03*
X4425000Y1655000D03*
X6957500Y2700000D03*
X4945570Y7890510D03*
Y7989570D03*
X5344350Y7489190D03*
X7845000Y4785000D03*
X7647180Y4626510D03*
X8487910Y6047800D03*
X6237500Y5787500D03*
X7670000Y4950000D03*
X5744020Y5888480D03*
X7615000Y4080000D03*
X7829040Y5029040D03*
X5245290Y6688950D03*
X5143690Y7489190D03*
X6445340Y6488480D03*
X5745340Y5988480D03*
X5344350Y5988950D03*
X4945570Y6188950D03*
X5443410Y5888950D03*
X5143690Y5988950D03*
X5344350Y5888950D03*
X6445340Y6188480D03*
X4744910Y6288950D03*
X5245290Y5888950D03*
X5044630Y5988950D03*
X5544540Y5788480D03*
X5745340D03*
X5845340D03*
X5443410Y5788950D03*
X4843970Y6088950D03*
X4945570Y5988950D03*
X4744910Y6188950D03*
X6245340Y5888480D03*
X6645340Y6288480D03*
X5245290Y5788950D03*
X6045340Y5788480D03*
X4744910Y6088950D03*
X6445340Y5988480D03*
X6145340Y5788480D03*
X5143690Y5788950D03*
X5044630D03*
X6745340Y6288480D03*
X6545340Y5988480D03*
Y5888480D03*
X4744910Y7890510D03*
X4544250Y6088950D03*
X4843970Y7989570D03*
X4643310Y5888950D03*
X4744910Y7989570D03*
X5143690Y5888950D03*
X7670000Y5180000D03*
X7610000Y5230000D03*
X6345340Y5888480D03*
X7760000Y5050000D03*
X5544540Y5988480D03*
X5443410Y5988950D03*
X5344350Y6088950D03*
X7290000Y4900000D03*
X7640000Y4190000D03*
X8182500Y4907500D03*
X8395000Y4432500D03*
X8185000Y4722500D03*
X5297500Y4540000D03*
X5230000Y4490000D03*
X5187500Y4595000D03*
X7625380Y5086460D03*
X7695380Y4310210D03*
X8240000Y4160000D03*
X8475410Y5675280D03*
X8407500Y5655000D03*
X7722880Y5390260D03*
X7810380Y5407760D03*
X7887500Y5365000D03*
X8447500Y5507500D03*
X5390000Y2610000D03*
X5372500Y2355000D03*
X5770000Y3195000D03*
X6165300Y5325260D03*
X7742500Y4840000D03*
X6672500Y3905000D03*
X4975000Y2237500D03*
X8485000Y4347500D03*
X7710000Y4007500D03*
X7890380Y4667730D03*
X7345000Y4687500D03*
X7632500Y4387500D03*
X7690000Y4795000D03*
X7622830Y4817500D03*
X7860380Y5095250D03*
X9388540Y4881040D03*
X4462500Y4577500D03*
X7195000Y4342500D03*
X6952500Y4347500D03*
X7830000Y3732500D03*
X5220000Y2355000D03*
X8317500Y4405000D03*
X7022840Y4225210D03*
X3030000Y7307500D03*
X7045000Y9912500D03*
X5645000Y6692500D03*
X8845000Y6437500D03*
X6502500Y3765660D03*
X6185000Y3637500D03*
X7167500Y3927500D03*
X6617500Y3820000D03*
X6927500Y4842500D03*
X3957500Y4290000D03*
X3902500Y4340000D03*
X3812690Y4385210D03*
X4907500Y4287500D03*
X8352500Y6267500D03*
X8435000Y6912500D03*
X6937500Y6132500D03*
X3965000Y4222500D03*
X4600000Y4187500D03*
X4215000Y3842500D03*
X4202500Y3742500D03*
X6185000Y3725000D03*
X6197500Y3560000D03*
X6942500Y2802500D03*
X5777780Y2855140D03*
X5827500Y2812940D03*
X2687630Y802540D03*
X5370000Y3727500D03*
X5277500Y3730000D03*
X5192500D03*
X5105000Y3727500D03*
X5550000Y3695000D03*
X5600000Y3642500D03*
X2400000Y920000D03*
X3027650Y1947600D03*
X1049820Y5270000D03*
X8640000Y6432500D03*
X5982500Y2735000D03*
X6917500Y1757500D03*
X6725000Y4160000D03*
G54D13*
X8622920Y1555720D02*
Y1570080D01*
Y1555720D02*
X8656820Y1521820D01*
X8614430Y1500570D02*
X8625000Y1490000D01*
X8589680Y1500570D02*
X8614430D01*
X8570250Y1520000D02*
X8589680Y1500570D01*
X8557500Y1520000D02*
X8570250D01*
X8625000Y1345000D02*
Y1490000D01*
X8656820Y1313180D02*
Y1521820D01*
X8573360Y1229720D02*
X8656820Y1313180D01*
X7594960Y1229720D02*
X8573360D01*
X7490460Y1125220D02*
X7594960Y1229720D01*
X8554720Y1274720D02*
X8625000Y1345000D01*
X7594960Y1274720D02*
X8554720D01*
X7490460Y1379220D02*
X7594960Y1274720D01*
X7725000Y1670000D02*
Y1672500D01*
X3547500Y3480000D02*
X3877500Y3150000D01*
X4240000D01*
X6663160Y3025660D02*
X6917500Y3280000D01*
X6663160Y3004660D02*
Y3025660D01*
X6635330Y2976840D02*
X6663160Y3004660D01*
X6573160Y2976840D02*
X6635330D01*
X6456750Y2860430D02*
X6573160Y2976840D01*
X5783080Y2860430D02*
X6456750D01*
X5777780Y2855140D02*
X5783080Y2860430D01*
X4445000Y2499670D02*
X4502500Y2442170D01*
X4894300Y3356800D02*
X5269300D01*
X5497500Y3585000D01*
Y3650450D01*
X5452770Y3695180D02*
X5497500Y3650450D01*
X5550000Y3570000D02*
Y3695000D01*
X4590000Y3237500D02*
X4855000D01*
X4900000Y3282500D01*
Y3284670D01*
X4927830Y3312500D01*
X5292500D01*
X5550000Y3570000D01*
X4915150Y3112650D02*
X5000000Y3197500D01*
X5781250Y3266250D02*
X6025000Y3510000D01*
X5705320Y3197500D02*
X5774070Y3266250D01*
X5000000Y3197500D02*
X5705320D01*
X5774070Y3266250D02*
X5781250D01*
X4830000Y2295000D02*
Y2844680D01*
X6025000Y3510000D02*
X6147500D01*
X4800230Y3112650D02*
X4915150D01*
X8784700Y3370580D02*
Y3737800D01*
X2697500Y792500D02*
X3015000D01*
X3877500Y1655000D01*
X4425000D01*
X2923830Y945000D02*
Y1713830D01*
X2400000Y920000D02*
X2793750Y1313750D01*
Y1713700D01*
X3027650Y1947600D01*
X2923830Y1713830D02*
X3502500Y2292500D01*
Y2309680D01*
X3725330Y2532500D01*
X3780000D01*
X4619680Y3387500D02*
X4712500D01*
X4612170Y3395000D02*
X4619680Y3387500D01*
X4572820Y3395000D02*
X4612170D01*
X3002650Y942550D02*
Y1425220D01*
X3057650Y1480220D01*
Y1744820D01*
X3170330Y1857500D01*
X3214680D01*
X3865000Y2507830D01*
Y2515000D01*
X4842500Y3520700D02*
X5253200D01*
X4762260Y3440460D02*
X4842500Y3520700D01*
X5253200D02*
X5392500Y3660000D01*
X9825000Y1972500D02*
X9945000D01*
X10065000Y1807500D02*
Y2955280D01*
X9903700Y3116580D02*
X10065000Y2955280D01*
X9903700Y2862580D02*
X10035000Y2731280D01*
Y2062500D02*
Y2731280D01*
X9945000Y1972500D02*
X10035000Y2062500D01*
X9903700Y2608580D02*
X10002500Y2509780D01*
Y2282500D02*
Y2509780D01*
X9935000Y2215000D02*
X10002500Y2282500D01*
X6837980Y2215000D02*
X9935000D01*
X6597980Y1975000D02*
X6837980Y2215000D01*
X6054670Y1975000D02*
X6597980D01*
X6014680Y2015000D02*
X6054670Y1975000D01*
X5007500Y2015000D02*
X6014680D01*
X4750000Y2272500D02*
X5007500Y2015000D01*
X5032180Y2227500D02*
X5550330D01*
X5932350Y2262500D02*
X5947350Y2277500D01*
X5585320Y2262500D02*
X5932350D01*
X5550330Y2227500D02*
X5585320Y2262500D01*
X9802360Y2253240D02*
X9903700Y2354580D01*
X6756020Y2253240D02*
X9802360D01*
X6731760Y2277500D02*
X6756020Y2253240D01*
X5947350Y2277500D02*
X6731760D01*
X4994680Y2190000D02*
X5032180Y2227500D01*
X4935000Y2190000D02*
X4994680D01*
X4830000Y2295000D02*
X4935000Y2190000D01*
X4745000Y3507500D02*
X4810040Y3572540D01*
X5225040D01*
X5370000Y3717500D01*
Y3727500D01*
X4720000Y3545000D02*
X4792500Y3617500D01*
X5175000D01*
X4570000Y3660000D02*
X5122500D01*
X4557500Y3727500D02*
X5105000D01*
X6147500Y3510000D02*
X6197500Y3560000D01*
X5175000Y3617500D02*
X5277500Y3720000D01*
Y3730000D01*
X5122500Y3660000D02*
X5192500Y3730000D01*
X6775000Y2517500D02*
X6957500Y2700000D01*
X5885000Y2517500D02*
X6775000D01*
X5827500Y2575000D02*
X5885000Y2517500D01*
X5827500Y2575000D02*
Y2812940D01*
X4945570Y7890510D02*
X4977460D01*
X5024950Y7938010D01*
X5060250D01*
X5096190Y7973950D01*
Y8009250D01*
X5319450Y8232500D01*
X5467530D01*
X6135000Y8899970D01*
Y9225000D01*
X6272500Y9362500D01*
X6917500Y9785000D02*
X7045000Y9912500D01*
X6800000Y9785000D02*
X6917500D01*
X6725000Y9710000D02*
X6800000Y9785000D01*
X6272500Y9362500D02*
X6552500D01*
X6725000Y9535000D01*
Y9710000D01*
X4843970Y6088950D02*
Y6120180D01*
X4898070Y6174270D01*
Y6208630D01*
X4925890Y6236450D01*
X4960250D01*
X4997130Y6273330D01*
Y6308630D01*
X5024950Y6336450D01*
X5059300D01*
X5096190Y6373330D01*
Y6408630D01*
X5124020Y6436450D01*
X5158360D01*
X5197790Y6475880D01*
Y6508630D01*
X5225610Y6536450D01*
X5260250D01*
X5278790Y6555000D01*
X5311130D01*
X5324670Y6541450D01*
X5364030D01*
X5395910Y6573340D01*
Y6608630D01*
X5423740Y6636450D01*
X5458080D01*
X5497040Y6675400D01*
Y6708150D01*
X5524860Y6735980D01*
X5601520D02*
X5645000Y6692500D01*
X5524860Y6735980D02*
X5601520D01*
X5292790Y7437630D02*
X5344350Y7489190D01*
X5225610Y7437630D02*
X5292790D01*
X5197790Y7409810D02*
X5225610Y7437630D01*
X5197790Y7377060D02*
Y7409810D01*
X5156760Y7336030D02*
X5197790Y7377060D01*
X5124020Y7336030D02*
X5156760D01*
X5096190Y7308200D02*
X5124020Y7336030D01*
X5096190Y7272910D02*
Y7308200D01*
X5060250Y7236970D02*
X5096190Y7272910D01*
X5024950Y7236970D02*
X5060250D01*
X4997130Y7209150D02*
X5024950Y7236970D01*
X4997130Y7173850D02*
Y7209150D01*
X4961190Y7137910D02*
X4997130Y7173850D01*
X4925890Y7137910D02*
X4961190D01*
X4898070Y7110090D02*
X4925890Y7137910D01*
X4898070Y7077340D02*
Y7110090D01*
X4857040Y7036310D02*
X4898070Y7077340D01*
X4824330Y7036310D02*
X4857040D01*
X4796500Y7008480D02*
X4824330Y7036310D01*
X4796500Y6973240D02*
Y7008480D01*
X4659710Y6836450D02*
X4796500Y6973240D01*
X4623640Y6836450D02*
X4659710D01*
X4595810Y6808630D02*
X4623640Y6836450D01*
X4595810Y6773340D02*
Y6808630D01*
X4557790Y6735320D02*
X4595810Y6773340D01*
X4525190Y6735320D02*
X4557790D01*
X4497360Y6707500D02*
X4525190Y6735320D01*
X4497360Y6652330D02*
Y6707500D01*
X4120030Y6275000D02*
X4497360Y6652330D01*
X4117470Y6275000D02*
X4120030D01*
X3782500Y5940030D02*
X4117470Y6275000D01*
X5092130Y7437630D02*
X5143690Y7489190D01*
X5024950Y7437630D02*
X5092130D01*
X4997130Y7409810D02*
X5024950Y7437630D01*
X4997130Y7374510D02*
Y7409810D01*
X4958640Y7336030D02*
X4997130Y7374510D01*
X4925890Y7336030D02*
X4958640D01*
X4898070Y7308200D02*
X4925890Y7336030D01*
X4898070Y7275450D02*
Y7308200D01*
X4859590Y7236970D02*
X4898070Y7275450D01*
X4824300Y7236970D02*
X4859590D01*
X4796470Y7209150D02*
X4824300Y7236970D01*
X4796470Y7173850D02*
Y7209150D01*
X4760530Y7137910D02*
X4796470Y7173850D01*
X4725230Y7137910D02*
X4760530D01*
X4697410Y7110090D02*
X4725230Y7137910D01*
X4697410Y7077340D02*
Y7110090D01*
X4656390Y7036310D02*
X4697410Y7077340D01*
X4623640Y7036310D02*
X4656390D01*
X4595810Y7008480D02*
X4623640Y7036310D01*
X4595810Y6973190D02*
Y7008480D01*
X4894010Y7938010D02*
X4945570Y7989570D01*
X4824300Y7938010D02*
X4894010D01*
X4796470Y7910190D02*
X4824300Y7938010D01*
X4796470Y7874890D02*
Y7910190D01*
X4757980Y7836410D02*
X4796470Y7874890D01*
X4725230Y7836410D02*
X4757980D01*
X4697410Y7808590D02*
X4725230Y7836410D01*
X4697410Y7567410D02*
Y7808590D01*
X4736910Y7890510D02*
X4744910D01*
X4682810Y7836410D02*
X4736910Y7890510D01*
X4623640Y7836410D02*
X4682810D01*
X4595810Y7808590D02*
X4623640Y7836410D01*
X4595810Y7565810D02*
Y7808590D01*
X4693820Y7938480D02*
X4744910Y7989570D01*
X4812080D02*
X4843970D01*
X4764590Y8037070D02*
X4812080Y7989570D01*
X4623640Y8037070D02*
X4764590D01*
X4579060Y7992500D02*
X4623640Y8037070D01*
X3957500Y4290000D02*
Y4375000D01*
X4885120Y4309880D02*
Y4360000D01*
Y4309880D02*
X4907500Y4287500D01*
X3217500Y5277180D02*
X3295160Y5199520D01*
Y4832340D02*
Y5199520D01*
X3360000Y4837900D02*
Y5325000D01*
Y4837900D02*
X3812690Y4385210D01*
X3515000Y4750080D02*
X3902500Y4362580D01*
Y4340000D02*
Y4362580D01*
X3560000Y4772500D02*
X3957500Y4375000D01*
X3740000Y5355000D02*
X3742500D01*
X3782500Y5252500D02*
Y5940030D01*
X3737500Y5207500D02*
X3782500Y5252500D01*
X3737500Y4822500D02*
Y5207500D01*
Y4822500D02*
X4060000Y4500000D01*
Y3912830D02*
Y4500000D01*
X4355120Y6732500D02*
X4595810Y6973190D01*
X4280000Y5957500D02*
X4411450Y6088950D01*
X4280000Y5620000D02*
Y5957500D01*
Y5620000D02*
X4415000Y5485000D01*
X4411450Y6088950D02*
X4544250D01*
X4415000Y5360000D02*
Y5485000D01*
Y5360000D02*
X4490000Y5285000D01*
Y4755120D02*
Y5285000D01*
Y4755120D02*
X4885120Y4360000D01*
X4019260Y3858240D02*
Y4390740D01*
X3295160Y4832340D02*
X3905000Y4222500D01*
X3965000D01*
X3742500Y5355000D02*
Y6005000D01*
X3820000Y6082500D01*
X3660000Y5997500D02*
X3755000Y6092500D01*
X3660000Y5580000D02*
Y5997500D01*
X3560000Y5480000D02*
X3660000Y5580000D01*
X3560000Y4772500D02*
Y5480000D01*
X3515000Y4750080D02*
Y6027500D01*
X3360000Y5325000D02*
X3430000Y5395000D01*
X1649920Y3335020D02*
X1794900Y3480000D01*
X4600000Y4147500D02*
Y4187500D01*
X1794900Y3480000D02*
X3547500D01*
X4060000Y3912830D02*
X4177830Y3795000D01*
X6323960Y4058960D02*
X6673960D01*
X6725330Y4110330D01*
Y4160000D01*
X6872500Y2732500D02*
X6942500Y2802500D01*
X4600000Y4147500D02*
X4802500Y3945000D01*
X6210000D01*
X6323960Y4058960D01*
X4177830Y3795000D02*
X4380000D01*
X4445000Y3860000D01*
X6408160D01*
X6502500Y3765660D01*
X4202500Y3742500D02*
X4390000D01*
X4467500Y3820000D01*
X6090000D01*
X6185000Y3725000D01*
X4187500Y3690000D02*
X4427500D01*
X4520000Y3782500D01*
X6040000D01*
X4019260Y3858240D02*
X4187500Y3690000D01*
X6040000Y3782500D02*
X6182500Y3640000D01*
X6185000Y3637500D01*
X6182500Y3640000D02*
X6205000D01*
X1049820Y5270000D02*
X2027500Y6247680D01*
Y6284020D01*
X3030000Y7286520D01*
Y7307500D01*
X5982500Y2735000D02*
X5985000Y2732500D01*
X6872500D01*
X4215000Y6640030D02*
X4307470Y6732500D01*
X4215000Y6640000D02*
Y6640030D01*
X3820000Y6245000D02*
X4215000Y6640000D01*
X4307470Y6732500D02*
X4355120D01*
X3820000Y6082500D02*
Y6245000D01*
X4290000Y7140000D02*
X4477500Y7327500D01*
X4257470Y7140000D02*
X4290000D01*
X3755000Y6092500D02*
Y6637530D01*
X4257470Y7140000D01*
X4670750Y7540750D02*
X4697410Y7567410D01*
X4591750Y7510000D02*
X4622500Y7540750D01*
X4591750Y7451750D02*
Y7510000D01*
X4577630Y7437630D02*
X4591750Y7451750D01*
X4524580Y7437630D02*
X4577630D01*
X4477500Y7390550D02*
X4524580Y7437630D01*
X4622500Y7540750D02*
X4670750D01*
X4477500Y7327500D02*
Y7390550D01*
X4567500Y7537500D02*
X4595810Y7565810D01*
X4410000Y7537500D02*
X4567500D01*
X4300000Y7857500D02*
X4380980Y7938480D01*
X4693820D01*
X4082500Y7817500D02*
X4257500Y7992500D01*
X4082500Y7485000D02*
Y7817500D01*
X4015000Y7417500D02*
X4082500Y7485000D01*
X4257500Y7992500D02*
X4579060D01*
X4300000Y7492500D02*
Y7857500D01*
X3515000Y6027500D02*
X3697500Y6210000D01*
Y6825000D01*
X4410000Y7537500D01*
X3655000Y6232500D02*
Y6847500D01*
X3430000Y6007500D02*
X3655000Y6232500D01*
Y6847500D02*
X4300000Y7492500D01*
X3430000Y5395000D02*
Y6007500D01*
X3887830Y7417500D02*
X4015000D01*
X3337500Y5582500D02*
Y6867180D01*
X3887830Y7417500D01*
X3217500Y5462500D02*
X3337500Y5582500D01*
X3217500Y5277180D02*
Y5462500D01*
X3657500Y4752500D02*
X4019260Y4390740D01*
X3657500Y4752500D02*
Y5272500D01*
X3740000Y5355000D01*
X4287500Y3457500D02*
X4557500Y3727500D01*
X4327500Y3417500D02*
X4570000Y3660000D01*
X4585320Y3300000D02*
X4837500D01*
X4535000Y2580000D02*
Y3249670D01*
X4585320Y3300000D01*
X4490000Y3312170D02*
X4572820Y3395000D01*
X4445000Y2499670D02*
Y3327500D01*
X4557960Y3440460D01*
X4762260D01*
X4407500Y3357500D02*
X4557500Y3507500D01*
X4745000D01*
X4370000Y3390000D02*
X4525000Y3545000D01*
X4720000D01*
X4837500Y3300000D02*
X4894300Y3356800D01*
X4982180Y3232500D02*
X5292500D01*
X5600000Y3540000D01*
Y3642500D01*
X4592500Y3165000D02*
X4914680D01*
X4982180Y3232500D01*
X4750000Y2272500D02*
Y2852410D01*
X5042750Y3145150D01*
X5085320Y3100000D02*
X5092500D01*
X4830000Y2844680D02*
X5085320Y3100000D01*
X4535000Y2580000D02*
X4577500Y2537500D01*
X4490000Y2527500D02*
Y3312170D01*
Y2527500D02*
X4540000Y2477500D01*
X4577500Y2370000D02*
Y2537500D01*
X4540000Y2160000D02*
Y2477500D01*
X4577500Y2370000D02*
X5052410Y1895100D01*
X6837600D01*
X7030000Y2087500D01*
X7945860Y1909460D02*
X7985210D01*
X8032170Y1862500D01*
X9715000D02*
X9825000Y1972500D01*
X4502500Y2137500D02*
Y2442170D01*
X8032170Y1862500D02*
X9715000D01*
X4540000Y2160000D02*
X4847500Y1852500D01*
X7888910D01*
X7945860Y1909460D01*
X4502500Y2137500D02*
X4830000Y1810000D01*
X8334960Y1762860D02*
X8374310D01*
X4830000Y1810000D02*
X8287830D01*
X8334960Y1762860D01*
X9450000Y1722500D02*
X9980000D01*
X10065000Y1807500D01*
X4407500Y2165000D02*
Y3357500D01*
Y2165000D02*
X4802500Y1770000D01*
X6917500D01*
Y1757500D02*
Y1770000D01*
X7045000Y1685000D02*
X7052500Y1677500D01*
X4827500Y1685000D02*
X7045000D01*
X4370000Y2142500D02*
X4827500Y1685000D01*
X4370000Y2142500D02*
Y3390000D01*
X6279800Y1622500D02*
X7560000D01*
X6259670Y1642620D02*
X6279800Y1622500D01*
X5317300Y1642620D02*
X6259670D01*
X5264680Y1590000D02*
X5317300Y1642620D01*
X4852500Y1590000D02*
X5264680D01*
X4327500Y2115000D02*
X4852500Y1590000D01*
X7560000Y1622500D02*
X7612500Y1675000D01*
X4327500Y2115000D02*
Y3417500D01*
X6137750Y1547620D02*
X7600120D01*
X6103780Y1581600D02*
X6137750Y1547620D01*
X5349100Y1581600D02*
X6103780D01*
X5310000Y1542500D02*
X5349100Y1581600D01*
X4842500Y1542500D02*
X5310000D01*
X4287500Y2097500D02*
X4842500Y1542500D01*
X7600120Y1547620D02*
X7725000Y1672500D01*
X4287500Y2097500D02*
Y3457500D01*
X8374310Y1762860D02*
X8406460Y1795000D01*
X9377500D01*
X9450000Y1722500D01*
G54D14*
X3215710Y617500D02*
X3223210Y610000D01*
X1772500Y617500D02*
X3215710D01*
X1395000Y995000D02*
X1772500Y617500D01*
X3223210Y610000D02*
X8262270D01*
X8279770Y592500D01*
G54D15*
X5241840Y4427500D02*
X5285250Y4470920D01*
X5273170Y4205000D02*
X5462770Y4394600D01*
X5285250Y4470920D02*
X5482730D01*
X5510970Y4402750D02*
Y4442680D01*
X5482730Y4470920D02*
X5510970Y4442680D01*
X5508200Y4356800D02*
Y4399980D01*
X5510970Y4402750D01*
X5462770Y4394600D02*
Y4422720D01*
X4689330Y4125430D02*
X4825470Y3989300D01*
X4689330Y4125430D02*
Y4315670D01*
X4751830Y4149300D02*
X5348200D01*
X4742730Y4140200D02*
X4751830Y4149300D01*
X5322470Y4371800D02*
X5370660Y4420000D01*
X5395000D01*
X4712500Y3387500D02*
X4882500D01*
X6297470Y3479300D02*
X6617500Y3799340D01*
X6054300Y3479300D02*
X6297470D01*
X5770000Y3195000D02*
X6054300Y3479300D01*
X8912500Y5147500D02*
X9120700Y5355700D01*
X8912500Y5070700D02*
Y5147500D01*
X8881250Y5039450D02*
X8912500Y5070700D01*
X4795770Y6271640D02*
Y6308910D01*
X4761280Y6237150D02*
X4795770Y6271640D01*
Y6308910D02*
X4824010Y6337150D01*
X4860340D01*
X4897370Y6374190D01*
Y6408910D01*
X4925610Y6437150D01*
X5245290Y6688950D02*
X5293490Y6737150D01*
X5360720D01*
X8510700Y5183200D02*
Y5277470D01*
X8440000Y5112500D02*
X8510700Y5183200D01*
X8482470Y5305700D02*
X8510700Y5277470D01*
X8193200Y5236800D02*
Y5357460D01*
X8320000Y4892500D02*
Y5110000D01*
X8193200Y5236800D02*
X8320000Y5110000D01*
X5203200Y5186800D02*
X5780000Y4610000D01*
X5245290Y5214710D02*
X5797500Y4662500D01*
X5410000Y5110000D02*
X5815000Y4705000D01*
X5827500Y4752500D02*
X6753750D01*
X5839330Y4792500D02*
X6712500D01*
X5492500Y5139330D02*
X5839330Y4792500D01*
X6700000Y4842500D02*
X6788750Y4931250D01*
X7810000Y4760000D02*
X7832500Y4782500D01*
X7810000Y4720000D02*
Y4760000D01*
X7794730Y4409560D02*
Y4657190D01*
X7695380Y4310210D02*
X7794730Y4409560D01*
X7696370Y4908200D02*
X7875000D01*
X7689970Y4901800D02*
X7696370Y4908200D01*
X7647180Y4626510D02*
X7650000Y4629340D01*
Y4635000D01*
X7930700Y6916800D02*
X8165700D01*
X7820320Y6955700D02*
X7908010Y6868010D01*
X8120510D01*
X8717500Y4762500D02*
Y6190000D01*
X8098200Y6809300D02*
X8717500Y6190000D01*
X7742880Y6809300D02*
X8098200D01*
X5175400Y5750610D02*
X5191890Y5767100D01*
X5175400Y5444600D02*
X5203200Y5416800D01*
X5206800Y5730400D02*
X5245290Y5768890D01*
X5206800Y5465990D02*
X5245290Y5427500D01*
X5206800Y5465990D02*
Y5730400D01*
X5175400Y5444600D02*
Y5750610D01*
X5345000Y5465000D02*
X5410000Y5400000D01*
X5345000Y5465000D02*
Y5716280D01*
X5296150Y5765130D02*
X5345000Y5716280D01*
X5245290Y5214710D02*
Y5427500D01*
X5203200Y5186800D02*
Y5416800D01*
X5245290Y5768890D02*
Y5788950D01*
X7824300Y6056800D02*
X7862500Y6095000D01*
X7292500Y6140000D02*
X7375700Y6056800D01*
X7824300D01*
X7843810Y6022500D02*
X7874510Y5991800D01*
X7342500Y6022500D02*
X7843810D01*
X7265000Y6100000D02*
X7342500Y6022500D01*
X6880000Y5792500D02*
X7076880Y5989380D01*
X7035000Y5892500D02*
X7100480Y5957980D01*
X7862500Y6095000D02*
X7913170D01*
X7606360Y5857980D02*
X7623080Y5841260D01*
X7187980Y5857980D02*
X7606360D01*
X7859680Y6733200D02*
X8091800D01*
X7913170Y6095000D02*
X7948200Y6059970D01*
X7117500Y6231800D02*
X7903200D01*
X7562820Y6378200D02*
X7584220Y6356800D01*
X7326720Y6378200D02*
X7562820D01*
X7112620Y6236680D02*
X7117500Y6231800D01*
X7063880Y6193880D02*
X7858690D01*
X7082500Y6140000D02*
X7292500D01*
X7112500Y6100000D02*
X7265000D01*
X8505700Y5961800D02*
X8667500Y5800000D01*
X8505700Y5961800D02*
Y5969960D01*
X8476070Y5999590D02*
X8505700Y5969960D01*
X6493540Y6404840D02*
X6525380Y6436680D01*
X6493540Y6268510D02*
Y6404840D01*
X6465740Y6240710D02*
X6493540Y6268510D01*
X6465740Y6208880D02*
Y6240710D01*
X6445340Y6188480D02*
X6465740Y6208880D01*
X6525380Y6136680D02*
X6934180D01*
X6497140Y6108440D02*
X6525380Y6136680D01*
X6497140Y6072110D02*
Y6108440D01*
X6445340Y6020310D02*
X6497140Y6072110D01*
X6445340Y5988480D02*
Y6020310D01*
X6493540Y6004840D02*
X6525380Y6036680D01*
X6493540Y5968510D02*
Y6004840D01*
X7029680Y5539300D02*
X7090320D01*
X7003980Y5565000D02*
X7029680Y5539300D01*
X6840000Y5067500D02*
X6882500Y5110000D01*
X6497140Y6221320D02*
X6512500Y6236680D01*
X6497140Y6172110D02*
Y6221320D01*
X6465310Y6140280D02*
X6497140Y6172110D01*
X6428980Y6140280D02*
X6465310D01*
X6397140Y6108440D02*
X6428980Y6140280D01*
X6397140Y5940280D02*
Y6108440D01*
X6345340Y5888480D02*
X6397140Y5940280D01*
X6345340Y5888480D02*
X6350980D01*
X7741480Y6810700D02*
X7742880Y6809300D01*
X7584220Y6810700D02*
X7741480D01*
X7555320Y6781800D02*
X7584220Y6810700D01*
X7335700Y6781800D02*
X7555320D01*
X7384680Y6955700D02*
X7820320D01*
X6815000Y5627500D02*
X6968520D01*
X6750000Y5692500D02*
X6815000Y5627500D01*
X6760030Y5735000D02*
X6817530Y5792500D01*
X7157500Y5827500D02*
X7187980Y5857980D01*
X6968520Y5627500D02*
X7035700Y5694680D01*
X7035000Y5756020D02*
Y5892500D01*
Y5756020D02*
X7035700Y5755320D01*
Y5694680D02*
Y5755320D01*
X6817530Y5792500D02*
X6880000D01*
X6850690Y5838190D02*
X7112500Y6100000D01*
X6492500Y5967470D02*
X6493540Y5968510D01*
X6492500Y5941320D02*
Y5967470D01*
Y5941320D02*
X6545340Y5888480D01*
X5410000Y5110000D02*
Y5400000D01*
X7670000Y4950000D02*
X7680000Y4960000D01*
X7615000Y4027500D02*
Y4080000D01*
X6677180Y6288480D02*
X6728980Y6340280D01*
X6645340Y6288480D02*
X6677180D01*
X4925610Y5837150D02*
X4961940D01*
X4996430Y5871640D01*
Y6008910D01*
X5028260Y6040750D01*
X5265250D01*
X5344350Y5857120D02*
X5392550Y5808910D01*
X5344350Y5857120D02*
Y5888950D01*
X5296150Y5765130D02*
Y5806250D01*
X5245290Y5857120D02*
X5296150Y5806250D01*
X5245290Y5857120D02*
Y5888950D01*
X7610000Y5170000D02*
Y5230000D01*
X5051400Y5268600D02*
Y5451400D01*
X5143690Y5543690D01*
Y5788950D01*
X5191890Y5767100D02*
Y5808910D01*
X5143690Y5857120D02*
X5191890Y5808910D01*
X5143690Y5857120D02*
Y5888950D01*
Y5988950D02*
X5192640Y5940000D01*
X5095490Y5765490D02*
Y5938090D01*
X5020000Y5690000D02*
X5095490Y5765490D01*
X5020000Y5240000D02*
Y5690000D01*
X5044630Y5974630D02*
Y5988950D01*
X5524850Y5840000D02*
X5567880D01*
X5589720Y5940280D02*
X5650000Y5880000D01*
X5504650Y5940280D02*
X5589720D01*
X5455980Y5988950D02*
X5504650Y5940280D01*
X5491610Y5873240D02*
X5524850Y5840000D01*
X5491610Y5873240D02*
Y5908910D01*
X5443410Y5866590D02*
X5496340Y5813660D01*
X5443410Y5866590D02*
Y5888950D01*
X5044630Y5988950D02*
X5095490Y5938090D01*
X5317060Y5988950D02*
X5344350D01*
X5265250Y6040750D02*
X5317060Y5988950D01*
X5496340Y5483660D02*
Y5813660D01*
X7910000Y5010000D02*
Y5181840D01*
X7860000Y4960000D02*
X7910000Y5010000D01*
X7680000Y4960000D02*
X7860000D01*
X7760000Y5050000D02*
Y5175590D01*
X7829040Y5029040D02*
X7808200Y5049880D01*
X5392550Y5467450D02*
Y5808910D01*
X5443410Y5476590D02*
Y5788950D01*
X4897370Y5551150D02*
Y5808910D01*
X4925610Y5837150D01*
X5192640Y5940000D02*
X5460530D01*
X5491610Y5908910D01*
X5443410Y5988950D02*
X5455980D01*
X7309960Y4948200D02*
X7310670Y4947500D01*
X7265700Y4948200D02*
X7309960D01*
X7379340Y5067500D02*
X7590040Y5278200D01*
X7346250Y5120000D02*
X7541350Y5315100D01*
X6788750Y4931250D02*
X6916250D01*
X7147500Y5162500D01*
X7316420D02*
X7500420Y5346500D01*
X6901020Y4987500D02*
X7178200Y5264680D01*
X7232850D01*
X7233160Y5265000D01*
X7362500D02*
X7475400Y5377900D01*
X7427500Y5390000D02*
X7446800Y5409300D01*
X7572500Y4190000D02*
X7640000D01*
X7495000Y4112500D02*
X7572500Y4190000D01*
X7495000Y3985000D02*
Y4112500D01*
X7552500Y4015000D02*
Y4105000D01*
X7577500Y4130000D01*
X7667500D01*
X6767500Y4987500D02*
X6901020D01*
X5745340Y5988480D02*
X5797140Y6040280D01*
X5544540Y5988480D02*
X5635980D01*
X5677500Y6030000D01*
X7875000Y4908200D02*
X7955000Y4988200D01*
X8132500Y4777500D02*
X8235000Y4880000D01*
Y4997500D01*
X8096800Y5135700D02*
X8235000Y4997500D01*
X4795770Y5705770D02*
Y5918270D01*
X4815000Y5937500D01*
X4894120D01*
X4945570Y5988950D01*
Y6005570D01*
X4996430Y6056430D01*
X8185000Y4757500D02*
X8320000Y4892500D01*
X4592500Y5838140D02*
X4643310Y5888950D01*
Y5894190D01*
X4597500Y5940000D02*
X4643310Y5894190D01*
X8185000Y4722500D02*
Y4757500D01*
X5066560Y4984330D02*
Y5050940D01*
Y4984330D02*
X5067500Y4983400D01*
X4966560Y4903440D02*
Y5073440D01*
X5187500Y4595000D02*
Y4682500D01*
X4966560Y4903440D02*
X5187500Y4682500D01*
X4696710Y5908910D02*
X4728540Y5940750D01*
X4764880D01*
X4793110Y5968980D01*
Y6037150D01*
X4744910Y6085350D02*
X4793110Y6037150D01*
X4744910Y6085350D02*
Y6088950D01*
X7610000Y5170000D02*
X7649300Y5130700D01*
X7636080Y5038260D02*
X7645340D01*
X7673580Y5066490D01*
Y5106420D01*
X7649300Y5130700D02*
X7673580Y5106420D01*
X7704980Y5053490D02*
Y5145020D01*
X7670000Y5180000D02*
X7704980Y5145020D01*
X4178200Y5414680D02*
Y5518200D01*
X7632500Y4290000D02*
Y4387500D01*
Y4290000D02*
X7705000Y4217500D01*
X7948200Y6026800D02*
Y6059970D01*
X7258470Y5503470D02*
X7445000Y5690000D01*
X7983750Y5566920D02*
X8193200Y5357460D01*
X7100480Y5957980D02*
X7724520D01*
X7744840Y5937660D01*
X7770500D01*
X7076880Y5989380D02*
X7763190D01*
X7874510Y5991800D02*
X7920700D01*
X8396800Y5515700D01*
X7903200Y6231800D02*
X8459720Y5675280D01*
X8475410D01*
X8407500Y5645070D02*
Y5655000D01*
X4744910Y6188950D02*
X4775800D01*
X4824010Y6237150D01*
X5360720Y6637150D02*
X5395210Y6671650D01*
Y6708910D01*
X5423450Y6737150D01*
X5459780D01*
X5494270Y6771650D01*
Y6808910D01*
X7286480Y6857500D02*
X7384680Y6955700D01*
X4996430Y6056430D02*
Y6108910D01*
X5024670Y6137150D01*
X5261660D01*
X4945570Y6188950D02*
X4976460D01*
X5028260Y6240750D01*
X7237000Y6288480D02*
X7326720Y6378200D01*
X7095000Y6380000D02*
X7250000Y6535000D01*
X6525380Y6436680D02*
X6906680D01*
X7055000Y6585000D01*
X6941680Y6536680D02*
X7037500Y6632500D01*
X6992780Y6640280D02*
X7016400Y6663900D01*
X6997500Y6690000D02*
X7165000Y6857500D01*
X7286480D01*
X7482500Y7170000D02*
X8105000D01*
X8837500Y6437500D01*
X7813780Y5938790D02*
X7898710D01*
X8120000Y5717500D01*
X7763190Y5989380D02*
X7813780Y5938790D01*
X7770500Y5937660D02*
X7800780Y5907380D01*
X7875120D01*
X8075000Y5707500D01*
Y5607500D02*
Y5707500D01*
Y5607500D02*
X8400000Y5282500D01*
X7623080Y5841260D02*
X7883740D01*
X8026910Y5698090D01*
Y5591910D02*
Y5698090D01*
Y5591910D02*
X8353750Y5265080D01*
X8096800Y5135700D02*
Y5385700D01*
X7932540Y6535000D02*
X8467950Y5999590D01*
X8476070D01*
X7584220Y6356800D02*
X7958870D01*
X8622500Y5693160D01*
X7445000Y5690000D02*
Y5700000D01*
X7537500Y5792500D01*
X7669340D01*
X7720570Y5741260D01*
X7760500D01*
X7761740Y5742500D01*
X7905000D01*
X7983750Y5663750D01*
X7302500Y5467500D02*
X7529300Y5694300D01*
X7875700D01*
X7945000Y5625000D01*
X7391860Y5430000D02*
X7616860Y5655000D01*
X7775000D01*
X7841800Y5588200D01*
X7446800Y5409300D02*
X7639970D01*
X8057500Y5032500D02*
X8182500Y4907500D01*
X7983750Y5566920D02*
Y5663750D01*
X7945000Y5537500D02*
X8096800Y5385700D01*
X7945000Y5537500D02*
Y5625000D01*
X7841800Y5550000D02*
X7845000D01*
X8057500Y5337500D01*
X7841800Y5550000D02*
Y5588200D01*
X8057500Y5032500D02*
Y5337500D01*
X7590040Y5278200D02*
X7629970D01*
X7500420Y5346500D02*
X7654070D01*
X7689910Y5310660D01*
X7719340D01*
X7541350Y5315100D02*
X7641060D01*
X7676900Y5279260D01*
X7700740D01*
X7808200Y5171800D01*
X7687730Y5247860D02*
X7760000Y5175590D01*
X7660300Y5247860D02*
X7687730D01*
X7475400Y5377900D02*
X7667080D01*
X7702910Y5342060D01*
X7629970Y5278200D02*
X7660300Y5247860D01*
X7639970Y5409300D02*
X7669130Y5438460D01*
X7722880Y5390260D02*
X7747240D01*
X7955000Y4988200D02*
Y5182500D01*
X7233160Y5265000D02*
X7362500D01*
X7147500Y5162500D02*
X7316420D01*
X7180000Y5120000D02*
X7346250D01*
X7200000Y5067500D02*
X7379340D01*
X7702910Y5342060D02*
X7749770D01*
X7910000Y5181840D01*
X7747240Y5390260D02*
X7955000Y5182500D01*
X7669130Y5438460D02*
X7779680D01*
X7810380Y5407760D01*
X7887500Y5360000D02*
X8017500Y5230000D01*
X7887500Y5360000D02*
Y5365000D01*
X7948200Y6026800D02*
X8447500Y5527500D01*
Y5507500D02*
Y5527500D01*
X8396800Y5490030D02*
Y5515700D01*
X6879180Y5936680D02*
X7082500Y6140000D01*
X5544540Y5643980D02*
Y5788480D01*
Y5643980D02*
X5650700Y5537820D01*
X6567500Y3567960D02*
X6626130D01*
X6718520Y5565000D02*
X7003980D01*
X6721800Y5139300D02*
Y5195320D01*
X6690320Y5536800D02*
X6718520Y5565000D01*
X6545340Y5988480D02*
X6597140Y5936680D01*
X6879180D01*
X6629680Y5536800D02*
X6690320D01*
X6730000Y5280000D02*
X6892500Y5442500D01*
X6777230Y5405700D02*
X6875000Y5503470D01*
X7258470D01*
X7090320Y5539300D02*
X7157500Y5606480D01*
Y5827500D01*
X6475000Y5343460D02*
X6580960D01*
X6643200Y5405700D01*
X6777230D01*
X6578520Y5253520D02*
X6605000Y5280000D01*
X6730000D01*
X6692500Y5110000D02*
X6721800Y5139300D01*
X5996360Y4954300D02*
X6555600D01*
X6592860Y4917040D01*
X6697040D01*
X6767500Y4987500D01*
X7858690Y6193880D02*
X8407500Y5645070D01*
X5344350Y6088950D02*
X5392550Y6137150D01*
X5744020Y5888480D02*
X5748480D01*
X5800000Y5940000D01*
X6275000D01*
X6297140Y5917860D01*
Y5868510D02*
Y5917860D01*
Y5868510D02*
X6325380Y5840280D01*
X6327910D01*
X6330000Y5838190D01*
X6850690D01*
X5650000Y5225000D02*
Y5330000D01*
X5602500Y5177500D02*
X5650000Y5225000D01*
X5817460Y4950700D02*
X5845700Y4922470D01*
Y4891800D02*
Y4922470D01*
Y4891800D02*
X5895000Y4842500D01*
X5496340Y5483660D02*
X5650000Y5330000D01*
X5895000Y4842500D02*
X6700000D01*
X5681400Y5223600D02*
X5774300Y5130700D01*
X5819960D01*
X5996360Y4954300D01*
X5650700Y5389300D02*
Y5537820D01*
Y5389300D02*
X5681400Y5358600D01*
Y5223600D02*
Y5358600D01*
X5617880Y5654620D02*
Y5790000D01*
Y5654620D02*
X5697500Y5575000D01*
Y5427500D02*
Y5575000D01*
Y5427500D02*
X5767500Y5357500D01*
X5817500D01*
X6025000Y5000000D02*
X6565000D01*
X6632500Y5067500D01*
X5567880Y5840000D02*
X5617880Y5790000D01*
X6632500Y5067500D02*
X6840000D01*
X5650000Y5695000D02*
Y5880000D01*
Y5695000D02*
X5745000Y5600000D01*
X5805000D01*
X6046660Y5038340D02*
X6548340D01*
X6620000Y5110000D01*
X6692500D01*
X5852500Y5172500D02*
X6025000Y5000000D01*
X5852500Y5172500D02*
Y5322500D01*
X5817500Y5357500D02*
X5852500Y5322500D01*
X5895000Y5190000D02*
X6046660Y5038340D01*
X5895000Y5190000D02*
Y5510000D01*
X5805000Y5600000D02*
X5895000Y5510000D01*
X5936800Y5208200D02*
X5980000Y5165000D01*
X6102500D01*
X6182500Y5085000D01*
X6492500D01*
X6574620Y5167120D01*
Y5233070D02*
X6578520Y5236970D01*
X6574620Y5167120D02*
Y5233070D01*
X6578520Y5236970D02*
Y5253520D01*
X6362500Y5152500D02*
X6417500Y5207500D01*
Y5285960D01*
X5845340Y5788480D02*
X5974410Y5659410D01*
X6417500Y5285960D02*
X6475000Y5343460D01*
X6507880Y5415000D02*
X6629680Y5536800D01*
X6045340Y5484660D02*
Y5788480D01*
X6237500Y5787500D02*
X6290000Y5735000D01*
X6760030D01*
X6240660Y5693160D02*
X6661840D01*
X6662500Y5692500D01*
X6750000D01*
X6145340Y5788480D02*
X6240660Y5693160D01*
X6197140Y5840280D02*
X6245340Y5888480D01*
X6122780Y5840280D02*
X6197140D01*
X6093540Y5811040D02*
X6122780Y5840280D01*
X6093540Y5767470D02*
Y5811040D01*
X6092500Y5766430D02*
X6093540Y5767470D01*
X6092500Y5746020D02*
Y5766430D01*
Y5746020D02*
X6291020Y5547500D01*
X6167500Y5152500D02*
X6362500D01*
X6045340Y5484660D02*
X6116400Y5413600D01*
X6297500Y5355000D02*
X6397500D01*
X6457500Y5415000D01*
X6507880D01*
X6165300Y5325260D02*
Y5327800D01*
X6626130Y3567960D02*
X6665660Y3607500D01*
X7985000Y3800000D02*
X8107500Y3922500D01*
X8122940Y4341170D02*
X8127500Y4336610D01*
X7970000Y3842500D02*
X8057500Y3930000D01*
X7850000Y4862500D02*
X7882500D01*
X8017500Y4997500D01*
Y5230000D01*
X6665660Y3689410D02*
X7173750Y4197500D01*
X6665660Y3607500D02*
Y3689410D01*
X7173750Y4197500D02*
X7212500D01*
X8485000Y4347500D02*
Y4355000D01*
X8283740Y4604930D02*
X8290310Y4611500D01*
X8296750Y4573530D02*
X8303320Y4580100D01*
X7716800Y4865700D02*
X7742500Y4840000D01*
X6871840Y4340000D02*
X7241800Y4709970D01*
X7364230Y4901800D02*
X7689970D01*
X7262030Y4814600D02*
X7277030D01*
X7364230Y4901800D01*
X7210400Y4762970D02*
X7262030Y4814600D01*
X7241800Y4749960D02*
X7275040Y4783200D01*
X7241800Y4709970D02*
Y4749960D01*
X7210400Y4747900D02*
Y4762970D01*
X7187500Y4240000D02*
X7694300Y4746800D01*
X7734300D01*
X7850000Y4862500D01*
X7412500Y5027500D02*
X7471460Y5086460D01*
X7625380D01*
X7245000Y4987500D02*
X7432500D01*
X7483260Y5038260D01*
X7636080D01*
X7310670Y4947500D02*
X7460000D01*
X7510500Y4998000D01*
X7649500D01*
X7704980Y5053490D01*
X7860380Y5095250D02*
Y5169620D01*
X7719340Y5310660D02*
X7860380Y5169620D01*
X8754180Y4698320D02*
Y5321680D01*
X8877500Y5445000D01*
Y5956840D01*
X8908200Y5987540D01*
X8488360Y4432500D02*
X8754180Y4698320D01*
X7195000Y4342500D02*
X7237500D01*
X7690000Y4795000D01*
X7230000Y4397500D02*
X7622830Y4790330D01*
Y4817500D01*
X7345000Y4676830D02*
Y4687500D01*
X7220580Y4552420D02*
X7345000Y4676830D01*
X7195820Y4552420D02*
X7220580D01*
X7045000Y4401600D02*
X7195820Y4552420D01*
X7172500Y4397500D02*
X7230000D01*
X7002880Y4273410D02*
X7048410D01*
X7172500Y4397500D01*
X9388540Y4870380D02*
Y4881040D01*
X8913860Y4395700D02*
X9388540Y4870380D01*
X8885470Y4395700D02*
X8913860D01*
X8828200Y4338430D02*
X8885470Y4395700D01*
X8828200Y4312440D02*
Y4338430D01*
X8248270Y3732500D02*
X8828200Y4312440D01*
X7830000Y3732500D02*
X8248270D01*
X5220000Y2355000D02*
X5304340D01*
X5352530Y2403200D01*
X7212500Y4197500D02*
X7650000Y4635000D01*
X7250000Y6535000D02*
X7932540D01*
X7055000Y6585000D02*
X7950710D01*
X8487910Y6047800D01*
X8485000Y4355000D02*
X8881250Y4751250D01*
Y5039450D01*
X8317500Y4405000D02*
Y4445900D01*
X8395000Y4432500D02*
X8488360D01*
X7185000Y4087500D02*
X7225000D01*
X7145000Y4047500D02*
X7185000Y4087500D01*
X7710000Y4007500D02*
X7713200Y4010700D01*
X7773200D01*
X8322760Y4510730D02*
X8329330Y4517300D01*
X8320730Y4510730D02*
X8322760D01*
X8237500Y4427500D02*
X8320730Y4510730D01*
X8309750Y4542130D02*
X8316320Y4548700D01*
X8260060Y4542130D02*
X8309750D01*
X8122940Y4405000D02*
X8260060Y4542130D01*
X8122940Y4341170D02*
Y4405000D01*
X8317500Y4445900D02*
X8354100Y4482500D01*
X8437500D01*
X8717500Y4762500D01*
X8248390Y4667730D02*
X8353750Y4773090D01*
X7890380Y4667730D02*
X8248390D01*
X8353750Y4773090D02*
Y5265080D01*
X8270730Y4636330D02*
X8400000Y4765590D01*
Y5282500D01*
X8290310Y4611500D02*
X8311500D01*
X8440000Y4740000D01*
Y5112500D01*
X8303320Y4580100D02*
X8340100D01*
X8577500Y4817500D01*
X8316320Y4548700D02*
X8366200D01*
X8622500Y4805000D01*
Y5693160D01*
X8329330Y4517300D02*
X8399800D01*
X8667500Y4785000D01*
Y5800000D01*
X8084900Y4437400D02*
X8221030Y4573530D01*
X8296750D01*
X8037500Y4457500D02*
X8184930Y4604930D01*
X8283740D01*
X8151330Y4636330D02*
X8270730D01*
X8107500Y3922500D02*
Y4110000D01*
X8237500Y4240000D01*
Y4427500D01*
X8057500Y3930000D02*
Y4120000D01*
X8127500Y4190000D01*
Y4336610D01*
X8022500Y3950000D02*
Y4145000D01*
X8084900Y4207400D01*
Y4437400D01*
X7975000Y4157500D02*
X8037500Y4220000D01*
Y4457500D01*
X7773200Y4010700D02*
X7992500Y4230000D01*
Y4477500D01*
X8151330Y4636330D01*
X7975000Y4096750D02*
Y4157500D01*
X8120000Y5639330D02*
X8453630Y5305700D01*
X8120000Y5639330D02*
Y5717500D01*
X8453630Y5305700D02*
X8482470D01*
X8494340Y5392500D02*
X8545000D01*
X8577500Y5360000D01*
X8396800Y5490030D02*
X8494340Y5392500D01*
X8577500Y4817500D02*
Y5360000D01*
X7794730Y4657190D02*
X7915040Y4777500D01*
X8132500D01*
X7152500Y4240000D02*
X7187500D01*
X7631840Y4560000D02*
X7650000D01*
X7810000Y4720000D01*
X7225000Y4087500D02*
X7257500Y4120000D01*
Y4185670D01*
X7631840Y4560000D01*
X7275040Y4783200D02*
X7303200D01*
X7385700Y4865700D01*
X7716800D01*
X7045000Y4362500D02*
Y4401600D01*
X7022840Y4157180D02*
Y4225210D01*
X6940700Y4258200D02*
X7045000Y4362500D01*
X6666840Y3905000D02*
X6672500D01*
X6603630Y3968200D02*
X6666840Y3905000D01*
X5602500Y5125000D02*
Y5177500D01*
Y5125000D02*
X5776800Y4950700D01*
X5817460D01*
X5443410Y5476590D02*
X5492500Y5427500D01*
X5455000Y5125000D02*
X5827500Y4752500D01*
X5455000Y5125000D02*
Y5405000D01*
X5392550Y5467450D02*
X5455000Y5405000D01*
X5936800Y5208200D02*
Y5597020D01*
X5745340Y5788480D02*
X5936800Y5597020D01*
X6085000Y5235000D02*
X6167500Y5152500D01*
X6202500Y5260000D02*
X6297500Y5355000D01*
X6116400Y5293600D02*
Y5413600D01*
Y5293600D02*
X6150000Y5260000D01*
X6202500D01*
X6165300Y5327800D02*
X6291020Y5453520D01*
Y5547500D01*
X5974410Y5433090D02*
Y5659410D01*
Y5433090D02*
X6085000Y5322500D01*
Y5235000D02*
Y5322500D01*
X8379300Y4299300D02*
X8504970D01*
X8912650Y4706990D01*
Y4864490D01*
X8978200Y4930040D01*
Y5003640D01*
X8971800Y5010030D02*
X8978200Y5003640D01*
X8971800Y5010030D02*
Y5049960D01*
X9003630Y5081800D01*
X9019970D01*
X9152100Y5213940D01*
X5423450Y6837150D02*
X5459770D01*
X5395210Y6808910D02*
X5423450Y6837150D01*
X5395210Y6771650D02*
Y6808910D01*
X8240000Y4160000D02*
X8379300Y4299300D01*
X5360720Y6737150D02*
X5395210Y6771650D01*
X6907470Y6538200D02*
X6908990Y6536680D01*
X6941680D01*
X6495070Y6538200D02*
X6907470D01*
X6445340Y6488480D02*
X6495070Y6538200D01*
X7016400Y6663900D02*
X7048900D01*
X7302500Y7475000D02*
X7372500D01*
X7037500Y6632500D02*
X7231480D01*
X7242180Y6621800D01*
X7748280D01*
X7859680Y6733200D01*
X7202160Y6999660D02*
Y7038160D01*
X7212390Y7476800D02*
X7306990Y7571400D01*
X6929300Y7309300D02*
X7136800D01*
X7302500Y7475000D01*
X5797140Y6040280D02*
X5965310D01*
X5993540Y6068510D01*
Y6104840D01*
X6028980Y6140280D01*
X6065310D01*
X6093540Y6168510D01*
Y6204840D01*
X6128980Y6240280D01*
X6165310D01*
X6193540Y6268510D01*
Y6304840D01*
X6228980Y6340280D01*
X6265310D01*
X6293540Y6368510D01*
Y6404840D01*
X6328980Y6440280D01*
X6365310D01*
X6397140Y6472110D01*
Y6608440D01*
X6425380Y6636680D01*
X6518900D01*
X6522500Y6640280D01*
X6992780D01*
X5677500Y6030000D02*
Y6088800D01*
X5728980Y6140280D01*
X6297140Y6608440D02*
X6328980Y6640280D01*
X6365310D01*
X6397140Y6672110D01*
Y6708440D01*
X6425380Y6736680D01*
X6448900D01*
X6452500Y6740280D01*
X5728980Y6140280D02*
X5965310D01*
X5993540Y6168510D01*
Y6204840D01*
X6028980Y6240280D01*
X6065310D01*
X6093540Y6268510D01*
Y6304840D01*
X6128980Y6340280D01*
X6165310D01*
X6193540Y6368510D01*
Y6404840D01*
X6228980Y6440280D01*
X6265310D01*
X6293540Y6468510D01*
Y6504840D01*
X6297140Y6508440D01*
Y6608440D01*
X5392550Y6137150D02*
X5625850D01*
X5725380Y6236680D01*
X5979180D01*
X5997140Y6254640D01*
Y6308440D01*
X6025380Y6336680D01*
X6061710D01*
X6097140Y6372110D01*
Y6408440D01*
X6125380Y6436680D01*
X6161710D01*
X6197140Y6472110D01*
Y6608440D01*
X6228980Y6640280D01*
X6265310D01*
X6293540Y6668510D01*
Y6704840D01*
X6328980Y6740280D01*
X6365310D01*
X6393540Y6768510D01*
Y6804840D01*
X6161710Y6636680D02*
X6193540Y6668510D01*
Y6804840D01*
X6260800Y6872100D01*
X6697140Y6972920D02*
Y7009250D01*
X6725380Y7037480D01*
X6774580D01*
X7015000Y7277900D01*
X6597140Y6972920D02*
Y7009250D01*
X6630100Y7042210D01*
X6664840D01*
X6696670Y7074040D01*
Y7110380D01*
X6727570Y7141270D01*
X6764840D01*
X6793070Y7169510D01*
Y7173070D01*
X6929300Y7309300D01*
X5459770Y6837150D02*
X5664830Y7042210D01*
X6564840D02*
X6596670Y7074040D01*
Y7110380D01*
X6627570Y7141270D01*
X6664840D01*
X6696670Y7173100D01*
Y7209440D01*
X6727570Y7240330D01*
X6764840D01*
X6793070Y7268570D01*
Y7270570D01*
X6999300Y7476800D01*
X7212390D01*
X5664830Y7042210D02*
X6564840D01*
X5261660Y6137150D02*
X5296150Y6171640D01*
Y6208910D01*
X5324390Y6237150D01*
X5561380D01*
X5664500Y6340280D01*
X5965310D01*
X5997140Y6372110D01*
Y6408440D01*
X6025380Y6436680D01*
X6061710D01*
X6097140Y6472110D01*
Y6608440D01*
X6125380Y6636680D01*
X6161710D01*
X4860340Y6237150D02*
X4897370Y6274190D01*
Y6308910D01*
X4925610Y6337150D01*
X4824010Y6237150D02*
X4860340D01*
X5028260Y6240750D02*
X5265250D01*
X5293490Y6268980D01*
Y6306250D01*
X5324390Y6337150D01*
X5562150D01*
X5665280Y6440280D01*
X5865310D01*
X5897140Y6472110D01*
Y6508440D01*
X5928980Y6540280D01*
X5965310D01*
X5997140Y6572110D01*
Y6608440D01*
X6028980Y6640280D01*
X6065310D01*
X6093540Y6668510D01*
Y6804840D01*
X4977500Y6437150D02*
X4996430Y6456080D01*
Y6508910D01*
X5024670Y6537150D01*
X5061000D01*
X5095490Y6571650D01*
Y6608910D01*
X5123730Y6637150D01*
X5160060D01*
X5191890Y6668980D01*
X5225330D01*
X5245290Y6688950D01*
X4925610Y6437150D02*
X4977500D01*
X5225330Y6637150D02*
X5360720D01*
X4925610Y6337150D02*
X4961940D01*
X4996430Y6371640D01*
Y6408910D01*
X5024670Y6437150D01*
X5061000D01*
X5095490Y6471650D01*
Y6508910D01*
X5123730Y6537150D01*
X5160060D01*
X5197090Y6574190D01*
Y6608910D01*
X5225330Y6637150D01*
X5494270Y6808910D02*
X5590350Y6905000D01*
X7770000Y7077500D02*
X7930700Y6916800D01*
X7309220Y7077500D02*
X7770000D01*
X7305680Y7081040D02*
X7309220Y7077500D01*
X7245030Y7081040D02*
X7305680D01*
X7202160Y7038160D02*
X7245030Y7081040D01*
X8837500Y6437500D02*
X8845000D01*
X7048900Y6663900D02*
X7156800Y6771800D01*
Y6777470D01*
X7185030Y6805700D01*
X7311800D01*
X7335700Y6781800D01*
X6260800Y6872100D02*
X6704600D01*
X6954300Y7121800D01*
X6452500Y6740280D02*
X6782220D01*
X6832500Y6690000D01*
X6997500D01*
X6393540Y6804840D02*
X6428700Y6840000D01*
X6772500D01*
X7043200Y6840700D02*
X7202160Y6999660D01*
X6773200Y6840700D02*
X7043200D01*
X7145000Y3973170D02*
Y4047500D01*
X7167500Y3927500D02*
X7173200Y3921800D01*
X7343200D01*
X7465000Y3800000D01*
X6617500Y3799340D02*
Y3820000D01*
X6843750Y4842500D02*
X6927500D01*
X6975700Y4843200D02*
X7200000Y5067500D01*
X6950700Y4890700D02*
X7180000Y5120000D01*
X6810700Y4890700D02*
X6950700D01*
X6753750Y4752500D02*
X6843750Y4842500D01*
X6712500Y4792500D02*
X6810700Y4890700D01*
X5780000Y4610000D02*
X6867500D01*
X7245000Y4987500D01*
X6975700Y4822530D02*
Y4843200D01*
X6947460Y4794300D02*
X6975700Y4822530D01*
X5815000Y4705000D02*
X6832500D01*
X6921800Y4794300D01*
X6947460D01*
X6892500Y5442500D02*
X6895000D01*
X6920000Y5467500D01*
X7302500D01*
X6721800Y5195320D02*
X6956480Y5430000D01*
X7391860D01*
X6882500Y5110000D02*
Y5292500D01*
X6980000Y5390000D01*
X7427500D01*
X4453600Y5966460D02*
X4527890Y6040750D01*
X4663280D01*
X4691510Y6068980D01*
Y6213660D01*
X4715000Y6237150D01*
X4761280D01*
X4087500Y5608900D02*
X4178200Y5518200D01*
X4100000Y5336480D02*
X4178200Y5414680D01*
X4100000Y5012500D02*
Y5336480D01*
Y5012500D02*
X4521800Y4590700D01*
Y4570040D02*
Y4590700D01*
X4820000Y5032500D02*
X4900000Y4952500D01*
Y4810000D02*
Y4952500D01*
Y4810000D02*
X5170000Y4540000D01*
X5297500D01*
X4982500Y4490000D02*
X5230000D01*
X4967500Y4427500D02*
X5241840D01*
X4945700Y4371800D02*
X5322470D01*
X4521800Y4570040D02*
X4886840Y4205000D01*
X5273170D01*
X4087500Y5608900D02*
Y5955000D01*
X4673250Y6240750D02*
X4721450Y6288950D01*
X4744910D01*
X4505750Y6240750D02*
X4673250D01*
X4087500Y5955000D02*
X4265000Y6132500D01*
X4397500D01*
X4505750Y6240750D01*
X4975000Y5215000D02*
Y5719320D01*
X5044630Y5788950D01*
X4897370Y5551150D02*
X4918200Y5530320D01*
Y5199300D02*
Y5530320D01*
Y5199300D02*
X5066560Y5050940D01*
X4767500Y5272500D02*
X4966560Y5073440D01*
X4767500Y5272500D02*
Y5677500D01*
X4795770Y5705770D01*
X4691800Y5083200D02*
X4742500Y5032500D01*
X4820000D01*
X4485000Y5897860D02*
X4527140Y5940000D01*
X4485000Y5746020D02*
Y5897860D01*
Y5746020D02*
X4540700Y5690320D01*
Y5543200D02*
Y5690320D01*
X4517500Y5520000D02*
X4540700Y5543200D01*
X4527140Y5940000D02*
X4597500D01*
X4453600Y5881100D02*
Y5966460D01*
X4390000Y5817500D02*
X4453600Y5881100D01*
X4390000Y5602500D02*
Y5817500D01*
Y5602500D02*
X4465000Y5527500D01*
X4637500Y4835000D02*
X4982500Y4490000D01*
X4591250Y4803750D02*
X4967500Y4427500D01*
X4537500Y4780000D02*
X4945700Y4371800D01*
X4569300Y5405700D02*
X4637500Y5337500D01*
Y4835000D02*
Y5337500D01*
X4517500Y5392500D02*
Y5520000D01*
Y5392500D02*
X4591250Y5318750D01*
Y4803750D02*
Y5318750D01*
X4465000Y5372500D02*
Y5527500D01*
Y5372500D02*
X4537500Y5300000D01*
Y4780000D02*
Y5300000D01*
X8352500Y6267500D02*
Y6472500D01*
X8091800Y6733200D02*
X8352500Y6472500D01*
X8043870Y7121800D02*
X9120700Y6044960D01*
X6954300Y7121800D02*
X8043870D01*
X9120700Y5355700D02*
Y6044960D01*
X7862500Y7215000D02*
X8132500D01*
X8435000Y6912500D01*
X7423200Y7525700D02*
X7551800D01*
X7372500Y7475000D02*
X7423200Y7525700D01*
X7551800D02*
X7862500Y7215000D01*
X7306990Y7571400D02*
X7908600D01*
X8326450Y7153550D01*
X8390370D01*
X8508920Y6860680D02*
Y7035000D01*
Y6860680D02*
X9152100Y6217500D01*
X8390370Y7153550D02*
X8508920Y7035000D01*
X9152100Y5213940D02*
Y6217500D01*
X7952500Y3880000D02*
X8022500Y3950000D01*
X7792550Y3914300D02*
X7975000Y4096750D01*
X6512500Y6236680D02*
X6788320D01*
X6822500Y6202500D01*
X7005820D01*
X7040000Y6236680D01*
X7112620D01*
X6745340Y6288480D02*
X7237000D01*
X6728980Y6340280D02*
X6810280D01*
X6865700Y6395700D01*
X6937500Y6132500D02*
Y6140000D01*
X6985700Y6112540D02*
Y6115700D01*
X7063880Y6193880D01*
X6909840Y6036680D02*
X6985700Y6112540D01*
X6934180Y6136680D02*
X6937500Y6140000D01*
X6525380Y6036680D02*
X6909840D01*
X6865700Y6395700D02*
X6974300D01*
X6990000Y6380000D02*
X7095000D01*
X6974300Y6395700D02*
X6990000Y6380000D01*
X5348200Y4149300D02*
X5385700Y4111800D01*
X6219960D01*
X5067500Y4944340D02*
Y4983400D01*
X5732500Y4322500D02*
X5793200Y4261800D01*
X5876800D01*
X5508200Y4356800D02*
X5542500Y4322500D01*
X5732500D01*
X5067500Y4944340D02*
X5550000Y4461840D01*
X5549300Y4439970D02*
X5550000Y4440670D01*
Y4461840D01*
X5549300Y4383200D02*
Y4439970D01*
Y4383200D02*
X5575000Y4357500D01*
X4569300Y5405700D02*
Y5504300D01*
X4592500Y5527500D01*
Y5838140D01*
X4696710Y5540790D02*
Y5908910D01*
Y5540790D02*
X4715700Y5521800D01*
X4691800Y5083200D02*
Y5201800D01*
X4715700Y5225700D01*
Y5521800D01*
X5575000Y4357500D02*
X5645000D01*
X6527500Y3968200D02*
X6603630D01*
X5987500Y4065000D02*
X6250000D01*
X4462500Y4542500D02*
Y4577500D01*
Y4542500D02*
X4689330Y4315670D01*
X5752900Y4567100D02*
X6884600D01*
X7265700Y4948200D01*
X5051400Y5268600D02*
X5752900Y4567100D01*
X5020000Y5240000D02*
X5724300Y4535700D01*
X6925700D01*
X7290000Y4900000D01*
X5645000Y4357500D02*
X5668200Y4380700D01*
X5742500Y4447500D02*
X6127500D01*
X4975000Y5215000D02*
X5742500Y4447500D01*
X6845000Y4382500D02*
X7210400Y4747900D01*
X6326250Y4141250D02*
X6568750D01*
X6637500Y4210000D01*
X6939470D01*
X6250000Y4065000D02*
X6326250Y4141250D01*
X6939470Y4210000D02*
X7002880Y4273410D01*
X6219960Y4111800D02*
X6366370Y4258200D01*
X5910000Y4295000D02*
X6900000D01*
X5876800Y4261800D02*
X5910000Y4295000D01*
X5668200Y4380700D02*
X5864300D01*
X5905000Y4340000D01*
X6127500Y4447500D02*
X6192500Y4382500D01*
X7495000Y3985000D02*
X7637500Y3842500D01*
X7615000Y4027500D02*
X7728200Y3914300D01*
X7792550D01*
X7552500Y4015000D02*
X7687500Y3880000D01*
X7952500D01*
X7637500Y3842500D02*
X7970000D01*
X7465000Y3800000D02*
X7985000D01*
X6362500Y3425000D02*
Y3450000D01*
X7152500Y4240000D01*
X5372500Y2355000D02*
X5505000D01*
X6414300Y3264300D02*
Y3299960D01*
X6571840Y3457500D01*
X6245700Y3162860D02*
Y3246160D01*
X6567500Y3567960D01*
X5110000Y2372500D02*
Y3000000D01*
X4975000Y2237500D02*
X5110000Y2372500D01*
Y3000000D02*
X5257500Y3147500D01*
X5749340D01*
X5750040Y3146800D01*
X6012460D01*
X7022840Y4157180D01*
X5390000Y2610000D02*
Y3062500D01*
X5427500Y3100000D01*
X6037500D01*
X6362500Y3425000D01*
X5678600Y3068600D02*
X6151440D01*
X5620000Y3010000D02*
X5678600Y3068600D01*
X5620000Y2596830D02*
Y3010000D01*
X5426360Y2403200D02*
X5620000Y2596830D01*
X6151440Y3068600D02*
X6245700Y3162860D01*
X5352530Y2403200D02*
X5426360D01*
X5831400Y3037200D02*
X6187200D01*
X5670000Y2875800D02*
X5831400Y3037200D01*
X5670000Y2520000D02*
Y2875800D01*
X5505000Y2355000D02*
X5670000Y2520000D01*
X6187200Y3037200D02*
X6414300Y3264300D01*
X4825470Y3989300D02*
X5911800D01*
X5987500Y4065000D01*
X6459300Y3900000D02*
X6527500Y3968200D01*
X4215000Y3842500D02*
X4352500D01*
X4410000Y3900000D01*
X6459300D01*
X8640000Y6432500D02*
Y6442500D01*
X8165700Y6916800D02*
X8640000Y6442500D01*
X7015000Y7277900D02*
X7374600D01*
X7482500Y7170000D01*
X4882500Y3387500D02*
X4960000Y3465000D01*
X5282500D01*
X5412500Y3595000D01*
X8908200Y5987540D02*
Y6080320D01*
X8120510Y6868010D02*
X8908200Y6080320D01*
X6564230Y6940000D02*
X6597140Y6972920D01*
X5590350Y6905000D02*
X5650000D01*
X5685000Y6940000D01*
X6564230D01*
X6093540Y6804840D02*
X6193700Y6905000D01*
X6629230D01*
X6697140Y6972920D01*
X5492500Y5139330D02*
Y5427500D01*
X5797500Y4662500D02*
X6860070D01*
X7225070Y5027500D01*
X7412500D01*
X6366370Y4258200D02*
X6940700D01*
X6900000Y4295000D02*
X6952500Y4347500D01*
X5905000Y4340000D02*
X6871840D01*
X6192500Y4382500D02*
X6845000D01*
X6885000Y3457500D02*
X7057170Y3629670D01*
Y3885330D01*
X6571840Y3457500D02*
X6885000D01*
X7057170Y3885330D02*
X7145000Y3973170D01*
X7667500Y4130000D02*
X7705000Y4167500D01*
Y4217500D01*
X7808200Y5049880D02*
Y5171800D01*
M02*
